<?xml version="1.0" encoding="UTF-8"?>
<!-- Generator: visioncortex VTracer 0.6.12 -->
<svg viewBox="0 0 4500 4500" version="1.1" xmlns="http://www.w3.org/2000/svg" width="4500" height="4500">
<path d="M0 0 C0.751 2.592 0.751 2.592 0.926 5.789 C1 7.016 1.075 8.242 1.151 9.506 C1.207 10.879 1.26 12.252 1.312 13.625 C1.383 15.074 1.453 16.524 1.524 17.973 C2.801 46.409 2.789 75.037 0.754 103.431 C0.13 112.581 -0.135 121.663 -0.083 130.838 C-0.079 132.256 -0.075 133.675 -0.071 135.093 C-0.056 139.729 -0.029 144.364 0 149 C0.005 149.799 0.01 150.598 0.014 151.421 C0.157 175.077 0.392 198.732 0.627 222.387 C0.743 234.093 0.85 245.798 0.945 257.504 C1.014 265.832 1.093 274.16 1.18 282.488 C1.231 287.422 1.278 292.355 1.312 297.289 C1.46 317.68 1.639 337.828 5 358 C5.133 358.805 5.267 359.611 5.404 360.441 C6.289 365.643 7.311 370.812 8.371 375.98 C8.694 377.591 9.015 379.202 9.336 380.813 C10.184 385.064 11.043 389.312 11.905 393.559 C13.363 400.756 14.798 407.957 16.239 415.157 C16.785 417.88 17.331 420.602 17.878 423.325 C20.106 434.432 22.272 445.548 24.371 456.68 C31.001 491.791 38.331 526.401 48.778 560.594 C51.28 568.868 53.641 577.18 55.984 585.5 C56.102 585.916 56.102 585.916 56.694 588.018 C62.189 607.523 67.489 627.081 72.754 646.649 C73.8 650.535 74.848 654.421 75.898 658.307 C85.812 695.001 85.812 695.001 89.719 710.293 C89.959 711.213 90.199 712.134 90.446 713.082 C92.274 720.371 92.424 726.585 91 734 C90.835 734.898 90.67 735.797 90.5 736.723 C89.488 742.228 88.42 747.72 87.316 753.207 C86.267 758.493 85.384 763.784 84.577 769.111 C79.964 799.252 68.985 827.683 57.75 855.875 C37.033 907.898 19.986 961.193 3.794 1014.781 C1.954 1020.869 0.091 1026.948 -1.794 1033.022 C-7.823 1052.484 -13.268 1071.487 -15.973 1091.715 C-17.092 1099.514 -19.064 1107.192 -22.645 1114.236 C-24 1117 -24 1117 -23.742 1119.281 C-23.456 1120.013 -23.17 1120.746 -22.875 1121.5 C-18.976 1132.351 -17.493 1143.076 -17.625 1154.562 C-17.628 1155.214 -17.628 1155.214 -17.643 1158.512 C-17.723 1166.594 -18.273 1174.561 -19.08 1182.604 C-21.139 1203.146 -21.171 1223.567 -21.062 1244.188 C-20.953 1265.498 -20.925 1286.712 -22.19 1307.995 C-22.857 1319.396 -23.29 1330.785 -23.531 1342.203 C-23.541 1342.665 -23.541 1342.665 -23.593 1345.004 C-24.222 1374.282 -24.335 1403.569 -24.517 1432.853 C-24.567 1440.851 -24.622 1448.849 -24.677 1456.848 C-24.719 1463.051 -24.761 1469.255 -24.802 1475.459 C-24.811 1476.933 -24.821 1478.407 -24.831 1479.881 C-24.863 1484.716 -24.894 1489.551 -24.924 1494.387 C-24.932 1495.665 -24.941 1496.942 -24.949 1498.259 C-24.983 1503.937 -25.005 1509.615 -24.983 1515.294 C-24.979 1516.251 -24.976 1517.208 -24.973 1518.193 C-24.965 1519.91 -24.954 1521.627 -24.938 1523.344 C-24.83 1546.163 -24.83 1546.163 -31.938 1554.188 C-38.705 1558.193 -46.239 1559.195 -54 1559 C-55.673 1555.879 -57.338 1552.752 -59 1549.625 C-59.477 1548.736 -59.954 1547.846 -60.445 1546.93 C-60.896 1546.079 -61.348 1545.228 -61.812 1544.352 C-62.231 1543.566 -62.65 1542.781 -63.082 1541.971 C-64 1540 -64 1540 -64 1538 C-65.196 1537.876 -66.392 1537.753 -67.625 1537.625 C-71.284 1537.157 -74.598 1536.494 -78 1535 C-78.99 1532.029 -79.127 1530.102 -79.129 1527.002 C-79.132 1525.953 -79.136 1524.904 -79.139 1523.823 C-79.137 1522.654 -79.135 1521.485 -79.133 1520.281 C-79.134 1519.022 -79.136 1517.763 -79.137 1516.466 C-79.14 1512.904 -79.136 1509.342 -79.129 1505.779 C-79.125 1503.492 -79.122 1501.205 -79.119 1498.918 C-79.104 1487.062 -79.061 1475.205 -79.013 1463.349 C-78.999 1459.827 -78.987 1456.306 -78.974 1452.784 C-78.92 1438.101 -78.853 1423.418 -78.761 1408.735 C-78.753 1407.363 -78.744 1405.991 -78.736 1404.619 C-78.731 1403.941 -78.727 1403.263 -78.723 1402.564 C-78.694 1397.847 -78.673 1393.13 -78.654 1388.413 C-78.529 1358.142 -77.961 1328.138 -75 1298 C-74.779 1295.651 -74.558 1293.301 -74.34 1290.951 C-74.249 1289.985 -74.158 1289.018 -74.064 1288.023 C-72.292 1268.506 -72.134 1248.492 -73.5 1228.938 C-75.36 1200.503 -73.341 1172.169 -71.423 1143.797 C-68.93 1106.732 -68.93 1106.732 -71 1101 C-72.324 1100.315 -73.659 1099.651 -75 1099 C-82.518 1091.255 -83.01 1081.14 -83.29 1070.868 C-83.853 1050.636 -86.823 1031.225 -93.328 1012.016 C-95.801 1004.579 -97.259 997.55 -97.915 989.722 C-99.234 974.002 -102.499 959.23 -106.546 944.015 C-108.004 938.501 -109.411 932.973 -110.824 927.446 C-111.198 925.986 -111.572 924.525 -111.947 923.065 C-115.043 911.004 -117.94 898.903 -120.742 886.77 C-120.939 885.92 -121.135 885.07 -121.338 884.194 C-123.084 876.638 -124.825 869.081 -126.541 861.518 C-132.319 836.061 -138.78 811.076 -147.875 786.562 C-151.647 776.302 -154.147 766.632 -155.551 755.762 C-155.762 754.153 -155.974 752.545 -156.188 750.938 C-156.297 750.1 -156.407 749.263 -156.521 748.4 C-158.142 736.902 -160.741 725.575 -163.219 714.238 C-163.394 713.433 -163.568 712.629 -163.748 711.8 C-164.076 710.291 -164.407 708.783 -164.744 707.277 C-174.476 662.459 -156.43 615.911 -138.537 575.476 C-129.167 554.283 -121.411 532.75 -114.468 510.654 C-107.511 488.591 -98.799 467.585 -89.066 446.613 C-88.582 445.567 -88.097 444.521 -87.598 443.444 C-86.455 440.979 -85.31 438.516 -84.164 436.052 C-70.77 407.233 -70.77 407.233 -66.284 393.716 C-62.136 381.244 -57.323 370.15 -49.105 359.84 C-39.291 346.602 -35.745 328.348 -36.008 312.18 C-36.028 310.198 -36.047 308.217 -36.065 306.235 C-36.07 305.717 -36.07 305.717 -36.097 303.093 C-36.237 287.091 -36.159 271.193 -34.688 255.25 C-34.621 254.533 -34.555 253.816 -34.487 253.078 C-34.085 248.777 -33.655 244.478 -33.219 240.18 C-29.377 201.871 -27.715 163.204 -34.122 125.035 C-34.187 124.633 -34.187 124.633 -34.512 122.602 C-34.571 122.263 -34.571 122.263 -34.87 120.549 C-35.144 115.188 -34.165 109.859 -33.268 104.585 C-30.42 87.481 -30.48 70.389 -30.389 53.101 C-30.352 46.701 -30.291 40.302 -30.23 33.902 C-30.211 31.695 -30.2 29.488 -30.189 27.28 C-30.068 8.254 -30.068 8.254 -26.418 3.969 C-25.361 3.12 -24.284 2.297 -23.188 1.5 C-22.653 1.072 -22.119 0.644 -21.568 0.203 C-14.692 -5.142 -7.047 -5.307 0 0 Z M-30.721 416.427 C-37.181 425.623 -40.627 436.158 -44.5 446.625 C-45.291 448.735 -46.084 450.844 -46.878 452.953 C-48.49 457.243 -50.094 461.535 -51.693 465.83 C-53.78 471.426 -55.908 477.006 -58.051 482.582 C-66.458 504.514 -74.044 526.631 -81.071 549.042 C-82.074 552.235 -83.081 555.426 -84.089 558.617 C-101.603 614.119 -101.603 614.119 -107 638 C-107.104 638.452 -107.104 638.452 -107.632 640.741 C-110.366 652.919 -111.741 665.308 -113.084 677.702 C-113.275 679.455 -113.47 681.206 -113.672 682.957 C-115.301 697.362 -115.896 711.387 -109.625 724.875 C-102.835 739.688 -101.227 756.44 -98.91 772.406 C-95.311 796.946 -90.268 820.949 -84.437 845.043 C-82.245 854.103 -80.133 863.182 -78.012 872.259 C-77.318 875.227 -76.62 878.194 -75.921 881.161 C-73.283 892.38 -70.749 903.617 -68.302 914.879 C-63.365 937.532 -57.297 959.681 -49.812 981.625 C-49.686 981.996 -49.686 981.996 -49.048 983.874 C-46.118 992.453 -42.968 1000.834 -39 1009 C-30.446 998.486 -26.28 983.37 -21.465 970.867 C-19.494 965.75 -17.505 960.641 -15.516 955.531 C-15.125 954.527 -14.733 953.522 -14.331 952.487 C-11.176 944.406 -7.91 936.378 -4.562 928.375 C-3.613 926.09 -2.664 923.805 -1.715 921.52 C-0.37 918.284 0.979 915.05 2.343 911.822 C11.656 889.691 18.358 866.858 25.154 843.858 C27.217 836.888 29.303 829.926 31.388 822.963 C31.878 821.325 32.367 819.688 32.856 818.05 C35.59 808.885 38.377 799.74 41.273 790.625 C41.409 790.198 41.409 790.198 42.095 788.037 C43.386 783.982 44.684 779.93 45.993 775.881 C57.349 740.569 57.349 740.569 50.363 722.859 C46.884 713.577 45.668 703.308 44.125 693.558 C42.017 680.249 39.387 667.141 36.34 654.016 C32.819 638.85 29.443 623.687 26.625 608.375 C22.447 585.933 22.447 585.933 17.858 578.034 C13.641 570.563 12.373 562.809 10.949 554.472 C8.08 537.87 4.295 521.611 -0.188 505.375 C-0.461 504.384 -0.734 503.393 -1.016 502.372 C-2.7 496.282 -4.408 490.197 -6.123 484.115 C-8.505 475.656 -10.861 467.19 -13.215 458.723 C-14.033 455.794 -14.859 452.867 -15.686 449.941 C-18.934 438.374 -21.686 426.789 -24 415 C-28.465 414.556 -28.465 414.556 -30.721 416.427 Z " fill="#000000" transform="translate(3727,1242)"/>
<path d="M0 0 C5.575 4.74 8.405 13.35 9.316 20.47 C9.488 23.154 9.583 25.828 9.645 28.516 C9.678 29.516 9.711 30.515 9.745 31.545 C9.844 34.697 9.924 37.848 10 41 C10.053 42.962 10.105 44.923 10.158 46.885 C10.315 53.086 10.437 59.287 10.557 65.489 C10.604 67.849 10.652 70.209 10.7 72.569 C10.829 78.937 10.954 85.304 11.078 91.671 C11.157 95.71 11.237 99.749 11.317 103.788 C11.585 117.326 11.851 130.865 12.114 144.404 C12.121 144.767 12.121 144.767 12.157 146.605 C12.171 147.332 12.185 148.059 12.2 148.809 C12.41 159.644 12.625 170.479 12.843 181.314 C14.35 256.208 15.505 331.09 16 406 C16.99 406 17.98 406 19 406 C29.397 427.107 35.104 449.353 40.981 472.027 C44.857 486.964 49.022 501.814 53.233 516.659 C66.868 564.739 79.928 612.987 91.938 661.5 C92.217 662.621 92.497 663.742 92.785 664.897 C95.793 676.988 98.506 689.099 100.797 701.348 C101.001 702.437 101.205 703.527 101.416 704.649 C103.3 715.045 104.385 725.457 105 736 C105.072 737.109 105.144 738.217 105.219 739.359 C105.315 742.276 105.215 745.09 105 748 C104.916 749.213 104.832 750.426 104.746 751.676 C102.45 774.28 92.838 796.919 83.688 817.5 C68.109 852.939 60.289 892.112 50.277 929.432 C44.485 951.013 38.497 972.528 32.312 994 C22.717 1027.339 22.717 1027.339 18.5 1043.188 C18.323 1043.845 18.147 1044.502 17.965 1045.178 C13.482 1061.904 11.848 1078.112 11.832 1095.402 C11.828 1096.788 11.824 1098.174 11.82 1099.559 C11.811 1103.254 11.81 1106.949 11.812 1110.644 C11.813 1112.95 11.812 1115.255 11.81 1117.561 C11.806 1140.306 12.233 1162.996 13.288 1185.72 C14.114 1203.557 14.487 1221.301 13.188 1239.125 C13.105 1240.31 13.022 1241.494 12.936 1242.715 C12.466 1249.259 11.94 1255.78 11.23 1262.303 C8.276 1290.609 8.719 1318.921 8.911 1347.348 C8.991 1359.261 9.051 1371.173 9.09 1383.086 C9.094 1384.356 9.099 1385.626 9.104 1386.934 C9.154 1404.783 8.771 1422.532 7.575 1440.341 C6.017 1463.59 6.017 1463.59 8.875 1473.375 C9.223 1474.62 9.571 1475.865 9.93 1477.148 C11 1480 11 1480 13 1481 C12.069 1486.672 9.613 1491.156 6.938 1496.188 C6.711 1496.645 6.711 1496.645 5.564 1498.959 C2.131 1505.393 2.131 1505.393 -0.971 1507.057 C-10.75 1509.682 -18.914 1507.052 -27.566 1502.473 C-30 1501 -30 1501 -32 1499 C-32.241 1497.145 -32.241 1497.145 -32.227 1494.847 C-32.227 1494.412 -32.227 1494.412 -32.227 1492.21 C-32.221 1491.731 -32.221 1491.731 -32.195 1489.309 C-32.192 1488.302 -32.189 1487.295 -32.186 1486.258 C-32.179 1484.065 -32.167 1481.872 -32.15 1479.679 C-32.125 1476.202 -32.112 1472.725 -32.102 1469.248 C-32.075 1460.603 -32.027 1451.958 -31.979 1443.313 C-31.94 1436.023 -31.908 1428.734 -31.888 1421.445 C-31.875 1418.031 -31.85 1414.618 -31.825 1411.204 C-31.817 1409.088 -31.811 1406.972 -31.805 1404.856 C-31.8 1404.386 -31.8 1404.386 -31.773 1402.01 C-31.773 1397.377 -32.092 1393.086 -33.002 1388.538 C-34.136 1382.821 -34.245 1377.349 -34.167 1371.535 C-34.161 1370.445 -34.154 1369.355 -34.148 1368.232 C-34.125 1364.652 -34.086 1361.072 -34.047 1357.492 C-34.026 1354.964 -34.005 1352.435 -33.985 1349.907 C-33.941 1344.603 -33.89 1339.299 -33.833 1333.995 C-33.762 1327.297 -33.708 1320.6 -33.659 1313.902 C-33.281 1264.031 -33.281 1264.031 -31.411 1239.676 C-30.535 1227.408 -30.863 1215.519 -32.938 1203.375 C-35.728 1186.575 -36.227 1169.943 -36.477 1152.955 C-36.729 1136.527 -38.426 1120.961 -41.827 1104.865 C-44.932 1090.129 -47.683 1075.338 -50.277 1060.504 C-50.566 1058.86 -50.854 1057.216 -51.142 1055.572 C-52.446 1048.126 -53.743 1040.679 -55.016 1033.228 C-55.556 1030.079 -56.106 1026.931 -56.657 1023.784 C-56.913 1022.31 -57.165 1020.834 -57.413 1019.359 C-59.2 1008.728 -61.904 999.488 -67.102 990.004 C-67.385 989.482 -67.385 989.482 -68.822 986.842 C-69.417 985.76 -70.012 984.678 -70.625 983.562 C-71.879 981.25 -73.133 978.938 -74.387 976.625 C-76.089 973.498 -77.795 970.372 -79.514 967.254 C-80.833 964.862 -82.136 962.463 -83.438 960.062 C-83.801 959.417 -84.165 958.771 -84.54 958.106 C-91.831 944.567 -96.067 929.195 -100.435 914.521 C-101.188 911.997 -101.956 909.479 -102.725 906.961 C-107.327 891.711 -111.529 876.014 -112.395 860.043 C-113.593 840.028 -116.916 822.703 -124 804 C-124.774 801.939 -125.545 799.876 -126.312 797.812 C-126.618 797.015 -126.924 796.217 -127.238 795.395 C-135.291 770.079 -121.667 741.34 -112.301 718.371 C-107.076 705.422 -102.394 692.313 -97.812 679.125 C-96.993 676.779 -96.173 674.434 -95.353 672.088 C-93.698 667.352 -92.046 662.615 -90.396 657.876 C-88.134 651.379 -85.857 644.886 -83.578 638.395 C-82.56 635.492 -81.543 632.589 -80.526 629.686 C-79.893 627.881 -79.26 626.077 -78.626 624.272 C-76.726 618.857 -74.845 613.435 -73 608 C-72.596 606.812 -72.193 605.623 -71.777 604.399 C-70.055 599.096 -68.788 594.04 -68.066 588.508 C-67.096 581.466 -64.684 575.396 -61.938 568.875 C-60.932 566.394 -59.931 563.912 -58.938 561.426 C-58.687 560.801 -58.437 560.177 -58.179 559.533 C-47.136 531.837 -39.634 502.601 -33.312 473.5 C-30.367 459.954 -26.373 447.082 -21.555 434.102 C-11.552 406.967 -13.201 378.911 -15.438 350.562 C-16.728 334.159 -17.608 317.832 -17.949 301.377 C-18.005 298.771 -18.068 296.165 -18.132 293.559 C-19.253 247.838 -19.545 202.103 -18.356 156.38 C-18.132 147.774 -17.943 139.171 -17.906 130.562 C-17.903 130.175 -17.903 130.175 -17.887 128.213 C-17.883 124.011 -18.289 120.151 -19 116 C-19.091 113.503 -19.131 111.003 -19.133 108.504 C-19.134 107.793 -19.135 107.083 -19.136 106.351 C-19.136 104.849 -19.135 103.347 -19.13 101.845 C-19.125 99.6 -19.13 97.356 -19.137 95.111 C-19.14 86.833 -18.876 78.647 -18.227 70.39 C-17.638 61.577 -17.904 52.907 -18.75 44.125 C-19.425 35.949 -17.881 28.66 -15.55 20.845 C-15.074 19.248 -14.646 17.636 -14.227 16.023 C-11.844 8.405 -6.331 4.519 0 0 Z M-3 494 C-23.951 546.938 -23.951 546.938 -28.965 568.587 C-29.121 569.26 -29.277 569.932 -29.438 570.625 C-29.595 571.305 -29.753 571.986 -29.915 572.686 C-35.251 595.502 -42.812 617.716 -50 640 C-50.381 641.183 -50.763 642.366 -51.156 643.584 C-51.938 646.008 -52.72 648.432 -53.502 650.857 C-54.666 654.467 -55.829 658.078 -56.992 661.688 C-58.459 666.241 -59.934 670.791 -61.416 675.339 C-64.676 685.394 -67.791 695.393 -70.147 705.702 C-71.041 709.159 -72.226 712.378 -73.562 715.688 C-79.938 731.519 -81.177 747.614 -78.75 764.375 C-78.64 765.231 -78.531 766.087 -78.418 766.969 C-77.745 771.715 -76.713 776.002 -75.07 780.508 C-72.51 787.847 -71.541 795.304 -70.478 802.972 C-66.504 831.444 -60.483 859.365 -51.883 886.82 C-48.243 898.495 -45.337 909.632 -43.998 921.799 C-41.333 945.616 -32.298 968.456 -23.962 990.779 C-23.269 992.637 -22.581 994.497 -21.894 996.357 C-19.472 1002.738 -16.862 1008.366 -13 1014 C-11.68 1013.67 -10.36 1013.34 -9 1013 C-8.919 1012.458 -8.919 1012.458 -8.512 1009.715 C-6.397 997.024 -2.505 985.236 2.027 973.242 C6.12 962.331 9.272 951.899 8.949 940.129 C8.72 931.609 10.538 924.1 12.812 915.938 C13.535 913.261 14.246 910.582 14.957 907.902 C15.137 907.236 15.316 906.569 15.501 905.882 C16.625 901.651 17.502 897.429 18.27 893.121 C20.503 881.539 24.344 870.362 27.875 859.125 C28.943 855.702 30.01 852.278 31.075 848.853 C31.765 846.639 32.456 844.425 33.148 842.211 C35.494 834.692 37.735 827.15 39.875 819.569 C42.514 811.199 46.348 803.274 50.273 795.441 C55.691 784.545 59.494 773.921 62 762 C62.201 761.055 62.402 760.11 62.609 759.137 C64.704 742.315 62.976 725.672 57.574 709.672 C54.97 701.613 53.613 693.557 52.378 685.197 C45.294 638.174 30.583 592.269 17.59 546.597 C16.445 542.572 15.307 538.545 14.174 534.517 C12.916 530.046 11.642 525.58 10.352 521.118 C9.918 519.613 9.489 518.107 9.066 516.598 C6.841 508.689 4.492 501.32 -1 495 C-1.33 494.835 -1.33 494.835 -3 494 Z " fill="#000000" transform="translate(1177,1066)"/>
<path d="M0 0 C7.225 12.319 9.587 25.07 9.033 39.192 C8.384 57.551 9.662 75.811 11.012 94.109 C11.063 94.811 11.115 95.513 11.168 96.236 C11.762 104.334 12.371 112.43 12.988 120.526 C14.126 135.461 15.208 150.401 16.294 165.34 C16.465 167.694 16.636 170.049 16.808 172.403 C18.66 197.799 20.363 223.199 21.75 248.625 C21.796 249.457 21.841 250.29 21.888 251.147 C23.175 274.656 24.308 298.173 25.456 321.689 C25.558 323.785 25.661 325.88 25.763 327.976 C25.969 332.171 26.173 336.365 26.378 340.56 C26.412 341.253 26.446 341.947 26.48 342.661 C26.914 351.565 27.341 360.468 27.76 369.373 C28.002 374.5 28.248 379.626 28.495 384.753 C28.608 387.133 28.72 389.513 28.829 391.894 C29.349 403.151 29.939 414.388 30.97 425.612 C31.045 426.45 31.12 427.288 31.197 428.151 C32.706 443.504 39.139 455.381 46.539 468.699 C58.487 490.283 67.327 512.97 76 536 C76.286 536.759 76.572 537.519 76.867 538.301 C77.724 540.576 78.581 542.85 79.438 545.125 C80.583 548.167 81.729 551.208 82.875 554.25 C83.161 555.01 83.447 555.769 83.742 556.552 C92.226 579.066 101.215 601.38 110.359 623.633 C110.718 624.506 111.077 625.38 111.447 626.28 C113.159 630.443 114.874 634.603 116.597 638.761 C119.624 646.082 122.589 653.418 125.379 660.832 C125.626 661.487 125.873 662.141 126.127 662.816 C133.068 681.474 131.389 699.137 124.25 717.5 C123.76 718.798 123.271 720.097 122.784 721.396 C121.472 724.886 120.147 728.37 118.818 731.853 C99.969 781.313 84.418 831.718 69.711 882.544 C68.959 885.142 68.206 887.741 67.453 890.339 C62.334 908.014 57.219 925.69 52.121 943.372 C51.854 944.298 51.587 945.224 51.312 946.178 C50.003 950.716 48.696 955.256 47.39 959.795 C45.042 967.951 42.682 976.103 40.276 984.242 C39.652 986.362 39.028 988.482 38.404 990.602 C37.84 992.511 37.269 994.417 36.698 996.323 C34.805 1002.756 33.299 1009.028 32.5 1015.688 C31.313 1025.045 28.339 1033.642 25.346 1042.564 C19.867 1059.09 16.793 1075.581 16.863 1093 C16.865 1093.524 16.865 1093.524 16.872 1096.175 C16.94 1106.636 17.424 1117.062 17.996 1127.506 C18.309 1133.218 18.602 1138.93 18.897 1144.642 C19.01 1146.817 19.123 1148.991 19.237 1151.166 C20.288 1171.36 21.259 1191.558 22.234 1211.756 C22.449 1216.212 22.665 1220.668 22.883 1225.125 C24.401 1256.182 25.776 1287.242 26.902 1318.316 C26.991 1320.741 27.081 1323.166 27.172 1325.591 C28.183 1352.813 28.416 1380.06 28.548 1407.298 C28.584 1414.479 28.638 1421.658 28.734 1428.838 C28.819 1435.208 28.873 1441.577 28.887 1447.948 C28.896 1451.289 28.925 1454.627 28.982 1457.969 C29.043 1461.667 29.047 1465.361 29.038 1469.059 C29.068 1470.141 29.099 1471.222 29.131 1472.336 C29.047 1478.519 28.053 1481.601 23.646 1486.055 C22.121 1487.397 20.573 1488.715 19 1490 C18.382 1490.564 17.764 1491.127 17.127 1491.708 C13.056 1495.38 8.959 1495.746 3.594 1495.488 C-0.604 1494.698 -2.206 1493.223 -5 1490 C-7.869 1485.509 -6.979 1481.003 -6 1476 C-5.515 1474.308 -5.014 1472.621 -4.5 1470.938 C-0.887 1458.02 -1.499 1448.242 -7 1436 C-7.934 1433.506 -8.831 1431.02 -9.688 1428.5 C-9.885 1427.938 -9.885 1427.938 -10.887 1425.094 C-14.144 1414.129 -14.327 1402.895 -14.25 1391.562 C-14.249 1391.183 -14.249 1391.183 -14.245 1389.262 C-14.216 1378.777 -13.804 1368.393 -13 1357.938 C-9.782 1315.245 -14.151 1273.618 -20.585 1231.428 C-22.346 1219.823 -23.939 1208.196 -25.5 1196.562 C-25.571 1196.031 -25.571 1196.031 -25.932 1193.343 C-28.312 1175.575 -30.558 1157.792 -32.75 1140 C-32.893 1138.844 -33.036 1137.688 -33.183 1136.497 C-34.911 1122.479 -36.534 1108.456 -37.934 1094.4 C-39.118 1082.887 -41.466 1072.235 -45.312 1061.312 C-48.845 1051.036 -51.066 1040.429 -53.453 1029.84 C-54.56 1024.929 -55.685 1020.023 -56.822 1015.119 C-57.907 1010.435 -58.985 1005.749 -60.062 1001.062 C-60.172 1000.589 -60.172 1000.589 -60.724 998.19 C-63.124 987.731 -65.375 977.286 -67.222 966.715 C-71.43 942.764 -79.96 920.348 -88.23 897.566 C-88.82 895.94 -89.41 894.314 -90 892.688 C-90.293 891.882 -90.586 891.076 -90.887 890.245 C-97.609 871.703 -103.491 852.935 -109 834 C-109.196 833.327 -109.393 832.654 -109.595 831.961 C-117.996 803.085 -123.535 773.572 -128.902 744.01 C-129.253 742.076 -129.607 740.142 -129.964 738.209 C-134.739 712.195 -135.129 691.702 -121.438 668.25 C-107.317 644.051 -97.153 618.49 -88.286 591.962 C-83.192 576.768 -77.117 562.356 -70 548 C-69.523 547.034 -69.047 546.069 -68.556 545.074 C-61.022 529.937 -52.454 515.464 -43.772 500.971 C-40.043 494.719 -36.435 488.418 -33 482 C-32.425 480.942 -31.85 479.883 -31.258 478.793 C-27.103 470.569 -24.042 461.936 -21.09 453.224 C-20.617 451.837 -20.136 450.452 -19.647 449.071 C-14.902 435.598 -14.902 435.598 -18.19 428.73 C-19 427 -19 427 -19 424 C-18.34 423.67 -17.68 423.34 -17 423 C-15.699 419.785 -14.87 416.401 -13.938 413.062 C-13.669 412.149 -13.4 411.236 -13.123 410.295 C-9.88 398.868 -9.94 388.037 -10.375 376.25 C-10.42 374.911 -10.464 373.573 -10.508 372.234 C-10.738 365.285 -10.987 358.337 -11.252 351.389 C-11.746 338.024 -12.083 324.675 -12.176 311.301 C-12.186 309.851 -12.197 308.401 -12.207 306.951 C-12.212 306.222 -12.218 305.493 -12.223 304.742 C-12.531 262.404 -14.275 220.248 -17 178 C-17.048 177.256 -17.096 176.512 -17.145 175.746 C-19.451 140.008 -22.235 104.31 -25.25 68.625 C-25.283 68.236 -25.283 68.236 -25.449 66.268 C-25.826 61.813 -26.206 57.358 -26.589 52.903 C-26.76 50.917 -26.93 48.931 -27.1 46.945 C-27.621 40.943 -28.219 34.973 -29 29 C-29.557 20.34 -29.338 14.35 -23.938 7.312 C-16.939 1.803 -8.747 -0.168 0 0 Z M2 482 C-2.077 489.548 -6.146 497.1 -10.205 504.658 C-11.286 506.671 -12.368 508.682 -13.451 510.693 C-24.857 531.89 -34.821 553.665 -44.376 575.743 C-49.279 587.071 -54.257 598.363 -59.312 609.625 C-60.005 611.17 -60.698 612.714 -61.391 614.259 C-62.457 616.636 -63.522 619.012 -64.588 621.388 C-68.842 630.873 -73.08 640.364 -77.309 649.859 C-78.171 651.793 -79.034 653.727 -79.897 655.661 C-82.259 660.947 -84.601 666.242 -86.92 671.547 C-87.975 673.944 -89.056 676.328 -90.14 678.712 C-93.661 686.616 -95.993 693.22 -95 702 C-94.932 703.611 -94.868 705.221 -94.809 706.832 C-94.12 716.97 -92.586 726.728 -90.215 736.605 C-90.066 737.236 -90.066 737.236 -89.31 740.425 C-84.735 759.598 -79.776 778.68 -74.858 797.767 C-73.702 802.255 -72.55 806.743 -71.403 811.233 C-62.837 844.744 -53.684 877.728 -42.344 910.424 C-35.211 931.023 -28.561 951.649 -22.965 972.723 C-20.619 981.553 -17.881 990.218 -14.784 998.813 C-14.25 1000.302 -13.73 1001.795 -13.22 1003.292 C-12.484 1005.455 -11.717 1007.603 -10.938 1009.75 C-10.513 1010.941 -10.089 1012.132 -9.652 1013.359 C-9.107 1014.231 -8.562 1015.102 -8 1016 C-4.897 1016.665 -4.897 1016.665 -2 1017 C12.826 970.368 12.826 970.368 15.468 951.689 C17.69 937.112 22.119 923.117 26.339 909.022 C27.236 906.025 28.126 903.026 29.016 900.027 C31.32 892.274 33.638 884.525 35.965 876.778 C37.479 871.739 38.987 866.698 40.493 861.655 C49.524 831.427 58.964 801.394 69.596 771.684 C76.494 752.307 82.445 732.625 85.875 712.312 C86.074 711.201 86.272 710.089 86.477 708.943 C89.879 689.714 88.709 674.005 81.75 655.625 C81.299 654.414 80.848 653.203 80.383 651.955 C74.975 637.565 69.18 623.321 63.438 609.062 C63.193 608.456 63.193 608.456 61.958 605.386 C52.657 582.306 42.741 559.545 32.462 536.887 C28.696 528.564 24.996 520.25 21.812 511.684 C21.692 511.363 21.692 511.363 21.085 509.741 C19.991 506.808 18.933 503.868 17.926 500.904 C15.009 492.881 10.702 487.341 4 482 C3.34 482 2.68 482 2 482 Z " fill="#000000" transform="translate(2852,1820)"/>
<path d="M0 0 C3.689 3.205 3.803 4.921 4.216 9.62 C4.269 10.556 4.323 11.491 4.378 12.455 C4.456 13.432 4.534 14.41 4.614 15.417 C4.857 18.548 5.061 21.68 5.264 24.814 C5.419 26.877 5.576 28.939 5.735 31.002 C6.1 35.816 6.441 40.632 6.75 45.45 C6.895 47.691 7.048 49.932 7.205 52.172 C7.856 61.79 8.183 71.39 8.367 81.028 C8.418 83.699 8.474 86.369 8.531 89.04 C8.611 92.843 8.69 96.646 8.768 100.449 C9.884 154.635 9.884 154.635 11.014 178.252 C11.055 179.1 11.095 179.949 11.136 180.823 C11.472 187.804 11.858 194.771 12.499 201.732 C13.094 208.551 13.136 215.348 13.139 222.189 C13.152 223.376 13.164 224.564 13.177 225.787 C13.187 232.666 12.982 239.481 12.485 246.344 C10.637 272.141 10.847 297.842 11.162 323.693 C11.215 328.438 11.254 333.184 11.293 337.93 C11.953 416.061 11.953 416.061 18.315 427.861 C18.784 428.746 19.252 429.631 19.735 430.542 C20.24 431.457 20.744 432.372 21.264 433.314 C21.527 433.803 21.527 433.803 22.854 436.275 C24.533 439.383 26.238 442.476 27.952 445.564 C28.531 446.61 29.11 447.656 29.707 448.734 C39.6 466.539 39.6 466.539 43.475 472.416 C46.866 477.792 49.175 483.661 51.639 489.502 C52.793 492.206 53.951 494.909 55.108 497.611 C55.414 498.326 55.719 499.042 56.034 499.779 C58.376 505.25 60.763 510.7 63.171 516.142 C74.084 540.82 84.658 565.622 94.952 590.564 C95.374 591.586 95.795 592.607 96.23 593.659 C98.9 600.132 101.563 606.607 104.217 613.086 C105.063 615.149 105.909 617.211 106.756 619.273 C111.276 630.284 115.69 641.331 119.917 652.459 C120.293 653.438 120.669 654.417 121.057 655.426 C128.703 675.772 126.718 695.757 122.064 716.654 C121.389 719.69 120.753 722.733 120.122 725.779 C116.72 741.825 112.402 757.595 105.327 772.439 C100.804 782.412 99.046 792.866 96.952 803.564 C87.504 851.325 75.387 898.351 62.354 945.242 C61.653 947.766 60.953 950.291 60.252 952.816 C55.209 970.978 49.998 989.066 44.255 1007.021 C41.554 1015.493 39.12 1023.997 36.97 1032.625 C34.532 1042.371 30.617 1050.973 21.952 1056.564 C20.53 1057.069 19.092 1057.531 17.639 1057.939 C15.2 1058.717 14.202 1059.11 12.947 1061.388 C9.171 1073.365 10.719 1085.941 11.907 1098.274 C12.98 1110.034 13.543 1121.782 13.987 1133.58 C14.071 1135.699 14.155 1137.817 14.24 1139.936 C14.46 1145.446 14.673 1150.955 14.885 1156.465 C15.226 1165.291 15.577 1174.117 15.926 1182.943 C16.046 1185.982 16.163 1189.021 16.28 1192.06 C16.354 1193.965 16.429 1195.871 16.503 1197.776 C16.534 1198.588 16.564 1199.4 16.596 1200.237 C16.76 1204.424 16.951 1208.607 17.197 1212.79 C17.854 1224.124 18.108 1235.411 18.125 1246.762 C18.132 1248.597 18.139 1250.431 18.146 1252.265 C18.16 1256.176 18.172 1260.087 18.182 1263.998 C18.197 1270.217 18.221 1276.435 18.247 1282.654 C18.317 1300.324 18.377 1317.995 18.429 1335.665 C18.457 1345.455 18.493 1355.245 18.535 1365.035 C18.557 1370.188 18.576 1375.342 18.586 1380.495 C18.627 1401.369 18.876 1422.106 20.497 1442.925 C23.067 1476.922 23.067 1476.922 16.225 1485.806 C9.093 1491.94 3.417 1492.864 -5.861 1492.252 C-9.367 1491.929 -12.647 1491.455 -16.048 1490.564 C-16.558 1483.112 -17.063 1475.659 -17.561 1468.207 C-17.793 1464.742 -18.026 1461.278 -18.264 1457.814 C-18.54 1453.79 -18.808 1449.765 -19.075 1445.74 C-19.158 1444.555 -19.24 1443.371 -19.325 1442.15 C-19.6 1437.956 -19.835 1433.762 -20.048 1429.564 C-20.093 1428.693 -20.139 1427.822 -20.185 1426.925 C-21.473 1400.821 -21.195 1374.674 -21.182 1348.546 C-21.181 1344.529 -21.181 1340.512 -21.182 1336.495 C-21.182 1335.823 -21.182 1335.15 -21.182 1334.457 C-21.183 1333.09 -21.183 1331.723 -21.183 1330.356 C-21.186 1317.637 -21.183 1304.918 -21.178 1292.199 C-21.173 1281.317 -21.174 1270.434 -21.178 1259.552 C-21.184 1246.843 -21.186 1234.135 -21.183 1221.427 C-21.183 1220.071 -21.182 1218.714 -21.182 1217.358 C-21.182 1217.025 -21.182 1217.025 -21.181 1215.337 C-21.181 1210.665 -21.182 1205.992 -21.184 1201.32 C-21.187 1195.033 -21.185 1188.746 -21.179 1182.459 C-21.178 1180.16 -21.179 1177.861 -21.181 1175.561 C-21.19 1164.841 -21.171 1154.237 -20.048 1143.564 C-19.188 1129.022 -21.289 1117.617 -28.048 1104.564 C-29.866 1097.397 -29.27 1090.015 -28.286 1082.76 C-27.358 1074.203 -28.015 1066.625 -30.278 1058.325 C-31.939 1052.203 -33.21 1046.039 -34.423 1039.814 C-39.297 1015.123 -44.373 990.746 -52.673 966.939 C-57.014 954.13 -59.536 940.828 -61.768 927.513 C-69.301 882.857 -86.017 839.743 -101.07 797.172 C-102.8 792.274 -104.515 787.372 -106.228 782.469 C-113.442 761.823 -120.655 741.208 -129.027 720.997 C-136.227 703.35 -137.044 691.282 -130.962 673.236 C-130.544 671.968 -130.127 670.7 -129.711 669.432 C-128.607 666.078 -127.488 662.729 -126.365 659.381 C-125.437 656.609 -124.516 653.835 -123.595 651.06 C-121.15 643.7 -118.684 636.347 -116.205 628.998 C-115.201 626.017 -114.201 623.035 -113.203 620.052 C-108.644 606.451 -103.707 593.401 -97.169 580.617 C-92.947 572.055 -90.313 563.186 -87.611 554.064 C-83.285 539.534 -77.653 526.722 -70.048 513.564 C-68.07 510.033 -66.118 506.488 -64.173 502.939 C-63.927 502.491 -63.927 502.491 -62.68 500.222 C-50.744 478.298 -40.447 455.381 -30.624 432.442 C-29.346 429.46 -28.061 426.587 -26.496 423.741 C-21.456 414.066 -22.386 403.302 -22.415 392.674 C-22.429 386.304 -22.361 379.934 -22.294 373.564 C-22.282 372.245 -22.269 370.925 -22.256 369.565 C-22.113 356.757 -21.44 343.989 -20.699 331.203 C-19.637 312.761 -18.709 294.323 -18.572 275.848 C-18.557 273.936 -18.533 272.024 -18.499 270.113 C-18.3 257.798 -19.622 246.157 -21.689 234.022 C-23.79 221.556 -25.029 209.099 -25.997 196.498 C-26.071 195.543 -26.144 194.588 -26.22 193.604 C-26.667 187.732 -27.097 181.858 -27.52 175.984 C-28.094 168.05 -28.691 160.118 -29.288 152.186 C-29.491 149.461 -29.687 146.737 -29.882 144.012 C-30.434 136.474 -31.069 128.999 -32.13 121.513 C-32.978 115.49 -33.359 109.647 -33.294 103.568 C-33.289 102.598 -33.283 101.627 -33.277 100.627 C-33.141 89.868 -32.15 79.204 -31.111 68.502 C-28.929 45.39 -28.929 45.39 -28.806 35.24 C-28.801 34.893 -28.801 34.893 -28.775 33.139 C-28.738 30.026 -28.745 26.922 -28.816 23.81 C-28.797 13.8 -24.579 7.145 -17.861 -0.061 C-11.961 -5.043 -6.484 -3.054 0 0 Z M-8.048 453.564 C-15.081 461.49 -19.842 469.469 -23.615 479.365 C-24.918 482.772 -26.297 486.149 -27.677 489.525 C-27.954 490.205 -28.231 490.885 -28.517 491.585 C-31.256 498.221 -34.441 504.594 -37.798 510.939 C-38.342 511.969 -38.886 512.999 -39.447 514.06 C-41.748 518.373 -44.09 522.658 -46.513 526.904 C-59 548.996 -65.141 574.274 -72.468 598.398 C-77.683 615.523 -83.481 632.164 -90.29 648.709 C-97.786 666.982 -104.427 685.274 -99.072 704.955 C-98.854 705.767 -98.635 706.579 -98.411 707.416 C-95.248 718.847 -91.226 730.004 -87.298 741.189 C-86.453 743.614 -85.608 746.038 -84.764 748.463 C-83.038 753.419 -81.309 758.374 -79.576 763.327 C-77.21 770.096 -74.858 776.87 -72.513 783.646 C-71.792 785.728 -71.072 787.809 -70.351 789.891 C-70.001 790.903 -69.651 791.915 -69.29 792.958 C-62.891 811.435 -56.451 829.898 -49.979 848.349 C-49.461 849.83 -48.943 851.31 -48.427 852.792 C-47.043 856.761 -45.63 860.717 -44.182 864.663 C-40.74 874.114 -38.014 883.128 -36.611 893.127 C-32.845 916.439 -24.949 938.457 -16.793 960.545 C-15.992 962.716 -15.195 964.889 -14.398 967.062 C-12.663 971.794 -10.919 976.523 -9.173 981.252 C-8.896 982.003 -8.619 982.755 -8.334 983.529 C-0.297 1005.316 -0.297 1005.316 2.952 1008.564 C5.939 1009.12 7.997 1009.061 10.725 1007.642 C19.975 1000.776 22.517 986.403 26.017 975.871 C26.745 973.686 27.485 971.505 28.227 969.324 C36.293 945.343 42.22 920.846 47.514 896.127 C48.633 890.959 49.758 885.793 50.882 880.627 C51.15 879.39 51.418 878.152 51.695 876.878 C53.99 866.318 56.404 855.79 58.948 845.287 C61.379 835.145 63.161 825.189 63.452 814.752 C63.832 801.335 65.614 789.137 70.462 776.558 C71.75 773.198 72.971 769.813 74.19 766.427 C74.433 765.754 74.675 765.08 74.925 764.386 C88.235 726.987 96.289 677.802 78.952 640.564 C78.506 639.655 78.06 638.746 77.6 637.81 C73.713 629.746 70.919 621.664 68.371 613.114 C57.42 576.52 41.954 541.705 24.952 507.564 C24.508 506.667 24.064 505.769 23.606 504.844 C17.143 491.861 9.583 479.626 1.771 467.416 C0.496 465.416 -0.77 463.411 -2.027 461.4 C-2.343 460.896 -2.343 460.896 -3.943 458.345 C-4.515 457.428 -5.087 456.511 -5.676 455.566 C-6.129 454.906 -6.582 454.245 -7.048 453.564 C-7.378 453.564 -7.708 453.564 -8.048 453.564 Z " fill="#000000" transform="translate(2092.048095703125,1941.435791015625)"/>
<path d="M0 0 C3.053 2.034 5.754 4.137 8.348 6.73 C8.649 9.382 8.827 11.943 8.926 14.604 C8.945 15.011 8.945 15.011 9.04 17.075 C9.164 19.794 9.273 22.514 9.383 25.234 C9.466 27.148 9.551 29.061 9.636 30.975 C9.86 36.05 10.071 41.126 10.281 46.201 C10.45 50.238 10.627 54.275 10.805 58.311 C11.021 63.244 11.234 68.177 11.445 73.109 C11.465 73.557 11.465 73.557 11.562 75.82 C12.753 103.656 13.472 131.484 13.763 159.343 C13.814 164.252 13.871 169.16 13.928 174.069 C14.081 187.148 14.228 200.227 14.369 213.307 C15.043 275.483 16.037 337.653 18.78 399.778 C19.935 425.991 20.715 452.119 20.237 478.363 C20.005 493.741 21.679 507.628 26.578 522.289 C27.348 524.73 27.348 524.73 27.348 526.73 C27.784 526.855 27.784 526.855 29.992 527.484 C47.238 533.889 59.529 552.113 69.348 566.73 C69.571 567.058 69.571 567.058 70.7 568.715 C76.887 577.942 78.652 584.737 76.859 595.723 C71.882 619.236 53.668 634.266 35.512 648.285 C33.5 649.84 31.513 651.425 29.559 653.051 C27.348 654.73 27.348 654.73 25.348 654.73 C25.403 655.378 25.458 656.025 25.515 656.692 C25.776 659.767 26.031 662.843 26.285 665.918 C26.372 666.934 26.459 667.951 26.549 668.998 C28.001 686.696 28.497 704.374 28.477 722.125 C28.478 724.17 28.48 726.214 28.482 728.258 C28.487 733.739 28.485 739.22 28.482 744.701 C28.479 750.468 28.482 756.235 28.483 762.002 C28.485 771.669 28.483 781.337 28.478 791.005 C28.473 802.16 28.474 813.314 28.48 824.469 C28.484 834.087 28.485 843.704 28.482 853.322 C28.481 859.049 28.481 864.776 28.484 870.503 C28.487 875.88 28.485 881.256 28.479 886.633 C28.478 888.598 28.478 890.564 28.48 892.53 C28.49 901.995 28.407 911.314 27.348 920.73 C26.896 929.397 27.282 937.17 29.691 945.535 C31.076 952.275 30.325 959.148 29.543 965.934 C29.37 967.542 29.198 969.151 29.027 970.76 C28.936 971.607 28.845 972.454 28.752 973.327 C26.072 998.78 25.166 1024.249 24.433 1049.821 C24.335 1053.169 24.225 1056.516 24.114 1059.863 C23.561 1076.678 23.313 1093.498 23.102 1110.32 C23.096 1110.741 23.096 1110.741 23.069 1112.871 C22.962 1121.453 22.858 1130.034 22.766 1138.616 C22.432 1169.789 21.715 1200.82 19.348 1231.918 C19.077 1235.535 18.808 1239.153 18.543 1242.771 C18.38 1244.979 18.215 1247.187 18.045 1249.394 C17.789 1252.838 17.563 1256.283 17.348 1259.73 C17.302 1260.422 17.257 1261.114 17.211 1261.827 C16.023 1280.68 16.234 1299.556 16.279 1318.436 C16.289 1323.252 16.293 1328.068 16.297 1332.885 C16.309 1346.168 16.33 1359.45 16.353 1372.733 C16.378 1387.741 16.399 1402.749 16.41 1417.758 C16.411 1418.729 16.412 1419.701 16.413 1420.701 C16.439 1455.72 16.1 1490.72 15.348 1525.73 C13.949 1526.241 12.545 1526.74 11.141 1527.234 C10.36 1527.514 9.579 1527.793 8.774 1528.08 C4.884 1529.123 1.174 1528.953 -2.652 1527.73 C-10.001 1523.311 -19.297 1517.106 -21.496 1508.383 C-21.531 1504.446 -21.099 1500.633 -20.652 1496.73 C-18.715 1479.686 -18.339 1462.814 -18.402 1445.668 C-18.404 1443.673 -18.405 1441.677 -18.406 1439.682 C-18.421 1422.982 -18.708 1406.326 -20.204 1389.685 C-20.777 1382.297 -20.485 1375.931 -19.227 1368.672 C-17.536 1358.596 -17.352 1348.66 -17.316 1338.473 C-17.313 1337.645 -17.31 1336.818 -17.307 1335.965 C-17.292 1331.639 -17.287 1327.312 -17.285 1322.985 C-17.245 1273.655 -17.245 1273.655 -14.215 1251.855 C-14.101 1251.035 -13.988 1250.214 -13.871 1249.368 C-13.645 1247.742 -13.418 1246.115 -13.191 1244.489 C-13.082 1243.703 -12.972 1242.916 -12.859 1242.105 C-12.751 1241.335 -12.643 1240.565 -12.532 1239.772 C-10.291 1223.225 -10.126 1206.401 -9.652 1189.73 C-9.624 1188.778 -9.596 1187.825 -9.567 1186.843 C-8.714 1157.73 -8.511 1128.605 -8.465 1099.48 C-8.464 1098.674 -8.462 1097.867 -8.461 1097.036 C-8.437 1077.727 -8.612 1058.434 -9.172 1039.133 C-9.196 1038.296 -9.22 1037.46 -9.245 1036.598 C-9.48 1028.545 -9.733 1020.492 -10.033 1012.44 C-10.141 1009.501 -10.24 1006.562 -10.338 1003.622 C-10.407 1001.65 -10.49 999.679 -10.574 997.707 C-10.783 991.402 -10.572 985.454 -9.681 979.204 C-8.216 968.932 -8.375 958.685 -8.434 948.328 C-8.44 946.036 -8.446 943.743 -8.453 941.45 C-8.577 910.925 -9.273 880.405 -9.881 849.886 C-10.269 830.386 -10.637 810.884 -10.984 791.383 C-11.001 790.471 -11.017 789.56 -11.034 788.621 C-11.598 756.823 -11.925 725.034 -11.84 693.23 C-11.837 692.271 -11.835 691.311 -11.832 690.322 C-11.801 679.458 -11.745 668.594 -11.652 657.73 C-11.952 657.632 -11.952 657.632 -13.467 657.136 C-14.262 656.874 -15.058 656.611 -15.878 656.341 C-16.27 656.212 -16.27 656.212 -18.254 655.559 C-35.789 649.502 -54.924 640.254 -63.66 622.992 C-70.323 607.804 -69.759 591.149 -69.965 574.855 C-69.995 573.62 -70.024 572.384 -70.055 571.111 C-70.13 559.457 -67.455 551.71 -59.367 543.281 C-50.908 535.333 -41.364 528.728 -31.902 522.043 C-31.02 521.418 -30.138 520.793 -29.229 520.149 C-28.405 519.574 -27.58 518.999 -26.73 518.406 C-26.361 518.148 -26.361 518.148 -24.493 516.841 C-22.652 515.73 -22.652 515.73 -20.652 515.73 C-20.42 483.348 -20.498 450.979 -21.34 418.605 C-21.359 417.859 -21.379 417.113 -21.398 416.344 C-22.045 391.67 -22.961 367.005 -23.898 342.34 C-23.955 340.854 -24.011 339.368 -24.068 337.882 C-24.606 323.697 -25.149 309.513 -25.716 295.329 C-25.944 289.634 -26.168 283.938 -26.39 278.242 C-26.519 274.926 -26.651 271.611 -26.787 268.295 C-27.867 242.038 -27.811 215.882 -27.081 189.623 C-26.612 172.573 -26.558 155.54 -26.638 138.485 C-26.662 133.371 -26.675 128.258 -26.686 123.145 C-26.719 108.644 -26.762 94.143 -26.824 79.642 C-26.858 71.549 -26.882 63.456 -26.894 55.364 C-26.902 50.288 -26.923 45.212 -26.954 40.136 C-26.97 36.996 -26.974 33.856 -26.973 30.715 C-26.976 29.267 -26.983 27.819 -26.997 26.371 C-27.14 9.908 -27.14 9.908 -21.934 3.672 C-21.346 3.217 -20.758 2.762 -20.152 2.293 C-19.565 1.82 -18.977 1.347 -18.371 0.859 C-13.137 -2.578 -5.54 -2.652 0 0 Z " fill="#000000" transform="translate(3273.65234375,1668.26953125)"/>
<path d="M0 0 C0.875 0.144 1.751 0.289 2.652 0.438 C6.305 1.21 9.082 1.8 11.414 4.848 C12.503 7.204 13.281 9.505 14 12 C14.148 12.464 14.148 12.464 14.895 14.812 C15.637 17.199 16.336 19.591 17 22 C15.68 22 14.36 22 13 22 C13.012 22.886 13.023 23.771 13.035 24.684 C13.044 25.922 13.053 27.161 13.062 28.438 C13.074 29.632 13.086 30.827 13.098 32.059 C13.065 36.313 12.797 40.547 12.528 44.791 C12.012 53.285 11.682 61.776 11.453 70.281 C11.432 71.037 11.412 71.792 11.39 72.57 C10.837 93.211 10.76 113.853 10.75 134.5 C10.749 135.017 10.749 135.017 10.747 137.632 C10.718 168.896 11.31 200.079 12.544 231.317 C13.64 259.139 14.15 286.936 14.281 314.777 C14.289 316.42 14.298 318.062 14.306 319.705 C14.378 334.503 14.441 349.301 14.442 364.1 C14.443 373.359 14.458 382.619 14.496 391.879 C14.498 392.256 14.498 392.256 14.505 394.163 C14.616 419.499 15.76 444.68 17.436 469.957 C18.824 490.893 19.562 511.698 19.333 532.677 C19.305 535.704 19.297 538.73 19.289 541.757 C19.252 555.78 19.055 569.78 18.488 583.793 C18 596.011 17.932 608.208 17.93 620.434 C17.878 673.802 16.099 726.837 12.615 780.095 C12.537 781.287 12.459 782.478 12.379 783.706 C12.019 789.214 11.653 794.721 11.268 800.227 C8.488 840.763 7.674 881.276 7.665 921.897 C7.664 925.783 7.66 929.668 7.654 933.553 C7.637 946.46 7.628 959.366 7.629 972.273 C7.629 972.615 7.629 972.615 7.629 974.348 C7.629 975.034 7.63 975.72 7.63 976.426 C7.63 987.654 7.611 998.882 7.583 1010.11 C7.554 1021.738 7.541 1033.366 7.542 1044.995 C7.543 1051.485 7.537 1057.975 7.516 1064.465 C7.497 1070.529 7.496 1076.593 7.511 1082.656 C7.513 1084.877 7.508 1087.098 7.496 1089.319 C7.481 1092.349 7.49 1095.378 7.506 1098.408 C7.495 1099.285 7.485 1100.161 7.474 1101.065 C7.56 1108.672 10.411 1113.233 15.102 1119.164 C15.67 1119.887 16.238 1120.61 16.823 1121.354 C17.12 1121.729 17.12 1121.729 18.625 1123.625 C19.242 1124.416 19.858 1125.207 20.494 1126.023 C23.27 1129.581 26.065 1133.107 29 1136.535 C39.418 1148.883 41.257 1162.395 40 1178 C38.005 1191.269 28.703 1201.405 19 1210 C18.337 1210.32 17.674 1210.641 16.991 1210.971 C14.341 1212.384 12.825 1213.592 11 1216 C9.826 1221.643 10.045 1227.214 10.184 1232.953 C10.196 1234.653 10.205 1236.354 10.211 1238.054 C10.236 1242.543 10.309 1247.03 10.392 1251.518 C10.466 1255.987 10.491 1260.456 10.521 1264.926 C10.601 1274.952 10.771 1284.976 11 1295 C11.016 1295.692 11.031 1296.383 11.047 1297.096 C11.599 1320.739 11.599 1320.739 13.486 1331.331 C15.847 1345.082 16.331 1358.547 16.27 1372.469 C16.268 1373.477 16.266 1374.486 16.264 1375.526 C16.206 1398.307 15.105 1421.011 13.799 1443.75 C13.564 1447.881 13.342 1452.012 13.12 1456.143 C12.547 1466.785 11.94 1477.424 11.297 1488.062 C11.109 1491.167 10.927 1494.273 10.754 1497.38 C10.548 1501.029 10.322 1504.677 10.086 1508.324 C10.034 1509.312 9.982 1510.3 9.929 1511.318 C9.445 1518.181 8.061 1525.119 2.875 1530 C-4.814 1532.674 -11.258 1531.927 -19 1530 C-19.468 1526.855 -19.924 1523.71 -20.375 1520.562 C-20.501 1519.723 -20.628 1518.883 -20.758 1518.018 C-23.382 1499.449 -24.248 1480.645 -24.891 1461.92 C-25.004 1458.623 -25.125 1455.325 -25.246 1452.028 C-25.46 1446.194 -25.668 1440.36 -25.875 1434.526 C-26.242 1424.163 -26.618 1413.8 -27 1403.438 C-27.041 1402.322 -27.082 1401.207 -27.124 1400.059 C-27.671 1385.249 -28.379 1370.463 -29.286 1355.671 C-29.845 1346.383 -30.259 1337.099 -30.527 1327.797 C-30.548 1327.091 -30.569 1326.386 -30.59 1325.659 C-31.212 1304.1 -31.337 1282.532 -31.526 1260.966 C-31.577 1255.134 -31.632 1249.302 -31.692 1243.47 C-31.718 1240.784 -31.739 1238.098 -31.76 1235.412 C-31.776 1233.764 -31.793 1232.116 -31.811 1230.469 C-31.815 1229.741 -31.819 1229.013 -31.823 1228.263 C-31.994 1214.036 -31.994 1214.036 -34.855 1211.09 C-35.625 1210.71 -36.395 1210.329 -37.188 1209.938 C-45.549 1205.112 -48.98 1198.116 -51.554 1189.046 C-52.035 1186.841 -52.209 1184.762 -52.316 1182.508 C-52.359 1181.644 -52.401 1180.781 -52.445 1179.892 C-52.605 1176.135 -52.758 1172.378 -52.896 1168.62 C-52.986 1166.351 -53.106 1164.087 -53.238 1161.82 C-53.685 1150.16 -49.701 1144.748 -42.055 1136.438 C-31.73 1124.189 -27.777 1109.731 -27.973 1094.039 C-27.985 1092.017 -27.998 1089.995 -28.01 1087.973 C-28.034 1084.846 -28.061 1081.719 -28.096 1078.592 C-28.241 1064.534 -27.768 1050.614 -26.815 1036.587 C-26.132 1026.493 -25.624 1016.402 -25.219 1006.293 C-25.189 1005.55 -25.159 1004.808 -25.128 1004.043 C-24.883 997.996 -24.646 991.949 -24.411 985.902 C-24.207 980.615 -23.997 975.329 -23.781 970.043 C-23.752 969.307 -23.722 968.57 -23.691 967.812 C-23.3 958.272 -22.711 948.774 -21.918 939.258 C-20.817 925.731 -20.73 912.248 -20.794 898.682 C-20.81 895.34 -20.815 891.999 -20.814 888.657 C-20.815 875.641 -20.966 862.663 -21.643 849.664 C-22.112 840.462 -22.153 831.274 -22.125 822.062 C-22.124 821.178 -22.123 820.294 -22.121 819.383 C-22.102 807.16 -21.88 794.965 -21.428 782.75 C-19.955 741.956 -19.747 701.122 -19.987 660.307 C-20.001 657.86 -20.014 655.413 -20.026 652.966 C-20.473 566.886 -20.473 566.886 -23.184 536.047 C-25.9 504.876 -26.475 473.642 -27 442.375 C-27.139 434.195 -27.284 426.015 -27.438 417.836 C-27.456 416.816 -27.475 415.796 -27.495 414.745 C-27.769 400.245 -28.267 385.768 -28.909 371.28 C-30.042 345.643 -30.321 320.05 -30.258 294.389 C-30.25 290.927 -30.245 287.464 -30.242 284.001 C-30.176 231.948 -28.982 179.993 -26.5 128 C-26.44 126.739 -26.381 125.479 -26.319 124.18 C-25.151 99.987 -25.151 99.987 -23.52 88.562 C-22.806 83.202 -23.616 79.119 -25.201 74.012 C-28.007 63.432 -27.21 51.166 -27.24 40.243 C-27.25 38.104 -27.281 35.967 -27.312 33.828 C-27.397 22.956 -26.766 13.828 -18.949 5.766 C-12.614 0.027 -8.462 -2.007 0 0 Z " fill="#000000" transform="translate(2448,1110)"/>
<path d="M0 0 C2.008 0.643 4.009 1.306 6 2 C4.488 20.545 2.975 39.089 1.462 57.634 C0.759 66.249 0.056 74.864 -0.647 83.479 C-1.261 91.008 -1.875 98.536 -2.489 106.065 C-2.875 110.793 -3.261 115.521 -3.646 120.249 C-3.89 123.238 -4.134 126.226 -4.378 129.215 C-4.556 131.401 -4.734 133.587 -4.912 135.773 C-5.469 142.626 -6.038 149.477 -6.633 156.326 C-6.917 159.591 -7.198 162.856 -7.478 166.121 C-7.612 167.665 -7.747 169.209 -7.885 170.753 C-8.666 179.516 -9.2 188.192 -9 197 C-8.133 197.418 -7.266 197.835 -6.373 198.266 C-3.116 199.839 0.132 201.429 3.378 203.024 C4.776 203.708 6.176 204.388 7.579 205.063 C25.837 213.86 25.837 213.86 31 222.25 C32.066 226.248 32.387 229.47 32.148 233.586 C32.03 236.318 32.13 238.768 32.352 241.477 C32.562 246.65 32.484 251.349 30 256 C24.395 261.345 17.037 264.375 10.069 267.557 C5.462 269.723 1.092 272.267 -3.312 274.812 C-10.676 279 -10.676 279 -13 279 C-12.994 279.668 -12.988 280.337 -12.981 281.025 C-12.947 287.649 -13.152 294.221 -13.535 300.833 C-13.653 302.969 -13.771 305.106 -13.889 307.243 C-13.921 307.805 -13.921 307.805 -14.081 310.65 C-14.425 316.806 -14.754 322.962 -15.083 329.119 C-15.153 330.419 -15.222 331.72 -15.294 333.059 C-17.925 382.298 -19.619 431.414 -19.831 480.733 C-19.835 481.671 -19.839 482.609 -19.844 483.575 C-19.851 485.431 -19.859 487.287 -19.866 489.144 C-19.929 505.095 -20.377 521 -21.062 536.938 C-21.942 557.758 -22.194 578.547 -22.188 599.383 C-22.188 601.683 -22.189 603.983 -22.19 606.282 C-22.193 622.885 -21.976 639.466 -21.476 656.06 C-21.009 671.705 -20.778 687.35 -20.57 703 C-20.535 705.65 -20.499 708.3 -20.463 710.95 C-20.445 712.3 -20.427 713.65 -20.409 715 C-20.4 715.674 -20.391 716.349 -20.382 717.044 C-20.363 718.419 -20.345 719.794 -20.326 721.169 C-19.74 764.996 -19.106 808.818 -17.625 852.625 C-17.594 853.542 -17.563 854.459 -17.532 855.404 C-16.882 874.698 -16.162 893.989 -15.399 913.279 C-14.92 925.394 -14.455 937.509 -14 949.625 C-13.979 950.189 -13.979 950.189 -13.871 953.043 C-11.777 1008.851 -10.903 1064.68 -10.039 1120.518 C-9.735 1140.163 -9.409 1159.806 -9.047 1179.45 C-8.999 1182.033 -8.953 1184.617 -8.906 1187.2 C-8.735 1196.598 -8.549 1205.994 -8.329 1215.391 C-8.237 1219.352 -8.149 1223.313 -8.078 1227.274 C-7.544 1256.327 -7.544 1256.327 -3.834 1268.833 C-2.438 1274.134 -2.633 1277.858 -4.979 1282.786 C-7.121 1287.862 -7.527 1291.967 -7.344 1297.426 C-7.328 1298.356 -7.313 1299.286 -7.297 1300.244 C-7.071 1311.167 -6.529 1322.087 -6.037 1333.001 C-4.47 1367.821 -3.584 1402.636 -3.413 1437.491 C-3.391 1441.952 -3.353 1446.413 -3.301 1450.875 C-3.24 1456.153 -3.215 1461.431 -3.218 1466.71 C-3.213 1468.664 -3.197 1470.619 -3.169 1472.573 C-3.132 1475.254 -3.139 1477.932 -3.158 1480.614 C-3.137 1481.396 -3.117 1482.178 -3.096 1482.984 C-3.154 1486.028 -3.41 1488.333 -5.468 1490.658 C-9.92 1494.127 -9.92 1494.127 -13.184 1493.744 C-15.556 1493.011 -17.737 1492.019 -20 1491 C-21.058 1490.642 -22.117 1490.283 -23.207 1489.914 C-24.294 1489.53 -25.38 1489.146 -26.5 1488.75 C-27.521 1488.394 -28.542 1488.038 -29.594 1487.672 C-32 1486 -32 1486 -32.836 1482.945 C-33.028 1478.333 -33.146 1473.741 -33.125 1469.125 C-33.127 1468.702 -33.127 1468.702 -33.137 1466.559 C-33.131 1462.63 -33.022 1458.802 -32.508 1454.906 C-31.64 1447.766 -31.76 1440.557 -31.75 1433.375 C-31.749 1432.968 -31.749 1432.968 -31.743 1430.907 C-31.728 1416.741 -32.491 1402.688 -33.5 1388.562 C-34.555 1373.697 -35.31 1358.906 -35.312 1344 C-35.316 1343.245 -35.319 1342.491 -35.322 1341.713 C-35.346 1332.709 -34.855 1323.853 -33.992 1314.891 C-32.94 1303.844 -32.726 1292.892 -32.794 1281.801 C-32.813 1278.737 -32.815 1275.673 -32.814 1272.609 C-32.819 1270.589 -32.825 1268.568 -32.832 1266.547 C-32.833 1265.667 -32.834 1264.787 -32.835 1263.881 C-32.879 1257.886 -33.156 1251.922 -33.497 1245.938 C-33.985 1237.253 -34.161 1228.591 -34.2 1219.893 C-34.216 1216.453 -34.243 1213.014 -34.269 1209.574 C-34.283 1207.75 -34.297 1205.926 -34.31 1204.103 C-34.564 1169.413 -35.308 1134.887 -37.773 1100.274 C-38.103 1095.515 -38.402 1090.755 -38.704 1085.994 C-39.02 1081.058 -39.355 1076.123 -39.694 1071.189 C-39.854 1068.844 -40.01 1066.499 -40.16 1064.154 C-40.369 1060.927 -40.602 1057.702 -40.84 1054.477 C-40.897 1053.53 -40.955 1052.584 -41.014 1051.609 C-41.357 1047.263 -41.797 1044.011 -44.055 1040.248 C-47.254 1034.458 -46.43 1027.98 -46.285 1021.559 C-46.269 1020.129 -46.255 1018.7 -46.242 1017.271 C-46.214 1014.237 -46.176 1011.203 -46.129 1008.168 C-46.01 1000.192 -45.983 992.215 -45.961 984.238 C-45.958 983.445 -45.956 982.652 -45.953 981.834 C-45.918 968.234 -46.252 954.697 -47.188 941.125 C-47.251 940.2 -47.314 939.274 -47.38 938.321 C-48.114 927.964 -49.114 917.645 -50.277 907.328 C-50.388 906.346 -50.498 905.364 -50.612 904.353 C-50.668 903.86 -50.668 903.86 -50.949 901.366 C-51.061 900.376 -51.172 899.387 -51.287 898.367 C-51.511 896.384 -51.737 894.4 -51.963 892.416 C-54.077 873.671 -54.636 855.017 -54.723 836.162 C-54.786 824.82 -55.213 813.713 -56.543 802.445 C-57.692 792.311 -58.113 782.129 -54.68 772.434 C-52.264 763.785 -54.166 754.24 -55.387 745.516 C-56.885 734.37 -58.037 723.224 -58.935 712.014 C-59.099 710.018 -59.272 708.022 -59.456 706.027 C-61.499 683.832 -61.158 661.611 -61.05 639.345 C-61.001 628.91 -60.993 618.475 -60.996 608.04 C-61 592.436 -60.972 576.833 -60.92 561.23 C-60.89 552.221 -60.872 543.213 -60.88 534.204 C-60.887 526.171 -60.873 518.139 -60.834 510.107 C-60.814 505.911 -60.804 501.715 -60.82 497.518 C-60.878 480.271 -60.367 464.361 -55.284 447.687 C-53.66 442.239 -53.12 437.9 -55.562 432.625 C-57.067 428.83 -56.878 426.866 -56.358 422.919 C-55.924 419.377 -55.632 415.828 -55.352 412.271 C-55.294 411.551 -55.237 410.831 -55.177 410.09 C-54.992 407.758 -54.808 405.426 -54.625 403.094 C-54.494 401.443 -54.364 399.793 -54.233 398.143 C-53.96 394.69 -53.687 391.237 -53.416 387.784 C-53.072 383.408 -52.725 379.033 -52.377 374.657 C-52.107 371.248 -51.838 367.838 -51.569 364.428 C-51.442 362.818 -51.314 361.208 -51.186 359.597 C-49.85 342.776 -48.782 326.002 -48.705 309.122 C-48.693 307.36 -48.673 305.597 -48.643 303.835 C-48.333 284.984 -48.333 284.984 -53 278 C-53.602 277.032 -54.204 276.064 -54.824 275.066 C-58.204 270.524 -61.638 266.273 -65.562 262.188 C-72.528 254.583 -77.918 245.032 -78.195 234.523 C-77.658 227.575 -75.228 222.146 -70.488 217.031 C-67.225 214.367 -63.707 212.479 -60 210.5 C-51.258 205.829 -45.166 200.817 -41.834 191.149 C-40.883 187.559 -40.431 184.015 -40.062 180.332 C-40.022 179.945 -40.022 179.945 -39.815 177.985 C-39.536 175.324 -39.267 172.662 -39 170 C-38.902 169.03 -38.804 168.06 -38.702 167.061 C-38.02 160.317 -37.351 153.571 -36.685 146.825 C-35.542 135.28 -34.38 123.736 -33.22 112.193 C-32.998 109.978 -32.776 107.763 -32.554 105.547 C-31.726 97.3 -30.892 89.053 -30.046 80.807 C-29.677 77.212 -29.311 73.617 -28.951 70.022 C-23.368 14.28 -23.368 14.28 -16.062 2.188 C-11.134 -1.333 -5.856 -0.731 0 0 Z " fill="#000000" transform="translate(759,1353)"/>
<path d="M0 0 C5.385 37.407 5.861 75.773 6.202 113.499 C6.237 117.27 6.274 121.041 6.312 124.812 C6.318 125.417 6.318 125.417 6.348 128.476 C6.526 144.574 7.057 160.598 8.146 176.661 C8.256 178.305 8.366 179.948 8.477 181.591 C8.533 182.422 8.588 183.253 8.646 184.109 C12.229 237.562 12.685 290.857 12.473 344.413 C12.442 352.623 12.428 360.832 12.426 369.042 C12.425 370.204 12.425 371.367 12.424 372.565 C12.424 373.726 12.423 374.887 12.423 376.083 C12.405 425.53 11.959 474.924 10.314 524.345 C9.652 544.928 9.624 565.516 10.346 586.097 C10.878 601.435 11.144 616.766 11.281 632.113 C11.291 633.173 11.3 634.232 11.31 635.324 C11.388 644.105 11.458 652.887 11.526 661.668 C11.578 668.271 11.632 674.874 11.692 681.477 C11.718 684.51 11.739 687.542 11.76 690.574 C11.857 702.408 12.268 714.188 13 726 C13.787 726.309 14.573 726.619 15.384 726.937 C33.204 734.175 55.043 751.053 63 769 C64.876 774.387 65.353 779.177 65.312 784.812 C65.308 785.605 65.304 786.397 65.3 787.214 C64.988 803.427 55.559 814.425 44.529 825.473 C38.177 831.483 31.285 835.859 23.519 839.782 C17.581 842.868 13.717 846.753 11 853 C9.452 860.418 10.052 868.104 10.352 875.617 C10.899 889.647 11.086 903.66 11.059 917.699 C11.057 919.656 11.054 921.613 11.052 923.57 C11.023 943.698 10.882 963.824 10.683 983.951 C10.643 987.998 10.608 992.045 10.578 996.092 C10.331 1028.854 9.046 1061.382 6.504 1094.046 C4.593 1118.751 3.586 1143.36 3.079 1168.125 C2.31 1205.438 0.294 1242.679 -1.761 1279.941 C-2.031 1284.864 -2.299 1289.786 -2.566 1294.709 C-2.751 1298.09 -2.943 1301.47 -3.136 1304.85 C-3.689 1314.784 -4.118 1324.7 -4.165 1334.65 C-4.168 1335.077 -4.168 1335.077 -4.186 1337.235 C-4.172 1342.826 -3.392 1347.769 -1.775 1353.142 C-0.207 1358.925 0.144 1364.924 0.688 1370.875 C0.752 1371.549 0.816 1372.222 0.882 1372.916 C1.792 1382.522 2.192 1392.032 2.012 1401.684 C1.913 1408.116 2.567 1414.073 3.551 1420.438 C4.669 1429.305 4.15 1438.263 3.512 1447.152 C2.995 1455.145 2.872 1463.13 2.789 1471.137 C2.782 1471.766 2.782 1471.766 2.746 1474.95 C2.688 1480.2 2.632 1485.45 2.599 1490.701 C2.571 1494.576 2.525 1498.45 2.477 1502.324 C2.473 1503.509 2.47 1504.693 2.467 1505.913 C2.313 1516.196 2.313 1516.196 -1 1521 C-5.363 1524.204 -11.47 1524.642 -16.73 1524.488 C-19.351 1523.924 -20.271 1523.265 -22 1521.25 C-27.786 1511.847 -27.123 1502.8 -26.703 1492.01 C-26.626 1490.032 -26.559 1488.053 -26.492 1486.074 C-26.257 1479.478 -25.931 1472.906 -25.48 1466.32 C-24.748 1454.818 -24.74 1443.295 -24.705 1431.773 C-24.693 1429.185 -24.673 1426.597 -24.643 1424.009 C-24.462 1408.025 -25.313 1393.052 -28.549 1377.39 C-30.214 1368.57 -30.322 1359.636 -30.375 1350.688 C-30.38 1349.942 -30.384 1349.197 -30.389 1348.429 C-30.427 1330.383 -28.222 1312.646 -25.965 1294.768 C-24.939 1286.627 -24.06 1278.477 -23.25 1270.312 C-23.192 1269.753 -23.192 1269.753 -22.901 1266.923 C-21.439 1252.226 -20.813 1237.587 -20.815 1222.824 C-20.812 1220.304 -20.794 1217.784 -20.775 1215.264 C-20.747 1206.973 -21.12 1199.091 -22.467 1190.891 C-24.311 1177.425 -24.092 1164.032 -22.972 1150.525 C-21.23 1129.212 -20.297 1107.866 -19.43 1086.504 C-19.398 1085.72 -19.366 1084.935 -19.333 1084.127 C-18.937 1074.413 -18.55 1064.699 -18.168 1054.984 C-17.842 1046.709 -17.508 1038.434 -17.174 1030.159 C-16.882 1022.941 -16.593 1015.722 -16.305 1008.504 C-16.275 1007.758 -16.245 1007.012 -16.214 1006.243 C-15.797 995.829 -15.39 985.415 -15 975 C-14.975 974.335 -14.95 973.669 -14.924 972.984 C-14.326 956.937 -13.844 940.91 -13.867 924.852 C-13.867 923.12 -13.866 921.388 -13.864 919.657 C-13.863 916.103 -13.865 912.55 -13.87 908.997 C-13.875 904.463 -13.872 899.929 -13.866 895.395 C-13.862 891.852 -13.864 888.309 -13.866 884.765 C-13.867 883.092 -13.866 881.418 -13.864 879.745 C-13.861 877.422 -13.865 875.099 -13.871 872.776 C-13.871 871.463 -13.872 870.15 -13.873 868.797 C-14.007 864.793 -14.445 860.965 -15 857 C-15.584 856.789 -16.168 856.578 -16.769 856.361 C-34.78 849.807 -51.799 843.318 -61.402 825.496 C-67.923 811.227 -72.092 795.797 -71 780 C-70.966 779.503 -70.966 779.503 -70.793 776.988 C-69.623 766.334 -65.372 754.79 -57.074 747.555 C-46.048 739.29 -27.042 727 -13 727 C-12.939 726.449 -12.939 726.449 -12.633 723.66 C-12.464 722.128 -12.294 720.595 -12.125 719.062 C-12.046 718.346 -11.968 717.63 -11.887 716.893 C-11.803 716.135 -11.719 715.378 -11.633 714.598 C-11.544 713.788 -11.455 712.979 -11.364 712.145 C-11.1 709.863 -10.814 707.584 -10.515 705.307 C-9.233 695.418 -8.666 685.685 -8.586 675.715 C-8.567 674.164 -8.547 672.614 -8.527 671.064 C-8.475 666.892 -8.435 662.72 -8.399 658.548 C-8.375 655.912 -8.348 653.276 -8.319 650.64 C-6.963 523.301 -6.963 523.301 -9.254 473.388 C-9.758 462.202 -10.065 451.046 -10.07 439.848 C-10.12 407.905 -11.355 376.216 -13.938 344.375 C-14.011 343.465 -14.085 342.556 -14.161 341.619 C-15.125 329.774 -16.13 317.932 -17.142 306.091 C-18.542 289.679 -19.897 273.264 -21.251 256.849 C-21.278 256.514 -21.278 256.514 -21.418 254.818 C-21.641 252.11 -21.865 249.401 -22.088 246.692 C-22.789 238.172 -23.499 229.652 -24.218 221.134 C-26.332 196.07 -28.304 171.007 -29.797 145.898 C-29.861 144.86 -29.924 143.821 -29.99 142.75 C-31.196 122.899 -31.793 102.913 -30.25 83.062 C-30.166 81.9 -30.083 80.738 -29.997 79.541 C-29.381 71.78 -28.242 64.22 -26.875 56.562 C-23.923 39.859 -24.641 22.894 -25 6 C-21.586 4.991 -18.168 3.995 -14.75 3 C-14.266 2.857 -14.266 2.857 -11.816 2.133 C-11.349 1.997 -11.349 1.997 -8.984 1.312 C-8.126 1.061 -7.267 0.81 -6.382 0.551 C-4 0 -4 0 0 0 Z " fill="#000000" transform="translate(1605,1531)"/>
</svg>
