<?xml version="1.0" encoding="UTF-8"?>
<!-- Generator: visioncortex VTracer 0.6.12 -->
<svg version="1.1" xmlns="http://www.w3.org/2000/svg" width="4500" height="4500">
<path d="M0 0 C24.867 12.991 32.922 53.463 41.39 77.585 C52.129 108.162 65.282 135.915 81.662 163.862 C91.549 180.734 101.083 197.8 110.378 215.004 C112.122 218.225 113.876 221.44 115.629 224.656 C131.199 253.323 144.736 282.377 155.195 313.312 C173.074 366.153 198.266 408.437 232.125 452.625 C238.987 461.595 245.61 470.689 252 480 C252.538 480.777 253.076 481.554 253.63 482.355 C263.586 496.776 272.42 511.728 281 527 C281.604 528.074 282.208 529.148 282.83 530.254 C285.785 535.518 288.731 540.787 291.672 546.059 C294.723 551.519 297.822 556.951 300.938 562.375 C307.417 573.672 313.735 585.059 320.038 596.456 C321.666 599.398 323.299 602.338 324.933 605.277 C337.311 627.549 349.303 650.02 361.062 672.625 C379.507 708.04 398.408 741.903 424.553 772.314 C426.056 774.065 427.552 775.821 429.047 777.578 C433.531 782.841 438.034 788.073 442.688 793.188 C445.698 796.501 448.566 799.889 451.375 803.375 C455.056 807.929 458.928 812.236 462.914 816.519 C466.695 820.606 470.197 824.88 473.688 829.219 C476.2 832.24 478.824 835.124 481.5 838 C485.713 842.533 489.68 847.209 493.562 852.027 C496.437 855.533 499.397 858.957 502.375 862.375 C511.427 872.774 520.306 883.299 529 894 C530.021 895.25 531.041 896.5 532.062 897.75 C539.141 906.424 546.12 915.168 553 924 C553.277 924.355 553.277 924.355 554.677 926.15 C565.632 940.2 565.632 940.2 569.656 945.473 C575.293 952.857 581.091 960.088 586.969 967.281 C589.378 970.231 591.76 973.202 594.125 976.188 C597.619 980.572 601.233 984.847 604.866 989.116 C607.763 992.525 610.618 995.964 613.438 999.438 C617.393 1004.298 621.46 1009.054 625.552 1013.8 C628.654 1017.405 631.695 1021.052 634.688 1024.75 C638.237 1029.125 641.956 1033.305 645.75 1037.469 C648.869 1040.978 651.797 1044.632 654.75 1048.281 C656.935 1050.921 659.192 1053.467 661.5 1056 C665.342 1060.22 668.961 1064.58 672.551 1069.016 C675.318 1072.388 678.152 1075.697 681 1079 C686.1 1084.921 691.076 1090.931 696 1097 C697.437 1098.75 698.875 1100.5 700.312 1102.25 C708.877 1112.724 717.311 1123.293 725.511 1134.055 C727.24 1136.314 728.982 1138.563 730.723 1140.812 C738.897 1151.408 746.743 1162.144 754.173 1173.274 C755.868 1175.804 757.577 1178.324 759.29 1180.842 C760.872 1183.169 762.446 1185.501 764.019 1187.833 C765.136 1189.486 766.259 1191.135 767.382 1192.784 C777.189 1207.4 785.09 1222.974 792.814 1238.764 C801.451 1256.376 810.649 1273.33 821 1290 C822.364 1292.226 823.725 1294.452 825.086 1296.68 C830.167 1304.983 835.292 1313.259 840.438 1321.523 C904.451 1424.396 904.451 1424.396 898.375 1462.688 C897.263 1466.991 895.896 1469.596 892 1472 C886.972 1472.691 883.021 1471.354 878.984 1468.379 C875.041 1465.282 872.815 1462.181 870.562 1457.75 C870.364 1457.376 870.364 1457.376 869.357 1455.485 C867.876 1452.671 866.436 1449.837 865 1447 C864.357 1445.736 863.714 1444.472 863.07 1443.208 C856.04 1429.368 849.127 1415.475 842.5 1401.438 C831.866 1378.987 820.407 1356.957 807.603 1335.666 C806.055 1333.092 804.522 1330.51 802.992 1327.926 C797.088 1317.979 791 1308.152 784.854 1298.353 C747.348 1238.537 747.348 1238.537 734.5 1213.202 C726.531 1197.517 716.994 1183.822 705.411 1170.617 C703.925 1168.914 702.459 1167.196 700.996 1165.473 C696.352 1160.005 691.667 1154.596 686.812 1149.312 C682.823 1144.961 679.057 1140.475 675.348 1135.883 C672.772 1132.72 670.143 1129.607 667.5 1126.5 C663.379 1121.651 659.33 1116.748 655.312 1111.812 C652.739 1108.682 650.124 1105.588 647.5 1102.5 C643.379 1097.65 639.33 1092.748 635.312 1087.812 C632.739 1084.682 630.124 1081.588 627.5 1078.5 C623.379 1073.65 619.33 1068.748 615.312 1063.812 C612.739 1060.682 610.124 1057.588 607.5 1054.5 C603.446 1049.726 599.448 1044.911 595.492 1040.055 C592.444 1036.318 589.379 1032.596 586.312 1028.875 C585.718 1028.153 585.124 1027.431 584.511 1026.687 C581.47 1022.995 578.426 1019.305 575.375 1015.621 C569.554 1008.585 563.793 1001.517 558.185 994.31 C554.519 989.616 550.739 985.022 546.938 980.438 C541.12 973.413 535.514 966.266 530 959 C528.46 956.999 526.918 954.999 525.375 953 C523.582 950.668 521.791 948.334 520 946 C519.393 945.21 518.786 944.42 518.161 943.606 C509.918 932.866 501.768 922.09 494 911 C475.468 884.598 455.874 858.747 431.086 837.801 C428.157 835.272 425.335 832.633 422.5 830 C419.016 826.768 415.53 823.55 411.938 820.438 C396.925 807.387 382.239 793.725 370 778 C368.543 776.27 367.084 774.541 365.625 772.812 C346.63 749.531 332.874 722.31 318.781 695.937 C311.66 682.613 304.538 669.285 297.152 656.105 C285.143 634.662 274.569 613.089 266.022 590.02 C252.593 553.863 231.41 522.15 209 491 C208.484 490.282 207.967 489.564 207.436 488.824 C202.623 482.135 197.806 475.449 192.922 468.812 C178.579 449.256 165.087 429.03 153 408 C152.638 407.384 152.276 406.769 151.903 406.134 C135.857 378.748 127.871 347.273 118.951 317.069 C105.242 270.668 84.812 228.531 60.612 186.781 C42.229 155.067 24.904 122.94 9.22 89.788 C6.785 84.659 4.289 79.57 1.703 74.516 C-3.517 64.308 -8.601 54.161 -12.688 43.438 C-13.002 42.612 -13.317 41.786 -13.641 40.935 C-16.505 33.115 -18.286 25.686 -18.312 17.312 C-18.329 16.071 -18.346 14.83 -18.363 13.551 C-17.836 8.393 -16.278 5.154 -12.438 1.688 C-8.127 -1.297 -5.013 -1.475 0 0 Z " fill="#000000" transform="translate(1004,1477)"/>
<path d="M0 0 C4.311 0.631 5.99 1.62 8.691 5.129 C10.14 7.2 11.506 9.314 12.875 11.438 C15.292 15.134 17.925 18.048 21.105 21.09 C24.581 24.594 27.584 28.497 30.667 32.346 C32.114 34.141 33.577 35.923 35.043 37.703 C45.537 50.471 55.356 63.675 65.01 77.084 C101.222 127.369 101.222 127.369 120.031 147.848 C121.857 149.844 123.62 151.88 125.375 153.938 C131.68 161.165 138.57 167.937 145.863 174.162 C160.644 186.877 175.112 200.505 187 216 C187.908 217.111 188.82 218.219 189.734 219.324 C200.465 232.352 209.675 246.369 218.875 260.5 C219.423 261.341 219.971 262.182 220.536 263.048 C222.78 266.508 225.008 269.966 227.09 273.527 C230.27 278.899 232.705 281.822 238.207 284.77 C243.196 288.194 244.691 295.449 246 301 C246.278 304.38 246.284 307.736 246.25 311.125 C246.246 312.056 246.242 312.986 246.238 313.945 C246.161 320.107 245.534 325.967 244.465 332.039 C238.102 372.57 282.124 423.424 304.454 454.21 C306.615 457.156 308.804 460.08 311 463 C311.405 463.544 311.81 464.088 312.227 464.648 C319.054 473.808 326.37 482.499 334 491 C334.372 491.415 334.372 491.415 336.254 493.516 C344.132 501.855 353.312 506.796 364.797 507.746 C365.441 507.804 365.441 507.804 368.703 508.096 C370.721 508.268 372.739 508.437 374.758 508.602 C393.897 510.194 408.381 515.698 421.311 530.5 C428.985 539.753 434.793 550.25 440.61 560.725 C450.361 578.145 450.361 578.145 459.25 583.125 C460.375 583.78 461.501 584.435 462.66 585.109 C463.762 585.733 464.864 586.357 466 587 C473.061 591.099 478.812 595.406 484.418 601.375 C486.354 603.343 488.25 605.086 490.349 606.86 C496.517 612.234 502.228 618.084 508.004 623.871 C509.254 625.12 510.503 626.369 511.753 627.617 C514.361 630.224 516.967 632.832 519.572 635.442 C522.893 638.768 526.218 642.09 529.544 645.41 C532.122 647.985 534.698 650.562 537.273 653.139 C538.497 654.364 539.722 655.588 540.948 656.812 C547.179 663.033 553.304 669.278 559 676 C560.434 677.566 561.871 679.129 563.312 680.688 C582.334 701.855 587.367 722.582 591.997 750.145 C597.559 783.064 597.559 783.064 605 796.125 C605.372 796.806 605.745 797.487 606.129 798.189 C609.468 804.227 613.03 810.136 616.562 816.062 C626.923 833.446 634.161 849.437 637.578 869.57 C637.794 870.813 638.011 872.056 638.234 873.337 C638.799 876.603 639.356 879.87 639.91 883.138 C640.363 885.788 640.83 888.436 641.296 891.083 C641.857 894.286 642.404 897.491 642.953 900.695 C643.159 901.866 643.366 903.038 643.578 904.244 C645.36 914.884 646.596 923.855 641.062 933.438 C637.199 940.477 634.551 946.044 636.55 954.263 C637.299 956.735 638.103 959.18 638.938 961.625 C639.491 963.283 640.041 964.942 640.59 966.602 C640.836 967.327 641.082 968.052 641.336 968.799 C642.926 974.069 643.284 979.234 643.547 984.699 C643.589 985.537 643.631 986.376 643.674 987.24 C644.04 994.994 644.177 1002.743 644.23 1010.505 C644.247 1012.916 644.27 1015.327 644.295 1017.738 C644.364 1024.579 644.425 1031.419 644.477 1038.26 C645.253 1138.123 645.253 1138.123 671.5 1164.062 C673.628 1166.088 675.796 1168.058 678 1170 C678.746 1170.663 679.493 1171.325 680.262 1172.008 C680.897 1172.562 681.533 1173.116 682.188 1173.688 C682.802 1174.225 683.417 1174.763 684.051 1175.316 C685.464 1176.537 686.903 1177.729 688.355 1178.902 C694.231 1184.086 697.46 1189.325 700.703 1196.375 C701.132 1197.292 701.56 1198.208 702.001 1199.152 C706.975 1209.915 711.44 1220.883 715.875 1231.875 C716.756 1234.045 717.638 1236.216 718.52 1238.386 C723.274 1250.11 727.925 1261.868 732.438 1273.688 C737.744 1287.587 743.537 1301.235 749.587 1314.825 C750.454 1316.774 751.317 1318.725 752.171 1320.679 C761.338 1341.651 775.116 1359.804 789.258 1377.671 C810.412 1404.435 831.388 1434.951 831.062 1470.375 C831.042 1473.551 831.021 1476.727 831 1480 C818.13 1480 805.26 1480 792 1480 C790.68 1474.864 789.36 1469.729 788 1464.438 C783.267 1446.405 777.633 1428.966 770.438 1411.75 C770.098 1410.928 769.758 1410.107 769.408 1409.26 C765.306 1399.763 759.559 1391.51 753.152 1383.432 C739.597 1366.333 732.461 1349.738 726 1329 C718.84 1306.141 710.665 1287.862 692.875 1271.188 C683.4 1261.98 676.397 1252.446 669.788 1241.059 C667.83 1237.71 665.817 1234.397 663.789 1231.09 C658.376 1222.251 653.007 1213.386 647.711 1204.477 C642.709 1196.066 637.605 1187.754 632.25 1179.562 C631.701 1178.722 631.152 1177.881 630.586 1177.015 C626.447 1170.68 626.447 1170.68 624.765 1168.123 C607.144 1141.213 606.175 1115.713 609.5 1084.25 C612.88 1052.043 607.988 1023.267 601.326 991.82 C595.257 963.133 591.58 936.956 594.535 907.688 C595.462 898.392 595.079 890.578 592.883 881.5 C592.661 880.578 592.439 879.656 592.21 878.706 C589.666 868.354 586.595 858.178 583.438 848 C583.123 846.979 582.808 845.958 582.484 844.906 C571.573 809.538 560.448 774.101 547.625 739.375 C547.374 738.689 547.123 738.002 546.864 737.295 C540.006 718.657 529.589 704.254 516 690 C515.692 689.671 515.692 689.671 514.133 688.008 C509.646 683.349 504.668 679.327 499.62 675.295 C497.881 673.905 496.147 672.507 494.414 671.109 C488.979 666.735 483.532 662.383 477.98 658.159 C461.625 645.715 446.91 632.402 434.489 615.96 C432.271 613.041 430.011 610.154 427.754 607.265 C423.452 601.754 419.168 596.229 414.921 590.674 C410.074 584.339 405.106 578.127 400 572 C399.549 571.447 399.098 570.893 398.633 570.323 C383.86 552.203 367.964 543.147 346.5 534.5 C316.276 522.297 300.083 506.165 280.684 480.246 C278.985 477.98 277.272 475.724 275.559 473.469 C242.773 430.002 222.26 381.456 205.352 330.103 C187.228 275.074 158.839 229.606 121.45 185.705 C119.982 183.979 118.518 182.249 117.055 180.52 C111.088 173.49 104.963 166.642 98.68 159.895 C95.962 156.959 93.317 153.973 90.699 150.949 C88.036 147.894 85.317 144.891 82.602 141.883 C81.102 140.221 79.606 138.555 78.121 136.88 C72.668 130.754 67.02 124.874 61.215 119.082 C60.314 118.181 59.414 117.279 58.486 116.35 C56.597 114.461 54.708 112.572 52.816 110.686 C50.414 108.289 48.016 105.888 45.619 103.485 C43.299 101.161 40.976 98.84 38.652 96.52 C37.803 95.668 36.954 94.817 36.079 93.94 C31.759 89.637 27.37 85.487 22.748 81.51 C18.694 78.008 14.891 74.243 11.062 70.5 C10.201 69.684 9.339 68.868 8.451 68.027 C7.633 67.224 6.815 66.421 5.973 65.594 C5.603 65.236 5.603 65.236 3.731 63.428 C-0.495 57.501 0.786 48.487 0.684 41.504 C0.663 40.315 0.642 39.127 0.621 37.902 C0.555 34.122 0.496 30.342 0.438 26.562 C0.394 23.993 0.351 21.423 0.307 18.854 C0.2 12.569 0.098 6.285 0 0 Z " fill="#000000" transform="translate(847,2480)"/>
<path d="M0 0 C2.109 2.075 3.755 3.963 5.5 6.312 C6.008 6.973 6.517 7.633 7.041 8.313 C13.651 16.997 19.825 26.005 26 35 C26.958 36.388 27.916 37.776 28.875 39.164 C32.641 44.623 36.387 50.096 40.113 55.582 C46.542 65.037 53.109 74.371 59.828 83.621 C64.418 89.944 68.917 96.328 73.401 102.726 C75.023 105.033 76.656 107.333 78.289 109.633 C92.139 129.241 105.183 149.397 118.342 169.471 C119.859 171.785 121.376 174.098 122.894 176.41 C129.58 186.597 136.254 196.792 142.914 206.996 C147.269 213.668 151.632 220.336 156 227 C156.54 227.824 157.08 228.648 157.637 229.497 C161.419 235.267 165.206 241.033 168.996 246.797 C170.273 248.739 171.549 250.682 172.824 252.626 C179.361 262.592 185.943 272.495 192.937 282.147 C195.462 285.638 197.895 289.185 200.312 292.75 C206.376 301.621 212.666 310.321 219 319 C219.566 319.778 220.132 320.556 220.716 321.357 C235.471 341.607 250.861 361.352 267.12 380.419 C269.947 383.738 272.706 387.102 275.438 390.5 C279.813 395.881 284.493 400.94 289.223 406.008 C291.936 408.918 294.557 411.9 297.16 414.91 C299.567 417.644 302.033 420.321 304.5 423 C307.519 426.279 310.522 429.566 313.438 432.938 C317.021 437.071 320.742 441.074 324.461 445.086 C327.461 448.325 330.434 451.583 333.375 454.875 C337.73 459.734 342.18 464.5 346.638 469.263 C350.422 473.306 354.188 477.363 357.938 481.438 C363.025 486.962 368.155 492.445 373.295 497.92 C377.518 502.418 381.731 506.924 385.938 511.438 C392.923 518.929 399.943 526.388 406.968 533.843 C410.313 537.394 413.656 540.947 417 544.5 C418.333 545.917 419.667 547.333 421 548.75 C423.667 551.583 426.333 554.417 429 557.25 C429.66 557.951 430.32 558.653 431 559.375 C432.333 560.791 433.665 562.207 434.998 563.623 C438.343 567.177 441.689 570.732 445.035 574.285 C454.036 583.845 463.027 593.414 472 603 C472.303 603.324 472.303 603.324 473.837 604.962 C480.692 612.286 487.52 619.635 494.289 627.039 C497.182 630.203 500.09 633.352 503 636.5 C511.726 645.947 520.41 655.429 529 665 C529.763 665.846 530.526 666.691 531.312 667.562 C535.311 671.993 539.279 676.446 543.195 680.949 C545.23 683.261 547.302 685.535 549.375 687.812 C552.485 691.254 555.465 694.763 558.375 698.375 C561.499 702.249 564.758 705.895 568.188 709.5 C574.299 715.989 579.436 723.165 584.641 730.387 C595.364 745.223 606.961 755.725 621.751 766.371 C635.461 776.304 648.535 787.146 661.42 798.119 C664.727 800.933 668.067 803.701 671.438 806.438 C676.326 810.414 681.104 814.509 685.874 818.626 C689.234 821.517 692.635 824.329 696.125 827.062 C701.045 830.946 705.615 835.158 710.203 839.422 C712.392 841.439 714.604 843.391 716.875 845.312 C725.897 853.143 734.309 861.87 742 871 C742.885 872.012 743.772 873.022 744.66 874.031 C752.243 882.69 759.258 891.674 766 901 C766.554 901.766 767.109 902.532 767.68 903.321 C790.515 935.024 809.151 969.486 827.982 1003.654 C830.664 1008.519 833.349 1013.384 836.033 1018.248 C836.977 1019.958 837.919 1021.668 838.861 1023.379 C853.944 1050.733 870.571 1076.569 889.225 1101.616 C909.455 1128.785 928.83 1156.157 944.738 1186.137 C949.313 1194.72 954.077 1202.801 959.875 1210.625 C971.942 1226.957 971.942 1226.957 971.422 1238.234 C970.784 1242.419 969.56 1244.609 967 1248 C966.319 1248.969 965.639 1249.939 964.938 1250.938 C961.09 1253.639 958.347 1253.789 953.715 1253.516 C950.115 1252.832 948.114 1251.864 945.527 1249.277 C943.19 1245.792 941.947 1241.951 940.541 1238.015 C938.647 1232.991 936.162 1229.129 932.75 1225 C932.27 1224.419 931.791 1223.837 931.296 1223.239 C930.325 1222.064 929.353 1220.89 928.382 1219.715 C920.336 1209.727 914.199 1198.293 907.779 1187.237 C897.701 1169.896 887.114 1152.865 875.23 1136.693 C873.372 1134.136 871.565 1131.545 869.751 1128.956 C863.241 1119.663 856.537 1110.523 849.782 1101.407 C846.848 1097.443 843.924 1093.471 841 1089.5 C839.833 1087.917 838.667 1086.333 837.5 1084.75 C835.167 1081.583 832.833 1078.417 830.5 1075.25 C829.922 1074.466 829.345 1073.682 828.75 1072.875 C827.584 1071.293 826.419 1069.711 825.254 1068.129 C822.318 1064.142 819.378 1060.158 816.43 1056.18 C809.31 1046.562 802.318 1036.868 795.455 1027.066 C794.018 1025.026 792.568 1022.996 791.113 1020.969 C775.443 999.087 761.385 976.27 748.097 952.882 C735.074 929.972 721.936 906.89 703.598 887.738 C701.568 885.599 699.634 883.435 697.711 881.203 C693.845 876.759 689.738 872.59 685.562 868.438 C684.85 867.721 684.138 867.005 683.404 866.268 C679.334 862.205 675.167 858.32 670.811 854.566 C668.388 852.471 666.04 850.298 663.688 848.125 C659.202 844.034 654.594 840.152 649.871 836.34 C646.77 833.813 643.728 831.224 640.688 828.625 C635.59 824.281 630.379 820.106 625.097 815.989 C619.658 811.748 614.324 807.385 609 803 C607.208 801.542 605.417 800.083 603.625 798.625 C594.754 791.361 585.985 783.993 577.512 776.266 C576.143 775.031 574.769 773.803 573.365 772.608 C567.371 767.483 561.782 761.968 556.21 756.395 C554.574 754.762 552.931 753.137 551.287 751.512 C545.478 745.733 540.037 739.865 534.954 733.428 C532.935 730.92 530.811 728.551 528.625 726.188 C524.586 721.756 520.897 717.119 517.227 712.384 C514.08 708.336 510.837 704.393 507.5 700.5 C503.289 695.58 499.245 690.554 495.268 685.444 C491.719 680.891 488.092 676.407 484.438 671.938 C479.71 666.15 475.122 660.282 470.59 654.34 C467.118 649.826 463.499 645.432 459.896 641.023 C456.298 636.615 452.753 632.171 449.25 627.688 C444.585 621.72 439.816 615.846 435 610 C433.542 608.208 432.083 606.417 430.625 604.625 C425.965 598.932 421.225 593.31 416.455 587.709 C415.475 586.558 414.496 585.405 413.518 584.252 C407.731 577.426 401.876 570.688 395.795 564.121 C393.289 561.415 390.836 558.677 388.438 555.875 C384.965 551.861 381.192 548.177 377.418 544.449 C374.694 541.69 372.167 538.806 369.641 535.867 C365.884 531.592 361.836 527.681 357.5 524 C353.285 520.377 349.408 516.446 345.5 512.5 C341.07 508.026 336.635 503.666 331.82 499.602 C328.806 496.949 326.041 494.049 323.223 491.191 C320.573 488.579 317.788 486.167 314.965 483.746 C312.266 481.348 309.757 478.784 307.25 476.188 C305.366 474.356 303.448 472.656 301.453 470.949 C296.597 466.71 292.047 462.191 287.496 457.629 C286.614 456.748 285.732 455.867 284.823 454.959 C282.498 452.634 280.175 450.307 277.853 447.98 C276.439 446.564 275.023 445.149 273.606 443.736 C270.858 440.995 268.114 438.25 265.371 435.504 C264.535 434.67 263.7 433.837 262.839 432.978 C258.023 428.143 253.437 423.183 249 418 C247.979 416.843 246.956 415.688 245.93 414.535 C238.412 406.016 231.395 397.207 224.586 388.114 C223.034 386.046 221.47 383.987 219.902 381.93 C212.974 372.813 206.399 363.494 200 354 C199.798 353.702 199.798 353.702 198.776 352.195 C179.004 323.027 160.925 292.722 142.717 262.564 C124.727 232.77 106.278 203.166 85.587 175.152 C83.91 172.879 82.246 170.596 80.582 168.312 C74.821 160.423 68.968 152.623 62.938 144.938 C56.592 136.846 50.549 128.567 44.578 120.197 C43.067 118.094 41.538 116.005 40 113.922 C19.686 86.322 0.93 57.666 -12.938 26.25 C-13.085 25.916 -13.085 25.916 -13.831 24.226 C-16.281 18.565 -18.057 13.244 -17 7 C-14.696 3.341 -12.946 1.463 -9.062 -0.438 C-5.495 -1.093 -3.49 -1.029 0 0 Z " fill="#000000" transform="translate(1383,1335)"/>
<path d="M0 0 C3.887 1.799 6.451 4.243 9.312 7.375 C9.829 7.938 10.345 8.501 10.877 9.081 C21.989 21.478 31.363 35.45 41.074 48.945 C44.973 54.357 48.934 59.712 53 65 C53.359 65.491 53.359 65.491 55.176 67.977 C61.195 75.806 67.974 80.761 76.066 86.281 C91.921 97.136 96.454 112.745 100.479 130.8 C102.246 138.623 104.676 145.705 108 153 C108.186 153.418 108.186 153.418 109.128 155.535 C126.84 194.86 151.702 229.838 179.562 262.562 C192.06 277.272 203.355 292.065 212.598 309.059 C213.118 310.014 213.638 310.968 214.173 311.952 C220.382 323.442 226.121 335.163 231.852 346.896 C241.399 366.408 252.302 384.903 263.961 403.219 C295.254 452.391 324.19 510.58 311.971 571.059 C311.329 573.62 310.584 576.144 309.763 578.653 C308.412 582.808 307.196 587.003 305.955 591.192 C305.256 593.536 304.544 595.877 303.818 598.213 C284.831 660.155 330.764 735.086 358.734 789.387 C374.213 818.514 395.524 844.787 416.319 870.247 C421.129 876.14 425.843 882.102 430.52 888.102 C432.136 890.174 433.755 892.243 435.375 894.312 C438.363 898.135 441.339 901.967 444.305 905.807 C445.38 907.197 446.456 908.587 447.535 909.975 C464.349 931.659 478.392 953.885 488.72 979.3 C494.032 992.358 499.394 1005.536 508.688 1016.336 C510 1018 510 1018 511 1021 C494.83 1021 478.66 1021 462 1021 C459.69 1014.07 457.38 1007.14 455 1000 C449.921 988.843 444.035 978.977 437 969 C436.53 968.334 436.061 967.668 435.577 966.981 C434.095 964.882 432.61 962.785 431.125 960.688 C429.079 957.795 427.037 954.899 425 952 C424.507 951.301 424.015 950.601 423.507 949.881 C413.193 935.139 404.852 919.459 396.641 903.473 C386.052 882.858 374.823 864.545 359.168 847.395 C323.426 807.917 298.775 754.497 275 707 C274.794 706.591 274.794 706.591 273.753 704.522 C254.677 666.029 260.971 621.869 267.062 581.062 C267.612 577.339 268.159 573.616 268.703 569.892 C269.039 567.604 269.377 565.317 269.718 563.03 C271.058 553.962 272.143 544.989 272.203 535.816 C272.207 535.45 272.207 535.45 272.225 533.593 C272.454 502.793 272.454 502.793 269 489 C268.812 488.224 268.624 487.449 268.43 486.65 C255.031 433.15 216.796 385.036 183.848 342.035 C180.491 337.652 177.175 333.239 173.875 328.812 C169.697 323.213 165.432 317.688 161.125 312.188 C154.493 303.706 148.094 295.066 141.741 286.374 C140.027 284.037 138.301 281.711 136.57 279.387 C122.506 260.484 109.04 241.264 97 221 C96.506 220.169 96.012 219.337 95.502 218.48 C87.322 204.625 79.926 190.387 72.584 176.075 C70.46 171.951 68.297 167.849 66.125 163.75 C63.136 158.105 60.193 152.437 57.285 146.75 C51.01 134.485 44.717 122.248 37.938 110.25 C37.688 109.808 37.688 109.808 36.425 107.569 C27.522 91.994 17.153 77.347 2.318 66.804 C-0.609 64.675 -1.895 63.519 -2.621 59.918 C-2.561 58.687 -2.5 57.456 -2.438 56.188 C-2.412 55.484 -2.387 54.78 -2.361 54.055 C-2.299 52.384 -2.224 50.713 -2.14 49.042 C-1.975 45.448 -1.879 41.854 -1.789 38.258 C-1.454 25.482 -1.012 12.743 0 0 Z " fill="#000000" transform="translate(850,2939)"/>
<path d="M0 0 C3 1 3 1 3.922 2.785 C4.195 3.537 4.468 4.288 4.75 5.062 C6.211 8.598 7.776 11.132 10.375 13.938 C17.953 22.212 21.171 31.171 24.318 41.722 C24.543 42.474 24.768 43.225 25 44 C25.121 44.407 25.121 44.407 25.736 46.466 C30.877 63.235 30.877 63.235 39.543 68.172 C44.439 71.815 46.409 77.736 48.779 83.194 C50.182 86.418 51.632 89.62 53.082 92.824 C77.539 147.216 96.759 203.808 116.016 260.192 C166.675 408.505 166.675 408.505 200.551 469.885 C204.66 477.331 208.599 484.859 212.507 492.413 C215.376 497.942 218.32 503.419 221.348 508.863 C242.636 547.204 257.16 587.146 269.3 629.173 C283.392 677.939 302.908 723.567 328.507 767.429 C330.016 770.027 331.498 772.637 332.973 775.254 C356.723 817.342 383.287 858.343 412.434 896.918 C417.291 903.353 422.009 909.885 426.711 916.434 C428.885 919.461 431.078 922.473 433.289 925.473 C458.005 959.114 458.005 959.114 457 969 C455.545 973.026 453.799 975.456 450.25 977.875 C443.664 980.155 437.489 980.862 431 978 C427.367 975.429 424.893 972.774 422.375 969.125 C414.994 958.709 406.904 948.846 398.835 938.96 C394.904 934.136 391.051 929.258 387.228 924.348 C384.206 920.486 381.103 916.701 377.959 912.937 C358.501 889.607 341.684 864.205 324.927 838.905 C322.448 835.169 319.955 831.442 317.462 827.716 C310.879 817.871 304.363 807.989 298 798 C297.442 797.126 296.885 796.251 296.31 795.351 C258.127 735.323 258.127 735.323 251.582 699.262 C251.456 698.574 251.331 697.886 251.201 697.178 C250.58 693.77 249.977 690.361 249.405 686.944 C247.585 676.57 244.533 666.909 241 657 C240.45 655.439 239.901 653.877 239.352 652.316 C237.607 647.371 235.836 642.435 234.062 637.5 C232.736 633.805 231.411 630.109 230.086 626.414 C229.749 625.476 229.412 624.537 229.065 623.57 C226.702 616.979 224.365 610.378 222.039 603.773 C209.427 568.008 209.427 568.008 202.066 551.409 C201.034 549.076 200.033 546.731 199.035 544.383 C193.222 531.037 184.793 519.882 175.929 508.422 C161.657 489.963 152.647 470.124 144 448.562 C143.819 448.112 143.819 448.112 142.902 445.835 C121.732 393.217 103.079 339.746 85 286 C84.638 284.924 84.275 283.847 83.902 282.739 C76.548 260.897 69.209 239.056 62.361 217.05 C51.244 181.35 37.215 147.913 19.301 115.039 C1.695 82.55 -7.676 48.883 -4.188 11.75 C-4.117 10.928 -4.047 10.105 -3.975 9.258 C-3.537 5.072 -3.201 2.762 0 0 Z " fill="#000000" transform="translate(850,700)"/>
<path d="M0 0 C6.824 5.079 9.817 14.311 13.125 21.875 C13.38 22.453 13.38 22.453 14.673 25.378 C17.644 32.137 20.506 38.936 23.301 45.77 C23.452 46.14 23.452 46.14 24.22 48.016 C25.697 51.63 27.163 55.248 28.615 58.873 C33.847 71.85 39.571 84.647 47.562 96.188 C48.074 96.938 48.585 97.689 49.112 98.462 C60.854 115.552 74.575 130.861 88.688 146 C109.518 168.388 127.141 191.346 141.285 218.59 C141.799 219.577 142.312 220.564 142.842 221.58 C149.291 234.024 155.491 246.594 161.685 259.166 C177.671 291.584 195.466 320.942 219.158 348.232 C220.712 350.029 222.256 351.833 223.797 353.641 C228.263 358.88 232.741 364.095 237.375 369.188 C241.175 373.376 244.763 377.704 248.316 382.102 C250.384 384.63 252.494 387.115 254.626 389.589 C272.873 410.826 284.979 432.412 294.628 458.655 C300.879 475.603 308.676 491.113 317.525 506.822 C336.026 539.726 347.761 575.056 359.206 610.862 C360.339 614.404 361.477 617.945 362.614 621.486 C363.407 623.967 364.19 626.451 364.972 628.936 C367.589 637.163 370.464 645.214 373.801 653.18 C374.121 653.945 374.441 654.711 374.771 655.5 C380.629 669.16 389.173 681.346 397.316 693.714 C403.417 702.981 409.236 712.338 414.688 722 C415.203 722.91 415.719 723.82 416.251 724.758 C424.408 739.163 432.387 753.664 440.212 768.253 C441.58 770.8 442.957 773.342 444.336 775.883 C458.405 801.985 469.87 829.587 479.5 857.625 C479.736 858.298 479.973 858.97 480.216 859.664 C481.911 864.824 482.694 869.669 480.5 874.75 C478.314 877.464 476.955 878.721 473.688 880 C469.545 880.412 466.156 879.893 462.574 877.715 C449.514 866.988 443.599 850.156 437.816 834.826 C433.016 822.156 427.576 810.83 420.242 799.457 C417.476 795.086 414.914 790.595 412.312 786.125 C407.427 777.807 402.332 769.644 397.127 761.523 C380.427 735.442 364.686 708.82 350.049 681.526 C348.75 679.117 347.432 676.72 346.109 674.324 C336.64 657.01 329.207 638.884 322.938 620.188 C306.007 569.797 282.822 520.504 256.151 474.564 C254.164 471.083 252.277 467.553 250.387 464.02 C243.653 451.443 236.303 439.276 228.834 427.129 C226.542 423.401 224.271 419.663 222.016 415.914 C215.548 405.178 208.891 394.596 202.005 384.123 C198.554 378.874 195.165 373.6 191.875 368.25 C186.973 360.321 181.782 352.589 176.594 344.845 C171.729 337.579 166.896 330.292 162.094 322.984 C161.803 322.542 161.803 322.542 160.333 320.306 C159.128 318.472 157.923 316.638 156.718 314.804 C145.394 297.575 133.945 280.438 122.382 263.368 C115.151 252.688 108.021 241.975 101.172 231.044 C89.146 211.926 75.553 193.704 61.625 175.938 C45.021 154.729 29.737 132.577 16.688 109 C16.103 107.954 15.519 106.908 14.917 105.831 C-2.59 74.383 -20.712 39.132 -15.926 2 C-15.825 1.67 -15.825 1.67 -15.312 0 C-10.722 -2.295 -4.754 -1.435 0 0 Z " fill="#000000" transform="translate(1277.3125,2437)"/>
<path d="M0 0 C13.287 7.391 22.997 19.764 32.083 31.647 C37.658 38.922 43.526 45.631 50.056 52.043 C53.379 55.309 56.51 58.653 59.527 62.199 C61.408 64.369 63.349 66.477 65.302 68.582 C70.083 73.734 74.644 78.999 79.055 84.477 C81.567 87.568 84.146 90.597 86.734 93.625 C91.991 99.8 97.008 106.144 101.984 112.546 C104.266 115.477 106.563 118.394 108.859 121.312 C109.776 122.479 110.693 123.646 111.609 124.812 C112.063 125.39 112.517 125.968 112.984 126.562 C117.109 131.813 117.109 131.813 118.485 133.563 C119.4 134.728 120.315 135.892 121.23 137.056 C123.55 140.007 125.867 142.961 128.18 145.918 C133.119 152.229 138.099 158.498 143.195 164.684 C144.625 166.42 146.047 168.162 147.461 169.91 C151.781 175.243 156.189 180.492 160.672 185.688 C161.156 186.251 161.641 186.815 162.14 187.396 C171.552 198.247 181.468 208.608 191.623 218.762 C193.429 220.57 195.227 222.386 197.025 224.203 C203.831 231.041 210.78 237.331 218.359 243.312 C219.519 244.283 220.674 245.26 221.82 246.246 C229.139 252.534 236.653 258.507 244.359 264.312 C245.096 264.87 245.832 265.427 246.591 266 C284.628 294.764 323.925 319.716 366.332 341.578 C394.277 355.986 422.04 370.526 447.359 389.312 C447.944 389.745 448.528 390.178 449.13 390.624 C455.758 395.562 462.141 400.76 468.415 406.137 C472.887 409.957 477.491 413.585 482.135 417.192 C486.069 420.261 489.891 423.433 493.672 426.688 C499.207 431.44 504.955 435.863 510.774 440.261 C516.704 444.762 522.456 449.453 528.181 454.211 C532.648 457.918 537.158 461.555 541.734 465.125 C551.574 472.807 561.161 480.778 570.664 488.871 C572.362 490.314 574.065 491.751 575.77 493.188 C588.443 503.903 600.42 515.283 612.195 526.973 C613.247 528.017 614.301 529.06 615.356 530.101 C625.171 539.797 633.303 549.632 640.109 561.688 C641.203 563.615 642.301 565.54 643.406 567.461 C643.879 568.298 644.352 569.135 644.839 569.998 C648.199 575.114 651.225 576.846 657.047 578.562 C669.944 583.017 676.881 592.757 683.359 604.312 C684.448 606.622 685.413 608.939 686.359 611.312 C639.428 614.487 639.428 614.487 627.359 605.312 C625.734 602.875 625.734 602.875 624.359 600.312 C621.35 595.784 619.059 594.581 613.859 593.188 C605.415 590.405 600.454 585.611 594.359 579.312 C593.608 578.583 592.856 577.853 592.082 577.102 C587.575 572.725 583.446 568.078 579.359 563.312 C578.391 562.196 577.423 561.08 576.453 559.965 C573.082 556.086 569.719 552.201 566.359 548.312 C565.826 547.695 565.292 547.077 564.742 546.44 C559.666 540.559 554.619 534.667 549.734 528.625 C545.881 523.878 541.825 519.355 537.688 514.855 C535.752 512.742 533.857 510.606 531.984 508.438 C526.911 502.607 521.643 496.952 516.359 491.312 C515.719 490.628 515.078 489.944 514.418 489.238 C505.876 480.408 496.061 473.594 485.606 467.249 C469.98 457.732 455.318 447.055 441.027 435.642 C436.466 432.006 431.868 428.416 427.277 424.816 C425.95 423.776 424.623 422.734 423.297 421.691 C394.671 399.201 366.611 378.328 332.3 365.545 C314.009 358.726 298.238 348.525 282.359 337.312 C280.924 336.31 279.488 335.309 278.051 334.309 C260.921 322.345 244.241 309.782 227.66 297.074 C225.678 295.557 223.694 294.045 221.707 292.535 C215.16 287.542 208.745 282.411 202.372 277.198 C198.059 273.675 193.698 270.225 189.297 266.812 C182.384 261.43 175.797 255.702 169.212 249.927 C166.821 247.844 164.405 245.792 161.988 243.74 C155.126 237.91 148.479 231.883 141.899 225.739 C139.514 223.529 137.088 221.364 134.672 219.188 C122.844 208.335 111.018 197.177 101.359 184.312 C100.656 183.402 99.952 182.492 99.227 181.555 C93.499 173.967 88.647 166.97 87.547 157.375 C86.267 148.122 80.124 142.129 73.859 135.625 C68.969 130.356 66.235 124.487 63.176 118.07 C58.686 108.663 52.093 101.514 44.976 94.026 C43.462 92.421 41.971 90.798 40.488 89.164 C30.87 78.619 20.716 68.606 10.576 58.566 C-0.291 47.786 -0.291 47.786 -5.188 42.014 C-6.683 40.262 -8.232 38.577 -9.809 36.898 C-10.309 36.365 -10.81 35.831 -11.326 35.281 C-12.337 34.209 -13.35 33.138 -14.365 32.07 C-19.814 26.247 -23.155 21.46 -23.891 13.312 C-23.968 12.627 -24.045 11.941 -24.125 11.234 C-24.551 7.248 -24.716 3.32 -24.641 -0.688 C-16.596 -4.351 -7.94 -3.641 0 0 Z " fill="#000000" transform="translate(2968.640625,3348.6875)"/>
<path d="M0 0 C8.173 3.045 12.42 9.729 16.938 16.832 C19.359 20.549 22.128 23.946 24.938 27.375 C45.087 52.157 60.637 79.967 75.625 108.062 C90.827 136.54 106.077 165.05 128.121 188.934 C129.955 190.934 131.698 192.981 133.438 195.062 C141.576 204.334 151.055 212.008 160.879 219.399 C167.54 224.415 173.935 229.673 180.188 235.188 C180.713 235.649 181.238 236.111 181.779 236.587 C190.148 244.001 197.806 251.957 205.356 260.195 C208.53 263.649 211.732 267.076 214.938 270.5 C215.567 271.173 216.197 271.846 216.845 272.54 C221.084 277.056 225.4 281.466 229.844 285.781 C231.809 287.799 233.642 289.854 235.477 291.988 C257.492 317.323 286.142 336.213 317.812 347.062 C318.598 347.337 319.383 347.611 320.192 347.893 C338.484 353.865 356.795 353.632 375.843 353.623 C399.099 353.647 418.428 355.555 436.188 372.188 C439.423 375.691 442.333 379.37 445.188 383.188 C445.917 384.153 446.647 385.119 447.398 386.113 C465.529 411.146 473.435 439.44 479.199 469.41 C479.37 470.299 479.541 471.187 479.717 472.102 C480.556 476.488 481.377 480.877 482.171 485.271 C486.532 508.952 493.084 532.732 508.879 551.43 C517.932 562.245 524.426 571.876 524.188 586.188 C514.267 590.808 503.432 592.352 492.875 588.75 C474.496 580.049 465.389 558.335 458.898 540.251 C457.971 537.571 457.074 534.882 456.188 532.188 C455.846 531.154 455.505 530.121 455.153 529.057 C449.005 510.08 444.909 490.908 441.37 471.29 C438.346 454.692 434.016 440.47 425.125 426.062 C424.41 424.873 423.695 423.683 422.982 422.492 C415.14 409.502 407.126 401.36 392.188 397.188 C380.992 394.742 369.938 395.032 358.564 395.229 C349.954 395.364 341.489 395.302 332.926 394.305 C332.242 394.225 331.559 394.146 330.855 394.064 C277.089 387.076 224.116 336.532 187.612 299.575 C182.316 294.225 176.952 289.038 171.188 284.188 C170.641 283.719 170.094 283.251 169.531 282.769 C167.984 281.444 166.431 280.127 164.875 278.812 C164.319 278.342 163.764 277.871 163.191 277.386 C159.727 274.46 156.221 271.593 152.688 268.75 C147.304 264.372 142.243 259.692 137.176 254.957 C134.894 252.828 132.568 250.769 130.188 248.75 C121.564 241.28 113.477 232.956 106.188 224.188 C105.328 223.201 104.468 222.215 103.582 221.199 C86.692 201.465 73.009 178.696 60.188 156.188 C59.202 154.466 58.216 152.744 57.23 151.022 C54.452 146.169 51.679 141.313 48.91 136.456 C42.255 124.787 35.516 113.214 28.312 101.875 C-0.331 56.75 -0.331 56.75 -7.812 33.188 C-8.075 32.368 -8.338 31.548 -8.609 30.703 C-10.885 22.278 -11.155 12.29 -7.812 4.188 C-5.216 1.374 -3.846 0.256 0 0 Z " fill="#000000" transform="translate(1939.8125,2555.8125)"/>
<path d="M0 0 C4.762 0.758 7.736 2.46 11 6 C12.419 8.356 13.667 10.611 14.875 13.062 C17.486 17.949 19.556 21.379 24.883 23.379 C25.581 23.584 26.28 23.789 27 24 C36.353 26.901 42.197 32.245 49 39 C49.33 39.311 49.33 39.311 51 40.887 C64.063 53.375 74.619 69.038 84.562 84.062 C84.988 84.704 85.414 85.345 85.853 86.005 C99.648 106.799 112.288 128.194 124.354 150.036 C126.995 154.792 129.687 159.52 132.375 164.25 C136.911 172.249 141.373 180.287 145.801 188.346 C154.034 203.328 162.438 218.203 171 233 C171.573 233.991 172.147 234.982 172.738 236.003 C187.662 261.716 203.557 286.362 222.56 309.26 C224.579 311.7 226.569 314.164 228.562 316.625 C233.429 322.566 238.438 328.381 243.452 334.197 C244.978 335.975 246.496 337.76 248.012 339.547 C253.96 346.552 260.058 353.38 266.32 360.105 C269.04 363.044 271.687 366.033 274.309 369.059 C279.639 375.177 285.133 381.152 290.625 387.125 C294.203 391.017 297.728 394.947 301.191 398.941 C303.43 401.49 305.714 403.994 308 406.5 C311.436 410.267 314.823 414.067 318.164 417.918 C320.366 420.415 322.621 422.861 324.875 425.312 C328.183 428.935 331.36 432.617 334.438 436.438 C337.659 440.432 341.007 444.245 344.5 448 C348.755 452.579 352.773 457.293 356.695 462.164 C359.208 465.256 361.787 468.284 364.375 471.312 C369.636 477.492 374.655 483.843 379.634 490.251 C380.972 491.964 382.323 493.665 383.68 495.363 C444.572 571.719 444.572 571.719 445.312 610.438 C445.35 611.715 445.387 612.992 445.426 614.309 C444.903 618.843 443.231 621.769 440 625 C434.544 625.668 431.408 624.627 427.035 621.594 C415.477 612.543 409.166 599.62 402.445 586.854 C400.82 583.774 399.176 580.704 397.535 577.633 C394.258 571.488 394.258 571.488 392.765 568.663 C379.697 544.03 360.084 522.003 342.09 500.841 C339.14 497.367 336.243 493.855 333.375 490.312 C329.752 485.861 325.98 481.576 322.117 477.332 C320.219 475.242 318.353 473.13 316.5 471 C313.105 467.102 309.643 463.267 306.18 459.43 C304.309 457.344 302.461 455.242 300.625 453.125 C297.171 449.157 293.609 445.29 290.045 441.42 C287.513 438.666 285.01 435.893 282.562 433.062 C278.982 428.932 275.264 424.934 271.55 420.925 C266.984 415.994 262.483 411.007 258 406 C253.309 400.776 248.606 395.564 243.875 390.375 C237.386 383.239 231.088 375.95 224.82 368.619 C222.169 365.521 219.51 362.431 216.828 359.359 C204.799 345.579 193.183 331.476 182 317 C181.405 316.232 180.809 315.464 180.196 314.673 C149.945 275.591 125.294 234.162 103.438 189.875 C85.218 152.959 65.684 117.312 40 85 C39.507 84.378 39.015 83.756 38.507 83.115 C31.379 74.19 24.085 67.487 14.312 61.5 C6.27 56.438 2.222 51.259 0 42 C-0.359 38.633 -0.353 35.317 -0.293 31.934 C-0.289 31.014 -0.284 30.095 -0.28 29.147 C-0.263 26.244 -0.226 23.341 -0.188 20.438 C-0.172 18.455 -0.159 16.473 -0.146 14.49 C-0.114 9.66 -0.062 4.83 0 0 Z " fill="#000000" transform="translate(847,537)"/>
<path d="M0 0 C3.3 0.33 6.6 0.66 10 1 C9.948 1.763 9.948 1.763 9.688 5.625 C9.706 9.955 10.236 12.514 13.398 15.738 C15.069 17.055 16.753 17.995 18.625 19 C24.679 22.555 28.466 28.59 32.59 34.123 C34.78 37.039 37.048 39.891 39.312 42.75 C42.996 47.428 46.653 52.128 50.3 56.834 C56.098 64.312 61.935 71.737 68 79 C68.413 79.498 68.826 79.995 69.251 80.508 C80.098 93.575 91.679 105.832 103.722 117.797 C105.765 119.827 107.804 121.86 109.843 123.894 C114.163 128.203 118.488 132.508 122.812 136.812 C127.849 141.826 132.885 146.841 137.916 151.86 C139.911 153.849 141.91 155.836 143.909 157.822 C154.804 168.673 154.804 168.673 159.67 174.43 C161.972 177.148 164.439 179.715 166.875 182.312 C172.173 188.015 177.145 193.915 182 200 C182.921 201.13 183.843 202.259 184.766 203.387 C202.44 225.085 217.859 248.289 231 273 C231.456 273.851 231.911 274.702 232.38 275.578 C243.538 296.468 253.667 317.839 263.546 339.357 C268.442 350.006 273.481 360.582 278.604 371.124 C279.496 372.963 280.386 374.803 281.271 376.646 C295.395 406.013 313.109 432.29 333 458 C392.539 535.143 392.539 535.143 392.062 577.938 C392.06 578.327 392.06 578.327 392.049 580.299 C392.037 582.199 392.019 584.1 392 586 C385.896 586.563 381.04 586.531 375.994 582.769 C368.801 576.387 365.095 567.318 361.5 558.625 C347.254 525.406 322.747 497.091 300.852 468.602 C293.182 458.606 285.699 448.524 278.517 438.172 C276.919 435.884 275.3 433.613 273.676 431.344 C252.845 402.129 235.522 370.846 218.712 339.211 C214.742 331.765 210.687 324.365 206.628 316.967 C205.474 314.863 204.321 312.759 203.169 310.654 C186.049 279.371 168.773 248.046 148 219 C147.552 218.373 147.104 217.747 146.643 217.101 C137.535 204.418 128.162 192.051 117.469 180.656 C115.487 178.525 113.608 176.362 111.75 174.125 C103.368 164.444 93.224 155.948 83.458 147.697 C76.726 142.009 70.15 136.323 63.996 130 C62.127 128.127 60.202 126.401 58.188 124.688 C54.611 121.625 51.306 118.347 48 115 C44.161 111.119 40.278 107.383 36.125 103.836 C31.31 99.676 26.663 95.329 22 91 C21.264 90.343 20.528 89.685 19.77 89.008 C5.709 75.93 -1.115 57.778 -2.114 38.835 C-2.272 34.034 -2.285 29.234 -2.261 24.431 C-2.25 21.91 -2.261 19.39 -2.273 16.869 C-2.272 15.255 -2.27 13.641 -2.266 12.027 C-2.27 11.279 -2.274 10.532 -2.278 9.761 C-2.241 5.704 -1.867 3.735 0 0 Z " fill="#000000" transform="translate(849,1737)"/>
<path d="M0 0 C10.293 5.203 14.909 16.503 19.812 26.312 C24.219 34.931 28.758 42.571 35 50 C35.715 50.891 36.431 51.781 37.168 52.699 C41.656 58.267 46.285 63.717 50.916 69.166 C53.795 72.559 56.632 75.983 59.438 79.438 C62.911 83.707 66.468 87.895 70.062 92.062 C74.838 97.612 79.483 103.236 84 109 C85.083 110.363 86.167 111.727 87.25 113.09 C98.541 127.363 108.028 141.936 117.046 157.742 C127.179 175.408 138.219 192.453 150.367 208.798 C152.1 211.135 153.817 213.484 155.531 215.836 C166.104 230.314 177.188 244.315 188.528 258.196 C189.823 259.783 191.113 261.373 192.402 262.965 C197.961 269.81 203.683 276.505 209.438 283.184 C211.003 285.003 212.561 286.827 214.117 288.652 C219.331 294.765 224.59 300.822 229.988 306.773 C231.847 308.831 233.679 310.908 235.5 313 C239.611 317.717 243.807 322.356 248 327 C249.5 328.666 251 330.333 252.5 332 C253.245 332.828 253.99 333.655 254.758 334.508 C256.233 336.147 257.707 337.788 259.18 339.43 C263.301 344.02 267.449 348.584 271.625 353.125 C274.602 356.362 277.56 359.611 280.438 362.938 C284.018 367.068 287.736 371.066 291.45 375.075 C295.291 379.223 299.092 383.403 302.859 387.617 C304.296 389.216 305.744 390.805 307.203 392.383 C316.079 402.035 323.668 412.416 331.021 423.244 C339.668 435.913 349.059 445.759 361.868 454.243 C370.275 459.858 377.838 465.725 380.609 475.852 C381.185 479.016 381.267 481.791 381 485 C380 486 380 486 378.312 486.055 C357.959 484.473 338.67 474.712 323 462 C322.06 461.261 321.121 460.523 320.152 459.762 C306.597 448.743 293.592 436.176 282.867 422.371 C280.83 419.784 278.661 417.367 276.438 414.938 C272.792 410.931 269.373 406.8 266.016 402.551 C254.825 388.389 243.014 374.88 230.64 361.749 C228.237 359.187 225.868 356.594 223.5 354 C219.362 349.473 215.19 344.979 211 340.5 C205.876 335.021 200.786 329.514 195.727 323.977 C193.269 321.289 190.796 318.617 188.321 315.946 C183.463 310.701 178.656 305.427 174 300 C173.583 299.515 173.166 299.03 172.737 298.53 C170.214 295.593 167.695 292.654 165.18 289.711 C163.11 287.292 161.032 284.881 158.945 282.477 C152.583 275.134 146.424 267.672 140.509 259.964 C139.471 258.612 138.428 257.264 137.382 255.919 C119.173 232.466 102.995 207.474 88.398 181.633 C80.951 168.486 73.237 155.964 64 144 C63.531 143.388 63.063 142.776 62.58 142.146 C54.215 131.247 45.454 120.649 36.742 110.027 C28.949 100.51 21.366 90.853 14 81 C13.442 80.254 12.885 79.509 12.311 78.74 C2.643 65.743 -5.905 52.67 -12.938 38.062 C-13.127 37.672 -13.127 37.672 -14.083 35.696 C-17.998 27.329 -20.877 18.194 -18.465 8.949 C-17.005 5.224 -15.094 2.514 -12 0 C-7.757 -1.414 -4.313 -1.113 0 0 Z " fill="#000000" transform="translate(2548,2852)"/>
<path d="M0 0 C4.455 0.165 4.455 0.165 27 1 C29.273 8.58 31.315 16.106 32.938 23.852 C37.244 44.341 42.574 64.001 49.485 83.757 C59.758 113.156 69.251 142.831 77 173 C77.169 173.656 77.338 174.312 77.512 174.988 C86.414 209.716 91.96 245.188 92.246 281.074 C92.261 282.48 92.276 283.886 92.292 285.292 C92.325 288.241 92.357 291.191 92.388 294.141 C93.145 365.149 93.145 365.149 98 391 C98.202 392.187 98.405 393.374 98.613 394.598 C99.182 397.303 99.691 399.568 101 402 C104.5 403.812 104.5 403.812 108 405 C110.327 408.862 111.539 412.553 112.439 416.948 C112.559 417.524 112.559 417.524 113.168 420.442 C113.293 421.06 113.293 421.06 113.926 424.191 C114.198 425.5 114.47 426.809 114.744 428.118 C115.61 432.264 116.462 436.413 117.312 440.562 C127.281 489.175 127.281 489.175 135.688 504.938 C142.14 517.778 144.338 526.284 143 541 C130.13 541 117.26 541 104 541 C99.488 530.848 99.488 530.848 98.875 526.562 C98.727 525.556 98.579 524.549 98.426 523.512 C98.011 520.092 97.653 516.67 97.307 513.243 C95.321 493.984 95.321 493.984 91.168 490.434 C89.062 489.125 89.062 489.125 87.035 488.133 C83.541 486.188 81.389 484.147 80.09 480.319 C79.898 479.29 79.706 478.26 79.508 477.199 C79.281 476.016 79.054 474.833 78.82 473.615 C78.591 472.319 78.361 471.023 78.125 469.688 C77.87 468.298 77.615 466.909 77.359 465.52 C76.541 461.019 75.766 456.511 75 452 C74.874 451.264 74.748 450.529 74.619 449.771 C68.233 412.343 64.334 374.605 60.574 336.84 C60.467 335.76 60.359 334.68 60.248 333.567 C59.154 322.579 58.066 311.591 56.998 300.601 C53.704 266.733 50.283 232.831 44.688 199.25 C44.544 198.38 44.401 197.51 44.253 196.614 C39.529 168.11 33.173 140.424 24 113 C23.882 112.648 23.882 112.648 23.287 110.865 C22.009 107.036 20.728 103.207 19.446 99.379 C19.187 98.605 18.928 97.83 18.66 97.032 C18.138 95.473 17.616 93.915 17.094 92.356 C8.252 65.96 -0.279 39.601 -0.062 11.5 C-0.042 7.705 -0.021 3.91 0 0 Z " fill="#000000" transform="translate(1765,3419)"/>
<path d="M0 0 C9.363 4.196 15.642 11.924 21.719 19.877 C38.777 42.087 38.777 42.087 49.66 47.031 C52.964 48.892 52.983 49.236 54.117 53.223 C54.276 54.773 54.409 56.325 54.523 57.879 C57.698 83.892 71.82 107.588 83.176 130.84 C96.699 158.63 96.699 158.63 95.762 170.957 C94.9 184.182 94.608 195.805 99.023 208.379 C99.293 209.159 99.563 209.939 99.841 210.743 C111.607 243.903 133.585 271.369 156.984 297.125 C158.814 299.148 160.612 301.193 162.398 303.254 C165.808 307.169 169.317 310.991 172.831 314.812 C176.53 318.834 180.196 322.884 183.844 326.953 C185.311 328.586 186.785 330.214 188.266 331.836 C193.739 337.849 198.921 344.049 204.023 350.379 C204.96 351.512 205.898 352.645 206.836 353.777 C217.082 366.233 225.768 379.593 234.211 393.316 C234.681 394.08 235.151 394.843 235.635 395.63 C236.066 396.34 236.497 397.05 236.941 397.781 C237.321 398.405 237.7 399.029 238.091 399.672 C239.936 403.049 240.135 405.799 240.086 409.566 C240.077 410.467 240.068 411.369 240.059 412.297 C240.053 412.64 240.053 412.64 240.023 414.379 C235.534 416.624 229.938 415.842 225.199 414.695 C218.902 412.579 214.042 409.685 209.023 405.379 C208.356 404.831 207.688 404.283 207 403.719 C203.672 400.92 200.705 398.045 197.871 394.746 C193.66 389.879 189.108 385.391 184.523 380.879 C179.331 375.769 174.275 370.636 169.529 365.107 C167.627 362.924 165.602 360.895 163.523 358.879 C160.174 355.569 157.024 352.171 153.961 348.598 C152.038 346.395 150.063 344.246 148.074 342.103 C143.317 336.974 138.783 331.734 134.395 326.281 C132.198 323.593 129.954 320.96 127.682 318.336 C108.334 296 90.621 272.203 78.023 245.379 C77.691 244.68 77.358 243.981 77.015 243.26 C66.357 220.768 57.864 197.268 49.046 174.013 C35.738 138.927 21.515 104.75 4.215 71.415 C-0.95 61.451 -5.958 51.468 -10.477 41.191 C-10.903 40.226 -11.329 39.26 -11.768 38.265 C-16.38 27.526 -20.667 16.45 -16.789 4.816 C-12.486 -0.97 -6.748 -2.12 0 0 Z " fill="#000000" transform="translate(2464.9765625,3223.62109375)"/>
<path d="M0 0 C10.874 4.588 17.79 17.835 24.102 27.309 C24.504 27.898 24.906 28.488 25.32 29.095 C32.601 39.855 37.301 51.775 42.305 63.699 C50.216 82.518 57.366 92.512 76.078 101.172 C86.181 105.879 94.037 111.627 102.102 119.309 C102.968 120.13 103.834 120.951 104.727 121.797 C108.786 125.767 112.601 129.914 116.297 134.223 C118.318 136.559 120.395 138.838 122.477 141.121 C126.728 145.837 130.752 150.706 134.744 155.642 C136.295 157.546 137.861 159.438 139.43 161.328 C146.504 169.86 153.402 178.48 160.102 187.309 C161.642 189.31 163.184 191.31 164.727 193.309 C165.551 194.383 166.375 195.457 167.199 196.531 C168.78 198.592 170.366 200.649 171.957 202.703 C189.127 224.863 202.617 247.71 214.102 273.309 C201.331 277.981 184.886 278.197 172.102 273.309 C152.941 264.33 144.497 244.762 135.977 226.621 C123.133 199.351 105.433 176.756 82.32 157.242 C78.356 153.787 74.556 150.151 70.73 146.545 C67.639 143.64 64.52 140.79 61.305 138.023 C39.857 119.355 24.061 99.56 11.102 74.309 C10.499 73.144 9.896 71.979 9.275 70.779 C2.516 57.7 -4.031 44.531 -9.836 30.996 C-10.255 30.043 -10.674 29.09 -11.106 28.108 C-13.452 22.463 -14.894 17.443 -13.898 11.309 C-11.562 6.195 -5.996 -1.43 0 0 Z " fill="#000000" transform="translate(2741.8984375,3686.69140625)"/>
<path d="M0 0 C2.835 -0.136 5.663 -0.235 8.5 -0.312 C9.291 -0.354 10.083 -0.396 10.898 -0.439 C17.12 -0.567 21.312 0.836 26 5 C27.783 7.386 29.055 9.386 30.375 12 C30.771 12.747 31.167 13.494 31.575 14.264 C33.085 17.159 34.545 20.077 36 23 C36.32 23.641 36.641 24.283 36.971 24.944 C58.552 68.151 74.572 109.465 84 156.938 C84.131 157.596 84.262 158.255 84.397 158.933 C85.85 166.25 87.287 173.57 88.7 180.895 C95.324 214.979 95.324 214.979 101.812 227 C102.503 228.322 103.192 229.645 103.879 230.969 C104.227 231.629 104.575 232.289 104.934 232.969 C106.762 236.453 108.523 239.965 110.25 243.5 C110.567 244.115 110.884 244.73 111.21 245.363 C118.31 260 119.586 277.324 121.852 293.219 C124.731 313.271 128.762 331.83 138 350 C129.306 350.748 120.599 351.187 111.875 351.375 C110.975 351.413 110.075 351.451 109.148 351.49 C104.68 351.547 102.676 351.519 99.035 348.727 C83.763 328.266 81.357 295.759 77.254 271.25 C77.143 270.586 77.031 269.922 76.917 269.238 C75.896 263.134 74.892 257.027 73.898 250.918 C69.757 225.518 64.093 200.693 56.375 176.125 C56.124 175.318 55.873 174.512 55.614 173.681 C44.465 137.875 31.526 102.747 18.23 67.692 C-0.229 18.983 -0.229 18.983 -0.062 5.188 C-0.053 4.212 -0.044 3.236 -0.035 2.23 C-0.024 1.494 -0.012 0.758 0 0 Z " fill="#000000" transform="translate(2272,3610)"/>
<path d="M0 0 C3.982 2.689 6.035 5.303 8.199 9.559 C8.481 10.107 8.481 10.107 9.908 12.883 C10.495 14.056 11.082 15.229 11.688 16.438 C12.314 17.665 12.941 18.892 13.569 20.119 C16.758 26.379 19.814 32.691 22.737 39.081 C29.01 52.762 36.93 65.318 45 78 C46.033 79.63 47.066 81.26 48.098 82.891 C48.571 83.637 49.044 84.384 49.531 85.154 C49.995 85.887 50.459 86.62 50.938 87.375 C51.407 88.115 51.876 88.855 52.36 89.618 C77.866 129.953 100.518 171.669 121.721 214.408 C126.076 223.186 130.443 231.957 134.895 240.686 C141.932 254.486 148.777 268.318 154.875 282.562 C155.368 283.715 155.862 284.867 156.37 286.054 C158.581 291.312 160.618 296.462 162 302 C159.774 302.533 157.544 303.051 155.312 303.562 C154.692 303.708 154.692 303.708 151.551 304.441 C148.151 304.976 146.206 305.162 143 304 C115.494 281.45 96.462 239.802 79.505 209.312 C70.14 192.502 59.725 176.5 48.984 160.543 C30.109 132.484 15.165 104.199 2.557 72.784 C-12.139 36.17 -12.139 36.17 -21.737 20.363 C-25.023 14.773 -25.023 14.773 -24.898 10.617 C-23.327 6.04 -21.164 3.718 -17.062 1.188 C-11.733 -0.824 -5.565 -0.895 0 0 Z " fill="#000000" transform="translate(1937,2998)"/>
<path d="M0 0 C10.095 4.511 19.523 13.511 26.988 21.492 C29.493 24.018 32.017 26.52 34.566 29 C40.339 34.654 45.682 40.44 50.672 46.812 C52.186 48.744 53.713 50.667 55.238 52.59 C84.246 89.343 108.463 129.736 131.898 170.191 C134.155 174.08 136.456 177.937 138.8 181.773 C155.743 209.532 155.743 209.532 153.637 222.613 C152.578 225.681 150.733 226.924 147.988 228.492 C141.952 230.504 134.583 230.734 128.535 228.645 C121.133 223.88 117.687 214.456 114.937 206.42 C110.53 194.113 103.347 183.985 95.926 173.305 C94.036 170.558 92.15 167.808 90.265 165.058 C89.019 163.241 87.772 161.425 86.522 159.61 C80.642 151.045 74.985 142.343 69.359 133.61 C50.946 105.163 32.095 76.297 9.789 50.723 C7.294 47.861 4.879 44.942 2.488 41.992 C-1.519 37.047 -5.656 32.223 -9.852 27.438 C-15.217 21.254 -19.383 16.041 -19.305 7.496 C-18.844 4.347 -17.243 2.658 -15.012 0.492 C-10.647 -1.69 -4.644 -1.172 0 0 Z " fill="#000000" transform="translate(1610.01171875,1968.5078125)"/>
<path d="M0 0 C4.506 1.329 7.252 4.554 10.582 7.762 C11.073 8.232 11.564 8.703 12.07 9.188 C18.704 15.577 24.867 22.109 30.598 29.336 C32.874 32.119 35.326 34.604 37.918 37.09 C39.689 38.87 41.243 40.756 42.832 42.699 C49.295 50.157 57.656 55.098 66.465 59.34 C68.582 60.762 68.582 60.762 69.441 62.73 C69.582 64.762 69.582 64.762 68.707 68.012 C68.564 72.301 69.018 72.837 71.707 75.949 C73.772 78.096 75.736 79.874 78.145 81.637 C84.798 87.438 88.235 96.922 91.645 104.887 C92.075 105.884 92.505 106.882 92.949 107.91 C98.044 119.922 102.674 132.085 102.832 145.262 C102.858 146.551 102.884 147.84 102.91 149.168 C102.475 153.937 100.915 156.429 97.582 159.762 C91.865 160.434 88.117 159.12 83.582 155.762 C83.016 155.345 82.45 154.929 81.867 154.5 C73.875 147.595 69.817 136.28 66.332 126.574 C63.5 119.606 58.544 114.788 53.337 109.549 C50.835 107.001 48.418 104.378 45.992 101.759 C40.31 95.632 34.515 89.645 28.574 83.771 C25.43 80.649 22.471 77.442 19.609 74.062 C17.912 72.136 16.178 70.28 14.398 68.43 C-7.971 45.136 -7.971 45.136 -8.418 28.762 C-8.445 28.055 -8.473 27.349 -8.501 26.621 C-9.187 7.677 -9.187 7.677 -4.605 1.199 C-2.418 -0.238 -2.418 -0.238 0 0 Z " fill="#000000" transform="translate(854.41796875,1251.23828125)"/>
<path d="M0 0 C14.977 6.826 28.005 18.743 40.273 29.496 C42.025 31.022 43.791 32.531 45.562 34.035 C52.235 39.701 58.782 45.473 65.203 51.422 C67.775 53.793 70.381 56.119 73 58.438 C81.917 66.468 90.287 74.84 97.678 84.314 C99.244 86.311 100.834 88.289 102.422 90.27 C120.896 113.455 120.896 113.455 120 122 C118.423 125.388 116.057 128.125 113.188 130.5 C105.95 132.154 100.356 129.114 94.324 125.391 C87.562 120.73 81.819 114.755 76 109 C75.302 108.316 74.604 107.631 73.885 106.926 C67.26 100.426 60.718 93.928 54.647 86.901 C52.272 84.16 49.829 81.484 47.375 78.812 C47.149 78.565 47.149 78.565 46.008 77.314 C38.151 68.746 29.822 61.409 20.312 54.75 C-14.091 30.248 -14.091 30.248 -16.438 16.422 C-16.706 10.82 -15.868 7.275 -12 3 C-7.58 -0.747 -5.556 -1.368 0 0 Z " fill="#000000" transform="translate(1345,1685)"/>
<path d="M0 0 C3.474 2.82 5.609 6.253 8 10 C9.249 11.621 10.52 13.226 11.812 14.812 C12.474 15.639 13.135 16.465 13.816 17.316 C18.127 22.615 22.565 27.806 27 33 C27.48 33.562 27.96 34.125 28.454 34.704 C29.927 36.429 31.4 38.152 32.875 39.875 C33.371 40.455 33.867 41.035 34.378 41.632 C36.973 44.66 39.585 47.67 42.227 50.656 C83.124 96.999 83.124 96.999 82.637 119.047 C81.748 121.772 80.45 122.589 78 124 C65.067 125.338 52.303 118.466 42.375 110.688 C35.725 104.376 31.53 95.872 27 88 C16.954 70.573 6.167 57.071 -8.137 42.959 C-16.997 34.146 -26.312 24.568 -28.562 11.812 C-27.771 7.857 -26.148 5.414 -23 3 C-16.193 -0.378 -7.392 -1.774 0 0 Z " fill="#000000" transform="translate(2152,3344)"/>
<path d="M0 0 C19.205 1.746 34.483 22.052 46.215 36.02 C47.124 37.078 48.034 38.135 48.945 39.191 C51.03 41.609 53.106 44.034 55.176 46.465 C57.016 48.625 58.872 50.762 60.754 52.887 C68.611 61.921 74.836 71.917 81.215 82.02 C82.356 83.81 83.498 85.601 84.641 87.391 C85.729 89.1 86.816 90.809 87.902 92.52 C88.407 93.314 88.913 94.109 89.433 94.928 C89.667 95.299 89.667 95.299 90.852 97.176 C91.261 97.824 91.671 98.471 92.093 99.139 C93.237 101.057 94.242 103.01 95.215 105.02 C93.461 107.697 91.684 110.36 89.902 113.02 C89.403 113.783 88.903 114.546 88.389 115.332 C88.145 115.693 88.145 115.693 86.914 117.52 C86.469 118.19 86.024 118.86 85.565 119.551 C85.12 120.035 84.674 120.52 84.215 121.02 C81.215 121.02 81.215 121.02 79.637 119.77 C79.085 119.192 78.533 118.615 77.965 118.02 C77.346 117.375 76.727 116.73 76.09 116.066 C74.345 114.162 72.648 112.228 70.965 110.27 C68.032 106.861 64.914 103.676 61.715 100.52 C58.036 96.885 54.515 93.179 51.156 89.246 C48.57 86.28 45.892 83.403 43.215 80.52 C38.8 75.753 34.448 70.949 30.215 66.02 C29.29 64.949 28.366 63.879 27.441 62.809 C20.442 54.689 13.515 46.513 6.906 38.07 C2.7 32.758 -1.096 28.694 -6.785 25.02 C-8.846 20.899 -8.031 16.358 -6.727 12.09 C-6.278 10.771 -5.818 9.456 -5.348 8.145 C-5.118 7.469 -4.887 6.794 -4.65 6.098 C-2.548 0.028 -2.548 0.028 0 0 Z " fill="#000000" transform="translate(2421.78515625,2697.98046875)"/>
<path d="M0 0 C5.207 -0.084 8.975 0.481 13 3.938 C14.357 5.268 15.69 6.624 17 8 C17.686 8.678 18.372 9.356 19.078 10.055 C34.148 25.72 60.19 60.159 60.312 82.625 C60.199 86.535 59.662 88.984 57 92 C52.601 94.899 49.22 95.63 44 95 C33.9 91.826 28.836 83.388 24.123 74.482 C20.745 67.813 18.054 60.871 15.29 53.932 C11.184 43.746 5.877 34.926 -0.617 26.059 C-4.344 20.511 -3.432 13.404 -3 7 C-2.27 4.311 -1.39 2.432 0 0 Z " fill="#000000" transform="translate(1765,2245)"/>
<path d="M0 0 C3.96 0 7.92 0 12 0 C12.842 2.08 13.673 4.164 14.5 6.25 C14.964 7.41 15.428 8.57 15.906 9.766 C17 13 17 13 17 17 C11.39 17 5.78 17 0 17 C0 11.39 0 5.78 0 0 Z " fill="#000000" transform="translate(1546,1918)"/>
</svg>
