<?xml version="1.0" encoding="UTF-8"?>
<!-- Generator: visioncortex VTracer 0.6.12 -->
<svg version="1.1" xmlns="http://www.w3.org/2000/svg" width="4500" height="4500">
<path d="M0 0 C0.701 -0.023 1.402 -0.045 2.125 -0.069 C5.492 -0.057 7.245 0.233 9.969 2.273 C11.508 4.43 11.508 4.43 11.633 7.367 C10.173 11.342 8.059 13.317 4.508 15.43 C-4.111 19.019 -13.173 19.719 -22.367 20.742 C-24.215 20.954 -26.063 21.165 -27.911 21.377 C-33.015 21.957 -38.122 22.519 -43.229 23.074 C-46.532 23.434 -49.834 23.798 -53.137 24.162 C-120.589 31.555 -188.261 35.844 -256.055 38.555 C-257.015 38.593 -257.975 38.632 -258.964 38.672 C-286.686 39.773 -314.418 40.439 -342.16 40.676 C-343.121 40.684 -344.081 40.693 -345.071 40.701 C-353.918 40.778 -362.765 40.849 -371.612 40.906 C-391.512 41.04 -411.382 41.236 -431.254 42.367 C-431.608 42.387 -431.608 42.387 -433.402 42.489 C-445.286 43.18 -457.139 44.204 -468.985 45.374 C-487.23 47.162 -505.352 47.583 -523.677 47.603 C-526.171 47.61 -528.665 47.616 -531.158 47.624 C-536.511 47.638 -541.863 47.65 -547.216 47.659 C-555.054 47.674 -562.893 47.695 -570.731 47.718 C-583.587 47.756 -596.443 47.791 -609.298 47.823 C-610.066 47.824 -610.833 47.826 -611.623 47.828 C-621.589 47.853 -631.555 47.875 -641.521 47.897 C-660.853 47.938 -680.184 47.988 -699.516 48.051 C-699.881 48.052 -699.881 48.052 -701.731 48.058 C-742.338 48.189 -782.921 48.616 -823.518 49.636 C-850.891 50.322 -878.255 50.677 -905.637 50.809 C-906.607 50.813 -907.577 50.818 -908.576 50.823 C-921.197 50.884 -933.817 50.93 -946.438 50.972 C-964.067 51.031 -981.696 51.104 -999.324 51.184 C-999.791 51.186 -999.791 51.186 -1002.151 51.196 C-1042.808 51.381 -1083.404 52.109 -1124.027 53.831 C-1127.975 53.998 -1131.923 54.161 -1135.871 54.324 C-1136.651 54.356 -1137.432 54.389 -1138.236 54.422 C-1145.221 54.71 -1152.206 54.987 -1159.192 55.26 C-1161.892 55.366 -1164.593 55.476 -1167.293 55.589 C-1196.069 56.782 -1224.872 56.617 -1253.666 56.615 C-1258.659 56.615 -1263.652 56.623 -1268.645 56.635 C-1311.35 56.738 -1353.954 56.187 -1396.545 52.74 C-1400.966 52.383 -1405.388 52.047 -1409.81 51.708 C-1412.077 51.535 -1414.345 51.36 -1416.612 51.185 C-1427.01 50.382 -1437.412 49.636 -1447.817 48.932 C-1449.624 48.81 -1451.432 48.685 -1453.239 48.559 C-1477.917 46.833 -1502.641 46.25 -1527.372 45.898 C-1529.538 45.867 -1531.704 45.834 -1533.87 45.801 C-1556.141 45.471 -1578.409 45.403 -1600.682 45.435 C-1602.755 45.438 -1604.827 45.44 -1606.9 45.442 C-1620.082 45.458 -1633.265 45.478 -1646.448 45.531 C-1652.4 45.555 -1658.352 45.569 -1664.304 45.58 C-1666.754 45.586 -1669.204 45.596 -1671.654 45.611 C-1692.889 45.733 -1714.073 44.913 -1735.145 42.141 C-1736.024 42.025 -1736.903 41.91 -1737.809 41.791 C-1738.596 41.687 -1739.383 41.583 -1740.194 41.476 C-1764.691 38.29 -1788.856 38.145 -1813.498 38.366 C-1817.255 38.399 -1821.012 38.428 -1824.77 38.453 C-1825.135 38.456 -1825.135 38.456 -1826.986 38.468 C-1839.771 38.54 -1852.439 37.981 -1865.18 36.93 C-1881.077 35.635 -1896.853 35.145 -1912.805 35.18 C-1913.814 35.181 -1914.824 35.182 -1915.865 35.183 C-1925.233 35.204 -1934.596 35.303 -1943.959 35.666 C-1971.161 36.713 -1998.372 36.581 -2025.59 36.558 C-2030.491 36.555 -2035.392 36.556 -2040.293 36.56 C-2067.026 36.582 -2093.761 36.587 -2120.49 36.123 C-2122.494 36.089 -2124.497 36.057 -2126.5 36.029 C-2146.888 35.729 -2166.958 33.341 -2187.159 30.73 C-2219.142 26.617 -2250.191 26.842 -2282.305 28.93 C-2318.494 31.27 -2354.424 30.611 -2390.644 29.29 C-2412.81 28.495 -2434.959 28.202 -2457.139 28.183 C-2459.574 28.18 -2462.009 28.173 -2464.444 28.165 C-2492.648 28.081 -2520.326 29.753 -2548.305 33.492 C-2551.386 33.9 -2554.467 34.305 -2557.549 34.705 C-2559.431 34.949 -2561.312 35.198 -2563.193 35.453 C-2578.778 37.489 -2594.246 37.547 -2609.937 37.474 C-2613.87 37.457 -2617.804 37.446 -2621.738 37.438 C-2632.912 37.414 -2644.087 37.379 -2655.261 37.334 C-2661.46 37.309 -2667.658 37.292 -2673.856 37.282 C-2677.117 37.277 -2680.378 37.266 -2683.639 37.249 C-2703.821 37.141 -2722.707 38.596 -2742.514 42.574 C-2769.73 47.618 -2798.095 46.912 -2825.68 47.43 C-2867.308 48.214 -2867.308 48.214 -2887.32 49.41 C-2888.004 49.451 -2888.687 49.491 -2889.391 49.533 C-2907.962 50.656 -2926.088 52.747 -2944.28 56.659 C-2952.367 58.347 -2960.374 59.246 -2968.62 59.709 C-2977.441 60.262 -2989.887 61.825 -2996.492 68.43 C-2998.251 68.526 -3000.014 68.552 -3001.776 68.55 C-3002.921 68.551 -3004.067 68.553 -3005.247 68.554 C-3005.881 68.552 -3005.881 68.552 -3009.09 68.543 C-3010.43 68.543 -3011.77 68.543 -3013.11 68.544 C-3016.759 68.544 -3020.407 68.538 -3024.056 68.531 C-3027.865 68.525 -3031.674 68.524 -3035.483 68.523 C-3042.701 68.52 -3049.918 68.512 -3057.136 68.502 C-3065.351 68.491 -3073.566 68.485 -3081.782 68.48 C-3098.685 68.47 -3115.589 68.452 -3132.492 68.43 C-3132.492 67.77 -3132.492 67.11 -3132.492 66.43 C-3108.762 60.061 -3085.238 53.753 -3060.617 52.43 C-3059.766 52.383 -3058.915 52.337 -3058.038 52.289 C-3054.73 52.114 -3051.423 51.945 -3048.114 51.789 C-3016.506 50.249 -2984.824 42.244 -2953.81 36.351 C-2942.725 34.248 -2931.631 32.229 -2920.492 30.43 C-2919.821 30.321 -2919.149 30.211 -2918.457 30.099 C-2895.496 26.421 -2872.433 25.972 -2849.229 25.456 C-2823.856 24.884 -2798.571 23.595 -2773.242 22.014 C-2730.613 19.355 -2687.985 17.318 -2645.305 15.742 C-2644.606 15.716 -2643.906 15.691 -2643.186 15.664 C-2590.206 13.708 -2537.217 11.958 -2484.219 10.555 C-2481.263 10.477 -2478.307 10.398 -2475.351 10.316 C-2392.474 8.022 -2309.578 9.085 -2226.755 12.476 C-2223.379 12.614 -2220.002 12.752 -2216.626 12.889 C-2213.187 13.029 -2209.748 13.169 -2206.309 13.31 C-2205.621 13.338 -2204.933 13.366 -2204.225 13.395 C-2195.649 13.745 -2187.074 14.104 -2178.5 14.479 C-2151.924 15.628 -2125.366 16.582 -2098.767 16.951 C-2096.671 16.981 -2094.575 17.011 -2092.48 17.042 C-2061.997 17.485 -2031.515 17.64 -2001.029 17.727 C-1993.442 17.748 -1985.854 17.775 -1978.266 17.801 C-1964.704 17.848 -1951.142 17.891 -1937.58 17.932 C-1924.551 17.972 -1911.522 18.013 -1898.493 18.057 C-1898.089 18.059 -1898.089 18.059 -1896.046 18.066 C-1892.795 18.077 -1889.544 18.088 -1886.293 18.099 C-1872.147 18.146 -1858 18.193 -1843.853 18.239 C-1842.351 18.244 -1840.849 18.249 -1839.348 18.253 C-1830.755 18.281 -1822.163 18.309 -1813.571 18.335 C-1808.942 18.349 -1804.313 18.365 -1799.684 18.381 C-1788.756 18.418 -1777.829 18.44 -1766.902 18.371 C-1765.197 18.362 -1763.492 18.353 -1761.787 18.344 C-1758.813 18.329 -1755.84 18.301 -1752.866 18.263 C-1735.987 18.165 -1735.987 18.165 -1731.177 22.532 C-1726.716 25.685 -1721.858 24.896 -1716.543 24.785 C-1715.938 24.781 -1715.938 24.781 -1712.875 24.759 C-1710.24 24.739 -1707.607 24.712 -1704.972 24.674 C-1698.537 24.581 -1692.102 24.557 -1685.667 24.524 C-1683.418 24.512 -1681.17 24.497 -1678.922 24.482 C-1664.343 24.392 -1649.77 24.538 -1635.193 24.772 C-1633.175 24.805 -1631.156 24.836 -1629.138 24.867 C-1603.673 25.268 -1578.214 25.942 -1552.758 26.701 C-1525.55 27.511 -1525.55 27.511 -1512.562 27.52 C-1511.693 27.52 -1510.823 27.521 -1509.927 27.521 C-1503.627 27.496 -1497.346 27.237 -1491.055 26.93 C-1459.402 25.468 -1429.31 28.959 -1398.097 33.916 C-1397.621 33.991 -1397.621 33.991 -1395.209 34.37 C-1393.453 34.647 -1391.698 34.927 -1389.943 35.213 C-1387.13 35.654 -1384.314 36.05 -1381.492 36.43 C-1380.863 36.516 -1380.235 36.601 -1379.587 36.69 C-1365.067 38.614 -1350.64 38.738 -1336.012 38.73 C-1333.434 38.736 -1330.856 38.741 -1328.278 38.747 C-1320.671 38.762 -1313.064 38.755 -1305.458 38.745 C-1302.571 38.741 -1299.684 38.74 -1296.798 38.739 C-1249.24 38.715 -1201.762 37.844 -1154.237 36.024 C-1132.226 35.181 -1110.212 34.447 -1088.198 33.703 C-1080.597 33.446 -1072.997 33.183 -1065.396 32.915 C-1060.603 32.747 -1055.81 32.581 -1051.017 32.415 C-1048.844 32.34 -1046.672 32.263 -1044.499 32.185 C-1002.897 30.692 -961.269 30.217 -919.645 29.894 C-916.357 29.868 -913.069 29.842 -909.781 29.815 C-867.969 29.478 -826.159 29.358 -784.345 29.4 C-782.281 29.402 -780.216 29.404 -778.152 29.406 C-754.649 29.429 -731.147 29.462 -707.644 29.509 C-707.293 29.509 -707.293 29.509 -705.517 29.513 C-704.814 29.514 -704.112 29.516 -703.388 29.517 C-701.968 29.52 -700.549 29.523 -699.129 29.526 C-698.779 29.526 -698.779 29.526 -697.003 29.53 C-685.136 29.553 -673.269 29.568 -661.402 29.577 C-654.875 29.582 -648.349 29.591 -641.822 29.611 C-615.675 29.686 -589.573 29.499 -563.442 28.512 C-562.348 28.47 -561.254 28.429 -560.127 28.387 C-544.865 27.797 -529.624 26.945 -514.383 25.957 C-513.145 25.878 -511.906 25.798 -510.63 25.717 C-507.853 25.537 -505.077 25.354 -502.3 25.171 C-450.546 21.811 -398.963 20.709 -347.122 20.656 C-341.928 20.65 -336.733 20.642 -331.539 20.633 C-330.277 20.631 -329.015 20.628 -327.715 20.626 C-290.615 20.538 -253.508 19.197 -216.492 16.68 C-215.256 16.599 -214.021 16.518 -212.747 16.435 C-197.434 15.435 -182.142 14.262 -166.855 12.906 C-166.114 12.841 -165.373 12.775 -164.61 12.708 C-158.588 12.175 -152.567 11.642 -146.546 11.102 C-123.919 9.077 -101.437 7.861 -78.717 7.347 C-60.25 6.909 -42.228 5.347 -23.98 2.461 C-15.982 1.203 -8.106 0.14 0 0 Z " fill="#000000" transform="translate(3625.4921875,2336.5703125)"/>
<path d="M0 0 C1.249 0.179 2.498 0.359 3.784 0.544 C9.881 1.421 15.977 2.305 22.072 3.191 C48.412 7.02 74.447 8.919 101.033 9.916 C124.439 10.801 147.351 12.328 170.5 16.125 C172.928 16.509 175.357 16.892 177.785 17.273 C183.693 18.205 189.598 19.156 195.5 20.125 C195.44 21.751 195.351 23.376 195.25 25 C195.227 25.452 195.227 25.452 195.109 27.742 C194.5 30.125 194.5 30.125 192.851 31.427 C189.864 32.314 187.254 32.402 184.133 32.426 C183.488 32.431 182.842 32.437 182.177 32.443 C179.993 32.455 177.809 32.448 175.625 32.438 C174.854 32.436 174.084 32.435 173.29 32.433 C120.415 32.254 67.406 27.341 15.114 19.787 C9.082 18.917 3.043 18.103 -3 17.312 C-3.828 17.201 -4.656 17.089 -5.51 16.974 C-7.838 16.669 -10.167 16.389 -12.5 16.125 C-13.323 16.029 -14.146 15.934 -14.994 15.835 C-24.337 14.898 -33.689 14.974 -43.069 14.995 C-45.883 15 -48.697 14.995 -51.512 14.988 C-63.925 14.984 -76.326 15.225 -88.734 15.533 C-115.488 16.196 -142.239 16.422 -169 16.597 C-173.304 16.626 -177.607 16.655 -181.911 16.685 C-238.524 17.078 -295.137 17.361 -351.75 17.625 C-352.303 17.628 -352.303 17.628 -355.101 17.641 C-415.889 17.924 -476.678 18.156 -537.467 18.351 C-545.553 18.378 -553.639 18.404 -561.724 18.431 C-568.18 18.452 -574.637 18.473 -581.093 18.494 C-582.705 18.499 -584.316 18.505 -585.928 18.51 C-604.938 18.572 -623.948 18.632 -642.958 18.686 C-655.725 18.722 -668.492 18.762 -681.259 18.803 C-688.202 18.826 -695.144 18.847 -702.086 18.865 C-730.148 18.936 -758.203 19.118 -786.26 19.58 C-786.864 19.59 -786.864 19.59 -789.917 19.638 C-805.895 19.897 -821.849 20.401 -837.812 21.125 C-856.997 21.961 -876.159 22.227 -895.359 22.336 C-897.803 22.351 -900.247 22.366 -902.691 22.382 C-912.583 22.441 -922.475 22.5 -932.368 22.51 C-983.445 22.563 -983.445 22.563 -1008.5 27.125 C-1010.237 27.419 -1011.975 27.71 -1013.713 27.999 C-1018.651 28.837 -1023.571 29.763 -1028.49 30.706 C-1049.462 34.694 -1070.262 34.204 -1091.527 33.954 C-1108.468 33.761 -1124.781 34.319 -1141.5 37.125 C-1142.384 37.269 -1143.267 37.413 -1144.178 37.561 C-1150.253 38.552 -1156.315 39.608 -1162.375 40.688 C-1165.809 41.299 -1169.244 41.903 -1172.68 42.504 C-1173.417 42.637 -1174.154 42.771 -1174.913 42.908 C-1187.665 45.138 -1200.435 46.37 -1213.372 46.74 C-1215.593 46.804 -1217.815 46.877 -1220.036 46.952 C-1223.271 47.062 -1226.507 47.168 -1229.742 47.272 C-1273.277 48.682 -1316.728 51.166 -1360.193 53.976 C-1362.433 54.121 -1364.674 54.264 -1366.914 54.407 C-1427.587 58.275 -1427.587 58.275 -1455.5 62.125 C-1455.833 62.17 -1455.833 62.17 -1457.516 62.399 C-1480.186 65.51 -1502.26 70.773 -1524.412 76.455 C-1578.191 90.176 -1578.191 90.176 -1602.602 83.727 C-1606.569 82.903 -1609.567 83.277 -1613.5 84.125 C-1613.5 80.165 -1613.5 76.205 -1613.5 72.125 C-1603.116 68.655 -1592.873 65.978 -1582.062 64.125 C-1580.62 63.869 -1579.177 63.612 -1577.734 63.354 C-1570.754 62.122 -1563.768 60.995 -1556.746 60.02 C-1532.589 56.661 -1509.008 51.265 -1485.258 45.763 C-1420.766 30.833 -1355.598 29.61 -1289.703 27.598 C-1254.211 26.51 -1219.524 24.414 -1184.381 19.282 C-1154.805 14.988 -1125.079 14.141 -1095.254 12.95 C-1060.166 11.543 -1025.547 8.798 -990.688 4.5 C-986.842 4.029 -982.995 3.56 -979.149 3.093 C-976.798 2.808 -974.447 2.52 -972.096 2.229 C-968.899 1.839 -965.701 1.474 -962.5 1.125 C-961.553 1.021 -960.606 0.917 -959.631 0.809 C-949.538 -0.135 -939.43 0.026 -929.304 0.08 C-925.871 0.098 -922.438 0.109 -919.005 0.119 C-914.114 0.132 -909.223 0.147 -904.332 0.164 C-835.045 0.39 -835.045 0.39 -805.5 -0.875 C-804.389 -0.922 -803.278 -0.969 -802.134 -1.017 C-797.971 -1.194 -793.809 -1.372 -789.647 -1.554 C-768.02 -2.474 -746.369 -1.937 -724.734 -1.613 C-719.344 -1.533 -713.953 -1.454 -708.562 -1.375 C-708.179 -1.369 -708.179 -1.369 -706.238 -1.341 C-679.475 -0.952 -652.716 -0.776 -625.95 -0.784 C-622.88 -0.785 -619.809 -0.785 -616.739 -0.785 C-573.729 -0.792 -530.725 -1.189 -487.717 -1.673 C-465.786 -1.919 -443.854 -2.145 -421.922 -2.367 C-420.809 -2.379 -419.697 -2.39 -418.551 -2.402 C-385.081 -2.742 -351.612 -3.011 -318.141 -3.195 C-317.132 -3.201 -316.124 -3.206 -315.084 -3.212 C-294.933 -3.323 -274.782 -3.422 -254.631 -3.51 C-246.003 -3.548 -237.374 -3.587 -228.746 -3.629 C-227.92 -3.633 -227.095 -3.637 -226.244 -3.641 C-200.471 -3.767 -174.701 -4.015 -148.93 -4.367 C-148.544 -4.372 -148.544 -4.372 -146.59 -4.399 C-125.767 -4.682 -104.947 -5.04 -84.13 -5.635 C-55.661 -6.44 -28.151 -4.05 0 0 Z " fill="#000000" transform="translate(2000.5,2281.875)"/>
<path d="M0 0 C0 7.26 0 14.52 0 22 C-37.857 28.905 -76.631 29.117 -115.001 30.687 C-133.037 31.426 -151.057 32.238 -169.062 33.562 C-169.858 33.621 -170.653 33.679 -171.472 33.739 C-178.205 34.239 -184.931 34.748 -191.637 35.528 C-207.138 37.282 -222.599 37.27 -238.175 37.196 C-241.015 37.185 -243.855 37.185 -246.695 37.186 C-264.733 37.185 -282.716 36.745 -300.732 35.805 C-311.226 35.293 -320.545 35.426 -330.504 38.973 C-348.188 44.76 -366.605 47.815 -384.839 51.348 C-387.902 51.943 -390.964 52.541 -394.026 53.141 C-437.919 61.733 -481.916 70.243 -526.582 73.586 C-546.915 75.144 -566.808 78.263 -586.894 81.776 C-609.104 85.656 -630.245 87.331 -652.812 87.562 C-699.166 88.106 -699.166 88.106 -713.5 90.062 C-714.376 90.181 -715.252 90.3 -716.155 90.422 C-727.957 92.216 -739.364 95.788 -750.813 99.087 C-779.302 107.249 -808.999 107.995 -838.413 109.727 C-868.667 111.517 -898.478 114.806 -928.438 119.438 C-930.423 119.739 -932.409 120.041 -934.394 120.342 C-945.7 122.077 -956.865 124.128 -968.052 126.512 C-977.14 128.308 -986.105 128.323 -995.342 128.41 C-1004.407 128.623 -1011.832 130.49 -1020.368 133.36 C-1028.495 135.908 -1036.304 136.82 -1044.781 137.219 C-1045.508 137.257 -1046.234 137.295 -1046.982 137.335 C-1070.349 138.547 -1093.777 138.186 -1117.166 138.079 C-1128.149 138.03 -1139.133 137.997 -1150.117 137.973 C-1151.291 137.97 -1152.466 137.967 -1153.675 137.965 C-1168.418 137.938 -1183.149 138.018 -1197.887 138.422 C-1198.601 138.441 -1199.315 138.46 -1200.05 138.479 C-1213.805 138.86 -1227.562 139.659 -1241.258 141.004 C-1242.035 141.079 -1242.813 141.155 -1243.614 141.233 C-1266.823 143.545 -1289.917 146.977 -1313 150.285 C-1371.123 158.61 -1371.123 158.61 -1391.934 159.874 C-1394.178 160.011 -1396.421 160.155 -1398.664 160.299 C-1452.879 163.699 -1506.846 162.484 -1560.832 156.755 C-1604.299 152.146 -1647.534 151.185 -1691.213 152.57 C-1706.909 153.055 -1722.604 153.115 -1738.306 153.123 C-1740.298 153.125 -1742.289 153.129 -1744.28 153.133 C-1748.037 153.138 -1751.794 153.137 -1755.551 153.133 C-1756.674 153.135 -1757.798 153.137 -1758.955 153.139 C-1763.429 153.126 -1767.821 153.089 -1772.26 152.509 C-1778.473 151.726 -1784.73 151.796 -1790.984 151.74 C-1793.347 151.718 -1795.71 151.691 -1798.074 151.663 C-1803.111 151.604 -1808.149 151.552 -1813.188 151.5 C-1850.965 151.11 -1850.965 151.11 -1863.801 150.531 C-1864.63 150.494 -1865.458 150.457 -1866.312 150.418 C-1868.544 150.304 -1870.771 150.162 -1873 150 C-1873.822 149.942 -1874.643 149.885 -1875.49 149.825 C-1876.299 149.755 -1877.108 149.684 -1877.942 149.611 C-1878.306 149.581 -1878.306 149.581 -1880.147 149.426 C-1882 149 -1882 149 -1884.125 146.688 C-1885 144 -1885 144 -1885 141.812 C-1883.534 139.155 -1881.848 138.934 -1879 138 C-1871.638 136.955 -1864.182 136.967 -1856.761 137.038 C-1850.411 137.066 -1844.097 136.916 -1837.757 136.573 C-1794.79 134.301 -1751.774 134.66 -1708.761 134.686 C-1699.919 134.69 -1691.076 134.676 -1682.234 134.657 C-1673.529 134.639 -1664.824 134.633 -1656.119 134.636 C-1650.993 134.638 -1645.866 134.636 -1640.739 134.622 C-1612.528 134.549 -1584.552 135.722 -1556.418 137.82 C-1554.092 137.993 -1551.765 138.163 -1549.439 138.332 C-1541.54 138.904 -1533.645 139.503 -1525.75 140.125 C-1461.424 145.173 -1399.705 141.483 -1335.881 133.269 C-1294.487 127.942 -1253.36 123.728 -1211.68 121.574 C-1210.436 121.51 -1209.191 121.445 -1207.909 121.379 C-1188.27 120.365 -1168.627 119.492 -1148.977 118.719 C-1147.689 118.668 -1146.402 118.617 -1145.076 118.565 C-1133.279 118.101 -1121.482 117.647 -1109.685 117.198 C-1083.869 116.213 -1058.062 115.226 -1032.285 113.469 C-1031.408 113.41 -1030.531 113.351 -1029.627 113.29 C-1015.313 112.313 -1001.049 110.926 -986.867 108.723 C-986.075 108.601 -985.282 108.48 -984.465 108.355 C-972.931 106.557 -961.433 104.532 -949.929 102.553 C-912.83 96.173 -876.126 92.035 -838.583 89.335 C-803.434 86.807 -768.976 82.545 -734.24 76.616 C-709.859 72.479 -685.514 69.22 -660.767 68.71 C-633.043 68.111 -606.475 64.048 -579.367 58.485 C-572.985 57.176 -566.602 55.879 -560.217 54.589 C-558.004 54.139 -555.793 53.681 -553.582 53.222 C-534.452 49.295 -534.452 49.295 -525.438 50.438 C-481.219 54.595 -434.977 40.107 -392.297 30.1 C-379.608 27.134 -366.903 24.287 -354.133 21.695 C-352.951 21.452 -351.77 21.209 -350.553 20.959 C-334.627 17.786 -319.575 16.737 -303.377 16.911 C-299.951 16.946 -296.525 16.966 -293.099 16.983 C-283.367 17.031 -273.636 17.101 -263.904 17.192 C-237.271 17.431 -211.12 17.435 -184.731 13.539 C-177.96 12.561 -171.166 11.76 -164.375 10.938 C-163.518 10.833 -162.661 10.728 -161.779 10.62 C-148.061 8.962 -134.303 7.952 -120.519 7.039 C-118.889 6.93 -117.259 6.821 -115.629 6.711 C-114.834 6.658 -114.038 6.604 -113.219 6.549 C-107.464 6.146 -101.741 5.566 -96.008 4.926 C-89.087 4.161 -82.282 3.713 -75.312 3.812 C-74.816 3.815 -74.816 3.815 -72.306 3.828 C-66.071 3.884 -59.859 4.136 -53.632 4.465 C-42.805 5.03 -32.69 4.79 -22 3 C-21.604 2.935 -21.604 2.935 -19.598 2.606 C-16.358 2.074 -13.118 1.54 -9.885 0.966 C-6.511 0.371 -3.441 0 0 0 Z " fill="#000000" transform="translate(4116,2165)"/>
<path d="M0 0 C5.475 0.006 10.949 0.002 16.424 -0.004 C20.769 -0.007 25.114 -0.006 29.458 -0.003 C31.478 -0.003 33.499 -0.004 35.519 -0.006 C48.942 -0.018 62.299 0.378 75.702 1.13 C76.373 2.587 77.038 4.045 77.702 5.505 C78.073 6.317 78.444 7.13 78.827 7.966 C79.702 10.13 79.702 10.13 79.702 12.13 C41.087 19.668 2.29 21.239 -36.927 21.985 C-48.925 22.216 -60.921 22.505 -72.918 22.787 C-73.881 22.81 -74.844 22.833 -75.836 22.856 C-77.776 22.901 -79.715 22.947 -81.655 22.993 C-87.366 23.127 -93.077 23.254 -98.788 23.375 C-102.363 23.451 -105.939 23.531 -109.515 23.61 C-111.179 23.647 -112.844 23.682 -114.508 23.715 C-129.924 24.026 -129.924 24.026 -137.27 24.913 C-144.068 25.642 -150.378 24.93 -157.048 23.63 C-164.362 22.32 -171.881 20.994 -179.298 22.13 C-179.626 22.385 -179.626 22.385 -181.283 23.673 C-184.108 25.715 -185.75 25.232 -189.173 24.818 C-195.485 24.221 -201.708 24.004 -208.048 24.005 C-208.891 24.001 -209.734 23.997 -210.603 23.992 C-216.108 24.003 -221.582 24.248 -227.076 24.583 C-238.603 25.276 -250.144 25.524 -261.687 25.832 C-306.846 27.038 -351.931 29.009 -396.98 32.455 C-413.038 33.679 -429.081 34.637 -445.173 35.255 C-445.675 35.275 -445.675 35.275 -448.211 35.373 C-457.25 35.719 -466.291 36.036 -475.333 36.323 C-506.441 37.312 -537.237 39.648 -568.198 42.815 C-583.222 44.342 -598.257 45.779 -613.298 47.13 C-613.982 47.192 -614.666 47.254 -615.371 47.317 C-643.984 49.87 -672.784 50.198 -701.417 47.849 C-711.242 47.089 -721.013 46.934 -730.861 46.943 C-731.578 46.942 -732.296 46.941 -733.035 46.941 C-742.853 46.942 -752.645 47.245 -762.455 47.63 C-776.69 48.178 -790.917 48.318 -805.161 48.316 C-807.876 48.316 -810.59 48.323 -813.305 48.336 C-831.376 48.425 -849.269 47.753 -867.289 46.352 C-884.928 45.055 -902.71 45.05 -920.392 45.056 C-920.791 45.056 -920.791 45.056 -922.808 45.056 C-943.774 45.067 -964.735 45.447 -985.696 45.878 C-988.91 45.944 -992.123 46.008 -995.337 46.073 C-1026.084 46.696 -1056.766 47.704 -1087.47 49.447 C-1101.738 50.255 -1116.012 50.783 -1130.298 51.13 C-1131.269 51.155 -1132.239 51.179 -1133.239 51.204 C-1149.252 51.545 -1165.2 50.577 -1181.181 49.707 C-1216.223 47.801 -1251.195 46.725 -1286.29 46.753 C-1289.259 46.755 -1292.227 46.753 -1295.195 46.751 C-1376.991 46.725 -1376.991 46.725 -1391.873 54.294 C-1401.157 58.718 -1412.875 53.797 -1422.423 51.568 C-1423.871 51.235 -1425.319 50.902 -1426.767 50.57 C-1430.279 49.763 -1433.789 48.949 -1437.298 48.13 C-1436.815 40.762 -1436.815 40.762 -1434.685 38.158 C-1431.422 36.753 -1428.66 36.753 -1425.111 36.693 C-1418.957 36.488 -1413.32 35.607 -1407.361 34.068 C-1400.501 32.313 -1394.503 31.103 -1387.486 32.818 C-1387.125 32.869 -1387.125 32.869 -1385.298 33.13 C-1384.695 32.666 -1384.092 32.202 -1383.471 31.724 C-1377.452 27.309 -1368.379 27.93 -1361.224 28.063 C-1346.883 28.321 -1332.625 27.912 -1318.297 27.29 C-1289.742 26.073 -1261.218 25.817 -1232.641 25.87 C-1226.195 25.881 -1219.75 25.874 -1213.304 25.862 C-1208.251 25.855 -1203.198 25.858 -1198.145 25.863 C-1195.764 25.864 -1193.384 25.862 -1191.003 25.858 C-1187.713 25.853 -1184.423 25.86 -1181.133 25.872 C-1180.179 25.868 -1179.224 25.863 -1178.241 25.859 C-1172.801 25.893 -1167.79 26.458 -1162.483 27.671 C-1159.331 28.333 -1156.499 28.45 -1153.298 28.13 C-1152.659 27.635 -1152.02 27.14 -1151.361 26.63 C-1148.204 24.334 -1145.013 24.6 -1141.298 25.13 C-1139.991 25.587 -1138.698 26.089 -1137.423 26.63 C-1131.922 28.94 -1125.937 29.01 -1120.298 27.13 C-1110.888 26.526 -1101.994 27.212 -1092.767 29.063 C-1083.808 30.803 -1075.354 30.226 -1066.416 28.634 C-1065.966 28.558 -1065.966 28.558 -1063.691 28.171 C-1060.85 27.686 -1058.012 27.19 -1055.173 26.693 C-1052.327 26.202 -1049.481 25.713 -1046.634 25.226 C-1044.873 24.924 -1043.112 24.619 -1041.352 24.311 C-1033.313 22.917 -1025.5 21.976 -1017.33 21.998 C-1016.491 21.997 -1015.652 21.996 -1014.788 21.995 C-1013.02 21.994 -1011.252 21.996 -1009.484 22 C-1006.833 22.005 -1004.183 22 -1001.533 21.994 C-993.786 21.991 -986.09 22.082 -978.361 22.63 C-969.436 23.259 -960.531 23.281 -951.586 23.261 C-948.774 23.255 -945.962 23.261 -943.15 23.267 C-941.335 23.266 -939.52 23.265 -937.705 23.263 C-937.291 23.264 -937.291 23.264 -935.198 23.269 C-930.143 23.249 -925.304 22.837 -920.298 22.13 C-914.914 21.712 -910.374 21.948 -905.236 23.693 C-898.21 26.002 -892.728 24.587 -885.798 22.505 C-877.51 20.201 -872.541 21.467 -864.861 25.193 C-855.011 29.769 -845.051 28.751 -834.47 27.656 C-816.093 25.776 -797.756 25.814 -779.306 25.792 C-774.634 25.783 -769.963 25.762 -765.292 25.742 C-753.419 25.694 -741.546 25.661 -729.673 25.63 C-663.2 25.456 -597.243 24.257 -530.924 19.239 C-524.149 18.73 -517.373 18.233 -510.597 17.737 C-509.911 17.687 -509.226 17.637 -508.519 17.585 C-505.742 17.382 -502.965 17.178 -500.187 16.975 C-496.018 16.67 -491.849 16.364 -487.68 16.058 C-371.919 7.545 -371.919 7.545 -317.111 5.255 C-316.437 5.227 -315.763 5.198 -315.069 5.169 C-268.882 3.228 -222.637 2.844 -176.418 2.193 C-164.723 2.028 -153.028 1.861 -141.333 1.693 C-138.443 1.651 -135.553 1.61 -132.662 1.569 C-117.829 1.358 -102.996 1.134 -88.163 0.85 C-58.773 0.287 -29.396 -0.032 0 0 Z " fill="#000000" transform="translate(2668.29833984375,2179.86962890625)"/>
<path d="M0 0 C8.444 0.506 16.459 0.661 24.885 -0.319 C28.096 -0.381 29.958 0.1 32.772 1.625 C35.26 5.358 35.314 7.209 34.772 11.625 C31.514 15.782 27.285 16.561 22.288 17.316 C11.104 18.298 -0.162 17.716 -11.353 17.125 C-20.396 16.658 -29.429 16.485 -38.482 16.448 C-39.954 16.441 -41.426 16.431 -42.898 16.417 C-55.243 16.309 -67.337 16.958 -79.103 21 C-80.466 21.44 -81.829 21.877 -83.193 22.312 C-85.776 23.147 -88.348 24.004 -90.919 24.875 C-100.344 27.705 -108.563 27.604 -118.35 26.981 C-126.946 26.501 -134.99 27.195 -143.504 28.347 C-152.603 29.535 -161.688 30.215 -170.845 30.699 C-171.631 30.742 -172.417 30.784 -173.226 30.828 C-193.841 31.921 -214.464 32.01 -235.103 32.125 C-256.943 32.247 -278.749 32.434 -300.564 33.555 C-300.962 33.575 -300.962 33.575 -302.975 33.676 C-313.029 34.194 -322.978 35.062 -332.978 36.25 C-349.648 38.085 -366.303 37.794 -383.055 37.514 C-384.137 37.501 -385.219 37.489 -386.333 37.475 C-388.372 37.451 -390.412 37.414 -392.451 37.362 C-398.233 37.3 -402.071 38 -407.228 40.625 C-413.211 41.716 -418.551 40.363 -424.291 38.625 C-433.649 35.792 -438.914 35.863 -447.833 39.727 C-452.225 41.374 -456.191 41.101 -460.654 40.059 C-469.607 38.045 -477.459 39.393 -486.373 40.898 C-496.409 42.534 -496.409 42.534 -500.228 40.625 C-500.315 36.833 -500.368 33.042 -500.416 29.25 C-500.441 28.17 -500.466 27.09 -500.492 25.977 C-500.501 24.945 -500.511 23.914 -500.521 22.852 C-500.529 22.375 -500.529 22.375 -500.569 19.963 C-500.456 19.192 -500.344 18.42 -500.228 17.625 C-496.371 15.054 -493.225 15.356 -488.755 15.395 C-487.874 15.395 -486.993 15.395 -486.085 15.395 C-483.112 15.399 -480.139 15.418 -477.166 15.438 C-475.048 15.444 -472.931 15.451 -470.813 15.457 C-453.782 15.525 -436.753 15.786 -419.724 16.057 C-415.412 16.125 -411.101 16.191 -406.789 16.256 C-404.685 16.287 -402.581 16.319 -400.476 16.351 C-399.105 16.372 -397.734 16.393 -396.363 16.414 C-389.226 16.522 -382.09 16.644 -374.954 16.813 C-355.154 17.265 -336.292 15.392 -316.737 12.53 C-310.044 11.565 -303.346 10.885 -296.603 10.375 C-295.724 10.307 -294.846 10.24 -293.94 10.17 C-291.037 9.965 -288.133 9.794 -285.228 9.625 C-284.584 9.583 -283.94 9.54 -283.277 9.497 C-268.496 8.531 -253.747 8.538 -238.94 8.608 C-231.827 8.64 -224.713 8.643 -217.599 8.645 C-216.891 8.645 -216.183 8.645 -215.454 8.645 C-174.63 8.648 -134.073 7.477 -93.599 1.852 C-62.194 -2.495 -31.586 -1.963 0 0 Z " fill="#000000" transform="translate(884.22802734375,2213.375)"/>
<path d="M0 0 C0.365 -0.004 0.365 -0.004 2.212 -0.024 C9.944 -0.023 16.831 1.199 22.898 6.133 C22.648 9.812 22.418 11.619 19.75 14.258 C11.356 19.777 -1.398 18.373 -11.09 18.188 C-13.064 18.166 -15.038 18.145 -17.011 18.126 C-19.072 18.105 -21.133 18.08 -23.194 18.055 C-62.498 17.596 -62.498 17.596 -80.99 20.513 C-91.509 22.097 -101.947 22.722 -112.57 23.145 C-114.485 23.226 -116.399 23.308 -118.313 23.39 C-145.565 24.537 -172.83 25.408 -200.091 26.307 C-226.598 27.184 -253.088 28.197 -279.57 29.645 C-280.68 29.705 -281.789 29.765 -282.932 29.827 C-351.023 33.559 -351.023 33.559 -381.102 40.133 C-381.928 40.312 -382.754 40.492 -383.605 40.677 C-392.519 42.615 -401.431 44.565 -410.34 46.53 C-434.885 51.921 -459.928 57.25 -485.164 54.383 C-486.393 54.244 -487.621 54.104 -488.887 53.961 C-492.492 53.032 -493.844 52.045 -496.102 49.133 C-497.44 44.809 -497.44 44.809 -496.102 42.133 C-486.093 38.661 -475.631 38.879 -465.154 38.703 C-446.244 38.178 -427.934 34.18 -409.534 30.064 C-387.477 25.154 -365.559 20.714 -343.102 18.133 C-342.135 18.02 -341.169 17.908 -340.173 17.792 C-304.223 13.613 -268.222 10.399 -232.102 8.133 C-231.017 8.065 -229.933 7.997 -228.816 7.926 C-167.792 4.136 -106.615 2.719 -45.504 1.011 C-43.198 0.946 -40.892 0.881 -38.586 0.816 C-12.149 0.07 -12.149 0.07 0 0 Z " fill="#000000" transform="translate(3963.1015625,2112.8671875)"/>
<path d="M0 0 C0 6.6 0 13.2 0 20 C-2.97 19.67 -5.94 19.34 -9 19 C-17.991 18.34 -26.491 19.233 -35.352 20.652 C-35.913 20.741 -35.913 20.741 -38.755 21.187 C-53.357 23.502 -67.932 25.986 -82.508 28.462 C-86.69 29.173 -90.873 29.88 -95.056 30.588 C-107.459 32.686 -119.862 34.789 -132.264 36.893 C-143.54 38.806 -154.815 40.716 -166.092 42.623 C-168.688 43.063 -171.283 43.502 -173.879 43.942 C-192.82 47.148 -211.768 50.305 -230.736 53.346 C-232.429 53.618 -234.121 53.89 -235.814 54.162 C-242.983 55.313 -250.152 56.459 -257.324 57.587 C-281.075 61.329 -304.47 66.183 -327.851 71.787 C-335.2 73.534 -342.584 75.115 -349.975 76.672 C-352.035 77.106 -354.094 77.545 -356.153 77.984 C-364.879 79.826 -373.264 81.191 -382.188 81.25 C-382.584 81.26 -382.584 81.26 -384.592 81.312 C-390.408 81.352 -390.408 81.352 -393.551 79.484 C-394.029 78.995 -394.507 78.505 -395 78 C-394.776 75.662 -394.776 75.662 -394 73 C-342.795 34.216 -238.028 34.453 -175.629 24.718 C-76.229 9.209 -76.229 9.209 -48.064 1.468 C-45.908 0.979 -43.962 0.842 -41.754 0.795 C-40.926 0.775 -40.099 0.755 -39.246 0.734 C-38.36 0.718 -37.475 0.701 -36.562 0.684 C-35.645 0.663 -34.728 0.642 -33.783 0.621 C-30.856 0.555 -27.928 0.496 -25 0.438 C-23.029 0.394 -21.057 0.351 -19.086 0.307 C-15.473 0.227 -11.859 0.149 -8.246 0.076 C-7.884 0.069 -7.884 0.069 -6.049 0.031 C-4.033 0 -2.016 0 0 0 Z " fill="#000000" transform="translate(4116,2258)"/>
<path d="M0 0 C2.957 -0.002 5.913 -0.021 8.869 -0.039 C10.786 -0.042 12.702 -0.044 14.619 -0.045 C15.485 -0.052 16.351 -0.06 17.243 -0.067 C24.435 -0.04 31.875 0.529 37.971 4.685 C38.609 5.108 39.247 5.531 39.904 5.967 C41.533 7.185 41.533 7.185 43.533 9.185 C43.873 12.191 44.101 14.287 43.533 17.185 C40.777 20.171 38.469 21.471 34.533 22.185 C32.409 22.244 30.283 22.247 28.158 22.213 C26.926 22.2 25.694 22.188 24.424 22.176 C21.83 22.14 19.236 22.101 16.643 22.058 C16.026 22.053 16.026 22.053 12.908 22.025 C12.345 22.017 12.345 22.017 9.494 21.974 C6.56 22.183 5.034 22.731 2.533 24.185 C-2.969 25.029 -7.379 24.377 -12.404 22.06 C-21.427 18.526 -31.328 21.232 -40.615 22.674 C-42.885 23.026 -45.155 23.373 -47.426 23.717 C-49.625 24.052 -51.821 24.403 -54.013 24.775 C-77.936 28.499 -102.839 27.4 -126.985 27.711 C-155.047 28.075 -155.047 28.075 -166.787 28.619 C-167.545 28.652 -168.304 28.684 -169.085 28.718 C-174.418 28.998 -179.592 29.788 -184.842 30.748 C-199.152 33.288 -212.044 33.211 -224.967 25.74 C-226.904 24.373 -226.904 24.373 -229.467 22.185 C-228.671 17.967 -227.002 16.627 -223.467 14.185 C-220.456 13.182 -218.335 13.029 -215.184 12.966 C-214.11 12.938 -213.037 12.911 -211.931 12.882 C-210.768 12.853 -209.606 12.824 -208.408 12.795 C-199.18 12.507 -190.045 11.976 -180.869 10.951 C-179.804 10.832 -178.74 10.713 -177.643 10.591 C-175.404 10.339 -173.165 10.085 -170.927 9.831 C-142.727 6.665 -114.485 4.89 -86.154 3.373 C-85.174 3.32 -84.195 3.267 -83.185 3.213 C-70.658 2.541 -58.13 1.901 -45.601 1.29 C-43.658 1.195 -41.715 1.097 -39.772 0.999 C-26.512 0.331 -13.278 -0.001 0 0 Z " fill="#000000" transform="translate(1186.466796875,2208.814697265625)"/>
<path d="M0 0 C0.568 -0.006 0.568 -0.006 3.445 -0.037 C10.641 -0.049 17.35 0.624 24.375 2.188 C25.02 10.105 25.02 10.105 22.625 14.125 C14.792 19.096 4.214 18.48 -4.801 18.418 C-5.928 18.418 -7.055 18.417 -8.216 18.417 C-10.59 18.414 -12.964 18.406 -15.338 18.393 C-18.89 18.375 -22.442 18.373 -25.994 18.373 C-37.827 18.354 -49.621 18.125 -61.44 17.559 C-70.94 17.107 -80.427 16.904 -89.938 16.875 C-90.91 16.871 -91.883 16.867 -92.886 16.863 C-116.557 16.82 -140.175 18.063 -163.812 19.188 C-255.118 23.522 -255.118 23.522 -296.125 17.75 C-296.915 17.64 -297.704 17.53 -298.518 17.417 C-303.017 16.701 -306.666 15.573 -310.625 13.188 C-311.688 11.188 -311.688 11.188 -311.625 9.188 C-309.408 6.389 -307.264 5.52 -303.875 4.562 C-303.055 4.323 -302.235 4.083 -301.391 3.836 C-294.936 2.323 -288.697 2.047 -282.108 2.074 C-281.169 2.074 -280.229 2.074 -279.261 2.074 C-276.121 2.074 -272.981 2.082 -269.842 2.09 C-267.586 2.092 -265.33 2.093 -263.073 2.094 C-258.214 2.097 -253.356 2.104 -248.497 2.112 C-240.784 2.126 -233.071 2.132 -225.358 2.136 C-214.513 2.144 -203.669 2.154 -192.824 2.167 C-192.48 2.167 -192.48 2.167 -190.74 2.17 C-184.482 2.177 -178.224 2.185 -171.967 2.193 C-167.829 2.198 -163.692 2.203 -159.555 2.208 C-158.875 2.209 -158.196 2.21 -157.495 2.211 C-146.067 2.224 -134.639 2.234 -123.211 2.241 C-116.815 2.245 -110.42 2.251 -104.025 2.263 C-40.366 2.375 -40.366 2.375 -16.383 0.401 C-10.925 -0.021 -5.471 0.003 0 0 Z " fill="#000000" transform="translate(3148.625,2175.8125)"/>
<path d="M0 0 C0.916 -0.006 1.832 -0.012 2.776 -0.018 C7.031 0.026 9.87 0.17 13.637 2.305 C12.967 6.895 12.266 10.435 9.512 14.242 C3.855 18.3 -1.875 18.46 -8.57 18.125 C-25.701 17.312 -42.239 20.856 -58.971 24.124 C-68.211 25.912 -77.201 26.513 -86.613 26.555 C-87.784 26.575 -88.954 26.596 -90.16 26.617 C-91.284 26.622 -92.408 26.628 -93.566 26.633 C-94.075 26.637 -94.075 26.637 -96.649 26.661 C-99.768 26.252 -101.123 25.48 -103.363 23.305 C-103.988 20.93 -103.988 20.93 -103.363 18.305 C-98.853 13.724 -95.33 12.426 -89.051 11.617 C-87.534 11.387 -86.017 11.155 -84.5 10.922 C-83.781 10.817 -83.062 10.712 -82.322 10.604 C-77.96 9.937 -73.679 8.864 -69.392 7.829 C-63.406 6.429 -57.418 5.551 -51.32 4.797 C-50.275 4.667 -49.231 4.536 -48.154 4.402 C-45.946 4.129 -43.739 3.858 -41.531 3.59 C-38.229 3.186 -34.93 2.763 -31.631 2.34 C-21.081 1.028 -10.639 0.043 0 0 Z " fill="#000000" transform="translate(3433.36328125,2152.6953125)"/>
<path d="M0 0 C0.99 0.66 1.98 1.32 3 2 C3.341 3.971 3.341 3.971 3.293 6.352 C3.283 7.202 3.274 8.053 3.264 8.93 C3.239 9.819 3.213 10.709 3.188 11.625 C3.181 12.074 3.181 12.074 3.146 14.344 C3.111 16.563 3.062 18.781 3 21 C-12.242 21.969 -27.501 22.558 -42.764 23.072 C-46.671 23.203 -50.577 23.343 -54.483 23.502 C-58.316 23.658 -62.149 23.793 -65.983 23.914 C-67.43 23.963 -68.876 24.019 -70.322 24.083 C-72.335 24.17 -74.349 24.229 -76.362 24.286 C-77.503 24.328 -78.643 24.369 -79.818 24.412 C-83.738 23.904 -85.897 22.379 -89 20 C-88.691 17.144 -88.506 15.483 -86.39 13.461 C-75.609 6.871 -60.014 6.954 -47.75 5.938 C-35.534 4.908 -23.999 3.711 -12.312 -0.25 C-8.058 -1.213 -4.239 -1.019 0 0 Z " fill="#000000" transform="translate(4113,2096)"/>
</svg>
