<?xml version="1.0" encoding="UTF-8"?>
<!-- Generator: visioncortex VTracer 0.6.12 -->
<svg viewBox="2011.95 501.44 475.92 3497.13" version="1.1" xmlns="http://www.w3.org/2000/svg" width="4500" height="4500">
<path d="M0 0 C1.961 11.521 0.303 22.569 -1.216 34.037 C-3.966 54.965 -4.152 75.785 -4.134 96.861 C-4.132 100.109 -4.134 103.357 -4.136 106.605 C-4.141 116.541 -4.136 126.477 -4.129 136.414 C-4.125 142.237 -4.122 148.061 -4.12 153.884 C-4.071 274.898 -3.81 395.919 -1.203 670.735 C-1.042 684.368 -0.885 698.001 -0.729 711.634 C-0.724 712.123 -0.724 712.123 -0.696 714.597 C-0.64 719.523 -0.584 724.45 -0.528 729.377 C-0.418 739.07 -0.307 748.764 -0.197 758.457 C-0.186 759.403 -0.175 760.349 -0.164 761.323 C-0.015 774.338 0.134 787.354 0.285 800.369 C1.574 911.945 1.574 911.945 1.964 963.275 C1.992 966.978 2.022 970.682 2.054 974.385 C2.45 1021.218 1.173 1068.038 -0.578 1114.836 C-1.815 1148.582 -2.215 1182.291 -2.246 1216.06 C-2.25 1219.511 -2.257 1222.961 -2.266 1226.412 C-2.357 1270.141 0.368 1312.335 7.524 1355.504 C13.031 1388.726 16.452 1420.162 13.785 1453.889 C13.08 1463.067 12.673 1472.237 12.438 1481.438 C12.418 1482.179 12.399 1482.92 12.38 1483.684 C12.108 1494.594 11.943 1505.506 11.789 1516.418 C10.374 1616.343 10.374 1616.343 1.832 1664.828 C1.022 1669.496 0.588 1674.151 0.253 1678.874 C0 1681 0 1681 -1 1682 C-7.552 1682.888 -7.552 1682.888 -10.688 1680.965 C-23.721 1667.693 -24.687 1638.997 -24.61 1621.72 C-24.407 1614.845 -23.593 1608.681 -21.836 1602.043 C-15.827 1578.427 -17.243 1553.902 -17.45 1529.73 C-17.492 1524.685 -17.52 1519.64 -17.54 1514.595 C-17.543 1513.855 -17.545 1513.115 -17.548 1512.353 C-17.554 1510.841 -17.56 1509.329 -17.566 1507.817 C-17.637 1490.04 -17.779 1472.263 -17.935 1454.487 C-17.985 1448.733 -18.033 1442.978 -18.079 1437.224 C-18.833 1343.476 -20.207 1249.734 -25.051 928.838 C-25.577 894.788 -26.102 860.738 -26.625 826.688 C-26.639 825.805 -26.652 824.922 -26.666 824.012 C-29.444 643.176 -29.444 643.176 -30.941 506.011 C-30.986 501.389 -31.032 496.767 -31.078 492.144 C-31.753 424.438 -32.141 356.73 -32.511 289.021 C-32.545 282.871 -32.579 276.721 -32.613 270.571 C-32.739 248.291 -32.851 226.012 -32.932 203.732 C-32.969 193.577 -33.012 183.423 -33.067 173.269 C-33.118 163.662 -33.158 154.055 -33.185 144.449 C-33.199 139.389 -33.219 134.329 -33.251 129.27 C-33.382 108.612 -33.306 88.45 -30 68 C-29.708 66.079 -29.418 64.158 -29.13 62.236 C-28.351 57.085 -27.5 51.948 -26.625 46.812 C-26.473 45.915 -26.321 45.018 -26.164 44.094 C-25.136 38.058 -24.078 32.027 -23 26 C-22.878 25.313 -22.756 24.627 -22.631 23.919 C-21.95 20.102 -21.218 16.298 -20.438 12.5 C-20.277 11.63 -20.116 10.759 -19.95 9.863 C-19.434 7.531 -19.434 7.531 -18 4 C-15.211 2.539 -15.211 2.539 -12 2 C-11.024 1.791 -10.048 1.582 -9.043 1.367 C-8.101 1.205 -7.158 1.042 -6.188 0.875 C-5.232 0.707 -4.277 0.54 -3.293 0.367 C-1 0 -1 0 0 0 Z " fill="#000000" transform="translate(2100,2296)"/>
<path d="M0 0 C0.369 -0.013 0.369 -0.013 2.238 -0.078 C5.448 0.352 7.832 1.766 10.688 3.25 C10.822 10.29 10.956 17.331 11.09 24.371 C11.111 25.46 11.131 26.549 11.153 27.671 C11.405 40.976 11.655 54.281 11.9 67.585 C11.922 68.813 11.945 70.042 11.968 71.307 C12.059 76.25 12.149 81.192 12.24 86.135 C12.668 109.551 12.668 109.551 12.896 120.408 C12.904 120.787 12.904 120.787 12.944 122.703 C13.013 125.97 13.083 129.237 13.157 132.504 C13.242 136.481 13.312 140.459 13.375 144.438 C13.392 145.472 13.408 146.506 13.426 147.572 C13.702 165.598 13.632 183.599 13.332 201.625 C12.316 262.904 12.488 324.197 12.499 385.483 C12.5 391.026 12.5 396.569 12.5 402.112 C12.503 483.176 12.509 564.237 14.45 681.531 C14.627 690.943 14.796 700.356 14.957 709.768 C16.258 785.437 18.044 861.092 20.027 936.746 C20.133 940.78 20.238 944.814 20.343 948.848 C24.149 1095.334 24.149 1095.334 27.792 1158.946 C27.999 1162.591 28.199 1166.237 28.4 1169.882 C29.693 1193.412 31.075 1216.937 32.461 1240.461 C32.537 1241.751 32.613 1243.041 32.691 1244.37 C32.923 1248.294 33.154 1252.219 33.385 1256.143 C33.617 1260.079 33.849 1264.015 34.081 1267.951 C34.235 1270.563 34.389 1273.175 34.543 1275.786 C36.38 1306.913 38.196 1338.037 39.562 1369.188 C39.618 1370.445 39.674 1371.702 39.731 1372.998 C40.033 1379.932 40.31 1386.867 40.561 1393.804 C40.646 1396.12 40.735 1398.437 40.827 1400.753 C41.846 1426.624 41.908 1452.499 41.928 1478.388 C41.933 1484.584 41.958 1490.78 41.986 1496.976 C42.004 1501.799 42.01 1506.622 42.011 1511.445 C42.014 1513.732 42.022 1516.019 42.035 1518.306 C42.052 1521.483 42.05 1524.66 42.044 1527.838 C42.049 1528.301 42.049 1528.301 42.072 1530.643 C42.027 1537.623 40.973 1544.019 36.875 1549.812 C33.902 1551.766 32.186 1551.75 28.688 1551.25 C24.537 1549.833 23.044 1547.477 21.062 1543.75 C13.87 1528.103 13.357 1510.983 13.482 1494.052 C13.5 1491.516 13.502 1488.981 13.502 1486.445 C13.52 1478.144 13.715 1469.878 14.18 1461.59 C17.851 1394.954 11.724 1327.735 7.648 1261.264 C7.61 1260.645 7.61 1260.645 7.418 1257.514 C7.264 1254.999 7.11 1252.483 6.955 1249.967 C4.089 1203.191 1.657 1156.421 -0.181 1109.593 C-0.319 1106.075 -0.458 1102.557 -0.597 1099.039 C-3.435 1027.01 -5.991 954.97 -9.742 824.105 C-9.772 822.962 -9.803 821.819 -9.834 820.641 C-10.488 795.538 -11.073 770.434 -11.607 745.329 C-11.621 744.649 -11.636 743.968 -11.651 743.267 C-12.309 712.28 -12.897 681.291 -13.383 650.301 C-13.394 649.618 -13.404 648.935 -13.415 648.231 C-14.452 582.154 -14.624 516.084 -14.571 450 C-14.562 438.458 -14.564 426.917 -14.573 415.375 C-14.635 334.314 -14.177 253.293 -11.826 153.007 C-11.405 136.57 -11.158 120.146 -11.113 103.703 C-11.101 99.653 -11.082 95.603 -11.06 91.554 C-11.053 90.142 -11.045 88.73 -11.038 87.318 C-11.036 86.966 -11.036 86.966 -11.027 85.186 C-10.978 75.835 -10.938 66.484 -10.911 57.133 C-10.893 50.707 -10.864 44.282 -10.823 37.857 C-10.802 34.489 -10.787 31.122 -10.784 27.754 C-10.779 24.043 -10.756 20.331 -10.729 16.62 C-10.732 15.52 -10.735 14.421 -10.738 13.288 C-10.727 12.282 -10.716 11.275 -10.704 10.239 C-10.701 9.366 -10.698 8.494 -10.694 7.595 C-10.226 4.716 -9.31 3.353 -7.312 1.25 C-4.6 0.346 -2.809 0.058 0 0 Z " fill="#000000" transform="translate(2225.3125,2293.75)"/>
<path d="M0 0 C0.38 -0.02 0.38 -0.02 2.301 -0.121 C6.058 0.758 7.338 2.388 9.688 5.438 C10.537 8.981 10.611 12.501 10.714 16.133 C10.739 16.673 10.739 16.673 10.864 19.403 C11.022 22.979 11.146 26.555 11.27 30.133 C11.373 32.639 11.478 35.146 11.584 37.652 C11.804 42.923 12.009 48.193 12.201 53.465 C12.444 60.143 12.712 66.82 12.991 73.497 C13.259 79.938 13.515 86.379 13.77 92.82 C13.817 94.014 13.865 95.208 13.914 96.438 C14.42 109.3 14.776 122.153 14.816 135.026 C14.819 135.574 14.819 135.574 14.834 138.346 C14.824 147.31 13.886 155.957 12.409 164.787 C11.668 169.251 11.009 173.728 10.34 178.203 C10.2 179.13 10.06 180.056 9.916 181.01 C3.146 226.298 0.355 272.282 -1.5 318 C-1.537 318.894 -1.574 319.788 -1.612 320.709 C-3.179 359.717 -3.465 398.772 -3.583 437.806 C-3.602 443.634 -3.626 449.462 -3.65 455.29 C-3.714 471.249 -3.77 487.207 -3.826 503.166 C-3.877 517.86 -3.93 532.553 -3.99 547.246 C-4.013 552.993 -4.035 558.741 -4.052 564.488 C-4.197 612.434 -4.687 659.9 -10.812 707.5 C-15.942 747.572 -15.942 747.572 -16.312 766.438 C-16.331 767.375 -16.349 768.312 -16.369 769.277 C-17.187 814.299 -15.196 859.156 -13.094 904.113 C-11.515 937.911 -10.027 971.674 -10.002 1005.515 C-10 1007.531 -9.995 1009.547 -9.989 1011.563 C-9.932 1049.924 -9.932 1049.924 -16.312 1059.438 C-20.117 1061.974 -21.798 1062.039 -26.312 1061.438 C-30.23 1059.543 -32.581 1057.004 -34.418 1053.07 C-36.311 1046.796 -36.574 1040.505 -36.625 1034 C-36.631 1033.27 -36.636 1032.539 -36.642 1031.787 C-36.59 1027.578 -36.331 1023.42 -35.851 1019.239 C-34.309 1005.609 -34.058 992.127 -34.132 978.42 C-34.153 974.352 -34.162 970.284 -34.168 966.215 C-34.182 958.139 -34.211 950.062 -34.242 941.986 C-34.561 856.623 -33.684 771.268 -31.549 591.721 C-31.378 577.87 -31.209 564.019 -31.042 550.168 C-30.843 533.725 -30.644 517.282 -30.442 500.839 C-30.42 499.076 -30.399 497.313 -30.377 495.55 C-30.367 494.684 -30.356 493.818 -30.345 492.926 C-30.272 486.986 -30.2 481.046 -30.128 475.105 C-29.757 444.364 -29.378 413.623 -28.786 382.884 C-28.765 381.829 -28.745 380.774 -28.724 379.687 C-28.407 363.302 -27.949 346.933 -27.188 330.562 C-27.129 329.255 -27.07 327.948 -27.009 326.601 C-25.37 290.444 -22.898 254.331 -20.553 218.215 C-20.477 217.045 -20.402 215.876 -20.323 214.671 C-20.17 212.313 -20.017 209.955 -19.864 207.598 C-18.363 184.453 -16.952 161.303 -15.596 138.149 C-15.44 135.477 -15.282 132.805 -15.125 130.134 C-14.502 119.569 -13.896 109.004 -13.312 98.438 C-13.251 97.34 -13.189 96.242 -13.125 95.11 C-12.298 80.166 -12.238 65.28 -12.408 50.316 C-12.516 40.114 -12.476 30.017 -11.434 19.859 C-11.394 19.474 -11.394 19.474 -11.197 17.521 C-10.356 10.275 -8.775 0.251 0 0 Z " fill="#000000" transform="translate(2209.3125,521.5625)"/>
<path d="M0 0 C1.477 2.954 1.021 5.747 0.938 9.004 C0.988 11.442 1.185 13.714 1.484 16.126 C2.01 20.748 2.216 25.329 2.316 29.977 C2.337 30.823 2.358 31.669 2.379 32.54 C2.422 34.334 2.463 36.127 2.503 37.92 C2.561 40.542 2.626 43.164 2.693 45.785 C3.487 78.699 2.908 111.646 2.644 144.564 C2.639 145.244 2.633 145.925 2.628 146.625 C2.622 147.307 2.617 147.988 2.611 148.69 C2.573 153.469 2.537 158.248 2.503 163.028 C1.808 258.657 1.808 258.657 -0.312 293.75 C-0.442 296.014 -0.571 298.278 -0.699 300.542 C-1.552 315.38 -2.538 330.209 -3.539 345.037 C-8.218 414.393 -9.104 483.642 -9.027 553.133 C-9.026 554.394 -9.025 555.655 -9.023 556.955 C-8.999 580.687 -8.963 604.42 -8.912 628.152 C-8.877 645.146 -8.85 662.139 -8.84 679.133 C-8.839 680.392 -8.838 681.651 -8.837 682.949 C-8.819 717.999 -9.234 752.955 -10.669 787.976 C-11.27 803.079 -11.306 818.187 -11.261 833.3 C-11.249 837.253 -11.256 841.206 -11.268 845.16 C-11.311 863.295 -10.809 881.265 -9.429 899.35 C-9.124 903.758 -8.861 908.16 -8.743 912.578 C-8.716 913.512 -8.688 914.445 -8.66 915.407 C-9.187 919.429 -11.201 921.797 -14.062 924.555 C-16.845 926.63 -18.517 927.379 -22 927 C-27.231 923.762 -28.52 918.771 -30.094 913.027 C-39.724 872.049 -36.814 826.91 -38 785 C-38.029 783.985 -38.058 782.971 -38.088 781.926 C-38.476 768.285 -38.767 754.644 -39 741 C-39.011 740.361 -39.011 740.361 -39.066 737.13 C-40.327 662.953 -40.419 588.787 -39.128 514.61 C-39.031 508.99 -38.951 503.37 -38.885 497.75 C-38.591 473.763 -36.461 450.252 -33.422 426.466 C-31.23 409.287 -29.733 392.566 -30.039 375.237 C-30.28 360.472 -29.062 345.98 -27.51 331.304 C-25.274 310.132 -24.799 289.084 -24.812 267.798 C-24.813 265.713 -24.812 263.628 -24.81 261.543 C-24.805 238.702 -25.301 215.892 -26 193.062 C-27.57 141.49 -27.854 90.228 -23.062 38.812 C-22.983 37.941 -22.904 37.069 -22.822 36.171 C-20.184 7.654 -20.184 7.654 -11.812 0 C-7.822 -1.419 -4.075 -1.12 0 0 Z " fill="#000000" transform="translate(2072,763)"/>
<path d="M0 0 C3.276 0.618 5.161 1.525 8.02 3.164 C8.825 3.622 9.63 4.081 10.46 4.553 C11.071 4.907 11.683 5.261 12.312 5.625 C12.275 6.508 12.237 7.391 12.199 8.301 C8.61 93.882 8.834 179.44 10.221 329.805 C10.302 334.921 10.38 340.037 10.458 345.153 C12.152 456.624 14.783 568.078 19.666 703.993 C19.858 709.04 20.033 714.088 20.198 719.137 C20.278 721.563 20.36 723.989 20.444 726.415 C21.599 760.142 21.5 793.885 21.498 827.626 C21.498 834.125 21.51 840.623 21.524 847.121 C21.537 853.477 21.542 859.833 21.541 866.189 C21.541 869.948 21.544 873.707 21.555 877.466 C21.566 881.629 21.561 885.791 21.555 889.954 C21.561 891.167 21.567 892.379 21.572 893.628 C21.496 914.505 21.496 914.505 15.312 921.625 C12.312 923.625 12.312 923.625 8.875 923.562 C4.544 922.423 3.747 921.298 1.312 917.625 C-1.621 908.742 -2.348 899.167 -3.141 889.886 C-3.311 887.889 -3.495 885.894 -3.68 883.898 C-5.107 868.203 -5.822 852.471 -6.234 836.719 C-6.255 835.938 -6.276 835.158 -6.298 834.354 C-6.634 821.642 -6.777 808.934 -6.828 796.219 C-7.051 743.443 -8.255 690.744 -10 638 C-10.027 637.169 -10.055 636.338 -10.083 635.481 C-10.585 620.327 -11.091 605.173 -11.604 590.019 C-12.722 556.961 -13.75 523.9 -14.746 490.837 C-14.892 485.993 -15.04 481.149 -15.188 476.304 C-16.436 435.521 -17.586 394.737 -18.188 353.938 C-18.207 352.631 -18.227 351.324 -18.247 349.978 C-20.887 171.535 -20.887 171.535 -19.312 113.312 C-19.282 112.145 -19.251 110.978 -19.219 109.776 C-18.499 89.029 -16.372 68.402 -13.711 47.824 C-13.244 44.204 -12.792 40.583 -12.342 36.961 C-12.043 34.612 -11.742 32.263 -11.441 29.914 C-11.31 28.855 -11.179 27.795 -11.043 26.703 C-7.774 1.808 -7.774 1.808 0 0 Z " fill="#000000" transform="translate(2328.6875,576.375)"/>
<path d="M0 0 C3.84 1.463 4.998 4.427 6.625 8 C7.543 10.777 8.167 13.574 8.75 16.438 C8.906 17.13 9.062 17.823 9.223 18.537 C12.018 31.601 12.951 44.925 13.555 58.238 C13.63 59.803 13.706 61.369 13.782 62.934 C13.986 67.171 14.183 71.409 14.377 75.646 C14.501 78.342 14.628 81.038 14.756 83.733 C16.104 112.147 17.264 140.566 18.377 168.99 C18.46 171.097 18.542 173.205 18.625 175.312 C18.645 175.835 18.645 175.835 18.749 178.482 C20.432 221.358 22.55 264.195 25.508 307.004 C25.577 308.005 25.646 309.007 25.717 310.038 C26.025 314.457 26.339 318.874 26.674 323.291 C28.45 347.199 28.766 371.177 28.855 395.141 C28.871 399.461 28.895 403.781 28.92 408.101 C28.985 419.604 29.043 431.107 29.092 442.611 C29.266 483.445 29.869 524.196 31.625 565 C31.665 565.95 31.706 566.9 31.748 567.879 C32.255 579.751 32.838 591.617 33.482 603.481 C33.63 606.214 33.776 608.946 33.922 611.679 C36.121 652.605 38.963 693.49 41.812 734.375 C41.868 735.176 41.924 735.977 41.981 736.802 C42.737 747.656 43.498 758.509 44.265 769.361 C44.415 771.485 44.565 773.608 44.714 775.731 C45.249 783.341 45.797 790.95 46.367 798.557 C46.538 800.836 46.706 803.116 46.871 805.396 C47.102 808.549 47.346 811.702 47.595 814.854 C47.659 815.76 47.724 816.667 47.79 817.601 C48.319 824.017 49.84 829.698 52.002 835.741 C54.277 842.304 53.781 847.532 51.625 854 C43.474 853.438 39.236 850.866 33.562 844.938 C23.575 833.204 20.26 816.534 18.073 801.615 C17.945 800.752 17.818 799.889 17.687 799 C16.394 789.896 15.687 780.778 15.09 771.605 C14.966 769.784 14.842 767.962 14.717 766.141 C13.309 745.211 12.226 724.263 11.188 703.312 C11.081 701.172 10.974 699.032 10.867 696.891 C7.802 635.331 5.362 573.752 3.594 512.141 C3.572 511.389 3.551 510.637 3.528 509.862 C3.078 494.186 2.636 478.51 2.219 462.833 C0.722 406.562 -1.81 350.389 -5.199 294.199 C-9.922 215.85 -9.922 215.85 -11.312 184 C-11.342 183.318 -11.372 182.637 -11.403 181.935 C-12.808 149.222 -12.606 116.47 -12.441 83.734 C-12.436 82.711 -12.432 81.688 -12.427 80.634 C-12.405 75.813 -12.377 70.993 -12.338 66.172 C-12.288 58.488 -12.249 50.893 -13.129 43.246 C-14.492 30.789 -14.974 18.036 -8.375 7 C-7.995 6.336 -7.614 5.672 -7.223 4.988 C-5.196 1.708 -3.996 0 0 0 Z " fill="#000000" transform="translate(2414.375,2848)"/>
<path d="M0 0 C3.746 1.16 6.918 2.552 10 5 C11.025 8.245 11.178 9.742 11 13 C11.027 14.824 11.055 16.648 11.083 18.472 C11.088 23.836 10.618 29.013 9.968 34.332 C7.113 58.189 7.433 82.192 7.33 106.183 C7.301 112.421 7.258 118.659 7.218 124.897 C7.157 134.628 7.106 144.359 7.063 154.09 C7.02 163.883 6.949 173.676 6.858 183.469 C6.492 223.903 9.532 263.423 13.842 303.611 C14.603 310.737 15.32 317.866 16 325 C16.105 326.086 16.209 327.172 16.317 328.29 C18.496 351.85 18.354 375.45 18.317 399.089 C18.312 402.542 18.312 405.995 18.312 409.448 C18.303 447.413 17.448 485.318 16.181 523.259 C16.01 528.385 15.84 533.511 15.672 538.637 C15.64 539.617 15.607 540.597 15.574 541.607 C15.005 559.073 14.714 576.524 14.75 594 C14.751 595.091 14.752 596.181 14.753 597.305 C14.773 606.932 14.91 616.477 15.769 626.071 C16.185 631.335 16.224 636.597 16.25 641.875 C16.271 642.95 16.291 644.025 16.312 645.133 C16.343 651.227 15.917 655.612 13 661 C4.027 661.616 4.027 661.616 0.5 659.5 C-3.679 652.535 -3.266 644.609 -3.375 636.75 C-3.648 625.633 -4.561 614.725 -5.875 603.688 C-10.756 562.256 -12.724 520.609 -13.527 478.914 C-13.538 478.384 -13.538 478.384 -13.591 475.703 C-14.026 453.467 -14.212 431.232 -14.364 408.993 C-14.675 363.969 -15.294 318.994 -17 274 C-17.036 273.053 -17.072 272.106 -17.109 271.13 C-17.912 249.97 -18.734 228.81 -19.591 207.653 C-20.968 173.646 -22.256 139.664 -22.312 105.625 C-22.314 104.897 -22.316 104.169 -22.317 103.42 C-22.364 78.119 -21.408 53.099 -18 28 C-17.946 27.585 -17.946 27.585 -17.674 25.483 C-17.338 22.914 -16.979 20.35 -16.613 17.785 C-16.563 17.397 -16.563 17.397 -16.307 15.432 C-15.511 10.145 -14.013 6.441 -11 2 C-7.217 -0.522 -4.369 -0.694 0 0 Z " fill="#000000" transform="translate(2405,2154)"/>
<path d="M0 0 C0.718 0.064 1.436 0.129 2.176 0.195 C5.752 1.163 8.523 2.955 11.688 4.875 C11.677 5.255 11.677 5.255 11.624 7.176 C11.539 10.721 11.488 14.266 11.438 17.812 C11.404 19.006 11.37 20.199 11.336 21.428 C11.159 38.032 16.526 53.104 21.875 68.625 C22.696 71.026 23.516 73.428 24.331 75.832 C24.833 77.308 25.338 78.782 25.847 80.256 C27.906 86.285 28.803 91.333 28.828 97.699 C28.843 99.11 28.859 100.521 28.877 101.932 C28.886 102.684 28.895 103.435 28.905 104.209 C29.168 123.054 30.837 141.659 32.872 160.387 C33.879 169.662 34.867 178.928 35.469 188.238 C35.524 188.989 35.579 189.739 35.635 190.512 C35.736 192.297 35.722 194.088 35.688 195.875 C33.688 197.875 33.688 197.875 31.688 198.125 C29.688 198.875 29.688 198.875 28.5 201.438 C22.92 225.047 29.488 250.786 33.618 274.199 C37.092 294.074 37.056 313.557 35.812 333.625 C35.722 335.146 35.633 336.668 35.543 338.189 C35.037 346.702 34.456 355.206 33.831 363.71 C32.789 377.946 31.948 392.061 33.188 406.312 C34.544 421.953 36.029 440.346 26.688 453.875 C23.962 453.528 22.919 453.151 21.125 451.012 C4.458 422.614 9.432 384.384 10.26 352.65 C10.401 347.202 10.53 341.755 10.638 336.306 C10.681 334.171 10.734 332.036 10.789 329.902 C11.228 299.276 7.196 268.733 3.688 238.375 C-1.462 193.819 -1.462 193.819 -2.688 174.406 C-2.772 173.125 -2.857 171.843 -2.944 170.522 C-3.546 159.737 -3.897 148.886 0.188 138.75 C2.76 129.429 -0.345 122.888 -3.95 114.223 C-6.544 107.85 -8.906 101.388 -11.301 94.938 C-12.175 92.595 -13.064 90.258 -13.955 87.921 C-14.509 86.451 -15.063 84.982 -15.617 83.512 C-15.746 83.179 -15.746 83.179 -16.396 81.494 C-19.096 74.27 -19.469 67.851 -18.859 60.293 C-18.798 59.48 -18.738 58.667 -18.675 57.829 C-18.544 56.11 -18.409 54.391 -18.271 52.673 C-18.066 50.109 -17.878 47.544 -17.691 44.979 C-17.055 36.597 -16.2 28.289 -14.855 19.988 C-14.74 19.258 -14.624 18.528 -14.505 17.775 C-13.52 12.059 -11.95 6.491 -8.312 1.875 C-5.434 -0.04 -3.407 -0.375 0 0 Z " fill="#000000" transform="translate(2200.3125,1636.125)"/>
<path d="M0 0 C2.563 -0.081 5.124 -0.141 7.688 -0.188 C8.409 -0.213 9.13 -0.238 9.873 -0.264 C14.497 -0.327 17.363 0.103 21 3 C32.126 14.557 31.881 32.758 33.562 47.875 C33.781 49.803 33.999 51.73 34.218 53.658 C40.778 112.042 40.778 112.042 35 125 C33.102 127.316 33.102 127.316 31 129 C25.56 129 22.155 127.432 18 124 C10.909 116.447 9.599 106.39 8.875 96.438 C8.793 95.444 8.711 94.451 8.626 93.428 C8.226 88.295 7.954 83.183 7.867 78.035 C7.602 63.281 5.409 49.501 2.438 35.109 C0.023 23.4 -1.908 11.94 0 0 Z " fill="#000000" transform="translate(2340,1739)"/>
<path d="M0 0 C9.649 8.271 10.38 24.119 12 36 C12.049 36.354 12.049 36.354 12.299 38.145 C13.078 44.309 13.151 50.417 13.125 56.625 C13.125 57.688 13.125 58.75 13.126 59.845 C13.104 65.531 12.878 71.095 12.312 76.75 C11.746 83.582 12.745 89.795 13.867 96.506 C15.726 107.917 17.037 119.577 11 130 C8.75 133.125 8.75 133.125 7 135 C1.125 134.193 -2.069 131.277 -6 127 C-11.823 118.274 -12.448 108.693 -13.062 98.5 C-13.145 97.199 -13.227 95.898 -13.312 94.558 C-13.551 90.706 -13.776 86.853 -14 83 C-14.061 82.03 -14.121 81.06 -14.184 80.061 C-14.598 73.376 -14.831 66.695 -15 60 C-15.021 59.255 -15.043 58.51 -15.065 57.743 C-15.217 52.447 -15.326 47.152 -15.395 41.855 C-15.423 40.066 -15.461 38.277 -15.51 36.489 C-15.839 24.053 -14.592 13.277 -9 2 C-5.474 -0.35 -4.15 -0.664 0 0 Z " fill="#000000" transform="translate(2345,1541)"/>
<path d="M0 0 C7.334 9.168 7.552 22.217 7.5 33.438 C7.5 34.125 7.5 34.812 7.5 35.52 C7.449 53.563 5.081 71.39 2.878 89.27 C2.239 94.586 1.76 99.868 1.469 105.215 C1.405 106.378 1.341 107.542 1.275 108.74 C1.179 110.783 1.109 112.828 1.073 114.873 C0.777 121.024 0.777 121.024 -1.518 123.906 C-5.047 127.053 -8.079 129.219 -13 129 C-16.785 126.372 -17.905 123.378 -19 119 C-19.866 113.279 -20.1 107.809 -19.992 102.031 C-19.975 100.307 -19.958 98.583 -19.941 96.859 C-19.911 94.192 -19.875 91.525 -19.829 88.857 C-19.656 78.429 -20.005 68.761 -22.354 58.573 C-25.359 41.951 -21.22 15.94 -11.938 1.875 C-8.208 -1.734 -4.774 -1.34 0 0 Z " fill="#000000" transform="translate(2235,2129)"/>
<path d="M0 0 C4.587 2.117 7.071 4.739 9.133 9.375 C12.699 20.167 13.381 31.42 13.738 42.682 C14.252 57.811 16.367 71.677 20.306 86.334 C22.124 93.32 23.361 100.086 23.375 107.312 C23.399 107.989 23.424 108.665 23.449 109.361 C23.47 112.881 23.068 114.888 21.227 117.914 C18.977 120.021 18.007 120.739 15 121.062 C14.34 121.157 13.68 121.251 13 121.348 C9.966 120.82 8.932 119.352 7 117 C-9.572 89.38 -19.5 42.189 -16 10 C-14.874 6.424 -13.672 3.595 -10.812 1.062 C-7.123 -0.331 -3.857 -0.659 0 0 Z " fill="#000000" transform="translate(2387,2005)"/>
<path d="M0 0 C6.691 7.063 7.462 18.668 8.562 27.938 C8.685 28.924 8.807 29.91 8.933 30.927 C9.301 33.95 9.654 36.974 10 40 C10.054 40.469 10.054 40.469 10.325 42.843 C10.623 45.498 10.909 48.155 11.188 50.812 C11.271 51.593 11.355 52.373 11.442 53.177 C13.123 70.11 13.123 70.11 9 76 C6.516 78.024 4.058 78.215 0.938 78.438 C-0.362 78.293 -1.661 78.149 -3 78 C-5.898 74.156 -7.542 69.594 -9.363 65.164 C-9.678 64.408 -9.992 63.651 -10.316 62.872 C-11.319 60.458 -12.316 58.041 -13.312 55.625 C-13.97 54.04 -14.629 52.456 -15.287 50.871 C-16.895 46.999 -18.486 43.121 -20.075 39.241 C-20.987 37.032 -21.918 34.831 -22.853 32.632 C-23.417 31.283 -23.98 29.935 -24.543 28.586 C-25.042 27.408 -25.541 26.23 -26.055 25.017 C-26.998 22.005 -27.228 20.842 -26 18 C-23.866 14.845 -21.403 11.953 -19 9 C-18.562 8.413 -18.123 7.827 -17.672 7.223 C-13.084 1.212 -7.699 -2.615 0 0 Z " fill="#000000" transform="translate(2076,1924)"/>
<path d="M0 0 C2.438 0 2.438 0 5 1 C9.366 6.42 8.264 13.422 8 20 C2.344 20.273 2.344 20.273 -0.75 17.812 C-4.394 13.258 -4.394 13.258 -5 10 C-4.06 6.075 -2.871 2.871 0 0 Z " fill="#000000" transform="translate(2372,1923)"/>
</svg>
