<?xml version="1.0" encoding="UTF-8"?>
<!-- Generator: visioncortex VTracer 0.6.12 -->
<svg version="1.1" xmlns="http://www.w3.org/2000/svg" width="4500" height="4500">
<path d="M0 0 C0.791 0.008 1.582 0.017 2.397 0.025 C15.131 0.389 25.723 5.564 35.188 14 C35.889 14.804 36.59 15.609 37.312 16.438 C38.199 17.407 39.086 18.376 40 19.375 C43.651 24.21 44.391 28.25 44.486 34.244 C44.83 44.43 48.231 52.438 52.812 61.438 C62.781 81.076 69.727 101.381 76.25 122.375 C80.74 136.815 85.688 150.912 91.45 164.902 C93.779 170.561 96.07 176.235 98.367 181.906 C108.868 207.811 119.449 233.683 130.312 259.438 C130.803 260.6 131.293 261.763 131.798 262.96 C145.651 295.729 159.969 328.338 175.312 360.438 C175.635 361.113 175.958 361.789 176.29 362.485 C188.631 388.32 201.13 414.123 215.438 438.938 C221.411 449.359 225.758 459.66 229.488 471.074 C229.882 472.273 230.275 473.473 230.681 474.708 C231.46 477.1 232.227 479.497 232.979 481.897 C237.939 497.32 237.939 497.32 243.621 500.887 C247.884 501.759 252.181 502.112 256.518 502.385 C259.973 502.712 261.969 503.132 264.59 505.461 C266.789 509.26 268.322 513.13 269.812 517.25 C273.118 526.253 276.427 533.988 282.875 541.188 C283.397 541.783 283.92 542.379 284.458 542.992 C286.065 544.817 287.686 546.629 289.312 548.438 C289.813 548.996 290.314 549.555 290.83 550.13 C295.624 555.462 300.493 560.693 305.618 565.711 C307.226 567.349 308.695 569.041 310.172 570.797 C315.712 577.167 321.813 583.006 327.812 588.938 C341.745 602.713 341.745 602.713 346.902 608.782 C349.037 611.288 351.309 613.664 353.562 616.062 C365.973 629.48 377.3 644.537 386.312 660.438 C389.921 656.829 390.231 651.508 390.424 646.578 C390.424 644.456 390.416 642.335 390.403 640.213 C390.377 621.395 394.542 604.149 399.291 586.041 C400.171 582.666 401.03 579.286 401.888 575.905 C404.448 565.825 407.071 555.763 409.717 545.706 C410.458 542.884 411.195 540.061 411.931 537.238 C433.776 453.53 461.296 371.674 504.613 296.408 C510.291 286.481 515.797 276.455 521.312 266.438 C521.923 265.329 522.534 264.221 523.163 263.079 C540.573 231.373 556.186 199.038 564.125 163.562 C564.332 162.648 564.539 161.733 564.753 160.791 C567.451 148.116 567.438 135.344 567.603 122.443 C568.423 58.46 568.423 58.46 582.312 41.438 C588.436 35.768 593.394 34.013 601.711 34.094 C609.548 34.842 621.55 37.152 627.049 43.096 C628.853 46.439 629.067 49.827 629.406 53.547 C629.486 54.345 629.566 55.144 629.648 55.966 C630.468 64.464 631.025 72.973 631.438 81.5 C631.479 82.344 631.52 83.188 631.562 84.057 C634.946 156.332 634.946 156.332 629.022 187.668 C628.511 190.386 628.023 193.101 627.563 195.828 C618.892 247.254 604.301 297.296 589.815 347.318 C584.488 365.723 579.239 384.14 574.281 402.648 C574.058 403.481 573.835 404.313 573.605 405.171 C569.79 419.427 566.013 433.708 562.801 448.113 C562.612 448.959 562.423 449.804 562.228 450.675 C553.135 491.726 545.519 533.05 538.5 574.5 C538.34 575.441 538.181 576.382 538.017 577.351 C534.832 596.139 531.692 614.932 528.719 633.754 C525.386 654.694 521.978 674.8 514.379 694.664 C510.918 703.778 508.712 713.694 511.375 723.25 C513.312 726.438 513.312 726.438 516.625 728.562 C520.312 729.438 520.312 729.438 523.293 728.336 C534.236 721.456 540.222 703.147 545.883 692.113 C559.242 666.078 559.242 666.078 568.312 657.438 C568.801 656.967 569.29 656.496 569.793 656.01 C576.989 649.103 584.493 642.633 592.312 636.438 C593.322 635.633 594.331 634.829 595.371 634 C609.813 622.542 624.455 611.325 639.525 600.707 C642.206 598.803 644.861 596.866 647.52 594.933 C657.12 587.957 666.841 581.165 676.594 574.406 C680.999 571.354 685.389 568.281 689.773 565.198 C701.133 557.211 712.611 549.401 724.107 541.611 C728.306 538.764 732.502 535.911 736.697 533.057 C738.782 531.638 740.868 530.22 742.954 528.802 C748.066 525.327 753.176 521.849 758.281 518.363 C770.163 510.256 782.093 502.226 794.062 494.25 C795.485 493.301 796.907 492.353 798.329 491.404 C804.412 487.35 810.501 483.305 816.625 479.312 C817.092 479.006 817.092 479.006 819.454 477.458 C821.092 476.385 822.734 475.32 824.382 474.263 C836.989 465.988 847.422 455.487 857.884 444.73 C868.995 433.34 879.886 422.556 893.246 413.803 C896.096 411.92 898.864 409.931 901.641 407.943 C905.181 405.416 908.749 402.93 912.312 400.438 C913.879 399.339 915.445 398.24 917.012 397.141 C935.282 384.327 953.592 371.571 972.028 358.997 C975.061 356.927 978.089 354.851 981.118 352.776 C993.495 344.299 1005.895 335.855 1018.312 327.438 C1019.053 326.936 1019.793 326.434 1020.555 325.917 C1043.603 310.291 1066.73 294.793 1090.005 279.507 C1091.72 278.381 1093.434 277.255 1095.148 276.129 C1095.979 275.584 1096.809 275.038 1097.665 274.476 C1104.85 269.753 1112.007 264.988 1119.154 260.208 C1127.151 254.864 1135.214 249.626 1143.312 244.438 C1144.181 243.88 1145.049 243.323 1145.943 242.749 C1151.544 239.156 1157.158 235.587 1162.787 232.039 C1165.031 230.616 1167.259 229.173 1169.484 227.723 C1182.219 219.563 1195.558 215.329 1210.812 215.25 C1212.06 215.236 1213.308 215.222 1214.594 215.207 C1218.531 215.451 1221.583 216.222 1225.312 217.438 C1226.133 220.602 1226.942 223.77 1227.75 226.938 C1227.98 227.824 1228.21 228.711 1228.447 229.625 C1234.574 253.779 1231.135 277.565 1219.812 299.625 C1216.655 304.908 1212.312 307.866 1207.062 310.875 C1204.383 312.534 1203.424 313.233 1201.875 316.062 C1201.226 319.959 1200.975 323.807 1200.852 327.754 C1200.036 331.815 1198.112 334.219 1194.678 336.544 C1192.749 337.669 1190.792 338.716 1188.812 339.75 C1187.356 340.544 1185.902 341.34 1184.449 342.141 C1184.094 342.336 1184.094 342.336 1182.294 343.326 C1170.633 349.865 1160.236 358.503 1149.669 366.631 C1146.839 368.8 1143.987 370.935 1141.125 373.062 C1133.828 378.517 1126.656 384.134 1119.479 389.745 C1117.523 391.273 1115.566 392.799 1113.609 394.324 C1105.999 400.269 1098.489 406.331 1091.004 412.434 C1088.016 414.869 1085.014 417.285 1082 419.688 C1077.668 423.143 1073.374 426.645 1069.09 430.16 C1067.272 431.651 1065.452 433.138 1063.629 434.621 C1058.082 439.137 1052.599 443.72 1047.149 448.351 C1042.851 451.997 1038.496 455.567 1034.125 459.125 C1030.432 462.162 1026.79 465.257 1023.146 468.354 C1019.753 471.233 1016.33 474.07 1012.875 476.875 C1007.454 481.289 1002.154 485.835 996.855 490.395 C993.501 493.28 990.13 496.144 986.75 499 C986.484 499.225 986.484 499.225 985.135 500.365 C982.993 502.175 980.851 503.983 978.708 505.792 C977.097 507.153 975.486 508.514 973.875 509.875 C973.343 510.325 972.81 510.775 972.262 511.238 C968.82 514.15 965.396 517.081 961.979 520.021 C957.321 524.029 952.649 528.006 947.875 531.875 C942.824 535.977 937.911 540.223 933.005 544.495 C927.35 549.416 921.638 554.265 915.905 559.095 C913.748 560.913 911.595 562.736 909.441 564.559 C907.818 565.933 906.194 567.306 904.57 568.68 C902.376 570.537 900.183 572.396 897.992 574.258 C892.084 579.274 886.136 584.232 880.125 589.125 C876.995 591.699 873.901 594.313 870.812 596.938 C865.037 601.843 859.191 606.656 853.312 611.438 C851.479 612.937 849.645 614.437 847.812 615.938 C846.899 616.685 845.985 617.433 845.043 618.203 C843.274 619.65 841.506 621.098 839.738 622.547 C837.95 624.012 836.161 625.475 834.371 626.938 C832.761 628.254 831.151 629.57 829.543 630.891 C821.368 637.606 813.105 644.17 804.672 650.559 C799.782 654.277 794.996 658.101 790.25 662 C783.847 667.251 777.301 672.264 770.652 677.199 C766.546 680.251 762.483 683.357 758.422 686.468 C750.082 692.855 741.686 699.119 733.1 705.168 C730.42 707.071 727.765 709.008 725.108 710.941 C704.89 725.627 684.223 739.562 663.284 753.191 C659.611 755.583 655.956 758 652.312 760.438 C653.065 760.319 653.818 760.201 654.594 760.079 C662.755 758.809 670.926 757.626 679.107 756.493 C681.391 756.177 683.676 755.858 685.96 755.539 C694.91 754.295 703.865 753.1 712.828 751.953 C769.469 744.68 813.509 727.226 862.563 697.497 C864.338 696.422 866.114 695.35 867.891 694.278 C879.572 687.23 891.222 680.134 902.812 672.938 C956.588 639.582 956.588 639.582 982.312 627.438 C983.003 627.106 983.693 626.774 984.405 626.432 C1021.152 608.862 1072.398 597.09 1112.215 610.25 C1124.976 615.142 1134.361 622.661 1141.312 634.438 C1129.123 656.544 1112.134 675.869 1092.312 691.438 C1091.819 691.833 1091.819 691.833 1089.324 693.836 C1060.146 716.874 1025.475 733.094 991.188 747 C989.515 747.683 987.843 748.366 986.17 749.049 C974.603 753.76 962.982 758.327 951.338 762.846 C909.074 779.252 909.074 779.252 892.312 790.438 C881.762 797.348 871.195 802.107 858.312 800.438 C851.156 798.752 845.297 795.923 840.312 790.438 C838.077 785.966 838.715 780.293 840.207 775.66 C840.918 773.949 841.66 772.249 842.438 770.566 C843.312 768.438 843.312 768.438 843.312 765.438 C840.925 766.625 838.552 767.834 836.188 769.066 C790.258 792.317 708.405 812.864 657.312 797.438 C653.445 796.089 650.341 794.723 647.715 791.441 C645.718 787.164 645.272 782.905 644.688 778.25 C644.448 776.444 644.206 774.638 643.961 772.832 C643.86 772.036 643.758 771.241 643.654 770.421 C643.312 768.437 643.312 768.437 642.312 766.438 C641.369 767.101 640.425 767.765 639.453 768.449 C628.604 775.964 618.031 782.782 604.312 782.438 C603.653 782.108 602.993 781.778 602.312 781.438 C604.823 796.384 604.823 796.384 611.441 801.346 C618.26 805.323 625.618 805.636 633.301 805.457 C660.974 804.852 687.227 807.892 714.438 812.5 C715.339 812.652 716.241 812.805 717.17 812.962 C727.597 814.729 738.017 816.54 748.434 818.366 C767.706 821.743 787.007 824.955 806.306 828.175 C809.376 828.688 812.445 829.201 815.515 829.714 C895.053 843.011 975.123 855.067 1064.25 858 C1064.997 858.021 1065.745 858.042 1066.515 858.063 C1091.774 858.754 1116.994 858.529 1142.24 857.52 C1144.257 857.44 1146.275 857.365 1148.293 857.291 C1165.829 856.592 1182.32 854.193 1199.387 850.132 C1200.353 849.903 1201.318 849.674 1202.312 849.438 C1202.748 849.334 1202.748 849.334 1204.953 848.809 C1211.009 847.47 1216.746 847.193 1222.938 847.312 C1223.846 847.322 1224.755 847.331 1225.691 847.34 C1227.899 847.363 1230.105 847.396 1232.312 847.438 C1232.106 846.767 1231.899 846.096 1231.686 845.406 C1230.746 842.354 1229.811 839.302 1228.875 836.25 C1228.712 835.722 1228.712 835.722 1227.889 833.053 C1227.576 832.031 1227.263 831.01 1226.941 829.957 C1226.653 829.02 1226.365 828.082 1226.069 827.116 C1224.062 820.008 1224.062 820.008 1225.438 816.875 C1232.229 808.045 1243.387 806.476 1253.858 805.084 C1263.037 803.987 1272.269 804.09 1281.5 804.125 C1282.478 804.126 1283.455 804.128 1284.462 804.13 C1376.793 804.381 1376.793 804.381 1403.25 830.055 C1408.921 836.607 1411.555 843.779 1411.312 852.438 C1410.418 861.6 1407.004 867.681 1399.941 873.586 C1324.892 926.444 1180.192 911.765 1083.399 911.695 C1078.716 911.687 1074.032 911.69 1069.349 911.698 C1021.681 911.782 974.071 910.797 926.5 907.625 C925.219 907.542 923.938 907.458 922.618 907.373 C870.025 903.945 818.754 897.502 767.071 887.349 C711.567 876.451 711.567 876.451 686.312 873.438 C685.362 873.322 684.412 873.206 683.434 873.087 C659.253 870.254 634.455 870.353 610.312 873.438 C608.792 873.626 607.271 873.815 605.75 874.004 C605.183 874.075 605.183 874.075 602.312 874.438 C605.531 887.924 609.065 901.437 621.383 909.43 C626.116 912.209 630.985 914.738 635.84 917.297 C653.21 926.754 667.754 941.178 680.023 956.57 C702.73 985.012 729.295 1003.167 760.318 1021.653 C796.966 1043.491 796.966 1043.491 812.312 1053.438 C812.972 1053.864 813.632 1054.291 814.311 1054.731 C833.036 1066.901 850.706 1080.474 867.647 1095.011 C869.378 1096.494 871.114 1097.97 872.852 1099.445 C879.296 1104.929 885.639 1110.495 891.875 1116.215 C893.955 1118.112 896.058 1119.971 898.188 1121.812 C903.435 1126.376 908.509 1131.129 913.607 1135.857 C916.338 1138.388 919.076 1140.913 921.812 1143.438 C922.896 1144.437 923.979 1145.437 925.062 1146.438 C925.599 1146.932 926.135 1147.427 926.688 1147.938 C931.563 1152.438 931.563 1152.438 933.188 1153.938 C934.269 1154.936 935.35 1155.933 936.431 1156.931 C939.178 1159.466 941.924 1162.003 944.668 1164.543 C953.8 1172.993 962.925 1181.37 972.605 1189.195 C975.186 1191.332 977.66 1193.545 980.125 1195.812 C985.698 1200.883 991.596 1205.485 997.559 1210.082 C999.212 1211.36 1000.857 1212.647 1002.5 1213.938 C1011.225 1220.743 1020.211 1227.146 1029.312 1233.438 C1029.944 1233.876 1030.576 1234.314 1031.227 1234.766 C1052.279 1249.318 1075.073 1260.91 1097.973 1272.242 C1156.481 1301.197 1156.481 1301.197 1163.188 1316.188 C1165.465 1323.294 1165.291 1330.077 1162.188 1336.875 C1159.064 1342.388 1155.877 1344.718 1149.75 1346.438 C1139.146 1347.269 1128.046 1340.676 1118.938 1336 C1117.716 1335.381 1116.494 1334.762 1115.272 1334.144 C1105.538 1329.187 1096.023 1323.867 1086.551 1318.426 C1081.684 1315.633 1076.77 1312.94 1071.812 1310.312 C1071.148 1309.958 1070.484 1309.604 1069.8 1309.239 C1065.715 1307.089 1061.577 1305.207 1057.312 1303.438 C1057.226 1304.309 1057.14 1305.18 1057.051 1306.078 C1055.489 1319.315 1051.667 1331.343 1041.215 1340.219 C1029.743 1348.473 1015.752 1349.188 1002.082 1347.096 C997.708 1346.213 993.516 1344.919 989.312 1343.438 C988.877 1343.287 988.877 1343.287 986.672 1342.527 C980.892 1340.257 976.733 1336.73 972.312 1332.438 C971.739 1331.903 971.165 1331.368 970.574 1330.816 C965.32 1325.78 960.856 1320.109 956.312 1314.438 C947.336 1303.232 938.393 1292.523 926.966 1283.72 C925.104 1282.276 923.265 1280.805 921.426 1279.332 C900.51 1262.69 878.4 1247.16 854.312 1235.438 C855.302 1232.798 855.302 1232.798 860.312 1219.438 C858.993 1218.778 857.672 1218.118 856.312 1217.438 C855.05 1216.581 853.807 1215.695 852.582 1214.785 C851.871 1214.262 851.16 1213.738 850.427 1213.199 C849.667 1212.638 848.908 1212.078 848.125 1211.5 C812.968 1185.88 774.146 1165.704 734.312 1148.438 C733.548 1148.106 732.784 1147.775 731.997 1147.434 C690.084 1129.3 647.324 1114.346 603.98 1100.023 C564.963 1087.123 564.963 1087.123 546.375 1080.188 C546.025 1080.057 546.025 1080.057 544.254 1079.397 C535.864 1076.257 527.556 1072.945 519.312 1069.438 C519.368 1069.893 519.368 1069.893 519.648 1072.199 C524.543 1113.155 525.578 1153.891 525.971 1195.1 C526.003 1198.293 526.034 1201.486 526.066 1204.68 C526.074 1205.473 526.082 1206.267 526.09 1207.085 C526.195 1217.311 526.41 1227.526 526.756 1237.746 C527.481 1259.347 527.551 1280.947 527.561 1302.559 C527.562 1304.874 527.564 1307.189 527.566 1309.505 C527.607 1351.167 526.877 1392.784 525.866 1434.431 C523.614 1527.191 521.512 1620.173 537.438 1752.125 C537.981 1754.248 538.52 1756.373 539.058 1758.498 C539.535 1760.375 540.023 1762.249 540.512 1764.124 C543.109 1774.875 544.816 1789.098 539.75 1799.336 C533.472 1808.514 523.601 1813.008 513.312 1816.438 C511.526 1816.606 509.732 1816.703 507.938 1816.75 C507.002 1816.787 506.066 1816.825 505.102 1816.863 C501.451 1816.306 499.931 1815.008 497.312 1812.438 C485.178 1795.278 485.901 1769.95 484.855 1749.859 C484.815 1749.105 484.775 1748.351 484.734 1747.574 C484.536 1743.845 484.349 1740.116 484.185 1736.385 C483.34 1718.539 479.886 1701.796 475.076 1684.618 C473.489 1678.938 471.945 1673.246 470.398 1667.555 C470.068 1666.342 469.738 1665.13 469.398 1663.881 C444.359 1571.621 423.732 1478.007 390.912 1176.516 C390.859 1174.458 390.804 1172.399 390.749 1170.341 C390.571 1163.705 390.419 1157.069 390.31 1150.431 C389.998 1135.821 388.498 1122.458 384.312 1108.438 C383.975 1107.295 383.638 1106.152 383.291 1104.974 C383.03 1104.096 382.769 1103.218 382.5 1102.312 C380.406 1094.241 381.079 1085.705 381.312 1077.438 C372.744 1082.376 372.744 1082.376 369.812 1086.875 C369.527 1087.307 369.527 1087.307 368.082 1089.496 C366.473 1092.17 364.97 1094.884 363.487 1097.629 C355.655 1111.976 343.651 1120.144 330.733 1129.645 C327.346 1132.153 324.006 1134.715 320.688 1137.312 C319.685 1138.094 318.682 1138.875 317.648 1139.68 C316.534 1140.596 315.422 1141.516 314.312 1142.438 C313.919 1142.752 313.919 1142.752 311.93 1144.341 C305.282 1149.914 301.417 1155.598 297.562 1163.312 C296.978 1164.44 296.394 1165.568 295.792 1166.73 C294.566 1169.1 293.347 1171.473 292.14 1173.853 C290.357 1177.363 288.528 1180.849 286.691 1184.332 C279.215 1198.541 272.115 1212.896 265.312 1227.438 C264.782 1228.57 264.251 1229.702 263.705 1230.869 C258.969 1240.983 254.252 1251.105 249.549 1261.234 C240.969 1279.716 232.277 1298.139 223.312 1316.438 C222.978 1317.122 222.643 1317.806 222.298 1318.511 C213.174 1337.137 203.863 1355.566 193.312 1373.438 C192.847 1374.235 192.381 1375.032 191.901 1375.854 C185.477 1386.825 178.38 1397.154 170.828 1407.377 C168.624 1410.374 166.466 1413.404 164.312 1416.438 C161.637 1420.206 158.938 1423.954 156.191 1427.672 C142.294 1446.545 129.854 1466.537 121.312 1488.438 C117.666 1487.835 114.021 1487.23 110.375 1486.625 C109.373 1486.459 108.371 1486.294 107.338 1486.123 C98.318 1484.624 89.315 1483.038 80.312 1481.438 C79.774 1482.606 79.235 1483.775 78.679 1484.979 C76.648 1489.382 74.614 1493.784 72.579 1498.186 C71.705 1500.078 70.831 1501.971 69.958 1503.864 C67.473 1509.253 64.974 1514.634 62.451 1520.005 C61.721 1521.565 60.995 1523.127 60.275 1524.691 C59.365 1526.666 58.438 1528.631 57.504 1530.594 C57.002 1531.667 56.5 1532.74 55.983 1533.846 C53.588 1537.562 50.911 1538.874 46.723 1540.023 C39.608 1541.246 34.395 1540.313 28.312 1536.438 C25.145 1533.752 22.272 1531.121 20.312 1527.438 C20.741 1522.716 21.809 1518.421 23.254 1513.918 C23.669 1512.602 24.084 1511.286 24.498 1509.97 C24.721 1509.268 24.944 1508.566 25.174 1507.842 C30.273 1491.726 34.835 1475.479 39.278 1459.171 C56.097 1397.468 76.685 1341.524 113.312 1288.438 C113.798 1287.734 114.283 1287.03 114.783 1286.305 C130.222 1263.954 146.424 1242.225 163.627 1221.199 C167.102 1216.948 170.506 1212.648 173.875 1208.312 C178.091 1202.898 182.484 1197.662 186.975 1192.474 C189.958 1189.027 192.882 1185.544 195.75 1182 C199.891 1176.897 204.189 1171.944 208.509 1166.993 C211.743 1163.278 214.906 1159.521 218 1155.688 C221.684 1151.135 225.563 1146.809 229.562 1142.531 C231.114 1140.837 232.563 1139.117 233.976 1137.304 C241.071 1128.249 249.206 1120.277 257.36 1112.184 C259.878 1109.684 262.388 1107.177 264.896 1104.668 C266.515 1103.054 268.134 1101.441 269.754 1099.828 C270.494 1099.089 271.234 1098.351 271.996 1097.59 C276.047 1093.574 280.183 1089.72 284.522 1086.016 C286.366 1084.391 288.09 1082.69 289.812 1080.938 C292.123 1078.586 294.49 1076.383 296.996 1074.243 C301.468 1070.353 305.678 1066.234 309.871 1062.047 C310.66 1061.262 311.448 1060.476 312.261 1059.667 C313.918 1058.015 315.575 1056.361 317.23 1054.706 C319.734 1052.203 322.247 1049.709 324.76 1047.215 C332.724 1039.279 340.53 1031.429 347.312 1022.438 C347.811 1021.793 348.31 1021.148 348.823 1020.484 C357.665 1008.901 363.928 998.235 365.312 983.438 C364.268 983.389 363.224 983.34 362.148 983.289 C360.661 983.215 359.174 983.139 357.688 983.062 C357.28 983.042 357.28 983.042 355.218 982.936 C350.959 982.7 346.724 982.4 342.484 981.926 C319.703 979.397 295.505 978.402 272.91 982.781 C269.923 983.326 267.331 983.579 264.312 983.438 C264.32 983.159 264.32 983.159 264.36 981.748 C264.805 963.462 264.485 944.255 251.121 930.023 C242.523 922.484 232.803 918.795 221.762 916.449 C221.363 916.365 221.363 916.365 219.348 915.936 C217.779 915.612 216.206 915.301 214.631 915.007 C208.613 913.8 204.411 911.594 200.062 907.125 C196.37 901.454 196.219 896.834 196.266 890.184 C196.272 888.921 196.279 887.658 196.286 886.357 C196.295 885.394 196.304 884.43 196.312 883.438 C195.715 883.707 195.117 883.976 194.5 884.253 C177.237 892.011 159.874 899.521 142.463 906.941 C140.745 907.674 139.027 908.407 137.309 909.141 C136.892 909.318 136.892 909.318 134.783 910.217 C130.574 912.017 126.381 913.846 122.208 915.729 C121.39 916.097 120.572 916.465 119.729 916.845 C118.188 917.542 116.648 918.244 115.112 918.951 C109.863 921.327 105.305 922.522 99.512 922.648 C98.616 922.677 97.721 922.705 96.799 922.734 C94.945 922.786 93.091 922.83 91.236 922.867 C84.833 923.088 78.582 923.585 73.535 927.988 C73.152 928.57 72.769 929.151 72.375 929.75 C71.901 930.446 71.426 931.142 70.938 931.859 C70.055 933.26 69.172 934.661 68.293 936.064 C67.541 937.264 66.787 938.462 66.031 939.659 C65.284 940.849 64.547 942.045 63.823 943.249 C59.167 950.758 52.982 956.05 45.625 960.812 C44.863 961.312 44.101 961.812 43.316 962.327 C17.811 978.891 -8.636 994.075 -35.426 1008.449 C-36.78 1009.176 -38.132 1009.904 -39.483 1010.636 C-53.635 1018.281 -68.237 1023.794 -83.5 1028.812 C-85.055 1029.327 -86.61 1029.841 -88.165 1030.355 C-93.335 1032.061 -98.51 1033.752 -103.688 1035.438 C-104.596 1035.733 -105.504 1036.029 -106.439 1036.334 C-152.212 1051.229 -198.206 1065.468 -244.438 1078.875 C-244.968 1079.03 -244.968 1079.03 -247.654 1079.813 C-254.315 1081.751 -260.987 1083.64 -267.688 1085.438 C-268.097 1085.547 -268.097 1085.547 -270.171 1086.104 C-290.409 1091.407 -309.581 1088.834 -330.117 1086.574 C-354.109 1083.956 -377.541 1081.893 -400.508 1090.512 C-403.609 1091.415 -404.796 1091.706 -407.688 1090.438 C-413.917 1086.196 -417.316 1080.551 -419.688 1073.438 C-420.671 1063.745 -418.688 1055.868 -412.625 1048.188 C-406.148 1041.291 -397.897 1037.58 -388.539 1037.234 C-373.975 1037.016 -359.561 1038.065 -345.061 1039.282 C-297.362 1043.282 -269.126 1037.114 -227.391 1013.374 C-177.749 985.139 -177.749 985.139 -156.906 984.223 C-156.476 984.203 -156.476 984.203 -154.299 984.105 C-152.626 984.038 -150.953 983.986 -149.279 983.953 C-137.418 983.587 -126.67 979.993 -115.812 975.438 C-114.646 974.953 -113.479 974.469 -112.276 973.97 C-93.568 966.12 -75.782 957.063 -58.231 946.901 C-55.36 945.249 -52.467 943.641 -49.567 942.04 C-32.643 932.672 -16.294 922.269 0.024 911.892 C7.109 907.389 14.209 902.911 21.312 898.438 C22.21 897.872 23.108 897.306 24.033 896.724 C49.095 880.954 74.227 865.465 100.312 851.438 C101.267 850.92 102.222 850.402 103.206 849.869 C113.498 844.325 122.655 840.143 134.312 838.438 C135.65 838.123 136.986 837.798 138.312 837.438 C138.78 831.599 137.794 829.074 134.312 824.438 C126.241 815.975 116.793 808.986 107.437 802.026 C105.405 800.506 103.392 798.964 101.383 797.414 C80.467 781.429 58.165 776.008 32.062 776.188 C31.313 776.189 30.564 776.191 29.793 776.193 C17.112 776.228 4.497 776.791 -8.147 777.726 C-23.235 778.817 -37.963 778.782 -53 777 C-53.739 776.915 -54.478 776.83 -55.239 776.742 C-227.134 756.794 -227.134 756.794 -300.688 733.438 C-301.232 733.265 -301.232 733.265 -303.987 732.392 C-320.626 727.036 -336.732 720.557 -352.688 713.438 C-353.249 713.187 -353.249 713.187 -356.088 711.92 C-383.241 699.709 -409.617 685.874 -435.943 671.988 C-443.955 667.764 -452 663.605 -460.051 659.453 C-463.268 657.79 -466.478 656.116 -469.688 654.438 C-470.7 653.915 -471.713 653.392 -472.756 652.853 C-483.748 647.059 -491.863 639.042 -496.938 627.625 C-498.926 619.173 -498.933 611.809 -496.688 603.438 C-496.561 602.68 -496.435 601.922 -496.305 601.141 C-495.752 598.738 -495.273 597.337 -493.688 595.438 C-483.08 590.605 -471.402 591.659 -460.688 595.438 C-452.722 599.201 -445.879 604.462 -438.988 609.871 C-435.692 612.45 -432.346 614.946 -428.938 617.375 C-427.953 618.085 -426.968 618.796 -425.953 619.527 C-418.469 623.905 -412.935 624.944 -404.5 623.125 C-402.819 622.821 -401.137 622.524 -399.453 622.234 C-398.638 622.093 -397.822 621.952 -396.982 621.807 C-367.044 616.991 -333.911 638.972 -308.188 651.637 C-235.625 687.211 -235.625 687.211 -197.027 687.684 C-195.162 687.717 -193.297 687.75 -191.432 687.783 C-188.538 687.83 -185.645 687.875 -182.751 687.914 C-166.855 688.142 -152.005 689.086 -136.688 693.75 C-128.198 696.231 -119.71 698.455 -111.062 700.312 C-110.121 700.515 -109.18 700.718 -108.211 700.927 C-100.813 702.483 -93.712 703.578 -86.125 703.562 C-85.495 703.564 -85.495 703.564 -82.309 703.57 C-78.645 703.512 -75.022 703.233 -71.371 702.934 C-62.352 702.257 -53.352 702.328 -44.312 702.375 C-42.594 702.38 -40.875 702.385 -39.156 702.389 C-35 702.4 -30.844 702.417 -26.688 702.438 C-28.441 700.672 -30.197 698.908 -31.953 697.145 C-32.446 696.648 -32.94 696.151 -33.448 695.639 C-36.631 692.447 -39.902 689.436 -43.328 686.512 C-46.684 683.561 -49.929 680.495 -53.188 677.438 C-58.275 672.672 -63.385 667.963 -68.688 663.438 C-69.732 662.539 -70.776 661.641 -71.82 660.742 C-76.562 656.666 -81.306 652.593 -86.094 648.57 C-92.243 643.404 -98.275 638.15 -104.191 632.715 C-106.411 630.69 -108.661 628.712 -110.938 626.75 C-114.048 624.05 -116.948 621.201 -119.831 618.261 C-121.539 616.584 -123.293 615.039 -125.121 613.496 C-130.52 608.801 -135.541 603.734 -140.588 598.668 C-142.247 597.003 -143.911 595.344 -145.576 593.686 C-150.638 588.627 -155.604 583.535 -160.254 578.09 C-162.283 575.752 -164.47 573.596 -166.688 571.438 C-170.316 567.853 -173.728 564.175 -177.043 560.301 C-179.201 557.856 -181.516 555.596 -183.843 553.314 C-185.631 551.495 -187.305 549.621 -188.969 547.688 C-192.452 543.682 -196.044 539.796 -199.688 535.938 C-201.008 534.535 -202.328 533.133 -203.648 531.73 C-204.317 531.021 -204.986 530.311 -205.675 529.58 C-207.636 527.492 -209.589 525.398 -211.539 523.301 C-218.015 516.345 -224.565 509.499 -231.325 502.819 C-234.745 499.426 -237.962 495.929 -241.086 492.266 C-245.841 486.838 -251.114 482.007 -256.594 477.328 C-258.881 475.263 -260.95 473.056 -263.062 470.812 C-271.829 461.938 -282.535 455.117 -292.938 448.312 C-308.143 438.302 -326.464 425.283 -330.688 406.438 C-331.821 396.62 -329.165 389.019 -325.375 380.062 C-324.869 378.82 -324.364 377.576 -323.861 376.332 C-317.635 361.107 -317.635 361.107 -314.125 358.625 C-303.674 355.015 -294.485 356.654 -284.602 361.293 C-275.106 365.996 -266.801 371.666 -258.688 378.438 C-257.645 379.288 -256.602 380.138 -255.559 380.988 C-243.105 391.238 -231.547 402.502 -220.125 413.875 C-219.387 414.608 -218.65 415.341 -217.89 416.096 C-213.827 420.171 -209.956 424.349 -206.199 428.707 C-204.447 430.712 -202.603 432.588 -200.688 434.438 C-198.147 436.89 -195.795 439.444 -193.488 442.113 C-181.281 456.144 -168.158 468.16 -152.688 478.438 C-151.459 479.259 -150.23 480.081 -149.002 480.903 C-143.321 484.705 -137.635 488.5 -131.938 492.277 C-123.436 497.915 -115.002 503.63 -106.673 509.521 C-100.685 513.755 -94.633 517.887 -88.562 522 C-66.678 536.862 -45.086 552.393 -25.688 570.438 C-24.953 571.118 -24.218 571.799 -23.461 572.5 C-18.402 577.35 -13.562 582.261 -12.09 589.293 C-13.023 594.202 -16.301 595.86 -20.25 598.625 C-21.01 599.18 -21.77 599.735 -22.552 600.307 C-24.132 601.459 -25.717 602.602 -27.309 603.737 C-29.607 605.38 -31.885 607.047 -34.156 608.727 C-37.655 611.313 -41.167 613.88 -44.688 616.438 C-41.035 620.247 -37.191 623.49 -33 626.688 C-27.83 630.686 -22.909 634.845 -18.098 639.273 C-15.611 641.506 -13.046 643.599 -10.438 645.688 C-6.008 649.266 -1.831 653.038 2.312 656.938 C7.245 661.576 12.28 665.986 17.57 670.219 C19.985 672.173 22.342 674.18 24.688 676.214 C56.453 703.635 100.172 734.854 144.312 733.438 C147.978 732.975 151.609 732.345 155.219 731.556 C169.293 728.672 183.577 730.868 197.59 732.957 C199.413 733.22 201.236 733.482 203.059 733.743 C207.826 734.427 212.592 735.125 217.357 735.825 C225.849 737.072 234.345 738.294 242.84 739.52 C243.292 739.585 243.292 739.585 245.582 739.916 C256.399 741.478 267.216 743.005 278.066 744.324 C279.035 744.444 280.004 744.563 281.001 744.686 C285.81 745.249 290.472 745.555 295.312 745.438 C294.753 744.719 294.194 744.001 293.617 743.262 C282.331 728.692 271.239 713.976 261.312 698.438 C260.83 697.683 260.347 696.929 259.85 696.152 C246.033 674.449 233.892 651.89 222.161 629.007 C220.871 626.505 219.562 624.015 218.24 621.53 C210.649 607.253 203.403 592.806 196.173 578.344 C194.732 575.463 193.289 572.583 191.843 569.704 C182.815 551.732 174.063 533.673 165.675 515.392 C163.778 511.277 161.839 507.183 159.887 503.094 C159.237 501.731 158.588 500.369 157.939 499.007 C157.623 498.344 157.307 497.682 156.982 497 C149.092 480.43 141.582 463.709 134.181 446.917 C131.167 440.087 128.088 433.288 125.001 426.492 C117.917 410.888 111.058 395.191 104.312 379.438 C103.909 378.495 103.505 377.553 103.089 376.582 C90.698 347.654 78.423 318.683 66.436 289.585 C64.178 284.107 61.909 278.634 59.641 273.16 C52.149 255.077 44.705 236.978 37.398 218.82 C28.651 197.103 19.476 175.754 9.134 154.744 C8.718 153.901 8.303 153.057 7.875 152.188 C7.462 151.349 7.049 150.51 6.624 149.646 C-13.412 108.868 -36.471 57.898 -22.688 11.438 C-19.87 5.985 -16.322 3.336 -10.655 1.033 C-7.126 -0.035 -3.664 -0.05 0 0 Z M517.312 391.438 C512.913 396.625 509.741 402.284 507.051 408.508 C506.752 409.196 506.453 409.885 506.145 410.595 C502.31 419.598 499.078 428.819 495.875 438.062 C495.548 439.003 495.221 439.943 494.884 440.912 C480.674 481.908 472.801 524.176 465.407 566.823 C461.919 586.93 458.342 606.996 454.047 626.949 C453.882 627.72 453.718 628.49 453.548 629.284 C451.935 636.806 450.26 644.237 447.707 651.508 C443.714 663.115 446.714 673.801 449.418 685.44 C450.44 689.911 451.298 694.409 452.152 698.914 C452.462 700.531 452.771 702.147 453.081 703.764 C453.54 706.158 453.998 708.552 454.453 710.947 C454.881 713.177 455.32 715.405 455.762 717.633 C456.013 718.922 456.264 720.211 456.522 721.54 C456.783 722.496 457.044 723.452 457.312 724.438 C457.972 724.767 458.633 725.097 459.312 725.438 C459.447 724.748 459.582 724.059 459.72 723.348 C460.389 719.92 461.058 716.493 461.726 713.065 C461.854 712.408 461.983 711.751 462.115 711.075 C463.755 702.667 465.395 694.259 467.036 685.852 C467.697 682.462 468.358 679.073 469.02 675.684 C469.189 674.814 469.359 673.945 469.534 673.049 C471.664 662.132 473.793 651.215 475.922 640.298 C477.946 629.918 479.971 619.537 481.996 609.156 C482.184 608.194 482.371 607.232 482.565 606.24 C488.039 578.179 493.527 550.121 499.027 522.065 C500.383 515.148 501.738 508.231 503.092 501.314 C503.281 500.351 503.47 499.387 503.664 498.395 C504.418 494.542 505.173 490.688 505.927 486.834 C508.142 475.523 510.359 464.213 512.581 452.904 C513.977 445.8 515.369 438.695 516.758 431.59 C517.561 427.483 518.366 423.377 519.175 419.271 C519.916 415.511 520.653 411.751 521.386 407.989 C521.652 406.626 521.92 405.264 522.19 403.902 C522.556 402.052 522.916 400.202 523.275 398.351 C523.477 397.322 523.679 396.294 523.887 395.234 C524.29 392.583 524.394 390.114 524.312 387.438 C520.98 387.438 519.732 389.179 517.312 391.438 Z M872.715 501.258 C866.583 505.626 860.842 510.332 855.312 515.438 C855.046 515.683 855.046 515.683 853.695 516.922 C837.641 531.826 837.641 531.826 836.312 542.438 C836.642 543.097 836.972 543.758 837.312 544.438 C854.152 538.034 867.576 524.745 880.312 512.438 C881.131 511.649 881.95 510.86 882.793 510.047 C887.207 505.71 891.286 501.132 895.312 496.438 C896.624 494.936 897.936 493.436 899.25 491.938 C899.837 491.267 900.423 490.597 901.027 489.906 C901.451 489.422 901.876 488.937 902.312 488.438 C892.885 485.039 880.057 496.161 872.715 501.258 Z M760.752 592.662 C755.172 597.337 750.006 602.075 746.312 608.438 C746.312 609.428 746.312 610.418 746.312 611.438 C753.618 610.315 760.77 608.655 767.938 606.875 C768.839 606.653 769.74 606.431 770.669 606.202 C771.513 605.99 772.357 605.777 773.227 605.559 C773.989 605.367 774.752 605.176 775.538 604.978 C777.312 604.438 777.312 604.438 778.312 603.438 C778.386 600.741 778.405 598.071 778.375 595.375 C778.37 594.616 778.366 593.858 778.361 593.076 C778.35 591.197 778.332 589.317 778.312 587.438 C771.017 585.798 766.539 588.122 760.752 592.662 Z M227.528 791.048 C226.391 791.182 225.253 791.316 224.081 791.453 C222.863 791.6 221.645 791.747 220.391 791.898 C219.135 792.049 217.879 792.2 216.585 792.355 C213.936 792.674 211.286 792.995 208.637 793.318 C205.236 793.732 201.834 794.135 198.431 794.535 C195.188 794.919 191.945 795.316 188.703 795.711 C187.477 795.854 186.251 795.997 184.988 796.144 C183.863 796.284 182.738 796.424 181.579 796.568 C180.584 796.688 179.589 796.808 178.563 796.931 C177.82 797.098 177.078 797.265 176.312 797.438 C175.983 798.097 175.653 798.758 175.312 799.438 C206.717 814.155 206.717 814.155 219.188 810.062 C227.794 806.331 234.317 798.791 238.312 790.438 C234.661 790.372 231.154 790.619 227.528 791.048 Z M484.312 949.438 C485.061 970.409 498.871 988.84 513.672 1002.645 C541.437 1027.562 577.751 1042.34 612.091 1055.58 C614.494 1056.508 616.896 1057.44 619.297 1058.373 C624.571 1060.421 629.847 1062.462 635.125 1064.5 C635.969 1064.826 636.812 1065.152 637.682 1065.487 C640.106 1066.423 642.531 1067.354 644.957 1068.285 C645.313 1068.422 645.313 1068.422 647.113 1069.117 C663.078 1075.224 663.078 1075.224 667.312 1073.438 C669.516 1071.695 669.516 1071.695 671.562 1069.562 C672.248 1068.864 672.934 1068.165 673.641 1067.445 C675.312 1065.438 675.312 1065.438 676.312 1062.438 C669.365 1050.087 658.385 1040.008 647.312 1031.438 C646.35 1030.659 645.387 1029.88 644.395 1029.078 C616.896 1007.191 583.996 992.561 552.824 976.76 C547.671 974.147 542.525 971.523 537.391 968.874 C502.004 950.628 502.004 950.628 484.312 949.438 Z M442.312 1085.438 C442.172 1111.7 442.066 1137.962 442.002 1164.225 C441.971 1176.422 441.929 1188.618 441.86 1200.815 C441.8 1211.459 441.761 1222.102 441.748 1232.745 C441.74 1238.37 441.722 1243.993 441.678 1249.618 C441.501 1273.055 441.583 1294.81 448.312 1317.438 C448.932 1319.697 449.545 1321.959 450.153 1324.222 C451.843 1330.502 453.632 1336.752 455.438 1343 C462.052 1365.977 467.537 1387.07 467.375 1411.125 C467.37 1412.411 467.366 1413.697 467.361 1415.021 C467.35 1418.16 467.333 1421.299 467.312 1424.438 C468.734 1421.733 469.825 1419.095 470.733 1416.179 C470.993 1415.347 471.253 1414.516 471.521 1413.659 C471.795 1412.767 472.069 1411.876 472.352 1410.957 C472.494 1410.493 472.494 1410.493 473.217 1408.147 C473.82 1406.185 474.42 1404.222 475.018 1402.259 C475.93 1399.275 476.859 1396.297 477.789 1393.318 C478.373 1391.407 478.957 1389.494 479.539 1387.582 C479.678 1387.141 479.678 1387.141 480.382 1384.911 C482.805 1376.821 482.626 1369.776 481.543 1361.441 C481.375 1360.094 481.209 1358.746 481.043 1357.397 C480.954 1356.687 480.866 1355.976 480.775 1355.244 C476.432 1319.762 475.334 1283.99 473.907 1248.298 C468.366 1109.727 468.366 1109.727 448.312 1088.438 C447.821 1087.877 447.33 1087.316 446.824 1086.738 C445.312 1085.438 445.312 1085.438 442.312 1085.438 Z " fill="#000000" transform="translate(1793.6875,1341.5625)"/>
</svg>
