<?xml version="1.0" encoding="UTF-8"?>
<!-- Generator: visioncortex VTracer 0.6.12 -->
<svg viewBox="0 0 4500 4500" version="1.1" xmlns="http://www.w3.org/2000/svg" width="4500" height="4500">
<path d="M0 0 C0.886 9.492 1.139 18.901 1.114 28.429 C1.113 29.928 1.113 31.428 1.114 32.927 C1.114 36.955 1.108 40.983 1.101 45.011 C1.095 49.237 1.095 53.462 1.093 57.687 C1.09 65.67 1.082 73.652 1.072 81.634 C1.061 90.73 1.055 99.826 1.05 108.921 C1.04 127.614 1.022 146.307 1 165 C1.624 165.296 2.248 165.593 2.891 165.898 C5.579 167.302 6.58 168.302 8 171 C8.699 176.416 8.699 176.416 8 179 C7.588 179.405 7.588 179.405 5.5 181.457 C1.828 185.8 2.324 190.428 2.405 195.88 C2.402 196.978 2.398 198.076 2.395 199.207 C2.389 202.888 2.419 206.567 2.448 210.248 C2.451 212.886 2.452 215.524 2.451 218.162 C2.452 223.844 2.471 229.526 2.502 235.208 C2.547 243.431 2.563 251.655 2.573 259.879 C2.589 273.233 2.626 286.588 2.678 299.942 C2.728 312.894 2.77 325.845 2.801 338.797 C2.803 339.594 2.805 340.392 2.806 341.213 C2.827 349.923 2.845 358.632 2.863 367.342 C2.868 369.654 2.872 371.966 2.877 374.278 C2.88 375.802 2.883 377.326 2.886 378.851 C2.906 388.539 2.933 398.227 2.969 407.915 C2.987 412.806 3.002 417.697 3.016 422.589 C3.025 425.83 3.037 429.072 3.052 432.313 C3.068 435.831 3.078 439.348 3.087 442.866 C3.093 443.885 3.099 444.905 3.106 445.955 C3.112 451.41 2.756 456.599 2 462 C1.491 470.468 2.394 478.952 3.036 487.391 C5.126 515.058 5.51 542.649 5.599 570.386 C5.623 577.467 5.663 584.549 5.703 591.631 C5.776 604.3 5.838 616.969 5.893 629.638 C5.984 650.546 6.101 671.455 6.224 692.363 C6.521 742.974 6.781 793.585 7.029 844.197 C7.057 849.843 7.085 855.489 7.113 861.135 C7.617 962.951 8.104 1064.768 8.188 1218.686 C8.187 1223.686 8.188 1228.685 8.189 1233.685 C8.191 1249.663 8.188 1265.641 8.174 1281.619 C8.17 1286.306 8.167 1290.993 8.167 1295.68 C8.162 1316.038 8.108 1336.374 7.426 1356.721 C6.784 1376.118 6.872 1395.519 6.899 1414.925 C6.905 1420.297 6.905 1425.668 6.907 1431.04 C6.91 1441.15 6.918 1451.26 6.928 1461.37 C6.939 1472.907 6.945 1484.443 6.95 1495.979 C6.96 1519.653 6.978 1543.326 7 1567 C7.555 1567.073 7.555 1567.073 10.363 1567.445 C17.164 1568.483 21.529 1572.093 25.938 1577.25 C29.17 1581.703 30.507 1585.491 30 1591 C28.039 1597.985 23.56 1603.764 17.426 1607.617 C10.88 1611 10.88 1611 7 1611 C7.031 1611.849 7.062 1612.699 7.094 1613.574 C7.681 1630.223 8.074 1646.845 7.947 1663.505 C7.913 1668.546 7.909 1673.586 7.903 1678.627 C7.895 1682.918 7.866 1687.206 7.798 1691.497 C7.732 1695.759 7.719 1700.018 7.743 1704.281 C7.743 1705.877 7.723 1707.474 7.682 1709.07 C7.566 1713.877 7.613 1718.347 9 1723 C12.281 1726.349 15.766 1728.094 20 1730 C23.121 1732.477 23.121 1732.477 25.438 1734.625 C26.22 1735.339 27.002 1736.053 27.809 1736.789 C33.589 1742.621 36.283 1747.136 36.312 1755.438 C36.329 1756.529 36.346 1757.621 36.363 1758.746 C35.427 1767.131 29.12 1773.616 23 1779 C19.418 1781.651 15.637 1783.949 11.809 1786.223 C9 1788 9 1788 8 1790 C7.903 1791.382 7.868 1792.769 7.864 1794.154 C7.859 1795.03 7.854 1795.906 7.849 1796.809 C7.849 1797.777 7.849 1798.746 7.849 1799.743 C7.844 1800.768 7.84 1801.793 7.836 1802.849 C7.823 1806.307 7.817 1809.766 7.811 1813.225 C7.803 1815.697 7.794 1818.17 7.785 1820.642 C7.767 1825.988 7.752 1831.334 7.74 1836.68 C7.721 1844.462 7.697 1852.244 7.67 1860.027 C7.627 1872.723 7.588 1885.42 7.552 1898.116 C7.55 1898.877 7.548 1899.637 7.546 1900.421 C7.535 1904.267 7.524 1908.113 7.513 1911.959 C7.492 1919.558 7.47 1927.158 7.448 1934.757 C7.446 1935.502 7.443 1936.247 7.441 1937.015 C7.405 1949.607 7.365 1962.199 7.322 1974.791 C7.299 1981.833 7.277 1988.874 7.26 1995.915 C7.039 2086.742 7.039 2086.742 4.961 2112.769 C3.294 2134.063 3.66 2155.454 3.628 2176.798 C3.617 2182.862 3.597 2188.925 3.578 2194.989 C3.537 2207.665 3.506 2220.341 3.48 2233.018 C3.453 2245.829 3.421 2258.641 3.383 2271.452 C3.38 2272.262 3.378 2273.072 3.375 2273.907 C3.366 2277.216 3.356 2280.526 3.346 2283.836 C3.117 2361.07 2.984 2438.305 2.88 2515.54 C2.878 2516.853 2.876 2518.166 2.874 2519.519 C2.871 2521.515 2.869 2523.512 2.866 2525.508 C2.839 2545.649 2.809 2565.789 2.777 2585.929 C2.774 2587.948 2.771 2589.967 2.768 2591.986 C2.749 2604.116 2.729 2616.246 2.71 2628.376 C2.697 2636.458 2.684 2644.54 2.671 2652.622 C2.67 2653.288 2.669 2653.953 2.668 2654.639 C2.634 2676.689 2.611 2698.738 2.593 2720.787 C2.575 2742.591 2.547 2764.395 2.51 2786.199 C2.489 2798.14 2.474 2810.08 2.472 2822.021 C2.469 2835.188 2.454 2848.355 2.417 2861.523 C2.414 2862.554 2.411 2863.585 2.408 2864.648 C2.316 2894.304 1.71 2923.884 0.015 2953.495 C-1.268 2976.222 -0.902 2998.77 -0.328 3021.52 C0.031 3035.785 0.097 3050.043 0.062 3064.312 C0.06 3065.382 0.058 3066.452 0.056 3067.555 C0.045 3073.37 0.026 3079.185 0 3085 C0.789 3085.133 1.577 3085.266 2.39 3085.403 C5.487 3086.111 6.31 3086.982 8.25 3089.438 C8.75 3090.055 9.25 3090.672 9.766 3091.309 C12.843 3095.526 12.781 3099.952 12 3105 C9.97 3109.066 7.632 3112.277 3.424 3114.141 C1 3116 1 3116 0.392 3119.282 C0.374 3120.665 0.385 3122.049 0.417 3123.431 C0.414 3124.192 0.412 3124.953 0.41 3125.737 C0.408 3128.282 0.442 3130.826 0.477 3133.371 C0.483 3135.174 0.487 3136.976 0.49 3138.779 C0.502 3143.648 0.546 3148.517 0.597 3153.386 C0.644 3158.511 0.664 3163.636 0.688 3168.761 C0.751 3180.841 0.866 3192.921 1 3205 C1.009 3205.816 1.018 3206.632 1.027 3207.473 C1.171 3220.324 1.353 3233.175 1.571 3246.026 C2.518 3302.051 3.056 3358.093 3.176 3414.126 C3.183 3417.185 3.194 3420.245 3.208 3423.304 C3.228 3427.448 3.23 3431.591 3.23 3435.734 C3.238 3436.936 3.245 3438.138 3.252 3439.377 C3.249 3440.466 3.246 3441.556 3.243 3442.679 C3.244 3443.617 3.246 3444.556 3.247 3445.523 C2.983 3448.169 2.46 3449.786 1 3452 C-1.383 3452.828 -1.383 3452.828 -4.125 3453.25 C-5.035 3453.4 -5.945 3453.549 -6.883 3453.703 C-7.581 3453.801 -8.28 3453.899 -9 3454 C-12.755 3449.281 -13.579 3445.806 -13.375 3439.75 C-13.374 3439.069 -13.372 3438.389 -13.371 3437.688 C-13.299 3433.19 -12.857 3428.792 -12.272 3424.333 C-10.744 3412.272 -10.717 3400.293 -10.741 3388.152 C-10.738 3385.805 -10.735 3383.459 -10.731 3381.112 C-10.722 3374.779 -10.725 3368.447 -10.731 3362.114 C-10.734 3358.13 -10.734 3354.147 -10.732 3350.163 C-10.732 3349.497 -10.732 3348.831 -10.731 3348.145 C-10.731 3346.79 -10.73 3345.436 -10.729 3344.081 C-10.724 3331.411 -10.73 3318.741 -10.741 3306.072 C-10.75 3295.318 -10.749 3284.564 -10.739 3273.81 C-10.728 3261.227 -10.724 3248.644 -10.73 3236.06 C-10.731 3234.702 -10.732 3233.343 -10.732 3231.985 C-10.733 3231.317 -10.733 3230.649 -10.733 3229.961 C-10.735 3225.37 -10.732 3220.78 -10.727 3216.189 C-10.706 3191.254 -10.781 3166.32 -11.6 3141.397 C-11.669 3139.238 -11.73 3137.079 -11.783 3134.92 C-11.859 3131.969 -11.966 3129.021 -12.084 3126.072 C-12.092 3125.638 -12.092 3125.638 -12.135 3123.445 C-12.422 3117.571 -12.422 3117.571 -15.486 3114.545 C-15.901 3114.29 -15.901 3114.29 -18 3113 C-21.42 3107.654 -21.776 3101.158 -21 3095 C-19.591 3091.588 -18.705 3090.37 -15.433 3088.654 C-11.401 3084.256 -12.261 3079.169 -12.265 3073.414 C-12.246 3072.122 -12.227 3070.83 -12.208 3069.499 C-12.157 3065.95 -12.137 3062.402 -12.122 3058.852 C-12.101 3055.111 -12.051 3051.37 -12.003 3047.629 C-11.918 3040.512 -11.857 3033.395 -11.806 3026.278 C-11.73 3015.942 -11.616 3005.607 -11.504 2995.272 C-11.487 2993.724 -11.47 2992.176 -11.454 2990.628 C-11.445 2989.87 -11.437 2989.111 -11.429 2988.329 C-11.382 2983.91 -11.341 2979.492 -11.307 2975.073 C-11.189 2960.144 -10.954 2945.232 -10.348 2930.313 C-10.066 2923.353 -9.905 2916.403 -9.875 2909.438 C-9.87 2908.661 -9.866 2907.885 -9.861 2907.085 C-9.873 2902.575 -10.055 2898.103 -10.361 2893.602 C-11.367 2877.848 -11.142 2862.048 -11.131 2846.27 C-11.128 2841.669 -11.132 2837.069 -11.135 2832.468 C-11.139 2823.4 -11.138 2814.332 -11.135 2805.265 C-11.133 2797.778 -11.133 2790.291 -11.135 2782.804 C-11.135 2781.725 -11.135 2780.646 -11.135 2779.534 C-11.136 2777.336 -11.136 2775.138 -11.137 2772.94 C-11.142 2747.209 -11.136 2721.478 -11.128 2695.747 C-11.126 2687.255 -11.124 2678.762 -11.122 2670.27 C-11.122 2669.069 -11.122 2667.869 -11.121 2666.631 C-11.121 2665.43 -11.121 2664.228 -11.121 2662.99 C-11.1 2554.116 -11.072 2445.241 -10.729 2295.988 C-10.7 2284.984 -10.677 2273.98 -10.658 2262.976 C-10.626 2244.686 -10.582 2226.396 -10.512 2208.105 C-10.51 2207.757 -10.51 2207.757 -10.504 2205.991 C-10.313 2157.097 -9.421 2108.232 -8.292 2059.352 C-7.042 2005.242 -6.47 1951.149 -6.339 1897.023 C-6.31 1885.596 -6.266 1874.169 -6.222 1862.742 C-6.133 1839.495 -6.06 1816.247 -6 1793 C-6.929 1792.858 -7.858 1792.717 -8.815 1792.571 C-16.981 1791.108 -24.471 1786.725 -29.602 1780.219 C-34.559 1772.353 -36.201 1764.371 -36.312 1755.25 C-36.342 1754.477 -36.371 1753.703 -36.4 1752.906 C-36.474 1746.121 -34.522 1741.302 -30.422 1735.934 C-24.706 1730.819 -13.93 1724 -6 1724 C-4.266 1711.66 -3.681 1699.55 -3.621 1687.098 C-3.605 1685.24 -3.588 1683.383 -3.57 1681.525 C-3.524 1676.688 -3.489 1671.85 -3.457 1667.013 C-3.405 1659.249 -3.34 1651.486 -3.269 1643.722 C-3.247 1641.034 -3.23 1638.345 -3.214 1635.657 C-3.156 1627.708 -3.004 1619.899 -2 1612 C-3.011 1611.959 -4.021 1611.918 -5.062 1611.875 C-9.923 1611.137 -12.915 1608.742 -16 1605 C-20.361 1597.894 -21.14 1590.165 -20 1582 C-18.599 1577.255 -16.367 1574.771 -12.058 1572.34 C-11.52 1572.082 -11.52 1572.082 -8.797 1570.777 C-7.712 1570.253 -6.628 1569.728 -5.511 1569.187 C-4.682 1568.795 -3.854 1568.404 -3 1568 C-2.976 1544.248 -2.959 1520.496 -2.948 1496.743 C-2.943 1485.709 -2.936 1474.675 -2.925 1463.642 C-2.914 1454 -2.908 1444.359 -2.906 1434.718 C-2.905 1429.635 -2.902 1424.552 -2.894 1419.469 C-2.864 1397.922 -3.015 1376.397 -3.558 1354.857 C-4.026 1336.292 -4.197 1317.735 -4.27 1299.165 C-4.289 1294.66 -4.313 1290.155 -4.337 1285.651 C-4.391 1275.177 -4.439 1264.704 -4.487 1254.231 C-4.547 1241.074 -4.61 1227.916 -4.678 1214.759 C-4.7 1210.366 -4.722 1205.973 -4.74 1201.58 C-4.822 1181.689 -4.982 1161.799 -5.223 1141.908 C-5.897 1085.938 -6.252 1029.971 -6.459 973.997 C-6.505 961.497 -6.556 948.997 -6.607 936.498 C-6.699 914.117 -6.788 891.736 -6.875 869.356 C-6.878 868.694 -6.88 868.033 -6.883 867.351 C-6.927 855.954 -6.971 844.556 -7.016 833.158 C-7.052 823.77 -7.088 814.381 -7.125 804.992 C-7.128 804.331 -7.13 803.669 -7.133 802.987 C-7.222 779.983 -7.314 756.979 -7.409 733.976 C-7.459 721.558 -7.509 709.14 -7.554 696.723 C-7.724 650.999 -7.914 605.276 -8.438 559.555 C-8.468 556.925 -8.497 554.295 -8.526 551.665 C-8.727 533.49 -9.067 515.329 -9.656 497.162 C-9.979 487.132 -10.161 477.114 -10.189 467.08 C-10.197 465.436 -10.206 463.791 -10.215 462.146 C-10.237 457.778 -10.254 453.41 -10.271 449.042 C-10.289 444.34 -10.313 439.637 -10.336 434.934 C-10.374 426.934 -10.41 418.934 -10.445 410.933 C-10.499 398.476 -10.563 386.019 -10.63 373.562 C-10.641 371.474 -10.652 369.387 -10.663 367.299 C-10.679 364.174 -10.696 361.05 -10.712 357.925 C-10.852 331.606 -10.989 305.288 -11.085 278.97 C-11.128 267.227 -11.183 255.484 -11.253 243.74 C-11.296 236.5 -11.321 229.261 -11.334 222.02 C-11.346 217.657 -11.374 213.294 -11.408 208.931 C-11.42 206.958 -11.425 204.984 -11.422 203.01 C-11.42 200.372 -11.442 197.735 -11.47 195.097 C-11.463 194.339 -11.457 193.581 -11.45 192.8 C-11.538 187.874 -12.666 185.564 -16 182 C-17.29 177.488 -17.546 173.379 -15.812 169 C-13.955 166.95 -12.474 166.147 -10 165 C-10.002 164.169 -10.004 163.338 -10.006 162.481 C-10.05 142.268 -10.083 122.054 -10.104 101.841 C-10.114 92.066 -10.128 82.291 -10.151 72.516 C-10.171 63.997 -10.184 55.478 -10.188 46.96 C-10.191 42.448 -10.197 37.936 -10.211 33.425 C-10.225 29.18 -10.229 24.935 -10.226 20.689 C-10.227 19.13 -10.231 17.571 -10.238 16.012 C-10.248 13.885 -10.246 11.758 -10.241 9.631 C-10.242 8.44 -10.244 7.249 -10.246 6.022 C-10.006 3.076 -9.704 1.396 -8 -1 C-4.377 -2.208 -3.359 -1.543 0 0 Z " fill="#000000" transform="translate(2496,524)"/>
<path d="M0 0 C3 1 3 1 4.392 3.634 C7.789 12.726 8.508 20.193 7.845 29.975 C7.772 31.379 7.703 32.782 7.637 34.186 C7.501 37.062 7.354 39.938 7.201 42.814 C6.88 49.138 6.795 55.465 6.711 61.796 C6.701 62.414 6.701 62.414 6.653 65.542 C6.603 68.802 6.556 72.063 6.511 75.323 C6.481 77.463 6.451 79.602 6.42 81.741 C6.271 92.231 6.133 102.721 6.001 113.211 C5.98 114.952 5.958 116.692 5.936 118.433 C5.032 189.767 4.766 261.099 4.656 332.438 C4.654 333.753 4.652 335.069 4.65 336.424 C4.582 380.001 4.537 423.579 4.496 467.156 C4.458 508.077 4.414 548.999 4.35 589.92 C4.346 592.556 4.342 595.192 4.338 597.827 C4.226 670.668 3.822 743.476 2.335 816.302 C1.935 836.1 1.74 855.898 1.621 875.699 C1.616 876.46 1.612 877.22 1.607 878.003 C1.554 886.711 1.509 895.418 1.469 904.126 C1.407 917.366 1.323 930.606 1.243 943.846 C1.224 946.907 1.206 949.967 1.188 953.028 C1.052 976.099 0.847 999.168 0.532 1022.238 C-0.217 1077.156 -0.625 1132.078 -1 1187 C-1.006 1187.825 -1.011 1188.649 -1.017 1189.499 C-1.643 1281.022 -2.08 1372.542 -1.995 1464.067 C-1.956 1506.466 -1.973 1548.863 -2.219 1591.262 C-2.224 1592.211 -2.23 1593.161 -2.235 1594.139 C-2.303 1605.782 -2.374 1617.426 -2.446 1629.069 C-2.885 1700.331 -3.113 1771.592 -3.123 1842.855 C-3.124 1851.152 -3.128 1859.448 -3.133 1867.745 C-3.158 1915.108 -3.063 1962.468 -2.586 2009.83 C-2.555 2012.874 -2.526 2015.918 -2.496 2018.961 C-2.304 2038.223 -2.036 2057.478 -1.536 2076.734 C-0.953 2099.293 -0.897 2121.836 -0.964 2144.401 C-0.979 2149.843 -0.986 2155.285 -0.994 2160.727 C-1.005 2168.795 -1.018 2176.864 -1.033 2184.932 C-1.156 2252.918 -1.272 2320.898 -0.062 2388.875 C-0.052 2389.495 -0.052 2389.495 0.004 2392.635 C0.279 2408.045 0.594 2423.455 0.932 2438.864 C1.122 2447.581 1.305 2456.298 1.489 2465.014 C1.552 2467.998 1.617 2470.982 1.682 2473.966 C1.934 2485.665 2.107 2497.362 2.188 2509.062 C2.193 2509.764 2.198 2510.466 2.203 2511.189 C2.251 2518.192 2.044 2525.109 1.258 2532.066 C1.124 2533.256 0.99 2534.445 0.852 2535.67 C-0.611 2541.389 -4.3 2545.538 -9 2549 C-11.605 2549.945 -11.605 2549.945 -14 2550 C-18.75 2546.656 -19.59 2540.248 -20.569 2534.88 C-22.2 2523.213 -22.304 2511.643 -22.261 2499.876 C-22.25 2496.551 -22.261 2493.226 -22.273 2489.9 C-22.278 2479.105 -22.11 2468.34 -21.544 2457.559 C-19.835 2424.627 -19.726 2391.735 -19.779 2358.771 C-19.792 2350.425 -19.792 2342.08 -19.793 2333.735 C-19.794 2318.339 -19.804 2302.942 -19.819 2287.546 C-19.834 2272.32 -19.845 2257.095 -19.849 2241.869 C-19.849 2241.392 -19.849 2241.392 -19.85 2238.98 C-19.851 2234.135 -19.853 2229.291 -19.854 2224.447 C-19.863 2190.268 -19.881 2156.089 -19.904 2121.911 C-19.905 2119.852 -19.907 2117.793 -19.908 2115.733 C-19.909 2114.713 -19.91 2113.693 -19.91 2112.642 C-19.914 2107.48 -19.917 2102.318 -19.921 2097.156 C-19.922 2096.133 -19.922 2095.109 -19.923 2094.055 C-19.939 2070.24 -19.953 2046.426 -19.966 2022.612 C-19.966 2021.591 -19.967 2020.57 -19.967 2019.517 C-19.98 1996.173 -19.991 1972.828 -20 1949.483 C-20 1948.501 -20.001 1947.518 -20.001 1946.506 C-20.004 1937.665 -20.008 1928.824 -20.011 1919.983 C-20.018 1898.004 -20.029 1876.025 -20.047 1854.046 C-20.059 1838.746 -20.069 1823.445 -20.074 1808.145 C-20.078 1799.079 -20.084 1790.013 -20.095 1780.948 C-20.102 1774.87 -20.105 1768.793 -20.105 1762.716 C-20.105 1759.269 -20.108 1755.822 -20.114 1752.375 C-20.135 1738.9 -20.026 1725.445 -19.556 1711.978 C-19.517 1710.864 -19.478 1709.75 -19.438 1708.603 C-19.182 1701.988 -18.759 1695.402 -18.211 1688.805 C-17.936 1685.148 -17.883 1681.547 -17.893 1677.879 C-17.894 1677.15 -17.895 1676.42 -17.895 1675.669 C-17.897 1674.076 -17.901 1672.484 -17.908 1670.891 C-17.918 1668.214 -17.923 1665.537 -17.926 1662.86 C-17.931 1658.798 -17.939 1654.735 -17.95 1650.673 C-17.977 1639.277 -17.983 1627.882 -17.99 1616.486 C-17.992 1614.429 -17.993 1612.372 -17.995 1610.315 C-18.026 1567.314 -17.913 1524.313 -17.816 1481.312 C-17.811 1479.109 -17.807 1476.905 -17.802 1474.701 C-17.756 1454.351 -17.709 1434.001 -17.661 1413.651 C-17.658 1412.51 -17.655 1411.369 -17.652 1410.193 C-17.651 1409.622 -17.651 1409.622 -17.644 1406.731 C-17.639 1404.419 -17.633 1402.108 -17.628 1399.796 C-17.625 1398.651 -17.622 1397.505 -17.619 1396.325 C-17.578 1378.994 -17.54 1361.663 -17.503 1344.333 C-17.445 1317.18 -17.383 1290.027 -17.316 1262.875 C-17.314 1261.771 -17.311 1260.668 -17.308 1259.531 C-17.172 1203.915 -16.95 1148.302 -16.465 1092.688 C-15.889 1026.306 -15.876 959.93 -15.995 893.547 C-16 890.957 -16.005 888.368 -16.009 885.778 C-16.094 837.716 -16.206 789.654 -16.339 741.592 C-16.342 740.617 -16.345 739.642 -16.348 738.637 C-16.35 737.661 -16.353 736.685 -16.356 735.679 C-16.359 734.702 -16.361 733.725 -16.364 732.718 C-16.37 730.742 -16.375 728.767 -16.381 726.791 C-16.426 710.617 -16.466 694.443 -16.505 678.269 C-16.545 661.348 -16.589 644.427 -16.637 627.506 C-16.663 618.127 -16.688 608.748 -16.709 599.369 C-16.727 591.486 -16.748 583.603 -16.773 575.721 C-16.785 571.724 -16.796 567.727 -16.803 563.73 C-16.855 534.81 -16.855 534.81 -17.775 521.558 C-18.176 515.208 -18.147 508.861 -18.125 502.5 C-18.124 501.808 -18.123 501.116 -18.122 500.403 C-18.105 488.307 -17.822 476.225 -17.356 464.139 C-16.41 437.697 -17.071 411.197 -17.5 384.75 C-17.585 379.502 -17.668 374.255 -17.748 369.007 C-17.779 366.984 -17.813 364.96 -17.848 362.936 C-18.29 334.249 -17.82 305.568 -17.427 276.883 C-17.362 272.097 -17.298 267.31 -17.234 262.524 C-17.082 251.193 -16.928 239.862 -16.773 228.531 C-16.615 216.975 -16.46 205.419 -16.306 193.862 C-16.173 183.831 -16.038 173.799 -15.901 163.767 C-15.82 157.825 -15.74 151.883 -15.661 145.94 C-15.354 122.825 -15.01 99.711 -14.504 76.599 C-14.484 75.691 -14.465 74.783 -14.446 73.847 C-13.16 13.737 -13.16 13.737 -1.348 1.254 C-0.903 0.84 -0.458 0.426 0 0 Z " fill="#000000" transform="translate(1990,975)"/>
</svg>
