<?xml version="1.0" encoding="UTF-8"?>
<!-- Generator: visioncortex VTracer 0.6.12 -->
<svg viewBox="0 0 4500 4500" version="1.1" xmlns="http://www.w3.org/2000/svg" width="4500" height="4500">
<path d="M0 0 C1.098 0.008 2.197 0.017 3.329 0.025 C46.055 0.898 85.453 27.552 119.125 51.438 C119.912 51.995 120.698 52.553 121.509 53.128 C125.994 56.32 130.451 59.548 134.892 62.802 C137.202 64.494 139.517 66.181 141.832 67.867 C149.797 73.688 157.673 79.601 165.438 85.688 C171.63 90.541 177.893 95.233 184.334 99.751 C186.898 101.559 189.44 103.392 191.968 105.249 C203.803 113.928 215.963 122.042 228.25 130.062 C232.025 132.531 235.798 135.003 239.57 137.477 C240.479 138.072 241.387 138.668 242.322 139.281 C249.768 144.176 257.124 149.194 264.444 154.274 C268.591 157.145 272.768 159.974 276.938 162.812 C286.228 169.142 295.509 175.485 304.785 181.836 C307.179 183.475 309.574 185.112 311.969 186.75 C319.298 191.762 326.624 196.778 333.938 201.812 C342.958 208.019 352.004 214.188 361.056 220.348 C363.126 221.757 365.195 223.167 367.265 224.578 C409.007 253.027 451.056 281.028 494.125 307.438 C495.19 308.091 496.255 308.745 497.352 309.418 C514.122 319.699 531.011 329.738 548.125 339.438 C549.196 340.049 550.267 340.66 551.371 341.289 C581.954 358.69 613.598 374.208 645.599 388.815 C651.728 391.635 657.826 394.52 663.927 397.4 C674.85 402.556 685.786 407.681 696.75 412.75 C731.988 429.072 767.191 445.517 801.125 464.438 C803.15 465.56 805.174 466.682 807.199 467.805 C820.541 475.221 833.765 482.827 846.926 490.559 C850.302 492.542 853.68 494.521 857.059 496.5 C860.704 498.635 864.349 500.771 867.993 502.909 C874.134 506.513 880.278 510.112 886.43 513.699 C900.238 521.756 913.963 529.933 927.613 538.256 C928.183 538.603 928.753 538.951 929.34 539.309 C929.906 539.654 930.473 540 931.057 540.356 C936.999 543.976 942.967 547.552 948.938 551.125 C968.322 562.736 987.582 574.546 1006.818 586.401 C1010.113 588.43 1013.41 590.456 1016.707 592.48 C1028.193 599.535 1039.654 606.628 1051.075 613.787 C1058.506 618.439 1065.966 623.039 1073.438 627.625 C1081.665 632.676 1089.863 637.767 1098.016 642.937 C1104.266 646.9 1110.536 650.83 1116.812 654.75 C1117.818 655.378 1118.824 656.007 1119.861 656.654 C1122.949 658.582 1126.037 660.51 1129.125 662.438 C1141.072 669.894 1153.014 677.356 1164.915 684.886 C1174.268 690.8 1183.657 696.655 1193.044 702.514 C1198.072 705.653 1203.099 708.796 1208.125 711.938 C1210.125 713.188 1212.125 714.438 1214.125 715.688 C1226.125 723.187 1226.125 723.187 1229.126 725.063 C1231.123 726.311 1233.121 727.56 1235.118 728.808 C1240.157 731.957 1245.194 735.106 1250.23 738.258 C1262.326 745.826 1274.441 753.362 1286.579 760.862 C1289.094 762.418 1291.606 763.978 1294.117 765.539 C1314.932 778.471 1335.883 791.168 1357.002 803.597 C1450.52 858.713 1450.52 858.713 1489.859 888.764 C1491.428 889.923 1493.044 891.02 1494.692 892.064 C1500.786 896.136 1500.786 896.136 1501.729 899.755 C1501.763 902.391 1501.515 904.832 1501.125 907.438 C1501.047 908.256 1500.969 909.074 1500.889 909.917 C1498.451 934.339 1498.451 934.339 1490.75 941.711 C1486.509 944.501 1483.03 944.317 1478.125 943.438 C1470.242 940.69 1464.125 935.162 1458.042 929.636 C1447.966 920.503 1437.517 913.132 1425.5 906.75 C1424.232 906.065 1422.964 905.379 1421.697 904.691 C1419.105 903.286 1416.51 901.885 1413.913 900.487 C1408.119 897.361 1402.374 894.146 1396.625 890.938 C1387.237 885.716 1377.842 880.506 1368.438 875.312 C1368.134 875.145 1368.134 875.145 1366.596 874.296 C1357.355 869.195 1348.079 864.161 1338.787 859.153 C1332.142 855.561 1325.561 851.868 1319 848.125 C1309.488 842.702 1299.857 837.532 1290.182 832.409 C1280.95 827.517 1271.817 822.486 1262.746 817.301 C1255.276 813.047 1247.714 808.974 1240.125 804.938 C1230.603 799.87 1221.155 794.692 1211.782 789.354 C1204.384 785.14 1196.948 780.999 1189.5 776.875 C1177.985 770.492 1166.534 764.008 1155.125 757.438 C1154.121 756.86 1153.118 756.283 1152.084 755.688 C1109.676 731.294 1067.546 706.479 1026.125 680.438 C1025.301 679.92 1024.477 679.402 1023.627 678.869 C1013.993 672.813 1004.396 666.699 994.812 660.562 C993.75 659.882 992.687 659.201 991.592 658.5 C982.807 652.875 982.807 652.875 979.284 650.616 C948.985 631.201 918.151 612.664 887.125 594.438 C886.162 593.872 885.2 593.306 884.208 592.723 C864.435 581.114 844.473 569.854 824.459 558.668 C819.413 555.846 814.373 553.015 809.348 550.156 C797.145 543.214 784.848 536.473 772.473 529.844 C766.633 526.715 760.813 523.553 755 520.375 C727.221 505.196 699.334 490.216 671.426 475.276 C664.992 471.831 658.558 468.384 652.125 464.938 C649.792 463.687 647.458 462.437 645.125 461.188 C640.458 458.688 635.792 456.188 631.125 453.688 C630.547 453.378 630.547 453.378 627.624 451.812 C625.295 450.564 622.967 449.317 620.638 448.069 C615.334 445.227 610.028 442.385 604.721 439.548 C592.525 433.028 580.339 426.492 568.207 419.853 C563.558 417.308 558.904 414.775 554.238 412.262 C543.467 406.458 532.754 400.572 522.119 394.521 C514.964 390.457 507.763 386.478 500.548 382.521 C489.754 376.599 479.055 370.545 468.443 364.301 C462.776 360.97 457.078 357.72 451.312 354.562 C440.973 348.881 430.861 342.818 420.73 336.775 C416.201 334.074 411.663 331.39 407.121 328.711 C390.974 319.179 374.97 309.466 359.125 299.438 C357.483 298.403 355.841 297.369 354.199 296.336 C350.322 293.894 346.449 291.446 342.579 288.993 C340.858 287.902 339.136 286.812 337.413 285.722 C327.017 279.145 316.645 272.546 306.445 265.668 C304.285 264.216 302.113 262.781 299.93 261.363 C288.221 253.742 277.376 244.787 267.559 234.836 C244.718 211.987 212.377 196.178 184.78 179.997 C181.262 177.93 177.751 175.851 174.24 173.773 C167.227 169.621 160.207 165.481 153.172 161.367 C137.427 152.159 121.737 142.87 106.125 133.438 C105.637 133.143 105.637 133.143 103.166 131.653 C-20.065 57.317 -20.065 57.317 -29.477 23.461 C-30.635 17.579 -30.162 13.478 -26.875 8.438 C-19.359 0.742 -10.367 -0.102 0 0 Z " fill="#000000" transform="translate(1708.875,918.5625)"/>
<path d="M0 0 C3.241 2.089 6.12 4.44 9 7 C9.407 7.36 9.407 7.36 11.469 9.184 C30.21 26.797 40.066 54.333 41.161 79.738 C41.181 81.073 41.195 82.407 41.203 83.742 C41.209 84.469 41.215 85.195 41.22 85.944 C41.23 87.479 41.236 89.013 41.24 90.548 C41.25 92.834 41.281 95.12 41.312 97.406 C41.413 111.309 39.425 124.669 35.375 138 C35.125 138.827 34.875 139.654 34.617 140.506 C31.144 151.368 25.656 161.131 19.312 170.562 C6.636 190.22 4.476 216.015 0.577 238.593 C-4.263 266.542 -11.366 292.209 -22.008 318.541 C-23.866 323.146 -25.709 327.757 -27.555 332.367 C-27.756 332.87 -27.756 332.87 -28.774 335.412 C-29.609 337.498 -30.445 339.585 -31.28 341.672 C-32.14 343.82 -33 345.967 -33.861 348.114 C-62.963 420.731 -90.488 494.044 -116 568 C-116.326 568.943 -116.651 569.886 -116.987 570.858 C-141.414 641.624 -164.642 713.156 -181.625 786.125 C-181.83 786.999 -182.035 787.873 -182.247 788.774 C-183.199 792.841 -184.132 796.909 -185.023 800.99 C-185.348 802.406 -185.674 803.822 -186 805.238 C-186.268 806.456 -186.536 807.673 -186.812 808.927 C-188.227 812.587 -189.739 813.89 -193 816 C-195.789 817.16 -195.789 817.16 -198.625 818.062 C-202.257 819.222 -204.527 820.081 -207 823 C-207.722 824.791 -207.722 824.791 -208.22 826.817 C-208.318 827.203 -208.318 827.203 -208.812 829.153 C-209.015 829.995 -209.217 830.836 -209.426 831.703 C-209.89 833.545 -210.354 835.388 -210.818 837.23 C-211.061 838.209 -211.303 839.187 -211.553 840.196 C-221.354 879.615 -233.512 918.362 -246 957 C-246.292 957.904 -246.584 958.808 -246.885 959.74 C-250.754 971.714 -254.658 983.676 -258.593 995.628 C-260.842 1002.462 -263.075 1009.301 -265.296 1016.143 C-267.143 1021.828 -269.001 1027.509 -270.868 1033.187 C-272.006 1036.654 -273.14 1040.122 -274.261 1043.594 C-283.208 1071.298 -294.239 1093.322 -315.707 1113.516 C-316.336 1114.116 -316.966 1114.717 -317.615 1115.336 C-318.833 1116.492 -320.066 1117.633 -321.317 1118.753 C-328.226 1125.321 -329.256 1133.962 -330.438 1143.062 C-330.557 1143.931 -330.677 1144.8 -330.801 1145.694 C-331.585 1151.49 -332.272 1157.295 -332.938 1163.105 C-339.268 1218.232 -339.268 1218.232 -358.777 1234.434 C-369.674 1242.113 -383.554 1244.705 -396.633 1242.57 C-403.778 1240.8 -409.179 1237.198 -413.312 1231.047 C-424.027 1211.036 -417.169 1184.123 -411.25 1163.625 C-406.856 1149.474 -399.975 1137.825 -391.784 1125.551 C-384.367 1114.43 -377.432 1103.694 -373 1091 C-372.832 1090.523 -372.832 1090.523 -371.982 1088.107 C-367.085 1073.941 -363.008 1059.576 -359.062 1045.125 C-352.831 1022.329 -345.436 1000.123 -336.527 978.224 C-330.992 964.613 -325.912 950.847 -321 937 C-320.747 936.289 -320.494 935.578 -320.233 934.845 C-301.107 881.072 -285.733 826.141 -270.591 771.146 C-267.295 759.179 -263.994 747.214 -260.688 735.25 C-260.5 734.571 -260.312 733.892 -260.119 733.193 C-235.426 643.85 -206.123 557.369 -171.567 471.369 C-165.036 455.116 -158.518 438.858 -152.007 422.597 C-150.055 417.724 -148.102 412.85 -146.146 407.978 C-138.235 388.268 -130.38 368.54 -122.762 348.715 C-122.456 347.92 -122.151 347.125 -121.836 346.306 C-116.061 331.263 -110.438 316.168 -105 301 C-104.751 300.305 -104.501 299.61 -104.244 298.894 C-90.946 261.824 -78.687 224.556 -68.652 186.459 C-68.049 184.183 -67.433 181.911 -66.812 179.64 C-60.36 155.835 -57.877 131.579 -55.52 107.095 C-54.177 93.222 -52.607 79.444 -50.445 65.672 C-50.342 65.008 -50.238 64.343 -50.131 63.659 C-42.088 12.527 -42.088 12.527 -24.613 -0.918 C-16.446 -6.396 -8.168 -4.294 0 0 Z " fill="#000000" transform="translate(1708,1765)"/>
<path d="M0 0 C26.794 13.204 53.382 24.171 82.162 32.25 C104.928 38.646 126.3 47.631 145.89 61.037 C163.654 73.143 182.41 83.868 201.081 94.494 C203.986 96.149 206.885 97.813 209.783 99.48 C244.406 119.312 280.121 137.263 315.787 155.125 C316.734 155.599 317.68 156.074 318.655 156.563 C328.558 161.525 338.485 166.422 348.494 171.168 C364.684 178.859 380.693 186.921 396.723 194.937 C400.391 196.771 404.061 198.603 407.732 200.431 C445.084 219.039 445.084 219.039 463.004 229.063 C466.811 231.156 470.676 233.134 474.537 235.125 C482.834 239.455 490.912 244.118 498.976 248.866 C505.847 252.911 512.767 256.857 519.725 260.75 C530.353 266.719 540.773 272.997 551.15 279.393 C554.279 281.321 557.412 283.243 560.545 285.164 C572.222 292.327 583.864 299.545 595.475 306.816 C602.716 311.35 609.976 315.855 617.245 320.345 C622.759 323.754 628.257 327.186 633.748 330.632 C656.993 345.212 680.495 359.365 704.162 373.25 C705.248 373.886 706.333 374.523 707.451 375.179 C722.602 384.048 737.92 392.544 753.425 400.778 C755.73 402.017 758.012 403.285 760.283 404.585 C774.439 412.641 789.978 417.557 805.381 422.652 C806.289 422.952 807.196 423.253 808.132 423.563 C812.675 425.065 817.221 426.555 821.775 428.025 C830.461 430.852 839.019 433.862 847.455 437.371 C848.215 437.683 848.974 437.996 849.756 438.318 C863.288 444.091 872.073 452.449 877.719 466.139 C881.162 474.759 881.162 474.759 881.162 477.25 C881.913 476.972 882.663 476.695 883.436 476.41 C899.466 470.737 910.629 472.957 926.1 479.562 C926.611 479.778 926.611 479.778 929.196 480.87 C941.734 486.247 953.981 492.235 966.206 498.282 C968.208 499.272 970.212 500.259 972.217 501.246 C988.079 509.059 1003.815 517.033 1019.264 525.642 C1022.503 527.438 1025.754 529.212 1029.006 530.984 C1045.615 540.046 1061.958 549.478 1078.162 559.25 C1079.213 559.882 1080.263 560.514 1081.345 561.166 C1084.391 563.002 1087.434 564.843 1090.475 566.687 C1091.433 567.267 1092.39 567.847 1093.377 568.444 C1097.26 570.81 1101.12 573.178 1104.858 575.769 C1113.02 581.384 1121.396 585.084 1130.639 588.626 C1139.431 592.063 1146.713 596.395 1152.162 604.25 C1154.888 610.739 1155.509 619.192 1153.272 625.933 C1149.878 633.019 1144.157 637.002 1137.162 640.25 C1131.743 641.884 1126.772 642.589 1121.1 642.562 C1120.775 642.57 1120.775 642.57 1119.133 642.611 C1105.07 642.624 1093.212 637.967 1080.787 632 C1079.253 631.278 1077.719 630.559 1076.183 629.841 C1073.035 628.368 1069.89 626.888 1066.747 625.403 C1060.501 622.459 1054.209 619.62 1047.916 616.78 C1018.729 603.594 989.692 590.085 960.752 576.365 C955.621 573.935 950.482 571.523 945.338 569.121 C930.787 562.319 916.315 555.405 901.973 548.171 C895.2 544.756 888.396 541.426 881.537 538.187 C870.252 532.842 859.083 527.267 847.912 521.687 C847.027 521.246 846.142 520.804 845.23 520.35 C835.1 515.296 825.02 510.161 815.014 504.866 C809.98 502.202 804.931 499.571 799.862 496.976 C799.204 496.639 798.545 496.302 797.867 495.955 C796.54 495.276 795.214 494.597 793.886 493.918 C783.034 488.36 772.231 482.737 761.555 476.845 C754.188 472.786 746.76 468.848 739.322 464.92 C728.349 459.123 717.455 453.227 706.682 447.062 C699.247 442.822 691.719 438.768 684.162 434.75 C673.683 429.173 663.31 423.432 652.994 417.558 C646.618 413.93 640.204 410.369 633.787 406.812 C621.926 400.234 610.086 393.617 598.255 386.983 C593.059 384.07 587.86 381.16 582.662 378.25 C580.579 377.083 578.496 375.916 576.412 374.75 C575.381 374.172 574.35 373.595 573.287 373 C538.912 353.75 538.912 353.75 535.788 352 C533.702 350.832 531.615 349.663 529.529 348.495 C524.368 345.606 519.21 342.715 514.053 339.82 C499.973 331.917 485.851 324.092 471.707 316.305 C467.422 313.945 463.141 311.578 458.862 309.207 C444.635 301.327 430.355 293.561 416.006 285.906 C410.403 282.916 404.812 279.903 399.226 276.882 C387.524 270.557 375.76 264.364 363.948 258.25 C359.738 256.07 355.538 253.873 351.348 251.656 C320.447 235.308 289.174 219.703 257.885 204.115 C236.702 193.558 215.681 182.787 195.164 170.976 C191.923 169.112 188.676 167.26 185.428 165.41 C167.645 155.278 149.863 145.137 132.221 134.761 C117.282 125.978 102.184 117.519 86.966 109.232 C85.208 108.274 83.451 107.315 81.694 106.355 C24.396 75.112 -35.536 46.578 -99.838 33.25 C-100.271 33.158 -100.271 33.158 -102.466 32.697 C-107.252 32.062 -112.002 32.053 -116.826 32.003 C-118.998 31.971 -121.171 31.937 -123.343 31.904 C-126.747 31.857 -130.15 31.812 -133.553 31.773 C-136.853 31.733 -140.152 31.681 -143.451 31.628 C-144.457 31.62 -145.464 31.612 -146.501 31.603 C-157.852 31.406 -166.227 29.487 -174.65 21.625 C-181.267 12.75 -180.474 0.745 -179.838 -9.75 C-179.8 -10.519 -179.762 -11.287 -179.723 -12.079 C-178.947 -24.688 -178.947 -24.688 -174.564 -28.973 C-171.368 -30.685 -168.318 -31.735 -164.838 -32.75 C-163.477 -33.205 -162.118 -33.664 -160.759 -34.125 C-105.135 -52.361 -49.092 -24.215 0 0 Z " fill="#000000" transform="translate(1891.8376159667969,1536.7504577636719)"/>
<path d="M0 0 C7.073 5.665 10.902 13.504 15.037 21.377 C22.964 36.351 32.254 42.285 48.051 47.293 C51.503 48.336 54.964 49.346 58.426 50.355 C68.589 53.338 76.397 56.521 84.219 63.809 C129.665 103.676 191.169 126.277 246.303 149.16 C274.116 160.705 301.725 172.635 329.051 185.293 C330.144 185.798 331.237 186.303 332.363 186.824 C345.648 192.989 358.598 199.632 371.373 206.794 C373.993 208.261 376.623 209.709 379.254 211.156 C396.628 220.801 412.958 231.959 429.176 243.418 C454.064 260.984 480.498 276.4 507.051 291.293 C508.107 291.887 509.162 292.48 510.25 293.092 C527.687 302.874 545.337 312.181 563.146 321.268 C567.367 323.424 571.573 325.605 575.77 327.809 C593.667 337.203 611.814 346.046 630.007 354.85 C634.997 357.265 639.982 359.692 644.965 362.121 C660.736 369.809 676.52 377.463 692.359 385.01 C701.6 389.416 710.828 393.849 720.051 398.293 C720.675 398.593 721.298 398.894 721.941 399.203 C788.625 431.324 788.625 431.324 816.774 447.042 C819.85 448.732 822.965 450.344 826.083 451.957 C837.407 457.813 848.394 464.206 859.361 470.702 C861.685 472.077 864.015 473.441 866.348 474.801 C886.819 486.798 905.86 501.216 924.399 515.979 C929.595 520.111 934.826 524.198 940.051 528.293 C940.726 528.823 941.401 529.352 942.097 529.898 C959.423 543.477 976.936 556.78 995.051 569.293 C995.662 569.719 996.272 570.145 996.902 570.583 C1045.84 604.611 1105.843 620.932 1161.988 639.105 C1285.558 679.116 1285.558 679.116 1305.051 697.293 C1305.911 698.063 1306.77 698.832 1307.656 699.625 C1315.774 707.239 1321.766 715.275 1322.223 726.719 C1321.814 732.84 1319.449 738.007 1315.051 742.293 C1305.062 749.313 1290.994 756.088 1278.501 755.089 C1273.593 753.956 1269.162 751.975 1264.551 749.973 C1263.508 749.526 1262.465 749.08 1261.391 748.62 C1257.941 747.142 1254.496 745.655 1251.051 744.168 C1248.624 743.127 1246.197 742.086 1243.77 741.046 C1239.356 739.154 1234.942 737.26 1230.53 735.364 C1218.195 730.062 1205.842 724.802 1193.488 719.543 C1191.235 718.583 1188.981 717.624 1186.728 716.664 C1148.361 700.328 1148.361 700.328 1129.546 692.459 C1124.793 690.465 1120.062 688.429 1115.35 686.338 C1098.989 679.09 1083.869 674.536 1066.074 672.418 C1053.808 670.763 1042.614 665.422 1031.426 660.355 C1030.812 660.078 1030.197 659.801 1029.565 659.516 C1007.48 649.538 985.963 638.55 965.051 626.293 C964.201 625.796 963.351 625.299 962.476 624.787 C939.216 611.124 916.79 596.197 894.384 581.194 C857.794 556.693 821.238 532.266 783.051 510.293 C780.961 509.089 778.871 507.884 776.781 506.68 C776.255 506.376 776.255 506.376 773.591 504.841 C772.526 504.227 771.461 503.613 770.363 502.98 C769.287 502.36 768.21 501.74 767.101 501.101 C737.764 484.182 708.587 466.969 679.668 449.347 C672.161 444.773 664.63 440.247 657.051 435.793 C648.88 430.992 640.768 426.1 632.676 421.168 C620.943 414.018 609.149 406.975 597.325 399.976 C596.06 399.228 594.796 398.479 593.531 397.73 C592.912 397.364 592.294 396.998 591.656 396.621 C586.593 393.62 581.545 390.595 576.5 387.563 C570.488 383.952 564.46 380.367 558.426 376.793 C557.862 376.459 557.298 376.125 556.718 375.781 C527.075 358.226 497.346 340.823 467.241 324.07 C463.98 322.254 460.722 320.432 457.465 318.609 C422.132 298.87 386.461 280.487 349.359 264.301 C347.11 263.319 344.864 262.332 342.618 261.344 C317.668 250.368 292.469 240.037 267.211 229.793 C115.674 168.318 115.674 168.318 60.051 135.293 C59.108 134.738 58.165 134.184 57.193 133.612 C25.548 114.951 -2.277 93.349 -28.138 67.31 C-30.901 64.529 -33.671 61.756 -36.443 58.984 C-38.226 57.197 -40.008 55.409 -41.789 53.621 C-42.606 52.803 -43.423 51.985 -44.264 51.143 C-49.021 46.346 -53.554 41.422 -57.949 36.293 C-60.044 33.948 -62.145 31.61 -64.25 29.273 C-68.299 24.554 -68.385 21.401 -68.254 15.367 C-67.637 9.14 -65.256 5.075 -60.512 1.043 C-44.656 -9.509 -16.485 -9.542 0 0 Z " fill="#000000" transform="translate(1801.94921875,1231.70703125)"/>
<path d="M0 0 C8.358 4.018 12.591 11.262 15.84 19.629 C20.938 34.443 23.284 49.393 24 65 C24.066 66.156 24.131 67.313 24.199 68.504 C24.485 78.128 23.475 87.515 22.289 97.059 C22.201 97.776 22.113 98.493 22.022 99.232 C20.116 114.722 17.829 130.146 15.406 145.563 C15.053 147.81 14.702 150.058 14.351 152.306 C1.177 236.624 -14.034 320.584 -35.512 429.543 C-35.994 431.971 -36.476 434.398 -36.957 436.826 C-53.119 518.308 -70.318 599.608 -88.976 680.557 C-89.676 683.591 -90.374 686.627 -91.07 689.662 C-111.756 779.788 -133.983 869.54 -161 958 C-161.277 958.91 -161.554 959.819 -161.84 960.756 C-191.518 1058.118 -224.525 1154.961 -266 1248 C-266.36 1248.808 -266.72 1249.617 -267.09 1250.45 C-269.44 1255.721 -271.811 1260.983 -274.203 1266.236 C-274.968 1267.918 -275.73 1269.601 -276.489 1271.285 C-283.485 1286.781 -290.941 1301.728 -305 1312 C-315.931 1307.237 -321.806 1296.388 -326.238 1285.947 C-328.015 1281.407 -329.175 1276.795 -330 1272 C-330.091 1271.486 -330.091 1271.486 -330.551 1268.887 C-339.169 1194.318 -294.944 1112.932 -269.308 1045.066 C-262.446 1026.898 -255.641 1008.709 -248.919 990.488 C-247.979 987.942 -247.036 985.396 -246.092 982.851 C-227.188 931.791 -209.312 880.275 -195.125 827.688 C-194.907 826.882 -194.689 826.076 -194.465 825.246 C-192.92 819.511 -191.443 813.761 -190 808 C-189.757 807.039 -189.514 806.077 -189.264 805.087 C-185.063 788.301 -182.228 771.52 -179.955 754.374 C-179.495 750.932 -179.02 747.493 -178.546 744.053 C-177.753 738.289 -176.967 732.523 -176.187 726.757 C-174.531 714.53 -172.861 702.305 -171.163 690.084 C-170.522 685.469 -169.895 680.852 -169.27 676.234 C-167.47 663.114 -165.391 650.075 -162.918 637.066 C-162.794 636.405 -162.671 635.743 -162.544 635.062 C-160.02 621.627 -160.02 621.627 -157 616 C-153.457 613.812 -149.151 613.339 -145.086 612.562 C-143 612 -143 612 -140 610 C-139.696 607.415 -139.583 605.057 -139.594 602.469 C-139.574 600.875 -139.554 599.282 -139.534 597.688 C-139.529 596.844 -139.524 596 -139.519 595.13 C-139.487 590.655 -139.392 586.181 -139.293 581.707 C-139.273 580.797 -139.253 579.888 -139.232 578.95 C-137.303 500.161 -116.05 421.957 -97.562 345.812 C-91.573 321.139 -85.59 296.466 -80.042 271.688 C-79.493 269.239 -78.941 266.79 -78.386 264.342 C-68.94 222.627 -62.771 180.286 -56.5 138.004 C-52.909 113.793 -49.276 89.607 -44.812 65.539 C-44.734 65.114 -44.734 65.114 -44.338 62.961 C-43.289 57.294 -42.177 51.642 -41 46 C-40.81 45.088 -40.621 44.175 -40.426 43.235 C-39.826 40.399 -39.2 37.569 -38.566 34.74 C-38.384 33.875 -38.201 33.011 -38.012 32.12 C-36.069 23.716 -31.862 18.148 -26 12 C-25.377 11.286 -24.755 10.572 -24.113 9.836 C-17.565 2.661 -9.908 -1.795 0 0 Z " fill="#000000" transform="translate(2386,1987)"/>
<path d="M0 0 C1.268 -0.012 2.537 -0.024 3.844 -0.037 C11.415 -0.049 18.488 0.497 25.875 2.188 C27.673 25.619 28.028 48.997 23.875 72.188 C23.818 72.509 23.818 72.509 23.529 74.135 C13.998 127.696 -2.661 178.947 -20.74 230.155 C-46.746 303.839 -65.304 379.315 -79.125 456.188 C-79.337 457.36 -79.549 458.533 -79.768 459.741 C-91.021 522.095 -99.368 584.932 -108.216 647.662 C-123.397 755.286 -123.397 755.286 -132.125 804.188 C-132.311 805.232 -132.496 806.276 -132.688 807.352 C-145.906 881.392 -162.176 955.145 -179.455 1028.337 C-180.134 1031.224 -180.805 1034.113 -181.473 1037.003 C-199.659 1115.612 -221.883 1193.556 -250.552 1269.021 C-251.558 1271.673 -252.546 1274.331 -253.511 1276.999 C-254.668 1280.197 -255.859 1283.381 -257.062 1286.562 C-257.367 1287.431 -257.672 1288.299 -257.987 1289.194 C-259.645 1293.413 -260.464 1294.845 -264.617 1296.996 C-266.113 1297.418 -267.617 1297.813 -269.125 1298.188 C-271.078 1298.791 -273.03 1299.4 -274.98 1300.012 C-277.09 1300.636 -279.201 1301.257 -281.312 1301.875 C-282.379 1302.195 -283.446 1302.516 -284.545 1302.846 C-285.576 1303.148 -286.606 1303.45 -287.668 1303.762 C-288.596 1304.036 -289.525 1304.31 -290.481 1304.593 C-293.187 1305.201 -295.368 1305.521 -298.125 1305.188 C-307.655 1290.892 -298.552 1256.38 -296.125 1240.188 C-296.061 1239.757 -296.061 1239.757 -295.735 1237.575 C-286.671 1177.191 -274.041 1117.374 -260.973 1057.746 C-241.671 969.662 -225.209 881.045 -197.004 717.113 C-196.937 716.716 -196.937 716.716 -196.596 714.705 C-195.908 710.646 -195.22 706.587 -194.533 702.529 C-175.973 592.989 -175.973 592.989 -167.265 543.71 C-166.704 540.528 -166.145 537.346 -165.588 534.165 C-158.145 491.712 -149.903 449.385 -139.188 407.625 C-138.844 406.273 -138.501 404.922 -138.158 403.57 C-135.843 394.435 -133.495 385.308 -131.125 376.188 C-130.865 375.183 -130.604 374.179 -130.336 373.144 C-121.852 340.486 -112.171 308.153 -102.713 275.767 C-89.168 229.386 -75.766 182.985 -63.876 136.145 C-63.179 133.399 -62.476 130.654 -61.773 127.91 C-56.394 106.795 -53.325 85.907 -51.315 64.223 C-47.15 19.504 -47.15 19.504 -33.957 8.355 C-23.265 0.792 -12.745 0.006 0 0 Z " fill="#000000" transform="translate(2938.125,2275.8125)"/>
<path d="M0 0 C6.752 4.181 9.87 11.753 13.359 18.586 C13.623 19.099 13.623 19.099 14.96 21.697 C25.055 41.487 25.055 41.487 24.359 48.461 C23.074 51.066 23.074 51.066 21.297 53.648 C20.66 54.6 20.023 55.551 19.367 56.531 C18.705 57.498 18.042 58.465 17.359 59.461 C16.119 61.308 14.89 63.162 13.672 65.023 C13.132 65.829 12.592 66.635 12.035 67.465 C8.058 74.576 5.686 82.236 3.73 90.109 C3.5 91.017 3.269 91.925 3.032 92.861 C2.277 95.85 1.535 98.843 0.797 101.836 C0.536 102.888 0.275 103.939 0.007 105.023 C-20.12 186.454 -32.773 269.465 -45.094 352.363 C-45.495 355.065 -45.897 357.767 -46.299 360.468 C-46.349 360.806 -46.349 360.806 -46.603 362.516 C-47.74 370.164 -48.878 377.813 -50.016 385.461 C-50.119 386.154 -50.222 386.847 -50.328 387.561 C-62.217 467.453 -74.611 547.176 -93.035 625.871 C-93.597 628.274 -94.154 630.677 -94.709 633.082 C-105.855 681.124 -123.16 727.779 -139.578 774.211 C-167.128 852.139 -182.603 930.064 -195.315 1011.567 C-200.939 1047.625 -206.582 1083.649 -213.641 1119.461 C-213.811 1120.327 -213.981 1121.193 -214.156 1122.085 C-232.223 1213.764 -232.223 1213.764 -254.641 1243.461 C-255.288 1244.328 -255.935 1245.196 -256.602 1246.09 C-265.199 1257.218 -274.745 1265.135 -286.641 1272.461 C-287.346 1272.906 -288.051 1273.35 -288.777 1273.809 C-291.556 1274.781 -292.869 1274.494 -295.641 1273.461 C-298.001 1271.727 -300.03 1269.736 -302.078 1267.648 C-302.651 1267.07 -303.225 1266.492 -303.815 1265.897 C-310.865 1258.504 -316.136 1249.376 -315.906 1238.883 C-315.141 1231.905 -312.537 1225.296 -309.602 1218.968 C-303.585 1205.956 -300.164 1193.321 -297.512 1179.273 C-297.078 1177.071 -296.641 1174.87 -296.203 1172.668 C-295.281 1168.015 -294.373 1163.36 -293.476 1158.702 C-292.058 1151.338 -290.606 1143.981 -289.149 1136.624 C-287.435 1127.968 -285.727 1119.31 -284.028 1110.65 C-280.327 1091.792 -276.499 1072.962 -272.578 1054.148 C-272.422 1053.4 -272.267 1052.652 -272.106 1051.881 C-252.94 959.78 -232.056 868.037 -191.766 696.836 C-191.54 695.893 -191.314 694.949 -191.082 693.978 C-186.132 673.298 -181.165 652.623 -176.173 631.954 C-164.652 584.241 -153.252 536.524 -143.074 488.504 C-142.638 486.448 -142.201 484.393 -141.765 482.337 C-127.424 414.777 -114.594 346.9 -101.953 279.004 C-101.714 277.722 -101.476 276.441 -101.23 275.12 C-100.018 268.612 -98.807 262.103 -97.596 255.595 C-97.111 252.988 -96.626 250.381 -96.141 247.773 C-95.901 246.488 -95.662 245.202 -95.416 243.877 C-88.539 206.931 -81.521 170.016 -74.222 133.151 C-73.588 129.95 -72.956 126.748 -72.324 123.547 C-65.117 87.066 -65.117 87.066 -61.293 70.344 C-61.069 69.362 -60.845 68.379 -60.615 67.367 C-55.461 45.444 -46.232 16.848 -27.641 2.461 C-18.18 -3.244 -10.325 -3.948 0 0 Z " fill="#000000" transform="translate(2756.640625,2215.5390625)"/>
<path d="M0 0 C0.504 0.007 0.504 0.007 3.057 0.041 C5.518 0.076 7.977 0.125 10.438 0.188 C15.043 53.722 3.711 106.896 -5.496 159.371 C-6.782 166.707 -8.055 174.044 -9.306 181.386 C-25.362 275.654 -49.093 368.242 -73.799 463.289 C-96.498 550.61 -118.817 638.1 -133.562 727.188 C-133.684 727.913 -133.805 728.638 -133.93 729.385 C-138.118 754.585 -139.178 780.163 -140.812 805.624 C-144.72 866.341 -144.72 866.341 -147.562 886.688 C-147.704 887.712 -147.846 888.736 -147.992 889.791 C-149.842 901.692 -154.108 912.867 -158.25 924.125 C-161.795 933.898 -165.013 943.707 -167.938 953.688 C-175.615 979.805 -184.64 1005.475 -193.562 1031.188 C-208.357 1073.829 -208.357 1073.829 -214.562 1093.188 C-214.741 1093.74 -214.741 1093.74 -215.642 1096.538 C-220.328 1111.323 -223.16 1126.204 -225.435 1141.518 C-227.651 1156.22 -230.66 1171.285 -241.562 1182.188 C-253.331 1190.851 -266.333 1193.362 -280.625 1193.438 C-281.605 1193.458 -282.586 1193.479 -283.596 1193.5 C-292.825 1193.55 -292.825 1193.55 -296.562 1190.188 C-298.109 1187.883 -298.109 1187.883 -299.312 1185.312 C-299.516 1184.891 -299.516 1184.891 -300.547 1182.758 C-317.001 1141.116 -279.007 1067.775 -263.859 1029.164 C-263.441 1028.095 -263.023 1027.027 -262.592 1025.926 C-260.503 1020.589 -258.405 1015.256 -256.287 1009.931 C-251.256 997.189 -246.995 984.45 -243.562 971.188 C-243.454 970.769 -243.454 970.769 -242.903 968.654 C-241.328 962.556 -239.835 956.439 -238.375 950.312 C-238.143 949.342 -237.912 948.371 -237.673 947.37 C-223.633 888.248 -213.831 828.22 -204.297 768.238 C-204.059 766.742 -203.821 765.246 -203.583 763.749 C-201.299 749.382 -199.02 735.014 -196.766 720.642 C-192.032 690.453 -187.174 660.299 -181.742 630.227 C-181.522 629.007 -181.302 627.788 -181.076 626.531 C-172.487 579.05 -162.041 532.046 -150.562 485.188 C-150.275 484.012 -149.988 482.837 -149.693 481.625 C-140.939 445.79 -131.702 410.083 -122.417 374.382 C-107.335 316.386 -92.35 258.416 -79.779 199.812 C-78.888 195.667 -77.965 191.531 -77.018 187.399 C-71.798 164.507 -69.148 141.278 -66.489 117.979 C-64.986 104.891 -63.314 91.867 -61.004 78.891 C-60.805 77.774 -60.606 76.656 -60.401 75.506 C-56.032 51.874 -49.009 23.472 -28.926 8.18 C-19.371 1.81 -11.427 -0.295 0 0 Z " fill="#000000" transform="translate(2580.5625,2105.8125)"/>
<path d="M0 0 C6.861 5.302 9.178 13.186 10.596 21.436 C11.508 29.482 11.345 37.599 11.312 45.688 C11.31 46.649 11.308 47.61 11.306 48.6 C11.253 63.263 10.724 77.558 8 92 C7.812 93.034 7.624 94.067 7.43 95.132 C2.972 119.085 -4.057 142.397 -11.301 165.629 C-17.473 185.44 -23.253 205.262 -28.215 225.414 C-28.778 227.684 -29.341 229.954 -29.904 232.225 C-35.419 254.504 -40.735 276.83 -45.983 299.173 C-46.772 302.532 -47.563 305.891 -48.353 309.25 C-66.386 385.869 -83.79 462.632 -101.218 539.39 C-120.557 624.562 -140.012 709.713 -180.804 877.283 C-181.477 879.969 -182.149 882.655 -182.821 885.341 C-183.638 888.607 -184.456 891.874 -185.273 895.141 C-185.432 895.773 -185.432 895.773 -186.232 898.971 C-187.72 904.907 -189.212 910.843 -190.716 916.775 C-198.214 946.357 -204.582 975.969 -210 1006 C-210.214 1007.185 -210.428 1008.371 -210.648 1009.592 C-211.104 1012.117 -211.56 1014.641 -212.016 1017.166 C-226.192 1095.656 -226.192 1095.656 -238 1130 C-238.308 1130.9 -238.616 1131.8 -238.933 1132.727 C-242.334 1142.421 -246.353 1149.912 -254 1157 C-254.904 1157.886 -255.807 1158.771 -256.738 1159.684 C-268.202 1170.608 -268.202 1170.608 -276.062 1171.25 C-280.623 1169.309 -282.939 1165.797 -286 1162 C-287.49 1160.325 -288.991 1158.658 -290.5 1157 C-291.249 1156.147 -291.998 1155.293 -292.77 1154.414 C-295 1152 -295 1152 -297.199 1150.148 C-299.4 1148.185 -300.733 1146.671 -302 1144 C-302.192 1139.438 -301.31 1135.113 -300.472 1130.65 C-299.558 1125.521 -298.919 1120.353 -298.25 1115.188 C-298.083 1113.923 -297.915 1112.659 -297.743 1111.357 C-296.024 1098.114 -294.757 1084.826 -293.449 1071.538 C-286.464 1000.805 -267.949 936.156 -244.438 869.312 C-224.874 813.645 -209.374 757.687 -197 700 C-196.84 699.254 -196.68 698.508 -196.515 697.739 C-184.564 641.99 -173.665 586.03 -162.766 530.068 C-161.655 524.366 -160.544 518.663 -159.434 512.961 C-159.297 512.259 -159.16 511.557 -159.019 510.834 C-132.872 376.614 -132.872 376.614 -120 320 C-119.852 319.35 -119.705 318.7 -119.552 318.031 C-100.68 235.027 -79.778 151.945 -50.428 71.946 C-45.216 57.611 -42.728 43.217 -40.627 28.121 C-39.086 17.872 -36.577 7.522 -29 0 C-20.807 -5.462 -8.463 -4.463 0 0 Z " fill="#000000" transform="translate(2186,1987)"/>
<path d="M0 0 C3.679 2.782 5.478 5.701 7.227 9.898 C9.467 27.516 1.504 42.464 -6.204 57.712 C-13.502 72.327 -19.118 87.263 -24.366 102.717 C-25.495 106.032 -26.64 109.342 -27.784 112.652 C-29.616 117.957 -31.44 123.263 -33.258 128.572 C-36.324 137.515 -39.445 146.438 -42.572 155.36 C-45.318 163.202 -48.044 171.051 -50.773 178.898 C-51.113 179.875 -51.453 180.852 -51.803 181.858 C-61.324 209.235 -70.762 236.639 -80.058 264.093 C-80.391 265.078 -80.725 266.063 -81.069 267.078 C-81.773 269.158 -82.477 271.239 -83.181 273.319 C-85.31 279.604 -87.453 285.885 -89.609 292.161 C-100.58 324.114 -111.247 356.167 -121.923 388.219 C-123.749 393.702 -125.577 399.183 -127.406 404.665 C-138.747 438.663 -150.069 472.666 -161.086 506.771 C-162.169 510.122 -163.255 513.473 -164.341 516.823 C-166.637 523.909 -168.925 530.997 -171.211 538.086 C-171.412 538.71 -171.614 539.335 -171.821 539.978 C-187.165 587.564 -202.425 635.176 -217.294 682.913 C-217.497 683.566 -217.7 684.218 -217.91 684.89 C-218.113 685.543 -218.317 686.197 -218.526 686.87 C-218.628 687.197 -218.628 687.197 -219.144 688.852 C-219.556 690.175 -219.968 691.498 -220.38 692.821 C-223.589 703.124 -226.821 713.419 -230.066 723.711 C-243.087 765.012 -255.905 806.372 -268.591 847.776 C-270.238 853.152 -271.887 858.527 -273.538 863.901 C-287.336 908.834 -300.899 953.835 -314.37 998.866 C-317.81 1010.364 -321.267 1021.856 -324.75 1033.34 C-325.464 1035.698 -326.177 1038.056 -326.891 1040.415 C-328.134 1044.523 -329.384 1048.629 -330.638 1052.734 C-335.021 1067.16 -337.128 1080.509 -337.896 1095.604 C-338.619 1107.533 -340.64 1118.579 -349.965 1126.84 C-358.689 1133.323 -368.231 1136.738 -378.773 1138.898 C-385.651 1113.656 -385.651 1113.656 -386.773 1102.898 C-386.828 1102.392 -386.828 1102.392 -387.105 1099.828 C-392.114 1045.474 -373.651 992.38 -355.918 941.84 C-355.756 941.377 -355.756 941.377 -354.933 939.032 C-353.381 934.614 -351.819 930.2 -350.238 925.792 C-341.099 900.158 -334.07 873.95 -327.265 847.624 C-324.987 838.816 -322.683 830.016 -320.379 821.215 C-320.262 820.767 -320.262 820.767 -319.668 818.5 C-305.158 763.087 -289.603 707.947 -273.773 652.898 C-273.584 652.241 -273.395 651.584 -273.201 650.906 C-249.464 568.394 -223.79 486.464 -171.766 332.689 C-170.677 329.626 -169.59 326.562 -168.504 323.498 C-155.144 285.814 -141.608 248.193 -127.449 210.801 C-127.225 210.209 -127.225 210.209 -126.091 207.213 C-123.929 201.504 -121.762 195.798 -119.584 190.095 C-112.09 170.419 -105.576 150.659 -99.948 130.372 C-75.979 44.266 -75.979 44.266 -51.773 14.898 C-51.445 14.488 -51.445 14.488 -49.781 12.41 C-37.696 -2.029 -17.663 -10.971 0 0 Z " fill="#000000" transform="translate(2018.7734375,1928.1015625)"/>
</svg>
