<?xml version="1.0" encoding="UTF-8"?>
<!-- Generator: visioncortex VTracer 0.6.12 -->
<svg viewBox="0 0 4500 4500" version="1.1" xmlns="http://www.w3.org/2000/svg" width="4500" height="4500">
<path d="M0 0 C1.313 0.712 2.609 1.458 3.875 2.25 C4.762 2.786 5.649 3.322 6.562 3.875 C20.182 17.863 21.251 38.47 21.173 56.854 C20.659 88.777 13.71 120.953 3.875 151.25 C3.575 152.188 3.275 153.126 2.966 154.092 C-11.396 198.6 -34.92 248.551 -78.102 271.591 C-97.448 281.477 -120.686 285.16 -141.723 278.582 C-157.407 272.442 -168.631 263.237 -176.375 248.062 C-178.125 245.25 -178.125 245.25 -180.52 244.402 C-183.125 244.25 -183.125 244.25 -184.871 245.297 C-185.429 245.859 -185.987 246.421 -186.562 247 C-210.679 269.671 -238.011 282.292 -271.443 281.391 C-277.201 281.089 -282.607 279.929 -288.125 278.25 C-288.568 278.117 -288.568 278.117 -290.809 277.441 C-302.889 273.201 -312.619 264.63 -318.656 253.402 C-327.789 233.252 -324.067 210.709 -318.16 190.184 C-317.859 189.123 -317.558 188.062 -317.247 186.969 C-313.36 173.406 -309.198 159.925 -305.048 146.441 C-303.597 141.723 -302.152 137.004 -300.709 132.284 C-300.22 130.685 -299.731 129.085 -299.241 127.486 C-299 126.695 -298.758 125.905 -298.509 125.09 C-295.556 115.437 -292.601 105.785 -289.625 96.139 C-287.797 90.209 -285.979 84.277 -284.171 78.341 C-283.52 76.212 -282.864 74.084 -282.204 71.959 C-281.302 69.057 -280.417 66.15 -279.535 63.242 C-279.272 62.408 -279.008 61.574 -278.737 60.715 C-277.399 56.235 -276.677 52.863 -278.125 48.25 C-282.056 44.909 -286.471 43.201 -291.27 41.473 C-293.125 40.25 -293.125 40.25 -294.008 38.047 C-294.239 32.531 -291.849 27.421 -290.125 22.25 C-289.382 22.136 -288.64 22.022 -287.875 21.905 C-285.605 21.556 -283.335 21.207 -281.065 20.856 C-278.436 20.452 -275.807 20.05 -273.177 19.651 C-251.77 16.392 -230.982 12.083 -210.125 6.25 C-212.137 14.674 -214.48 22.947 -217.055 31.215 C-217.642 33.116 -218.23 35.017 -218.817 36.918 C-219.443 38.942 -220.07 40.966 -220.698 42.989 C-222.719 49.502 -224.728 56.019 -226.738 62.535 C-227.443 64.818 -228.148 67.101 -228.852 69.384 C-237.368 96.978 -245.762 124.609 -254.125 152.25 C-254.502 153.495 -254.878 154.74 -255.267 156.023 C-257.321 162.817 -259.369 169.613 -261.406 176.413 C-262 178.396 -262.596 180.379 -263.194 182.362 C-264.002 185.046 -264.805 187.732 -265.605 190.418 C-265.835 191.175 -266.064 191.932 -266.3 192.712 C-268.864 201.374 -270.475 209.765 -270.438 218.812 C-270.454 219.598 -270.47 220.384 -270.486 221.193 C-270.492 228.396 -268.901 234.481 -265 240.562 C-258.648 246.5 -250.561 248.667 -241.973 248.523 C-230.699 247.441 -221.142 244.183 -212.125 237.25 C-211.421 236.738 -210.717 236.226 -209.992 235.699 C-195.458 224.214 -188.464 204.998 -183.074 187.957 C-182.689 186.749 -182.304 185.54 -181.907 184.295 C-177.281 169.733 -172.865 155.105 -168.443 140.479 C-166.901 135.379 -165.355 130.28 -163.808 125.181 C-161.658 118.095 -159.508 111.009 -157.36 103.923 C-157.092 103.041 -156.825 102.158 -156.549 101.249 C-155.206 96.819 -153.864 92.388 -152.522 87.957 C-149.702 78.643 -146.878 69.329 -144.046 60.018 C-142.614 55.311 -141.187 50.602 -139.765 45.892 C-138.882 42.976 -137.995 40.062 -137.107 37.148 C-136.7 35.81 -136.295 34.471 -135.892 33.131 C-129.493 11.868 -129.493 11.868 -123.125 8.25 C-117.215 6.463 -111.962 5.976 -105.812 6.055 C-105.385 6.056 -105.385 6.056 -103.224 6.063 C-100.524 6.074 -97.825 6.099 -95.125 6.125 C-93.283 6.135 -91.44 6.144 -89.598 6.152 C-85.107 6.174 -80.616 6.209 -76.125 6.25 C-76.702 10.86 -77.563 15.158 -78.909 19.603 C-79.279 20.835 -79.649 22.066 -80.031 23.334 C-80.441 24.68 -80.851 26.026 -81.262 27.371 C-81.694 28.801 -82.125 30.23 -82.557 31.66 C-83.725 35.53 -84.9 39.398 -86.077 43.266 C-87.063 46.513 -88.046 49.762 -89.029 53.01 C-94.376 70.687 -99.762 88.352 -105.164 106.012 C-105.408 106.81 -105.653 107.609 -105.904 108.432 C-108.254 116.114 -110.605 123.795 -112.965 131.474 C-117.434 146.015 -121.848 160.571 -126.105 175.176 C-126.475 176.437 -126.844 177.699 -127.224 178.999 C-139.499 221.376 -139.499 221.376 -131.438 239.688 C-127.868 245.909 -122.564 249.833 -115.695 251.777 C-102.254 254.249 -89.92 250.845 -78.75 243.23 C-74.261 239.844 -70.133 236.191 -66.125 232.25 C-65.471 231.609 -64.818 230.969 -64.145 230.309 C-28.194 192.431 -6.029 123.499 -5.727 71.949 C-6.185 67.696 -7.162 65.028 -9.125 61.25 C-12.046 59.789 -14.946 59.785 -18.188 59.438 C-26.208 58.44 -32.87 57.047 -38.5 50.938 C-44.479 43.032 -45.081 36.057 -44.125 26.25 C-42.002 16.929 -37.534 8.294 -29.562 2.812 C-20.807 -2.665 -9.703 -4.149 0 0 Z " fill="#191817" transform="translate(1867.125,927.75)"/>
<path d="M0 0 C0.63 0.001 0.63 0.001 3.815 0.007 C4.508 0.007 5.201 0.006 5.914 0.006 C8.214 0.007 10.514 0.015 12.813 0.023 C14.404 0.024 15.994 0.026 17.584 0.027 C21.778 0.031 25.972 0.041 30.166 0.052 C34.442 0.062 38.719 0.066 42.995 0.071 C51.391 0.082 59.788 0.099 68.184 0.12 C67.619 4.602 66.816 8.789 65.492 13.106 C65.317 13.682 65.317 13.682 64.431 16.596 C64.047 17.84 63.662 19.084 63.266 20.366 C62.857 21.704 62.449 23.042 62.041 24.379 C61.162 27.258 60.279 30.136 59.394 33.012 C57.971 37.638 56.556 42.266 55.141 46.894 C53.152 53.396 51.16 59.898 49.166 66.398 C46.351 75.573 43.543 84.751 40.739 93.929 C40.518 94.652 40.297 95.375 40.07 96.119 C39.177 99.042 38.283 101.965 37.39 104.889 C36.034 109.328 34.677 113.767 33.32 118.205 C25.742 142.988 18.204 167.783 10.679 192.581 C5.18 210.7 -0.328 228.816 -5.87 246.921 C-6.368 248.547 -6.865 250.172 -7.363 251.798 C-11.188 264.295 -11.188 264.295 -13.033 270.307 C-15.979 279.906 -18.91 289.509 -21.816 299.12 C-22.038 299.853 -22.26 300.587 -22.488 301.342 C-23.87 305.91 -25.242 310.48 -26.604 315.054 C-27.032 316.49 -27.463 317.925 -27.896 319.36 C-36.083 346.508 -36.083 346.508 -33.816 358.12 C-26.778 358.251 -23.492 355.824 -18.491 351.019 C-13.561 345.678 -9.167 339.936 -4.816 334.12 C-0.913 335.707 1.52 338.254 4.434 341.245 C5.326 342.155 6.218 343.065 7.137 344.003 C7.475 344.352 7.475 344.352 9.184 346.12 C-1.353 365.17 -16.539 380.949 -37.682 387.718 C-47.584 390.457 -60.482 391.082 -69.835 386.429 C-76.801 381.826 -78.657 376.523 -80.37 368.499 C-80.517 367.714 -80.664 366.929 -80.816 366.12 C-81.566 366.7 -82.316 367.28 -83.089 367.878 C-105.302 384.832 -128.514 392.18 -156.538 388.652 C-170.856 385.482 -181.704 377.899 -189.699 365.726 C-198.444 351.485 -199.204 335.488 -199.128 319.308 C-199.126 318.486 -199.124 317.665 -199.122 316.819 C-198.899 263.955 -180.212 211.221 -146.816 170.12 C-146.322 169.512 -145.829 168.905 -145.32 168.278 C-125.387 143.967 -98.681 119.482 -66.816 113.12 C-65.681 112.893 -64.547 112.667 -63.378 112.433 C-48.414 111.12 -33.604 112.595 -20.816 121.12 C-17.676 113.195 -15.246 105.048 -12.745 96.905 C-12.507 96.13 -12.268 95.354 -12.022 94.555 C-10.76 90.454 -9.501 86.352 -8.245 82.249 C-6.953 78.033 -5.652 73.82 -4.348 69.608 C-3.34 66.347 -2.34 63.084 -1.342 59.82 C-0.865 58.266 -0.386 56.713 0.096 55.161 C4.961 39.48 4.961 39.48 5.184 32.12 C3.54 29.547 1.802 28.485 -0.796 26.952 C-1.15 26.743 -1.15 26.743 -2.941 25.683 C-3.624 25.313 -4.307 24.943 -5.011 24.562 C-7.535 22.545 -8.14 21.301 -8.816 18.12 C-8.354 15.099 -7.454 12.269 -6.503 9.37 C-6.264 8.59 -6.025 7.81 -5.779 7.007 C-3.64 0.155 -3.64 0.155 0 0 Z M-91.816 160.12 C-99.661 169.969 -106.017 180.972 -111.816 192.12 C-112.206 192.868 -112.596 193.615 -112.998 194.385 C-128.973 225.429 -138.956 259.475 -145.359 293.692 C-145.739 295.71 -146.147 297.723 -146.562 299.734 C-148.036 307.896 -148.049 316.094 -148.128 324.37 C-148.146 325.567 -148.164 326.765 -148.182 327.998 C-148.173 338.364 -146.568 347.907 -139.816 356.12 C-133.522 361.129 -127.676 361.903 -119.816 361.12 C-104.127 357.253 -93.643 344.732 -85.628 331.495 C-76.542 314.665 -72.11 295.352 -66.579 277.117 C-65.872 274.788 -65.165 272.459 -64.457 270.131 C-64.22 269.348 -63.982 268.565 -63.737 267.758 C-63.616 267.362 -63.616 267.362 -63.009 265.362 C-61.508 260.423 -60.008 255.484 -58.51 250.545 C-55.334 240.079 -52.126 229.623 -48.895 219.174 C-47.012 213.081 -45.14 206.985 -43.27 200.887 C-41.985 196.697 -40.694 192.508 -39.39 188.324 C-38.163 184.384 -36.951 180.441 -35.749 176.494 C-35.307 175.05 -34.859 173.607 -34.405 172.166 C-28.552 153.549 -28.552 153.549 -31.817 145.719 C-34.525 140.811 -38.256 137.184 -43.749 135.542 C-63.32 131.547 -79.99 146.388 -91.816 160.12 Z " fill="#191817" transform="translate(2367.815689086914,819.8797454833984)"/>
<path d="M0 0 C10.147 9.169 15.559 19.343 16.281 33.09 C16.647 50.762 12.307 66.842 7.465 83.703 C7.249 84.459 7.032 85.214 6.81 85.992 C2.201 102.075 -2.662 118.076 -7.586 134.065 C-9.754 141.106 -11.912 148.151 -14.069 155.195 C-14.542 156.738 -15.014 158.28 -15.487 159.822 C-19.326 172.35 -23.131 184.887 -26.867 197.445 C-27.088 198.184 -27.309 198.924 -27.536 199.685 C-28.135 201.692 -28.73 203.699 -29.324 205.707 C-29.64 206.773 -29.955 207.838 -30.281 208.936 C-31.627 213.842 -32.191 218.225 -32.18 223.32 C-32.182 224.435 -32.185 225.55 -32.188 226.699 C-32.077 229.25 -31.801 231.334 -31.055 233.758 C-24.534 233.591 -20.595 230.051 -16.055 225.758 C-11.06 220.416 -6.112 214.844 -2.055 208.758 C1.94 210.378 4.741 213.151 7.758 216.133 C8.273 216.615 8.788 217.097 9.318 217.594 C12.935 221.157 12.935 221.157 12.98 223.797 C2.868 242.954 -15.738 258.943 -36.242 265.633 C-45.637 267.91 -57.622 268.744 -66.27 263.945 C-74.682 258.349 -78.883 251.271 -81.488 241.594 C-84.453 226.751 -82.753 211.766 -79.086 197.219 C-78.98 196.799 -78.98 196.799 -78.446 194.675 C-75.025 181.437 -70.89 168.39 -66.872 155.324 C-65.699 151.505 -64.532 147.684 -63.365 143.864 C-59.453 131.064 -55.522 118.271 -51.583 105.479 C-50.219 101.049 -48.857 96.618 -47.496 92.188 C-46.588 89.24 -45.675 86.295 -44.762 83.349 C-42.1 74.728 -39.534 66.093 -37.211 57.375 C-37.006 56.612 -36.8 55.848 -36.589 55.061 C-34.648 47.619 -32.443 39.165 -35.18 31.695 C-37.445 28.146 -39.706 25.539 -43.793 24.18 C-61.836 20.814 -78.273 28.027 -93.055 37.758 C-97.957 41.121 -102.724 44.637 -107.426 48.273 C-110.292 50.486 -113.156 52.472 -116.277 54.305 C-125.506 60.025 -128.471 66.255 -131.344 76.598 C-131.719 77.884 -132.097 79.169 -132.477 80.453 C-133.277 83.168 -134.066 85.886 -134.848 88.606 C-136.612 94.711 -138.498 100.779 -140.372 106.851 C-141.456 110.368 -142.529 113.888 -143.603 117.408 C-144.048 118.864 -144.492 120.321 -144.937 121.778 C-145.049 122.145 -145.049 122.145 -145.616 124.001 C-146.317 126.299 -147.019 128.596 -147.721 130.893 C-153.114 148.551 -158.5 166.212 -163.875 183.875 C-163.993 184.262 -163.993 184.262 -164.589 186.22 C-166.85 193.653 -169.111 201.085 -171.371 208.518 C-176.565 225.608 -181.792 242.688 -187.055 259.758 C-204.215 259.758 -221.375 259.758 -239.055 259.758 C-235.68 246.258 -235.68 246.258 -234.12 241.156 C-233.766 239.996 -233.413 238.835 -233.049 237.64 C-232.672 236.411 -232.295 235.183 -231.906 233.918 C-231.497 232.579 -231.089 231.239 -230.681 229.9 C-229.807 227.038 -228.932 224.176 -228.056 221.314 C-226.651 216.727 -225.25 212.139 -223.85 207.551 C-222.138 201.943 -220.425 196.335 -218.711 190.727 C-215.712 180.915 -212.721 171.101 -209.734 161.285 C-209.519 160.579 -209.305 159.873 -209.083 159.145 C-207.144 152.771 -205.205 146.398 -203.267 140.023 C-201.973 135.766 -200.678 131.508 -199.383 127.25 C-199.169 126.546 -198.954 125.841 -198.734 125.116 C-195.702 115.15 -192.657 105.189 -189.604 95.23 C-187.88 89.607 -186.159 83.982 -184.44 78.358 C-183.036 73.768 -181.627 69.179 -180.215 64.591 C-179.346 61.762 -178.481 58.932 -177.617 56.101 C-177.026 54.169 -176.43 52.239 -175.834 50.31 C-174.155 44.795 -172.6 39.506 -172.055 33.758 C-172.32 33.595 -172.32 33.595 -173.664 32.77 C-175.118 31.87 -176.565 30.958 -178.004 30.035 C-180.055 28.758 -180.055 28.758 -182.617 27.508 C-184.428 25.303 -184.246 24.497 -184.055 21.695 C-183.731 20.047 -183.397 18.402 -183.055 16.758 C-182.937 15.914 -182.819 15.07 -182.697 14.2 C-181.942 11.048 -181.182 9.232 -179.055 6.758 C-174.155 4.968 -169.279 4.38 -164.109 3.839 C-159.796 3.385 -155.504 2.783 -151.207 2.199 C-150.776 2.143 -150.776 2.143 -148.596 1.857 C-140.61 0.779 -132.912 -0.949 -125.117 -2.992 C-123.989 -3.286 -122.861 -3.58 -121.699 -3.884 C-116.467 -5.274 -111.254 -6.733 -106.055 -8.242 C-108.173 0.596 -110.629 9.304 -113.242 18.008 C-113.61 19.241 -113.978 20.475 -114.357 21.746 C-115.254 24.751 -116.153 27.755 -117.055 30.758 C-116.241 30.031 -115.428 29.304 -114.59 28.555 C-86.544 3.805 -36.099 -29.084 0 0 Z " fill="#191817" transform="translate(2119.0546875,942.2421875)"/>
<path d="M0 0 C0.784 0.041 1.568 0.082 2.375 0.125 C5.013 5.138 4.818 10.339 4.982 15.869 C5.019 16.929 5.057 17.99 5.095 19.083 C5.445 29.695 5.56 40.308 5.637 50.925 C5.694 57.902 5.79 64.879 5.877 71.856 C5.95 77.947 6.011 84.038 6.047 90.13 C6.083 96.091 6.153 102.051 6.245 108.011 C6.274 110.267 6.291 112.523 6.295 114.779 C6.302 117.916 6.352 121.05 6.413 124.186 C6.405 125.109 6.397 126.031 6.388 126.982 C6.569 133.188 6.569 133.188 8.927 135.93 C10.81 137.496 10.81 137.496 12.682 138.771 C15.73 141.209 16.32 143.635 16.75 147.438 C16.271 152.143 15.063 154.243 12.375 158.125 C11.68 158.597 10.985 159.07 10.269 159.557 C8.375 161.125 8.375 161.125 7.852 163.126 C7.841 163.898 7.829 164.67 7.818 165.466 C7.796 166.361 7.773 167.256 7.75 168.179 C7.746 169.166 7.742 170.154 7.737 171.172 C7.717 172.224 7.697 173.276 7.676 174.36 C7.614 177.937 7.58 181.513 7.547 185.09 C7.509 187.69 7.47 190.29 7.429 192.89 C7.333 199.337 7.26 205.784 7.196 212.232 C7.142 217.541 7.08 222.851 7.012 228.16 C5.837 320.807 6.19 413.473 6.375 506.125 C7.637 506.255 8.9 506.384 10.2 506.518 C14.337 506.943 16.429 508.07 19.375 511.125 C23.421 517.11 26.408 523.417 25.891 530.746 C24.21 538.498 19.563 543.517 13.375 548.125 C13.004 548.434 13.004 548.434 11.125 550 C9.375 551.125 9.375 551.125 6.375 551.125 C6.358 619.351 6.342 687.577 6.333 755.803 C6.333 756.308 6.333 756.308 6.332 758.864 C6.329 780.814 6.326 802.764 6.324 824.715 C6.323 835.479 6.321 846.244 6.32 857.009 C6.32 857.544 6.32 857.544 6.32 860.255 C6.315 894.967 6.308 929.68 6.299 964.392 C6.289 1000.068 6.283 1035.743 6.281 1071.419 C6.281 1076.459 6.28 1081.5 6.28 1086.54 C6.28 1087.532 6.28 1088.524 6.28 1089.546 C6.279 1105.507 6.274 1121.467 6.268 1137.427 C6.262 1153.478 6.26 1169.528 6.261 1185.579 C6.262 1195.111 6.26 1204.644 6.254 1214.176 C6.25 1220.551 6.25 1226.926 6.253 1233.3 C6.255 1236.928 6.255 1240.556 6.25 1244.183 C6.222 1268.845 6.222 1268.845 6.629 1278.703 C6.673 1279.879 6.718 1281.055 6.764 1282.266 C7.509 1285.752 8.658 1286.902 11.438 1289.062 C11.845 1289.313 11.845 1289.313 13.906 1290.582 C22.062 1295.679 29.968 1307.104 33.082 1316.188 C34.862 1327.961 31.885 1336.182 25.562 1345.875 C25.355 1346.194 25.355 1346.194 24.307 1347.81 C21.436 1352.039 18.435 1355.018 14.375 1358.125 C13.772 1358.589 13.168 1359.053 12.547 1359.531 C12.078 1359.892 11.608 1360.253 11.125 1360.625 C7.367 1364.041 6.535 1366.584 6.012 1371.613 C5.949 1372.959 5.894 1374.306 5.848 1375.652 C5.778 1377.166 5.709 1378.679 5.64 1380.193 C5.607 1380.986 5.574 1381.779 5.54 1382.596 C5.018 1395.112 4.213 1407.494 2.75 1419.938 C0.721 1438.319 1.087 1456.662 1.375 1475.125 C1.407 1477.328 1.439 1479.532 1.47 1481.735 C1.573 1488.74 1.689 1495.745 1.812 1502.75 C1.832 1503.856 1.851 1504.961 1.871 1506.1 C2.093 1518.333 2.413 1530.551 3.042 1542.771 C3.437 1550.56 3.476 1558.326 3.375 1566.125 C4.289 1566.388 5.203 1566.651 6.145 1566.922 C11.721 1568.999 14.995 1573.122 18.312 1577.938 C19.987 1582.96 20.467 1588.083 18.648 1593.148 C15.568 1598.884 11.136 1603.167 5.375 1606.125 C4.715 1606.125 4.055 1606.125 3.375 1606.125 C3.352 1617.261 3.334 1628.397 3.323 1639.533 C3.318 1644.705 3.311 1649.877 3.3 1655.049 C3.289 1660.048 3.283 1665.048 3.28 1670.047 C3.278 1671.946 3.275 1673.845 3.269 1675.744 C3.22 1693.741 3.22 1693.741 4.129 1702.658 C5.967 1721.075 5.498 1739.893 5.551 1758.38 C5.559 1760.786 5.569 1763.192 5.583 1765.598 C5.601 1769.021 5.605 1772.444 5.605 1775.867 C5.609 1776.383 5.609 1776.383 5.627 1778.992 C5.61 1784.42 5.303 1789.025 3.375 1794.125 C0.904 1796.23 -0.925 1796.157 -4.188 1796.5 C-7.625 1796.125 -7.625 1796.125 -9.5 1794.312 C-12.273 1788.921 -11.809 1783.739 -11.812 1777.812 C-11.825 1776.818 -11.837 1775.823 -11.85 1774.799 C-11.863 1767.757 -11.341 1760.895 -10.629 1753.895 C-9.383 1741.301 -9.319 1728.77 -9.375 1716.125 C-9.377 1714.956 -9.379 1713.788 -9.38 1712.584 C-9.405 1698.576 -9.69 1684.711 -10.909 1670.751 C-12.554 1649.966 -11.787 1628.959 -11.625 1608.125 C-12.406 1607.83 -13.187 1607.535 -13.992 1607.23 C-18.208 1605.46 -20.056 1603.115 -22.312 1599.188 C-24.87 1592.63 -25.727 1584.376 -23.562 1577.625 C-21.732 1573.653 -19.228 1571.551 -15.625 1569.125 C-13.434 1568.496 -13.434 1568.496 -11.625 1568.125 C-11.602 1542.742 -11.584 1517.36 -11.573 1491.977 C-11.568 1480.192 -11.561 1468.406 -11.55 1456.62 C-11.54 1446.345 -11.533 1436.071 -11.531 1425.796 C-11.53 1420.358 -11.527 1414.919 -11.519 1409.481 C-11.512 1404.357 -11.51 1399.234 -11.512 1394.111 C-11.512 1392.235 -11.51 1390.359 -11.506 1388.483 C-11.489 1379.631 -11.486 1370.92 -12.625 1362.125 C-13.41 1361.845 -14.195 1361.566 -15.004 1361.277 C-26.248 1356.987 -31.269 1352.064 -36.336 1341.172 C-40.903 1330.376 -42.612 1319.46 -38.625 1308.125 C-34.014 1298.137 -25.943 1292.897 -16.285 1288.433 C-11.718 1286.311 -11.718 1286.311 -10.625 1284.125 C-10.509 1282.253 -10.458 1280.378 -10.435 1278.503 C-10.418 1277.292 -10.401 1276.082 -10.384 1274.835 C-10.37 1273.472 -10.356 1272.109 -10.343 1270.747 C-10.325 1269.298 -10.307 1267.85 -10.288 1266.401 C-10.237 1262.358 -10.194 1258.315 -10.151 1254.273 C-10.123 1251.649 -10.093 1249.025 -10.063 1246.402 C-9.475 1195.662 -9.122 1144.92 -8.747 1094.178 C-8.673 1084.054 -8.597 1073.93 -8.521 1063.805 C-8.499 1060.839 -8.477 1057.872 -8.455 1054.905 C-8.449 1054.167 -8.444 1053.428 -8.438 1052.667 C-8.284 1032.03 -8.13 1011.392 -7.978 990.755 C-7.973 989.985 -7.967 989.214 -7.961 988.42 C-7.932 984.52 -7.904 980.62 -7.875 976.72 C-7.872 976.333 -7.872 976.333 -7.858 974.375 C-7.846 972.81 -7.835 971.245 -7.823 969.68 C-7.645 945.411 -7.463 921.142 -7.279 896.873 C-7.07 869.288 -6.863 841.703 -6.66 814.118 C-6.639 811.142 -6.617 808.167 -6.595 805.191 C-6.589 804.459 -6.584 803.727 -6.578 802.973 C-6.504 792.901 -6.428 782.829 -6.351 772.757 C-5.79 699.545 -5.498 626.339 -5.625 553.125 C-6.745 552.667 -7.865 552.209 -9.018 551.737 C-14.888 549.113 -16.535 544.72 -18.938 539 C-20.408 530.712 -21.304 521.456 -16.625 514.125 C-12.843 510.343 -9.673 508.681 -4.625 507.125 C-4.733 491.425 -4.845 475.726 -4.964 460.026 C-5.019 452.736 -5.073 445.445 -5.122 438.154 C-5.165 431.795 -5.212 425.435 -5.262 419.076 C-5.288 415.713 -5.313 412.351 -5.334 408.988 C-5.358 405.221 -5.388 401.454 -5.42 397.687 C-5.423 397.138 -5.423 397.138 -5.437 394.36 C-5.485 389.307 -5.657 384.32 -6.119 379.287 C-6.762 372.188 -6.844 365.099 -6.922 357.976 C-6.942 356.491 -6.961 355.005 -6.982 353.52 C-7.035 349.507 -7.083 345.494 -7.13 341.481 C-7.181 337.217 -7.236 332.953 -7.29 328.688 C-7.382 321.489 -7.469 314.289 -7.555 307.089 C-7.642 299.808 -7.732 292.527 -7.825 285.245 C-8.35 244.537 -8.804 203.837 -8.625 163.125 C-9.249 162.843 -9.873 162.56 -10.516 162.27 C-13.869 160.45 -14.397 158.747 -15.625 155.125 C-16.841 144.725 -16.841 144.725 -14.641 140.02 C-12.382 137.196 -9.84 135.63 -6.625 134.125 C-6.621 133.487 -6.617 132.849 -6.612 132.192 C-6.509 116.659 -6.4 101.127 -6.286 85.594 C-6.23 78.082 -6.177 70.571 -6.128 63.059 C-6.085 56.51 -6.038 49.961 -5.988 43.413 C-5.962 39.947 -5.937 36.481 -5.916 33.015 C-5.893 29.141 -5.862 25.268 -5.83 21.394 C-5.825 20.251 -5.819 19.107 -5.813 17.929 C-5.65 0.269 -5.65 0.269 0 0 Z " fill="#191817" transform="translate(2253.625,1461.875)"/>
<path d="M0 0 C7.03 5.601 11.213 11.828 13.113 20.684 C14.253 32.173 12.651 42.136 5.93 51.637 C1.503 56.625 -4.295 60.452 -11.031 60.887 C-11.636 60.894 -11.636 60.894 -14.699 60.934 C-15.902 60.959 -17.105 60.985 -18.344 61.012 C-23.335 60.549 -26.605 58.965 -30.137 55.434 C-34.615 48.396 -35.231 39.743 -33.437 31.656 C-32.698 28.818 -31.939 25.997 -31.046 23.203 C-30.048 19.827 -29.724 18.085 -31.066 14.773 C-32.887 12.684 -32.887 12.684 -36.199 11.684 C-40.575 11.684 -42.361 12.078 -45.887 14.684 C-50.377 21.091 -52.737 28.428 -55.105 35.809 C-55.487 36.977 -55.869 38.145 -56.263 39.348 C-60.613 52.748 -64.714 66.227 -68.791 79.713 C-70.003 83.721 -71.221 87.729 -72.438 91.736 C-73.38 94.837 -74.321 97.939 -75.26 101.041 C-75.591 102.135 -75.922 103.228 -76.264 104.355 C-76.554 105.315 -76.844 106.276 -77.144 107.265 C-77.701 109.078 -78.287 110.884 -78.887 112.684 C-62.717 112.684 -46.547 112.684 -29.887 112.684 C-30.578 117.526 -31.285 121.447 -32.699 126.02 C-33.052 127.166 -33.406 128.311 -33.77 129.492 C-34.138 130.669 -34.507 131.846 -34.887 133.059 C-35.255 134.259 -35.624 135.459 -36.004 136.695 C-38.751 145.548 -38.751 145.548 -39.887 146.684 C-41.452 146.777 -43.022 146.801 -44.59 146.797 C-45.591 146.797 -46.592 146.797 -47.623 146.797 C-48.712 146.792 -49.8 146.787 -50.922 146.781 C-52.03 146.78 -53.139 146.778 -54.281 146.777 C-57.837 146.771 -61.393 146.759 -64.949 146.746 C-67.354 146.741 -69.758 146.737 -72.162 146.732 C-78.07 146.721 -83.979 146.705 -89.887 146.684 C-90.138 147.903 -90.389 149.122 -90.647 150.378 C-92.02 156.539 -93.873 162.541 -95.719 168.574 C-96.107 169.85 -96.494 171.126 -96.881 172.403 C-97.93 175.857 -98.983 179.31 -100.037 182.763 C-101.161 186.447 -102.28 190.132 -103.401 193.817 C-105.283 200.007 -107.167 206.197 -109.054 212.386 C-111.538 220.537 -114.019 228.69 -116.498 236.842 C-120.177 248.941 -123.859 261.039 -127.543 273.137 C-127.759 273.847 -127.976 274.558 -128.199 275.29 C-129.532 279.667 -130.864 284.043 -132.197 288.42 C-135.547 299.418 -138.896 310.416 -142.244 321.415 C-143.601 325.871 -144.958 330.328 -146.316 334.784 C-147.157 337.546 -147.998 340.309 -148.839 343.071 C-149.24 344.388 -149.641 345.704 -150.042 347.021 C-151.972 353.356 -153.895 359.693 -155.778 366.042 C-156.059 366.991 -156.341 367.939 -156.631 368.916 C-157.141 370.639 -157.649 372.362 -158.153 374.087 C-159.777 379.574 -159.777 379.574 -160.887 380.684 C-162.483 380.777 -164.083 380.801 -165.682 380.797 C-166.703 380.797 -167.724 380.797 -168.776 380.797 C-169.886 380.792 -170.997 380.787 -172.141 380.781 C-173.271 380.78 -174.402 380.778 -175.567 380.777 C-179.194 380.771 -182.822 380.759 -186.449 380.746 C-188.902 380.741 -191.354 380.737 -193.807 380.732 C-199.833 380.721 -205.86 380.705 -211.887 380.684 C-211.228 374.6 -209.614 369.012 -207.809 363.176 C-207.49 362.132 -207.172 361.088 -206.844 360.013 C-205.78 356.527 -204.708 353.043 -203.637 349.559 C-202.873 347.061 -202.109 344.563 -201.346 342.064 C-199.923 337.405 -198.498 332.745 -197.071 328.087 C-194.322 319.115 -191.588 310.138 -188.859 301.16 C-188.434 299.76 -188.008 298.361 -187.583 296.961 C-186.939 294.842 -186.295 292.722 -185.651 290.603 C-179.443 270.178 -173.218 249.758 -166.977 229.344 C-166.731 228.541 -166.486 227.739 -166.233 226.912 C-163.855 219.134 -161.477 211.357 -159.096 203.58 C-153.296 184.634 -147.56 165.669 -141.887 146.684 C-149.807 146.684 -157.727 146.684 -165.887 146.684 C-162.034 129.345 -162.034 129.345 -155.887 123.684 C-151.796 121.668 -147.495 120.235 -143.188 118.758 C-142.325 118.445 -141.463 118.131 -140.574 117.809 C-139.794 117.543 -139.014 117.278 -138.211 117.004 C-131.846 113.388 -129.711 107.408 -127.617 100.797 C-127.332 99.94 -127.048 99.084 -126.754 98.201 C-125.848 95.47 -124.96 92.734 -124.074 89.996 C-118.353 72.441 -112.172 55.167 -103.512 38.809 C-103.281 38.371 -103.281 38.371 -102.112 36.159 C-91.524 16.614 -76.32 0.855 -54.887 -6.316 C-37.627 -11.207 -15.18 -10.231 0 0 Z " fill="#191817" transform="translate(2826.88671875,821.31640625)"/>
<path d="M0 0 C23.76 0 47.52 0 72 0 C68.626 13.498 68.626 13.498 67.141 18.282 C66.804 19.372 66.468 20.462 66.121 21.585 C65.763 22.735 65.404 23.885 65.035 25.07 C64.444 26.982 63.853 28.894 63.262 30.805 C62.633 32.839 62.003 34.872 61.372 36.905 C59.104 44.212 56.849 51.524 54.594 58.836 C54.361 59.59 54.128 60.344 53.889 61.12 C49.1 76.637 44.378 92.173 39.678 107.716 C38.643 111.138 37.607 114.56 36.572 117.982 C36.469 118.323 36.469 118.323 35.946 120.051 C35.528 121.434 35.11 122.817 34.691 124.199 C34.272 125.585 33.853 126.97 33.434 128.355 C28.713 143.96 23.969 159.557 19.22 175.153 C18.563 177.31 17.907 179.467 17.25 181.624 C13.265 194.715 9.278 207.806 5.29 220.896 C-0.195 238.901 -5.676 256.907 -11.15 274.915 C-12.175 278.288 -13.201 281.66 -14.227 285.033 C-16.534 292.615 -18.838 300.198 -21.136 307.783 C-21.828 310.063 -22.52 312.344 -23.214 314.623 C-24.16 317.732 -25.102 320.843 -26.043 323.953 C-26.316 324.847 -26.589 325.74 -26.87 326.661 C-31.259 341.229 -31.259 341.229 -31.375 348.375 C-31.403 349.187 -31.432 349.999 -31.461 350.836 C-31 353 -31 353 -29.148 354.789 C-27 356 -27 356 -24.25 356 C-13.355 352.648 -5.811 344.087 0.984 335.391 C3 333 3 333 6 331 C9.96 334.96 13.92 338.92 18 343 C15.276 348.804 12.198 353.845 8.312 358.938 C7.782 359.635 7.252 360.332 6.705 361.051 C-4.298 375.305 -17.797 385.855 -36 389 C-39.56 389.236 -43.12 389.231 -46.688 389.25 C-47.63 389.271 -48.573 389.291 -49.545 389.312 C-59.916 389.37 -69.081 386.933 -77 380 C-84.944 370.641 -84.825 358.658 -84 347 C-83.596 344.249 -83.146 341.598 -82.566 338.887 C-82.396 338.089 -82.226 337.292 -82.051 336.47 C-79.183 323.739 -75.109 311.303 -71.249 298.845 C-70.073 295.042 -68.907 291.235 -67.74 287.429 C-66.037 281.878 -64.331 276.327 -62.622 270.777 C-59.66 261.159 -56.717 251.535 -53.789 241.906 C-53.579 241.215 -53.368 240.523 -53.152 239.81 C-52.09 236.318 -51.028 232.826 -49.967 229.333 C-48.676 225.085 -47.383 220.838 -46.09 216.59 C-41.668 202.064 -37.25 187.537 -32.837 173.008 C-32.08 170.518 -31.324 168.028 -30.567 165.537 C-28.291 158.045 -26.015 150.552 -23.742 143.058 C-22.494 138.942 -21.245 134.827 -19.996 130.711 C-19.75 129.899 -19.503 129.087 -19.249 128.25 C-15.724 116.64 -12.174 105.039 -8.606 93.443 C-7.127 88.633 -5.652 83.823 -4.177 79.012 C-2.791 74.491 -1.397 69.973 0.002 65.456 C0.858 62.685 1.708 59.912 2.556 57.139 C3.131 55.265 3.714 53.394 4.298 51.523 C6.186 45.323 7.766 39.498 8 33 C5.947 30.153 3.8 28.524 0.883 26.613 C0.521 26.368 0.521 26.368 -1.312 25.125 C-2.01 24.694 -2.707 24.264 -3.426 23.82 C-5 22 -5 22 -5 15 C-3.35 10.05 -1.7 5.1 0 0 Z " fill="#191817" transform="translate(2885,820)"/>
<path d="M0 0 C7.771 6.408 10.667 13.706 12.008 23.617 C12.572 34.792 9.22 47.866 1.688 56.25 C-5.315 63.603 -11.122 67.266 -21.312 67.688 C-26.754 67.516 -31.046 66.772 -35.312 63.25 C-39.56 58.324 -41.554 52.425 -43.312 46.25 C-58.959 50.651 -68.777 71.258 -76.312 84.25 C-76.672 84.858 -77.031 85.465 -77.402 86.091 C-91.01 109.236 -98.577 135.451 -106.32 160.979 C-107.422 164.612 -108.528 168.245 -109.634 171.877 C-113.695 185.216 -117.743 198.559 -121.773 211.908 C-122.38 213.915 -122.986 215.922 -123.593 217.93 C-125.538 224.364 -127.479 230.8 -129.41 237.239 C-130.337 240.325 -131.266 243.411 -132.195 246.496 C-132.641 247.978 -133.085 249.46 -133.529 250.943 C-134.141 252.99 -134.757 255.037 -135.375 257.083 C-135.725 258.252 -136.076 259.421 -136.438 260.626 C-137.312 263.25 -137.312 263.25 -138.312 264.25 C-139.909 264.343 -141.509 264.367 -143.108 264.364 C-144.129 264.363 -145.15 264.363 -146.202 264.363 C-147.312 264.358 -148.422 264.353 -149.566 264.348 C-150.697 264.346 -151.828 264.345 -152.992 264.343 C-156.62 264.338 -160.247 264.325 -163.875 264.312 C-166.327 264.307 -168.78 264.303 -171.232 264.299 C-177.259 264.288 -183.286 264.271 -189.312 264.25 C-188.736 259.612 -187.859 255.31 -186.481 250.846 C-186.101 249.606 -185.721 248.366 -185.33 247.088 C-184.91 245.736 -184.49 244.384 -184.07 243.031 C-183.63 241.599 -183.19 240.167 -182.75 238.734 C-181.809 235.671 -180.865 232.608 -179.919 229.546 C-178.424 224.711 -176.939 219.873 -175.455 215.035 C-174.95 213.389 -174.446 211.744 -173.941 210.099 C-173.69 209.279 -173.438 208.46 -173.179 207.615 C-172.153 204.271 -171.126 200.926 -170.098 197.582 C-165.928 184.004 -161.764 170.425 -157.641 156.832 C-156.641 153.538 -155.64 150.245 -154.631 146.955 C-138.934 95.693 -138.934 95.693 -139 71 C-138.984 69.786 -138.968 68.571 -138.951 67.32 C-138.944 53.276 -138.944 53.276 -143.686 47.608 C-146.855 44.961 -151.507 44.571 -155.508 43.859 C-160.866 42.792 -160.866 42.792 -163.031 40.164 C-164.632 36.524 -164.645 33.33 -164.5 29.438 C-164.493 29.091 -164.493 29.091 -164.459 27.338 C-164.424 25.642 -164.37 23.946 -164.312 22.25 C-164.036 22.19 -164.036 22.19 -162.639 21.886 C-139.234 16.733 -118.124 8.176 -97.312 -3.75 C-85.63 12.781 -87.796 32.53 -89.601 51.685 C-90.146 57.573 -90.41 63.336 -90.312 69.25 C-89.976 68.551 -89.64 67.853 -89.294 67.133 C-61.261 9.188 -61.261 9.188 -34.312 -2.75 C-22.459 -6.849 -10.663 -7.51 0 0 Z " fill="#191817" transform="translate(2610.3125,937.75)"/>
<path d="M0 0 C13.722 13.339 19.686 30.631 19.98 49.507 C20.098 71.348 17.908 91.405 2.004 107.82 C-10.765 119.491 -25.871 122.28 -42.691 122.168 C-43.258 122.168 -43.258 122.168 -46.127 122.167 C-48.501 122.164 -50.875 122.156 -53.249 122.143 C-56.896 122.125 -60.543 122.123 -64.189 122.123 C-66.503 122.118 -68.816 122.112 -71.129 122.105 C-72.222 122.104 -73.314 122.103 -74.44 122.102 C-75.445 122.096 -76.451 122.089 -77.487 122.083 C-77.93 122.081 -77.93 122.081 -80.172 122.071 C-82.312 121.938 -82.312 121.938 -84.312 120.938 C-83.983 119.287 -83.652 117.637 -83.312 115.938 C-82.542 115.744 -81.771 115.551 -80.977 115.352 C-79.974 115.091 -78.971 114.831 -77.938 114.562 C-76.94 114.307 -75.942 114.052 -74.914 113.789 C-72.312 112.938 -72.312 112.938 -70.312 110.938 C-68.828 106.11 -69.165 100.979 -69.167 95.978 C-69.164 94.979 -69.161 93.98 -69.157 92.951 C-69.148 89.654 -69.146 86.356 -69.145 83.059 C-69.141 80.766 -69.138 78.473 -69.134 76.181 C-69.128 71.379 -69.127 66.576 -69.127 61.774 C-69.127 55.614 -69.114 49.455 -69.096 43.296 C-69.085 38.563 -69.083 33.83 -69.084 29.097 C-69.083 26.826 -69.078 24.554 -69.07 22.283 C-69.061 19.111 -69.064 15.939 -69.07 12.767 C-69.067 12.297 -69.067 12.297 -69.053 9.916 C-69.057 9.051 -69.061 8.186 -69.065 7.295 C-69.065 6.546 -69.064 5.796 -69.064 5.024 C-69.353 2.601 -70.03 1.006 -71.312 -1.062 C-73.746 -2.279 -75.731 -2.382 -78.438 -2.625 C-79.348 -2.709 -80.258 -2.793 -81.195 -2.879 C-81.545 -2.909 -81.545 -2.909 -83.312 -3.062 C-83.642 -4.383 -83.973 -5.702 -84.312 -7.062 C-59.274 -19.521 -21.82 -18.11 0 0 Z M-51.312 -5.062 C-53.404 -1.925 -53.564 -1.213 -53.573 2.358 C-53.58 3.262 -53.587 4.166 -53.595 5.098 C-53.592 6.088 -53.59 7.077 -53.587 8.097 C-53.592 9.141 -53.597 10.185 -53.603 11.261 C-53.617 14.722 -53.616 18.183 -53.613 21.645 C-53.617 24.047 -53.622 26.45 -53.626 28.853 C-53.634 33.894 -53.633 38.935 -53.628 43.977 C-53.622 50.437 -53.639 56.896 -53.663 63.356 C-53.677 68.32 -53.678 73.285 -53.675 78.249 C-53.676 80.631 -53.681 83.012 -53.691 85.394 C-53.703 88.726 -53.696 92.058 -53.685 95.39 C-53.692 96.373 -53.7 97.357 -53.708 98.37 C-53.667 103.65 -53.287 107.38 -50.312 111.938 C-45.501 116.298 -40.731 116.223 -34.508 116.148 C-24.471 115.486 -15.936 111.061 -9.062 103.75 C4.91 86.1 4.168 59.389 2.469 38.218 C0.667 23.174 -5.282 8.252 -17.164 -1.559 C-24.172 -6.464 -31.344 -8.194 -39.812 -8.312 C-40.364 -8.325 -40.364 -8.325 -43.156 -8.391 C-46.694 -8.023 -48.49 -7.189 -51.312 -5.062 Z " fill="#191817" transform="translate(2009.3125,3563.0625)"/>
<path d="M0 0 C11.092 9.124 16.204 20.327 18.812 34.312 C19.23 38.884 19.29 43.411 19.25 48 C19.242 49.229 19.233 50.458 19.225 51.724 C18.765 76.593 8.785 99.297 -8.207 117.473 C-18.79 127.663 -32.233 132.738 -46.763 132.678 C-56.439 132.45 -64.108 128.903 -71.188 122.312 C-83.645 108.913 -85.936 90.737 -85.477 73.188 C-85.159 66.368 -83.954 59.914 -82.188 53.312 C-81.921 52.313 -81.654 51.314 -81.379 50.285 C-75.038 29.289 -62.637 10.064 -43.188 -0.688 C-29.618 -7.058 -12.883 -9.04 0 0 Z M-45 13.438 C-63.109 37.197 -73.75 71.895 -69.727 101.73 C-67.852 110.255 -64.572 118.503 -57 123.375 C-50.895 126.759 -44.676 127.438 -37.883 125.734 C-22.143 119.573 -13.886 104.003 -7.332 89.457 C-3.827 81.31 -1.358 72.899 0.812 64.312 C0.901 63.969 0.901 63.969 1.352 62.233 C5.44 45.924 6.926 26.002 -1.543 10.895 C-5.131 5.613 -9.176 2.865 -15.125 0.562 C-27.354 -0.92 -37.05 4.279 -45 13.438 Z " fill="#191817" transform="translate(1849.1875,3554.6875)"/>
<path d="M0 0 C26.4 0 52.8 0 80 0 C82.157 4.313 81.227 10.067 81.24 14.858 C81.25 16.992 81.281 19.125 81.312 21.258 C81.319 22.609 81.324 23.961 81.328 25.312 C81.337 26.546 81.347 27.78 81.356 29.051 C81.298 29.537 81.298 29.537 81 32 C80.01 32.66 79.02 33.32 78 34 C74.6 30.995 73.121 28.363 71.562 24.125 C68.53 16.573 65.527 12.328 58.062 8.762 C52.563 6.731 47.163 6.849 41.375 6.875 C40.516 6.871 39.658 6.867 38.773 6.863 C37.948 6.865 37.123 6.866 36.273 6.867 C35.899 6.868 35.899 6.868 34.005 6.871 C32 7 32 7 29 8 C29 24.17 29 40.34 29 57 C42.68 58.14 42.68 58.14 47.5 57.312 C48.459 57.164 49.418 57.016 50.406 56.863 C53.582 55.806 54.945 54.629 57 52 C57.928 49.433 58.494 46.902 59.094 44.242 C60 42 60 42 62.094 40.695 C62.408 40.581 62.408 40.581 64 40 C65 41 65 41 65.12 42.791 C65.118 43.57 65.116 44.35 65.114 45.153 C65.113 45.593 65.113 45.593 65.113 47.822 C65.108 48.779 65.103 49.736 65.098 50.723 C65.096 51.698 65.095 52.673 65.093 53.678 C65.088 56.806 65.075 59.934 65.062 63.062 C65.057 65.178 65.053 67.293 65.049 69.408 C65.038 74.605 65.021 79.803 65 85 C63.35 84.67 61.7 84.34 60 84 C59.885 83.554 59.885 83.554 59.301 81.297 C58.975 80.126 58.649 78.956 58.312 77.75 C57.999 76.59 57.686 75.43 57.363 74.234 C55.806 70.539 54.337 69.153 51 67 C48.117 66.039 46.323 65.883 43.332 65.902 C42.439 65.906 41.547 65.909 40.627 65.912 C39.698 65.92 38.769 65.929 37.812 65.938 C36.872 65.942 35.932 65.947 34.963 65.951 C32.642 65.963 30.321 65.979 28 66 C28.042 73.314 28.114 80.628 28.208 87.942 C28.236 90.43 28.257 92.918 28.271 95.406 C28.292 98.983 28.339 102.56 28.391 106.137 C28.392 107.248 28.393 108.36 28.394 109.505 C28.541 117.244 28.541 117.244 30.921 121.163 C36.25 125.871 42.534 126.328 49.438 126.211 C56.771 125.607 64.147 124.217 69.547 118.922 C73.112 114.207 75.05 108.611 77.055 103.102 C77.387 102.202 77.72 101.302 78.062 100.375 C78.342 99.558 78.622 98.74 78.91 97.898 C80 96 80 96 82.121 95.227 C82.431 95.189 82.431 95.189 84 95 C85.165 102.167 84.994 109.016 84.75 116.25 C84.736 116.889 84.736 116.889 84.668 120.125 C84.628 121.347 84.588 122.569 84.547 123.828 C84.531 124.385 84.531 124.385 84.448 127.2 C84 130 84 130 82.956 131.653 C79.932 133.736 76.798 133.4 73.256 133.356 C72.468 133.358 71.681 133.361 70.87 133.363 C68.266 133.366 65.663 133.347 63.059 133.328 C61.252 133.325 59.445 133.323 57.638 133.322 C53.851 133.318 50.064 133.303 46.277 133.281 C41.415 133.253 36.554 133.242 31.692 133.238 C27.961 133.233 24.23 133.224 20.5 133.212 C18.707 133.206 16.914 133.201 15.121 133.197 C12.619 133.191 10.117 133.177 7.615 133.161 C6.869 133.16 6.124 133.159 5.356 133.158 C0.229 133.115 0.229 133.115 -2 132 C-1.67 130.35 -1.34 128.7 -1 127 C-0.301 126.807 0.397 126.613 1.117 126.414 C1.572 126.284 1.572 126.284 3.875 125.625 C4.78 125.37 5.685 125.115 6.617 124.852 C9 124 9 124 11 122 C11.246 119.989 11.246 119.989 11.241 117.47 C11.243 116.516 11.246 115.562 11.249 114.58 C11.242 113.531 11.234 112.481 11.227 111.4 C11.227 110.297 11.228 109.195 11.228 108.059 C11.227 104.401 11.211 100.744 11.195 97.086 C11.192 94.555 11.189 92.025 11.187 89.494 C11.18 83.505 11.164 77.517 11.144 71.528 C11.122 64.71 11.111 57.893 11.101 51.076 C11.08 37.05 11.045 23.025 11 9 C8.254 7.587 5.762 6.578 2.75 5.875 C2.131 5.731 2.131 5.731 -1 5 C-0.67 3.35 -0.34 1.7 0 0 Z " fill="#191817" transform="translate(2508,3552)"/>
<path d="M0 0 C0.679 0.157 1.358 0.313 2.057 0.475 C6.292 1.583 8.751 2.794 11.438 6.25 C11.892 9.274 11.892 9.274 11.828 12.766 C11.815 14.016 11.802 15.266 11.789 16.555 C11.756 17.857 11.722 19.159 11.688 20.5 C11.669 21.817 11.651 23.135 11.633 24.492 C11.586 27.746 11.52 30.997 11.438 34.25 C10.613 34.415 10.613 34.415 6.438 35.25 C6.135 34.272 5.832 33.293 5.52 32.285 C-1.023 11.615 -1.023 11.615 -10.418 6.176 C-14.955 4.217 -20.19 4.501 -24.852 5.973 C-30.552 8.609 -34.14 12.424 -36.562 18.25 C-37.69 27.006 -36.659 34.015 -31.562 41.25 C-25.729 47.381 -19.029 51.6 -11.688 55.688 C1.398 63.223 12.973 70.47 18.438 85.25 C20.963 95.856 19.982 107.583 14.746 117.211 C8.452 127.019 0.052 133.213 -11.367 135.873 C-15.343 136.556 -19.287 136.588 -23.312 136.562 C-24.188 136.559 -25.064 136.556 -25.967 136.552 C-34.617 136.408 -43.41 135.539 -50.562 130.25 C-52.66 126.221 -52.808 122.769 -52.793 118.27 C-52.793 117.615 -52.792 116.961 -52.792 116.288 C-52.789 114.913 -52.781 113.539 -52.768 112.165 C-52.75 110.059 -52.748 107.952 -52.748 105.846 C-52.71 95.545 -52.71 95.545 -51.562 93.25 C-49.912 93.25 -48.262 93.25 -46.562 93.25 C-46.417 93.794 -46.417 93.794 -45.68 96.547 C-38.988 120.847 -38.988 120.847 -29.395 127.262 C-23.714 130.326 -16.299 130.318 -10.172 128.566 C-3.698 125.589 -0.166 120.965 2.75 114.625 C5.522 107.089 5.558 99.573 2.875 92 C-2.411 80.611 -12.26 75.203 -22.62 69.022 C-34.649 61.836 -46.553 54.486 -51.168 40.402 C-53.027 30.263 -51.853 20.967 -46.312 12.293 C-35.177 -2.228 -16.551 -3.924 0 0 Z " fill="#191817" transform="translate(2288.5625,3550.75)"/>
<path d="M0 0 C1.224 3.313 1.115 6.578 1.098 10.078 C1.096 10.658 1.096 10.658 1.088 13.594 C1.084 14.197 1.084 14.197 1.062 17.25 C1.058 18.472 1.053 19.694 1.049 20.953 C1.037 23.969 1.021 26.984 1 30 C0.175 30.165 0.175 30.165 -4 31 C-4.364 29.877 -4.727 28.754 -5.102 27.598 C-11.945 6.987 -11.945 6.987 -19.812 2.438 C-24.947 0.315 -29.866 -0.003 -35.172 1.695 C-41.253 4.416 -44.753 8.054 -47.375 14.25 C-48.699 22.196 -47.55 29.295 -43 36 C-37.847 42.913 -30.154 46.71 -22.836 50.933 C-9.63 58.605 3.618 66.507 8 82 C10.006 95.653 8.349 106.429 0.691 117.973 C-5.53 125.992 -15.087 130.597 -25 132 C-36.529 132.88 -49.491 133.223 -59.688 127 C-62 125 -62 125 -63 122 C-63.096 119.582 -63.131 117.162 -63.133 114.742 C-63.134 114.039 -63.135 113.335 -63.136 112.61 C-63.136 111.126 -63.135 109.641 -63.13 108.157 C-63.125 105.877 -63.13 103.597 -63.137 101.316 C-63.136 99.875 -63.135 98.434 -63.133 96.992 C-63.132 95.676 -63.131 94.36 -63.129 93.003 C-63 90 -63 90 -62 89 C-60.334 88.959 -58.666 88.957 -57 89 C-56.697 90.183 -56.394 91.367 -56.082 92.586 C-49.704 116.915 -49.704 116.915 -40 123 C-33.941 125.914 -27.136 126.087 -20.652 124.383 C-14.449 121.681 -10.827 116.826 -7.965 110.832 C-4.637 102.088 -5.268 94.132 -8.75 85.535 C-13.267 76.374 -21.772 71.501 -30.297 66.43 C-58.016 49.932 -58.016 49.932 -62 35 C-62.782 26.22 -63.068 17.579 -58 10 C-57.56 9.317 -57.121 8.634 -56.668 7.93 C-51.438 0.966 -42.781 -3.471 -34.445 -5.676 C-23.418 -7.138 -9.446 -6.56 0 0 Z " fill="#191817" transform="translate(2436,3555)"/>
<path d="M0 0 C13.2 0 26.4 0 40 0 C40.165 0.825 40.165 0.825 41 5 C37.01 6.425 33.195 7.401 29 8 C29.585 13.328 31.391 17.54 33.641 22.328 C34.005 23.117 34.369 23.906 34.744 24.719 C35.906 27.233 37.078 29.741 38.25 32.25 C39.023 33.92 39.795 35.591 40.566 37.262 C42.378 41.177 44.207 45.084 46.051 48.985 C46.894 50.774 47.726 52.57 48.557 54.365 C48.772 54.818 48.772 54.818 49.859 57.109 C50.21 57.857 50.56 58.604 50.921 59.374 C52 61 52 61 55 62 C55.139 61.64 55.139 61.64 55.841 59.817 C56.956 57.106 58.199 54.536 59.539 51.93 C64.519 42.163 69.446 32.4 73.75 22.312 C73.917 21.927 73.917 21.927 74.764 19.978 C75.064 19.26 75.363 18.541 75.672 17.801 C75.931 17.184 76.189 16.567 76.456 15.931 C77 14 77 14 77 9 C73.37 8.01 69.74 7.02 66 6 C65.835 5.175 65.835 5.175 65 1 C66 0 66 0 69.143 -0.114 C70.534 -0.113 71.925 -0.108 73.316 -0.098 C73.682 -0.097 73.682 -0.097 75.532 -0.093 C77.875 -0.088 80.219 -0.075 82.562 -0.062 C84.148 -0.057 85.733 -0.053 87.318 -0.049 C91.212 -0.038 95.106 -0.021 99 0 C99 1.98 99 3.96 99 6 C97.079 6.586 95.159 7.172 93.238 7.758 C86.774 11.345 83.769 18.807 80.562 25.125 C80.056 26.11 79.55 27.094 79.028 28.109 C77.341 31.4 75.669 34.699 74 38 C73.692 38.608 73.385 39.216 73.067 39.842 C70.829 44.266 68.599 48.694 66.375 53.125 C66.07 53.733 65.764 54.341 65.449 54.968 C64.576 56.709 63.706 58.452 62.836 60.195 C62.586 60.696 62.586 60.696 61.322 63.227 C59.19 67.7 57.751 71.196 57.725 76.202 C57.716 77.213 57.706 78.224 57.696 79.265 C57.697 79.805 57.697 79.805 57.699 82.539 C57.697 83.098 57.697 83.098 57.686 85.926 C57.68 88.285 57.68 90.643 57.684 93.002 C57.687 96.619 57.664 100.235 57.639 103.852 C57.636 106.143 57.636 108.435 57.637 110.727 C57.628 111.811 57.618 112.895 57.609 114.013 C57.612 114.515 57.612 114.515 57.628 117.057 C57.627 117.941 57.626 118.826 57.626 119.737 C58.078 122.474 58.822 123.335 61 125 C63.262 125.73 63.262 125.73 65.688 126.188 C66.092 126.267 66.092 126.267 68.137 126.668 C68.752 126.778 69.366 126.887 70 127 C70.382 128.656 70.714 130.325 71 132 C70 133 70 133 68.247 133.12 C67.486 133.118 66.724 133.116 65.939 133.114 C65.078 133.113 64.218 133.113 63.331 133.113 C62.395 133.108 61.46 133.103 60.496 133.098 C59.543 133.096 58.59 133.095 57.608 133.093 C54.551 133.088 51.494 133.075 48.438 133.062 C46.37 133.057 44.303 133.053 42.236 133.049 C37.158 133.038 32.079 133.021 27 133 C26.67 131.35 26.34 129.7 26 128 C28.981 126.645 31.415 125.944 34.688 125.5 C38 125 38 125 40 123 C40.362 121.034 40.362 121.034 40.513 118.587 C40.57 117.664 40.627 116.741 40.686 115.79 C42.089 85.589 39.995 63.66 24.175 37.667 C21.247 32.822 18.918 27.732 16.625 22.562 C10.963 10.112 10.963 10.112 6.422 7.539 C5.54 7.237 4.658 6.936 3.75 6.625 C3.304 6.466 3.304 6.466 1.047 5.664 C0.371 5.445 -0.304 5.226 -1 5 C-0.67 3.35 -0.34 1.7 0 0 Z " fill="#191817" transform="translate(2648,3552)"/>
<path d="M0 0 C12.87 0 25.74 0 39 0 C39.165 0.825 39.165 0.825 40 5 C39.113 5.289 38.226 5.577 37.312 5.875 C34.496 6.831 31.749 7.868 29 9 C29.587 14.334 31.395 18.565 33.641 23.363 C34.005 24.155 34.369 24.946 34.744 25.762 C35.514 27.431 36.287 29.1 37.064 30.766 C38.24 33.29 39.404 35.819 40.566 38.35 C41.32 39.979 42.074 41.609 42.828 43.238 C43.171 43.982 43.514 44.726 43.867 45.493 C46.346 50.799 49.099 55.913 52 61 C52.66 61 53.32 61 54 61 C67.864 34.941 67.864 34.941 72.812 23.125 C73.131 22.367 73.449 21.608 73.777 20.827 C75.232 17.252 76.423 13.823 77 10 C74.145 8.097 72.581 7.538 69.312 6.875 C68.504 6.707 67.696 6.54 66.863 6.367 C66.248 6.246 65.634 6.125 65 6 C63.875 2.25 63.875 2.25 65 0 C75.89 0 86.78 0 98 0 C98.165 0.825 98.165 0.825 99 5 C98.685 5.105 98.685 5.105 97.094 5.637 C83.166 11.279 77.39 29.776 71.107 42.45 C69.614 45.459 68.11 48.463 66.605 51.467 C65.645 53.393 64.686 55.319 63.727 57.246 C63.281 58.137 62.835 59.027 62.376 59.945 C58.261 68.269 56.691 74.655 56.699 83.945 C56.697 84.469 56.697 84.469 56.686 87.119 C56.681 89.326 56.68 91.534 56.684 93.741 C56.687 97.12 56.664 100.499 56.639 103.879 C56.636 106.026 56.636 108.173 56.637 110.32 C56.628 111.331 56.618 112.341 56.609 113.382 C56.612 113.853 56.612 113.853 56.628 116.235 C56.627 117.061 56.626 117.886 56.626 118.737 C57.091 121.553 58.07 122.925 60 125 C62.48 125.828 62.48 125.828 65.188 126.25 C66.089 126.4 66.99 126.549 67.918 126.703 C68.605 126.801 69.292 126.899 70 127 C70.382 128.656 70.714 130.325 71 132 C70 133 70 133 68.247 133.12 C67.486 133.118 66.724 133.116 65.939 133.114 C65.078 133.113 64.218 133.113 63.331 133.113 C62.395 133.108 61.46 133.103 60.496 133.098 C59.543 133.096 58.59 133.095 57.608 133.093 C54.551 133.088 51.494 133.075 48.438 133.062 C46.37 133.057 44.303 133.053 42.236 133.049 C37.158 133.038 32.079 133.021 27 133 C26.67 131.35 26.34 129.7 26 128 C29.627 126 33.025 125.343 37.074 124.66 C37.392 124.551 37.392 124.551 39 124 C44.727 106.819 43.258 77.604 36.057 61.085 C33.82 56.734 31.44 52.501 28.913 48.313 C26.81 44.671 24.999 40.964 23.23 37.152 C22.922 36.491 22.614 35.829 22.297 35.147 C21.683 33.826 21.07 32.504 20.458 31.182 C10.114 8.87 10.114 8.87 2.625 6 C1.429 5.67 0.233 5.34 -1 5 C-0.67 3.35 -0.34 1.7 0 0 Z " fill="#191817" transform="translate(2082,3552)"/>
</svg>
