<?xml version="1.0" encoding="UTF-8"?>
<!-- Generator: visioncortex VTracer 0.6.12 -->
<svg viewBox="0 0 4500 4500" version="1.1" xmlns="http://www.w3.org/2000/svg" width="4500" height="4500">
<path d="M0 0 C10.315 8.909 13.349 23.089 15 36 C17.244 78.436 8.631 119.996 -5 160 C-5.358 161.051 -5.716 162.102 -6.085 163.186 C-18.293 198.427 -35.419 230.671 -62 257 C-62.781 257.779 -63.562 258.557 -64.367 259.359 C-82.45 276.597 -105.473 285.564 -130.411 285.356 C-149.261 284.796 -164.87 277.907 -178.027 264.426 C-181.005 260.764 -183.439 256.761 -185.768 252.66 C-187.432 249.854 -188.505 248.21 -191.555 246.918 C-194.599 247.02 -195.312 247.61 -197.438 249.75 C-221.121 272.014 -249.544 286.148 -282.522 285.136 C-298.999 284.23 -314.856 278.146 -326.371 266.043 C-337.356 252.266 -339.041 235.981 -338 219 C-337.585 215.506 -336.993 212.062 -336.344 208.605 C-336.166 207.652 -335.989 206.699 -335.806 205.716 C-333.898 195.88 -331.14 186.378 -328.188 176.812 C-327.595 174.861 -327.004 172.909 -326.414 170.957 C-324.698 165.298 -322.964 159.644 -321.227 153.992 C-319.885 149.628 -318.547 145.262 -317.21 140.896 C-312.934 126.94 -308.656 112.984 -304.357 99.034 C-302.517 93.061 -300.689 87.084 -298.869 81.105 C-297.496 76.604 -296.095 72.113 -294.683 67.625 C-294.016 65.457 -293.349 63.289 -292.684 61.121 C-292.375 60.165 -292.067 59.209 -291.75 58.224 C-290.229 53.191 -289.406 49.899 -292 45 C-294.207 43.426 -294.207 43.426 -296.812 42.312 C-297.703 41.904 -298.594 41.495 -299.512 41.074 C-300.333 40.72 -301.154 40.365 -302 40 C-305.125 38.625 -305.125 38.625 -307 37 C-307.898 31.497 -306.649 24.945 -304 20 C-299.455 17.171 -293.523 17.245 -288.312 16.688 C-267.061 14.19 -246.596 9.71 -226.109 3.563 C-224 3 -224 3 -222 3 C-223.246 9.913 -224.95 16.538 -227.07 23.23 C-227.379 24.222 -227.688 25.213 -228.007 26.234 C-228.684 28.404 -229.363 30.573 -230.044 32.742 C-231.751 38.183 -233.444 43.628 -235.135 49.073 C-235.546 50.394 -235.956 51.714 -236.367 53.035 C-243.121 74.764 -249.697 96.548 -256.298 118.323 C-257.061 120.841 -257.825 123.358 -258.588 125.875 C-259.088 127.523 -259.587 129.172 -260.087 130.82 C-263.207 141.111 -266.343 151.397 -269.504 161.676 C-270.157 163.803 -270.809 165.93 -271.462 168.056 C-272.599 171.762 -273.743 175.466 -274.891 179.168 C-277.249 186.821 -279.456 194.477 -281.305 202.27 C-281.466 202.95 -281.628 203.631 -281.794 204.332 C-284.687 216.979 -285.638 230.635 -278.539 242.094 C-273.816 247.944 -267.247 250.073 -260 251 C-245.241 252.251 -231.564 246.64 -220.438 237.27 C-192.873 211.604 -186.022 164.532 -175.607 129.955 C-172.629 120.07 -169.631 110.19 -166.625 100.312 C-166.398 99.567 -166.171 98.821 -165.938 98.053 C-163.656 90.555 -161.372 83.057 -159.083 75.561 C-157.983 71.96 -156.884 68.359 -155.785 64.758 C-155.679 64.411 -155.679 64.411 -155.144 62.658 C-152.526 54.075 -149.951 45.48 -147.434 36.867 C-146.697 34.369 -145.959 31.872 -145.221 29.374 C-144.591 27.221 -143.98 25.063 -143.37 22.903 C-141.376 16.168 -139.619 10.481 -134 6 C-127.825 3.14 -122.779 2.588 -116.031 2.707 C-115.11 2.711 -114.189 2.716 -113.241 2.72 C-110.327 2.737 -107.414 2.774 -104.5 2.812 C-102.513 2.828 -100.526 2.841 -98.539 2.854 C-93.692 2.886 -88.846 2.938 -84 3 C-85.421 11.348 -87.8 19.33 -90.305 27.406 C-90.741 28.825 -91.176 30.245 -91.612 31.664 C-92.542 34.695 -93.475 37.726 -94.411 40.755 C-95.895 45.561 -97.372 50.369 -98.847 55.177 C-99.351 56.82 -99.855 58.463 -100.36 60.106 C-100.611 60.925 -100.862 61.744 -101.121 62.588 C-101.891 65.095 -102.661 67.602 -103.431 70.109 C-110.615 93.492 -117.703 116.904 -124.77 140.322 C-126.733 146.824 -128.708 153.323 -130.703 159.815 C-150.253 223.46 -150.253 223.46 -141 242 C-137.587 248.072 -133.628 251.739 -127 254 C-113.695 257.293 -101.774 254.299 -90 247.938 C-47.906 221.937 -29.011 160.931 -18 116 C-8.627 76.314 -8.627 76.314 -14 61 C-17.355 57.497 -21.158 57.426 -25.75 57.062 C-35.741 56.006 -41.017 53.745 -47.555 46.098 C-52.428 39.025 -51.777 30.249 -51 22 C-48.858 11.791 -43.35 4.115 -34.879 -1.816 C-24.177 -8.558 -10.157 -6.996 0 0 Z " fill="#191817" transform="translate(1646,2139)"/>
<path d="M0 0 C1.295 0.002 2.589 0.004 3.923 0.007 C4.279 0.007 4.279 0.007 6.081 0.006 C8.446 0.007 10.81 0.015 13.175 0.023 C14.81 0.024 16.445 0.026 18.081 0.027 C22.393 0.031 26.705 0.041 31.017 0.052 C35.414 0.062 39.811 0.066 44.208 0.071 C52.841 0.082 61.475 0.099 70.108 0.12 C68.704 8.31 66.403 16.143 63.944 24.069 C63.52 25.451 63.096 26.833 62.672 28.215 C61.76 31.185 60.846 34.154 59.929 37.123 C58.454 41.901 56.986 46.68 55.519 51.46 C55.268 52.276 55.018 53.092 54.76 53.932 C54.247 55.602 53.735 57.271 53.223 58.94 C52.437 61.498 51.652 64.056 50.866 66.613 C45.741 83.291 40.671 99.984 35.607 116.68 C33.088 124.984 30.567 133.287 28.046 141.589 C27.797 142.408 27.548 143.227 27.292 144.072 C22.142 161.025 16.965 177.971 11.783 194.914 C4.144 219.89 -3.48 244.869 -11.079 269.857 C-12.098 273.21 -13.119 276.563 -14.14 279.916 C-19.104 296.216 -24.041 312.524 -28.864 328.866 C-29.305 330.357 -29.746 331.849 -30.187 333.34 C-30.794 335.392 -31.399 337.446 -32.002 339.5 C-32.344 340.662 -32.686 341.824 -33.039 343.021 C-34.419 348.037 -35.049 352.534 -35.079 357.745 C-35.093 358.872 -35.107 359.999 -35.122 361.159 C-34.892 364.12 -34.892 364.12 -32.892 367.12 C-25.304 366.931 -21.232 361.556 -16.298 356.421 C-12.057 351.85 -8.249 347.364 -4.892 342.12 C-0.989 343.707 1.444 346.254 4.358 349.245 C5.25 350.155 6.142 351.065 7.062 352.003 C7.399 352.352 7.399 352.352 9.108 354.12 C2.91 372.011 -14.233 386.32 -30.653 394.495 C-42.451 399.533 -56.367 401.467 -68.673 397.152 C-75.146 394.143 -78.453 389.973 -81.165 383.464 C-82.019 380.708 -82.474 377.972 -82.892 375.12 C-83.171 375.363 -83.171 375.363 -84.587 376.589 C-104.436 393.183 -128.085 401.073 -153.892 399.12 C-167.135 397.592 -179.816 392.624 -188.931 382.628 C-201.808 366.16 -204.306 347.578 -204.204 327.308 C-204.202 326.537 -204.2 325.767 -204.198 324.974 C-203.925 264.013 -179.607 204.476 -137.892 160.12 C-137.616 159.825 -137.616 159.825 -136.22 158.33 C-115.859 136.682 -88.465 115.911 -57.596 114.788 C-44.11 114.538 -32.571 117.194 -20.892 124.12 C-18.433 116.283 -16.002 108.437 -13.58 100.588 C-12.322 96.512 -11.06 92.438 -9.797 88.363 C-8.054 82.739 -6.319 77.112 -4.592 71.482 C-3.615 68.297 -2.633 65.114 -1.645 61.933 C-0.519 58.303 0.595 54.669 1.706 51.034 C2.049 49.937 2.393 48.84 2.746 47.71 C4.368 42.361 5.695 37.72 5.108 32.12 C2.446 28.184 -1.771 26.532 -5.966 24.562 C-7.892 23.12 -7.892 23.12 -8.81 21.007 C-8.928 16.845 -7.766 13.312 -6.517 9.37 C-6.282 8.59 -6.047 7.81 -5.806 7.007 C-3.708 0.154 -3.708 0.154 0 0 Z M-86.173 155.273 C-95.586 165.132 -103.085 176.35 -109.892 188.12 C-110.297 188.822 -110.703 189.523 -111.121 190.246 C-135.528 233.117 -160.604 300.765 -150.704 350.433 C-148.673 357.796 -145.484 363.94 -138.892 368.12 C-133 370.861 -126.583 371.115 -120.341 369.433 C-101.125 362.261 -90.627 346.638 -82.411 328.684 C-80.082 323.221 -78.337 317.637 -76.634 311.952 C-76.253 310.707 -75.871 309.462 -75.479 308.179 C-74.446 304.803 -73.424 301.423 -72.404 298.043 C-71.322 294.461 -70.228 290.882 -69.136 287.302 C-67.072 280.53 -65.018 273.755 -62.967 266.978 C-61.371 261.702 -59.771 256.427 -58.169 251.153 C-57.946 250.421 -57.724 249.688 -57.495 248.934 C-57.048 247.462 -56.6 245.99 -56.153 244.518 C-53.387 235.411 -50.623 226.304 -47.868 217.194 C-47.771 216.873 -47.771 216.873 -47.28 215.251 C-46.321 212.08 -45.363 208.907 -44.408 205.734 C-42.564 199.613 -40.704 193.498 -38.8 187.395 C-37.858 184.371 -36.923 181.345 -35.988 178.319 C-35.538 176.87 -35.085 175.422 -34.628 173.976 C-33.993 171.964 -33.37 169.949 -32.75 167.933 C-32.39 166.784 -32.031 165.636 -31.661 164.452 C-30.139 157.858 -30.689 153.083 -33.892 147.12 C-38.129 142.214 -42.001 139.214 -48.454 138.245 C-63.307 137.233 -75.81 145.401 -86.173 155.273 Z " fill="#191817" transform="translate(2754.891616821289,1326.8797454833984)"/>
<path d="M0 0 C7.653 6.947 13.128 17.375 14.043 27.74 C14.167 30.645 14.195 33.538 14.199 36.445 C14.224 37.391 14.248 38.336 14.273 39.311 C14.336 55.387 9.545 71.231 4.949 86.508 C4.448 88.196 3.948 89.885 3.448 91.573 C-2.957 113.121 -9.576 134.606 -16.169 156.097 C-20.346 169.709 -24.522 183.322 -28.638 196.954 C-29.206 198.836 -29.778 200.717 -30.35 202.598 C-35.448 219.533 -35.448 219.533 -35.551 228.07 C-35.579 229.149 -35.608 230.228 -35.637 231.34 C-35.077 234.885 -33.909 236.027 -31.176 238.258 C-21.383 233.723 -14.692 226.07 -8.184 217.641 C-6.176 215.258 -6.176 215.258 -2.176 212.258 C2.444 216.878 7.064 221.498 11.824 226.258 C3.149 244.573 -14.662 261.067 -33.387 268.539 C-44.234 272.289 -56.994 274.788 -68.051 270.418 C-76.044 266.054 -81.171 259.778 -84.176 251.258 C-89.356 233.58 -87.353 215.907 -82.734 198.34 C-82.477 197.358 -82.219 196.377 -81.954 195.366 C-78.207 181.349 -73.859 167.506 -69.58 153.645 C-68.362 149.696 -67.151 145.745 -65.94 141.793 C-63.972 135.376 -62.003 128.96 -60.03 122.544 C-56.206 110.104 -52.383 97.664 -48.584 85.216 C-47.516 81.725 -46.442 78.236 -45.368 74.746 C-34.636 39.697 -34.636 39.697 -39.062 29.02 C-41.486 25.184 -45.327 23.842 -49.551 22.508 C-76.818 19.911 -99.429 37.262 -119.483 53.55 C-122.439 55.95 -125.375 57.942 -128.676 59.82 C-132.639 62.811 -133.664 66.876 -135.076 71.434 C-135.333 72.236 -135.59 73.037 -135.855 73.863 C-136.641 76.324 -137.411 78.79 -138.176 81.258 C-138.398 81.967 -138.62 82.677 -138.849 83.408 C-140.353 88.22 -141.817 93.044 -143.273 97.871 C-143.745 99.428 -144.218 100.985 -144.69 102.542 C-145.69 105.841 -146.689 109.14 -147.686 112.439 C-149.265 117.661 -150.847 122.881 -152.43 128.102 C-154.064 133.491 -155.697 138.88 -157.33 144.269 C-160.902 156.061 -164.482 167.85 -168.07 179.637 C-168.187 180.021 -168.187 180.021 -168.78 181.968 C-170.37 187.189 -171.96 192.411 -173.551 197.633 C-174.987 202.347 -176.422 207.061 -177.857 211.775 C-178.442 213.694 -179.026 215.612 -179.611 217.531 C-181.737 224.515 -183.854 231.5 -185.962 238.489 C-186.655 240.784 -187.348 243.079 -188.04 245.374 C-188.702 247.568 -189.362 249.763 -190.022 251.959 C-190.424 253.291 -190.827 254.623 -191.229 255.956 C-191.581 257.126 -191.934 258.297 -192.297 259.503 C-193.176 262.258 -193.176 262.258 -194.176 264.258 C-211.666 264.258 -229.156 264.258 -247.176 264.258 C-243.801 250.758 -243.801 250.758 -242.241 245.656 C-241.887 244.496 -241.534 243.335 -241.17 242.14 C-240.793 240.911 -240.416 239.683 -240.027 238.418 C-239.619 237.079 -239.21 235.739 -238.802 234.4 C-237.929 231.538 -237.054 228.676 -236.177 225.814 C-234.772 221.227 -233.371 216.639 -231.971 212.051 C-230.259 206.443 -228.546 200.835 -226.832 195.227 C-223.833 185.415 -220.842 175.601 -217.855 165.785 C-217.641 165.079 -217.426 164.373 -217.204 163.645 C-216.124 160.095 -215.045 156.546 -213.965 152.996 C-212.028 146.626 -210.089 140.257 -208.151 133.888 C-207.717 132.464 -207.284 131.04 -206.85 129.616 C-203.819 119.653 -200.785 109.691 -197.751 99.73 C-196.038 94.106 -194.325 88.482 -192.612 82.858 C-191.215 78.269 -189.817 73.68 -188.419 69.091 C-187.556 66.261 -186.695 63.431 -185.833 60.601 C-185.245 58.67 -184.657 56.74 -184.068 54.81 C-178.448 36.343 -178.448 36.343 -179.176 32.258 C-181.801 30.141 -181.801 30.141 -185.176 28.383 C-186.29 27.787 -187.403 27.192 -188.551 26.578 C-189.417 26.142 -190.283 25.707 -191.176 25.258 C-189.747 9.829 -189.747 9.829 -185.176 5.258 C-182.621 4.732 -180.126 4.315 -177.547 3.961 C-175.95 3.725 -174.352 3.489 -172.755 3.253 C-171.915 3.132 -171.076 3.01 -170.21 2.885 C-150.125 -0.035 -130.746 -4.359 -111.176 -9.742 C-114.257 3.442 -118.147 16.336 -122.176 29.258 C-119.496 27.116 -116.82 24.97 -114.152 22.812 C-96.614 8.728 -78.034 -3.643 -56.176 -9.742 C-55.355 -9.987 -54.534 -10.232 -53.688 -10.484 C-35.366 -15.104 -14.774 -11.83 0 0 Z " fill="#191817" transform="translate(2002.17578125,1453.7421875)"/>
<path d="M0 0 C7.003 7.174 9.953 14.841 9.875 24.875 C9.869 25.627 9.864 26.379 9.858 27.154 C9.645 36.921 7.147 45.189 0.562 52.625 C-5.965 58.019 -10.892 59.766 -19.312 59.875 C-20.506 59.901 -21.7 59.927 -22.93 59.953 C-27.873 59.491 -31.144 57.883 -34.688 54.438 C-38.788 47.847 -39.278 40.205 -38.438 32.625 C-37.482 29.008 -36.381 25.456 -35.262 21.887 C-34.195 17.664 -34.431 14.818 -35.438 10.625 C-40.188 9.761 -44.086 9.131 -48.688 10.812 C-57.967 20.303 -60.815 35.548 -64.562 47.875 C-65.215 49.994 -65.868 52.112 -66.522 54.23 C-68.511 60.69 -70.478 67.156 -72.438 73.625 C-72.748 74.65 -73.059 75.674 -73.378 76.73 C-77.099 89.018 -80.773 101.32 -84.438 113.625 C-67.938 113.625 -51.438 113.625 -34.438 113.625 C-35.129 118.467 -35.836 122.388 -37.25 126.961 C-37.603 128.107 -37.956 129.253 -38.32 130.434 C-38.689 131.611 -39.058 132.787 -39.438 134 C-39.806 135.2 -40.175 136.4 -40.555 137.637 C-43.302 146.489 -43.302 146.489 -44.438 147.625 C-46.034 147.718 -47.634 147.742 -49.233 147.739 C-50.254 147.738 -51.275 147.738 -52.327 147.738 C-53.437 147.733 -54.547 147.728 -55.691 147.723 C-56.822 147.721 -57.953 147.72 -59.117 147.718 C-62.745 147.713 -66.372 147.7 -70 147.688 C-72.452 147.682 -74.905 147.678 -77.357 147.674 C-83.384 147.663 -89.411 147.646 -95.438 147.625 C-95.602 148.32 -95.767 149.014 -95.936 149.73 C-97.959 158.061 -100.381 166.239 -102.918 174.426 C-103.363 175.872 -103.809 177.318 -104.253 178.765 C-105.207 181.864 -106.163 184.963 -107.12 188.061 C-109.456 195.625 -111.781 203.193 -114.107 210.76 C-114.92 213.406 -115.734 216.053 -116.548 218.7 C-121.986 236.389 -127.379 254.093 -132.756 271.801 C-133.499 274.248 -134.243 276.695 -134.986 279.141 C-140.354 296.807 -145.701 314.479 -151.013 332.162 C-151.796 334.768 -152.579 337.373 -153.362 339.979 C-155.595 347.406 -157.826 354.832 -160.048 362.262 C-160.944 365.254 -161.842 368.245 -162.741 371.237 C-163.158 372.625 -163.573 374.014 -163.988 375.404 C-164.551 377.291 -165.118 379.178 -165.685 381.064 C-166.002 382.12 -166.318 383.177 -166.644 384.265 C-167.438 386.625 -167.438 386.625 -168.438 387.625 C-170.095 387.718 -171.756 387.742 -173.416 387.739 C-174.477 387.738 -175.538 387.738 -176.631 387.738 C-177.209 387.736 -177.209 387.736 -180.129 387.723 C-181.304 387.721 -182.479 387.72 -183.689 387.718 C-187.46 387.713 -191.23 387.7 -195 387.688 C-197.549 387.682 -200.098 387.678 -202.646 387.674 C-208.91 387.663 -215.174 387.646 -221.438 387.625 C-219.313 378.685 -216.778 369.908 -214.07 361.129 C-213.639 359.722 -213.208 358.316 -212.777 356.909 C-211.857 353.906 -210.935 350.903 -210.011 347.9 C-208.534 343.096 -207.06 338.29 -205.588 333.484 C-205.082 331.834 -204.577 330.184 -204.071 328.534 C-203.819 327.711 -203.567 326.888 -203.307 326.041 C-202.535 323.522 -201.763 321.003 -200.99 318.485 C-196.377 303.441 -191.793 288.389 -187.217 273.335 C-185.074 266.282 -182.927 259.231 -180.781 252.18 C-180.567 251.476 -180.353 250.773 -180.132 250.048 C-178.568 244.907 -177.003 239.766 -175.438 234.625 C-175.198 233.838 -174.958 233.051 -174.711 232.24 C-171.69 222.314 -168.666 212.39 -165.638 202.466 C-164.429 198.503 -163.221 194.54 -162.014 190.576 C-160.889 186.878 -159.761 183.181 -158.632 179.484 C-158.221 178.138 -157.811 176.792 -157.401 175.446 C-154.564 166.117 -151.55 156.865 -148.438 147.625 C-156.688 147.625 -164.938 147.625 -173.438 147.625 C-171.156 136.216 -171.156 136.216 -169.188 132.312 C-168.999 131.923 -168.999 131.923 -168.047 129.949 C-163.96 124.046 -158.964 121.722 -152.375 119.562 C-141.423 115.932 -141.423 115.932 -138.446 110.973 C-135.063 103.893 -132.927 96.216 -130.522 88.76 C-125.869 74.392 -121.015 60.248 -114.438 46.625 C-114.038 45.797 -113.639 44.97 -113.228 44.117 C-108.192 33.834 -102.785 24.45 -95.438 15.625 C-94.805 14.83 -94.172 14.034 -93.52 13.215 C-71.651 -13.072 -28.259 -21.23 0 0 Z " fill="#191817" transform="translate(1991.4375,2785.375)"/>
<path d="M0 0 C24.42 0 48.84 0 74 0 C70.625 13.498 70.625 13.498 68.929 18.993 C68.545 20.242 68.161 21.491 67.766 22.778 C67.351 24.119 66.935 25.46 66.52 26.801 C66.074 28.247 65.629 29.693 65.184 31.139 C64.231 34.238 63.275 37.336 62.318 40.434 C59.98 48.006 57.652 55.581 55.324 63.156 C54.783 64.917 54.241 66.677 53.7 68.437 C48.028 86.88 42.408 105.339 36.805 123.803 C36.059 126.262 35.312 128.721 34.566 131.181 C32.305 138.629 30.044 146.078 27.784 153.528 C23.221 168.571 18.652 183.613 14.082 198.655 C12.577 203.61 11.072 208.565 9.567 213.52 C4.675 229.63 -0.222 245.738 -5.136 261.841 C-5.856 264.199 -6.575 266.557 -7.294 268.916 C-7.528 269.683 -7.762 270.45 -8.003 271.241 C-8.47 272.771 -8.937 274.302 -9.403 275.832 C-10.508 279.454 -11.613 283.076 -12.721 286.697 C-17.007 300.715 -21.259 314.743 -25.377 328.811 C-25.767 330.142 -26.158 331.472 -26.551 332.802 C-33.617 356.767 -33.617 356.767 -30 364 C-22.959 364.64 -18.653 363.255 -13 359 C-6.182 353.046 -0.153 346.443 5 339 C8.535 340.528 11.028 342.605 13.812 345.25 C14.623 345.998 15.434 346.745 16.27 347.516 C18 350 18 350 18.043 352.875 C16.781 356.656 14.867 359.594 12.5 362.75 C12.051 363.361 11.602 363.973 11.139 364.602 C7.082 370.043 2.756 375.154 -2 380 C-2.757 380.781 -3.513 381.562 -4.293 382.367 C-16.31 394.012 -31.127 398.957 -47.688 399.312 C-59.424 398.981 -70.199 397.312 -79 389 C-86.247 380.474 -86.768 368.685 -86 358 C-84.309 345.269 -80.941 333.192 -77.188 320.938 C-76.578 318.922 -75.97 316.907 -75.362 314.891 C-73.638 309.19 -71.901 303.492 -70.16 297.796 C-68.948 293.829 -67.738 289.862 -66.529 285.894 C-61.932 270.81 -57.323 255.73 -52.707 240.652 C-47.329 223.086 -41.972 205.513 -36.625 187.938 C-36.414 187.243 -36.203 186.549 -35.985 185.834 C-34.035 179.423 -32.085 173.012 -30.136 166.601 C-27.469 157.831 -24.802 149.062 -22.133 140.293 C-19.997 133.273 -17.861 126.252 -15.726 119.232 C-14.446 115.022 -13.166 110.813 -11.885 106.604 C-11.4 105.013 -10.916 103.422 -10.432 101.832 C-10.195 101.051 -9.957 100.271 -9.712 99.467 C-8.539 95.611 -7.369 91.753 -6.205 87.894 C-5.746 86.371 -5.287 84.847 -4.827 83.324 C-4.6 82.571 -4.373 81.818 -4.139 81.042 C-2.647 76.106 -1.126 71.18 0.411 66.258 C1.476 62.842 2.526 59.421 3.574 55.999 C4.077 54.37 4.586 52.742 5.101 51.117 C5.813 48.87 6.503 46.617 7.189 44.361 C7.404 43.702 7.619 43.043 7.84 42.364 C9.158 37.921 8.985 35.184 7 31 C4.434 28.699 4.434 28.699 1.438 26.688 C0.446 26.011 -0.545 25.334 -1.566 24.637 C-2.369 24.097 -3.173 23.556 -4 23 C-4.33 22.67 -4.66 22.34 -5 22 C-4.595 13.89 -2.509 8.155 0 0 Z " fill="#191817" transform="translate(2694,2774)"/>
<path d="M0 0 C6.809 4.887 11.542 9.914 14 18 C14.189 18.602 14.379 19.204 14.574 19.824 C17.091 32.687 14.593 46.001 7.457 56.887 C6.976 57.584 6.495 58.281 6 59 C5.423 59.907 4.845 60.815 4.25 61.75 C-2.124 68.124 -9.356 71.144 -18.25 71.312 C-24.337 71.312 -28.313 71.075 -33 67 C-37.138 61.936 -39.226 56.23 -41 50 C-54.578 53.312 -62.746 68.647 -69.625 79.812 C-74.183 87.356 -78.317 95.05 -82.066 103.025 C-82.972 104.94 -83.908 106.836 -84.848 108.734 C-89.578 118.574 -93.082 128.813 -96.508 139.16 C-96.766 139.936 -97.024 140.712 -97.289 141.511 C-103.305 159.632 -108.864 177.888 -114.367 196.17 C-115.633 200.373 -116.904 204.574 -118.176 208.775 C-120.16 215.336 -122.142 221.897 -124.122 228.458 C-124.36 229.246 -124.597 230.034 -124.842 230.846 C-126.054 234.862 -127.265 238.878 -128.474 242.894 C-129.653 246.807 -130.834 250.719 -132.016 254.632 C-132.455 256.087 -132.893 257.542 -133.331 258.998 C-133.93 260.988 -134.531 262.978 -135.132 264.968 C-135.47 266.09 -135.809 267.212 -136.157 268.368 C-137 271 -137 271 -138 273 C-155.49 273 -172.98 273 -191 273 C-187.625 259.5 -187.625 259.5 -185.726 253.274 C-185.519 252.591 -185.311 251.908 -185.097 251.203 C-184.419 248.973 -183.737 246.744 -183.055 244.516 C-182.567 242.914 -182.079 241.312 -181.592 239.71 C-180.558 236.315 -179.523 232.921 -178.486 229.527 C-176.86 224.203 -175.239 218.876 -173.62 213.55 C-169.117 198.748 -164.607 183.949 -160.05 169.163 C-158.507 164.155 -156.971 159.145 -155.435 154.135 C-154.415 150.818 -153.385 147.504 -152.355 144.19 C-145.323 121.367 -138.987 98.237 -138.688 74.25 C-138.67 73.291 -138.652 72.331 -138.633 71.343 C-138.642 64.023 -139.326 56.45 -143.938 50.5 C-147.932 48.544 -151.795 48.166 -156.176 47.562 C-159.665 46.868 -161.617 45.63 -164 43 C-165.533 39.935 -165.103 36.732 -165.062 33.375 C-165.058 32.669 -165.053 31.962 -165.049 31.234 C-165.037 29.49 -165.019 27.745 -165 26 C-164.161 25.792 -163.322 25.585 -162.457 25.371 C-140.6 19.772 -118.566 12.654 -99.742 -0.137 C-98 -1 -98 -1 -95 0 C-80.309 19.752 -87.917 52.565 -90 75 C-89.664 74.307 -89.328 73.613 -88.981 72.899 C-70.798 35.556 -70.798 35.556 -57 20 C-56.272 19.129 -55.543 18.257 -54.793 17.359 C-42.258 2.695 -19.234 -10.956 0 0 Z " fill="#191817" transform="translate(3177,2151)"/>
</svg>
