<?xml version="1.0" encoding="UTF-8"?>
<!-- Generator: visioncortex VTracer 0.6.12 -->
<svg viewBox="0 0 4500 4500" version="1.1" xmlns="http://www.w3.org/2000/svg" width="4500" height="4500">
<path d="M0 0 C11.008 9.225 15.075 21.56 16.762 35.488 C19.661 99.083 2.246 169.164 -33.238 222.488 C-33.619 223.065 -33.999 223.642 -34.391 224.236 C-40.162 232.907 -46.66 240.629 -53.904 248.103 C-55.05 249.293 -56.17 250.508 -57.285 251.727 C-72.592 268.047 -94.567 278.664 -116.895 279.863 C-135.397 280.446 -152.918 277.39 -167.007 264.37 C-172.669 258.843 -176.722 252.986 -180.422 246.008 C-182.238 243.488 -182.238 243.488 -184.746 242.453 C-187.843 242.497 -188.519 243.066 -190.676 245.238 C-214.194 267.309 -240.898 280.372 -273.488 279.801 C-289.093 279.184 -303.692 273.802 -315.051 262.898 C-325.9 250.945 -328.953 235.347 -328.366 219.654 C-327.72 208.68 -325.276 198.067 -322.277 187.523 C-321.976 186.457 -321.675 185.391 -321.365 184.293 C-317.247 169.846 -312.808 155.495 -308.394 141.138 C-307.175 137.172 -305.962 133.205 -304.747 129.239 C-300.764 116.229 -296.773 103.222 -292.771 90.218 C-291.452 85.929 -290.137 81.638 -288.822 77.347 C-287.948 74.498 -287.068 71.651 -286.187 68.804 C-285.666 67.104 -285.145 65.404 -284.625 63.703 C-284.394 62.962 -284.163 62.22 -283.924 61.456 C-280.049 48.711 -280.049 48.711 -282.238 44.488 C-284.743 43.368 -287.27 42.478 -289.879 41.629 C-290.74 41.335 -291.601 41.041 -292.488 40.738 C-292.924 40.596 -292.924 40.596 -295.129 39.879 C-297.238 38.488 -297.238 38.488 -297.991 35.831 C-298.279 31.932 -297.545 29.307 -296.301 25.613 C-296.111 25.037 -296.111 25.037 -295.148 22.121 C-294.848 21.252 -294.548 20.383 -294.238 19.488 C-293.842 19.443 -293.842 19.443 -291.837 19.216 C-268.35 16.504 -245.135 12.85 -222.475 5.873 C-217.542 4.387 -217.542 4.387 -214.238 5.488 C-236.669 79.188 -236.669 79.188 -237.372 81.498 C-237.835 83.02 -238.298 84.542 -238.761 86.064 C-239.899 89.801 -241.036 93.538 -242.173 97.275 C-244.169 103.831 -246.164 110.388 -248.158 116.945 C-249.234 120.484 -250.31 124.023 -251.387 127.562 C-251.491 127.904 -251.491 127.904 -252.017 129.635 C-254.501 137.801 -256.995 145.964 -259.505 154.122 C-260.808 158.359 -262.108 162.596 -263.408 166.834 C-264.261 169.608 -265.119 172.38 -265.978 175.152 C-279.167 217.995 -279.167 217.995 -271.426 234.988 C-268.658 239.903 -264.683 242.829 -259.43 244.883 C-247.073 248.297 -233.734 246.145 -222.598 239.977 C-210.219 232.168 -201.955 221.77 -195.793 208.637 C-195.402 207.805 -195.012 206.973 -194.609 206.116 C-190.843 197.913 -188.039 189.552 -185.426 180.926 C-184.888 179.188 -184.349 177.451 -183.809 175.714 C-182.274 170.759 -180.761 165.797 -179.254 160.833 C-178.184 157.309 -177.111 153.787 -176.038 150.264 C-171.659 135.886 -167.304 121.501 -162.958 107.113 C-158.261 91.558 -153.557 76.006 -148.835 60.458 C-147.455 55.913 -146.077 51.367 -144.702 46.82 C-143.845 43.99 -142.985 41.16 -142.125 38.331 C-141.542 36.411 -140.962 34.49 -140.383 32.569 C-133.452 9.812 -133.452 9.812 -125.165 5.379 C-120.886 4.077 -116.791 4.243 -112.344 4.293 C-111.396 4.296 -110.449 4.299 -109.473 4.302 C-106.457 4.313 -103.442 4.338 -100.426 4.363 C-98.377 4.373 -96.328 4.382 -94.279 4.391 C-89.266 4.413 -84.252 4.447 -79.238 4.488 C-85.142 25.099 -91.287 45.626 -97.606 66.114 C-99.094 70.938 -100.577 75.765 -102.058 80.591 C-102.311 81.413 -102.563 82.234 -102.822 83.08 C-103.334 84.748 -103.847 86.416 -104.359 88.084 C-105.385 91.427 -106.411 94.77 -107.438 98.113 C-108.203 100.603 -108.967 103.093 -109.732 105.582 C-110.724 108.814 -111.717 112.046 -112.71 115.277 C-115.267 123.6 -117.819 131.925 -120.359 140.253 C-121.419 143.73 -122.482 147.206 -123.552 150.679 C-138.384 198.865 -138.384 198.865 -138.488 218.301 C-138.509 219.248 -138.53 220.194 -138.551 221.17 C-138.603 230.666 -136.727 237.835 -130.137 244.828 C-123.857 250.32 -115.554 250.871 -107.543 250.754 C-90.207 249.36 -76.192 238.219 -65.238 225.488 C-33.519 187.632 -9.541 124.205 -9.988 74.426 C-9.981 73.529 -9.973 72.633 -9.965 71.709 C-9.991 62.961 -9.991 62.961 -12.238 59.488 C-15.773 57.477 -18.977 57.251 -22.988 57.113 C-30.923 56.519 -36.589 54.608 -42.113 48.738 C-47.599 41.84 -49.17 35.225 -48.238 26.488 C-46.502 16.375 -42.247 7.088 -34.031 0.668 C-23.948 -5.967 -10.218 -6.901 0 0 Z " fill="#181717" transform="translate(1870.23828125,908.51171875)"/>
<path d="M0 0 C1.277 0.002 2.554 0.004 3.869 0.007 C4.572 0.007 5.274 0.006 5.998 0.006 C8.33 0.007 10.662 0.015 12.994 0.023 C14.607 0.024 16.22 0.026 17.832 0.027 C22.086 0.031 26.338 0.041 30.591 0.052 C34.928 0.062 39.265 0.066 43.601 0.071 C52.116 0.082 60.631 0.099 69.146 0.12 C63.661 19.237 58.009 38.29 52.122 57.287 C50.167 63.597 48.221 69.91 46.275 76.223 C45.821 77.692 45.368 79.162 44.915 80.632 C39.805 97.199 34.751 113.783 29.709 130.37 C29.27 131.812 28.832 133.255 28.393 134.697 C26.189 141.946 23.986 149.195 21.783 156.444 C17.862 169.347 13.937 182.249 10.012 195.151 C9.145 197.998 8.279 200.844 7.414 203.691 C2.622 219.445 -2.179 235.195 -7.002 250.938 C-7.747 253.37 -8.492 255.802 -9.236 258.234 C-9.729 259.842 -10.221 261.45 -10.713 263.058 C-10.955 263.849 -11.198 264.64 -11.447 265.455 C-12.622 269.291 -13.797 273.126 -14.975 276.961 C-19.721 292.417 -24.412 307.886 -28.932 323.409 C-29.126 324.073 -29.32 324.737 -29.519 325.421 C-30.065 327.291 -30.606 329.162 -31.148 331.033 C-31.454 332.091 -31.761 333.15 -32.077 334.241 C-33.461 339.369 -34.013 343.983 -34.041 349.308 C-34.055 350.539 -34.07 351.77 -34.084 353.038 C-33.854 356.12 -33.854 356.12 -31.854 358.12 C-24.496 357.745 -20.692 353.227 -15.854 348.12 C-12.006 343.595 -8.411 338.875 -4.854 334.12 C-0.951 335.707 1.482 338.254 4.396 341.245 C5.288 342.155 6.18 343.065 7.099 344.003 C7.437 344.352 7.437 344.352 9.146 346.12 C5.454 353.634 0.663 359.849 -4.854 366.12 C-5.543 366.907 -6.233 367.693 -6.943 368.503 C-17.498 379.785 -32.262 388.763 -47.998 389.323 C-49.554 389.344 -51.11 389.36 -52.666 389.37 C-53.051 389.381 -53.051 389.381 -54.996 389.433 C-61.973 389.48 -67.192 387.86 -73.104 383.995 C-78.06 378.813 -79.836 373.125 -80.854 366.12 C-81.606 366.749 -82.359 367.378 -83.135 368.027 C-103.925 384.958 -126.265 390.43 -152.854 389.12 C-165.302 387.592 -177.62 381.666 -185.654 371.941 C-203.301 348.286 -201.517 315.327 -197.666 287.495 C-190.142 238.129 -168.755 191.118 -133.854 155.12 C-133.315 154.556 -132.776 153.991 -132.221 153.409 C-112.118 132.388 -85.838 112.633 -55.624 111.701 C-44.119 111.616 -33.481 112.893 -23.561 119.132 C-21.854 120.12 -21.854 120.12 -19.854 120.12 C-19.555 119.137 -19.257 118.154 -18.949 117.141 C-16.139 107.886 -13.329 98.63 -10.518 89.375 C-9.073 84.616 -7.628 79.858 -6.183 75.099 C-4.789 70.508 -3.395 65.918 -2.001 61.327 C-1.468 59.574 -0.936 57.821 -0.404 56.068 C0.34 53.616 1.085 51.164 1.83 48.713 C1.94 48.349 1.94 48.349 2.499 46.507 C3.352 43.7 4.219 40.903 5.146 38.12 C5.71 31.919 5.71 31.919 3.646 28.995 C0.813 26.87 -2.11 24.991 -5.147 23.171 C-6.854 22.12 -6.854 22.12 -7.854 21.12 C-8.652 14.091 -6.22 7.677 -3.854 1.12 C-2.854 0.12 -2.854 0.12 0 0 Z M-78.854 147.12 C-79.494 147.619 -80.135 148.118 -80.795 148.632 C-117.095 177.745 -133.354 236.86 -142.791 280.058 C-142.935 280.714 -143.079 281.371 -143.227 282.047 C-146.24 295.943 -148.213 309.448 -148.229 323.683 C-148.253 324.894 -148.278 326.105 -148.303 327.353 C-148.333 336.695 -147.379 347.103 -141.416 354.745 C-135.657 360.083 -130.404 361.577 -122.693 361.452 C-109.976 359.965 -99.85 351.241 -92.166 341.558 C-84.833 331.146 -80.038 320.297 -76.252 308.171 C-75.912 307.095 -75.572 306.02 -75.222 304.912 C-70.811 290.897 -66.523 276.843 -62.24 262.788 C-61.532 260.465 -60.824 258.142 -60.115 255.818 C-57.422 246.985 -54.732 238.15 -52.044 229.315 C-50.365 223.798 -48.683 218.282 -46.998 212.766 C-44.972 206.129 -42.95 199.491 -40.934 192.851 C-39.89 189.412 -38.844 185.974 -37.793 182.537 C-36.633 178.744 -35.483 174.948 -34.334 171.152 C-34.164 170.597 -34.164 170.597 -33.302 167.793 C-28.609 152.193 -28.609 152.193 -31.631 145.081 C-34.482 140.509 -38.754 136.82 -43.854 135.12 C-57.749 133.702 -68.526 138.022 -78.854 147.12 Z " fill="#181717" transform="translate(2367.8536529541016,798.8797454833984)"/>
<path d="M0 0 C8.976 7.136 14.993 16.852 16.754 28.27 C18.285 45.254 15.029 60.771 10.504 77.043 C10.33 77.672 10.33 77.672 9.447 80.855 C5.619 94.581 1.46 108.205 -2.724 121.826 C-4.098 126.3 -5.464 130.777 -6.829 135.254 C-10.718 148.007 -14.616 160.756 -18.535 173.499 C-19.938 178.067 -21.331 182.637 -22.721 187.209 C-23.356 189.288 -23.995 191.366 -24.638 193.442 C-33.999 223.651 -33.999 223.651 -30 234 C-27 235 -27 235 -24 233.75 C-14.76 228.085 -7.454 218.525 -1 210 C2.994 211.621 5.796 214.393 8.812 217.375 C9.327 217.857 9.842 218.339 10.373 218.836 C13.975 222.385 13.975 222.385 14.082 224.992 C11.35 230.062 7.559 234.493 4 239 C3.417 239.741 2.835 240.482 2.234 241.246 C-8.397 254.071 -25.05 265.997 -42 268 C-52.179 268.695 -61.391 268.788 -69.984 262.562 C-77.469 255.909 -81.05 245.778 -82 236 C-83.019 218.585 -79.966 202.736 -75.047 186.066 C-74.649 184.708 -74.251 183.35 -73.854 181.992 C-69.555 167.348 -65.084 152.756 -60.602 138.167 C-58.426 131.084 -56.258 123.999 -54.089 116.913 C-53.612 115.354 -53.135 113.795 -52.658 112.236 C-48.657 99.167 -44.681 86.09 -40.75 73 C-40.51 72.202 -40.269 71.404 -40.022 70.583 C-39.361 68.389 -38.704 66.195 -38.047 64 C-37.871 63.412 -37.871 63.412 -36.979 60.438 C-35.148 54.011 -33.722 48.122 -33.75 41.375 C-33.745 40.125 -33.74 38.874 -33.734 37.586 C-33.998 34.027 -34.606 31.277 -36 28 C-38.062 26.75 -38.062 26.75 -41 26 C-41.629 25.805 -42.258 25.611 -42.906 25.41 C-56.366 21.68 -70.424 26.402 -82.438 32.625 C-94.391 39.56 -105.528 47.872 -116.209 56.614 C-118 58 -118 58 -119.95 59.251 C-125.696 63.051 -127.617 66.461 -129.43 73 C-129.707 73.908 -129.984 74.816 -130.269 75.752 C-130.877 77.755 -131.473 79.762 -132.057 81.773 C-133.035 85.12 -134.054 88.453 -135.083 91.785 C-137.25 98.818 -139.376 105.862 -141.495 112.909 C-142.574 116.492 -143.656 120.074 -144.738 123.656 C-144.959 124.387 -145.18 125.119 -145.408 125.872 C-145.859 127.366 -146.311 128.86 -146.762 130.355 C-147.449 132.628 -148.135 134.902 -148.821 137.176 C-152.051 147.874 -155.298 158.568 -158.555 169.258 C-158.782 170.004 -159.009 170.75 -159.243 171.519 C-161.052 177.454 -162.861 183.389 -164.67 189.324 C-173.619 218.68 -173.619 218.68 -177.953 233.195 C-178.098 233.682 -178.098 233.682 -178.834 236.144 C-180.133 240.495 -181.427 244.848 -182.715 249.204 C-183.148 250.662 -183.582 252.12 -184.016 253.578 C-184.198 254.194 -184.198 254.194 -185.118 257.31 C-186 260 -186 260 -187 261 C-188.596 261.093 -190.196 261.117 -191.795 261.114 C-192.816 261.113 -193.837 261.113 -194.889 261.113 C-195.999 261.108 -197.11 261.103 -198.254 261.098 C-199.384 261.096 -200.515 261.095 -201.68 261.093 C-205.307 261.088 -208.935 261.075 -212.562 261.062 C-215.015 261.057 -217.467 261.053 -219.92 261.049 C-225.947 261.038 -231.973 261.021 -238 261 C-237.403 253.924 -235.501 247.534 -233.371 240.777 C-232.792 238.909 -232.213 237.041 -231.633 235.173 C-231.008 233.161 -230.38 231.15 -229.751 229.14 C-227.702 222.59 -225.675 216.034 -223.646 209.479 C-222.921 207.141 -222.196 204.803 -221.471 202.466 C-215.159 182.103 -208.986 161.699 -202.804 141.296 C-201.548 137.152 -200.292 133.008 -199.035 128.863 C-198.911 128.454 -198.911 128.454 -198.284 126.384 C-194.739 114.692 -191.165 103.01 -187.571 91.334 C-186.086 86.507 -184.605 81.678 -183.124 76.85 C-181.728 72.302 -180.325 67.756 -178.917 63.211 C-178.056 60.427 -177.201 57.641 -176.349 54.854 C-175.768 52.962 -175.179 51.073 -174.589 49.183 C-174.417 48.619 -174.417 48.619 -173.547 45.761 C-173.246 44.787 -172.946 43.813 -172.636 42.809 C-171.943 39.747 -171.738 37.129 -172 34 C-174.585 31.947 -177.212 30.91 -180.25 29.625 C-183 28 -183 28 -183.824 25.887 C-184.062 21.983 -182.885 18.796 -181.562 15.188 C-181.32 14.495 -181.077 13.802 -180.826 13.088 C-180.228 11.388 -179.616 9.693 -179 8 C-177.884 7.819 -176.767 7.639 -175.617 7.453 C-135.444 0.921 -135.444 0.921 -116.25 -4.385 C-112.847 -5.315 -109.425 -6.157 -106 -7 C-106.601 -2.059 -107.61 2.468 -109.066 7.246 C-109.265 7.902 -109.463 8.558 -109.667 9.234 C-110.294 11.303 -110.928 13.37 -111.562 15.438 C-111.992 16.851 -112.421 18.264 -112.85 19.678 C-113.894 23.12 -114.945 26.561 -116 30 C-115.67 30.33 -115.34 30.66 -115 31 C-114.791 30.781 -114.791 30.781 -113.732 29.675 C-109.579 25.417 -105.278 21.662 -100.5 18.125 C-100.154 17.868 -100.154 17.868 -98.403 16.568 C-71.107 -3.396 -31.511 -21.575 0 0 Z " fill="#181717" transform="translate(2118,920)"/>
<path d="M0 0 C4.518 6.277 4.547 11.476 4.375 19.062 C4.374 20.087 4.372 21.111 4.371 22.166 C4.315 27.327 4.088 32.411 3.535 37.54 C1.728 54.319 1.731 71.001 1.804 87.852 C1.815 90.969 1.815 94.085 1.814 97.201 C1.815 126.048 1.815 126.048 2.782 140.415 C3.078 145.28 3.099 150.128 3 155 C3.66 155 4.32 155 5 155 C4.997 155.688 4.994 156.376 4.991 157.086 C4.966 164.256 4.99 171.426 5.043 178.596 C5.06 181.272 5.057 183.946 5.045 186.622 C5.03 190.47 5.059 194.316 5.098 198.164 C5.083 199.358 5.069 200.552 5.054 201.782 C5.197 209.955 5.197 209.955 7.552 213.02 C9.439 214.611 9.439 214.611 11.317 215.84 C14.276 217.88 15.238 220.644 16 224 C18.082 237.837 18.082 237.837 15 244 C12.022 247.123 8.88 250.06 5 252 C4.314 291.397 3.9 330.788 3.902 370.191 C3.902 370.666 3.902 370.666 3.903 373.065 C3.904 384.628 3.914 396.191 3.928 407.754 C3.939 417.746 3.945 427.738 3.95 437.729 C3.96 458.153 3.977 478.576 4 499 C4.691 499.202 5.382 499.404 6.094 499.612 C6.546 499.745 6.546 499.745 8.833 500.421 C9.731 500.685 10.628 500.949 11.552 501.221 C18.859 503.547 22.896 508.265 26.375 514.866 C32.497 527.155 35.135 538.275 31.375 551.875 C27.901 561.9 22.162 566.109 13 571 C12.612 571.208 12.612 571.208 10.648 572.262 C5.364 575 5.364 575 3 575 C2.97 575.489 2.97 575.489 2.816 577.965 C2.733 579.276 2.649 580.587 2.562 581.938 C2.522 582.581 2.522 582.581 2.316 585.84 C2.136 588.483 1.861 591.048 1.511 593.68 C0.676 601.179 0.662 608.736 0.504 616.273 C0.463 618.093 0.422 619.912 0.381 621.732 C-0.208 648.757 -0.568 675.787 -0.963 702.816 C-1.075 710.492 -1.189 718.169 -1.304 725.846 C-1.538 741.564 -1.77 757.282 -2 773 C-1.692 773.093 -1.692 773.093 -0.132 773.562 C0.677 773.816 1.486 774.07 2.32 774.332 C2.721 774.456 2.721 774.456 4.75 775.081 C9.548 777.041 11.465 781.004 13.812 785.375 C15.225 789.541 15.317 793.764 15.375 798.125 C15.389 798.806 15.403 799.487 15.417 800.189 C15.363 805.968 13.905 810.039 9.875 814.188 C7.279 815.824 5.21 816.686 2.32 817.613 C1.511 817.875 0.702 818.137 -0.132 818.407 C-0.749 818.603 -1.365 818.799 -2 819 C-1.894 856.129 -1.784 893.258 -1.669 930.387 C-1.655 934.81 -1.641 939.234 -1.628 943.658 C-1.625 944.539 -1.622 945.419 -1.619 946.326 C-1.576 960.419 -1.535 974.511 -1.495 988.604 C-1.454 1003.159 -1.41 1017.714 -1.363 1032.268 C-1.337 1040.404 -1.312 1048.539 -1.291 1056.674 C-1.199 1091.734 -0.974 1126.784 -0.345 1161.839 C0.013 1181.894 0.124 1201.942 0 1222 C0.99 1222.33 1.98 1222.66 3 1223 C6.462 1228.461 8.89 1234.466 8.492 1240.992 C7.592 1244.666 5.756 1246.432 3 1249 C1.685 1249.702 0.355 1250.378 -1 1251 C-1.002 1252.098 -1.003 1253.195 -1.005 1254.326 C-1.082 1302.74 -1.16 1351.154 -1.244 1399.567 C-1.245 1400.301 -1.246 1401.035 -1.248 1401.792 C-1.275 1417.746 -1.303 1433.701 -1.331 1449.656 C-1.345 1457.481 -1.359 1465.306 -1.372 1473.131 C-1.373 1473.521 -1.373 1473.521 -1.376 1475.491 C-1.421 1500.69 -1.462 1525.888 -1.501 1551.087 C-1.542 1577.001 -1.585 1602.915 -1.633 1628.829 C-1.64 1632.497 -1.646 1636.164 -1.653 1639.832 C-1.654 1640.554 -1.656 1641.275 -1.657 1642.019 C-1.678 1653.596 -1.696 1665.173 -1.712 1676.751 C-1.729 1688.415 -1.749 1700.079 -1.773 1711.743 C-1.785 1718.052 -1.797 1724.362 -1.803 1730.672 C-1.81 1736.465 -1.821 1742.258 -1.835 1748.051 C-1.839 1750.131 -1.842 1752.211 -1.843 1754.29 C-1.849 1765.298 -2.002 1776.294 -2.385 1787.296 C-2.415 1788.337 -2.445 1789.377 -2.477 1790.449 C-2.496 1790.928 -2.496 1790.928 -2.591 1793.354 C-2.622 1794.204 -2.652 1795.055 -2.684 1795.931 C-3 1798 -3 1798 -5 1800 C-7.562 1800.188 -7.562 1800.188 -10 1800 C-15.137 1794.863 -12.241 1773.985 -12.299 1766.721 C-12.318 1764.673 -12.338 1762.625 -12.358 1760.576 C-12.411 1754.989 -12.457 1749.402 -12.502 1743.815 C-12.532 1740.248 -12.562 1736.681 -12.593 1733.114 C-13.051 1680.635 -13.251 1628.154 -13.417 1575.673 C-13.476 1557.131 -13.544 1538.59 -13.619 1520.048 C-13.671 1506.983 -13.722 1493.917 -13.773 1480.852 C-13.776 1480.139 -13.779 1479.427 -13.782 1478.694 C-13.922 1442.739 -14.023 1406.785 -14.034 1370.83 C-14.039 1358.157 -14.066 1345.483 -14.098 1332.81 C-14.121 1323.174 -14.122 1313.539 -14.095 1303.903 C-14.078 1297.516 -14.086 1291.13 -14.114 1284.743 C-14.129 1281.152 -14.133 1277.563 -14.105 1273.973 C-14.076 1270.163 -14.1 1266.356 -14.129 1262.546 C-14.112 1261.449 -14.095 1260.351 -14.077 1259.22 C-14.196 1251.989 -14.196 1251.989 -16.546 1249.099 C-18.429 1247.528 -18.429 1247.528 -20.304 1246.297 C-22.36 1244.724 -23.071 1243.401 -24 1241 C-24.457 1235.973 -24.149 1232.989 -21 1229 C-20.495 1228.666 -20.495 1228.666 -17.937 1226.974 C-15.194 1224.695 -14.529 1223.121 -14.199 1219.584 C-14.146 1217.736 -14.126 1215.887 -14.132 1214.038 C-14.112 1212.995 -14.093 1211.953 -14.073 1210.879 C-14.016 1207.252 -14.007 1203.627 -14 1200 C-13.99 1198.655 -13.979 1197.31 -13.968 1195.965 C-13.877 1185.673 -13.872 1175.381 -13.884 1165.088 C-13.888 1160.442 -13.887 1155.796 -13.886 1151.151 C-13.886 1143.13 -13.889 1135.109 -13.894 1127.088 C-13.902 1115.492 -13.905 1103.895 -13.906 1092.299 C-13.908 1073.478 -13.915 1054.657 -13.925 1035.836 C-13.934 1017.569 -13.941 999.302 -13.945 981.035 C-13.945 979.906 -13.946 978.778 -13.946 977.615 C-13.947 971.951 -13.948 966.288 -13.95 960.624 C-13.96 913.75 -13.978 866.875 -14 820 C-14.555 820.007 -14.555 820.007 -17.363 820.044 C-22.542 819.981 -25.199 818.415 -29 815 C-33.467 809.889 -36.429 804.856 -36.938 798 C-36.407 790.428 -33.112 786.51 -28 781 C-23.71 778.69 -19.42 776.38 -15 774 C-15 708.33 -15 642.66 -15 575 C-16.65 574.34 -18.3 573.68 -20 573 C-25.751 569.344 -29.564 564.126 -33.312 558.562 C-33.733 557.942 -34.153 557.322 -34.587 556.683 C-39.977 548.397 -42.123 540.936 -41 531 C-37.833 517.892 -28.673 507.672 -18.125 499.875 C-14.842 496.978 -14.118 494.106 -13.659 489.8 C-13.616 488.591 -13.573 487.381 -13.529 486.135 C-13.503 485.462 -13.477 484.789 -13.449 484.096 C-13.364 481.866 -13.292 479.636 -13.219 477.406 C-13.16 475.82 -13.1 474.235 -13.04 472.649 C-12.882 468.448 -12.734 464.247 -12.589 460.046 C-12.36 453.466 -12.117 446.885 -11.872 440.305 C-11.812 438.66 -11.751 437.016 -11.691 435.371 C-11.238 422.993 -10.623 410.631 -9.918 398.266 C-9.218 385.92 -8.698 373.619 -8.812 361.25 C-8.82 359.585 -8.827 357.92 -8.834 356.255 C-8.911 342.273 -9.165 328.292 -9.438 314.312 C-9.457 313.304 -9.476 312.295 -9.496 311.256 C-9.728 299.648 -10.076 288.055 -10.667 276.46 C-11.058 268.635 -11.101 260.834 -11 253 C-11.382 252.938 -11.382 252.938 -13.312 252.625 C-18.83 251.342 -21.985 247.425 -24.875 242.812 C-27.396 237.86 -28.216 233.464 -27 228 C-23.491 220.587 -18.626 215.931 -11 213 C-10.977 202.046 -10.959 191.092 -10.948 180.138 C-10.943 175.05 -10.936 169.963 -10.925 164.875 C-10.914 159.953 -10.908 155.032 -10.905 150.111 C-10.903 148.245 -10.9 146.379 -10.894 144.513 C-10.867 134.686 -11.016 124.959 -11.761 115.157 C-12.299 108.055 -12.397 100.931 -12.562 93.812 C-12.583 92.95 -12.604 92.087 -12.625 91.199 C-13.018 74.081 -13.139 56.962 -13.181 39.84 C-13.187 37.819 -13.197 35.797 -13.208 33.776 C-13.226 29.961 -13.23 26.147 -13.23 22.332 C-13.234 21.76 -13.234 21.76 -13.252 18.868 C-13.213 5.213 -13.213 5.213 -9 1 C-5.974 -0.044 -3.182 -0.088 0 0 Z " fill="#181717" transform="translate(2254,1441)"/>
<path d="M0 0 C6.028 4.885 10.367 11.573 11.625 19.25 C12.595 31.233 11.366 42.261 3.562 51.812 C-2.244 57.676 -8.851 60.306 -17.062 60.688 C-22.786 60.38 -27.554 58.976 -31.75 55 C-36.258 47.371 -36.78 38.033 -34.699 29.469 C-34.163 27.822 -33.615 26.178 -33.055 24.539 C-31.826 20.4 -31.388 16.224 -33.375 12.25 C-36.689 10.593 -39.82 10.567 -43.375 11.25 C-52.835 16.629 -55.312 29.523 -58.266 39.301 C-58.439 39.864 -58.439 39.864 -59.315 42.712 C-60.426 46.327 -61.526 49.944 -62.625 53.562 C-63.385 56.044 -64.145 58.525 -64.906 61.006 C-70.131 78.067 -75.29 95.147 -80.375 112.25 C-64.205 112.25 -48.035 112.25 -31.375 112.25 C-33.628 123.513 -33.628 123.513 -35.066 128.223 C-35.371 129.224 -35.676 130.225 -35.99 131.256 C-36.147 131.76 -36.147 131.76 -36.938 134.312 C-37.254 135.356 -37.57 136.399 -37.896 137.475 C-40.241 145.116 -40.241 145.116 -41.375 146.25 C-42.94 146.343 -44.51 146.367 -46.078 146.364 C-47.079 146.363 -48.08 146.363 -49.112 146.363 C-50.2 146.358 -51.289 146.353 -52.41 146.348 C-53.519 146.346 -54.627 146.345 -55.769 146.343 C-59.325 146.338 -62.881 146.325 -66.438 146.312 C-68.842 146.307 -71.246 146.303 -73.65 146.299 C-79.559 146.288 -85.467 146.271 -91.375 146.25 C-91.541 146.948 -91.707 147.646 -91.878 148.365 C-93.877 156.587 -96.249 164.663 -98.742 172.746 C-99.173 174.153 -99.604 175.559 -100.035 176.966 C-100.956 179.97 -101.878 182.973 -102.801 185.976 C-104.278 190.778 -105.751 195.581 -107.222 200.384 C-107.728 202.033 -108.233 203.683 -108.738 205.332 C-108.99 206.154 -109.242 206.976 -109.502 207.824 C-110.274 210.341 -111.046 212.859 -111.818 215.377 C-116.45 230.482 -121.056 245.596 -125.653 260.713 C-126.938 264.938 -128.223 269.163 -129.509 273.388 C-133.345 285.993 -137.178 298.598 -141.006 311.206 C-142.947 317.599 -144.89 323.993 -146.833 330.386 C-148.213 334.926 -149.591 339.466 -150.968 344.007 C-151.82 346.816 -152.674 349.624 -153.528 352.433 C-154.105 354.332 -154.681 356.232 -155.256 358.132 C-155.433 358.712 -155.433 358.712 -156.326 361.649 C-156.627 362.64 -156.928 363.631 -157.238 364.652 C-158.887 369.871 -160.644 375.057 -162.375 380.25 C-179.535 380.25 -196.695 380.25 -214.375 380.25 C-211 366.752 -211 366.752 -209.304 361.257 C-208.92 360.008 -208.536 358.759 -208.141 357.472 C-207.726 356.131 -207.31 354.79 -206.895 353.449 C-206.449 352.003 -206.004 350.556 -205.559 349.109 C-204.605 346.01 -203.649 342.911 -202.692 339.812 C-200.359 332.257 -198.036 324.698 -195.713 317.14 C-195.173 315.383 -194.632 313.625 -194.092 311.868 C-188.333 293.143 -182.626 274.401 -176.936 255.655 C-176.188 253.19 -175.44 250.726 -174.692 248.261 C-169.511 231.201 -164.34 214.139 -159.179 197.074 C-158.463 194.703 -157.745 192.332 -157.028 189.961 C-156.797 189.197 -156.565 188.432 -156.327 187.644 C-155.867 186.125 -155.408 184.606 -154.948 183.087 C-153.624 178.71 -152.302 174.333 -150.981 169.956 C-150.37 167.93 -149.758 165.905 -149.146 163.88 C-148.404 161.428 -147.664 158.976 -146.925 156.523 C-146.601 155.453 -146.277 154.384 -145.944 153.282 C-145.663 152.352 -145.382 151.422 -145.093 150.465 C-144.375 148.25 -144.375 148.25 -143.375 146.25 C-151.295 146.25 -159.215 146.25 -167.375 146.25 C-166.278 138.57 -164.912 131.562 -160.125 125.312 C-155.022 121.485 -149.709 119.339 -143.688 117.312 C-139.123 115.661 -136.242 114.333 -133.375 110.25 C-132.74 108.729 -132.156 107.186 -131.605 105.633 C-131.431 105.142 -131.431 105.142 -130.551 102.659 C-128.98 98.105 -127.442 93.541 -125.91 88.974 C-115.996 59.449 -115.996 59.449 -109.375 46.25 C-109.018 45.527 -108.662 44.805 -108.294 44.06 C-97.319 21.971 -82.589 1.997 -58.637 -6.75 C-39.703 -12.726 -16.668 -11.408 0 0 Z " fill="#181717" transform="translate(2829.375,800.75)"/>
<path d="M0 0 C23.76 0 47.52 0 72 0 C68.625 13.498 68.625 13.498 66.929 18.993 C66.545 20.242 66.161 21.491 65.766 22.778 C65.351 24.119 64.935 25.46 64.52 26.801 C64.074 28.247 63.629 29.693 63.184 31.139 C62.231 34.238 61.275 37.336 60.318 40.434 C57.98 48.006 55.652 55.581 53.324 63.156 C52.783 64.917 52.241 66.677 51.7 68.437 C46.028 86.88 40.408 105.339 34.805 123.803 C34.059 126.262 33.312 128.721 32.566 131.181 C30.305 138.629 28.044 146.078 25.784 153.528 C21.22 168.572 16.651 183.614 12.081 198.657 C10.577 203.607 9.074 208.558 7.57 213.509 C2.655 229.693 -2.265 245.876 -7.197 262.055 C-7.925 264.441 -8.652 266.826 -9.379 269.212 C-9.854 270.771 -10.329 272.329 -10.804 273.888 C-11.036 274.649 -11.268 275.411 -11.507 276.195 C-12.628 279.872 -13.749 283.549 -14.872 287.225 C-18.979 300.677 -23.072 314.132 -27.027 327.629 C-27.317 328.613 -27.606 329.596 -27.904 330.61 C-28.168 331.516 -28.431 332.421 -28.703 333.354 C-28.931 334.135 -29.159 334.917 -29.394 335.722 C-30.832 341.126 -31.739 346.414 -31 352 C-29.375 354.625 -29.375 354.625 -27 356 C-19.273 356.176 -12.561 349.994 -7.086 345.113 C-3.734 341.718 -0.865 337.954 2.02 334.16 C2.673 333.447 3.327 332.734 4 332 C7 332 7 332 9.699 334.406 C10.703 335.43 11.699 336.462 12.688 337.5 C13.199 338.025 13.71 338.549 14.236 339.09 C15.498 340.387 16.75 341.692 18 343 C12.986 354.072 5.394 363.292 -3 372 C-3.589 372.626 -4.178 373.253 -4.785 373.898 C-8.999 377.991 -13.746 380.661 -18.938 383.312 C-19.594 383.65 -20.25 383.988 -20.926 384.336 C-29.411 388.477 -37.578 389.345 -46.938 389.312 C-47.862 389.329 -48.787 389.345 -49.74 389.361 C-59.179 389.368 -68.691 387.321 -76 381 C-83.968 371.739 -84.814 361.393 -84.218 349.594 C-83.852 345.24 -82.983 341.035 -82.039 336.773 C-81.822 335.787 -81.604 334.801 -81.38 333.784 C-78.465 321.075 -74.499 308.672 -70.584 296.244 C-69.471 292.703 -68.37 289.159 -67.269 285.614 C-67.045 284.891 -66.82 284.168 -66.589 283.423 C-66.131 281.95 -65.673 280.476 -65.215 279.003 C-64.521 276.77 -63.826 274.537 -63.13 272.304 C-58.568 257.656 -54.114 242.976 -49.678 228.289 C-48.018 222.792 -46.354 217.296 -44.691 211.8 C-44.272 210.415 -43.853 209.03 -43.434 207.645 C-38.713 192.038 -33.967 176.438 -29.218 160.839 C-28.565 158.697 -27.913 156.555 -27.261 154.412 C-22.969 140.315 -18.676 126.218 -14.381 112.122 C-12.45 105.786 -10.52 99.45 -8.591 93.113 C-7.444 89.349 -6.297 85.585 -5.15 81.821 C-2.754 73.962 -0.364 66.101 2.016 58.238 C2.902 55.322 3.799 52.409 4.699 49.498 C5.164 47.973 5.629 46.447 6.094 44.922 C6.472 43.696 6.85 42.469 7.24 41.206 C8.008 37.965 8.306 35.314 8 32 C4.877 28.142 1.145 25.672 -3 23 C-3.33 22.67 -3.33 22.67 -5 21 C-4.746 13.135 -2.611 7.834 0 0 Z " fill="#181717" transform="translate(2886,799)"/>
<path d="M0 0 C7.085 4.859 11.139 10.623 13 19 C13.915 33.861 12.739 46.486 3.207 58.617 C-3.258 65.597 -10.061 68.46 -19.438 69.312 C-24.811 68.841 -29.65 68.08 -33.801 64.406 C-38.08 59.225 -39.64 53.489 -41 47 C-64.686 57.151 -79.059 91.432 -88.179 113.906 C-95.132 131.783 -100.862 149.953 -106.347 168.319 C-107.462 172.045 -108.587 175.768 -109.712 179.491 C-111.098 184.084 -112.484 188.677 -113.865 193.271 C-118.24 207.823 -122.672 222.357 -127.114 236.889 C-128.637 241.875 -130.159 246.862 -131.681 251.848 C-133.12 256.566 -134.56 261.283 -136 266 C-153.16 266 -170.32 266 -188 266 C-186.751 260.379 -185.508 255.081 -183.84 249.615 C-183.632 248.932 -183.425 248.249 -183.211 247.545 C-182.528 245.299 -181.84 243.054 -181.152 240.809 C-180.663 239.203 -180.174 237.596 -179.685 235.99 C-178.646 232.577 -177.604 229.165 -176.561 225.753 C-174.926 220.402 -173.297 215.05 -171.668 209.697 C-167.148 194.841 -162.619 179.989 -158.046 165.149 C-156.504 160.145 -154.969 155.138 -153.434 150.132 C-152.415 146.816 -151.385 143.504 -150.355 140.191 C-129.994 74.112 -129.994 74.112 -140 51 C-142.687 47.338 -145.097 46.49 -149.537 45.777 C-150.891 45.592 -152.245 45.407 -153.6 45.223 C-156.731 44.719 -158.625 44.376 -160.902 42.094 C-163.027 38.041 -163.107 34.827 -163.062 30.312 C-163.053 29.133 -163.044 27.954 -163.035 26.738 C-163.024 25.835 -163.012 24.931 -163 24 C-161.8 23.732 -160.6 23.464 -159.363 23.188 C-137.752 18.179 -117.731 10.039 -98.602 -1.188 C-97 -2 -97 -2 -95 -2 C-94.031 -0.172 -93.076 1.663 -92.125 3.5 C-91.591 4.521 -91.058 5.542 -90.508 6.594 C-86.98 14.563 -86.68 21.706 -86.75 30.312 C-86.754 31.475 -86.758 32.637 -86.762 33.835 C-86.885 46.598 -87.862 59.292 -89 72 C-88.749 71.453 -88.499 70.906 -88.241 70.342 C-75.515 42.707 -60.076 11.325 -31 -2 C-20.695 -5.504 -9.539 -5.614 0 0 Z " fill="#181717" transform="translate(2609,915)"/>
<path d="M0 0 C7.259 -0.07 14.518 -0.123 21.778 -0.155 C25.149 -0.171 28.521 -0.192 31.893 -0.226 C35.78 -0.263 39.667 -0.28 43.555 -0.293 C44.152 -0.301 44.152 -0.301 47.176 -0.34 C59.335 -0.342 69.908 2.561 79.078 10.887 C86.022 18.312 87.495 25.037 87.422 35.064 C87.128 43.292 84.361 49.349 78.828 55.371 C73.088 60.486 66.224 63.592 59 66 C59.358 66.38 59.358 66.38 61.172 68.305 C64.858 72.739 66.941 77.885 69.25 83.125 C69.725 84.18 70.201 85.235 70.69 86.323 C72.99 91.438 75.252 96.57 77.504 101.707 C77.895 102.592 78.286 103.477 78.688 104.388 C79.411 106.027 80.126 107.669 80.831 109.315 C87.072 123.498 87.072 123.498 92.992 126.535 C93.944 126.709 94.895 126.883 95.875 127.062 C96.842 127.26 97.809 127.457 98.805 127.66 C99.529 127.772 100.254 127.884 101 128 C101.562 129.938 101.562 129.938 102 132 C101 133 101 133 98.408 133.114 C97.282 133.108 96.156 133.103 94.996 133.098 C93.781 133.094 92.566 133.091 91.314 133.088 C90.035 133.08 88.756 133.071 87.438 133.062 C86.154 133.058 84.871 133.053 83.549 133.049 C80.366 133.037 77.183 133.021 74 133 C67.784 121.256 62.802 108.978 57.663 96.738 C56.486 93.94 55.302 91.146 54.117 88.352 C53.763 87.501 53.409 86.651 53.044 85.776 C48.162 74.289 48.162 74.289 42.75 71.062 C39.354 70.1 38.066 69.937 34.766 70.434 C33.523 70.621 32.28 70.807 31 71 C30.924 78.208 30.871 85.416 30.835 92.625 C30.82 95.078 30.8 97.531 30.774 99.984 C30.737 103.506 30.72 107.028 30.707 110.551 C30.692 111.651 30.676 112.751 30.66 113.884 C30.66 114.395 30.66 114.395 30.659 116.978 C30.653 117.877 30.646 118.776 30.639 119.703 C31.076 122.486 31.77 123.328 34 125 C36.918 125.949 36.918 125.949 40.188 126.688 C41.274 126.939 42.361 127.19 43.48 127.449 C44.312 127.631 45.143 127.813 46 128 C46 129.65 46 131.3 46 133 C30.49 133 14.98 133 -1 133 C-1.33 131.68 -1.66 130.36 -2 129 C1.592 126.605 4.527 126.252 8.723 125.562 C11 125 11 125 13 123 C13.252 120.995 13.252 120.995 13.254 118.483 C13.26 117.532 13.265 116.582 13.271 115.602 C13.269 115.079 13.269 115.079 13.259 112.432 C13.262 111.332 13.266 110.233 13.269 109.101 C13.278 105.452 13.272 101.804 13.266 98.156 C13.267 95.63 13.269 93.105 13.271 90.579 C13.274 85.279 13.27 79.98 13.261 74.68 C13.25 68.549 13.253 62.417 13.264 56.286 C13.275 50.393 13.273 44.501 13.268 38.608 C13.266 36.098 13.268 33.588 13.273 31.077 C13.278 27.574 13.27 24.071 13.259 20.568 C13.263 19.522 13.267 18.476 13.271 17.398 C13.265 16.447 13.26 15.496 13.254 14.517 C13.253 13.688 13.252 12.859 13.252 12.005 C13 10 13 10 11 8 C8.978 7.389 6.932 6.856 4.875 6.375 C3.779 6.115 2.684 5.854 1.555 5.586 C1.133 5.489 1.133 5.489 -1 5 C-0.67 3.35 -0.34 1.7 0 0 Z M31 8 C29.736 10.527 29.88 12.264 29.886 15.092 C29.887 16.153 29.887 17.214 29.887 18.307 C29.892 19.456 29.897 20.605 29.902 21.789 C29.904 22.963 29.905 24.136 29.907 25.345 C29.912 29.105 29.925 32.865 29.938 36.625 C29.943 39.169 29.947 41.714 29.951 44.258 C29.962 50.505 29.979 56.753 30 63 C31.439 63.173 32.877 63.342 34.317 63.51 C35.118 63.605 35.919 63.7 36.745 63.797 C44.953 64.535 53.261 61.534 60 57 C66.278 51.479 69.622 45.796 70.277 37.477 C70.505 28.352 69.869 21.344 64.812 13.688 C58.245 7.412 51.387 5.856 42.5 5.812 C41.845 5.805 41.845 5.805 38.531 5.77 C35.32 5.979 33.6 6.184 31 8 Z " fill="#181717" transform="translate(2186,3535)"/>
<path d="M0 0 C15.726 11.578 24.277 27.301 27.854 46.245 C30.991 67.678 28.235 91.164 16.125 109.5 C7.55 120.996 -2.598 129.929 -17.195 132.191 C-31.042 133.211 -42.272 128.235 -52.688 119.375 C-65.22 107.961 -72.966 89.717 -73.812 72.897 C-74.45 49.864 -71.775 27.974 -56.367 9.609 C-40.955 -6.527 -19.887 -12.368 0 0 Z M-44.688 12.375 C-54.382 27.446 -55.922 44.909 -55.938 62.375 C-55.938 63.068 -55.939 63.76 -55.94 64.474 C-55.91 83.528 -53.7 104.055 -39.703 118.41 C-33.321 124.252 -28.343 125.864 -19.688 125.684 C-12.974 124.993 -7.95 121.537 -3.414 116.66 C12.052 96.19 12.861 66.096 9.492 41.714 C7.082 27.174 2.047 13.404 -9.609 3.816 C-22.559 -5.166 -35.719 0.911 -44.688 12.375 Z " fill="#181717" transform="translate(1928.6875,3538.625)"/>
<path d="M0 0 C8.91 0 17.82 0 27 0 C29.367 4.733 30.996 8.951 32.355 13.98 C32.81 15.613 33.265 17.245 33.72 18.877 C33.958 19.741 34.197 20.605 34.443 21.495 C39.513 39.821 45.026 57.993 50.75 76.125 C51.112 77.271 51.473 78.417 51.846 79.598 C53.89 86.067 55.941 92.535 58 99 C59.885 96.172 60.701 94.141 61.677 90.931 C61.994 89.894 62.312 88.857 62.639 87.789 C62.979 86.661 63.318 85.533 63.668 84.371 C64.026 83.194 64.384 82.017 64.753 80.804 C65.709 77.654 66.66 74.502 67.61 71.35 C68.547 68.247 69.494 65.146 70.439 62.045 C74.123 49.912 77.714 37.751 81.113 25.535 C81.422 24.459 81.73 23.383 82.047 22.275 C84.538 13.151 84.538 13.151 83 8 C79.37 7.01 75.74 6.02 72 5 C72 3.35 72 1.7 72 0 C83.88 0 95.76 0 108 0 C108.33 1.32 108.66 2.64 109 4 C107.079 4.684 105.159 5.367 103.238 6.051 C96.74 8.807 96.74 8.807 94.671 12.145 C90.612 22.617 87.209 33.297 83.812 44 C83.475 45.058 83.137 46.116 82.789 47.206 C75.816 69.064 69.212 91.031 62.677 113.023 C62.305 114.276 61.932 115.528 61.548 116.818 C60.847 119.179 60.147 121.541 59.449 123.903 C59.14 124.944 58.831 125.986 58.512 127.059 C58.243 127.969 57.973 128.88 57.696 129.818 C57 132 57 132 56 134 C54.35 133.67 52.7 133.34 51 133 C49.264 127.46 47.536 121.918 45.812 116.375 C45.675 115.934 45.675 115.934 44.981 113.702 C40.74 100.045 36.595 86.361 32.496 72.66 C32.26 71.87 32.023 71.079 31.779 70.265 C29.38 62.248 26.985 54.231 24.599 46.211 C23.694 43.172 22.787 40.134 21.879 37.095 C21.451 35.661 21.024 34.226 20.599 32.79 C20.014 30.817 19.425 28.845 18.835 26.873 C18.503 25.758 18.172 24.644 17.83 23.495 C17 21 17 21 16 20 C-1.959 74.396 -1.959 74.396 -8 94.438 C-8.199 95.095 -8.397 95.753 -8.602 96.43 C-14.547 116.157 -14.547 116.157 -14 123 C-11.537 125.463 -9.726 125.768 -6.375 126.625 C-5.372 126.885 -4.369 127.146 -3.336 127.414 C-2.951 127.511 -2.951 127.511 -1 128 C-1 129.65 -1 131.3 -1 133 C-14.2 133 -27.4 133 -41 133 C-41.33 131.68 -41.66 130.36 -42 129 C-39.173 126.173 -36.374 126.3 -32.508 125.758 C-29.306 124.79 -28.17 123.542 -26 121 C-24.642 118.153 -24.642 118.153 -23.363 114.605 C-23.117 113.926 -22.872 113.246 -22.618 112.546 C-18.46 100.883 -14.681 89.085 -10.841 77.314 C-9.98 74.679 -9.115 72.044 -8.25 69.41 C-5.689 61.608 -3.154 53.798 -0.638 45.981 C0.013 43.958 0.668 41.936 1.323 39.914 C2.403 36.574 3.471 33.231 4.531 29.885 C5.12 28.033 5.719 26.183 6.318 24.334 C8.083 18.721 9.53 13.898 9 8 C6.03 7.01 3.06 6.02 0 5 C0 3.35 0 1.7 0 0 Z " fill="#181717" transform="translate(2369,3535)"/>
<path d="M0 0 C0.744 0.004 1.489 0.007 2.256 0.011 C3.036 0.011 3.817 0.011 4.621 0.01 C7.213 0.011 9.805 0.019 12.396 0.027 C14.189 0.029 15.981 0.03 17.773 0.031 C22.499 0.035 27.226 0.045 31.952 0.056 C36.772 0.066 41.591 0.071 46.41 0.076 C55.873 0.086 65.336 0.103 74.799 0.124 C75.859 3.305 75.928 5.589 75.931 8.929 C75.933 10.07 75.934 11.211 75.935 12.386 C75.932 13.579 75.928 14.771 75.924 15.999 C75.928 17.184 75.931 18.369 75.935 19.589 C75.934 20.733 75.933 21.876 75.931 23.054 C75.93 24.098 75.929 25.142 75.928 26.218 C75.806 28.961 75.418 31.454 74.799 34.124 C72.517 34.109 72.517 34.109 69.799 33.124 C68.387 30.504 67.317 28.142 66.299 25.374 C63.684 18.419 60.837 13.223 53.799 9.874 C53.159 9.56 52.52 9.245 51.861 8.921 C46.542 6.866 41.294 6.972 35.674 6.999 C35.268 6.997 35.268 6.997 33.217 6.988 C32.437 6.989 31.657 6.99 30.853 6.992 C30.147 6.993 29.44 6.994 28.712 6.995 C26.799 7.124 26.799 7.124 23.799 8.124 C22.59 10.542 22.678 12.058 22.685 14.758 C22.685 15.238 22.685 15.238 22.685 17.669 C22.691 18.709 22.696 19.749 22.701 20.82 C22.702 21.882 22.704 22.945 22.705 24.04 C22.711 27.443 22.723 30.846 22.736 34.249 C22.741 36.553 22.746 38.856 22.75 41.16 C22.761 46.815 22.778 52.469 22.799 58.124 C25.466 58.179 28.131 58.218 30.799 58.249 C31.542 58.266 32.286 58.283 33.053 58.3 C38.723 58.35 44.84 58.126 49.681 54.851 C51.719 51.703 52.5 48.095 53.541 44.523 C53.956 43.731 54.371 42.94 54.799 42.124 C55.624 41.959 55.624 41.959 59.799 41.124 C59.799 55.314 59.799 69.504 59.799 84.124 C58.479 84.454 57.159 84.784 55.799 85.124 C55.366 84.114 54.932 83.103 54.486 82.062 C54.212 81.426 53.937 80.791 53.654 80.136 C53.1 78.833 52.56 77.523 52.037 76.206 C49.564 70.071 49.564 70.071 46.799 68.124 C41.911 66.119 37.733 65.847 32.549 65.937 C31.829 65.938 31.11 65.938 30.369 65.939 C25.081 65.983 25.081 65.983 22.799 67.124 C22.722 73.832 22.67 80.54 22.634 87.248 C22.619 89.528 22.598 91.808 22.572 94.089 C22.536 97.373 22.519 100.656 22.506 103.941 C22.49 104.955 22.475 105.968 22.459 107.013 C22.457 112.834 22.934 117.009 25.799 122.124 C32.738 127.463 41.466 126.708 49.799 126.124 C56.184 124.838 61.544 122.688 65.529 117.382 C67.692 113.536 69.17 109.466 70.623 105.308 C71.804 102.109 73.222 99.146 74.799 96.124 C76.119 96.124 77.439 96.124 78.799 96.124 C78.848 100.912 78.884 105.699 78.909 110.486 C78.919 112.115 78.932 113.743 78.95 115.372 C78.974 117.713 78.985 120.053 78.994 122.394 C79.004 123.122 79.015 123.85 79.025 124.601 C79.026 128.337 78.928 129.931 76.799 133.124 C74.107 133.411 71.645 133.503 68.952 133.465 C68.143 133.465 67.333 133.466 66.498 133.466 C63.814 133.464 61.131 133.441 58.447 133.417 C56.589 133.412 54.731 133.408 52.873 133.405 C47.977 133.393 43.082 133.364 38.186 133.33 C33.192 133.3 28.199 133.286 23.205 133.271 C13.403 133.239 3.601 133.187 -6.201 133.124 C-6.531 131.474 -6.861 129.824 -7.201 128.124 C-6.598 127.954 -5.995 127.784 -5.373 127.609 C-4.574 127.366 -3.775 127.124 -2.951 126.874 C-2.162 126.642 -1.374 126.41 -0.561 126.171 C2.525 124.802 3.788 123.899 5.799 121.124 C6.399 117.592 6.314 114.088 6.269 110.513 C6.271 109.433 6.273 108.353 6.275 107.24 C6.278 103.667 6.251 100.095 6.224 96.523 C6.22 94.045 6.216 91.567 6.214 89.088 C6.207 83.895 6.186 78.702 6.155 73.508 C6.116 66.839 6.098 60.169 6.088 53.499 C6.078 47.153 6.058 40.807 6.037 34.46 C6.034 33.243 6.03 32.025 6.027 30.77 C6.015 27.339 5.997 23.908 5.976 20.477 C5.973 19.453 5.97 18.429 5.968 17.373 C5.96 16.442 5.953 15.511 5.946 14.552 C5.942 13.74 5.937 12.929 5.933 12.093 C5.799 10.124 5.799 10.124 4.799 8.124 C2.514 7.492 2.514 7.492 -0.264 6.999 C-1.183 6.832 -2.102 6.664 -3.049 6.492 C-3.759 6.37 -4.47 6.249 -5.201 6.124 C-5.584 4.468 -5.915 2.8 -6.201 1.124 C-4.481 -0.595 -2.293 0.005 0 0 Z " fill="#181717" transform="translate(2524.2013244628906,3534.8755798339844)"/>
<path d="M0 0 C13.53 0 27.06 0 41 0 C41.165 0.825 41.165 0.825 42 5 C41.157 5.193 40.314 5.387 39.445 5.586 C38.35 5.846 37.254 6.107 36.125 6.375 C35.034 6.63 33.944 6.885 32.82 7.148 C30 8 30 8 28 10 C26.685 14.457 26.845 19.032 26.839 23.639 C26.834 24.498 26.829 25.357 26.824 26.243 C26.809 29.08 26.802 31.917 26.797 34.754 C26.791 36.736 26.785 38.718 26.78 40.7 C26.769 44.857 26.763 49.013 26.76 53.17 C26.754 58.47 26.73 63.77 26.702 69.07 C26.683 73.167 26.678 77.263 26.676 81.36 C26.673 83.312 26.665 85.264 26.652 87.216 C26.479 114.763 26.479 114.763 34.203 122.602 C40.446 127.46 47.772 129.37 55.594 128.816 C63.565 127.73 70.675 125.054 75.887 118.699 C81.037 110.681 82.308 102.477 82.259 93.087 C82.262 92.247 82.266 91.407 82.269 90.541 C82.278 87.794 82.272 85.048 82.266 82.301 C82.267 80.377 82.269 78.454 82.271 76.531 C82.274 72.514 82.27 68.497 82.261 64.48 C82.249 59.339 82.256 54.198 82.268 49.057 C82.275 45.091 82.273 41.125 82.268 37.159 C82.266 35.263 82.268 33.367 82.273 31.471 C82.278 28.822 82.27 26.174 82.259 23.525 C82.263 22.747 82.267 21.969 82.271 21.168 C82.237 16.753 81.841 13.039 80 9 C77.18 7.758 77.18 7.758 73.875 7.125 C72.779 6.901 71.684 6.676 70.555 6.445 C69.712 6.298 68.869 6.151 68 6 C67.957 4.334 67.959 2.666 68 1 C69 0 69 0 72.235 -0.114 C73.668 -0.113 75.102 -0.108 76.535 -0.098 C76.912 -0.097 76.912 -0.097 78.818 -0.093 C81.233 -0.088 83.648 -0.075 86.062 -0.062 C87.696 -0.057 89.329 -0.053 90.963 -0.049 C94.975 -0.038 98.988 -0.021 103 0 C103 1.65 103 3.3 103 5 C102.374 5.205 101.747 5.41 101.102 5.621 C100.284 5.891 99.467 6.16 98.625 6.438 C97.813 6.704 97.001 6.971 96.164 7.246 C94 8 94 8 92 9 C90.736 12.793 90.847 16.352 90.842 20.304 C90.837 21.152 90.832 21.999 90.827 22.873 C90.816 24.716 90.808 26.559 90.801 28.402 C90.789 31.33 90.769 34.257 90.748 37.185 C90.686 45.509 90.632 53.834 90.599 62.159 C90.578 67.253 90.542 72.346 90.498 77.439 C90.484 79.371 90.475 81.303 90.472 83.235 C90.444 98.647 90.294 113.681 79.371 125.809 C71.161 133.448 60.463 136 49.473 136 C37.372 135.369 26.371 132.884 17.75 123.875 C9.908 113.514 10.435 102.008 10.484 89.594 C10.496 86.324 10.485 83.055 10.468 79.785 C10.441 74.032 10.435 68.28 10.437 62.527 C10.439 53.292 10.425 44.057 10.381 34.822 C10.371 31.599 10.38 28.375 10.39 25.152 C10.384 23.186 10.377 21.22 10.369 19.254 C10.377 18.356 10.384 17.459 10.392 16.534 C10.386 15.713 10.379 14.891 10.372 14.045 C10.372 13.332 10.373 12.619 10.374 11.885 C9.887 9.431 8.923 8.55 7 7 C4.957 6.27 4.957 6.27 2.812 5.812 C2.183 5.678 2.183 5.678 -1 5 C-0.67 3.35 -0.34 1.7 0 0 Z " fill="#181717" transform="translate(2022,3535)"/>
<path d="M0 0 C13.2 0 26.4 0 40 0 C40.165 0.825 40.165 0.825 41 5 C37.01 6.425 33.195 7.401 29 8 C30.147 14.429 32.079 19.865 35 25.688 C35.808 27.338 36.614 28.989 37.418 30.641 C37.839 31.504 38.259 32.367 38.693 33.256 C40.069 36.145 41.38 39.058 42.676 41.984 C42.896 42.48 42.896 42.48 44.01 44.99 C44.863 46.92 45.709 48.853 46.549 50.79 C46.941 51.673 47.334 52.555 47.738 53.465 C48.079 54.245 48.42 55.024 48.771 55.828 C50.186 58.329 51.897 60.058 54 62 C67.65 36.366 67.65 36.366 73.375 23.125 C73.562 22.698 73.562 22.698 74.51 20.538 C74.844 19.745 75.179 18.951 75.523 18.133 C75.811 17.451 76.099 16.769 76.396 16.067 C77 14 77 14 77 9 C75.02 8.505 75.02 8.505 65 6 C65 1 65 1 66 0 C68.448 -0.088 70.868 -0.115 73.316 -0.098 C73.682 -0.097 73.682 -0.097 75.532 -0.093 C77.875 -0.088 80.219 -0.075 82.562 -0.062 C84.148 -0.057 85.733 -0.053 87.318 -0.049 C91.212 -0.038 95.106 -0.021 99 0 C99 1.98 99 3.96 99 6 C98.397 6.231 97.793 6.461 97.172 6.699 C96.373 7.025 95.573 7.351 94.75 7.688 C93.961 8.001 93.172 8.314 92.359 8.637 C87.785 11.28 85.413 15.79 83.039 20.375 C82.491 21.426 81.944 22.476 81.379 23.558 C80.175 25.922 78.979 28.288 77.796 30.662 C77.167 31.922 76.537 33.182 75.906 34.441 C75.589 35.077 75.272 35.713 74.945 36.368 C72.833 40.535 70.494 44.465 67.969 48.402 C57.947 64.914 56.725 79.474 56.812 98.625 C56.814 99.216 56.814 99.216 56.819 102.207 C56.845 105.591 56.919 108.969 57.02 112.352 C57.038 113.381 57.057 114.411 57.076 115.473 C57.402 122.453 57.402 122.453 60.327 125.126 C63.532 126.174 66.656 126.614 70 127 C71 128 71 128 71 133 C56.48 133 41.96 133 27 133 C26.67 131.35 26.34 129.7 26 128 C27.958 127.497 29.916 126.998 31.875 126.5 C32.966 126.222 34.056 125.943 35.18 125.656 C38 125 38 125 40 125 C40.284 117.874 40.474 110.75 40.604 103.619 C40.659 101.205 40.733 98.792 40.83 96.379 C41.51 78.9 39.034 66.592 30.336 51.37 C28.578 48.251 27.079 45.065 25.582 41.812 C23.194 36.787 20.771 31.779 18.335 26.776 C17.132 24.274 15.969 21.757 14.816 19.23 C9.84 8.673 9.84 8.673 3.5 6.062 C0.906 5.348 0.906 5.348 -1 5 C-0.67 3.35 -0.34 1.7 0 0 Z " fill="#181717" transform="translate(2659,3535)"/>
<path d="M0 0 C15.18 0 30.36 0 46 0 C46.165 0.825 46.165 0.825 47 5 C44.977 7.023 41.187 6.865 38.445 7.305 C35.687 8.089 34.656 8.677 33 11 C32.18 14.324 31.873 17.432 31.862 20.848 C31.857 21.797 31.851 22.746 31.845 23.723 C31.845 24.238 31.845 24.238 31.842 26.842 C31.837 27.935 31.832 29.029 31.827 30.155 C31.816 32.528 31.808 34.901 31.801 37.274 C31.789 41.038 31.769 44.801 31.748 48.564 C31.686 59.264 31.632 69.963 31.599 80.663 C31.578 87.211 31.542 93.759 31.498 100.307 C31.484 102.795 31.475 105.284 31.472 107.772 C31.467 111.265 31.444 114.759 31.417 118.252 C31.42 119.267 31.423 120.282 31.426 121.328 C31.231 138.289 24.822 153.52 12.855 165.492 C6.375 171.184 -1.012 174.384 -9.645 174.285 C-14.117 173.744 -17.604 171.76 -20.438 168.188 C-21.571 163.781 -21.599 160.252 -19.625 156.125 C-18 154 -18 154 -16 153 C-8.824 152.421 -8.824 152.421 -5.688 154.625 C-4 157 -4 157 -2.438 160.188 C-1 163 -1 163 2 164 C7.748 161.187 9.909 157.776 12 152 C14.443 142.91 15.433 134.278 15.356 124.892 C15.358 123.666 15.361 122.439 15.363 121.176 C15.365 117.863 15.354 114.55 15.337 111.236 C15.322 107.752 15.323 104.267 15.322 100.783 C15.319 94.947 15.304 89.111 15.281 83.276 C15.252 75.786 15.242 68.296 15.238 60.806 C15.234 54.349 15.221 47.892 15.207 41.434 C15.203 39.364 15.2 37.294 15.197 35.224 C15.192 31.378 15.177 27.531 15.161 23.685 C15.16 22.539 15.159 21.394 15.158 20.214 C15.152 19.17 15.146 18.126 15.14 17.05 C15.137 16.142 15.134 15.234 15.131 14.298 C15 12 15 12 14 9 C11.318 8.214 8.723 7.582 6 7 C4.663 6.637 3.33 6.263 2 5.875 C1.01 5.586 0.02 5.298 -1 5 C-0.67 3.35 -0.34 1.7 0 0 Z " fill="#181717" transform="translate(1749,3535)"/>
</svg>
