<?xml version="1.0" encoding="UTF-8"?>
<!-- Generator: visioncortex VTracer 0.6.12 -->
<svg viewBox="0 0 4500 4500" version="1.1" xmlns="http://www.w3.org/2000/svg" width="4500" height="4500">
<path d="M0 0 C13.147 8.131 31.706 23.666 36.488 38.781 C38.374 47.298 38.39 55.235 34.688 63.25 C26.678 75.591 12.688 80.715 -0.484 85.828 C-4.578 87.886 -5.887 89.973 -7.312 94.25 C-7.777 101.698 -6.351 107.97 -4.375 115.125 C1.813 137.665 1.813 137.665 -3.312 147.25 C-5.74 150.814 -8.437 154.04 -11.312 157.25 C-11.898 157.918 -12.483 158.585 -13.086 159.273 C-26.325 173.437 -47.431 187.127 -67.125 188.52 C-76.197 188.622 -76.197 188.622 -80.312 187.25 C-80.459 186.418 -80.605 185.585 -80.756 184.727 C-81.3 181.635 -81.846 178.543 -82.394 175.452 C-82.63 174.114 -82.866 172.777 -83.101 171.439 C-83.439 169.515 -83.78 167.592 -84.121 165.668 C-84.325 164.511 -84.53 163.353 -84.74 162.161 C-85.312 159.25 -85.312 159.25 -86.312 156.25 C-86.562 156.572 -86.562 156.572 -87.824 158.199 C-100.345 173.957 -118.062 193.78 -139.312 196.25 C-151.111 197.059 -160.477 196.419 -170 188.75 C-181.956 177.259 -185.357 162.43 -185.783 146.457 C-185.936 128.257 -183.877 102.412 -172.312 87.25 C-169.484 86.649 -169.484 86.649 -166.005 86.682 C-164.704 86.683 -163.403 86.683 -162.062 86.684 C-160.642 86.709 -159.221 86.735 -157.801 86.762 C-156.348 86.771 -154.895 86.778 -153.442 86.783 C-149.619 86.802 -145.797 86.851 -141.975 86.907 C-138.074 86.958 -134.173 86.981 -130.271 87.006 C-122.618 87.059 -114.965 87.145 -107.312 87.25 C-105.735 91.029 -104.887 94.333 -104.383 98.406 C-104.227 99.595 -104.071 100.783 -103.91 102.008 C-103.599 104.471 -103.292 106.934 -102.988 109.398 C-99.927 132.542 -99.927 132.542 -92.312 139.25 C-89 140.625 -89 140.625 -86.312 141.25 C-86.477 140.033 -86.642 138.816 -86.812 137.562 C-90.996 99.406 -79.072 53.418 -56.312 22.25 C-53.47 18.748 -50.474 15.465 -47.312 12.25 C-46.591 11.515 -45.869 10.78 -45.125 10.023 C-33.964 -0.619 -14.878 -6.74 0 0 Z " fill="#000000" transform="translate(2509.3125,1877.75)"/>
<path d="M0 0 C21.746 3.618 43.375 7.724 65 12 C65.33 16.95 65.33 16.95 67 42 C68.073 41.268 68.073 41.268 73.5 37.562 C92.891 24.547 115.561 10.754 139.562 10.438 C139.925 10.43 139.925 10.43 141.761 10.393 C148.284 10.518 153.679 12.679 158.312 17.312 C164.662 27.425 165.456 39.063 163.375 50.688 C161.102 59.269 155.688 66.737 150.516 73.809 C148.188 77.175 147.061 78.994 146.809 83.172 C147.854 88.89 153.009 92.484 157.062 96.25 C179.026 117.445 179.026 117.445 179.375 133.312 C179.322 137.278 179.025 140.533 177 144 C173.693 144.913 170.531 145.133 167.112 145.161 C166.167 145.171 165.221 145.18 164.246 145.19 C163.232 145.194 162.217 145.199 161.172 145.203 C160.109 145.209 159.047 145.215 157.952 145.22 C155.7 145.23 153.447 145.236 151.194 145.24 C147.804 145.25 144.414 145.281 141.023 145.312 C115.991 145.435 93.341 142 74.199 124.371 C69.207 118.989 59 107.56 59 100 C58.184 100.128 57.369 100.255 56.528 100.386 C48.834 101.587 41.139 102.78 33.443 103.963 C29.486 104.572 25.53 105.184 21.575 105.803 C17.758 106.401 13.938 106.99 10.118 107.573 C8.662 107.797 7.207 108.024 5.752 108.254 C3.711 108.576 1.669 108.887 -0.374 109.196 C-1.535 109.375 -2.697 109.555 -3.893 109.741 C-6.933 109.994 -9.112 109.97 -12 109 C-13.489 106.594 -14.529 104.534 -15.562 101.938 C-15.858 101.215 -16.154 100.493 -16.459 99.748 C-25.292 77.493 -26.166 54.155 -16.682 31.909 C-11.754 20.899 -6.372 10.246 0 0 Z " fill="#000000" transform="translate(2591,2053)"/>
<path d="M0 0 C3.847 2.745 7.506 5.703 11.138 8.726 C11.42 8.956 11.42 8.956 12.851 10.12 C32.331 25.981 53.157 47.85 57.138 73.726 C57.35 76.664 57.414 79.593 57.45 82.539 C57.479 83.307 57.508 84.076 57.538 84.869 C57.614 91.766 55.624 96.683 51.271 102.011 C41.964 110.25 31.414 114.605 19.638 118.039 C18.809 118.281 17.979 118.524 17.125 118.773 C4.887 122.131 -7.366 123.099 -19.993 123.097 C-22.229 123.101 -24.463 123.138 -26.698 123.175 C-38.968 123.273 -51.727 122.311 -61.862 114.726 C-65.051 111.098 -65.962 107.965 -66.144 103.199 C-66.162 102.761 -66.162 102.761 -66.257 100.548 C-66.292 99.638 -66.326 98.727 -66.362 97.789 C-66.431 95.988 -66.504 94.187 -66.581 92.386 C-66.611 91.588 -66.642 90.791 -66.673 89.969 C-66.857 87.789 -67.269 85.828 -67.862 83.726 C-68.855 83.507 -69.847 83.288 -70.87 83.062 C-87.599 79.221 -103.698 73.484 -113.862 58.726 C-121.861 42.607 -120.384 23.162 -114.761 6.453 C-110.15 -5.358 -103.784 -14.794 -92.171 -20.625 C-61.614 -33.285 -25.325 -17.324 0 0 Z " fill="#000000" transform="translate(2179.8623046875,1938.27392578125)"/>
<path d="M0 0 C25.747 15.918 43.985 43.006 52 71.938 C52.232 72.741 52.464 73.544 52.703 74.371 C56.554 89.361 56.183 105.771 48.555 119.422 C40.8 131.97 28.664 136.446 15 139.938 C3.216 142.495 -11.811 142.611 -23 137.938 C-23.49 137.736 -23.49 137.736 -25.969 136.719 C-33.511 133.29 -39.197 128.801 -45 122.938 C-45.614 122.357 -46.227 121.777 -46.859 121.18 C-63.167 104.499 -68.421 78.029 -68.312 55.625 C-68.308 54.442 -68.304 53.258 -68.3 52.039 C-68.187 43.328 -67.479 35.332 -65 26.938 C-64.71 25.951 -64.42 24.965 -64.121 23.949 C-60.421 12.755 -54.368 2.361 -44.258 -3.984 C-29.892 -10.844 -13.368 -7.279 0 0 Z " fill="#000000" transform="translate(1905,2402.0625)"/>
<path d="M0 0 C0.347 0.106 0.347 0.106 2.104 0.641 C3.56 1.086 5.016 1.531 6.471 1.978 C14.741 4.505 22.903 6.934 31.494 8.107 C32.282 8.228 33.069 8.348 33.881 8.472 C37.028 8.937 39.972 9.3 43.158 9.24 C45.244 9.295 45.244 9.295 47.369 11.357 C53.338 20.708 53.473 30.195 51.623 40.885 C46.841 59.439 35.631 76.903 23.244 91.295 C22.411 92.273 21.579 93.251 20.721 94.26 C13.072 103.042 3.276 113.739 -8.721 115.599 C-27.164 116.733 -45.303 103.523 -58.592 92.029 C-75.335 77.103 -92.609 56.599 -94.197 33.287 C-94.672 20.548 -93.095 10.318 -84.67 0.299 C-62.484 -22.929 -26.029 -7.936 0 0 Z " fill="#000000" transform="translate(2731.755859375,1568.705322265625)"/>
<path d="M0 0 C7.958 6.372 13.756 15.616 15.75 25.711 C17.636 42.982 14.193 62.606 3.688 76.812 C-3.514 85.402 -10.634 90.84 -22 92 C-43.166 93.804 -63.532 82.122 -81.437 72.386 C-83.646 71.191 -85.868 70.029 -88.102 68.879 C-89.182 68.3 -90.262 67.721 -91.375 67.125 C-92.27 66.653 -93.164 66.181 -94.086 65.695 C-96.832 63.263 -96.755 61.643 -97 58 C-97.679 46.193 -97.835 35.014 -93 24 C-92.588 23.05 -92.175 22.1 -91.75 21.121 C-84.593 6.502 -71.52 -2.238 -56.5 -7.438 C-38.263 -13.15 -15.514 -11.807 0 0 Z " fill="#000000" transform="translate(1813,2851)"/>
<path d="M0 0 C12.901 7.691 23.998 18.025 27.938 33.027 C30.564 49.439 27.187 64.413 17.41 77.98 C11.066 85.519 4.418 90.986 -4.59 94.98 C-4.93 95.149 -4.93 95.149 -6.648 96.004 C-15.91 99.94 -28.795 99.518 -38.09 96.043 C-44.186 93.062 -48.902 88.828 -53.59 83.98 C-54.165 83.391 -54.74 82.802 -55.332 82.195 C-67.395 68.976 -71.517 52.68 -70.765 35.183 C-69.759 22.514 -63.634 11.071 -54.398 2.473 C-38.235 -10.863 -17.602 -10.053 0 0 Z " fill="#000000" transform="translate(2130.58984375,2071.01953125)"/>
<path d="M0 0 C7.543 6.972 12.942 16.09 13.625 26.453 C14.112 44.956 8.51 61.096 -4.279 74.719 C-13.352 83.876 -23.911 88.993 -36.73 89.832 C-50.101 89.85 -61.924 85.416 -71.492 76.078 C-72.192 75.338 -72.892 74.598 -73.613 73.836 C-74.138 73.282 -74.663 72.727 -75.203 72.156 C-84.028 61.374 -83.828 45.974 -82.613 32.836 C-80.313 17.295 -71.827 2.412 -59.773 -7.598 C-39.084 -22.601 -18.005 -14.91 0 0 Z " fill="#000000" transform="translate(2616.61328125,1807.1640625)"/>
</svg>
