<?xml version="1.0" encoding="UTF-8"?>
<!-- Generator: visioncortex VTracer 0.6.12 -->
<svg viewBox="0 0 4500 4500" version="1.1" xmlns="http://www.w3.org/2000/svg" width="4500" height="4500">
<path d="M0 0 C0.919 0.378 1.838 0.755 2.785 1.145 C16.838 7.837 27.945 21.524 33.375 35.875 C38.445 50.643 37.02 65.955 30.633 80.008 C24.485 91.721 13.718 103.176 1.25 108.082 C-9.296 111.061 -19.547 109.184 -29.75 106 C-45.203 101.187 -45.203 101.187 -53 103 C-55.582 105.259 -55.949 105.913 -57 109 C-60.717 119.345 -63.684 127.405 -73.75 132.812 C-100.432 144.874 -131.751 138.879 -158.176 129.203 C-179.631 120.974 -199.256 107.79 -210 87 C-214.067 77.258 -214.491 66.432 -211.031 56.438 C-204.259 40.43 -191.441 32.8 -176.068 26.167 C-163.837 21.226 -146.954 16.853 -133.812 19.688 C-127.589 22.592 -125.797 28.521 -123.562 34.562 C-123.426 34.94 -123.426 34.94 -122.732 36.85 C-120.949 41.482 -119.466 44.421 -115 47 C-111.715 47.941 -111.715 47.941 -107.938 48.562 C-107.254 48.681 -106.57 48.799 -105.865 48.92 C-101.861 49.596 -97.844 50.165 -93.82 50.711 C-93.383 50.772 -93.383 50.772 -91.172 51.08 C-89.48 51.312 -87.787 51.531 -86.092 51.735 C-80.195 52.53 -75.309 54.333 -70 57 C-70.217 56.25 -70.433 55.5 -70.656 54.727 C-74.183 41.762 -74.015 30.688 -67.25 18.75 C-59.365 6.536 -47.632 -0.028 -33.707 -3.586 C-22.175 -5.35 -10.771 -4.535 0 0 Z " fill="#000000" transform="translate(1590,2590)"/>
<path d="M0 0 C13.992 5.993 26.015 9.247 41.353 8.437 C49.498 8.07 57.638 7.722 65.791 7.624 C66.588 7.603 67.386 7.582 68.208 7.56 C73.424 7.528 77.083 8.304 81.666 10.874 C83.137 14.035 83.911 16.51 84.666 19.874 C85.14 21.98 85.615 24.086 86.097 26.19 C86.426 27.651 86.743 29.115 87.045 30.582 C89.666 42.592 89.666 42.592 94.391 46.187 C96.403 47.296 98.424 48.231 100.541 49.124 C101.936 49.75 103.329 50.381 104.72 51.015 C105.054 51.166 105.054 51.166 106.743 51.935 C110.956 53.993 114.06 55.965 116.666 59.874 C117.288 63.398 117.326 65.774 115.451 68.897 C106.984 79.297 95.435 83.428 82.541 85.062 C81.891 85.146 81.241 85.23 80.572 85.316 C66.067 86.921 51.305 85.572 36.787 84.729 C21.362 83.841 6.068 83.212 -9.334 84.874 C-10.341 80.459 -11.339 76.042 -12.334 71.624 C-12.62 70.37 -12.907 69.116 -13.201 67.823 C-13.337 67.221 -13.337 67.221 -14.022 64.171 C-14.273 63.061 -14.524 61.95 -14.783 60.807 C-15.334 57.874 -15.334 57.874 -15.334 53.874 C-15.77 53.772 -15.77 53.772 -17.973 53.254 C-30.731 50.167 -43.268 46.406 -55.834 42.624 C-58.026 41.967 -60.217 41.311 -62.408 40.655 C-67.718 39.065 -73.027 37.471 -78.334 35.874 C-78.418 18.647 -78.418 18.647 -77.897 10.062 C-77.857 9.3 -77.818 8.539 -77.778 7.755 C-77.596 4.592 -77.341 1.894 -76.334 -1.126 C-73.951 -2.613 -71.657 -3.892 -69.147 -5.126 C-68.429 -5.48 -67.712 -5.835 -66.973 -6.2 C-43.568 -17.295 -22.383 -9.588 0 0 Z " fill="#000000" transform="translate(976.334228515625,2788.1259765625)"/>
<path d="M0 0 C21.969 7.364 45.533 19.206 56.373 40.795 C61.616 51.859 62.303 64.586 58.748 76.295 C56.667 81.663 53.852 86.23 50.373 90.795 C49.631 91.827 48.888 92.858 48.123 93.92 C39.44 102.998 27.471 109.175 14.877 110.034 C-3.914 110.388 -17.408 104.348 -31.068 91.444 C-44.646 77.389 -52.423 59.026 -58.627 40.795 C-58.933 39.911 -59.239 39.026 -59.554 38.115 C-59.838 37.244 -60.123 36.373 -60.416 35.475 C-60.673 34.696 -60.931 33.918 -61.196 33.115 C-61.728 30.251 -61.625 28.542 -60.627 25.795 C-58.552 24.057 -58.552 24.057 -55.799 22.483 C-55.29 22.186 -55.29 22.186 -52.713 20.681 C-52.163 20.37 -52.163 20.37 -49.377 18.795 C-47.099 17.471 -44.821 16.146 -42.545 14.819 C-42.256 14.652 -42.256 14.652 -40.796 13.808 C-35.018 10.466 -29.349 6.958 -23.689 3.42 C-21.972 2.349 -20.255 1.279 -18.537 0.209 C-17.827 -0.234 -17.117 -0.678 -16.385 -1.136 C-10.998 -4.411 -5.7 -1.766 0 0 Z " fill="#000000" transform="translate(3485.626953125,1629.20458984375)"/>
<path d="M0 0 C3.551 1.571 6.772 3.495 10.035 5.594 C10.742 6.044 11.449 6.494 12.177 6.957 C34.33 21.223 56.567 39.796 63.055 66.488 C65.266 80.273 62.5 91.832 54.473 103.094 C47.66 111.758 36.416 118.542 25.473 120.094 C7.955 121.5 -4.636 118.827 -18.422 107.543 C-31.322 95.807 -37.464 76.999 -39.527 60.094 C-39.637 59.311 -39.746 58.529 -39.859 57.723 C-40.616 51.258 -40.629 44.782 -40.652 38.281 C-40.657 37.373 -40.662 36.465 -40.667 35.53 C-40.664 34.658 -40.662 33.785 -40.66 32.887 C-40.659 32.108 -40.658 31.33 -40.657 30.528 C-40.635 30.126 -40.635 30.126 -40.527 28.094 C-40.487 27.09 -40.446 26.086 -40.404 25.052 C-39.4 21.663 -38.205 20.706 -35.198 18.95 C-34.594 18.625 -33.99 18.3 -33.367 17.965 C-32.744 17.608 -32.121 17.251 -31.478 16.883 C-29.484 15.746 -27.476 14.638 -25.465 13.531 C-24.139 12.784 -22.814 12.034 -21.49 11.283 C-19.568 10.192 -17.643 9.104 -15.711 8.031 C-12.337 6.154 -9.097 4.175 -5.906 2.004 C-2.527 0.094 -2.527 0.094 0 0 Z " fill="#000000" transform="translate(3483.52734375,1891.90625)"/>
<path d="M0 0 C8.22 6.516 15.043 14.381 21.516 22.59 C25.499 27.521 28.612 28.805 34.664 30.707 C37.951 32.124 39.443 32.789 41.355 35.867 C41.415 44.114 39.514 52.5 38.105 60.594 C37.996 61.228 37.996 61.228 37.444 64.441 C36.987 67.102 36.526 69.762 36.062 72.422 C35.468 75.837 34.882 79.252 34.297 82.668 C33.737 85.936 33.171 89.202 32.605 92.469 C32.395 93.698 32.185 94.927 31.968 96.193 C31.771 97.319 31.574 98.444 31.371 99.604 C31.199 100.599 31.026 101.594 30.849 102.619 C30.355 104.867 30.355 104.867 29.355 105.867 C4.39 107.188 -20.197 103.224 -39.832 86.68 C-49.638 77.505 -56.336 64.868 -56.883 51.348 C-57.23 34.877 -54.808 19.46 -46.645 4.867 C-36.874 -4.948 -11.606 -7.071 0 0 Z " fill="#000000" transform="translate(2369.64453125,2703.1328125)"/>
<path d="M0 0 C6.559 4.512 10.799 9.757 14 17 C14.318 17.651 14.637 18.302 14.965 18.973 C19.988 30.986 17.416 46.275 13 58 C9.148 66.773 4.25 74.727 -2 82 C-2.518 82.661 -3.036 83.323 -3.57 84.004 C-13.517 96.281 -29.33 106.123 -45.081 108.286 C-48.453 108.529 -50.987 108.637 -53.912 106.798 C-55.753 105.098 -57.411 103.323 -59.062 101.438 C-60.281 100.132 -61.501 98.829 -62.723 97.527 C-63.294 96.906 -63.865 96.284 -64.454 95.644 C-66.199 93.789 -68.038 92.124 -70 90.5 C-73.933 87.103 -77.78 83.625 -81.562 80.062 C-82.208 79.489 -82.853 78.915 -83.518 78.324 C-85.291 76.622 -86.724 75.102 -88 73 C-88.048 69.748 -87.896 67.982 -87 65 C-86.639 63.761 -86.278 62.522 -85.906 61.246 C-85.452 59.971 -84.982 58.702 -84.5 57.438 C-84.239 56.753 -83.979 56.068 -83.71 55.363 C-74.768 32.892 -56.362 10.597 -34.312 0.188 C-22.504 -4.833 -11.7 -6.144 0 0 Z " fill="#000000" transform="translate(1345,2445)"/>
<path d="M0 0 C9.977 9.273 16.484 21.88 17.812 35.473 C18.136 46.656 15.188 56.724 7.574 65.035 C7.193 65.458 7.193 65.458 5.262 67.598 C-7.773 79.42 -22.506 85.889 -40.422 85.316 C-52.461 84.189 -62.228 80.674 -70.738 71.91 C-80.929 59.599 -82.231 44.055 -80.965 28.723 C-77.736 -2.655 -77.736 -2.655 -70.426 -9.965 C-47.681 -14.903 -18.884 -15.296 0 0 Z " fill="#000000" transform="translate(1826.42578125,2490.96484375)"/>
<path d="M0 0 C1.919 2.757 3.272 5.682 4.625 8.75 C4.818 9.176 4.818 9.176 5.795 11.329 C13.045 27.767 16.911 45.506 11 63 C6.541 72.459 -1.118 79.139 -10.75 82.938 C-26.772 88.646 -45.728 87.232 -62 83 C-63.155 82.71 -64.31 82.42 -65.5 82.121 C-73.28 79.886 -73.28 79.886 -76.164 76.336 C-78.112 72.796 -79.479 69.292 -80.625 65.438 C-80.837 64.74 -81.048 64.043 -81.266 63.324 C-85.966 47.283 -86.891 31.272 -79.875 15.688 C-73.856 4.81 -64.493 -1.136 -52.941 -5.031 C-37.93 -9.079 -13.273 -9.366 0 0 Z " fill="#000000" transform="translate(2074,2528)"/>
<path d="M0 0 C20.06 -0.642 41.433 5.086 57.012 17.996 C61.943 22.647 66.571 29.115 67.184 36.077 C67.242 41.646 66.463 46.48 64.887 51.809 C64.664 52.58 64.441 53.35 64.211 54.145 C58.525 73.181 58.525 73.181 53.68 76.922 C34.823 85.398 8.294 78.169 -10.117 71.472 C-21.877 66.983 -33.621 61.094 -38.988 49.121 C-42.432 39.246 -42.586 27.659 -38.109 18.164 C-33.546 9.849 -26.346 5.668 -17.488 2.809 C-11.6 1.158 -6.071 0.37 0 0 Z " fill="#000000" transform="translate(3156.98828125,2192.87890625)"/>
<path d="M0 0 C0.465 0.008 0.465 0.008 2.818 0.048 C27.673 0.644 54.382 3.369 74.25 19.625 C80.292 27.01 83.886 36.154 83.562 45.75 C82.374 54.01 75.57 62.895 69.344 68.219 C54.524 78.691 39.097 81.455 21.249 79.075 C6.875 76.376 -7.468 69.284 -16.637 57.668 C-23.166 47.881 -25.718 39.18 -24.5 27.375 C-22.683 18.754 -18.765 11.395 -13.5 4.375 C-12.964 3.62 -12.427 2.864 -11.875 2.086 C-8.135 -0.608 -4.489 -0.132 0 0 Z " fill="#000000" transform="translate(2957.5,2135.625)"/>
<path d="M0 0 C11.144 8.443 19.746 18.92 22 33 C23.018 47.756 19.504 60.805 9.875 72.188 C-0.563 83.214 -13.995 88.888 -29 90 C-38.49 90.095 -49.318 89.408 -57.09 83.379 C-67.41 72.517 -69.485 60.314 -69.277 46.066 C-69.047 39.84 -67.651 34.633 -65 29 C-64.588 28.082 -64.175 27.164 -63.75 26.219 C-57.109 12.786 -46.5 3.499 -32.875 -2.438 C-22.66 -5.823 -9.239 -5.926 0 0 Z " fill="#000000" transform="translate(3203,2296)"/>
<path d="M0 0 C9.336 9.148 15.362 20.744 15.667 33.909 C15.78 47.618 13.379 58.615 6.375 70.562 C-18.977 69.904 -52.587 68.888 -72.238 50.078 C-79.054 42.629 -82.3 34.389 -81.902 24.18 C-80.779 13.583 -76.671 4.802 -71.625 -4.438 C-71.407 -4.865 -71.407 -4.865 -70.305 -7.031 C-68.283 -10.727 -67.276 -12.155 -63.312 -13.875 C-62.096 -14.061 -60.879 -14.246 -59.625 -14.438 C-59.037 -14.541 -59.037 -14.541 -56.062 -15.062 C-35.576 -17.186 -15.933 -13.619 0 0 Z " fill="#000000" transform="translate(3586.625,1755.4375)"/>
<path d="M0 0 C12.403 10.145 16.734 24.022 18.75 39.312 C19.978 53.189 16.508 67.228 8.25 78.5 C0.851 87.172 -9.454 94.312 -20.93 95.617 C-29.584 96.025 -35.774 93.551 -42.438 88.125 C-54.003 77.294 -59.846 60.827 -60.535 45.242 C-60.922 29.834 -59.49 14.683 -48.438 2.938 C-35.124 -9.452 -14.835 -10.222 0 0 Z " fill="#000000" transform="translate(2986.25,2025.6875)"/>
<path d="M0 0 C4.172 0.306 8.344 0.395 12.526 0.502 C13.19 0.519 13.855 0.536 14.539 0.553 C14.873 0.562 14.873 0.562 16.56 0.605 C22.044 0.75 27.523 0.965 33.003 1.22 C33.459 1.225 33.459 1.225 35.769 1.252 C38.163 1.353 38.163 1.353 42.003 2.22 C44.308 5.029 44.308 5.029 45.878 8.658 C46.158 9.298 46.439 9.938 46.728 10.598 C47.524 12.456 48.265 14.338 49.003 16.22 C49.365 17.052 49.727 17.883 50.101 18.74 C53.413 27.536 54.023 40.576 50.378 49.345 C49.249 51.357 49.249 51.357 48.003 53.22 C47.602 53.866 47.201 54.512 46.788 55.177 C38.056 68.01 24.244 76.059 11.583 84.479 C9.301 86.019 7.058 87.597 4.831 89.216 C4.235 89.647 3.64 90.077 3.026 90.521 C1.5 91.632 -0.019 92.754 -1.536 93.876 C-3.997 95.22 -3.997 95.22 -6.032 95.166 C-19.853 88.516 -29.923 74.414 -35.271 60.509 C-39.261 47.936 -36.801 34.733 -31.044 23.091 C-29.235 19.651 -27.256 16.344 -25.163 13.07 C-24.069 11.335 -23.054 9.552 -22.044 7.767 C-16.156 -1.273 -9.764 -0.845 0 0 Z " fill="#000000" transform="translate(2060.9970703125,2669.77978515625)"/>
<path d="M0 0 C9.302 8.639 15.374 20.272 15.949 32.996 C15.963 36.403 15.911 39.792 15.777 43.195 C-10.592 51.64 -41.894 57.321 -68.184 45.91 C-75.218 42.207 -79.708 36.74 -82.223 29.195 C-83.118 16.394 -81.605 5.93 -73.984 -4.801 C-54.563 -26.892 -19.401 -15.753 0 0 Z " fill="#000000" transform="translate(2585.22265625,2522.8046875)"/>
<path d="M0 0 C4.363 3.7 7.356 7.835 10.125 12.812 C10.504 13.465 10.883 14.117 11.273 14.789 C19.911 31.609 19.1 55.824 15.125 73.812 C12.549 76.389 5.749 75.916 2.125 76.062 C-14.49 75.776 -28.36 70.36 -40.18 58.672 C-53.541 44.497 -60.109 25.22 -59.938 5.875 C-59.933 5.191 -59.928 4.507 -59.924 3.803 C-59.912 2.139 -59.894 0.476 -59.875 -1.188 C-56.98 -2.002 -54.084 -2.814 -51.188 -3.625 C-50.371 -3.855 -49.554 -4.085 -48.713 -4.322 C-32.549 -8.838 -14.312 -10.172 0 0 Z " fill="#000000" transform="translate(2701.875,2523.1875)"/>
<path d="M0 0 C6.514 5.952 10.584 14.233 11.078 23.016 C11.395 39.425 11.395 39.425 6.176 45.328 C-0.748 51.912 -7.897 53.982 -17.312 53.906 C-17.745 53.903 -17.745 53.903 -19.932 53.887 C-42.845 53.259 -65.521 43.729 -85.125 32.406 C-85.29 22.175 -80.792 11.883 -73.812 4.406 C-53.723 -13.396 -21.852 -16.389 0 0 Z " fill="#000000" transform="translate(2368.125,2575.59375)"/>
</svg>
