<?xml version="1.0" encoding="UTF-8"?>
<!-- Generator: visioncortex VTracer 0.6.12 -->
<svg viewBox="0 0 4500 4500" version="1.1" xmlns="http://www.w3.org/2000/svg" width="4500" height="4500">
<path d="M0 0 C8.041 4.386 13.304 11.546 18.305 19.047 C21.379 19.275 24.12 19.372 27.113 18.551 C35.907 16.529 44.596 17.447 52.305 22.047 C53.315 22.604 54.326 23.161 55.367 23.734 C66.69 32.648 71.307 42.903 73.109 56.9 C74.494 72.09 70.949 88.413 62.305 101.047 C59.48 103.33 56.949 104.738 53.305 105.047 C49.69 103.902 46.371 102.134 42.992 100.422 C42.551 100.199 42.551 100.199 40.316 99.07 C39.653 98.733 38.989 98.395 38.305 98.047 C38.04 98.753 37.776 99.46 37.504 100.188 C33.816 108.981 28.327 116.72 22.305 124.047 C21.923 124.562 21.923 124.562 19.992 127.172 C13.845 133.748 6.735 138.549 -2.359 139.383 C-17.253 139.53 -33.284 135.028 -44.406 124.414 C-44.831 123.963 -45.257 123.512 -45.695 123.047 C-44.071 117.994 -41.061 114.139 -37.945 109.922 C-37.378 109.144 -36.81 108.367 -36.225 107.566 C-33.109 103.304 -29.967 99.061 -26.828 94.816 C-26.2 93.966 -25.572 93.116 -24.925 92.241 C-23.712 90.602 -22.497 88.965 -21.278 87.33 C-18.558 83.662 -15.94 80.035 -13.695 76.047 C-14.336 75.502 -14.977 74.956 -15.637 74.395 C-26.127 65.249 -34.588 55.309 -36.695 41.047 C-37.523 28.53 -36.866 18.509 -28.32 8.609 C-20.432 0.435 -11.485 -4.061 0 0 Z " fill="#000000" transform="translate(3076.6953125,1358.953125)"/>
<path d="M0 0 C25.757 13.391 56.413 39.71 67.227 67.195 C67.954 70.927 67.244 73.444 65.227 76.633 C49.046 96.431 28.515 113 2.652 117.379 C-10.081 118.549 -21.104 116.278 -31.348 108.379 C-37.351 101.949 -38.786 96.706 -38.68 87.969 C-37.762 78.05 -32.506 69.413 -27.471 61.022 C-24.705 56.351 -22.098 51.64 -22.527 46.035 C-24.758 39.118 -28.082 32.93 -31.605 26.602 C-33.686 22.753 -34.534 19.888 -34.66 15.566 C-34.698 14.735 -34.735 13.904 -34.773 13.047 C-34.176 9.301 -32.749 7.301 -30.348 4.379 C-20.175 -2.487 -11.426 -5.053 0 0 Z " fill="#000000" transform="translate(3017.34765625,1246.62109375)"/>
<path d="M0 0 C13.805 8.202 24.568 20.526 33 34 C33.637 34.999 34.274 35.998 34.93 37.027 C41.131 47.154 47.796 59.752 46 72 C38.772 94.387 38.772 94.387 31 99 C15.787 101.479 2.671 92.364 -10 85.336 C-17.367 81.399 -23.294 80.495 -31.566 81.727 C-47.155 83.478 -47.155 83.478 -53 80.562 C-61.508 73.295 -65.512 64.464 -69 54 C-69.854 41.659 -68.686 32.172 -61 22 C-60.808 21.736 -60.808 21.736 -59.836 20.398 C-46.319 3.087 -21.012 -10.643 0 0 Z " fill="#000000" transform="translate(3086,1832)"/>
<path d="M0 0 C11.869 6.991 18.368 16.123 22.277 29.223 C26.482 46.852 22.004 64.178 13.164 79.492 C5.297 91.583 -5.982 100.377 -19.898 104.371 C-25.236 105.431 -30.41 105.842 -35.836 105.492 C-36.554 105.447 -37.272 105.402 -38.012 105.355 C-45.345 104.38 -49.303 100.053 -53.836 94.492 C-61.163 84.905 -65.515 71.536 -65.836 59.492 C-65.875 58.743 -65.913 57.994 -65.953 57.223 C-66.472 39.379 -61.396 21.029 -49.891 7.145 C-35.895 -7.537 -17.605 -9.36 0 0 Z " fill="#000000" transform="translate(2987.8359375,2193.5078125)"/>
<path d="M0 0 C9.03 6.345 16.298 14.81 23.109 23.402 C25.02 25.75 25.02 25.75 26.685 26.984 C28.02 28.75 28.02 28.75 27.933 31.733 C27.72 32.93 27.508 34.127 27.289 35.359 C27.179 36.004 27.068 36.649 26.954 37.314 C26.596 39.379 26.214 41.439 25.832 43.5 C25.593 44.872 25.355 46.245 25.119 47.617 C22.108 64.764 22.108 64.764 19.12 67.471 C18.339 67.877 17.558 68.282 16.754 68.699 C15.857 69.184 14.961 69.67 14.037 70.169 C13.041 70.691 12.046 71.213 11.02 71.75 C8.793 73.022 6.569 74.3 4.348 75.582 C2.587 76.577 0.823 77.568 -0.941 78.556 C-2.143 79.232 -3.343 79.912 -4.542 80.595 C-6.303 81.6 -8.07 82.592 -9.84 83.582 C-10.876 84.167 -11.912 84.752 -12.979 85.355 C-19.309 88.297 -23.09 87.714 -29.47 85.4 C-30.417 85.038 -31.364 84.677 -32.34 84.305 C-33.325 83.938 -34.311 83.571 -35.326 83.193 C-37.403 82.415 -39.478 81.629 -41.549 80.837 C-44.725 79.627 -47.912 78.453 -51.102 77.281 C-53.119 76.52 -55.136 75.757 -57.152 74.992 C-58.108 74.643 -59.063 74.294 -60.047 73.934 C-66.583 71.389 -66.583 71.389 -68.557 68.214 C-71.571 50.69 -72.443 31.373 -61.973 16.211 C-48.325 -0.648 -19.29 -12.175 0 0 Z " fill="#000000" transform="translate(1804.98046875,2632.25)"/>
<path d="M0 0 C14.504 9.472 24.751 22.169 29 39 C29.89 43.653 30.513 48.289 31 53 C31.108 53.728 31.217 54.457 31.328 55.207 C31.766 59.93 30.079 63.05 28 67.125 C23.039 77.293 24.795 87.033 26.274 97.885 C27.68 108.608 29.087 120.478 23 130 C17.279 137.331 8.218 139.537 -0.637 140.641 C-2.257 140.793 -3.878 140.934 -5.5 141.062 C-6.278 141.137 -7.055 141.212 -7.857 141.288 C-10.094 141.41 -10.094 141.41 -14 141 C-19.854 135.486 -21.749 127.894 -22.25 120.125 C-22.038 108.382 -18.346 97.32 -14.338 86.409 C-12.427 81.042 -11.222 76.702 -12 71 C-14.012 68.426 -14.012 68.426 -16.688 66.312 C-17.601 65.557 -18.515 64.802 -19.457 64.023 C-20.296 63.356 -21.135 62.688 -22 62 C-29.029 55.735 -32.464 47.768 -33.336 38.387 C-33.456 27.004 -31.785 19.171 -23.844 10.809 C-23.235 10.212 -22.627 9.615 -22 9 C-21.453 8.455 -20.907 7.909 -20.344 7.348 C-14.755 2.167 -7.491 -4.002 0 0 Z " fill="#000000" transform="translate(2696,2483)"/>
<path d="M0 0 C0.354 0.094 0.354 0.094 2.143 0.567 C14.13 3.851 20.96 7.951 27.25 18.812 C36.663 35.985 36.663 35.985 35 46 C33.562 49 33.562 49 31 52 C30.402 52.726 29.804 53.451 29.188 54.199 C19.129 65.978 1.204 83.727 -15.121 85.301 C-27.452 85.344 -27.452 85.344 -32.766 80.336 C-42.637 69.926 -44.39 57.24 -44.312 43.375 C-44.308 42.325 -44.303 41.276 -44.298 40.194 C-44.071 25.032 -41.626 9.281 -32 -3 C-23.032 -7.484 -9.138 -2.433 0 0 Z " fill="#000000" transform="translate(2255,2525)"/>
<path d="M0 0 C7.085 4.813 14.54 11.034 18.312 18.875 C19.555 28.166 18.114 37.018 13.438 45.125 C13.087 45.579 13.087 45.579 11.312 47.875 C10.632 48.803 9.951 49.731 9.25 50.688 C6.034 54.476 2.089 57.414 -1.773 60.512 C-8.694 66.124 -15.081 71.941 -20.688 78.875 C-23.439 77.599 -25.633 76.23 -27.902 74.223 C-28.499 73.699 -29.096 73.176 -29.711 72.636 C-30.027 72.356 -30.027 72.356 -31.625 70.938 C-32.975 69.753 -34.325 68.57 -35.676 67.387 C-36.013 67.09 -36.013 67.09 -37.721 65.591 C-40.038 63.569 -42.375 61.573 -44.726 59.59 C-45.783 58.697 -46.835 57.799 -47.881 56.894 C-50.641 54.522 -53.435 52.32 -56.422 50.238 C-65.253 43.888 -65.253 43.888 -66.418 38.492 C-66.241 34.756 -65.64 31.489 -64.688 27.875 C-64.436 26.828 -64.185 25.782 -63.926 24.703 C-60.692 13.406 -54.793 4.067 -44.688 -2.125 C-29.868 -9.903 -14.365 -8.546 0 0 Z " fill="#000000" transform="translate(1280.6875,2887.125)"/>
<path d="M0 0 C5.352 4.238 8.432 9.171 10.195 15.738 C11.053 26.066 10.785 33.584 4.008 41.738 C0.331 45.736 -3.646 49.253 -7.805 52.738 C-8.903 53.675 -10.001 54.613 -11.098 55.551 C-12.271 56.551 -13.444 57.551 -14.617 58.551 C-15.181 59.031 -15.744 59.512 -16.325 60.007 C-23 65.66 -23 65.66 -26.634 66.014 C-30.127 65.71 -32.395 64.849 -35.543 63.324 C-36.611 62.81 -37.679 62.296 -38.779 61.766 C-39.881 61.22 -40.982 60.675 -42.117 60.113 C-43.207 59.591 -44.297 59.069 -45.42 58.531 C-58.558 52.132 -69.095 45.535 -74.922 31.605 C-76.821 25.437 -76.879 19.438 -74.242 13.488 C-68.212 3.313 -58.357 -1.822 -47.383 -5.367 C-31.59 -9.243 -13.982 -9.059 0 0 Z " fill="#000000" transform="translate(1201.8046875,2633.26171875)"/>
<path d="M0 0 C1.316 2.477 1.316 2.477 2.562 5.625 C2.976 6.649 3.39 7.672 3.816 8.727 C9.346 24.018 9.717 40.427 2.75 55.375 C-4.057 67.555 -13.416 76.068 -27 80 C-34.856 81.782 -42.044 82.329 -50 81 C-55.911 67.869 -59.893 54.64 -55.027 40.469 C-47.323 21.956 -29.669 12.884 -12.812 3.875 C-11.891 3.377 -10.97 2.879 -10.02 2.366 C-9.154 1.912 -8.287 1.459 -7.395 0.992 C-6.62 0.583 -5.845 0.175 -5.046 -0.247 C-3 -1 -3 -1 0 0 Z " fill="#000000" transform="translate(1766,2507)"/>
<path d="M0 0 C9.068 6.73 16.702 14.473 18.68 26.035 C19.534 36.964 16.385 45.999 9.621 54.531 C3.076 61.425 -5.605 65.403 -15.074 65.758 C-26.975 65.297 -34.897 60.095 -42.887 51.57 C-49.255 43.958 -52.956 35.381 -52.137 25.383 C-49.146 14.356 -42.612 7.61 -32.949 1.859 C-23.369 -3.17 -9.771 -5.984 0 0 Z " fill="#000000" transform="translate(2301.13671875,2658.6171875)"/>
<path d="M0 0 C13.417 10.363 17.504 27.839 20.062 43.664 C16.483 45.983 12.89 48.279 9.284 50.555 C8.06 51.332 6.84 52.115 5.624 52.904 C3.871 54.039 2.105 55.152 0.336 56.262 C-0.193 56.599 -0.193 56.599 -2.87 58.309 C-6.509 59.917 -8.164 59.777 -11.938 58.664 C-13.929 57.76 -13.929 57.76 -15.672 56.66 C-16.323 56.253 -16.975 55.846 -17.646 55.427 C-18.32 54.99 -18.994 54.552 -19.688 54.102 C-20.392 53.652 -21.096 53.202 -21.822 52.739 C-27.5 49.063 -32.798 45.063 -37.938 40.664 C-38.643 40.103 -39.348 39.543 -40.074 38.965 C-48.021 32.472 -55.057 23.628 -56.215 13.156 C-56.449 6.888 -55.64 2.608 -51.273 -2.148 C-36.008 -16.745 -15.538 -10.714 0 0 Z " fill="#000000" transform="translate(2680.9375,2410.3359375)"/>
<path d="M0 0 C8.312 5.082 14.516 13.916 16.965 23.316 C18.789 34.879 18.585 46.623 11.895 56.617 C7.349 62.297 2.236 65.046 -4.562 67.312 C-17.599 68.347 -26.334 65.976 -36.301 57.512 C-43.479 50.532 -47.446 41.897 -48 31.875 C-47.608 22.975 -43.943 15.67 -37.84 9.316 C-34.074 6.003 -30.002 3.61 -25.562 1.312 C-24.49 0.694 -23.418 0.075 -22.312 -0.562 C-15.23 -2.687 -6.843 -3.2 0 0 Z " fill="#000000" transform="translate(2607.5625,2545.6875)"/>
<path d="M0 0 C9.25 5.268 14.212 13.43 17.898 23.152 C18.219 23.936 18.54 24.72 18.871 25.527 C22.87 37.133 23.169 53.869 18.027 65.102 C17.655 65.778 17.282 66.455 16.898 67.152 C16.3 68.245 15.702 69.339 15.086 70.465 C9.85 76.898 4.048 81.472 -4.414 82.59 C-11.94 81.697 -18.373 79.001 -23.504 73.324 C-32.743 60.764 -34.593 46.51 -32.602 31.344 C-30.608 20.095 -26.958 8.761 -17.258 1.836 C-11.746 -1.303 -6.013 -2.426 0 0 Z " fill="#000000" transform="translate(1311.1015625,2661.84765625)"/>
<path d="M0 0 C6.223 4.764 9.554 10.663 12 18 C12.901 26.454 11.932 32.979 7 40 C0.44 47.781 -10.968 53.002 -21 54 C-31.938 54.709 -42.225 54.215 -51 47 C-57.25 41.194 -60.558 35.306 -61.16 26.715 C-60.835 19.335 -57.148 13.094 -51.953 7.988 C-38.456 -3.044 -16.023 -10.21 0 0 Z " fill="#000000" transform="translate(2192,2561)"/>
<path d="M0 0 C12.493 13.987 18.959 31.396 19 50 C18.52 57.069 15.664 62.697 11 68 C4.58 73.352 -3.059 75.685 -11.383 75.508 C-16.491 74.517 -20.129 71.317 -24 68 C-24.663 67.437 -25.325 66.873 -26.008 66.293 C-32.335 60.445 -36.617 53.336 -37.238 44.68 C-37.473 32.623 -35.08 23.573 -26.688 14.5 C-25.801 13.675 -24.914 12.85 -24 12 C-23.544 11.539 -23.087 11.077 -22.617 10.602 C-18.769 6.947 -14.456 4.465 -9.75 2.062 C-9.135 1.744 -8.52 1.425 -7.887 1.096 C-3.37 -1.123 -3.37 -1.123 0 0 Z " fill="#000000" transform="translate(1773,2801)"/>
<path d="M0 0 C7.79 5.627 11.843 12.034 13.488 21.457 C14.262 29.653 12.121 38.47 6.938 44.961 C1.153 50.932 -4.899 53.5 -13.199 53.832 C-27.682 53.493 -38.428 45.036 -48.207 34.965 C-51.883 30.716 -51.941 27.773 -51.82 22.367 C-50.956 14.212 -46.395 7.937 -40.512 2.457 C-27.924 -7.433 -13.839 -8.501 0 0 Z " fill="#000000" transform="translate(1876.51171875,2498.54296875)"/>
<path d="M0 0 C7.508 3.8 13.033 10.706 15.812 18.562 C18.783 28.767 19.445 40.259 15.035 50.168 C10.36 58.306 3.021 64.33 -6 67 C-10.192 67.743 -13.282 67.338 -17.188 65.5 C-23.213 60.144 -26.538 53.444 -27.221 45.398 C-27.809 30.712 -28.207 16.589 -18.562 4.586 C-12.911 -1.15 -7.668 -1.823 0 0 Z " fill="#000000" transform="translate(1492,2843)"/>
</svg>
