<?xml version="1.0" encoding="UTF-8"?>
<!-- Generator: visioncortex VTracer 0.6.12 -->
<svg viewBox="1525.07 777.42 1449.86 2945.16" version="1.1" xmlns="http://www.w3.org/2000/svg" width="4500" height="4500">
<path d="M0 0 C11.027 8.855 14.86 22.434 16.449 36.021 C22.305 105.867 -3.932 190.526 -48.91 244.191 C-65.838 263.982 -86.394 277.836 -112.348 282.441 C-124.261 283.185 -137.057 283.74 -148.348 279.441 C-148.742 279.296 -148.742 279.296 -150.738 278.562 C-156.42 276.253 -161.404 273.044 -166.348 269.441 C-166.943 269.025 -167.539 268.609 -168.152 268.18 C-174.576 263.251 -179.991 255.431 -183.445 248.117 C-184.348 246.441 -184.348 246.441 -186.973 245.254 C-191.446 245.502 -192.748 247.146 -195.914 250.156 C-218.826 271.67 -245.686 283.258 -277.117 282.754 C-292.936 282.181 -307.613 276.922 -319.16 265.855 C-330.841 252.965 -333.066 236.977 -332.516 220.251 C-332.252 215.851 -331.563 211.576 -330.758 207.246 C-330.582 206.299 -330.407 205.352 -330.226 204.376 C-328.083 193.373 -324.81 182.755 -321.473 172.066 C-320.784 169.828 -320.097 167.588 -319.411 165.349 C-317.905 160.438 -316.392 155.531 -314.874 150.624 C-312.087 141.614 -309.332 132.594 -306.578 123.574 C-306.456 123.173 -306.456 123.173 -305.835 121.141 C-303.812 114.514 -303.812 114.514 -302.866 111.413 C-300.949 105.136 -299.028 98.86 -297.105 92.585 C-295.2 86.364 -293.303 80.141 -291.408 73.916 C-290.478 70.867 -289.538 67.821 -288.595 64.775 C-288.131 63.253 -287.667 61.73 -287.203 60.207 C-286.832 59.003 -286.461 57.8 -286.079 56.56 C-285.047 52.161 -284.917 48.734 -286.348 44.441 C-288.203 43.598 -288.203 43.598 -290.535 42.941 C-298.223 40.55 -298.223 40.55 -301.348 38.441 C-302.758 33.586 -302.001 30.29 -300.41 25.566 C-300.22 24.99 -300.22 24.99 -299.258 22.074 C-298.957 21.205 -298.657 20.337 -298.348 19.441 C-297.936 19.397 -297.936 19.397 -295.854 19.169 C-271.284 16.434 -247.352 12.366 -223.594 5.324 C-220.348 4.441 -220.348 4.441 -217.348 4.441 C-219.726 13.447 -222.402 22.357 -225.117 31.266 C-225.591 32.824 -226.065 34.383 -226.538 35.942 C-227.812 40.133 -229.088 44.323 -230.364 48.514 C-231.434 52.028 -232.502 55.543 -233.571 59.057 C-238.943 76.726 -244.328 94.392 -249.733 112.051 C-250.474 114.471 -251.214 116.892 -251.955 119.312 C-255.815 131.925 -255.815 131.925 -257.56 137.611 C-262.157 152.589 -266.727 167.576 -271.191 182.595 C-271.626 184.058 -272.064 185.521 -272.503 186.982 C-277.171 202.523 -282.928 221.849 -275.348 237.441 C-272.246 242.733 -268.215 245.773 -262.441 247.781 C-248.907 250.669 -235.538 248.343 -223.66 241.316 C-206.665 229.657 -197.697 211.878 -191.359 192.785 C-191.063 191.894 -190.767 191.002 -190.462 190.084 C-185.717 175.637 -181.393 161.055 -176.996 146.499 C-175.684 142.159 -174.369 137.82 -173.053 133.481 C-171.158 127.23 -169.264 120.978 -167.371 114.726 C-162.846 99.779 -158.307 84.835 -153.762 69.894 C-152.642 66.215 -151.523 62.535 -150.405 58.855 C-149.978 57.449 -149.551 56.044 -149.125 54.639 C-148.918 53.959 -148.712 53.28 -148.499 52.58 C-147.141 48.112 -145.775 43.646 -144.405 39.182 C-143.114 34.971 -141.848 30.756 -140.61 26.529 C-140.098 24.818 -139.586 23.106 -139.074 21.395 C-138.97 21.025 -138.97 21.025 -138.442 19.156 C-136.581 13.024 -133.966 9.259 -128.673 5.585 C-124.093 4.01 -119.945 4.069 -115.137 4.148 C-114.169 4.153 -113.2 4.157 -112.203 4.161 C-109.126 4.178 -106.05 4.216 -102.973 4.254 C-100.88 4.269 -98.788 4.283 -96.695 4.295 C-91.579 4.328 -86.464 4.38 -81.348 4.441 C-82.765 12.752 -85.124 20.7 -87.617 28.742 C-88.051 30.153 -88.483 31.564 -88.916 32.976 C-89.842 35.993 -90.77 39.01 -91.702 42.026 C-93.18 46.816 -94.652 51.608 -96.122 56.401 C-97.652 61.387 -99.182 66.373 -100.715 71.358 C-105.591 87.22 -110.438 103.09 -115.272 118.965 C-116.138 121.808 -117.005 124.651 -117.873 127.494 C-122.35 142.158 -126.788 156.834 -131.132 171.539 C-131.565 173.006 -131.999 174.473 -132.435 175.94 C-146.055 221.895 -146.055 221.895 -137.535 240.383 C-133.241 247.828 -128.004 250.701 -119.91 253.191 C-104.763 254.669 -91.245 250.15 -79.335 240.652 C-54.05 219.546 -39.466 186.657 -28.348 156.441 C-27.987 155.466 -27.626 154.491 -27.254 153.486 C-2.751 86.29 -2.751 86.29 -11.66 63.191 C-13.348 60.441 -13.348 60.441 -16.348 58.441 C-18.694 58.109 -21.051 57.847 -23.41 57.629 C-32.098 56.619 -39.197 54.559 -44.848 47.566 C-49.196 40.982 -50.209 34.18 -49.348 26.441 C-47.01 15.51 -42.913 6.097 -33.473 -0.34 C-23.035 -6.326 -10.174 -6.755 0 0 Z " fill="#191817" transform="translate(1866.34765625,912.55859375)"/>
<path d="M0 0 C24.09 0 48.18 0 73 0 C69.625 13.499 69.625 13.499 67.973 18.877 C67.6 20.097 67.227 21.318 66.842 22.576 C66.439 23.882 66.036 25.189 65.633 26.496 C65.202 27.903 64.771 29.309 64.34 30.716 C63.42 33.719 62.498 36.722 61.574 39.725 C60.096 44.529 58.623 49.335 57.15 54.141 C56.645 55.791 56.139 57.441 55.633 59.091 C55.507 59.503 55.507 59.503 54.869 61.584 C54.097 64.103 53.325 66.622 52.553 69.14 C47.941 84.178 43.359 99.224 38.785 114.273 C36.614 121.414 34.442 128.555 32.27 135.695 C32.053 136.407 31.837 137.118 31.614 137.851 C26.941 153.207 22.248 168.558 17.554 183.908 C9.375 210.651 1.216 237.399 -6.918 264.156 C-7.669 266.626 -8.421 269.097 -9.172 271.567 C-11.754 280.053 -14.329 288.541 -16.891 297.034 C-18.348 301.859 -19.821 306.68 -21.304 311.498 C-22.327 314.828 -23.339 318.16 -24.35 321.494 C-24.828 323.061 -25.31 324.628 -25.796 326.193 C-34.14 353.074 -34.14 353.074 -30 362 C-26.614 363.129 -26.277 363.001 -23.25 361.5 C-13.642 356.303 -7.511 346.489 -1 338 C1.357 339.975 3.688 341.973 6 344 C6.303 344.263 6.303 344.263 7.836 345.594 C9.5 347.125 9.5 347.125 12 350 C11.607 359.382 -1.276 371.122 -7.793 377.238 C-22.477 390.293 -38.476 394.955 -57.816 394.175 C-64.029 393.678 -68.159 391.189 -72.375 386.75 C-76.041 382.028 -77.608 376.761 -79 371 C-79.753 371.629 -80.506 372.258 -81.281 372.906 C-102.27 389.999 -125.132 395.608 -152 394 C-161.868 392.834 -170.203 389.074 -178 383 C-178.717 382.45 -179.433 381.899 -180.172 381.332 C-189.394 373.236 -194.702 359.815 -197 348 C-197.085 347.564 -197.085 347.564 -197.515 345.359 C-198.071 341.507 -198.198 337.715 -198.238 333.832 C-198.248 333.048 -198.258 332.264 -198.268 331.456 C-198.536 304.33 -195.881 279.094 -188 253 C-187.875 252.582 -187.875 252.582 -187.24 250.469 C-177.902 220.149 -161.763 190.986 -141 167 C-140.306 166.196 -139.613 165.391 -138.898 164.562 C-136.64 162 -134.335 159.493 -132 157 C-131.542 156.508 -131.083 156.015 -130.611 155.508 C-111.534 135.183 -84.819 114.992 -55.93 113.715 C-43.143 113.394 -31.859 114.109 -20.742 121.012 C-19 122 -19 122 -17 122 C-14.199 112.855 -11.4 103.709 -8.602 94.562 C-7.302 90.314 -6.002 86.066 -4.701 81.818 C-3.442 77.707 -2.184 73.597 -0.928 69.485 C-0.451 67.928 0.026 66.371 0.503 64.814 C1.811 60.547 3.108 56.277 4.393 52.003 C5.001 49.998 5.624 47.999 6.248 45.999 C6.624 44.759 7 43.52 7.388 42.243 C7.724 41.156 8.059 40.069 8.406 38.949 C9.031 35.844 8.981 33.994 8 31 C4.465 27.569 0.273 25.383 -4 23 C-4.33 22.67 -4.66 22.34 -5 22 C-4.595 13.89 -2.509 8.155 0 0 Z M-91.117 163.993 C-125.866 208.803 -151.293 283.393 -146.727 340.414 C-145.643 348.329 -143.267 355.556 -137.688 361.438 C-130.159 365.815 -123.781 367.096 -115.188 364.938 C-99.123 359.688 -88.268 345.229 -80.863 330.782 C-76.67 322.087 -73.993 312.958 -71.188 303.75 C-70.601 301.844 -70.014 299.939 -69.427 298.033 C-67.483 291.717 -65.556 285.396 -63.631 279.074 C-62.965 276.886 -62.299 274.697 -61.632 272.509 C-57.01 257.334 -52.394 242.158 -47.792 226.978 C-47.546 226.167 -47.3 225.356 -47.047 224.52 C-45.823 220.484 -44.599 216.447 -43.378 212.409 C-40.896 204.209 -38.391 196.018 -35.849 187.836 C-35.086 185.371 -34.323 182.905 -33.56 180.439 C-33.076 178.878 -32.589 177.318 -32.1 175.759 C-31.424 173.603 -30.755 171.446 -30.089 169.287 C-29.898 168.678 -29.898 168.678 -28.936 165.595 C-27.008 158.19 -26.238 151.922 -30 145 C-33.993 140.388 -38.55 137.482 -44.656 136.629 C-64.442 136.167 -79.365 149.327 -91.117 163.993 Z " fill="#191817" transform="translate(2366,801)"/>
<path d="M0 0 C0.972 0.005 1.943 0.01 2.944 0.015 C9.726 0.126 15.813 0.659 22.125 3.312 C22.547 3.483 22.547 3.483 24.68 4.344 C35.871 9.378 43.438 17.419 48.121 28.715 C53.831 45.572 50.559 63.686 46.148 80.418 C45.844 81.581 45.539 82.745 45.225 83.944 C41.485 98.007 37.209 111.905 32.924 125.81 C31.773 129.549 30.629 133.291 29.485 137.032 C27.848 142.383 26.209 147.733 24.568 153.083 C20.541 166.208 16.538 179.341 12.547 192.477 C11.46 196.052 10.37 199.626 9.28 203.2 C8.62 205.369 7.96 207.538 7.301 209.707 C7.006 210.672 6.711 211.636 6.407 212.63 C4.018 220.504 1.841 227.813 1.875 236.125 C1.87 237.41 1.865 238.695 1.859 240.02 C2.125 243.312 2.125 243.312 4.125 246.312 C11.188 246.136 14.888 241.682 19.509 236.872 C28.477 227.391 28.477 227.391 32.125 222.312 C35.294 222.889 36.907 223.729 39.141 226.035 C39.669 226.573 40.198 227.112 40.742 227.666 C41.281 228.23 41.82 228.794 42.375 229.375 C42.929 229.943 43.484 230.511 44.055 231.096 C45.418 232.495 46.773 233.903 48.125 235.312 C45.927 241.721 41.476 246.238 37.125 251.312 C36.385 252.189 35.645 253.066 34.883 253.969 C23.819 266.725 7.681 279.045 -9.796 280.469 C-19.374 280.989 -27.875 281.32 -35.875 275.312 C-36.527 274.828 -37.18 274.343 -37.852 273.844 C-44.388 268.169 -47.435 259.68 -48.875 251.312 C-49.143 247.461 -49.152 243.61 -49.188 239.75 C-49.217 238.748 -49.246 237.746 -49.275 236.713 C-49.404 220.727 -44.834 205.146 -40.125 190 C-39.63 188.382 -39.137 186.763 -38.644 185.145 C-37.465 181.279 -36.281 177.415 -35.094 173.552 C-31.029 160.308 -27.014 147.049 -22.988 133.793 C-21.392 128.54 -19.794 123.287 -18.194 118.036 C-8.898 87.529 -8.898 87.529 -4.746 73.434 C-4.471 72.507 -4.195 71.581 -3.911 70.626 C2.062 50.172 2.062 50.172 -1.82 41.051 C-3.747 37.876 -6.055 35.929 -9.57 34.738 C-29.236 31.105 -47.002 39.698 -62.875 50.562 C-69.757 55.366 -76.467 60.42 -82.927 65.78 C-84.875 67.312 -84.875 67.312 -87.24 68.886 C-94.825 74.216 -97.117 79.316 -99.488 88.105 C-100.06 90.048 -100.632 91.991 -101.204 93.933 C-101.808 96.01 -102.394 98.09 -102.975 100.173 C-104.207 104.587 -105.487 108.986 -106.775 113.384 C-108.127 118.006 -109.474 122.629 -110.805 127.257 C-113.839 137.804 -116.962 148.319 -120.172 158.812 C-120.39 159.525 -120.607 160.237 -120.832 160.971 C-121.929 164.554 -123.027 168.138 -124.126 171.721 C-126.309 178.839 -128.474 185.963 -130.641 193.086 C-130.854 193.788 -131.068 194.491 -131.288 195.215 C-139.203 221.231 -147.037 247.273 -154.875 273.312 C-172.365 273.312 -189.855 273.312 -207.875 273.312 C-204.5 259.813 -204.5 259.813 -202.848 254.436 C-202.475 253.215 -202.102 251.995 -201.717 250.737 C-201.314 249.43 -200.911 248.123 -200.508 246.816 C-200.077 245.41 -199.646 244.003 -199.215 242.596 C-198.294 239.593 -197.372 236.589 -196.449 233.587 C-194.972 228.785 -193.499 223.982 -192.028 219.178 C-191.522 217.529 -191.017 215.88 -190.512 214.231 C-190.26 213.408 -190.008 212.586 -189.748 211.739 C-188.976 209.221 -188.204 206.703 -187.432 204.186 C-184.106 193.341 -180.791 182.493 -177.488 171.641 C-177.273 170.932 -177.057 170.224 -176.835 169.494 C-174.685 162.429 -172.537 155.363 -170.389 148.297 C-169.316 144.764 -168.242 141.232 -167.168 137.699 C-166.955 136.999 -166.743 136.3 -166.523 135.579 C-163.504 125.648 -160.471 115.722 -157.429 105.798 C-155.704 100.172 -153.982 94.545 -152.262 88.917 C-150.857 84.325 -149.448 79.734 -148.035 75.145 C-147.166 72.316 -146.301 69.486 -145.437 66.656 C-144.846 64.724 -144.25 62.794 -143.654 60.864 C-141.975 55.349 -140.42 50.061 -139.875 44.312 C-141.124 43.519 -142.374 42.727 -143.625 41.938 C-144.321 41.497 -145.017 41.056 -145.734 40.602 C-147.74 39.394 -149.767 38.329 -151.875 37.312 C-152.345 32.256 -151.404 28.393 -149.859 23.543 C-149.49 22.375 -149.121 21.208 -148.741 20.005 C-148.455 19.116 -148.17 18.228 -147.875 17.312 C-146.89 17.162 -145.906 17.012 -144.891 16.857 C-111.797 11.776 -111.797 11.776 -96.125 8.125 C-95.615 8.006 -95.615 8.006 -93.036 7.406 C-87.81 6.145 -82.771 4.676 -77.741 2.772 C-75.875 2.312 -75.875 2.312 -72.875 3.312 C-76.505 15.192 -80.135 27.072 -83.875 39.312 C-83.545 39.643 -83.215 39.972 -82.875 40.312 C-82.362 39.814 -81.849 39.315 -81.32 38.801 C-59.539 18.376 -30.787 -0.184 0 0 Z " fill="#191817" transform="translate(2082.875,914.6875)"/>
<path d="M0 0 C0.423 0.041 0.423 0.041 2.562 0.25 C6.735 6.508 5.822 15.589 6.125 22.938 C6.167 23.947 6.21 24.956 6.254 25.996 C6.757 39.409 6.652 52.83 6.562 66.25 C6.865 66.389 6.865 66.389 8.395 67.09 C11.323 68.657 13.289 70.853 15.562 73.25 C15.892 73.58 16.222 73.91 16.562 74.25 C17.207 78.507 17.521 82.583 15.328 86.398 C12.933 89.209 10.648 91.193 7.562 93.25 C7.132 96.27 7.132 96.27 7.055 100.232 C7.046 100.595 7.046 100.595 7.002 102.434 C6.947 104.88 6.914 107.326 6.883 109.773 C6.85 111.524 6.817 113.274 6.783 115.025 C6.402 136.206 6.408 157.393 6.434 178.578 C6.438 181.918 6.439 185.259 6.44 188.6 C6.454 224.159 6.743 259.7 7.562 295.25 C8.169 295.364 8.775 295.478 9.399 295.595 C9.8 295.676 9.8 295.676 11.828 296.086 C12.62 296.241 13.412 296.396 14.228 296.556 C20.31 298.364 24.54 303.714 27.617 309.043 C29.902 314.378 30.094 319.323 28.562 324.875 C23.534 333.36 17.638 338.277 8.562 342.25 C7.903 342.25 7.242 342.25 6.562 342.25 C6.67 353.586 6.783 364.921 6.902 376.257 C6.957 381.521 7.01 386.785 7.06 392.049 C7.108 397.132 7.16 402.216 7.215 407.299 C7.236 409.235 7.254 411.171 7.272 413.107 C7.296 415.826 7.326 418.545 7.357 421.264 C7.36 421.661 7.36 421.661 7.375 423.67 C7.55 437.12 7.55 437.12 10.383 440.281 C10.763 440.524 10.763 440.524 12.688 441.75 C21.906 448.245 29.963 458.452 33.562 469.25 C33.711 471.848 33.794 474.401 33.812 477 C33.833 477.691 33.854 478.382 33.875 479.094 C33.956 489.811 26.605 500.911 19.371 508.57 C17.487 510.222 15.583 511.768 13.562 513.25 C9.696 516.108 7.912 517.614 6.562 522.25 C6.256 525.782 6.261 529.304 6.259 532.848 C6.25 533.931 6.241 535.014 6.233 536.13 C6.206 539.775 6.194 543.421 6.181 547.067 C6.165 549.686 6.148 552.305 6.13 554.925 C6.093 560.611 6.063 566.296 6.038 571.982 C6 580.403 5.952 588.824 5.9 597.245 C5.816 611.19 5.74 625.135 5.668 639.079 C5.572 657.821 5.462 676.562 5.347 695.303 C5.303 702.563 5.259 709.824 5.215 717.085 C5.21 717.89 5.206 718.694 5.201 719.524 C5.084 738.827 4.974 758.13 4.865 777.433 C4.855 779.162 4.845 780.89 4.835 782.618 C4.801 788.732 4.766 794.846 4.731 800.96 C4.531 836.262 4.328 871.563 4.122 906.865 C4.111 908.767 4.1 910.67 4.089 912.572 C3.763 968.464 3.41 1024.354 3.024 1080.245 C2.988 1085.389 2.953 1090.532 2.918 1095.676 C2.717 1124.876 2.515 1154.076 2.303 1183.276 C1.482 1296.261 1.482 1296.261 1.48 1351.316 C1.48 1351.79 1.48 1351.79 1.48 1354.184 C1.457 1459.183 1.457 1459.183 4.562 1504.25 C5.475 1504.5 6.388 1504.75 7.328 1505.008 C10.722 1506.311 12.04 1507.362 14.312 1510.125 C14.885 1510.803 15.457 1511.481 16.047 1512.18 C19.637 1517.084 20.177 1521.03 20.066 1527.074 C19.202 1532.524 16.469 1536.443 12.562 1540.25 C11.922 1540.495 11.282 1540.739 10.623 1540.992 C7.955 1542.091 6.468 1543.059 4.562 1545.25 C3.305 1550.639 3.467 1556.028 3.527 1561.527 C3.517 1563.175 3.504 1564.822 3.487 1566.469 C3.453 1570.826 3.468 1575.182 3.491 1579.539 C3.505 1583.855 3.469 1588.17 3.439 1592.486 C3.343 1610.064 3.636 1627.601 4.306 1645.166 C4.767 1657.356 4.944 1669.553 5.125 1681.75 C5.13 1682.087 5.13 1682.087 5.156 1683.793 C5.572 1711.502 5.701 1739.212 5.744 1766.923 C5.75 1770.123 5.76 1773.322 5.771 1776.522 C5.787 1781.584 5.794 1786.647 5.792 1791.709 C5.793 1793.59 5.797 1795.472 5.804 1797.353 C5.814 1799.941 5.811 1802.529 5.805 1805.117 C5.811 1805.873 5.817 1806.628 5.822 1807.407 C5.791 1812.643 5.339 1816.474 1.562 1820.25 C-0.602 1820.664 -0.602 1820.664 -3.062 1820.875 C-3.88 1820.95 -4.697 1821.025 -5.539 1821.102 C-6.166 1821.151 -6.792 1821.2 -7.438 1821.25 C-12.201 1814.782 -11.976 1809.032 -11.812 1801.188 C-11.811 1800.068 -11.81 1798.948 -11.809 1797.795 C-11.746 1791.49 -11.371 1785.303 -10.708 1779.037 C-9.304 1765.487 -9.162 1752.041 -9.207 1738.43 C-9.208 1735.991 -9.209 1733.553 -9.208 1731.115 C-9.21 1726.031 -9.218 1720.946 -9.232 1715.862 C-9.249 1709.459 -9.252 1703.057 -9.252 1696.654 C-9.252 1674.27 -9.26 1651.885 -9.887 1629.508 C-9.906 1628.804 -9.925 1628.1 -9.945 1627.375 C-10.138 1620.608 -10.443 1613.87 -10.966 1607.12 C-11.471 1600.426 -11.566 1593.781 -11.535 1587.07 C-11.534 1585.892 -11.532 1584.713 -11.531 1583.498 C-11.525 1579.79 -11.513 1576.083 -11.5 1572.375 C-11.495 1569.837 -11.49 1567.299 -11.486 1564.762 C-11.475 1558.591 -11.459 1552.421 -11.438 1546.25 C-12.382 1545.961 -13.327 1545.672 -14.301 1545.375 C-18.233 1543.965 -19.281 1542.82 -21.438 1539.25 C-24.536 1531.882 -26.06 1523.721 -23.746 1515.918 C-21.612 1511.105 -19.081 1508.672 -14.438 1506.25 C-13.778 1506.25 -13.117 1506.25 -12.438 1506.25 C-12.438 1505.676 -12.438 1505.102 -12.439 1504.51 C-12.468 1468.015 -12.427 1431.521 -12.346 1395.026 C-12.343 1393.959 -12.341 1392.893 -12.338 1391.794 C-12.313 1380.459 -12.287 1369.124 -12.261 1357.789 C-12.201 1332.344 -12.146 1306.899 -12.09 1281.454 C-12.083 1278.07 -12.076 1274.686 -12.068 1271.302 C-11.915 1201.107 -11.77 1130.912 -11.315 720.921 C-11.314 706.392 -11.31 691.862 -11.306 677.333 C-11.3 657.345 -11.298 637.357 -11.302 617.369 C-11.302 615.413 -11.303 613.456 -11.303 611.5 C-11.303 610.543 -11.304 609.585 -11.304 608.598 C-11.305 601.984 -11.304 595.37 -11.301 588.756 C-11.299 580.905 -11.299 573.055 -11.305 565.205 C-11.307 561.268 -11.308 557.331 -11.305 553.394 C-11.302 549.817 -11.303 546.24 -11.309 542.662 C-11.31 540.78 -11.307 538.898 -11.304 537.016 C-11.32 530.039 -11.669 523.185 -12.438 516.25 C-13.246 515.935 -14.054 515.621 -14.887 515.297 C-15.421 515.083 -15.421 515.083 -18.125 514 C-19.181 513.582 -20.236 513.165 -21.324 512.734 C-31.367 507.946 -35.843 497.926 -39.523 487.883 C-41.921 478.353 -42.126 466.064 -37.438 457.25 C-31.361 447.831 -22.489 443.41 -12.438 439.25 C-11.778 439.25 -11.117 439.25 -10.438 439.25 C-10.407 438.725 -10.407 438.725 -10.254 436.066 C-10.169 434.648 -10.085 433.23 -10 431.812 C-9.961 431.125 -9.921 430.437 -9.881 429.729 C-9.666 426.176 -9.381 422.654 -8.949 419.121 C-8.379 414.064 -8.136 409.017 -7.938 403.934 C-7.897 402.967 -7.857 402 -7.815 401.003 C-7.686 397.898 -7.562 394.793 -7.438 391.688 C-7.35 389.561 -7.262 387.435 -7.174 385.308 C-7.003 381.157 -6.833 377.006 -6.665 372.854 C-6.429 367.03 -6.186 361.205 -5.941 355.381 C-5.772 351.337 -5.604 347.294 -5.438 343.25 C-6.538 343.113 -7.639 342.977 -8.773 342.836 C-13.135 342.138 -14.479 341.52 -17.438 338.25 C-22.51 329.853 -24.722 320.608 -22.812 310.875 C-20.429 304.592 -17.734 301.626 -11.75 298.875 C-7.82 297.25 -7.82 297.25 -5.438 297.25 C-5.448 296.643 -5.458 296.036 -5.469 295.411 C-5.609 287.086 -5.743 278.762 -5.875 270.438 C-5.881 270.085 -5.881 270.085 -5.909 268.302 C-6.236 247.577 -6.494 226.852 -6.691 206.125 C-6.702 205.046 -6.712 203.968 -6.723 202.856 C-6.816 193.103 -6.909 183.349 -6.992 173.595 C-7.085 162.616 -7.19 151.638 -7.334 140.659 C-7.395 135.989 -7.447 131.32 -7.477 126.65 C-7.505 122.254 -7.556 117.858 -7.624 113.463 C-7.645 111.852 -7.658 110.242 -7.661 108.632 C-7.668 106.439 -7.704 104.25 -7.748 102.058 C-7.761 100.832 -7.773 99.607 -7.786 98.344 C-8.621 94.378 -10.148 93.462 -13.438 91.25 C-16.33 86.24 -16.923 80.911 -16.016 75.262 C-15.141 72.218 -13.722 70.404 -11.438 68.25 C-10.747 67.995 -10.057 67.74 -9.346 67.477 C-7.438 66.25 -7.438 66.25 -6.844 63.801 C-6.822 63.266 -6.822 63.266 -6.715 60.562 C-6.659 59.301 -6.604 58.039 -6.546 56.738 C-6.507 55.242 -6.471 53.746 -6.438 52.25 C-6.416 51.406 -6.395 50.562 -6.374 49.693 C-6.187 41.849 -6.06 34.005 -5.961 26.16 C-5.921 23.169 -5.87 20.178 -5.816 17.188 C-5.808 16.278 -5.8 15.369 -5.791 14.432 C-5.521 0.566 -5.521 0.566 0 0 Z " fill="#191817" transform="translate(2253.4375,1450.75)"/>
<path d="M0 0 C1.089 0.008 2.177 0.015 3.299 0.023 C16.75 0.297 29.598 2.901 39.746 12.355 C47.128 20.29 49.02 28.581 48.902 39.242 C48.231 49.22 44.739 57.906 37.375 64.75 C30.191 70.408 22.704 71.492 13.688 70.438 C8.999 69.227 5.774 67.249 3.25 63.062 C-0.331 54.548 -0.262 44.119 2.688 35.438 C3.079 34.571 3.471 33.705 3.875 32.812 C5.067 29.327 4.664 26.954 3.688 23.438 C0.778 20.699 -0.82 20.438 -4.812 20.438 C-9.191 21.689 -10.551 22.804 -13.312 26.438 C-17.618 34.583 -20.315 43.239 -22.965 52.027 C-23.391 53.421 -23.818 54.815 -24.245 56.208 C-25.363 59.856 -26.471 63.507 -27.577 67.159 C-28.686 70.811 -29.803 74.461 -30.92 78.111 C-35.431 92.873 -39.877 107.653 -44.312 122.438 C-36.062 122.602 -36.062 122.602 5.688 123.438 C4.223 128.491 2.759 133.544 1.25 138.75 C1.02 139.546 1.02 139.546 -0.146 143.572 C-0.328 144.197 -0.328 144.197 -1.246 147.363 C-1.435 148.017 -1.625 148.671 -1.819 149.345 C-2.608 152.06 -3.418 154.755 -4.312 157.438 C-12.727 157.602 -12.727 157.602 -55.312 158.438 C-56.585 162.618 -57.857 166.798 -59.168 171.105 C-65.343 191.395 -71.518 211.684 -77.693 231.973 C-77.915 232.702 -78.137 233.432 -78.365 234.183 C-78.807 235.633 -79.248 237.084 -79.69 238.534 C-80.774 242.097 -81.859 245.66 -82.943 249.223 C-84.881 255.59 -86.818 261.956 -88.756 268.323 C-89.843 271.892 -90.929 275.462 -92.016 279.031 C-92.231 279.738 -92.446 280.445 -92.668 281.174 C-95.633 290.915 -98.595 300.656 -101.557 310.398 C-103.209 315.831 -104.861 321.265 -106.513 326.698 C-107.63 330.369 -108.746 334.04 -109.861 337.712 C-115.612 356.641 -121.433 375.547 -127.312 394.438 C-144.472 394.438 -161.633 394.438 -179.312 394.438 C-178.631 388.985 -177.998 384.827 -176.421 379.74 C-176.325 379.428 -176.325 379.428 -175.841 377.85 C-175.208 375.79 -174.565 373.733 -173.922 371.676 C-173.465 370.196 -173.009 368.716 -172.553 367.236 C-171.576 364.067 -170.594 360.898 -169.61 357.731 C-168.04 352.68 -166.479 347.626 -164.92 342.572 C-164.388 340.845 -163.855 339.119 -163.323 337.392 C-163.057 336.532 -162.792 335.672 -162.519 334.786 C-161.706 332.153 -160.893 329.521 -160.079 326.888 C-155.116 310.828 -150.212 294.749 -145.326 278.665 C-144.26 275.156 -143.193 271.648 -142.126 268.139 C-140.409 262.492 -138.692 256.846 -136.976 251.199 C-132.955 237.97 -128.932 224.741 -124.908 211.513 C-123.759 207.736 -122.61 203.959 -121.462 200.181 C-112.775 171.602 -112.775 171.602 -108.312 157.438 C-116.562 157.438 -124.812 157.438 -133.312 157.438 C-132.57 154.921 -131.827 152.405 -131.062 149.812 C-130.838 149.032 -130.613 148.251 -130.382 147.447 C-128.753 142.092 -126.868 137.232 -122.121 133.898 C-121.339 133.54 -120.556 133.182 -119.75 132.812 C-118.879 132.408 -118.007 132.003 -117.109 131.586 C-114.27 130.42 -111.407 129.42 -108.5 128.438 C-103.987 126.823 -101.182 125.437 -98.312 121.438 C-94.764 113.846 -92.398 105.739 -89.825 97.78 C-81.663 72.653 -72.289 47.061 -55.312 26.438 C-54.838 25.801 -54.364 25.164 -53.875 24.508 C-41.059 7.954 -20.434 -0.201 0 0 Z " fill="#191817" transform="translate(2799.3125,793.5625)"/>
<path d="M0 0 C24.09 0 48.18 0 73 0 C70.75 11.249 70.75 11.249 69.042 16.766 C68.659 18.015 68.275 19.264 67.879 20.551 C67.459 21.903 67.038 23.254 66.617 24.605 C66.17 26.055 65.724 27.504 65.277 28.953 C64.319 32.065 63.357 35.176 62.393 38.286 C60.043 45.869 57.709 53.456 55.373 61.043 C54.556 63.697 53.738 66.351 52.92 69.005 C47.44 86.789 42.027 104.594 36.625 122.403 C35.368 126.547 34.11 130.692 32.852 134.836 C31.354 139.77 29.857 144.703 28.36 149.637 C23.785 164.715 19.199 179.79 14.61 194.864 C13.534 198.396 12.459 201.928 11.384 205.46 C7.199 219.212 3.012 232.963 -1.18 246.713 C-18.326 302.95 -18.326 302.95 -23.995 321.931 C-24.446 323.442 -24.898 324.953 -25.352 326.464 C-31.298 346.297 -31.298 346.297 -31.25 352.875 C-31.255 353.594 -31.26 354.314 -31.266 355.055 C-31 357 -31 357 -29 360 C-22.135 360.961 -17.422 358.499 -12.031 354.562 C-6.988 350.399 -3.048 345.532 0.922 340.355 C2.894 338.12 4.257 337.069 7 336 C8.874 337.712 10.722 339.441 12.562 341.188 C13.096 341.67 13.629 342.153 14.178 342.65 C17.965 346.291 17.965 346.291 18.121 349.445 C16.637 352.828 14.685 355.732 12.5 358.688 C12.276 358.995 12.276 358.995 11.141 360.551 C7.094 366.021 2.763 371.135 -2 376 C-2.33 376.348 -2.33 376.348 -4 378.109 C-8.522 382.528 -13.406 385.528 -19 388.375 C-19.652 388.709 -20.305 389.043 -20.977 389.387 C-34.15 395.761 -51.357 396.262 -65.375 392.438 C-72.691 389.721 -78.688 385.053 -82.258 378.008 C-88.76 360.419 -83.111 341.226 -78.047 324.059 C-77.648 322.698 -77.25 321.337 -76.852 319.977 C-72.574 305.408 -68.111 290.896 -63.636 276.387 C-61.101 268.167 -58.577 259.945 -56.051 251.723 C-55.795 250.889 -55.539 250.056 -55.275 249.197 C-50.099 232.353 -44.977 215.492 -39.875 198.625 C-39.467 197.278 -39.06 195.93 -38.652 194.583 C-38.45 193.915 -38.248 193.247 -38.04 192.559 C-37.222 189.857 -36.404 187.154 -35.587 184.451 C-35.178 183.099 -34.769 181.748 -34.36 180.396 C-29.806 165.346 -25.229 150.303 -20.648 135.261 C-19.327 130.924 -18.008 126.587 -16.688 122.25 C-13.066 110.348 -9.444 98.446 -5.807 86.548 C-3.995 80.621 -2.187 74.693 -0.38 68.764 C0.366 66.32 1.113 63.877 1.862 61.434 C2.885 58.094 3.904 54.752 4.922 51.41 C5.222 50.435 5.522 49.461 5.831 48.457 C9.531 36.264 9.531 36.264 7.883 32.34 C5.166 28.963 1.859 27.154 -1.82 24.941 C-4 23 -4 23 -5 17 C-3.35 11.39 -1.7 5.78 0 0 Z " fill="#191817" transform="translate(2893,801)"/>
<path d="M0 0 C7.952 5.396 13.089 10.776 15.207 20.266 C17.304 32.866 15.226 46.606 7.957 57.328 C1.928 64.753 -4.031 69.654 -13.664 70.734 C-20.284 70.997 -26.119 71.103 -31.535 66.941 C-34.215 64.074 -35.665 60.969 -37.043 57.328 C-37.341 56.571 -37.639 55.815 -37.945 55.035 C-38.672 53.143 -39.361 51.237 -40.043 49.328 C-59.646 55.862 -71.831 83.96 -80.398 101.029 C-86.122 112.858 -90.471 125.161 -94.594 137.617 C-94.85 138.388 -95.106 139.159 -95.37 139.953 C-101.373 158.036 -106.919 176.254 -112.41 194.498 C-113.676 198.701 -114.947 202.902 -116.219 207.104 C-119.906 219.294 -123.591 231.485 -127.251 243.683 C-128.185 246.794 -129.122 249.904 -130.059 253.015 C-130.498 254.476 -130.937 255.939 -131.374 257.401 C-131.972 259.4 -132.573 261.397 -133.175 263.394 C-133.513 264.521 -133.852 265.648 -134.2 266.809 C-135.043 269.328 -135.043 269.328 -136.043 270.328 C-137.67 270.422 -139.301 270.446 -140.93 270.442 C-141.971 270.442 -143.012 270.441 -144.084 270.441 C-145.217 270.436 -146.349 270.431 -147.516 270.426 C-148.092 270.425 -148.092 270.425 -151.009 270.421 C-154.708 270.416 -158.407 270.403 -162.105 270.391 C-164.606 270.386 -167.107 270.381 -169.607 270.377 C-175.753 270.366 -181.898 270.349 -188.043 270.328 C-186.331 261.76 -183.752 253.48 -181.195 245.137 C-180.706 243.531 -180.217 241.925 -179.728 240.318 C-178.689 236.905 -177.647 233.493 -176.604 230.081 C-174.969 224.731 -173.34 219.379 -171.711 214.027 C-167.187 199.163 -162.654 184.303 -158.089 169.452 C-156.547 164.437 -155.012 159.421 -153.477 154.405 C-152.457 151.079 -151.428 147.755 -150.398 144.431 C-143.307 121.37 -136.665 98.291 -136.73 74.016 C-136.714 72.806 -136.698 71.596 -136.682 70.35 C-136.677 62.649 -136.927 56.148 -141.98 49.953 C-145.198 48.246 -147.462 47.878 -151.043 47.391 C-155.133 46.817 -156.814 46.494 -160.23 44.016 C-163.141 39.7 -163.167 35.623 -163.105 30.516 C-163.096 29.54 -163.087 28.564 -163.078 27.559 C-163.067 26.823 -163.055 26.086 -163.043 25.328 C-161.771 25.06 -160.498 24.792 -159.188 24.516 C-137.898 19.853 -119.326 11.933 -100.275 1.416 C-98.188 0.399 -96.311 -0.21 -94.043 -0.672 C-93.074 1.156 -92.119 2.991 -91.168 4.828 C-90.634 5.849 -90.101 6.87 -89.551 7.922 C-85.877 16.221 -85.726 23.733 -85.793 32.703 C-85.797 33.962 -85.801 35.221 -85.805 36.518 C-85.919 49.171 -86.843 61.736 -88.043 74.328 C-87.792 73.781 -87.542 73.234 -87.284 72.67 C-74.532 44.977 -58.47 11.562 -28.73 -1.234 C-19.874 -4.048 -8.339 -4.528 0 0 Z " fill="#191817" transform="translate(2611.04296875,917.671875)"/>
<path d="M0 0 C1.687 0 3.375 0.006 5.062 0.016 C5.505 0.017 5.505 0.017 7.748 0.02 C10.591 0.026 13.434 0.038 16.277 0.051 C18.2 0.056 20.122 0.061 22.045 0.065 C26.768 0.076 31.491 0.093 36.215 0.114 C36.38 0.939 36.38 0.939 37.215 5.114 C34.215 7.114 34.215 7.114 30.652 7.614 C27.215 8.114 27.215 8.114 25.215 10.114 C24.936 12.214 24.936 12.214 24.896 14.839 C24.876 15.833 24.856 16.828 24.835 17.853 C24.824 18.9 24.812 19.948 24.801 21.028 C24.783 21.989 24.765 22.95 24.747 23.94 C24.684 27.54 24.638 31.139 24.59 34.739 C24.528 38.76 24.528 38.76 24.215 59.114 C40.715 59.114 57.215 59.114 74.215 59.114 C74.235 51.812 74.256 44.511 74.277 36.989 C74.286 34.694 74.295 32.399 74.305 30.035 C74.308 28.204 74.31 26.374 74.312 24.543 C74.317 23.602 74.322 22.661 74.328 21.692 C74.328 17.047 74.176 12.683 73.215 8.114 C69.585 7.454 65.955 6.794 62.215 6.114 C62.05 5.289 62.05 5.289 61.215 1.114 C62.215 0.114 62.215 0.114 66.092 0 C67.822 0 69.551 0.006 71.281 0.016 C72.19 0.017 73.098 0.019 74.034 0.02 C76.949 0.026 79.863 0.038 82.777 0.051 C84.748 0.056 86.719 0.061 88.689 0.065 C93.531 0.076 98.373 0.093 103.215 0.114 C103.38 0.774 103.38 0.774 104.215 4.114 C99.853 7.248 96.419 7.564 91.215 8.114 C91.168 23.186 91.133 38.259 91.111 53.332 C91.101 60.33 91.087 67.328 91.064 74.327 C91.042 81.076 91.03 87.826 91.025 94.576 C91.021 97.155 91.014 99.734 91.003 102.314 C90.989 105.917 90.987 109.521 90.988 113.125 C90.984 113.661 90.984 113.661 90.966 116.379 C90.969 117.359 90.971 118.339 90.974 119.349 C90.973 119.775 90.973 119.775 90.969 121.933 C91.215 124.114 91.215 124.114 93.215 127.114 C95.597 128.063 95.597 128.063 98.34 128.801 C99.25 129.052 100.16 129.304 101.097 129.563 C101.796 129.745 102.495 129.926 103.215 130.114 C102.885 131.764 102.555 133.414 102.215 135.114 C89.015 135.114 75.815 135.114 62.215 135.114 C62.05 134.289 62.05 134.289 61.215 130.114 C61.829 129.92 62.444 129.727 63.078 129.528 C63.886 129.267 64.694 129.007 65.527 128.739 C66.328 128.483 67.128 128.228 67.953 127.965 C70.215 127.114 70.215 127.114 73.215 125.114 C74.375 122.051 74.341 119.058 74.344 115.81 C74.346 115.281 74.346 115.281 74.354 112.605 C74.352 111.47 74.349 110.334 74.347 109.164 C74.348 108.58 74.348 108.58 74.35 105.624 C74.351 103.157 74.349 100.69 74.345 98.223 C74.34 94.43 74.345 90.638 74.351 86.846 C74.351 84.452 74.349 82.058 74.347 79.664 C74.348 79.094 74.348 79.094 74.354 76.205 C74.35 75.157 74.347 74.109 74.344 73.029 C74.343 72.102 74.342 71.174 74.342 70.219 C74.215 68.114 74.215 68.114 73.215 67.114 C71.71 67.02 70.202 66.996 68.695 67 C67.734 67 66.773 67 65.783 67 C65.261 67.003 65.261 67.003 62.617 67.016 C61.553 67.017 60.489 67.019 59.393 67.02 C55.979 67.026 52.566 67.038 49.152 67.051 C46.844 67.056 44.536 67.061 42.228 67.065 C36.557 67.076 30.886 67.093 25.215 67.114 C25.145 74.494 25.092 81.873 25.059 89.254 C25.044 92.681 25.022 96.107 24.988 99.534 C24.949 103.473 24.935 107.412 24.922 111.352 C24.906 112.583 24.891 113.814 24.875 115.083 C24.874 116.224 24.874 117.365 24.874 118.541 C24.867 119.546 24.861 120.552 24.854 121.589 C25.215 124.114 25.215 124.114 26.595 125.903 C28.61 127.409 30.499 128.07 32.902 128.801 C33.71 129.052 34.519 129.304 35.351 129.563 C35.966 129.745 36.581 129.926 37.215 130.114 C36.885 131.764 36.555 133.414 36.215 135.114 C22.685 135.114 9.155 135.114 -4.785 135.114 C-4.785 133.134 -4.785 131.154 -4.785 129.114 C-4.436 129.023 -4.436 129.023 -2.668 128.563 C-1.758 128.311 -0.848 128.06 0.09 127.801 C0.995 127.557 1.899 127.314 2.832 127.063 C5.215 126.114 5.215 126.114 7.215 123.114 C7.461 120.948 7.461 120.948 7.455 118.387 C7.458 117.415 7.461 116.443 7.463 115.442 C7.456 114.378 7.449 113.313 7.442 112.216 C7.442 111.655 7.442 111.655 7.443 108.816 C7.441 105.099 7.426 101.382 7.41 97.664 C7.406 95.09 7.403 92.516 7.401 89.942 C7.394 83.854 7.379 77.766 7.359 71.678 C7.336 64.747 7.325 57.816 7.315 50.885 C7.294 36.628 7.259 22.371 7.215 8.114 C3.585 7.454 -0.045 6.794 -3.785 6.114 C-4.115 4.464 -4.445 2.814 -4.785 1.114 C-3.785 0.114 -3.785 0.114 0 0 Z " fill="#191817" transform="translate(1892.785400390625,3568.886474609375)"/>
<path d="M0 0 C0.54 -0.006 0.54 -0.006 3.27 -0.039 C4.449 -0.046 5.628 -0.054 6.843 -0.061 C8.054 -0.069 9.264 -0.077 10.512 -0.086 C13.088 -0.1 15.663 -0.11 18.239 -0.118 C22.144 -0.135 26.048 -0.179 29.952 -0.223 C32.457 -0.234 34.963 -0.242 37.468 -0.249 C38.045 -0.258 38.045 -0.258 40.967 -0.302 C53.23 -0.27 64.985 2.702 74.108 11.181 C80.958 18.316 83.039 24.309 83.39 34.115 C83.136 43.194 81.037 49.307 74.827 55.99 C68.956 61.473 62.311 64.239 54.952 67.177 C55.306 67.652 55.659 68.127 56.023 68.616 C60.593 75.076 63.779 81.981 66.932 89.194 C68.446 92.653 69.99 96.098 71.53 99.544 C71.829 100.214 72.127 100.883 72.435 101.573 C74.731 106.713 77.084 111.817 79.577 116.865 C80.147 118.023 80.717 119.182 81.304 120.376 C83.415 123.963 85.197 126.596 89.241 127.935 C89.627 127.995 89.627 127.995 91.577 128.302 C95.758 128.983 95.758 128.983 97.952 131.177 C97.622 132.497 97.292 133.817 96.952 135.177 C88.042 135.177 79.132 135.177 69.952 135.177 C63.863 123.595 58.724 111.728 53.785 99.622 C43.884 75.465 43.884 75.465 38.952 72.177 C36.831 71.728 36.831 71.728 34.515 71.49 C34.134 71.446 34.134 71.446 32.206 71.228 C29.911 71.176 28.154 71.581 25.952 72.177 C25.851 79.367 25.781 86.556 25.732 93.747 C25.712 96.193 25.685 98.639 25.65 101.086 C25.602 104.601 25.579 108.115 25.562 111.63 C25.541 112.725 25.52 113.82 25.499 114.948 C25.499 115.969 25.498 116.99 25.498 118.041 C25.494 118.49 25.494 118.49 25.471 120.76 C26.109 123.964 27.449 125.147 29.952 127.177 C32.46 127.935 32.46 127.935 35.077 128.302 C39.758 128.983 39.758 128.983 41.952 131.177 C41.622 132.497 41.292 133.817 40.952 135.177 C25.442 135.177 9.932 135.177 -6.048 135.177 C-6.378 133.527 -6.708 131.877 -7.048 130.177 C-6.59 130.086 -6.59 130.086 -4.274 129.626 C-3.68 129.501 -3.68 129.501 -0.673 128.865 C0.511 128.621 1.694 128.377 2.913 128.126 C5.952 127.177 5.952 127.177 7.952 124.177 C8.207 122.051 8.207 122.051 8.213 119.547 C8.22 118.596 8.227 117.645 8.234 116.666 C8.232 115.625 8.229 114.584 8.227 113.511 C8.232 112.413 8.237 111.315 8.242 110.184 C8.256 106.546 8.255 102.909 8.253 99.271 C8.257 96.749 8.261 94.227 8.266 91.705 C8.273 86.415 8.273 81.126 8.268 75.837 C8.262 69.721 8.274 63.605 8.295 57.488 C8.315 51.606 8.318 45.724 8.315 39.841 C8.315 37.337 8.32 34.834 8.33 32.33 C8.343 28.834 8.336 25.339 8.324 21.843 C8.332 20.802 8.34 19.761 8.348 18.688 C8.344 18.213 8.344 18.213 8.326 15.807 C8.327 14.981 8.327 14.154 8.327 13.303 C7.861 10.661 7.054 9.796 4.952 8.177 C2.472 7.447 2.472 7.447 -0.235 6.99 C-1.136 6.831 -2.037 6.672 -2.966 6.509 C-3.653 6.399 -4.34 6.29 -5.048 6.177 C-5.43 4.521 -5.762 2.852 -6.048 1.177 C-4.37 -0.501 -2.303 0.024 0 0 Z M25.952 9.177 C24.699 11.682 24.832 13.374 24.839 16.177 C24.839 17.218 24.839 18.259 24.839 19.332 C24.844 20.459 24.849 21.586 24.854 22.747 C24.856 23.899 24.857 25.05 24.859 26.236 C24.864 29.925 24.877 33.613 24.89 37.302 C24.895 39.798 24.899 42.294 24.903 44.79 C24.914 50.919 24.931 57.048 24.952 63.177 C29.495 65.192 32.909 65.235 37.765 64.552 C38.477 64.456 39.19 64.359 39.924 64.26 C45.259 63.456 49.533 62.256 53.952 59.177 C55.004 58.476 56.056 57.775 57.14 57.052 C62.528 52.326 65.554 44.569 66.19 37.548 C66.411 28.84 64.988 20.889 59.702 13.74 C53.184 7.666 46.209 6.05 37.452 5.927 C36.9 5.914 36.9 5.914 34.108 5.849 C30.598 6.214 28.761 7.081 25.952 9.177 Z " fill="#191817" transform="translate(2656.0478515625,3568.822998046875)"/>
<path d="M0 0 C0.389 -0.002 0.389 -0.002 2.355 -0.015 C4.937 -0.03 7.52 -0.036 10.102 -0.042 C11.889 -0.048 13.677 -0.053 15.464 -0.059 C19.216 -0.07 22.968 -0.076 26.72 -0.079 C31.537 -0.085 36.353 -0.109 41.17 -0.137 C44.863 -0.156 48.556 -0.161 52.249 -0.162 C54.025 -0.165 55.802 -0.174 57.578 -0.187 C60.059 -0.204 62.539 -0.202 65.02 -0.195 C65.759 -0.205 66.498 -0.214 67.26 -0.223 C69.304 -0.206 69.304 -0.206 72.574 0.161 C74.982 3.772 74.82 5.437 74.805 9.728 C74.803 11.017 74.801 12.307 74.799 13.636 C74.793 14.306 74.787 14.977 74.78 15.668 C74.762 17.72 74.76 19.771 74.76 21.823 C74.715 31.881 74.715 31.881 73.574 34.161 C71.258 34.075 71.258 34.075 68.574 33.161 C66.985 30.247 66.985 30.247 65.637 26.536 C62.606 18.812 59.789 13.47 52.137 9.786 C42.168 5.911 31.7 6.268 21.574 9.161 C21.574 25.331 21.574 41.501 21.574 58.161 C28.945 60.618 39.327 60.132 46.574 57.161 C50.698 53.688 51.526 49.35 52.668 44.271 C53.574 42.161 53.574 42.161 55.606 41.302 C56.255 41.255 56.905 41.209 57.574 41.161 C59.101 42.687 58.716 44.062 58.736 46.19 C58.745 47.045 58.755 47.899 58.765 48.779 C58.769 49.708 58.773 50.637 58.778 51.595 C58.783 52.543 58.789 53.491 58.795 54.468 C58.804 56.478 58.811 58.488 58.815 60.498 C58.824 63.582 58.855 66.665 58.887 69.749 C58.893 71.698 58.899 73.646 58.903 75.595 C58.915 76.522 58.927 77.449 58.94 78.404 C58.937 79.262 58.934 80.119 58.931 81.003 C58.933 81.381 58.933 81.381 58.942 83.295 C58.821 83.911 58.699 84.527 58.574 85.161 C57.584 85.821 56.594 86.481 55.574 87.161 C53.574 86.161 53.574 86.161 52.645 83.614 C52.333 82.557 52.021 81.5 51.699 80.411 C49.058 72.235 49.058 72.235 45.574 69.161 C40.275 66.824 35.371 66.925 29.699 67.036 C28.82 67.045 27.941 67.054 27.035 67.063 C24.882 67.087 22.728 67.123 20.574 67.161 C20.641 74.476 20.731 81.789 20.837 89.103 C20.87 91.591 20.898 94.079 20.921 96.567 C20.954 100.144 21.007 103.721 21.063 107.298 C21.069 108.409 21.076 109.521 21.082 110.666 C21.092 111.187 21.092 111.187 21.142 113.82 C21.153 114.733 21.164 115.645 21.176 116.586 C21.661 119.722 22.717 121.604 24.574 124.161 C33.08 129.339 42.342 129.059 51.824 126.974 C57.921 125.272 61.447 123.575 64.899 118.036 C68.273 111.712 70.473 104.995 72.574 98.161 C74.224 97.831 75.874 97.501 77.574 97.161 C77.649 102.091 77.703 107.02 77.739 111.95 C77.754 113.627 77.775 115.304 77.801 116.981 C77.837 119.392 77.854 121.801 77.867 124.212 C77.883 124.962 77.898 125.712 77.914 126.485 C77.916 131.594 77.916 131.594 76.551 133.862 C73.447 135.902 70.205 135.552 66.615 135.502 C65.805 135.502 64.995 135.503 64.16 135.503 C61.482 135.501 58.804 135.478 56.125 135.454 C54.269 135.449 52.412 135.444 50.555 135.441 C45.668 135.43 40.78 135.4 35.893 135.367 C30.906 135.336 25.919 135.323 20.932 135.308 C11.146 135.275 1.36 135.224 -8.426 135.161 C-8.756 133.511 -9.086 131.861 -9.426 130.161 C-6.244 128.04 -3.926 127.487 -0.265 126.724 C1.574 126.161 1.574 126.161 3.574 124.161 C3.821 122.119 3.821 122.119 3.815 119.555 C3.818 118.584 3.82 117.614 3.823 116.614 C3.816 115.546 3.809 114.478 3.802 113.377 C3.802 112.816 3.802 112.816 3.802 109.978 C3.801 106.255 3.785 102.532 3.77 98.81 C3.766 96.234 3.763 93.659 3.761 91.083 C3.754 84.988 3.739 78.893 3.719 72.798 C3.696 65.86 3.685 58.922 3.675 51.983 C3.654 37.709 3.619 23.435 3.574 9.161 C-0.056 8.171 -3.686 7.181 -7.426 6.161 C-7.756 4.511 -8.086 2.861 -8.426 1.161 C-6.467 -0.798 -2.676 0.004 0 0 Z " fill="#191817" transform="translate(2507.425537109375,3568.8388671875)"/>
<path d="M0 0 C2.597 -0.292 4.956 -0.389 7.555 -0.356 C8.334 -0.358 9.113 -0.361 9.915 -0.363 C12.497 -0.366 15.078 -0.347 17.66 -0.328 C19.449 -0.325 21.237 -0.323 23.025 -0.322 C26.775 -0.318 30.525 -0.303 34.276 -0.281 C39.094 -0.253 43.911 -0.242 48.729 -0.238 C52.422 -0.233 56.115 -0.224 59.808 -0.212 C61.586 -0.206 63.363 -0.201 65.14 -0.197 C67.618 -0.191 70.096 -0.177 72.574 -0.161 C73.316 -0.16 74.057 -0.159 74.821 -0.158 C79.885 -0.115 79.885 -0.115 81 1 C81.088 3.448 81.115 5.868 81.098 8.316 C81.096 9.047 81.095 9.779 81.093 10.532 C81.088 12.875 81.075 15.219 81.062 17.562 C81.057 19.148 81.053 20.733 81.049 22.318 C81.038 26.212 81.021 30.106 81 34 C79.35 34 77.7 34 76 34 C75.771 33.452 75.771 33.452 74.609 30.676 C73.99 29.221 73.37 27.767 72.75 26.312 C72.6 25.952 72.6 25.952 71.84 24.127 C68.812 17.074 65.315 12.052 58 9 C48.879 6.158 37.924 5.295 29 9 C27.791 11.418 27.879 12.933 27.886 15.633 C27.887 16.114 27.887 16.114 27.887 18.545 C27.892 19.585 27.897 20.624 27.902 21.695 C27.904 22.758 27.905 23.82 27.907 24.915 C27.912 28.319 27.925 31.722 27.938 35.125 C27.943 37.428 27.947 39.732 27.951 42.035 C27.962 47.69 27.979 53.345 28 59 C30.557 59.02 33.115 59.035 35.672 59.047 C36.391 59.053 37.11 59.059 37.851 59.066 C50.418 59.109 50.418 59.109 55.109 55.277 C57.855 51.97 58.668 48.433 59.875 44.363 C61 42 61 42 63.125 41.168 C63.744 41.113 64.363 41.057 65 41 C65.771 46.483 66.159 51.798 66.168 57.332 C66.17 57.711 66.17 57.711 66.178 59.63 C66.183 61.218 66.185 62.805 66.185 64.392 C66.188 66.824 66.206 69.254 66.225 71.686 C66.228 73.234 66.23 74.783 66.23 76.332 C66.238 77.057 66.245 77.782 66.252 78.529 C66.235 82.244 66.117 83.825 64 87 C63.505 86.835 63.505 86.835 61 86 C59.607 82.527 58.567 78.996 57.477 75.418 C55.836 71.62 54.478 70.17 51 68 C48.097 67.08 45.489 66.882 42.453 66.902 C41.609 66.906 40.764 66.909 39.895 66.912 C39.022 66.92 38.149 66.929 37.25 66.938 C36.362 66.942 35.474 66.947 34.559 66.951 C32.372 66.963 30.186 66.979 28 67 C27.924 73.671 27.871 80.342 27.835 87.013 C27.82 89.28 27.8 91.547 27.774 93.813 C27.737 97.083 27.72 100.352 27.707 103.621 C27.692 104.625 27.676 105.628 27.66 106.662 C27.659 112.768 28.128 118.497 31 124 C38.382 129.25 48.456 128.714 57.062 127.312 C63.352 125.86 68.084 123.962 71.688 118.391 C74.742 112.495 77.036 106.436 78.945 100.082 C80 98 80 98 82.055 97.137 C82.376 97.114 82.376 97.114 84 97 C86.405 99.405 85.173 105.104 85.186 108.459 C85.185 109.153 85.185 109.848 85.185 110.563 C85.187 112.662 85.206 114.759 85.225 116.857 C85.228 118.201 85.23 119.544 85.23 120.887 C85.235 122.106 85.239 123.325 85.243 124.581 C84.99 128.135 84.651 132.349 82 135 C79.414 135.095 76.854 135.126 74.267 135.114 C73.862 135.114 73.862 135.114 71.814 135.114 C69.124 135.113 66.435 135.105 63.746 135.098 C61.887 135.096 60.027 135.094 58.168 135.093 C53.264 135.09 48.36 135.08 43.456 135.069 C38.455 135.058 33.455 135.054 28.455 135.049 C18.637 135.038 8.818 135.021 -1 135 C-2.062 133.125 -2.062 133.125 -3 131 C-2.835 130.67 -2.835 130.67 -2 129 C0.784 128.146 3.595 127.527 6.434 126.879 C9 126 9 126 11 123 C11.252 120.872 11.252 120.872 11.254 118.363 C11.26 117.411 11.265 116.459 11.271 115.478 C11.267 114.435 11.263 113.392 11.259 112.318 C11.262 111.219 11.266 110.119 11.269 108.987 C11.278 105.344 11.272 101.701 11.266 98.059 C11.267 95.534 11.269 93.01 11.271 90.485 C11.274 85.192 11.27 79.898 11.261 74.605 C11.25 68.481 11.253 62.357 11.264 56.233 C11.275 50.345 11.273 44.457 11.268 38.57 C11.266 36.062 11.268 33.554 11.273 31.047 C11.278 27.549 11.27 24.051 11.259 20.552 C11.263 19.508 11.267 18.463 11.271 17.387 C11.265 16.437 11.26 15.488 11.254 14.51 C11.253 13.683 11.252 12.855 11.252 12.002 C11 10 11 10 9 8 C6.711 7.424 4.421 7.049 2.094 6.66 C0 6 0 6 -2 3 C-1.34 2.01 -0.68 1.02 0 0 Z " fill="#191817" transform="translate(2059,3569)"/>
<path d="M0 0 C0.341 3.073 0.341 3.073 0.293 6.977 C0.289 7.662 0.284 8.347 0.28 9.053 C0.263 11.244 0.226 13.434 0.188 15.625 C0.172 17.109 0.159 18.594 0.146 20.078 C0.113 23.719 0.062 27.359 0 31 C-1.65 30.67 -3.3 30.34 -5 30 C-5.291 29.033 -5.583 28.066 -5.883 27.07 C-8.721 17.937 -11.546 9.058 -18.812 2.438 C-24.584 -0.165 -29.641 -0.654 -35.75 1.125 C-40.742 3.038 -43.457 6.071 -46.75 10.188 C-49.302 15.93 -49.67 21.741 -47.812 27.75 C-43.175 39.552 -33.769 45.45 -23.125 51.438 C3.543 66.865 3.543 66.865 7.562 81.16 C9.511 93.808 8.469 104.987 2.188 116.25 C-4.942 125.212 -12.702 130.416 -24 133 C-27.587 133.301 -31.151 133.333 -34.75 133.312 C-35.727 133.309 -36.704 133.306 -37.711 133.302 C-46.301 133.172 -54.963 132.448 -62 127 C-65.885 121.172 -65.153 114.338 -65.125 107.562 C-65.129 106.647 -65.133 105.731 -65.137 104.787 C-65.129 99.75 -64.86 94.964 -64 90 C-60.25 88.875 -60.25 88.875 -58 90 C-57.317 91.898 -57.317 91.898 -56.703 94.375 C-56.466 95.279 -56.229 96.182 -55.984 97.113 C-55.503 99.005 -55.029 100.898 -54.562 102.793 C-52.038 112.313 -47.802 119.843 -39.242 125.074 C-33.935 127.266 -27.055 126.824 -21.582 125.348 C-15.155 122.451 -11.389 117.593 -8.125 111.5 C-5.536 103.484 -5.564 93.974 -9.25 86.375 C-12.488 80.679 -16.201 76.561 -21.625 72.875 C-21.901 72.687 -21.901 72.687 -23.298 71.733 C-27.43 68.95 -31.668 66.362 -35.94 63.799 C-47.632 56.781 -58.047 50.069 -62.879 36.539 C-65.342 26.444 -63.781 17.199 -58.438 8.312 C-52.09 -0.564 -43.071 -4.336 -32.812 -6.75 C-21.531 -7.49 -9.617 -6.412 0 0 Z " fill="#191817" transform="translate(1818,3573)"/>
<path d="M0 0 C1.75 0.188 1.75 0.188 4 1 C4.564 1.829 5.128 2.659 5.709 3.513 C8 6 8 6 11.15 6.615 C12.39 6.61 13.63 6.605 14.908 6.599 C15.252 6.601 15.252 6.601 16.989 6.611 C19.254 6.618 21.517 6.589 23.781 6.559 C25.358 6.554 26.934 6.552 28.511 6.552 C31.813 6.545 35.115 6.523 38.417 6.487 C42.647 6.442 46.876 6.427 51.107 6.423 C54.362 6.419 57.617 6.404 60.871 6.384 C62.431 6.376 63.991 6.369 65.55 6.364 C67.731 6.355 69.911 6.333 72.092 6.306 C73.332 6.296 74.573 6.285 75.85 6.274 C78.854 6.013 80.517 5.649 83 4 C84.75 1.875 84.75 1.875 86 0 C87.938 0.375 87.938 0.375 90 1 C92.028 5.057 90.878 10.373 90.688 14.812 C90.641 15.944 90.595 17.076 90.547 18.242 C90.192 25.946 89.549 33.433 88 41 C86.68 41.33 85.36 41.66 84 42 C81.929 37.548 80.457 33.168 79.125 28.438 C77.517 23.118 76.132 19.729 72 16 C67.527 13.656 63.128 13.574 58.188 13.375 C57.793 13.356 57.793 13.356 55.799 13.258 C53.866 13.164 51.933 13.081 50 13 C49.953 27.63 49.918 42.259 49.896 56.889 C49.886 63.682 49.872 70.475 49.849 77.269 C49.827 83.824 49.815 90.379 49.81 96.934 C49.807 99.436 49.799 101.937 49.789 104.438 C49.774 107.941 49.772 111.443 49.773 114.946 C49.766 115.981 49.759 117.016 49.751 118.082 C49.765 123.071 49.836 127.391 52 132 C54.952 133.771 57.248 134.025 60.688 134.375 C64 135 64 135 65.5 136.938 C66 139 66 139 65 141 C49.82 141 34.64 141 19 141 C18.67 139.35 18.34 137.7 18 136 C22.71 134.234 27.031 133.514 32 133 C32.752 129.647 33.125 126.55 33.127 123.116 C33.13 122.159 33.133 121.203 33.136 120.218 C33.134 119.181 33.131 118.144 33.129 117.075 C33.131 115.974 33.133 114.873 33.135 113.738 C33.139 110.101 33.136 106.465 33.133 102.828 C33.133 100.304 33.134 97.78 33.136 95.256 C33.137 89.97 33.135 84.685 33.13 79.399 C33.125 73.282 33.127 67.164 33.132 61.047 C33.137 55.164 33.137 49.28 33.134 43.397 C33.133 40.891 33.134 38.386 33.136 35.88 C33.139 32.389 33.135 28.898 33.129 25.407 C33.131 24.362 33.133 23.317 33.136 22.24 C33.133 21.295 33.13 20.35 33.127 19.377 C33.127 18.551 33.126 17.725 33.126 16.874 C33 15 33 15 32 14 C25.414 13.41 18.597 12.984 12.77 16.492 C6.283 22.02 2.99 29.727 0.043 37.531 C-1 40 -1 40 -3 42 C-5.125 41.625 -5.125 41.625 -7 41 C-7.238 34.174 -6.336 27.783 -5.188 21.062 C-5.105 20.546 -5.105 20.546 -4.686 17.932 C-3.639 11.697 -2.162 5.942 0 0 Z " fill="#191817" transform="translate(2350,3563)"/>
<path d="M0 0 C0.833 0.002 1.665 0.004 2.523 0.007 C3.464 0.007 4.405 0.007 5.375 0.007 C6.398 0.012 7.42 0.017 8.474 0.023 C9.516 0.024 10.558 0.025 11.631 0.027 C14.974 0.033 18.316 0.045 21.658 0.058 C23.918 0.063 26.177 0.067 28.437 0.071 C33.99 0.082 39.543 0.099 45.095 0.12 C45.26 0.78 45.26 0.78 46.095 4.12 C42.108 6.406 38.259 6.739 33.752 7.265 C30.151 8.424 29.221 10.006 27.095 13.12 C26.109 15.673 25.281 18.111 24.529 20.73 C24.298 21.501 24.066 22.272 23.828 23.067 C23.052 25.665 22.292 28.267 21.533 30.87 C20.983 32.724 20.433 34.577 19.881 36.43 C18.301 41.755 16.739 47.084 15.18 52.415 C14.01 56.411 12.838 60.406 11.665 64.402 C7.426 78.84 3.199 93.282 -1.01 107.73 C-1.374 108.979 -1.738 110.228 -2.113 111.516 C-3.724 117.047 -5.33 122.579 -6.905 128.12 C27.138 127.373 27.138 127.373 35.217 119.48 C40.575 112.751 44.3 104.793 48.095 97.12 C49.745 97.12 51.395 97.12 53.095 97.12 C52.535 105.123 50.476 112.398 48.158 120.058 C47.978 120.673 47.978 120.673 47.066 123.786 C44.354 132.862 44.354 132.862 42.095 135.12 C39.536 135.308 37.085 135.372 34.525 135.347 C33.744 135.348 32.963 135.348 32.159 135.348 C29.573 135.347 26.987 135.331 24.4 135.316 C22.609 135.312 20.819 135.309 19.028 135.307 C14.31 135.299 9.591 135.28 4.873 135.258 C0.061 135.237 -4.752 135.228 -9.565 135.218 C-19.011 135.196 -28.458 135.162 -37.905 135.12 C-38.235 133.47 -38.565 131.82 -38.905 130.12 C-38.085 129.95 -37.265 129.78 -36.42 129.605 C-35.343 129.362 -34.265 129.12 -33.155 128.87 C-32.087 128.638 -31.02 128.406 -29.92 128.167 C-26.431 126.956 -25.237 125.964 -22.905 123.12 C-21.875 120.564 -21.034 118.144 -20.268 115.511 C-20.031 114.736 -19.794 113.961 -19.55 113.163 C-18.76 110.569 -17.989 107.97 -17.217 105.37 C-16.662 103.533 -16.105 101.697 -15.548 99.86 C-14.328 95.836 -13.116 91.81 -11.908 87.782 C-9.753 80.603 -7.566 73.434 -5.377 66.265 C-2.399 56.501 0.578 46.737 3.541 36.968 C3.856 35.933 4.171 34.898 4.496 33.832 C5.374 30.931 6.24 28.027 7.095 25.12 C7.388 24.129 7.681 23.137 7.983 22.116 C8.258 21.151 8.534 20.186 8.818 19.192 C8.941 18.764 8.941 18.764 9.564 16.598 C10.114 14.033 10.191 11.736 10.095 9.12 C6.3 6.906 2.339 6.11 -1.905 5.12 C-2.467 3.183 -2.467 3.183 -2.905 1.12 C-1.905 0.12 -1.905 0.12 0 0 Z " fill="#191817" transform="translate(2230.904556274414,3568.8797454833984)"/>
</svg>
