<?xml version="1.0" encoding="UTF-8"?>
<!-- Generator: visioncortex VTracer 0.6.12 -->
<svg viewBox="1238.74 1965.94 2022.53 568.12" version="1.1" xmlns="http://www.w3.org/2000/svg" width="4500" height="4500">
<path d="M0 0 C0.439 0.003 0.439 0.003 2.659 0.019 C9.126 0.175 14.432 1.083 20.062 4.438 C20.588 4.737 20.588 4.737 23.25 6.25 C24.178 6.972 25.106 7.694 26.062 8.438 C26.603 8.849 27.143 9.26 27.699 9.684 C42.355 22.363 45.462 45.299 47.062 63.438 C47.339 68.689 47.404 73.93 47.375 79.188 C47.373 79.895 47.371 80.603 47.368 81.333 C47.195 117.435 40.315 153.63 31.062 188.438 C30.756 189.593 30.449 190.748 30.133 191.938 C22.803 219.204 13.616 245.672 2.062 271.438 C1.854 271.904 1.854 271.904 0.797 274.264 C-20.823 322.109 -55.27 373.806 -106.48 393.219 C-120.896 398.342 -134.989 400.996 -150.312 400.875 C-150.649 400.873 -150.649 400.873 -152.354 400.866 C-179.27 400.687 -199.551 391.424 -218.805 372.613 C-223.569 367.553 -232.938 356.616 -232.938 349.438 C-236.683 348.189 -238.994 347.912 -242.938 348.438 C-244.843 349.898 -246.336 351.539 -247.945 353.32 C-251.864 357.484 -256.471 360.886 -260.938 364.438 C-261.904 365.233 -262.871 366.028 -263.867 366.848 C-289.654 387.55 -321.267 400.909 -354.5 400.812 C-355.206 400.812 -355.912 400.811 -356.64 400.811 C-367.809 400.771 -378.291 400.016 -388.938 396.438 C-389.266 396.33 -389.266 396.33 -390.928 395.788 C-408.972 389.728 -423.37 378.809 -432.25 361.898 C-434.548 357.185 -436.511 352.486 -437.938 347.438 C-438.025 347.138 -438.025 347.138 -438.466 345.619 C-444.787 321.249 -438.52 293.745 -431.883 270.215 C-431.734 269.685 -431.734 269.685 -430.979 267.002 C-427.049 253.156 -422.804 239.406 -418.574 225.65 C-417.377 221.753 -416.183 217.855 -414.989 213.957 C-412.988 207.424 -410.986 200.893 -408.982 194.362 C-404.75 180.57 -400.524 166.776 -396.304 152.98 C-395.15 149.208 -393.995 145.435 -392.839 141.664 C-390.498 134.034 -388.167 126.402 -385.857 118.763 C-384.749 115.103 -383.633 111.444 -382.506 107.789 C-381.299 103.875 -380.106 99.956 -378.921 96.034 C-378.469 94.545 -378.011 93.056 -377.548 91.57 C-376.908 89.509 -376.286 87.444 -375.667 85.376 C-375.308 84.203 -374.949 83.029 -374.579 81.82 C-373.662 76.988 -374.397 73.06 -375.938 68.438 C-377.984 67.469 -377.984 67.469 -380.938 66.438 C-383.701 65.302 -386.443 64.117 -389.188 62.938 C-389.92 62.629 -390.652 62.321 -391.406 62.004 C-396.823 59.667 -396.823 59.667 -397.938 57.438 C-398.329 51.788 -397.263 47.338 -395.5 42.062 C-395.27 41.339 -395.04 40.616 -394.803 39.871 C-393.095 34.595 -393.095 34.595 -391.938 33.438 C-389.807 33.136 -387.668 32.894 -385.527 32.676 C-384.148 32.529 -382.768 32.382 -381.389 32.234 C-380.655 32.156 -379.921 32.078 -379.164 31.997 C-350.708 28.924 -323.184 23.026 -295.507 15.857 C-290.67 14.609 -285.824 13.473 -280.938 12.438 C-281.512 17.04 -282.372 21.316 -283.737 25.747 C-284.111 26.968 -284.484 28.189 -284.869 29.447 C-285.282 30.78 -285.696 32.112 -286.109 33.445 C-286.544 34.859 -286.977 36.273 -287.411 37.686 C-288.342 40.72 -289.276 43.753 -290.213 46.785 C-291.71 51.633 -293.2 56.483 -294.689 61.334 C-296.236 66.373 -297.784 71.411 -299.333 76.449 C-302.671 87.302 -305.993 98.16 -309.297 109.023 C-309.404 109.375 -309.404 109.375 -309.944 111.153 C-311.016 114.676 -312.086 118.2 -313.157 121.723 C-315.314 128.823 -317.473 135.921 -319.633 143.02 C-319.848 143.727 -320.064 144.435 -320.285 145.164 C-324.194 158.01 -328.12 170.851 -332.049 183.691 C-336.393 197.886 -340.731 212.083 -345.06 226.283 C-346.087 229.649 -347.114 233.015 -348.142 236.381 C-350.322 243.521 -352.496 250.663 -354.658 257.808 C-355.29 259.894 -355.924 261.978 -356.561 264.062 C-359.938 275.118 -362.974 286.036 -364.938 297.438 C-365.164 298.737 -365.391 300.036 -365.625 301.375 C-367.06 315.416 -366.705 330.128 -358.734 342.281 C-352.545 349.708 -343.284 353.135 -333.938 354.438 C-312.821 355.797 -293.841 349.024 -277.875 335.25 C-258.709 317.237 -248.228 293.238 -240.688 268.438 C-240.192 266.838 -239.696 265.238 -239.199 263.639 C-237.426 257.911 -235.681 252.174 -233.938 246.438 C-233.218 244.075 -232.499 241.713 -231.78 239.351 C-227.375 224.874 -222.992 210.391 -218.615 195.906 C-212.954 177.169 -207.253 158.445 -201.549 139.722 C-200.679 136.863 -199.808 134.004 -198.937 131.145 C-198.5 129.71 -198.063 128.275 -197.626 126.84 C-194.371 116.155 -191.125 105.467 -187.883 94.778 C-186.449 90.053 -185.015 85.328 -183.58 80.603 C-182.44 76.847 -181.3 73.091 -180.163 69.334 C-172.113 42.746 -172.113 42.746 -168.547 31.785 C-168.325 31.087 -168.103 30.389 -167.875 29.67 C-165.747 23.262 -162.809 18.897 -157.101 15.271 C-150.14 11.807 -143.589 11.922 -135.934 12.047 C-134.615 12.053 -133.296 12.058 -131.937 12.064 C-128.459 12.079 -124.983 12.118 -121.506 12.163 C-117.946 12.204 -114.386 12.222 -110.826 12.242 C-103.863 12.285 -96.9 12.353 -89.938 12.438 C-91.363 20.858 -93.785 28.901 -96.32 37.043 C-96.767 38.492 -97.214 39.941 -97.66 41.39 C-98.618 44.501 -99.58 47.611 -100.544 50.721 C-102.092 55.719 -103.634 60.719 -105.174 65.72 C-105.436 66.571 -105.698 67.422 -105.969 68.299 C-106.504 70.038 -107.039 71.777 -107.575 73.516 C-108.393 76.173 -109.212 78.83 -110.031 81.488 C-116.449 102.315 -122.777 123.17 -129.1 144.026 C-130.095 147.309 -131.091 150.592 -132.086 153.875 C-132.586 155.523 -133.085 157.17 -133.585 158.817 C-137.273 170.98 -140.985 183.135 -144.709 195.287 C-146.35 200.644 -147.987 206.001 -149.624 211.359 C-150.921 215.602 -152.221 219.845 -153.526 224.085 C-181.356 314.48 -181.356 314.48 -168.336 342.816 C-163.713 351.482 -156.905 355.79 -147.789 359.254 C-131.813 363.631 -114.685 359.608 -100.507 351.854 C-76.54 337.978 -59.683 315.124 -46.119 291.491 C-45.321 290.103 -44.514 288.72 -43.701 287.341 C-15.618 239.633 2.33 182.14 9.062 127.438 C9.128 126.907 9.128 126.907 9.461 124.223 C12.011 100.206 12.011 100.206 6.312 90.438 C1.957 86.566 -2.923 86.231 -8.562 86.062 C-19.487 85.35 -27.779 82.829 -35.738 75.074 C-42.984 66.387 -45.802 56.585 -44.938 45.438 C-43.015 30.994 -37.418 17.053 -25.812 7.73 C-17.751 1.978 -9.838 -0.117 0 0 Z " fill="#191817" transform="translate(1689.9375,2129.5625)"/>
<path d="M0 0 C0.941 0.004 1.882 0.007 2.851 0.011 C3.344 0.011 3.344 0.011 5.837 0.01 C9.11 0.011 12.384 0.019 15.657 0.027 C17.92 0.029 20.183 0.03 22.446 0.031 C28.416 0.035 34.385 0.045 40.354 0.056 C46.44 0.066 52.526 0.071 58.612 0.076 C70.564 0.086 82.515 0.103 94.466 0.124 C92.502 7.465 90.411 14.755 88.193 22.023 C87.877 23.061 87.562 24.099 87.237 25.168 C86.19 28.613 85.14 32.056 84.091 35.499 C83.337 37.979 82.582 40.459 81.828 42.939 C80.214 48.244 78.6 53.549 76.984 58.854 C74.681 66.418 72.38 73.983 70.08 81.549 C60.735 112.285 51.364 143.013 41.97 173.734 C34.422 198.419 26.903 223.113 19.403 247.812 C19.278 248.226 19.278 248.226 18.642 250.32 C16.626 256.958 14.61 263.597 12.595 270.235 C7.563 286.806 2.527 303.376 -2.515 319.944 C-2.943 321.353 -3.372 322.763 -3.801 324.172 C-9.684 343.508 -15.584 362.839 -21.496 382.166 C-25.796 396.223 -30.091 410.281 -34.38 424.341 C-35.119 426.764 -35.859 429.188 -36.598 431.611 C-38.377 437.439 -40.151 443.269 -41.915 449.103 C-42.396 450.694 -42.879 452.284 -43.365 453.873 C-45.727 461.617 -47.913 469.371 -49.784 477.249 C-49.949 477.942 -50.114 478.634 -50.284 479.347 C-52.312 488.138 -53.726 496.507 -50.534 505.124 C-47.534 507.124 -47.534 507.124 -44.347 507.124 C-29.185 503.148 -18.323 485.033 -9.534 473.124 C-5.986 473.703 -4.35 474.951 -1.862 477.503 C-1.53 477.84 -1.53 477.84 0.15 479.544 C0.831 480.251 1.513 480.958 2.216 481.687 C2.913 482.398 3.611 483.109 4.329 483.841 C6.048 485.596 7.76 487.357 9.466 489.124 C1.029 511.729 -21.516 532.778 -42.972 542.999 C-54.521 548.145 -65.165 550.47 -77.784 550.624 C-78.778 550.643 -79.772 550.662 -80.795 550.681 C-91.238 550.592 -100.947 547.522 -108.534 540.124 C-114.112 533.891 -115.148 526.146 -116.534 518.124 C-119.936 518.124 -122.19 520.973 -124.722 523.062 C-146.807 540.758 -172.113 550.284 -200.538 550.365 C-202.567 550.374 -204.596 550.405 -206.626 550.437 C-226.978 550.602 -245.882 544.578 -260.784 530.374 C-283.877 506.183 -285.489 472.277 -284.767 440.725 C-283.437 394.457 -271.501 348.768 -251.534 307.124 C-251.195 306.415 -250.856 305.705 -250.507 304.975 C-248.266 300.314 -245.938 295.703 -243.534 291.124 C-243.369 290.811 -243.369 290.811 -242.537 289.223 C-231.168 267.776 -217.033 247.021 -200.487 229.226 C-198.733 227.339 -197.069 225.407 -195.409 223.437 C-186.369 213.094 -176.43 203.484 -165.534 195.124 C-164.368 194.195 -163.203 193.265 -162.038 192.335 C-133.153 169.618 -100.358 155.874 -63.196 159.343 C-53.296 160.722 -43.781 164.401 -35.352 169.717 C-34.636 170.167 -33.919 170.618 -33.182 171.083 C-32.91 171.254 -32.91 171.254 -31.534 172.124 C-24.79 151.428 -18.462 130.609 -12.151 109.777 C-11.074 106.227 -9.996 102.676 -8.918 99.126 C-7.861 95.646 -6.805 92.166 -5.749 88.686 C-5.254 87.054 -4.758 85.421 -4.263 83.788 C-4.146 83.403 -4.146 83.403 -3.554 81.454 C-3.44 81.076 -3.44 81.076 -2.859 79.161 C-2.188 76.945 -1.525 74.726 -0.862 72.508 C0.042 69.494 0.985 66.497 1.952 63.503 C2.425 62 2.897 60.498 3.37 58.996 C3.595 58.321 3.821 57.647 4.054 56.952 C5.63 51.861 5.554 48.249 4.466 43.124 C0.411 38.642 -4.788 36.261 -10.143 33.554 C-12.534 32.124 -12.534 32.124 -14.534 29.124 C-14.193 22.697 -12.43 16.81 -10.534 10.687 C-10.261 9.777 -9.987 8.868 -9.706 7.931 C-7.293 0.012 -7.293 0.012 0 0 Z M-114.534 208.124 C-115.313 208.769 -116.091 209.413 -116.893 210.078 C-173.729 258.949 -199.055 352.828 -210.11 424.399 C-210.469 426.706 -210.862 429.002 -211.272 431.3 C-212.707 440.387 -212.766 449.508 -212.847 458.687 C-212.855 459.332 -212.855 459.332 -212.9 462.598 C-212.888 477.292 -210.534 490.038 -202.347 502.437 C-195.076 509.385 -186.605 511.509 -176.823 511.402 C-158.832 509.885 -145.287 496.902 -133.905 484.046 C-118.556 465.132 -111.77 441.513 -104.975 418.576 C-103.793 414.597 -102.593 410.623 -101.394 406.649 C-99.654 400.877 -97.92 395.104 -96.192 389.33 C-93.213 379.371 -90.203 369.422 -87.171 359.48 C-86.954 358.771 -86.738 358.062 -86.515 357.331 C-85.647 354.484 -84.779 351.637 -83.91 348.791 C-81.755 341.729 -79.606 334.665 -77.458 327.6 C-73.795 315.552 -70.128 303.506 -66.457 291.46 C-65.014 286.723 -63.571 281.985 -62.128 277.247 C-60.98 273.479 -59.832 269.712 -58.683 265.944 C-56.288 258.086 -53.896 250.227 -51.515 242.364 C-50.896 240.319 -50.275 238.274 -49.653 236.229 C-48.922 233.825 -48.197 231.418 -47.475 229.011 C-47.104 227.778 -46.732 226.546 -46.349 225.276 C-44.166 216.832 -45.221 209.717 -49.534 202.124 C-53.616 196.593 -58.804 192.689 -65.534 191.124 C-84.626 189.285 -100.004 195.83 -114.534 208.124 Z " fill="#191817" transform="translate(2419.5340118408203,1979.8755798339844)"/>
<path d="M0 0 C12.152 9.846 19.294 25.688 21 41 C22.394 60.848 19.159 79.238 14.074 98.34 C13.88 99.072 13.686 99.804 13.486 100.558 C8.908 117.774 3.746 134.805 -1.488 151.832 C-2.797 156.095 -4.099 160.362 -5.401 164.628 C-7.543 171.645 -9.69 178.661 -11.839 185.676 C-16.032 199.363 -20.206 213.055 -24.376 226.749 C-25.668 230.995 -26.963 235.24 -28.26 239.484 C-30.646 247.295 -33.018 255.11 -35.376 262.93 C-36.034 265.114 -36.695 267.297 -37.355 269.48 C-38.514 273.318 -39.665 277.157 -40.81 280.999 C-41.246 282.46 -41.685 283.92 -42.127 285.38 C-51.555 316.568 -51.555 316.568 -45 329 C-42.688 330.188 -42.688 330.188 -40 330 C-33.535 327.182 -29.058 322.8 -24 318 C-23.379 317.42 -22.757 316.84 -22.117 316.242 C-16.925 311.243 -12.489 305.626 -8 300 C-7.251 299.064 -6.502 298.128 -5.73 297.164 C-5.159 296.45 -4.588 295.736 -4 295 C1.662 295.879 4.936 300.423 8.812 304.312 C9.614 305.085 10.415 305.858 11.24 306.654 C11.992 307.404 12.745 308.153 13.52 308.926 C13.866 309.268 13.866 309.268 15.616 311.001 C17 313 17 313 16.838 315.063 C15.493 318.172 13.543 320.836 11.562 323.562 C11.12 324.177 10.678 324.792 10.222 325.426 C6.531 330.464 2.52 335.059 -1.773 339.598 C-4 342 -4 342 -6.066 344.602 C-19.301 361.018 -41.409 372.438 -62 376 C-77.311 377.187 -90.099 376.945 -102.375 366.875 C-114.118 355.471 -118.027 338.99 -118.293 323.093 C-118.398 304.646 -116.03 287.582 -110.984 269.848 C-110.684 268.785 -110.384 267.723 -110.075 266.628 C-106.089 252.644 -101.793 238.752 -97.517 224.854 C-95.567 218.51 -93.625 212.164 -91.681 205.817 C-90.932 203.375 -90.184 200.933 -89.435 198.491 C-82.333 175.315 -75.311 152.114 -68.299 128.911 C-66.233 122.074 -64.163 115.238 -62.088 108.404 C-60.956 104.673 -59.828 100.941 -58.7 97.209 C-58.204 95.569 -57.707 93.93 -57.208 92.291 C-45.495 53.805 -45.495 53.805 -52.688 39.688 C-58.443 32.999 -65.662 31.679 -74.078 30.777 C-111.011 29.156 -143.99 58.395 -170.75 80 C-171.078 80.264 -171.078 80.264 -172.736 81.599 C-173.045 81.851 -173.045 81.851 -174.609 83.125 C-175.145 83.561 -175.681 83.996 -176.233 84.445 C-180.721 88.395 -183.529 91.298 -185.238 97.126 C-185.608 98.358 -185.978 99.589 -186.359 100.858 C-186.749 102.214 -187.138 103.57 -187.527 104.926 C-187.951 106.357 -188.377 107.788 -188.803 109.218 C-189.718 112.294 -190.623 115.373 -191.52 118.454 C-192.955 123.382 -194.413 128.303 -195.875 133.224 C-197.398 138.351 -198.92 143.479 -200.435 148.609 C-205.092 164.373 -209.878 180.096 -214.7 195.81 C-216.759 202.52 -218.812 209.233 -220.866 215.945 C-221.549 218.179 -222.233 220.413 -222.917 222.647 C-227.659 238.143 -232.376 253.646 -237.092 269.15 C-238.176 272.711 -239.259 276.273 -240.343 279.834 C-243.779 291.126 -247.215 302.418 -250.648 313.71 C-252.576 320.049 -254.505 326.388 -256.435 332.727 C-257.436 336.013 -258.436 339.3 -259.435 342.587 C-260.523 346.167 -261.613 349.745 -262.703 353.324 C-262.864 353.855 -262.864 353.855 -263.678 356.539 C-263.825 357.02 -263.825 357.02 -264.567 359.452 C-264.822 360.287 -265.076 361.123 -265.338 361.984 C-266 364 -266 364 -267 366 C-290.76 366 -314.52 366 -339 366 C-338.325 360.599 -337.717 356.492 -336.156 351.461 C-335.964 350.836 -335.964 350.836 -334.993 347.675 C-334.567 346.314 -334.141 344.952 -333.715 343.59 C-333.266 342.138 -332.818 340.686 -332.371 339.233 C-331.407 336.109 -330.439 332.986 -329.468 329.865 C-327.912 324.858 -326.364 319.848 -324.819 314.837 C-324.687 314.412 -324.687 314.412 -324.023 312.256 C-323.486 310.516 -322.949 308.776 -322.412 307.035 C-321.591 304.372 -320.768 301.709 -319.946 299.047 C-314.449 281.248 -309.031 263.425 -303.625 245.598 C-302.366 241.446 -301.106 237.294 -299.845 233.142 C-299.342 231.485 -298.839 229.828 -298.336 228.171 C-298.088 227.354 -297.84 226.536 -297.585 225.695 C-296.839 223.236 -296.093 220.777 -295.347 218.318 C-290.619 202.74 -285.88 187.167 -281.138 171.594 C-275.215 152.145 -269.298 132.695 -263.391 113.242 C-263.113 112.327 -262.835 111.412 -262.549 110.47 C-259.81 101.452 -257.071 92.434 -254.334 83.416 C-253.329 80.106 -252.324 76.796 -251.319 73.486 C-250.85 71.94 -250.38 70.394 -249.911 68.848 C-249.269 66.731 -248.626 64.614 -247.983 62.498 C-247.623 61.309 -247.262 60.12 -246.89 58.896 C-246.284 56.923 -245.653 54.958 -245 53 C-244.933 51.439 -244.915 49.875 -244.938 48.312 C-244.947 47.504 -244.956 46.696 -244.965 45.863 C-244.976 45.248 -244.988 44.634 -245 44 C-245.706 43.733 -246.413 43.466 -247.141 43.191 C-250.132 41.945 -252.912 40.499 -255.75 38.938 C-256.714 38.41 -257.678 37.883 -258.672 37.34 C-261 36 -261 36 -262 35 C-261.776 28.727 -260.25 23.125 -258.445 17.156 C-258.211 16.37 -257.976 15.584 -257.735 14.774 C-257.16 12.849 -256.58 10.924 -256 9 C-254.819 8.819 -253.638 8.639 -252.421 8.453 C-222.234 3.819 -192.388 -0.948 -163.035 -9.582 C-159.374 -10.648 -155.79 -11.506 -152 -12 C-153.929 -4.802 -155.968 2.351 -158.137 9.48 C-158.421 10.419 -158.705 11.358 -158.998 12.326 C-159.893 15.28 -160.79 18.234 -161.688 21.188 C-162.3 23.209 -162.913 25.23 -163.525 27.252 C-165.015 32.168 -166.507 37.084 -168 42 C-167.67 42.33 -167.34 42.66 -167 43 C-166.331 42.357 -165.662 41.714 -164.973 41.051 C-141.059 18.55 -111.822 -1.878 -80 -11 C-79.318 -11.206 -78.635 -11.412 -77.932 -11.624 C-51.507 -19.402 -22.472 -16.453 0 0 Z " fill="#191817" transform="translate(2066,2154)"/>
<path d="M0 0 C0.361 -0.001 0.361 -0.001 2.185 -0.008 C13.183 -0.012 23.29 0.726 33.75 4.312 C34.688 4.601 35.627 4.89 36.594 5.188 C47.468 8.946 57.798 16.914 63.25 27.121 C69.168 39.782 70.024 55.055 66.125 68.562 C61.552 80.855 54.933 89.764 42.984 95.367 C38.034 97.461 33.859 97.564 28.562 97.625 C28.15 97.64 28.15 97.64 26.061 97.713 C18.554 97.79 13.325 95.83 7.938 90.562 C1.71 81.31 0.816 70.359 2.258 59.48 C3.325 54.298 4.687 49.343 6.5 44.375 C7.91 40.382 7.889 37.463 6.75 33.312 C4.924 30.158 4.264 29.484 0.75 28.312 C-4.052 27.808 -8.046 27.78 -12.5 29.75 C-26.06 42.385 -29.773 65.017 -35 82.125 C-35.732 84.508 -36.464 86.891 -37.197 89.274 C-39.349 96.279 -41.493 103.287 -43.634 110.295 C-44.473 113.042 -45.313 115.788 -46.152 118.534 C-51.53 136.123 -56.891 153.718 -62.25 171.312 C-50.7 171.477 -50.7 171.477 7.75 172.312 C5.988 179.36 4.256 186.249 2.051 193.141 C1.944 193.479 1.944 193.479 1.405 195.189 C0.628 197.648 -0.155 200.105 -0.938 202.562 C-2.691 208.09 -4.444 213.617 -6.25 219.312 C-29.68 219.312 -53.11 219.312 -77.25 219.312 C-78.24 222.943 -79.23 226.573 -80.25 230.312 C-80.853 232.387 -81.466 234.458 -82.093 236.525 C-82.427 237.626 -82.76 238.726 -83.103 239.86 C-83.458 241.028 -83.814 242.195 -84.18 243.398 C-84.371 244.028 -84.371 244.028 -85.337 247.217 C-86.38 250.654 -87.424 254.09 -88.468 257.527 C-89.358 260.456 -90.247 263.385 -91.136 266.314 C-98.446 290.403 -105.776 314.486 -113.109 338.568 C-119.578 359.811 -126.036 381.058 -132.489 402.306 C-141.379 431.579 -150.273 460.851 -159.187 490.116 C-159.397 490.808 -159.608 491.499 -159.825 492.211 C-160.649 494.918 -161.473 497.624 -162.298 500.33 C-164.572 507.796 -166.843 515.263 -169.106 522.733 C-170.168 526.237 -171.232 529.741 -172.297 533.245 C-172.758 534.766 -173.219 536.288 -173.678 537.81 C-174.277 539.796 -174.881 541.781 -175.484 543.766 C-175.806 544.829 -176.128 545.893 -176.46 546.989 C-177.25 549.312 -177.25 549.312 -178.25 550.312 C-180.489 550.407 -182.732 550.43 -184.973 550.426 C-185.675 550.426 -186.378 550.426 -187.101 550.426 C-189.434 550.426 -191.766 550.418 -194.098 550.41 C-195.71 550.408 -197.323 550.407 -198.936 550.406 C-203.189 550.402 -207.442 550.392 -211.695 550.381 C-216.032 550.371 -220.368 550.366 -224.705 550.361 C-233.22 550.351 -241.735 550.334 -250.25 550.312 C-249.683 545.813 -248.872 541.613 -247.542 537.279 C-247.189 536.118 -246.835 534.957 -246.471 533.761 C-246.084 532.507 -245.696 531.253 -245.297 529.961 C-244.885 528.615 -244.474 527.268 -244.063 525.922 C-243.179 523.03 -242.292 520.138 -241.402 517.247 C-239.977 512.614 -238.558 507.979 -237.14 503.343 C-235.41 497.686 -233.678 492.029 -231.944 486.373 C-228.936 476.561 -225.942 466.745 -222.957 456.926 C-222.744 456.226 -222.531 455.526 -222.312 454.804 C-221.455 451.984 -220.598 449.164 -219.741 446.344 C-211.935 420.659 -204.098 394.984 -196.25 369.312 C-189.107 345.946 -181.973 322.577 -174.858 299.202 C-174.192 297.016 -173.527 294.83 -172.861 292.644 C-168.587 278.603 -164.319 264.56 -160.082 250.508 C-159.769 249.47 -159.456 248.432 -159.133 247.363 C-157.716 242.664 -156.301 237.964 -154.89 233.262 C-154.411 231.671 -153.932 230.08 -153.453 228.488 C-153.241 227.777 -153.028 227.067 -152.809 226.334 C-151.363 221.539 -151.363 221.539 -150.25 219.312 C-161.8 219.312 -173.35 219.312 -185.25 219.312 C-179.069 194.59 -179.069 194.59 -170.25 187.312 C-164.365 183.818 -158.01 181.741 -151.518 179.689 C-145.713 177.751 -140.261 175.606 -136.952 170.187 C-134.089 164.372 -131.833 158.592 -129.938 152.398 C-129.338 150.499 -128.738 148.6 -128.137 146.701 C-127.83 145.719 -127.522 144.737 -127.205 143.726 C-115.106 105.248 -101.094 66.877 -75.25 35.312 C-74.545 34.441 -73.84 33.57 -73.113 32.672 C-54.3 10.555 -28.649 0.098 0 0 Z " fill="#191817" transform="translate(3017.25,1969.6875)"/>
<path d="M0 0 C0.931 0.004 1.863 0.007 2.823 0.011 C3.798 0.011 4.774 0.011 5.779 0.01 C9.02 0.011 12.261 0.019 15.502 0.027 C17.743 0.029 19.983 0.03 22.224 0.031 C28.134 0.035 34.044 0.045 39.954 0.056 C45.98 0.066 52.006 0.071 58.031 0.076 C69.864 0.086 81.697 0.103 93.529 0.124 C92.993 5.079 92.254 9.611 90.777 14.388 C90.413 15.577 90.049 16.766 89.675 17.992 C89.271 19.287 88.867 20.583 88.463 21.878 C88.037 23.263 87.611 24.648 87.186 26.033 C86.27 29.015 85.349 31.997 84.425 34.977 C82.94 39.769 81.465 44.564 79.991 49.36 C79.481 51.019 78.971 52.678 78.461 54.337 C78.205 55.168 77.95 55.999 77.686 56.856 C76.897 59.422 76.107 61.987 75.317 64.552 C70.157 81.308 65.058 98.083 59.969 114.861 C57.702 122.333 55.433 129.804 53.165 137.276 C52.415 139.745 51.665 142.215 50.915 144.684 C45.898 161.208 40.871 177.729 35.842 194.249 C35.41 195.669 34.978 197.089 34.545 198.509 C32.827 204.154 31.109 209.799 29.39 215.444 C26.357 225.407 23.324 235.371 20.291 245.335 C20.074 246.048 19.857 246.76 19.634 247.495 C18.099 252.538 16.564 257.581 15.029 262.624 C13.276 268.387 11.522 274.15 9.768 279.913 C9.659 280.27 9.659 280.27 9.11 282.073 C5.655 293.429 2.198 304.784 -1.259 316.139 C-4.719 327.503 -8.177 338.868 -11.635 350.233 C-14.549 359.813 -17.466 369.392 -20.384 378.971 C-22.54 386.05 -24.695 393.129 -26.849 400.209 C-28.144 404.464 -29.439 408.718 -30.737 412.973 C-35.751 429.42 -40.732 445.876 -45.549 462.382 C-45.918 463.643 -46.287 464.903 -46.668 466.202 C-49.84 477.143 -52.818 487.613 -51.471 499.124 C-49.533 502.562 -49.533 502.562 -46.471 504.124 C-39.026 505.139 -32.412 501.162 -26.471 497.124 C-18.716 490.998 -12.555 483.859 -6.471 476.124 C-4.493 473.771 -2.484 471.448 -0.471 469.124 C4.17 471.221 7.263 474.453 10.842 477.999 C11.5 478.625 12.158 479.25 12.836 479.894 C13.453 480.504 14.07 481.113 14.705 481.742 C15.272 482.294 15.838 482.847 16.421 483.417 C17.529 485.124 17.529 485.124 17.329 487.117 C16.542 489.093 15.675 490.817 14.561 492.628 C14.36 492.955 14.36 492.955 13.344 494.606 C12.91 495.293 12.476 495.979 12.029 496.687 C11.579 497.401 11.13 498.115 10.666 498.85 C6.72 505.005 2.367 510.639 -2.471 516.124 C-3.312 517.111 -4.154 518.097 -5.021 519.113 C-18.651 534.809 -37.296 547.892 -58.471 550.124 C-96.284 552.564 -96.284 552.564 -110.478 541.878 C-119.31 534.103 -124.845 525.444 -125.648 513.487 C-126.092 492.904 -123.193 475.765 -117.451 456.081 C-117.257 455.415 -117.063 454.748 -116.863 454.061 C-112.355 438.582 -107.645 423.166 -102.913 407.754 C-101.714 403.85 -100.519 399.945 -99.324 396.041 C-99.202 395.643 -99.202 395.643 -98.585 393.629 C-98.09 392.011 -97.595 390.393 -97.099 388.776 C-96.353 386.338 -95.606 383.9 -94.859 381.462 C-90.134 366.036 -85.431 350.603 -80.736 335.167 C-80.093 333.053 -79.45 330.939 -78.806 328.825 C-71.177 303.751 -63.56 278.674 -55.943 253.596 C-46.982 224.093 -38.009 194.594 -29.028 165.097 C-25.849 154.654 -22.671 144.21 -19.494 133.766 C-18.071 129.086 -16.647 124.405 -15.223 119.725 C-13.883 115.321 -12.544 110.917 -11.204 106.512 C-10.578 104.452 -9.951 102.393 -9.324 100.333 C-8.522 97.697 -7.722 95.06 -6.923 92.422 C-5.025 86.161 -3.092 79.913 -1.09 73.684 C-0.715 72.505 -0.34 71.325 0.047 70.109 C0.747 67.916 1.456 65.726 2.178 63.539 C3.994 57.82 5.632 52.154 4.529 46.124 C1.37 40.453 -3.593 37.571 -9.201 34.581 C-11.844 32.885 -13.11 31.98 -14.471 29.124 C-14.688 22.562 -12.506 16.278 -10.471 10.124 C-10.334 9.696 -10.334 9.696 -9.642 7.527 C-7.213 0.012 -7.213 0.012 0 0 Z " fill="#191817" transform="translate(3156.4705505371094,1979.8755798339844)"/>
<path d="M0 0 C8.334 6.787 13.539 15.957 15.062 26.68 C16.381 45.916 13.2 64.67 0.812 80.117 C-7.217 88.507 -17.307 93.63 -28.865 94.029 C-37.382 94.131 -43.977 93.542 -50.625 87.742 C-54.922 83.132 -56.788 77.506 -58.938 71.68 C-59.531 70.259 -60.133 68.841 -60.75 67.43 C-60.946 66.976 -60.946 66.976 -61.938 64.68 C-69.471 64.873 -74.305 70.081 -79.387 75.098 C-109.429 107.026 -127.42 150.664 -140.621 191.875 C-140.875 192.663 -141.129 193.451 -141.391 194.262 C-147.007 211.687 -152.346 229.194 -157.633 246.722 C-158.91 250.951 -160.191 255.179 -161.472 259.408 C-163.055 264.635 -164.638 269.863 -166.219 275.091 C-171.233 291.667 -176.271 308.235 -181.316 324.801 C-182.441 328.496 -183.566 332.191 -184.69 335.886 C-185.529 338.644 -186.369 341.402 -187.208 344.16 C-187.771 346.008 -188.333 347.856 -188.895 349.704 C-189.239 350.832 -189.583 351.961 -189.937 353.124 C-190.228 354.082 -190.52 355.041 -190.821 356.028 C-192.519 361.581 -194.23 367.13 -195.938 372.68 C-220.028 372.68 -244.117 372.68 -268.938 372.68 C-264.352 354.337 -264.352 354.337 -261.891 346.52 C-261.607 345.604 -261.323 344.689 -261.03 343.745 C-260.412 341.753 -259.792 339.761 -259.171 337.769 C-257.4 332.094 -255.646 326.414 -253.891 320.734 C-253.505 319.488 -253.119 318.241 -252.722 316.956 C-244.788 291.293 -237.034 265.573 -229.243 239.866 C-226.582 231.09 -223.913 222.316 -221.23 213.547 C-202.264 151.551 -202.264 151.551 -197.938 122.68 C-197.834 121.997 -197.731 121.315 -197.625 120.612 C-196.743 113.889 -196.717 107.132 -196.697 100.36 C-196.688 98.315 -196.656 96.271 -196.625 94.227 C-196.543 84.077 -197.083 73.743 -203.938 65.68 C-208.791 62.062 -213.869 61.701 -219.699 60.951 C-224.476 60.237 -227.494 59.322 -230.938 55.68 C-233.718 51.125 -233.163 46.029 -233.062 40.867 C-233.053 39.984 -233.044 39.1 -233.035 38.189 C-233.012 36.019 -232.976 33.85 -232.938 31.68 C-229.338 30.375 -225.743 29.37 -222.016 28.523 C-195.335 22.427 -169.567 12.222 -146.277 -2.223 C-141.237 -5.32 -141.237 -5.32 -137.938 -5.32 C-121.263 16.181 -125.748 46.732 -127.938 71.867 C-128.225 75.22 -128.51 78.573 -128.793 81.927 C-128.969 83.998 -129.147 86.069 -129.328 88.14 C-129.368 88.607 -129.368 88.607 -129.57 90.966 C-129.641 91.782 -129.712 92.598 -129.786 93.439 C-129.926 95.515 -129.938 97.599 -129.938 99.68 C-128.955 97.818 -127.973 95.955 -126.992 94.093 C-126.107 92.414 -125.222 90.736 -124.336 89.057 C-121.848 84.338 -119.383 79.609 -116.953 74.859 C-100.73 43.22 -79.006 5.484 -43.375 -6.629 C-28.31 -10.902 -12.814 -9.199 0 0 Z " fill="#191817" transform="translate(2760.9375,2147.3203125)"/>
</svg>
