<?xml version="1.0" encoding="UTF-8"?>
<!-- Generator: visioncortex VTracer 0.6.12 -->
<svg version="1.1" xmlns="http://www.w3.org/2000/svg" width="4500" height="4500">
<path d="M0 0 C2.375 0.812 2.375 0.812 3.375 2.812 C3.531 5.59 3.627 8.346 3.68 11.127 C3.7 11.989 3.72 12.85 3.741 13.739 C3.805 16.616 3.862 19.493 3.918 22.371 C3.928 22.869 3.928 22.869 3.981 25.389 C4.288 40.044 4.459 54.698 4.535 69.356 C4.551 72.411 4.569 75.465 4.587 78.52 C4.599 80.557 4.611 82.594 4.623 84.631 C4.626 85.133 4.626 85.133 4.641 87.673 C4.67 92.865 4.691 98.057 4.701 103.249 C4.711 108.41 4.74 113.571 4.782 118.732 C4.795 120.669 4.8 122.605 4.797 124.542 C4.795 127.207 4.817 129.871 4.845 132.535 C4.838 133.32 4.832 134.104 4.825 134.913 C4.886 138.478 4.973 140.357 7.377 143.084 C8.036 143.654 8.696 144.225 9.375 144.812 C10.052 150.141 10.052 150.141 9.375 152.812 C8.714 153.474 8.053 154.136 7.373 154.817 C4.499 159.126 4.826 162.763 4.881 167.835 C4.878 168.344 4.878 168.344 4.866 170.92 C4.855 174.338 4.872 177.755 4.889 181.173 C4.887 183.622 4.883 186.072 4.878 188.522 C4.869 194.495 4.879 200.469 4.897 206.442 C4.918 213.427 4.918 220.412 4.917 227.397 C4.916 239.897 4.934 252.397 4.963 264.897 C4.991 276.957 5.006 289.017 5.004 301.077 C5.004 301.447 5.004 301.447 5.004 303.316 C5.004 304.053 5.004 304.791 5.004 305.551 C5.003 319.344 5.014 333.138 5.032 346.931 C5.037 351.085 5.04 355.24 5.041 359.394 C5.051 410.663 5.051 410.663 6.6 431.834 C8.266 456.004 8.158 480.293 8.462 504.512 C8.492 506.917 8.524 509.321 8.555 511.725 C9.658 595.966 9.586 680.213 9.521 849.164 C9.504 871.981 9.492 894.797 9.485 917.614 C9.485 918.007 9.485 918.007 9.484 919.997 C9.481 927.901 9.479 935.804 9.476 943.708 C9.471 959.782 9.466 975.856 9.46 991.93 C9.459 992.668 9.459 993.405 9.459 994.165 C9.441 1042.714 9.409 1091.263 9.375 1139.812 C9.839 1139.879 9.839 1139.879 12.188 1140.215 C18.466 1141.392 22.643 1145.381 26.227 1150.473 C28.399 1154.899 28.396 1159.048 27.375 1163.812 C24.416 1170.352 18.932 1174.215 12.375 1176.812 C11.385 1176.812 10.395 1176.812 9.375 1176.812 C9.249 1198.84 9.185 1220.866 9.196 1242.894 C9.2 1253.122 9.183 1263.349 9.118 1273.577 C9.061 1282.493 9.043 1291.408 9.071 1300.324 C9.084 1305.045 9.079 1309.763 9.027 1314.483 C8.978 1318.93 8.982 1323.373 9.024 1327.819 C9.031 1329.448 9.019 1331.077 8.986 1332.705 C8.756 1345.03 8.756 1345.03 12.913 1349.607 C15.655 1351.622 18.33 1353.303 21.375 1354.812 C25.594 1352.358 29.214 1349.523 32.875 1346.312 C34.121 1345.233 35.367 1344.153 36.613 1343.074 C37.241 1342.529 37.868 1341.985 38.514 1341.423 C41.347 1338.971 44.202 1336.545 47.062 1334.125 C47.6 1333.67 48.138 1333.215 48.692 1332.746 C52.038 1329.921 55.414 1327.137 58.812 1324.375 C63.676 1320.417 68.434 1316.347 73.183 1312.254 C77.573 1308.479 82.036 1304.805 86.531 1301.156 C90.467 1297.913 94.323 1294.581 98.186 1291.252 C101.687 1288.24 105.223 1285.282 108.812 1282.375 C113.916 1278.234 118.87 1273.935 123.821 1269.614 C127.514 1266.4 131.249 1263.258 135.062 1260.188 C140.101 1256.109 144.855 1251.772 149.605 1247.367 C152.445 1244.748 155.341 1242.207 158.262 1239.68 C160.419 1237.774 162.533 1235.825 164.644 1233.867 C169.774 1229.114 175.012 1224.581 180.461 1220.191 C183.815 1217.453 187.097 1214.64 190.375 1211.812 C195.391 1207.49 200.467 1203.258 205.605 1199.082 C210.919 1194.727 216.14 1190.262 221.375 1185.812 C227.484 1180.62 233.59 1175.431 239.812 1170.375 C244.675 1166.418 249.433 1162.351 254.179 1158.256 C257.739 1155.192 261.342 1152.197 265 1149.25 C269.459 1145.634 273.69 1141.81 277.891 1137.903 C282.024 1134.079 286.34 1130.524 290.727 1126.992 C293.348 1124.835 295.867 1122.599 298.375 1120.312 C301.695 1117.29 305.073 1114.387 308.562 1111.562 C313.702 1107.402 318.698 1103.095 323.684 1098.753 C328.265 1094.766 332.882 1090.825 337.526 1086.911 C341.539 1083.528 345.522 1080.111 349.5 1076.688 C353.561 1073.194 357.65 1069.748 361.812 1066.375 C366.918 1062.232 371.873 1057.93 376.828 1053.61 C381.313 1049.708 385.88 1045.928 390.5 1042.188 C394.01 1039.288 397.443 1036.305 400.875 1033.312 C406.007 1028.837 411.207 1024.472 416.5 1020.188 C420.01 1017.288 423.443 1014.305 426.875 1011.312 C432.007 1006.837 437.207 1002.472 442.5 998.188 C446.01 995.288 449.443 992.305 452.875 989.312 C458.034 984.815 463.257 980.423 468.574 976.113 C472.447 972.932 476.242 969.665 480.041 966.396 C485.589 961.623 491.174 956.893 496.766 952.171 C499.471 949.887 502.173 947.6 504.875 945.312 C505.958 944.396 507.042 943.479 508.125 942.562 C508.661 942.109 509.198 941.655 509.75 941.188 C512.729 938.667 512.729 938.667 527.625 926.062 C528.161 925.609 528.698 925.155 529.25 924.687 C530.332 923.772 531.414 922.857 532.496 921.942 C535.231 919.628 537.965 917.312 540.695 914.992 C545.678 910.762 550.672 906.554 555.75 902.438 C560.873 898.27 565.851 893.949 570.828 889.61 C575.312 885.708 579.88 881.928 584.5 878.188 C588.01 875.288 591.443 872.305 594.875 869.312 C599.157 865.578 603.458 861.888 607.875 858.312 C612.908 854.235 617.798 850.007 622.683 845.754 C628.339 840.832 634.053 835.982 639.787 831.151 C648.169 824.088 656.522 816.991 664.836 809.848 C667.189 807.827 669.548 805.814 671.914 803.809 C678.231 798.443 684.416 792.976 690.474 787.319 C694.992 783.119 699.648 779.1 704.349 775.108 C707.807 772.169 711.208 769.182 714.562 766.125 C718.802 762.274 723.204 758.664 727.656 755.062 C730.296 752.877 732.842 750.621 735.375 748.312 C739.595 744.471 743.955 740.851 748.391 737.262 C751.763 734.494 755.072 731.661 758.375 728.812 C763.364 724.513 768.417 720.308 773.531 716.156 C777.467 712.913 781.323 709.581 785.186 706.252 C788.687 703.24 792.223 700.282 795.812 697.375 C800.918 693.232 805.873 688.93 810.828 684.61 C814.462 681.448 818.13 678.344 821.875 675.312 C826.909 671.234 831.8 667.006 836.685 662.752 C841.266 658.765 845.883 654.824 850.526 650.911 C854.539 647.528 858.522 644.111 862.5 640.688 C867.44 636.439 872.444 632.285 877.504 628.18 C881.591 624.81 885.601 621.352 889.605 617.885 C889.886 617.642 889.886 617.642 891.309 616.414 C891.838 615.956 892.367 615.499 892.913 615.027 C894.375 613.812 894.375 613.812 896.734 612.168 C898.375 610.812 898.375 610.812 899.188 607.5 C900.715 602.757 902.961 600.159 907.375 597.812 C909.302 597.941 911.228 598.071 913.152 598.23 C917.565 597.401 920.427 593.63 923.531 590.59 C926.151 588.031 928.832 585.726 931.688 583.438 C935.984 579.969 940.194 576.418 944.375 572.812 C949.364 568.513 954.417 564.308 959.531 560.156 C962.852 557.419 966.115 554.621 969.375 551.812 C974.392 547.49 979.467 543.255 984.609 539.082 C987.669 536.571 990.678 534.007 993.688 531.438 C999.432 526.542 1005.325 521.856 1011.281 517.223 C1013.251 515.688 1015.199 514.123 1017.113 512.52 C1019.375 510.812 1019.375 510.812 1022.062 510.438 C1024.375 510.812 1024.375 510.812 1026.375 512.812 C1025.95 519.003 1021.762 521.911 1017.375 525.812 C1014.685 528.061 1011.964 530.266 1009.23 532.461 C1006.357 534.827 1003.612 537.29 1000.875 539.812 C996.507 543.829 992.007 547.606 987.391 551.332 C983.828 554.262 980.35 557.28 976.875 560.312 C971.743 564.788 966.543 569.153 961.25 573.438 C957.74 576.337 954.307 579.32 950.875 582.312 C946.482 586.14 942.071 589.933 937.562 593.625 C936.701 594.333 935.84 595.04 934.953 595.77 C933.188 597.169 931.382 598.519 929.547 599.824 C921.985 605.323 921.985 605.323 921 610.625 C920.901 611.374 920.801 612.123 920.699 612.895 C920.375 614.812 920.375 614.812 918.812 616.812 C916.336 617.828 914.791 617.919 912.152 618.031 C906.876 618.582 904.235 620.718 900.5 624.312 C899.286 625.416 898.071 626.519 896.855 627.621 C896.561 627.894 896.561 627.894 895.068 629.273 C892.725 631.403 890.279 633.391 887.812 635.375 C881.59 640.431 875.484 645.62 869.375 650.812 C863.266 656.005 857.16 661.194 850.938 666.25 C846.074 670.208 841.316 674.278 836.567 678.371 C832.177 682.146 827.714 685.82 823.219 689.469 C819.287 692.709 815.434 696.037 811.575 699.365 C807.969 702.467 804.323 705.507 800.625 708.5 C796.25 712.05 792.07 715.768 787.906 719.562 C784.397 722.682 780.743 725.61 777.094 728.562 C773.593 731.46 770.252 734.513 766.895 737.574 C764.343 739.841 761.723 741.988 759.062 744.125 C754.829 747.535 750.874 751.135 746.938 754.875 C742.024 759.521 736.917 763.26 731.203 766.902 C726.5 770.079 722.494 773.927 718.375 777.812 C717.359 778.742 716.34 779.669 715.32 780.594 C709.645 785.757 704.128 791.028 698.75 796.5 C694.074 801.248 689.216 805.557 683.988 809.703 C681.362 811.823 678.866 814.037 676.375 816.312 C672.151 820.158 667.785 823.78 663.348 827.375 C660.047 830.081 656.799 832.843 653.562 835.625 C652.976 836.129 652.389 836.633 651.785 837.153 C649.981 838.705 648.178 840.259 646.375 841.812 C633.122 853.237 633.122 853.237 626.938 858.25 C621.886 862.352 616.974 866.598 612.067 870.87 C606.413 875.791 600.7 880.64 594.968 885.47 C592.267 887.747 589.571 890.03 586.875 892.312 C585.792 893.229 584.708 894.146 583.625 895.062 C583.089 895.516 582.552 895.97 582 896.438 C577.125 900.562 577.125 900.562 575.5 901.937 C574.416 902.855 573.332 903.772 572.248 904.69 C569.553 906.97 566.858 909.25 564.16 911.527 C563.086 912.435 562.012 913.342 560.938 914.25 C560.405 914.7 559.873 915.149 559.325 915.613 C555.883 918.525 552.458 921.456 549.041 924.396 C544.383 928.404 539.712 932.381 534.938 936.25 C529.832 940.393 524.877 944.695 519.922 949.015 C515.437 952.917 510.87 956.697 506.25 960.438 C502.74 963.337 499.307 966.32 495.875 969.312 C491.593 973.047 487.292 976.737 482.875 980.312 C477.842 984.39 472.952 988.618 468.067 992.871 C462.412 997.791 456.7 1002.64 450.968 1007.47 C448.267 1009.747 445.571 1012.03 442.875 1014.312 C441.792 1015.229 440.708 1016.146 439.625 1017.062 C439.089 1017.516 438.552 1017.97 438 1018.438 C368.125 1077.563 368.125 1077.563 366.5 1078.937 C365.416 1079.855 364.332 1080.772 363.248 1081.69 C360.553 1083.97 357.858 1086.25 355.16 1088.527 C354.086 1089.435 353.012 1090.342 351.938 1091.25 C351.405 1091.7 350.873 1092.149 350.325 1092.613 C346.883 1095.525 343.458 1098.456 340.041 1101.397 C334.493 1106.17 328.892 1110.861 323.211 1115.477 C318.722 1119.174 314.326 1122.977 309.918 1126.77 C304.969 1131.026 299.98 1135.234 294.993 1139.445 C293.346 1140.837 291.702 1142.233 290.059 1143.629 C285.053 1147.88 280.035 1152.108 274.938 1156.25 C270.074 1160.208 265.316 1164.278 260.567 1168.371 C256.177 1172.146 251.714 1175.82 247.219 1179.469 C243.898 1182.206 240.635 1185.004 237.375 1187.812 C232.386 1192.112 227.333 1196.317 222.219 1200.469 C218.898 1203.206 215.635 1206.004 212.375 1208.812 C207.358 1213.135 202.283 1217.37 197.141 1221.543 C194.634 1223.6 192.16 1225.689 189.694 1227.794 C184.168 1232.513 178.551 1237.082 172.817 1241.546 C167.597 1245.616 162.465 1249.788 157.339 1253.976 C153.041 1257.481 148.695 1260.914 144.312 1264.312 C137.382 1269.707 130.786 1275.458 124.18 1281.241 C121.393 1283.667 118.574 1286.055 115.75 1288.438 C115.221 1288.884 114.691 1289.331 114.146 1289.791 C113.085 1290.686 112.024 1291.58 110.963 1292.474 C108.286 1294.73 105.611 1296.99 102.938 1299.25 C102.671 1299.475 102.671 1299.475 101.324 1300.613 C96.685 1304.539 92.08 1308.502 87.474 1312.466 C83.9 1315.532 80.285 1318.536 76.625 1321.5 C73.116 1324.347 69.716 1327.271 66.375 1330.312 C62.161 1334.149 57.808 1337.763 53.379 1341.348 C49.305 1344.69 45.312 1348.123 41.321 1351.564 C37.702 1354.683 34.054 1357.763 30.375 1360.812 C30.592 1361.346 30.808 1361.88 31.031 1362.43 C33.71 1369.599 35.063 1376.698 31.875 1383.938 C28.279 1390.233 23.275 1395.437 16.375 1397.812 C20.247 1401.946 24.403 1405.112 29.062 1408.312 C30.59 1409.377 32.118 1410.442 33.645 1411.508 C34.428 1412.053 35.211 1412.599 36.018 1413.161 C39.787 1415.802 43.521 1418.491 47.25 1421.188 C47.993 1421.725 48.737 1422.263 49.503 1422.817 C58.97 1429.677 68.368 1436.634 77.771 1443.583 C86.336 1449.912 94.916 1456.219 103.562 1462.438 C109.883 1466.984 116.135 1471.61 122.348 1476.302 C127.203 1479.96 132.121 1483.523 137.062 1487.062 C144.646 1492.502 152.08 1498.123 159.487 1503.8 C165.238 1508.201 171.032 1512.534 176.875 1516.812 C184.66 1522.516 192.356 1528.33 200.018 1534.197 C207.412 1539.857 207.412 1539.857 210.84 1542.367 C217.81 1547.475 224.303 1553.006 230.801 1558.691 C240.007 1566.746 249.672 1574.051 259.539 1581.266 C263.867 1584.432 268.158 1587.644 272.438 1590.875 C278.718 1595.606 285.072 1600.228 291.456 1604.819 C299.345 1610.498 307.166 1616.269 314.984 1622.046 C318.945 1624.972 322.91 1627.892 326.875 1630.812 C328.458 1631.979 330.042 1633.146 331.625 1634.312 C332.409 1634.89 333.193 1635.467 334 1636.062 C341.125 1641.312 341.125 1641.312 343.5 1643.063 C345.083 1644.229 346.665 1645.395 348.248 1646.56 C352.221 1649.487 356.192 1652.415 360.16 1655.348 C367.87 1661.042 375.597 1666.711 383.375 1672.312 C391.959 1678.494 400.477 1684.76 408.984 1691.046 C412.945 1693.972 416.91 1696.892 420.875 1699.812 C422.458 1700.979 424.042 1702.146 425.625 1703.312 C426.409 1703.89 427.193 1704.467 428 1705.062 C429.187 1705.938 429.187 1705.938 435.125 1710.312 C435.909 1710.89 436.693 1711.467 437.5 1712.062 C439.083 1713.229 440.664 1714.395 442.246 1715.562 C446.218 1718.494 450.199 1721.414 454.195 1724.312 C464.194 1731.583 473.837 1739.163 483.316 1747.097 C503.464 1763.89 524.327 1779.595 545.607 1794.92 C555.052 1801.729 564.407 1808.662 573.771 1815.583 C613.335 1844.816 613.335 1844.816 619.375 1847.812 C620.035 1847.483 620.695 1847.153 621.375 1846.812 C626.754 1846.328 631.674 1845.894 636.5 1848.5 C638.926 1851.492 640.395 1853.85 640.355 1857.803 C640.375 1861.439 640.597 1863.91 643.023 1866.725 C645.356 1868.624 647.753 1870.323 650.25 1872 C651.15 1872.638 652.049 1873.276 652.976 1873.933 C654.848 1875.26 656.726 1876.577 658.612 1877.884 C662.784 1880.796 666.855 1883.839 670.938 1886.875 C672.511 1888.034 674.085 1889.191 675.66 1890.348 C680.402 1893.831 685.139 1897.322 689.875 1900.812 C690.658 1901.389 691.441 1901.966 692.248 1902.561 C696.221 1905.487 700.192 1908.415 704.16 1911.348 C711.931 1917.087 719.72 1922.797 727.562 1928.438 C733.879 1932.981 740.127 1937.605 746.337 1942.293 C751.303 1946.033 756.327 1949.686 761.375 1953.312 C767.09 1957.418 772.759 1961.573 778.375 1965.812 C784.675 1970.567 791.048 1975.21 797.455 1979.819 C805.345 1985.498 813.166 1991.269 820.984 1997.046 C824.945 1999.972 828.91 2002.892 832.875 2005.812 C834.458 2006.979 836.042 2008.146 837.625 2009.312 C838.409 2009.89 839.193 2010.467 840 2011.062 C847.125 2016.312 847.125 2016.312 849.501 2018.063 C851.081 2019.228 852.662 2020.392 854.243 2021.556 C858.245 2024.502 862.242 2027.454 866.23 2030.418 C874.192 2036.325 882.198 2042.128 890.394 2047.707 C904.186 2057.112 917.56 2067.127 930.984 2077.046 C934.945 2079.972 938.91 2082.892 942.875 2085.812 C944.458 2086.979 946.042 2088.146 947.625 2089.312 C948.409 2089.89 949.193 2090.468 950 2091.062 C965.042 2102.146 980.083 2113.229 995.125 2124.312 C995.909 2124.89 996.693 2125.468 997.5 2126.063 C999.082 2127.228 1000.664 2128.394 1002.246 2129.56 C1006.225 2132.494 1010.208 2135.424 1014.195 2138.348 C1022.601 2144.515 1030.949 2150.745 1039.21 2157.105 C1044.654 2161.287 1050.168 2165.365 1055.731 2169.387 C1058.089 2171.098 1060.311 2172.749 1062.375 2174.812 C1062.732 2178.096 1062.671 2180.187 1061.25 2183.188 C1059.375 2184.812 1059.375 2184.812 1056.562 2185.312 C1052.638 2184.697 1050.4 2183.23 1047.375 2180.812 C1046.524 2180.145 1045.673 2179.477 1044.797 2178.789 C1040.659 2175.476 1036.674 2172.157 1032.973 2168.359 C1029.634 2164.981 1026.089 2162.158 1022.25 2159.375 C1020.835 2158.332 1019.421 2157.287 1018.008 2156.242 C1017.259 2155.69 1016.511 2155.138 1015.739 2154.569 C1011.503 2151.421 1007.317 2148.207 1003.125 2145 C996.15 2139.674 989.152 2134.382 982.125 2129.125 C973.919 2122.985 965.766 2116.779 957.632 2110.543 C946.006 2101.63 934.358 2092.759 922.54 2084.102 C916.598 2079.74 910.728 2075.292 904.875 2070.812 C891.05 2060.245 877.073 2049.935 862.789 2039.994 C854.988 2034.561 847.281 2029.003 839.588 2023.417 C837.368 2021.807 835.144 2020.204 832.918 2018.602 C824.4 2012.469 815.925 2006.282 807.483 2000.045 C799.16 1993.903 790.771 1987.855 782.375 1981.812 C772.369 1974.611 762.396 1967.37 752.481 1960.043 C747.137 1956.098 741.766 1952.193 736.375 1948.312 C729.373 1943.272 722.419 1938.17 715.48 1933.043 C710.136 1929.098 704.766 1925.193 699.375 1921.312 C693.178 1916.852 687.015 1912.35 680.875 1907.812 C673.979 1902.718 667.071 1897.639 660.087 1892.665 C656.208 1889.897 652.404 1887.069 648.668 1884.109 C635.718 1874.006 635.718 1874.006 628.75 1874.312 C628.286 1874.372 628.286 1874.372 625.938 1874.672 C622.139 1874.88 619.958 1873.388 616.898 1871.297 C613.86 1868.336 613.388 1866.253 613.266 1861.969 C612.974 1859.32 612.649 1858.119 610.857 1856.113 C608.68 1854.389 606.443 1852.842 604.125 1851.312 C602.379 1850.096 600.634 1848.877 598.891 1847.656 C597.981 1847.028 597.072 1846.401 596.135 1845.754 C591.613 1842.573 587.251 1839.189 582.875 1835.812 C576.199 1830.696 569.476 1825.653 562.688 1820.688 C555.769 1815.623 548.97 1810.428 542.223 1805.139 C536.58 1800.724 530.868 1796.409 525.125 1792.125 C518.324 1787.048 511.593 1781.9 504.941 1776.629 C500.716 1773.282 496.449 1769.988 492.188 1766.688 C487.273 1762.88 482.4 1759.043 477.625 1755.062 C470.066 1748.828 462.129 1742.889 453.625 1738 C446.3 1733.739 439.58 1728.545 432.75 1723.546 C429.729 1721.341 426.694 1719.157 423.658 1716.973 C415.892 1711.384 408.176 1705.73 400.481 1700.043 C395.137 1696.098 389.766 1692.193 384.375 1688.312 C375.791 1682.132 367.273 1675.865 358.766 1669.579 C354.805 1666.653 350.84 1663.733 346.875 1660.812 C345.296 1659.648 343.716 1658.484 342.137 1657.32 C338.932 1654.959 335.726 1652.6 332.52 1650.242 C324.46 1644.314 316.422 1638.361 308.426 1632.347 C299.337 1625.518 290.165 1618.801 281.003 1612.07 C264.331 1599.82 247.738 1587.473 231.375 1574.812 C229.209 1573.144 227.042 1571.478 224.875 1569.812 C221.717 1567.384 218.561 1564.956 215.406 1562.523 C207.757 1556.628 200.078 1550.772 192.395 1544.921 C184.046 1538.563 175.705 1532.195 167.375 1525.812 C166.814 1525.383 166.254 1524.954 165.676 1524.511 C160.453 1520.508 155.24 1516.495 150.062 1512.434 C142.752 1506.706 135.429 1501.046 127.833 1495.702 C122.71 1492.086 117.696 1488.334 112.688 1484.562 C103.746 1477.831 94.753 1471.173 85.734 1464.546 C81.778 1461.639 77.827 1458.725 73.875 1455.812 C72.292 1454.646 70.708 1453.479 69.125 1452.312 C59.625 1445.312 59.625 1445.312 57.249 1443.562 C55.669 1442.397 54.088 1441.233 52.507 1440.069 C48.505 1437.123 44.508 1434.171 40.52 1431.207 C14.392 1411.821 14.392 1411.821 8.375 1408.812 C8.405 1409.73 8.434 1410.647 8.465 1411.591 C9.473 1443.61 9.536 1475.623 9.504 1507.655 C9.5 1511.923 9.497 1516.191 9.495 1520.46 C9.476 1554.495 9.417 1588.53 9.027 1622.563 C9.001 1624.952 8.977 1627.34 8.954 1629.729 C8.917 1633.445 8.871 1637.161 8.817 1640.877 C8.791 1642.755 8.772 1644.632 8.754 1646.51 C8.653 1652.558 8.415 1658.558 7.916 1664.588 C5.92 1689.266 6.04 1713.935 6.003 1738.68 C5.992 1744.652 5.972 1750.624 5.953 1756.596 C5.913 1768.716 5.881 1780.837 5.854 1792.957 C5.816 1810.181 5.764 1827.406 5.708 1844.63 C5.686 1851.487 5.665 1858.345 5.643 1865.202 C5.641 1865.959 5.638 1866.717 5.636 1867.497 C5.585 1883.683 5.538 1899.869 5.493 1916.055 C5.356 1964.143 5.21 2012.231 5.02 2060.319 C4.968 2073.387 4.923 2086.455 4.886 2099.523 C4.86 2108.426 4.828 2117.328 4.791 2126.231 C4.77 2131.293 4.751 2136.354 4.741 2141.416 C4.697 2163.115 4.211 2184.72 3.083 2206.391 C2.426 2219.072 2.112 2231.703 2.219 2244.402 C2.228 2246.496 2.236 2248.59 2.243 2250.684 C2.267 2256.462 2.306 2262.241 2.348 2268.019 C2.376 2272.001 2.401 2275.984 2.425 2279.966 C2.562 2303.014 2.734 2326.062 2.911 2349.11 C2.996 2360.074 3.078 2371.039 3.156 2382.004 C3.162 2382.768 3.167 2383.532 3.173 2384.319 C3.412 2417.817 3.431 2451.314 3.375 2484.812 C4.167 2485.112 4.96 2485.411 5.776 2485.72 C9.732 2487.383 11.505 2490.027 13.375 2493.812 C14.058 2498.141 13.738 2500.127 11.688 2504 C9.375 2506.812 9.375 2506.812 6.781 2508.376 C3.131 2512.073 3.599 2515.596 3.57 2520.613 C3.558 2521.1 3.558 2521.1 3.498 2523.561 C3.43 2526.645 3.399 2529.728 3.375 2532.812 C3.349 2534.736 3.322 2536.66 3.296 2538.583 C3.232 2544.389 3.235 2550.194 3.25 2556 C3.251 2557.03 3.252 2558.06 3.254 2559.121 C3.271 2571.544 3.399 2583.938 3.947 2596.351 C5.152 2623.892 5.477 2651.491 5.606 2679.057 C5.619 2681.387 5.636 2683.717 5.659 2686.048 C5.688 2689.297 5.698 2692.547 5.703 2695.797 C5.709 2696.283 5.709 2696.283 5.74 2698.745 C5.737 2699.636 5.734 2700.526 5.731 2701.444 C5.735 2702.22 5.739 2702.995 5.742 2703.794 C5.27 2706.391 4.478 2707.249 2.375 2708.812 C-1.312 2709.5 -1.312 2709.5 -4.625 2709.812 C-8.025 2706.265 -8.405 2702.536 -8.625 2697.812 C-8.468 2694.142 -8.084 2690.504 -7.702 2686.85 C-6.529 2674.28 -6.35 2661.824 -6.395 2649.207 C-6.396 2646.905 -6.396 2644.604 -6.396 2642.302 C-6.397 2637.503 -6.406 2632.703 -6.419 2627.904 C-6.436 2621.901 -6.44 2615.899 -6.439 2609.896 C-6.44 2586.368 -6.571 2562.847 -7.074 2539.324 C-7.084 2538.85 -7.084 2538.85 -7.133 2536.451 C-7.188 2533.793 -7.25 2531.134 -7.315 2528.475 C-7.331 2527.71 -7.347 2526.944 -7.364 2526.155 C-7.721 2512.83 -7.721 2512.83 -11.125 2509 C-11.95 2508.278 -12.775 2507.556 -13.625 2506.812 C-15.257 2501.916 -15.142 2496.923 -14.625 2491.812 C-12.817 2488.739 -11.765 2487.382 -8.625 2485.812 C-7.78 2452.624 -7.493 2419.44 -7.344 2386.242 C-7.339 2385.193 -7.334 2384.144 -7.329 2383.064 C-7.255 2366.605 -7.189 2350.146 -7.125 2333.688 C-7.061 2317.274 -6.994 2300.861 -6.92 2284.448 C-6.906 2281.253 -6.893 2278.058 -6.879 2274.862 C-6.787 2253.944 -6.668 2233.027 -6.336 2212.11 C-6.323 2211.315 -6.311 2210.52 -6.298 2209.7 C-6.171 2201.739 -6.029 2193.778 -5.867 2185.817 C-5.844 2184.554 -5.82 2183.291 -5.796 2181.989 C-5.753 2179.71 -5.706 2177.431 -5.651 2175.153 C-5.552 2169.705 -5.694 2164.358 -6.11 2158.924 C-6.85 2148.771 -6.765 2138.624 -6.754 2128.448 C-6.756 2126.208 -6.757 2123.968 -6.76 2121.728 C-6.764 2115.626 -6.762 2109.525 -6.759 2103.424 C-6.757 2097.554 -6.759 2091.684 -6.761 2085.813 C-6.766 2070.249 -6.76 2054.685 -6.753 2039.12 C-6.749 2031.768 -6.748 2024.416 -6.746 2017.064 C-6.727 1940.954 -6.635 1864.844 -6.291 1788.734 C-6.259 1781.6 -6.231 1774.465 -6.204 1767.33 C-6.034 1723.319 -5.511 1679.334 -4.488 1635.334 C-3.664 1599.896 -3.221 1564.468 -3.036 1529.022 C-2.996 1521.612 -2.947 1514.201 -2.898 1506.791 C-2.697 1476.465 -2.556 1446.139 -2.625 1415.812 C-3.615 1416.142 -4.605 1416.472 -5.625 1416.812 C-13.804 1417.655 -20.133 1415.964 -27.625 1412.812 C-28.615 1412.483 -29.605 1412.153 -30.625 1411.812 C-31.219 1412.358 -31.814 1412.903 -32.426 1413.465 C-37.705 1418.268 -43.093 1422.874 -48.641 1427.363 C-52.013 1430.131 -55.321 1432.964 -58.625 1435.812 C-62.974 1439.553 -67.335 1443.276 -71.75 1446.938 C-72.174 1447.289 -72.174 1447.289 -74.32 1449.07 C-76.625 1450.812 -76.625 1450.812 -78.879 1451.887 C-79.455 1452.192 -80.031 1452.498 -80.625 1452.812 C-82.008 1457.386 -81.323 1461.16 -80.625 1465.812 C-80.104 1474.517 -80.437 1483.249 -86.098 1490.305 C-90.568 1494.718 -95.166 1496.055 -101.375 1496.25 C-106.753 1496.073 -111.673 1495.039 -116.836 1493.566 C-124.818 1491.409 -124.818 1491.409 -128.375 1493.188 C-132.102 1496.005 -135.494 1499.251 -138.938 1502.402 C-141.505 1504.705 -144.13 1506.895 -146.812 1509.062 C-151.334 1512.721 -155.743 1516.489 -160.125 1520.312 C-165.281 1524.808 -170.5 1529.199 -175.816 1533.504 C-179.128 1536.226 -182.378 1539.014 -185.625 1541.812 C-190.614 1546.112 -195.667 1550.317 -200.781 1554.469 C-204.102 1557.206 -207.365 1560.004 -210.625 1562.812 C-215.614 1567.112 -220.667 1571.317 -225.781 1575.469 C-229.102 1578.206 -232.365 1581.004 -235.625 1583.812 C-240.563 1588.064 -245.548 1592.246 -250.605 1596.355 C-254.333 1599.388 -258.042 1602.444 -261.75 1605.5 C-262.112 1605.798 -262.112 1605.798 -263.942 1607.306 C-267.607 1610.325 -271.271 1613.345 -274.934 1616.367 C-282.468 1622.581 -290.017 1628.776 -297.61 1634.918 C-301.02 1637.68 -304.411 1640.462 -307.773 1643.281 C-317.044 1651.039 -326.585 1658.235 -336.432 1665.242 C-345.51 1671.742 -354.372 1678.451 -362.833 1685.739 C-366.679 1689.045 -370.619 1692.203 -374.625 1695.312 C-379.863 1699.383 -384.963 1703.586 -390.007 1707.894 C-393.998 1711.298 -398.059 1714.596 -402.168 1717.855 C-406.693 1721.46 -411.153 1725.143 -415.625 1728.812 C-417.458 1730.313 -419.291 1731.813 -421.125 1733.312 C-422.033 1734.055 -422.94 1734.797 -423.875 1735.562 C-426.625 1737.812 -429.375 1740.062 -432.125 1742.312 C-433.04 1743.061 -433.955 1743.81 -434.898 1744.582 C-436.653 1746.017 -438.408 1747.452 -440.164 1748.887 C-445.828 1753.516 -451.479 1758.161 -457.125 1762.812 C-463.614 1768.159 -470.113 1773.493 -476.625 1778.812 C-478.458 1780.312 -480.292 1781.812 -482.125 1783.312 C-489.458 1789.312 -496.792 1795.312 -504.125 1801.312 C-505.04 1802.061 -505.955 1802.81 -506.898 1803.582 C-508.653 1805.017 -510.408 1806.452 -512.164 1807.887 C-517.828 1812.516 -523.479 1817.161 -529.125 1821.812 C-535.614 1827.159 -542.113 1832.493 -548.625 1837.812 C-550.458 1839.312 -552.292 1840.812 -554.125 1842.312 C-561.458 1848.312 -568.792 1854.312 -576.125 1860.312 C-577.04 1861.061 -577.955 1861.81 -578.898 1862.582 C-580.653 1864.017 -582.408 1865.452 -584.164 1866.887 C-589.828 1871.516 -595.479 1876.161 -601.125 1880.812 C-607.614 1886.159 -614.113 1891.493 -620.625 1896.812 C-622.458 1898.312 -624.292 1899.812 -626.125 1901.312 C-692.125 1955.312 -692.125 1955.312 -694.895 1957.578 C-696.663 1959.025 -698.431 1960.473 -700.199 1961.922 C-701.986 1963.385 -703.774 1964.848 -705.562 1966.309 C-707.816 1968.151 -710.065 1969.998 -712.312 1971.848 C-720.248 1978.36 -728.307 1984.653 -736.547 1990.773 C-742.974 1995.549 -749.314 2000.438 -755.665 2005.313 C-757.456 2006.684 -759.255 2008.043 -761.059 2009.398 C-768.921 2015.33 -776.346 2021.673 -783.743 2028.169 C-786.786 2030.826 -789.863 2033.442 -792.938 2036.062 C-796.949 2039.487 -800.912 2042.95 -804.812 2046.5 C-808.062 2049.454 -811.384 2052.257 -814.812 2055 C-821.506 2060.414 -827.771 2066.292 -833.984 2072.248 C-835.489 2073.683 -837.025 2075.087 -838.562 2076.488 C-840.625 2078.812 -840.625 2078.812 -840.75 2082.75 C-840.728 2083.092 -840.728 2083.092 -840.617 2084.82 C-840.633 2088.842 -842.65 2091.725 -845.25 2094.625 C-849.728 2096.864 -854.707 2097.337 -859.523 2096.02 C-862.625 2095.812 -862.625 2095.812 -865.703 2097.84 C-866.776 2098.793 -867.832 2099.764 -868.875 2100.75 C-870.022 2101.778 -871.171 2102.806 -872.32 2103.832 C-872.601 2104.087 -872.601 2104.087 -874.021 2105.377 C-876.194 2107.322 -878.459 2109.134 -880.75 2110.938 C-888.793 2117.328 -896.706 2123.795 -904.309 2130.707 C-908.749 2134.743 -913.281 2138.67 -917.848 2142.562 C-923.406 2147.303 -928.934 2152.053 -934.312 2157 C-938.699 2161.026 -943.242 2164.794 -947.875 2168.531 C-950.706 2170.88 -953.419 2173.322 -956.125 2175.812 C-960.595 2179.926 -965.215 2183.783 -969.941 2187.598 C-972.572 2189.769 -975.104 2192.015 -977.625 2194.312 C-981.925 2198.231 -986.384 2201.904 -990.906 2205.562 C-993.546 2207.748 -996.092 2210.004 -998.625 2212.312 C-1002.845 2216.154 -1007.205 2219.774 -1011.641 2223.363 C-1015.013 2226.131 -1018.322 2228.964 -1021.625 2231.812 C-1027.546 2236.913 -1033.541 2241.906 -1039.625 2246.812 C-1040.477 2247.556 -1041.329 2248.3 -1042.207 2249.066 C-1044.625 2250.812 -1044.625 2250.812 -1048.25 2250.75 C-1051.625 2249.812 -1051.625 2249.812 -1053.625 2248.625 C-1054.625 2246.812 -1054.625 2246.812 -1054.625 2243.938 C-1053.403 2240.119 -1051.624 2238.293 -1048.625 2235.812 C-1047.921 2235.216 -1047.217 2234.619 -1046.492 2234.004 C-1042.175 2230.443 -1037.772 2227.209 -1033.062 2224.188 C-1024.724 2218.732 -1017.225 2212.237 -1009.625 2205.812 C-1009.014 2205.297 -1008.403 2204.781 -1007.774 2204.25 C-1005.566 2202.385 -1003.359 2200.518 -1001.156 2198.645 C-996.962 2195.082 -992.706 2191.599 -988.438 2188.125 C-985.307 2185.551 -982.213 2182.937 -979.125 2180.312 C-974.275 2176.191 -969.373 2172.143 -964.438 2168.125 C-961.307 2165.551 -958.213 2162.937 -955.125 2160.312 C-951.156 2156.94 -947.165 2153.601 -943.125 2150.312 C-937.452 2145.692 -931.871 2140.967 -926.295 2136.229 C-924.621 2134.809 -922.942 2133.396 -921.262 2131.984 C-913.429 2125.4 -905.745 2118.684 -898.281 2111.68 C-882.083 2096.491 -882.083 2096.491 -874.684 2091.504 C-872.263 2089.818 -870.788 2088.471 -870.07 2085.57 C-869.813 2083.845 -869.562 2082.118 -869.316 2080.391 C-868.113 2075.903 -865.011 2072.871 -861.625 2069.812 C-859.625 2068.812 -859.625 2068.812 -857.48 2069.102 C-852.543 2069.723 -849.622 2069.469 -845.395 2066.684 C-842.552 2064.335 -839.867 2061.82 -837.196 2059.279 C-834.893 2057.129 -832.454 2055.163 -830 2053.188 C-829.551 2052.822 -829.551 2052.822 -827.281 2050.973 C-826.843 2050.616 -826.843 2050.616 -824.625 2048.812 C-818.112 2043.495 -811.614 2038.159 -805.125 2032.812 C-798.636 2027.466 -792.136 2022.132 -785.625 2016.812 C-784.783 2016.123 -783.941 2015.433 -783.074 2014.723 C-781.278 2013.251 -779.481 2011.781 -777.684 2010.312 C-776.073 2008.996 -774.463 2007.68 -772.856 2006.359 C-765.249 2000.111 -757.584 1993.962 -749.75 1988 C-749.391 1987.727 -749.391 1987.727 -747.575 1986.344 C-746.205 1985.3 -744.835 1984.257 -743.465 1983.214 C-736.542 1977.942 -730.266 1972.531 -724.176 1966.309 C-720.834 1963.038 -717.259 1960.144 -713.609 1957.227 C-710.222 1954.487 -706.922 1951.659 -703.625 1948.812 C-697.704 1943.712 -691.695 1938.734 -685.625 1933.812 C-677.01 1926.782 -668.428 1919.714 -659.847 1912.643 C-655.57 1909.119 -651.292 1905.597 -647.015 1902.075 C-643.397 1899.096 -639.78 1896.117 -636.164 1893.137 C-628.329 1886.681 -620.487 1880.235 -612.625 1873.812 C-610.792 1872.313 -608.958 1870.813 -607.125 1869.312 C-599.792 1863.312 -592.458 1857.312 -585.125 1851.312 C-584.21 1850.564 -583.295 1849.815 -582.352 1849.043 C-580.597 1847.608 -578.842 1846.173 -577.086 1844.738 C-572.93 1841.342 -568.779 1837.942 -564.645 1834.52 C-557.968 1828.997 -551.282 1823.502 -544.438 1818.188 C-539.018 1813.977 -533.788 1809.58 -528.6 1805.088 C-524.491 1801.536 -520.307 1798.103 -516.047 1794.734 C-511.528 1791.149 -507.084 1787.471 -502.625 1783.812 C-500.792 1782.312 -498.959 1780.812 -497.125 1779.312 C-494.433 1777.11 -491.741 1774.908 -489.051 1772.703 C-482.893 1767.659 -476.719 1762.637 -470.54 1757.619 C-464.89 1753.031 -459.254 1748.426 -453.625 1743.812 C-446.607 1738.061 -439.573 1732.33 -432.529 1726.61 C-428.721 1723.518 -424.919 1720.421 -421.125 1717.312 C-413.278 1710.885 -405.397 1704.499 -397.522 1698.105 C-384.147 1687.245 -384.147 1687.245 -378.125 1682.312 C-368.117 1674.12 -358.109 1665.937 -347.915 1657.977 C-342.749 1653.934 -337.665 1649.794 -332.584 1645.646 C-328.322 1642.174 -324.024 1638.754 -319.688 1635.375 C-314.427 1631.273 -309.262 1627.067 -304.125 1622.812 C-298.436 1618.102 -292.697 1613.473 -286.872 1608.932 C-281.629 1604.838 -276.466 1600.646 -271.311 1596.442 C-267.704 1593.5 -264.085 1590.578 -260.438 1587.688 C-256.054 1584.194 -251.78 1580.58 -247.511 1576.949 C-244.079 1574.032 -240.619 1571.155 -237.125 1568.312 C-233.085 1565.024 -229.094 1561.685 -225.125 1558.312 C-220.275 1554.191 -215.373 1550.143 -210.438 1546.125 C-207.307 1543.551 -204.213 1540.937 -201.125 1538.312 C-196.275 1534.191 -191.373 1530.143 -186.438 1526.125 C-182.744 1523.088 -179.102 1519.993 -175.459 1516.896 C-172.065 1514.017 -168.642 1511.18 -165.188 1508.375 C-155.816 1500.743 -146.689 1492.807 -137.625 1484.812 C-137.934 1483.554 -138.244 1482.296 -138.562 1481 C-140.813 1470.611 -141.576 1462.672 -136.145 1453.242 C-131.349 1445.89 -125.498 1439.7 -116.625 1437.812 C-109.801 1437.01 -102.188 1439.179 -96.633 1443.285 C-94.473 1444.875 -93.319 1445.591 -90.625 1445.812 C-81.284 1441.641 -73.347 1434.382 -65.625 1427.812 C-63.795 1426.309 -61.961 1424.809 -60.125 1423.312 C-57.304 1421.005 -54.483 1418.696 -51.664 1416.387 C-50.702 1415.599 -49.741 1414.811 -48.75 1414 C-48.318 1413.646 -48.318 1413.646 -46.133 1411.855 C-43.642 1409.826 -41.137 1407.816 -38.625 1405.812 C-38.934 1405.049 -39.244 1404.286 -39.562 1403.5 C-43.623 1393.23 -41.437 1383.189 -38.625 1372.812 C-46.529 1365.171 -54.607 1358.447 -63.644 1352.202 C-67.416 1349.556 -71.109 1346.803 -74.812 1344.062 C-75.614 1343.47 -76.416 1342.878 -77.242 1342.268 C-79.704 1340.451 -82.165 1338.632 -84.625 1336.812 C-93.928 1329.936 -103.237 1323.073 -112.625 1316.312 C-122.818 1308.972 -132.919 1301.508 -143.021 1294.042 C-152.263 1287.213 -161.529 1280.42 -170.856 1273.707 C-177.111 1269.198 -183.318 1264.626 -189.52 1260.043 C-194.864 1256.098 -200.234 1252.193 -205.625 1248.312 C-215.819 1240.972 -225.919 1233.508 -236.021 1226.042 C-245.263 1219.213 -254.529 1212.42 -263.856 1205.707 C-270.111 1201.198 -276.318 1196.626 -282.52 1192.043 C-287.864 1188.098 -293.234 1184.193 -298.625 1180.312 C-308.819 1172.972 -318.919 1165.508 -329.021 1158.042 C-338.318 1151.172 -347.642 1144.345 -357.027 1137.595 C-364.639 1132.106 -372.14 1126.472 -379.625 1120.812 C-379.891 1120.954 -379.891 1120.954 -381.237 1121.67 C-381.944 1122.037 -382.651 1122.403 -383.379 1122.781 C-383.727 1122.964 -383.727 1122.964 -385.49 1123.889 C-389.803 1125.755 -393.58 1125.464 -397.918 1124.082 C-403.442 1121.815 -408.99 1119.013 -411.805 1113.504 C-412.733 1110.457 -412.673 1108.34 -412.312 1105.188 C-412.263 1104.717 -412.263 1104.717 -412.012 1102.336 C-411.625 1099.812 -411.625 1099.812 -410.625 1096.812 C-411.16 1096.57 -411.695 1096.328 -412.246 1096.078 C-415.244 1094.483 -417.944 1092.55 -420.688 1090.562 C-421.292 1090.128 -421.896 1089.693 -422.519 1089.245 C-430.113 1083.766 -437.639 1078.194 -445.169 1072.627 C-449.151 1069.685 -453.138 1066.749 -457.125 1063.812 C-461.936 1060.269 -466.746 1056.724 -471.551 1053.172 C-479.673 1047.17 -487.819 1041.21 -496.051 1035.359 C-500.174 1032.427 -504.275 1029.464 -508.375 1026.5 C-509.133 1025.952 -509.891 1025.404 -510.672 1024.84 C-512.218 1023.722 -513.764 1022.604 -515.311 1021.486 C-519.081 1018.76 -522.853 1016.036 -526.625 1013.312 C-528.125 1012.229 -529.625 1011.146 -531.125 1010.062 C-531.867 1009.526 -532.61 1008.99 -533.375 1008.438 C-607.625 954.813 -681.875 901.188 -758.375 845.937 C-759.874 844.855 -761.374 843.772 -762.873 842.69 C-766.637 839.972 -770.4 837.252 -774.16 834.527 C-781.452 829.247 -788.761 823.993 -796.125 818.812 C-801.965 814.704 -807.776 810.559 -813.562 806.375 C-814.31 805.835 -815.057 805.295 -815.826 804.738 C-819.586 802.018 -823.342 799.291 -827.094 796.559 C-837.02 789.341 -847.071 782.335 -857.225 775.442 C-869.409 767.17 -881.527 758.815 -893.537 750.292 C-895.632 748.807 -897.731 747.329 -899.832 745.852 C-909.396 739.125 -918.895 732.31 -928.363 725.449 C-930.604 723.827 -932.849 722.21 -935.094 720.594 C-942.948 714.938 -950.773 709.244 -958.562 703.5 C-959.362 702.913 -960.161 702.327 -960.985 701.722 C-964.364 699.24 -967.729 696.751 -971.02 694.152 C-976.228 690.112 -978.838 688.28 -985.625 688.812 C-988.725 687.058 -991.113 685.324 -993.625 682.812 C-993.75 679.188 -993.75 679.188 -993.625 675.812 C-994.141 675.58 -994.656 675.348 -995.188 675.109 C-998.507 673.343 -1001.544 671.206 -1004.625 669.062 C-1005.319 668.582 -1006.013 668.102 -1006.729 667.607 C-1009.03 666.013 -1011.328 664.413 -1013.625 662.812 C-1014.427 662.254 -1015.228 661.695 -1016.054 661.12 C-1026.913 653.545 -1037.738 645.923 -1048.548 638.28 C-1052.073 635.789 -1055.599 633.301 -1059.125 630.812 C-1060.542 629.813 -1061.958 628.813 -1063.375 627.812 C-1063.726 627.565 -1063.726 627.565 -1065.5 626.312 C-1067.625 624.812 -1069.75 623.312 -1071.875 621.812 C-1072.576 621.318 -1073.277 620.823 -1074 620.313 C-1075.417 619.312 -1076.835 618.311 -1078.252 617.31 C-1081.779 614.82 -1085.308 612.331 -1088.84 609.848 C-1098.382 603.133 -1107.859 596.335 -1117.306 589.489 C-1119.717 587.746 -1122.133 586.011 -1124.551 584.277 C-1124.955 583.987 -1124.955 583.987 -1126.998 582.519 C-1128.535 581.416 -1130.073 580.313 -1131.613 579.213 C-1143.461 570.692 -1143.461 570.692 -1144.125 567.125 C-1143.625 564.812 -1143.625 564.812 -1141.625 562.812 C-1137.788 563.143 -1135.254 564.445 -1132.105 566.586 C-1131.257 567.158 -1130.408 567.729 -1129.533 568.318 C-1128.635 568.935 -1127.737 569.552 -1126.812 570.188 C-1126.344 570.505 -1126.344 570.505 -1123.973 572.111 C-1121.185 574.004 -1118.404 575.907 -1115.625 577.812 C-1114.214 578.774 -1112.802 579.735 -1111.391 580.695 C-1103.396 586.151 -1095.47 591.708 -1087.545 597.265 C-1081.021 601.84 -1074.482 606.392 -1067.938 610.938 C-1059.149 617.045 -1050.388 623.192 -1041.653 629.377 C-1038.146 631.859 -1034.635 634.335 -1031.125 636.812 C-1029.708 637.812 -1028.292 638.812 -1026.875 639.812 C-1026.524 640.06 -1026.524 640.06 -1024.75 641.312 C-1018.375 645.812 -1018.375 645.812 -1016.249 647.315 C-1014.839 648.309 -1013.427 649.3 -1012.013 650.288 C-1008.342 652.859 -1004.727 655.48 -1001.164 658.199 C-987.87 668.214 -987.87 668.214 -979.727 667.723 C-977.625 667.812 -977.625 667.812 -975.961 668.809 C-974.625 670.812 -974.625 670.812 -973.977 674.609 C-972.919 679.329 -970.447 680.969 -966.508 683.527 C-966.094 683.781 -966.094 683.781 -964 685.062 C-962.256 686.189 -960.514 687.32 -958.773 688.453 C-957.902 689.015 -957.03 689.576 -956.132 690.154 C-952.507 692.552 -949.067 695.162 -945.625 697.812 C-939.914 702.172 -934.078 706.29 -928.125 710.312 C-922.111 714.377 -916.215 718.542 -910.438 722.938 C-904.045 727.797 -897.513 732.393 -890.875 736.91 C-886.179 740.107 -881.526 743.363 -876.875 746.625 C-876.456 746.919 -876.456 746.919 -874.333 748.407 C-872.622 749.608 -870.91 750.809 -869.198 752.01 C-866.648 753.797 -864.094 755.579 -861.539 757.359 C-851.236 764.544 -841.007 771.824 -830.843 779.204 C-827.108 781.913 -823.366 784.612 -819.625 787.312 C-818.125 788.396 -816.625 789.479 -815.125 790.562 C-814.382 791.099 -813.64 791.635 -812.875 792.188 C-810.625 793.812 -808.375 795.438 -806.125 797.062 C-805.383 797.599 -804.64 798.135 -803.875 798.687 C-802.374 799.771 -800.874 800.855 -799.373 801.94 C-795.637 804.638 -791.9 807.335 -788.16 810.027 C-779.646 816.16 -771.173 822.345 -762.733 828.58 C-755.148 834.177 -747.509 839.697 -739.859 845.204 C-735.36 848.444 -730.867 851.693 -726.373 854.94 C-722.637 857.638 -718.9 860.335 -715.16 863.027 C-706.646 869.16 -698.173 875.345 -689.733 881.58 C-682.148 887.177 -674.509 892.697 -666.859 898.204 C-662.36 901.444 -657.867 904.693 -653.373 907.94 C-649.637 910.638 -645.9 913.335 -642.16 916.027 C-633.645 922.161 -625.17 928.345 -616.731 934.582 C-611.387 938.527 -606.016 942.432 -600.625 946.312 C-594.428 950.773 -588.265 955.275 -582.125 959.812 C-573.008 966.548 -563.826 973.191 -554.625 979.812 C-543.842 987.573 -533.098 995.381 -522.414 1003.277 C-519.228 1005.632 -516.035 1007.978 -512.836 1010.316 C-501.168 1018.855 -489.719 1027.646 -478.363 1036.595 C-469.751 1043.38 -461.084 1050.006 -452.087 1056.276 C-446.724 1060.017 -441.444 1063.859 -436.188 1067.75 C-435.404 1068.328 -434.621 1068.905 -433.814 1069.5 C-430.571 1071.893 -427.328 1074.288 -424.098 1076.699 C-421.634 1078.537 -419.161 1080.363 -416.688 1082.188 C-415.936 1082.753 -415.185 1083.319 -414.41 1083.902 C-413.709 1084.417 -413.008 1084.931 -412.285 1085.461 C-411.673 1085.916 -411.061 1086.372 -410.43 1086.841 C-408.625 1087.812 -408.625 1087.812 -404.625 1087.812 C-404.048 1087.359 -403.47 1086.905 -402.875 1086.438 C-397.96 1082.888 -391.529 1082.266 -385.625 1082.812 C-380.955 1084.552 -378.363 1086.654 -375.625 1090.812 C-374.59 1093.921 -374.686 1095.257 -375.16 1098.684 C-375.806 1103.534 -376.196 1108.105 -374.625 1112.812 C-370.684 1117.915 -364.675 1120.982 -359.212 1124.221 C-354.987 1126.82 -351.08 1129.823 -347.125 1132.812 C-345.534 1133.991 -343.942 1135.166 -342.348 1136.34 C-341.564 1136.917 -340.78 1137.495 -339.973 1138.089 C-333.223 1143.042 -326.42 1147.922 -319.625 1152.812 C-309.619 1160.014 -299.646 1167.255 -289.731 1174.582 C-284.387 1178.527 -279.016 1182.432 -273.625 1186.312 C-266.623 1191.353 -259.669 1196.455 -252.73 1201.582 C-247.386 1205.527 -242.016 1209.432 -236.625 1213.312 C-229.623 1218.353 -222.669 1223.455 -215.73 1228.582 C-210.386 1232.527 -205.016 1236.432 -199.625 1240.312 C-192.623 1245.353 -185.669 1250.455 -178.73 1255.582 C-173.386 1259.527 -168.016 1263.432 -162.625 1267.312 C-156.428 1271.773 -150.265 1276.275 -144.125 1280.812 C-135.008 1287.548 -125.826 1294.191 -116.625 1300.812 C-106.619 1308.014 -96.646 1315.255 -86.731 1322.582 C-80.655 1327.066 -74.541 1331.494 -68.412 1335.905 C-63.622 1339.357 -58.858 1342.842 -54.11 1346.351 C-51.699 1348.133 -49.283 1349.909 -46.867 1351.684 C-44.355 1353.53 -41.858 1355.391 -39.383 1357.285 C-38.514 1357.934 -37.645 1358.582 -36.75 1359.25 C-36.401 1359.517 -36.401 1359.517 -34.633 1360.871 C-31.86 1362.171 -30.505 1361.768 -27.625 1360.812 C-25.105 1359.434 -25.105 1359.434 -22.625 1357.812 C-16.149 1353.731 -9.811 1350.465 -2.625 1347.812 C-1.003 1337.461 -0.321 1327.357 -0.306 1316.881 C-0.297 1315.352 -0.287 1313.823 -0.276 1312.293 C-0.249 1308.193 -0.233 1304.093 -0.22 1299.993 C-0.205 1295.688 -0.178 1291.384 -0.152 1287.08 C-0.106 1278.953 -0.069 1270.825 -0.036 1262.698 C0.003 1253.435 0.052 1244.173 0.102 1234.91 C0.205 1215.878 0.295 1196.845 0.375 1177.812 C-0.56 1177.681 -1.494 1177.55 -2.457 1177.414 C-6.324 1176.68 -7.887 1175.624 -10.625 1172.812 C-14.294 1166.26 -15.113 1159.473 -14.125 1152.062 C-11.307 1145.957 -6.735 1143.179 -0.625 1140.812 C0.223 1122.659 0.514 1104.554 0.465 1086.383 C0.461 1084.277 0.459 1082.171 0.456 1080.065 C0.443 1069.647 0.411 1059.23 0.375 1048.812 C0.372 1047.93 0.369 1047.047 0.366 1046.137 C0.262 1016.258 0.12 986.38 -0.029 956.501 C-0.063 949.606 -0.097 942.711 -0.13 935.816 C-0.274 906.511 -0.422 877.205 -0.573 847.899 C-0.613 840.24 -0.652 832.582 -0.691 824.923 C-0.806 802.38 -0.924 779.836 -1.05 757.293 C-1.055 756.395 -1.061 755.496 -1.066 754.571 C-1.071 753.679 -1.076 752.787 -1.081 751.868 C-1.115 745.741 -1.147 739.614 -1.179 733.487 C-1.348 700.971 -1.564 668.464 -2.259 635.955 C-2.689 615.724 -2.895 595.493 -3.071 575.258 C-3.164 564.481 -3.27 553.703 -3.375 542.926 C-3.385 541.854 -3.396 540.781 -3.406 539.677 C-3.601 519.615 -3.826 499.553 -4.095 479.492 C-4.124 477.296 -4.152 475.1 -4.179 472.904 C-4.23 468.83 -4.287 464.757 -4.344 460.684 C-4.357 459.566 -4.371 458.448 -4.385 457.296 C-4.47 451.564 -4.616 445.841 -4.854 440.113 C-5.6 422.11 -5.835 404.128 -5.928 386.112 C-5.951 381.919 -5.978 377.727 -6.005 373.534 C-6.054 365.491 -6.1 357.448 -6.143 349.405 C-6.177 342.947 -6.214 336.489 -6.252 330.032 C-6.584 272.958 -6.776 215.887 -6.625 158.812 C-7.615 158.483 -8.605 158.152 -9.625 157.812 C-11.411 153.77 -12.186 150.208 -11.625 145.812 C-9.75 142.938 -9.75 142.938 -7.625 140.812 C-6.965 140.812 -6.305 140.812 -5.625 140.812 C-5.628 140.104 -5.631 139.396 -5.633 138.666 C-5.7 121.44 -5.749 104.215 -5.78 86.989 C-5.796 78.659 -5.817 70.329 -5.851 61.999 C-5.881 54.74 -5.901 47.481 -5.907 40.221 C-5.911 36.376 -5.92 32.532 -5.942 28.687 C-5.963 25.069 -5.969 21.453 -5.964 17.835 C-5.966 15.871 -5.982 13.907 -5.998 11.943 C-5.994 10.778 -5.99 9.613 -5.986 8.412 C-5.989 7.397 -5.991 6.382 -5.994 5.337 C-5.625 2.812 -5.625 2.812 -4.267 0.951 C-2.625 -0.188 -2.625 -0.188 0 0 Z " fill="#191817" transform="translate(2290.625,895.1875)"/>
<path d="M0 0 C8.07 4.263 12.048 12.011 14.668 20.352 C26.309 69.574 4.256 133.169 -21.062 175.335 C-34.53 196.707 -52.78 213.619 -76.957 221.539 C-91.956 224.852 -108.527 224.235 -121.875 216.07 C-129.338 210.85 -134.251 205.611 -138.629 197.574 C-140.332 195.352 -140.332 195.352 -142.762 194.297 C-146.329 194.373 -147.246 195.629 -149.707 198.164 C-166.649 214.302 -187.876 223.329 -211.332 223.352 C-224.128 222.556 -235.891 218.897 -245.172 209.812 C-253.109 200.77 -255.688 191.526 -255.77 179.727 C-255.802 178.945 -255.835 178.164 -255.869 177.359 C-256.042 156.925 -247.421 136.152 -241.372 116.854 C-240.246 113.253 -239.131 109.648 -238.015 106.044 C-234.8 95.669 -231.566 85.3 -228.327 74.933 C-226.971 70.593 -225.622 66.25 -224.279 61.906 C-223.602 59.728 -222.915 57.553 -222.228 55.378 C-221.83 54.095 -221.432 52.811 -221.035 51.527 C-220.702 50.464 -220.368 49.401 -220.024 48.306 C-219.288 45.164 -219.016 42.565 -219.332 39.352 C-222.278 36.897 -225.134 35.438 -228.645 33.914 C-231.332 32.352 -231.332 32.352 -232.121 30.086 C-232.372 26.832 -231.702 25.01 -230.395 22.039 C-230.014 21.156 -229.634 20.273 -229.242 19.363 C-228.942 18.699 -228.641 18.036 -228.332 17.352 C-227.584 17.262 -226.837 17.172 -226.067 17.08 C-208.447 14.92 -191.52 11.845 -174.332 7.352 C-171.667 6.678 -169 6.015 -166.332 5.352 C-167.001 12.403 -169.201 18.959 -171.285 25.703 C-171.698 27.052 -172.11 28.401 -172.522 29.749 C-173.406 32.644 -174.294 35.538 -175.185 38.432 C-176.596 43.02 -178 47.611 -179.402 52.202 C-183.607 65.965 -187.831 79.723 -192.059 93.479 C-193.985 99.745 -195.906 106.013 -197.824 112.281 C-198.963 116.002 -200.104 119.721 -201.252 123.439 C-216.555 172.99 -216.555 172.99 -211.434 186.344 C-208.713 191.302 -204.865 193.744 -199.707 195.789 C-189.194 197.765 -178.51 195.492 -169.703 189.59 C-156.853 179.842 -150.213 165.716 -145.301 150.672 C-145.011 149.793 -144.721 148.915 -144.423 148.01 C-139.841 133.951 -135.621 119.776 -131.344 105.622 C-129.751 100.349 -128.151 95.077 -126.55 89.805 C-122.282 75.743 -118.016 61.68 -113.823 47.595 C-112.536 43.27 -111.241 38.947 -109.946 34.624 C-109.103 31.798 -108.273 28.968 -107.443 26.137 C-106.943 24.466 -106.443 22.795 -105.941 21.125 C-105.837 20.76 -105.837 20.76 -105.307 18.914 C-103.515 13.026 -101.522 9.558 -96.076 6.557 C-92.075 5.269 -88.58 4.965 -84.43 5.059 C-83.707 5.063 -82.985 5.067 -82.24 5.071 C-79.958 5.088 -77.677 5.126 -75.395 5.164 C-73.837 5.179 -72.279 5.193 -70.721 5.205 C-66.924 5.238 -63.128 5.29 -59.332 5.352 C-61.496 14.483 -64.109 23.447 -66.875 32.41 C-67.321 33.863 -67.766 35.316 -68.212 36.769 C-69.156 39.848 -70.101 42.927 -71.048 46.005 C-72.535 50.837 -74.016 55.671 -75.496 60.505 C-75.996 62.138 -76.495 63.77 -76.995 65.402 C-77.243 66.211 -77.49 67.02 -77.745 67.853 C-78.991 71.922 -80.238 75.991 -81.485 80.061 C-82.205 82.41 -82.925 84.76 -83.645 87.11 C-84.093 88.571 -84.541 90.033 -84.989 91.494 C-87.464 99.572 -89.933 107.651 -92.389 115.735 C-93.048 117.899 -93.709 120.063 -94.372 122.225 C-97.585 132.699 -100.648 143.174 -103.207 153.828 C-103.411 154.676 -103.615 155.524 -103.826 156.397 C-106.533 168.039 -108.092 180.12 -102.645 191.227 C-99.29 195.76 -95.698 197.563 -90.332 199.352 C-78.238 200.57 -68.579 197.495 -59.148 189.879 C-58.549 189.375 -57.95 188.871 -57.332 188.352 C-56.541 187.759 -55.749 187.166 -54.934 186.555 C-25.183 161.361 -9.318 108.341 -5.332 71.352 C-5.135 68.121 -5.057 64.9 -5.02 61.664 C-4.991 60.823 -4.962 59.982 -4.932 59.115 C-4.893 55.328 -4.874 53.061 -6.961 49.828 C-9.915 47.988 -12.123 47.713 -15.582 47.414 C-22.292 46.54 -27.143 45.006 -31.668 39.82 C-35.594 33.918 -35.941 26.686 -34.77 19.852 C-32.49 11.28 -27.953 4.809 -20.332 0.352 C-14.311 -1.655 -6.163 -1.714 0 0 Z " fill="#191817" transform="translate(1527.33203125,2170.6484375)"/>
<path d="M0 0 C18.81 0 37.62 0 57 0 C53.625 13.499 53.625 13.499 51.989 18.829 C51.804 19.435 51.804 19.435 50.867 22.499 C50.468 23.796 50.068 25.093 49.668 26.391 C49.24 27.788 48.811 29.186 48.384 30.584 C47.468 33.574 46.551 36.563 45.632 39.552 C44.157 44.349 42.686 49.147 41.216 53.945 C39.161 60.652 37.105 67.358 35.047 74.064 C30.62 88.495 26.207 102.93 21.796 117.366 C21.124 119.567 20.451 121.768 19.778 123.97 C12.487 147.828 5.219 171.693 -2.034 195.563 C-2.797 198.074 -3.56 200.585 -4.323 203.096 C-7.335 213.004 -10.342 222.914 -13.342 232.826 C-14.008 235.026 -14.674 237.226 -15.341 239.425 C-16.41 242.954 -17.476 246.485 -18.54 250.015 C-19.119 251.935 -19.701 253.853 -20.282 255.772 C-20.627 256.918 -20.972 258.065 -21.327 259.246 C-21.477 259.744 -21.477 259.744 -22.238 262.264 C-23.624 267.24 -24.115 271.638 -24.062 276.812 C-24.053 277.974 -24.044 279.135 -24.035 280.332 C-24.024 281.212 -24.012 282.093 -24 283 C-13.048 280.59 -8.204 272.644 -2 264 C1.875 264.55 3.596 266.276 6.25 269.062 C6.956 269.796 7.663 270.529 8.391 271.285 C8.922 271.851 9.453 272.417 10 273 C3.035 288.237 -10.584 300.186 -26.062 306.188 C-35.32 308.748 -44.235 309.173 -53 305 C-58.273 300.873 -59.933 296.201 -62 290 C-62.655 290.508 -63.31 291.016 -63.984 291.539 C-80.865 304.271 -98.765 310.103 -119.875 307.375 C-129.558 305.593 -139.157 301.155 -145 293 C-160.34 268.148 -156.489 236.413 -150.083 209.165 C-139.39 165.677 -113.724 122.891 -74.862 99.091 C-70.083 96.29 -65.153 94.017 -60 92 C-59.147 91.661 -58.293 91.322 -57.414 90.973 C-46.202 87.229 -30.836 87.001 -20 92 C-17.57 93.233 -15.31 94.544 -13 96 C-12.875 95.39 -12.875 95.39 -12.245 92.303 C-10.874 86.145 -8.972 80.169 -7.086 74.152 C-6.317 71.666 -5.549 69.18 -4.781 66.693 C-3.578 62.805 -2.37 58.919 -1.153 55.035 C0.027 51.265 1.189 47.49 2.352 43.715 C2.534 43.137 2.534 43.137 3.459 40.214 C5.283 34.254 6.444 29.236 6 23 C5.278 22.732 4.556 22.464 3.812 22.188 C1.024 21.01 -1.441 19.609 -4 18 C-3.456 11.143 -2.307 6.92 0 0 Z M-70.079 126.873 C-74.618 132.583 -78.407 138.657 -82 145 C-82.621 146.045 -83.243 147.091 -83.883 148.168 C-99.043 174.836 -107.951 205.873 -113 236 C-113.191 237.082 -113.382 238.163 -113.578 239.277 C-114.182 244.604 -114.265 249.893 -114.312 255.25 C-114.342 256.319 -114.371 257.387 -114.4 258.488 C-114.461 266.222 -113.728 274.598 -108.517 280.751 C-103.907 284.761 -99.634 285.421 -93.75 285.336 C-85.086 284.278 -77.671 278.316 -72 272 C-61.972 258.673 -57.421 243.621 -52.684 227.855 C-52.185 226.21 -51.686 224.565 -51.187 222.919 C-49.868 218.57 -48.556 214.219 -47.245 209.868 C-45.894 205.383 -44.538 200.898 -43.184 196.414 C-41.581 191.109 -39.98 185.804 -38.381 180.498 C-35.536 171.06 -32.666 161.632 -29.754 152.215 C-28.918 149.495 -28.083 146.775 -27.249 144.054 C-26.756 142.456 -26.259 140.859 -25.758 139.263 C-20.146 121.392 -20.146 121.392 -23.188 114.188 C-26.451 110.249 -29.7 107.412 -34.91 106.762 C-49.635 106.254 -61.165 116.075 -70.079 126.873 Z " fill="#191817" transform="translate(2781,1300)"/>
<path d="M0 0 C7.219 5.889 11.585 13.424 13.035 22.66 C13.673 30.87 13.102 38.626 11.469 46.66 C11.382 47.09 11.382 47.09 10.941 49.263 C8.577 60.404 5.153 71.229 1.785 82.098 C1.083 84.389 0.383 86.68 -0.317 88.971 C-1.777 93.751 -3.242 98.529 -4.71 103.306 C-8.101 114.35 -11.442 125.409 -14.781 136.469 C-15.822 139.914 -16.866 143.357 -17.911 146.801 C-18.552 148.916 -19.192 151.032 -19.832 153.148 C-20.121 154.098 -20.41 155.048 -20.707 156.027 C-25.252 171.081 -25.252 171.081 -25.215 176.973 C-25.22 177.794 -25.225 178.615 -25.23 179.461 C-24.965 181.66 -24.965 181.66 -22.965 184.66 C-13.638 182.037 -7.519 173.002 -1.965 165.66 C2.14 166.178 3.992 168.306 6.785 171.223 C7.185 171.636 7.185 171.636 9.207 173.727 C9.81 174.365 10.414 175.003 11.035 175.66 C9.568 180.179 7.038 183.431 3.973 186.973 C3.48 187.544 2.988 188.116 2.48 188.705 C-8.144 200.852 -20.585 209.558 -36.902 211.535 C-43.985 211.978 -49.831 210.636 -55.84 206.848 C-63.66 198.798 -65.23 190.047 -65.402 179.223 C-65.425 178.468 -65.447 177.713 -65.47 176.935 C-65.395 156.651 -57.104 136.341 -51.147 117.183 C-49.893 113.144 -48.652 109.102 -47.409 105.06 C-45.468 98.745 -43.524 92.432 -41.576 86.12 C-41.349 85.385 -41.123 84.65 -40.889 83.893 C-39.882 80.632 -38.875 77.37 -37.868 74.109 C-36.176 68.624 -34.492 63.136 -32.831 57.642 C-32.387 56.181 -31.938 54.722 -31.485 53.265 C-24.458 30.675 -24.458 30.675 -28.965 21.66 C-37.658 17.878 -47.889 18.513 -56.652 21.723 C-66.485 26.014 -75.363 31.531 -83.727 38.237 C-85.822 39.874 -87.676 41.033 -90.064 42.286 C-103.039 49.849 -105.182 63.952 -108.933 77.533 C-109.939 81.135 -110.999 84.722 -112.055 88.31 C-113.599 93.572 -115.127 98.838 -116.635 104.111 C-119.477 114.045 -122.435 123.941 -125.449 133.824 C-125.674 134.562 -125.899 135.3 -126.131 136.06 C-127.026 138.997 -127.923 141.934 -128.82 144.871 C-130.904 151.694 -132.97 158.522 -135.032 165.352 C-135.966 168.444 -136.903 171.535 -137.838 174.626 C-139.25 179.29 -140.655 183.957 -142.056 188.624 C-142.696 190.748 -143.336 192.872 -143.977 194.996 C-144.267 195.968 -144.557 196.94 -144.856 197.942 C-145.121 198.819 -145.386 199.696 -145.659 200.599 C-145.888 201.364 -146.118 202.129 -146.355 202.917 C-146.965 204.66 -146.965 204.66 -147.965 205.66 C-150.995 205.749 -154.002 205.775 -157.031 205.758 C-157.94 205.756 -158.848 205.755 -159.785 205.754 C-162.699 205.748 -165.613 205.735 -168.527 205.723 C-170.498 205.718 -172.469 205.713 -174.439 205.709 C-179.281 205.698 -184.123 205.681 -188.965 205.66 C-186.814 197.581 -184.469 189.572 -182.035 181.574 C-181.844 180.943 -181.844 180.943 -180.875 177.749 C-179.833 174.311 -178.788 170.873 -177.743 167.436 C-176.862 164.537 -175.983 161.637 -175.103 158.737 C-170.174 142.493 -165.233 126.252 -160.289 110.012 C-160.057 109.249 -159.825 108.487 -159.586 107.701 C-155.436 94.07 -155.436 94.07 -153.478 87.649 C-153.268 86.959 -153.058 86.269 -152.841 85.558 C-152.421 84.181 -152.002 82.805 -151.582 81.429 C-150.566 78.096 -149.552 74.763 -148.541 71.428 C-148.147 70.127 -147.752 68.826 -147.358 67.525 C-147.261 67.205 -147.261 67.205 -146.77 65.586 C-145.522 61.474 -144.257 57.368 -142.982 53.265 C-142.118 50.477 -141.261 47.687 -140.406 44.896 C-139.999 43.575 -139.588 42.254 -139.173 40.935 C-138.603 39.119 -138.047 37.3 -137.491 35.479 C-137.171 34.449 -136.851 33.418 -136.522 32.356 C-135.958 29.629 -135.907 28.213 -136.965 25.66 C-138.812 24.395 -138.812 24.395 -141.027 23.41 C-141.761 23.075 -142.494 22.74 -143.25 22.395 C-143.816 22.152 -144.382 21.91 -144.965 21.66 C-145.244 17.291 -144.907 14.055 -143.453 9.906 C-143.176 9.108 -142.9 8.309 -142.615 7.486 C-142.507 7.185 -142.507 7.185 -141.965 5.66 C-141.004 5.505 -140.043 5.349 -139.053 5.189 C-104.624 -0.415 -104.624 -0.415 -87.965 -5.34 C-86.634 -5.683 -85.302 -6.022 -83.965 -6.34 C-84.649 0.378 -86.594 6.646 -88.527 13.098 C-88.857 14.211 -89.186 15.324 -89.525 16.471 C-90.334 19.202 -91.147 21.932 -91.965 24.66 C-91.552 24.224 -91.14 23.787 -90.715 23.338 C-86.444 18.93 -82 15.222 -76.965 11.723 C-76.596 11.465 -76.596 11.465 -74.732 10.164 C-53.535 -4.371 -23.469 -16.846 0 0 Z " fill="#191817" transform="translate(1936.96484375,1415.33984375)"/>
<path d="M0 0 C4.653 3.762 8.366 7.55 9.809 13.465 C10.874 24.117 9.853 32.189 3.996 41.277 C-1.214 46.488 -4.945 47.75 -12.254 48.027 C-19.721 47.797 -19.721 47.797 -22.941 45.34 C-27.907 38.994 -27.882 32.268 -27.191 24.465 C-26.445 21.522 -25.587 18.694 -24.555 15.84 C-24.191 13.465 -24.191 13.465 -25.43 11.184 C-27.191 9.465 -27.191 9.465 -30.066 8.965 C-33.954 9.587 -35.357 10.757 -38.191 13.465 C-39.663 16.283 -39.663 16.283 -40.918 19.809 C-41.159 20.484 -41.401 21.16 -41.649 21.856 C-45.797 33.744 -49.315 45.859 -52.948 57.914 C-53.99 61.368 -55.038 64.821 -56.086 68.273 C-58.127 75.002 -60.159 81.733 -62.191 88.465 C-49.651 88.465 -37.111 88.465 -24.191 88.465 C-25.191 96.465 -25.191 96.465 -31.191 115.465 C-44.391 115.465 -57.591 115.465 -71.191 115.465 C-71.851 118.435 -72.511 121.405 -73.191 124.465 C-73.771 126.559 -74.377 128.647 -75.013 130.726 C-75.19 131.306 -75.19 131.306 -76.084 134.243 C-76.466 135.486 -76.848 136.73 -77.242 138.012 C-77.653 139.357 -78.063 140.702 -78.473 142.047 C-79.353 144.929 -80.234 147.81 -81.117 150.691 C-82.524 155.277 -83.925 159.865 -85.326 164.453 C-86.79 169.248 -88.255 174.044 -89.721 178.839 C-93.112 189.926 -96.493 201.017 -99.867 212.109 C-100.096 212.862 -100.325 213.614 -100.561 214.39 C-101.474 217.392 -102.387 220.394 -103.3 223.396 C-105.914 231.992 -108.531 240.587 -111.148 249.183 C-113.454 256.756 -115.759 264.33 -118.061 271.904 C-119.12 275.387 -120.18 278.87 -121.241 282.352 C-121.701 283.863 -122.16 285.373 -122.619 286.884 C-123.219 288.863 -123.823 290.842 -124.426 292.82 C-124.748 293.879 -125.07 294.937 -125.401 296.028 C-126.191 298.465 -126.191 298.465 -127.191 300.465 C-140.721 300.465 -154.251 300.465 -168.191 300.465 C-167.03 295.24 -165.935 290.319 -164.386 285.252 C-164.036 284.101 -163.686 282.95 -163.325 281.764 C-163.135 281.146 -163.135 281.146 -162.176 278.023 C-161.768 276.687 -161.36 275.35 -160.953 274.013 C-159.85 270.397 -158.743 266.782 -157.635 263.167 C-156.464 259.344 -155.297 255.519 -154.13 251.694 C-151.91 244.423 -149.686 237.153 -147.461 229.884 C-144.724 220.939 -141.991 211.993 -139.258 203.047 C-138.285 199.862 -137.312 196.677 -136.339 193.492 C-136.101 192.715 -135.864 191.938 -135.619 191.137 C-134.243 186.632 -132.865 182.126 -131.487 177.621 C-130.618 174.78 -129.749 171.94 -128.881 169.099 C-128.458 167.717 -128.035 166.335 -127.612 164.954 C-125.181 157.005 -122.762 149.053 -120.361 141.096 C-120.129 140.328 -119.897 139.559 -119.658 138.768 C-118.54 135.065 -117.423 131.361 -116.31 127.656 C-115.911 126.335 -115.513 125.014 -115.114 123.692 C-114.94 123.114 -114.94 123.114 -114.059 120.186 C-113.191 117.465 -113.191 117.465 -112.191 115.465 C-118.461 115.465 -124.731 115.465 -131.191 115.465 C-130.066 107.585 -128.605 101.059 -122.066 96.09 C-119.896 95.059 -117.722 94.31 -115.438 93.559 C-114.469 93.239 -113.501 92.919 -112.504 92.59 C-112.048 92.457 -112.048 92.457 -109.742 91.785 C-105.361 89.517 -103.616 85.556 -101.87 81.072 C-101.488 79.848 -101.105 78.624 -100.711 77.363 C-100.27 75.982 -99.828 74.6 -99.386 73.219 C-99.161 72.503 -98.936 71.788 -98.704 71.051 C-89.667 42.503 -78.823 12.641 -51.379 -2.848 C-35.795 -10.048 -14.324 -10.034 0 0 Z " fill="#191817" transform="translate(1928.19140625,2899.53515625)"/>
<path d="M0 0 C0.993 0.002 1.985 0.004 3.008 0.007 C4.129 0.007 5.25 0.007 6.405 0.007 C7.015 0.01 7.015 0.01 10.101 0.023 C10.722 0.023 10.722 0.023 13.864 0.027 C17.17 0.032 20.476 0.041 23.782 0.052 C27.153 0.062 30.525 0.066 33.896 0.071 C40.516 0.082 47.135 0.099 53.754 0.12 C53.169 7.922 50.794 15.097 48.469 22.53 C48.02 23.982 47.572 25.434 47.125 26.886 C46.161 30.009 45.194 33.132 44.223 36.253 C42.664 41.268 41.114 46.286 39.566 51.305 C39.303 52.158 39.04 53.012 38.768 53.891 C38.231 55.634 37.693 57.377 37.155 59.121 C36.333 61.787 35.509 64.453 34.686 67.119 C29.254 84.707 23.897 102.318 18.555 119.933 C17.319 124.01 16.082 128.086 14.845 132.163 C14.347 133.805 13.849 135.446 13.351 137.088 C13.227 137.496 13.227 137.496 12.601 139.558 C11.851 142.03 11.102 144.503 10.352 146.975 C6.913 158.309 3.465 169.64 0.013 180.97 C-1.619 186.327 -3.25 191.684 -4.881 197.042 C-6.173 201.284 -7.465 205.526 -8.76 209.768 C-11.524 218.828 -14.275 227.893 -16.997 236.966 C-17.824 239.721 -18.657 242.473 -19.495 245.223 C-20.659 249.045 -21.798 252.873 -22.934 256.702 C-23.273 257.806 -23.613 258.91 -23.962 260.048 C-25.962 266.891 -26.667 272.998 -26.246 280.12 C-21.888 281.238 -19.531 280.878 -15.5 278.691 C-9.14 274.26 -3.986 268.197 0.754 262.12 C3.969 263.529 6.076 265.224 8.504 267.745 C9.117 268.377 9.731 269.009 10.363 269.659 C10.822 270.141 11.281 270.624 11.754 271.12 C8.835 277.541 5.237 282.694 0.754 288.12 C0.219 288.814 -0.316 289.507 -0.867 290.222 C-8.542 299.755 -19.624 305.535 -31.582 307.734 C-40.97 308.724 -52.263 308.716 -60.246 303.12 C-66.294 298.089 -68.494 291.682 -69.527 284.042 C-70.125 271.003 -65.365 257.354 -61.559 245.058 C-61.049 243.388 -60.541 241.719 -60.033 240.049 C-58.833 236.107 -57.628 232.166 -56.42 228.227 C-53.883 219.943 -51.37 211.653 -48.856 203.362 C-47.867 200.102 -46.878 196.842 -45.889 193.582 C-45.763 193.168 -45.763 193.168 -45.127 191.072 C-42.259 181.62 -39.386 172.169 -36.512 162.718 C-36.25 161.857 -35.988 160.995 -35.718 160.108 C-31.513 146.281 -27.305 132.454 -23.095 118.628 C-20.88 111.355 -18.667 104.082 -16.457 96.807 C-15.62 94.052 -14.783 91.297 -13.945 88.542 C-13.744 87.878 -13.542 87.214 -13.334 86.53 C-10.917 78.579 -8.483 70.634 -6.022 62.697 C-4.754 58.603 -3.493 54.507 -2.233 50.41 C-1.667 48.578 -1.097 46.747 -0.522 44.917 C0.244 42.478 0.997 40.034 1.746 37.589 C1.857 37.241 1.857 37.241 2.421 35.482 C3.566 31.69 4.086 28.906 2.754 25.12 C0.687 23.347 0.687 23.347 -1.809 21.745 C-6.153 18.534 -6.153 18.534 -6.996 14.808 C-4.028 0.216 -4.028 0.216 0 0 Z " fill="#191817" transform="translate(2739.2462310791016,2891.8797454833984)"/>
<path d="M0 0 C5.491 5.615 7.458 11.656 8 19.375 C7.83 29.349 4.731 38.517 -2.105 45.785 C-7.273 50.653 -11.621 52.489 -18.75 53.125 C-23.59 52.693 -27.485 51.873 -30.766 48.043 C-33.401 44.082 -34.889 40.632 -35.25 35.812 C-49.702 40.488 -57.813 58.29 -64.375 70.688 C-64.924 71.706 -65.473 72.725 -66.039 73.774 C-77.277 95.61 -83.535 119.962 -90.6 143.39 C-91.784 147.313 -92.975 151.233 -94.166 155.154 C-95.558 159.739 -96.949 164.323 -98.337 168.908 C-102.266 181.889 -106.25 194.853 -110.25 207.812 C-123.78 207.812 -137.31 207.812 -151.25 207.812 C-150.052 201.822 -148.95 196.402 -147.178 190.655 C-146.981 190.01 -146.783 189.365 -146.58 188.701 C-145.934 186.595 -145.282 184.491 -144.629 182.387 C-144.168 180.887 -143.707 179.387 -143.246 177.886 C-142.275 174.722 -141.3 171.559 -140.323 168.396 C-138.804 163.477 -137.294 158.556 -135.786 153.634 C-135.284 151.999 -134.783 150.364 -134.282 148.729 C-134.036 147.926 -133.79 147.122 -133.536 146.295 C-132.318 142.324 -131.099 138.353 -129.88 134.382 C-129.208 132.191 -128.535 130 -127.863 127.808 C-127.298 125.969 -126.733 124.129 -126.169 122.289 C-106.619 58.555 -106.619 58.555 -113.25 39.812 C-114.938 36.645 -115.834 35.94 -119.316 34.871 C-120.47 34.666 -121.624 34.461 -122.812 34.25 C-126.316 33.621 -126.316 33.621 -129.25 32.812 C-131.671 29.181 -131.46 27.429 -131.375 23.125 C-131.357 21.946 -131.339 20.766 -131.32 19.551 C-131.297 18.647 -131.274 17.744 -131.25 16.812 C-130.099 16.544 -128.948 16.276 -127.762 16 C-111.767 12.122 -96.904 6.426 -82.816 -2.133 C-80.25 -3.188 -80.25 -3.188 -78.039 -2.66 C-73.857 0.782 -72.654 7.027 -71.5 12.125 C-70.553 26.087 -72.028 39.906 -73.25 53.812 C-72.984 53.264 -72.717 52.716 -72.443 52.151 C-49.184 4.446 -49.184 4.446 -26.25 -4.188 C-16.559 -6.557 -8.269 -5.565 0 0 Z " fill="#191817" transform="translate(3245.25,2188.1875)"/>
</svg>
