<?xml version="1.0" encoding="UTF-8"?>
<!-- Generator: visioncortex VTracer 0.6.12 -->
<svg viewBox="1525.07 775.15 1449.86 2949.70" version="1.1" xmlns="http://www.w3.org/2000/svg" width="4500" height="4500">
<path d="M0 0 C9.77 5.992 14.657 14.922 17.824 25.711 C19.43 32.771 20.437 39.847 20.758 47.078 C20.784 47.609 20.784 47.609 20.918 50.297 C22.434 112.005 1.104 183.831 -35.242 234.078 C-35.66 234.659 -36.079 235.239 -36.51 235.837 C-53.271 258.798 -75.774 279.014 -104.52 284.453 C-123.293 287.312 -143.224 286.115 -159.242 275.078 C-167.944 268.147 -174.513 260.727 -180.043 251.117 C-181.242 249.078 -181.242 249.078 -182.242 248.078 C-184.496 247.742 -184.496 247.742 -187.242 248.078 C-189.645 249.914 -189.645 249.914 -192.18 252.453 C-214.847 274.195 -242.525 285.723 -273.871 285.355 C-289.105 284.904 -304.024 280.012 -315.211 269.332 C-327.035 256.212 -329.947 240.5 -329.37 223.393 C-328.781 212.705 -326.181 202.403 -323.277 192.141 C-323.127 191.606 -323.127 191.606 -322.364 188.899 C-318.492 175.279 -314.325 161.747 -310.166 148.212 C-308.714 143.489 -307.269 138.764 -305.824 134.039 C-301.772 120.796 -297.711 107.556 -293.591 94.334 C-292.171 89.775 -290.757 85.213 -289.343 80.652 C-288.389 77.586 -287.424 74.523 -286.459 71.461 C-285.889 69.624 -285.319 67.787 -284.75 65.949 C-284.492 65.142 -284.234 64.335 -283.967 63.504 C-282.56 58.913 -281.833 54.937 -282.242 50.078 C-284.813 46.533 -287.887 45.116 -291.867 43.453 C-297.048 41.273 -297.048 41.273 -299.242 39.078 C-299.07 36.941 -299.07 36.941 -298.492 34.391 C-298.312 33.562 -298.131 32.733 -297.945 31.879 C-297.119 28.589 -296.179 25.338 -295.242 22.078 C-294.314 21.963 -293.386 21.849 -292.429 21.73 C-275.519 19.615 -258.735 17.287 -242.117 13.453 C-240.864 13.164 -239.611 12.875 -238.32 12.578 C-232.247 11.136 -226.265 9.56 -220.333 7.616 C-218.242 7.078 -218.242 7.078 -214.242 7.078 C-216.411 16.244 -219.043 25.237 -221.828 34.23 C-222.282 35.706 -222.736 37.181 -223.19 38.657 C-224.158 41.804 -225.128 44.95 -226.099 48.095 C-227.639 53.085 -229.175 58.077 -230.71 63.069 C-230.969 63.912 -231.228 64.755 -231.495 65.624 C-232.023 67.339 -232.551 69.055 -233.078 70.771 C-233.879 73.376 -234.68 75.981 -235.482 78.586 C-243.777 105.554 -251.988 132.548 -260.172 159.55 C-261.169 162.836 -262.167 166.121 -263.167 169.406 C-264.512 173.827 -265.849 178.249 -267.18 182.673 C-267.624 184.147 -268.07 185.619 -268.519 187.091 C-274.049 205.237 -279.662 224.514 -270.555 242.391 C-266.687 246.886 -262.055 249.834 -256.242 251.078 C-239.323 252.11 -226.286 249.063 -212.68 238.453 C-183.691 212.051 -176.955 160.217 -166.078 124.103 C-160.792 106.554 -155.444 89.023 -150.087 71.496 C-149.376 69.168 -148.665 66.841 -147.955 64.513 C-145.416 56.196 -142.869 47.881 -140.311 39.569 C-139.337 36.388 -138.376 33.202 -137.421 30.015 C-136.901 28.306 -136.38 26.596 -135.859 24.887 C-135.752 24.522 -135.752 24.522 -135.211 22.676 C-133.368 16.694 -131.175 12.547 -126.15 8.728 C-121.502 6.344 -116.832 6.576 -111.715 6.688 C-110.726 6.693 -109.737 6.699 -108.718 6.705 C-105.58 6.727 -102.443 6.777 -99.305 6.828 C-97.169 6.848 -95.033 6.866 -92.896 6.883 C-87.678 6.927 -82.46 6.994 -77.242 7.078 C-84.887 32.982 -92.674 58.841 -100.583 84.665 C-104.811 98.467 -109.028 112.272 -113.242 126.078 C-113.354 126.443 -113.354 126.443 -113.918 128.292 C-116.473 136.661 -119.021 145.032 -121.552 153.409 C-122.508 156.572 -123.466 159.733 -124.43 162.893 C-143.397 225.108 -143.397 225.108 -132.555 246.391 C-126.756 253.129 -119.721 255.418 -111.094 256.297 C-95.586 256.969 -82.429 249.086 -71.242 239.078 C-35.856 205.641 -18.728 150.743 -9.699 104.419 C-9.316 102.454 -8.909 100.494 -8.496 98.535 C-7.191 91.577 -7.015 84.64 -6.93 77.578 C-6.912 76.621 -6.894 75.664 -6.876 74.677 C-6.886 66.019 -6.886 66.019 -10.242 62.078 C-13.966 60.216 -17.41 59.991 -21.492 59.766 C-28.674 59.198 -35.28 56.659 -40.18 51.203 C-45.706 42.831 -46.29 34.888 -45.242 25.078 C-43.427 16.313 -38.989 8.505 -31.672 3.223 C-22.528 -2.389 -10.181 -4.848 0 0 Z " fill="#191817" transform="translate(1862.2421875,907.921875)"/>
<path d="M0 0 C24.09 0 48.18 0 73 0 C70.456 10.175 67.851 20.138 64.719 30.117 C64.308 31.436 63.899 32.756 63.489 34.075 C62.618 36.881 61.744 39.685 60.869 42.489 C58.739 49.309 56.625 56.133 54.51 62.958 C54.023 64.529 53.535 66.101 53.048 67.673 C48.172 83.399 43.376 99.149 38.613 114.909 C37.582 118.32 36.551 121.731 35.519 125.142 C35.104 126.516 34.688 127.89 34.272 129.264 C34.066 129.945 33.86 130.627 33.648 131.329 C33.024 133.394 32.399 135.46 31.775 137.525 C27.293 152.347 22.789 167.161 18.28 181.974 C17.626 184.121 16.973 186.269 16.319 188.417 C11.318 204.849 6.306 221.279 1.277 237.703 C-15.563 292.714 -15.563 292.714 -23.25 318.438 C-23.539 319.402 -23.828 320.366 -24.126 321.36 C-24.926 324.029 -25.722 326.7 -26.516 329.371 C-26.742 330.124 -26.968 330.877 -27.2 331.652 C-29.369 338.99 -31.285 346.178 -31.312 353.875 C-31.329 354.966 -31.346 356.056 -31.363 357.18 C-31 360 -31 360 -29.48 361.883 C-28.992 362.251 -28.503 362.62 -28 363 C-15.661 358.63 -8.714 347.989 -1 338 C2.517 339.664 4.995 341.604 7.812 344.312 C8.623 345.072 9.434 345.831 10.27 346.613 C12 349 12 349 11.992 351.422 C5.881 367.302 -10.119 381.588 -25 389 C-36.914 394.149 -50.193 396.095 -63.035 393.352 C-68.26 391.255 -72.088 387.804 -75 383 C-76.251 380.052 -77.168 377.088 -78 374 C-78.165 373.505 -78.165 373.505 -79 371 C-79.28 371.242 -79.28 371.242 -80.695 372.469 C-97.915 386.865 -117.402 394.439 -139.938 394.312 C-140.993 394.307 -142.048 394.301 -143.136 394.295 C-150.449 394.181 -157.14 393.726 -164 391 C-164.998 390.609 -165.995 390.219 -167.023 389.816 C-181.191 383.518 -188.813 372.526 -194.25 358.438 C-208.306 317.261 -194.913 264.339 -178 226 C-177.652 225.204 -177.304 224.408 -176.946 223.588 C-166.924 200.894 -153.365 180.58 -137 162 C-136.561 161.498 -136.122 160.996 -135.67 160.479 C-130.448 154.523 -125.129 149.013 -119 144 C-117.922 143.086 -116.844 142.172 -115.766 141.258 C-95.355 124.194 -71.432 111.255 -44.114 113.216 C-35.845 114.029 -28.221 116.337 -20.811 120.077 C-20.096 120.437 -19.38 120.797 -18.644 121.168 C-18.372 121.305 -18.372 121.305 -17 122 C-14.053 112.394 -11.106 102.788 -8.159 93.182 C-6.79 88.72 -5.422 84.259 -4.053 79.798 C-2.73 75.486 -1.407 71.174 -0.085 66.862 C0.418 65.224 0.92 63.585 1.423 61.947 C2.564 58.229 3.704 54.51 4.84 50.791 C5.551 48.469 6.264 46.149 6.983 43.83 C7.256 42.943 7.529 42.057 7.809 41.144 C8.035 40.416 8.261 39.687 8.494 38.936 C9.442 35.306 9.451 33.495 8 30 C5.301 27.897 2.538 26.174 -0.434 24.48 C-3 23 -3 23 -5 21 C-4.714 13.423 -2.31 7.506 0 0 Z M-76.849 148.964 C-79.31 151.24 -81.66 153.598 -84 156 C-84.717 156.719 -85.433 157.439 -86.172 158.18 C-122.331 196.509 -138.817 259.401 -146 310 C-146.131 310.887 -146.263 311.774 -146.398 312.688 C-148.283 327.761 -149.148 346.555 -139.68 359.227 C-135.276 363.876 -130.138 365.749 -123.875 366.25 C-110.646 365.396 -101.354 358.078 -92.387 348.801 C-88.259 343.957 -84.921 338.645 -82 333 C-81.632 332.29 -81.264 331.579 -80.885 330.848 C-76.383 321.57 -73.581 311.706 -70.562 301.875 C-69.922 299.806 -69.281 297.738 -68.639 295.669 C-61.644 273.048 -54.824 250.372 -48.027 227.691 C-47.098 224.589 -46.168 221.488 -45.238 218.387 C-45.125 218.009 -45.125 218.009 -44.552 216.097 C-41.646 206.408 -38.691 196.736 -35.668 187.082 C-34.748 184.125 -33.829 181.167 -32.91 178.209 C-32.091 175.591 -31.254 172.98 -30.416 170.368 C-29.934 168.818 -29.453 167.269 -28.973 165.719 C-28.753 165.057 -28.533 164.394 -28.307 163.712 C-26.399 157.417 -26.666 151.569 -29.688 145.75 C-34.475 140.057 -37.981 137.286 -45.375 136.164 C-56.91 135.443 -68.352 141.514 -76.849 148.964 Z " fill="#191817" transform="translate(2366,799)"/>
<path d="M0 0 C8.189 7.326 14.33 17.144 15.177 28.34 C15.245 31.227 15.285 34.113 15.312 37 C15.342 37.959 15.371 38.918 15.4 39.906 C15.545 57.203 10.076 74.058 5.062 90.438 C4.464 92.419 3.866 94.401 3.269 96.383 C1.577 101.988 -0.128 107.588 -1.837 113.188 C-3.08 117.262 -4.321 121.336 -5.562 125.411 C-6.009 126.88 -6.457 128.35 -6.904 129.82 C-7.591 132.075 -8.277 134.329 -8.964 136.584 C-11.239 144.056 -13.514 151.527 -15.8 158.996 C-18.133 166.617 -20.451 174.242 -22.753 181.873 C-23.597 184.672 -24.448 187.468 -25.302 190.264 C-26.372 193.767 -27.428 197.273 -28.475 200.783 C-29.051 202.705 -29.641 204.623 -30.231 206.54 C-33.133 216.349 -35.781 226.151 -32 236 C-25.525 236.141 -22.419 233.322 -17.844 228.965 C-12.255 223.262 -7.135 217.109 -2 211 C1.954 214.331 5.81 217.684 9.438 221.375 C10.117 222.063 10.796 222.752 11.496 223.461 C11.992 223.969 12.489 224.477 13 225 C9.93 231.386 6.134 236.391 1.281 241.543 C-0.34 243.289 -1.889 245.104 -3.383 246.961 C-13.283 258.925 -29.647 268.661 -45.175 270.218 C-53.915 270.681 -62.494 271.094 -70 266 C-71.072 265.278 -72.145 264.556 -73.25 263.812 C-83.134 253.704 -85.135 240.205 -85.074 226.656 C-84.745 214.836 -82.265 203.171 -79.004 191.848 C-78.702 190.784 -78.399 189.72 -78.088 188.624 C-74.121 174.773 -69.896 160.998 -65.679 147.222 C-64.523 143.44 -63.37 139.658 -62.217 135.875 C-57.965 121.931 -53.694 107.993 -49.398 94.062 C-48.706 91.813 -48.013 89.563 -47.32 87.312 C-46.063 83.227 -44.799 79.144 -43.531 75.062 C-33.183 41.595 -33.183 41.595 -36.691 30.891 C-39.286 26.505 -43.52 24.637 -48.281 23.414 C-68.809 20.288 -87.971 32.311 -103.809 43.867 C-109.38 48 -114.884 52.231 -120.232 56.651 C-122 58 -122 58 -123.895 59.071 C-131.243 63.526 -132.67 70.133 -134.891 78.016 C-135.315 79.44 -135.742 80.864 -136.171 82.288 C-137.084 85.336 -137.98 88.389 -138.861 91.447 C-140.265 96.317 -141.707 101.174 -143.155 106.03 C-145.152 112.737 -147.132 119.449 -149.102 126.164 C-151.769 135.25 -154.495 144.318 -157.25 153.379 C-157.355 153.724 -157.355 153.724 -157.885 155.467 C-158.722 158.219 -159.558 160.97 -160.396 163.721 C-162.446 170.452 -164.485 177.188 -166.523 183.923 C-171.327 199.797 -176.146 215.667 -180.979 231.532 C-181.78 234.16 -182.579 236.787 -183.378 239.416 C-184.473 243.017 -185.57 246.618 -186.668 250.219 C-186.993 251.289 -187.318 252.36 -187.653 253.463 C-187.949 254.433 -188.246 255.404 -188.552 256.404 C-188.809 257.249 -189.066 258.094 -189.331 258.964 C-190 261 -190 261 -191 263 C-208.16 263 -225.32 263 -243 263 C-242.309 258.162 -241.608 254.258 -240.2 249.691 C-239.827 248.47 -239.453 247.249 -239.069 245.991 C-238.655 244.658 -238.242 243.325 -237.828 241.992 C-237.394 240.579 -236.96 239.165 -236.527 237.751 C-235.596 234.717 -234.661 231.684 -233.725 228.651 C-232.228 223.806 -230.738 218.958 -229.25 214.11 C-227.704 209.074 -226.158 204.038 -224.609 199.002 C-219.734 183.152 -214.901 167.288 -210.079 151.422 C-208.364 145.78 -206.648 140.139 -204.932 134.498 C-204.501 133.082 -204.071 131.665 -203.64 130.249 C-200.386 119.549 -197.125 108.85 -193.862 98.152 C-192.404 93.372 -190.947 88.592 -189.49 83.812 C-188.103 79.261 -186.714 74.711 -185.325 70.161 C-184.466 67.348 -183.609 64.535 -182.752 61.723 C-182.171 59.816 -181.588 57.911 -181.006 56.005 C-178.884 49.033 -176.869 42.044 -175 35 C-178.279 31.609 -180.955 29.953 -185.293 28.223 C-187 27 -187 27 -187.844 24.82 C-188.045 21.185 -187.304 18.312 -186.312 14.812 C-185.979 13.581 -185.645 12.35 -185.301 11.082 C-184 8 -184 8 -182.387 6.886 C-179.157 5.687 -175.894 5.217 -172.5 4.738 C-170.97 4.508 -169.44 4.277 -167.91 4.046 C-167.51 3.986 -167.51 3.986 -165.481 3.684 C-149.246 1.252 -133.501 -1.973 -117.664 -6.339 C-114.792 -7.051 -111.923 -7.548 -109 -8 C-110.376 0.057 -112.651 7.719 -115.125 15.5 C-115.859 17.822 -116.591 20.145 -117.32 22.469 C-117.643 23.484 -117.965 24.499 -118.297 25.545 C-119 28 -119 28 -119 30 C-118.322 29.443 -117.644 28.886 -116.945 28.312 C-114.983 26.704 -113.018 25.098 -111.051 23.496 C-109.224 22.002 -107.406 20.497 -105.605 18.973 C-77.956 -4.061 -32.784 -24.937 0 0 Z " fill="#191817" transform="translate(2118,923)"/>
<path d="M0 0 C1.875 1.25 1.875 1.25 2.875 4.25 C3.026 6.539 3.119 8.833 3.182 11.126 C3.203 11.825 3.223 12.524 3.243 13.244 C3.308 15.58 3.366 17.916 3.422 20.252 C3.443 21.068 3.463 21.884 3.485 22.724 C3.933 40.365 4.039 58.004 4.097 75.649 C4.12 82.492 4.157 89.334 4.202 96.176 C4.205 96.68 4.205 96.68 4.222 99.231 C4.249 103.357 4.276 107.482 4.304 111.608 C4.382 123.213 4.445 134.818 4.472 146.423 C4.493 155.749 4.543 165.075 4.625 174.401 C4.667 179.308 4.695 184.214 4.689 189.12 C4.684 193.706 4.716 198.291 4.776 202.876 C4.791 204.554 4.793 206.231 4.78 207.909 C4.694 220.613 4.694 220.613 7.692 224.769 C9.672 226.496 11.656 227.858 13.875 229.25 C15.609 232.719 15.347 236.457 14.875 240.25 C13.022 243.701 10.925 246.754 7.875 249.25 C7.215 249.25 6.555 249.25 5.875 249.25 C5.88 250.09 5.885 250.931 5.891 251.796 C5.971 266.958 5.984 282.108 5.519 297.264 C4.564 328.495 4.744 359.742 4.771 390.984 C4.779 399.579 4.78 408.173 4.781 416.768 C4.783 432.085 4.79 447.402 4.8 462.719 C4.809 477.565 4.816 492.411 4.82 507.256 C4.82 508.177 4.821 509.098 4.821 510.047 C4.822 514.669 4.823 519.29 4.825 523.912 C4.835 562.025 4.853 600.137 4.875 638.25 C6.122 638.387 7.368 638.523 8.652 638.664 C14.45 639.3 18.128 641.144 21.832 645.609 C25.971 651.577 28.507 656.89 27.875 664.25 C25.892 671.439 21.248 677.059 15.043 681.09 C7.574 685.25 7.574 685.25 4.875 685.25 C5.205 738.38 5.535 791.51 5.875 846.25 C7.525 846.91 9.175 847.57 10.875 848.25 C19.98 854.177 28.43 865.915 31.875 876.25 C32.633 886.391 32.75 894.588 26.875 903.25 C26.22 904.321 25.565 905.392 24.891 906.496 C20.839 912.931 16.815 917.728 10.039 921.492 C6.259 924.563 5.09 928.324 4.565 933.032 C4.399 936.492 4.33 939.942 4.291 943.405 C4.265 944.741 4.238 946.077 4.21 947.413 C4.138 951.049 4.083 954.685 4.031 958.321 C3.972 962.19 3.897 966.058 3.823 969.926 C3.7 976.525 3.587 983.123 3.48 989.722 C3.315 1000.01 3.13 1010.297 2.942 1020.584 C2.88 1024.003 2.818 1027.421 2.755 1030.839 C2.74 1031.681 2.725 1032.523 2.709 1033.39 C2.601 1039.319 2.495 1045.248 2.391 1051.177 C1.976 1074.685 1.448 1098.188 0.819 1121.691 C-0.032 1153.548 -0.476 1185.38 -0.125 1217.25 C-0.111 1218.557 -0.096 1219.864 -0.081 1221.211 C0.031 1231.224 0.165 1241.237 0.312 1251.25 C0.322 1251.923 0.332 1252.595 0.342 1253.288 C0.566 1268.557 0.885 1283.82 1.367 1299.082 C1.407 1300.36 1.447 1301.638 1.488 1302.954 C2.203 1324.51 2.203 1324.51 3.875 1329.25 C6.719 1331.391 6.719 1331.391 9.875 1333.25 C11.957 1335.285 11.957 1335.285 13.688 1337.312 C14.271 1337.984 14.855 1338.656 15.457 1339.348 C18.526 1343.464 18.39 1348.085 18.348 1353.035 C17.438 1359.223 13.819 1363.977 8.922 1367.758 C6.588 1369.16 4.641 1370.25 1.875 1370.25 C1.851 1380.903 1.834 1391.555 1.823 1402.208 C1.818 1407.159 1.811 1412.111 1.8 1417.062 C1.755 1436.694 1.771 1456.309 2.344 1475.934 C3.173 1504.59 3.245 1533.261 3.423 1561.928 C3.438 1564.323 3.453 1566.718 3.468 1569.112 C3.818 1623.182 4.007 1677.253 4.054 1731.324 C4.06 1737.877 4.07 1744.429 4.083 1750.982 C4.099 1758.976 4.107 1766.971 4.105 1774.965 C4.104 1779.062 4.106 1783.158 4.117 1787.254 C4.126 1791.017 4.127 1794.779 4.119 1798.542 C4.118 1800.552 4.126 1802.563 4.135 1804.573 C4.133 1805.171 4.133 1805.171 4.122 1808.198 C4.123 1809.229 4.123 1810.26 4.124 1811.323 C3.845 1814.607 3.168 1817.219 1.875 1820.25 C-1.68 1822.62 -3.864 1823.175 -8.125 1823.25 C-11.01 1820.441 -13.029 1817.872 -13.27 1813.802 C-13.295 1810.368 -13.311 1806.934 -13.312 1803.5 C-13.325 1802.358 -13.337 1801.216 -13.35 1800.039 C-13.36 1793.608 -13.077 1787.328 -12.406 1780.936 C-11.057 1767.975 -10.847 1755.137 -10.882 1742.117 C-10.881 1739.785 -10.879 1737.454 -10.876 1735.122 C-10.872 1728.84 -10.879 1722.557 -10.889 1716.275 C-10.897 1710.278 -10.896 1704.282 -10.896 1698.286 C-10.896 1686.336 -10.905 1674.386 -10.919 1662.436 C-10.933 1651.035 -10.94 1639.635 -10.94 1628.235 C-10.935 1521.384 -10.935 1521.384 -11.543 1474.063 C-11.574 1471.67 -11.603 1469.277 -11.633 1466.883 C-11.678 1463.238 -11.729 1459.593 -11.785 1455.947 C-11.814 1454.069 -11.839 1452.19 -11.864 1450.311 C-11.983 1443.339 -12.345 1436.421 -12.906 1429.47 C-13.278 1424.005 -13.248 1418.546 -13.223 1413.07 C-13.221 1411.892 -13.22 1410.713 -13.218 1409.498 C-13.213 1405.79 -13.2 1402.083 -13.188 1398.375 C-13.182 1395.837 -13.178 1393.299 -13.174 1390.762 C-13.163 1384.591 -13.146 1378.421 -13.125 1372.25 C-13.896 1371.961 -14.667 1371.672 -15.461 1371.375 C-19.645 1369.608 -22.209 1367.271 -24.105 1363.086 C-26.651 1355.558 -27.822 1347.348 -24.562 1339.875 C-22.977 1336.675 -21.998 1336.194 -18.585 1334.682 C-15.684 1332.61 -15.173 1331.491 -14.465 1327.938 C-14.114 1323.458 -14.172 1318.974 -14.207 1314.483 C-14.196 1312.772 -14.181 1311.062 -14.163 1309.352 C-14.131 1305.771 -14.119 1302.192 -14.124 1298.611 C-14.13 1293.544 -14.085 1288.48 -14.024 1283.414 C-13.917 1274.042 -13.864 1264.671 -13.822 1255.299 C-13.804 1251.476 -13.783 1247.653 -13.762 1243.83 C-13.705 1233.504 -13.655 1223.178 -13.607 1212.852 C-13.573 1205.297 -13.536 1197.741 -13.498 1190.186 C-13.058 1101.207 -13.009 1012.229 -13.125 923.25 C-13.798 923.064 -14.47 922.878 -15.163 922.686 C-16.053 922.431 -16.943 922.177 -17.859 921.914 C-18.738 921.666 -19.617 921.418 -20.522 921.163 C-29.683 917.95 -34.309 910.645 -38.605 902.414 C-43.41 891.729 -44.147 879.345 -40.562 868.125 C-35.357 856.509 -25.541 851.011 -14.125 846.25 C-13.465 846.25 -12.805 846.25 -12.125 846.25 C-12.095 845.767 -12.095 845.767 -11.941 843.32 C-11.858 842.018 -11.774 840.716 -11.688 839.375 C-11.606 838.099 -11.525 836.823 -11.441 835.508 C-11.244 832.603 -10.957 829.722 -10.63 826.829 C-9.99 820.467 -9.864 814.112 -9.736 807.722 C-9.707 806.404 -9.677 805.086 -9.647 803.728 C-9.567 800.144 -9.492 796.56 -9.418 792.976 C-9.339 789.219 -9.256 785.462 -9.174 781.705 C-9.018 774.604 -8.867 767.504 -8.717 760.403 C-8.546 752.314 -8.37 744.224 -8.194 736.134 C-7.833 719.506 -7.477 702.878 -7.125 686.25 C-8.074 686.108 -9.023 685.965 -10.001 685.818 C-14.652 684.972 -17.07 682.757 -20.125 679.25 C-24.926 672.064 -25.949 663.069 -24.754 654.629 C-23.183 648.843 -20.101 645.483 -15.125 642.25 C-12.075 640.725 -10.535 640.25 -7.125 640.25 C-7.231 608.548 -7.341 576.846 -7.456 545.144 C-7.47 541.362 -7.484 537.58 -7.497 533.799 C-7.5 533.046 -7.503 532.293 -7.506 531.518 C-7.549 519.489 -7.59 507.461 -7.63 495.432 C-7.671 482.998 -7.715 470.565 -7.762 458.131 C-7.788 451.186 -7.813 444.24 -7.834 437.295 C-7.946 401.079 -8.339 364.879 -9.007 328.67 C-9.134 321.793 -9.252 314.915 -9.365 308.037 C-9.476 301.381 -9.621 294.726 -9.78 288.071 C-9.849 285.133 -9.903 282.197 -9.948 279.259 C-10.006 275.538 -10.087 271.817 -10.185 268.097 C-10.233 266.077 -10.256 264.058 -10.279 262.038 C-10.578 252.157 -10.578 252.157 -13.599 248.605 C-14.015 248.217 -14.015 248.217 -16.125 246.25 C-18.254 240.674 -19.42 235.181 -16.938 229.562 C-14.906 226.97 -12.831 225.123 -10.125 223.25 C-9.465 223.25 -8.805 223.25 -8.125 223.25 C-8.125 222.844 -8.125 222.844 -8.128 220.79 C-8.153 196.381 -8.067 171.972 -7.941 147.562 C-7.937 146.614 -7.932 145.665 -7.927 144.688 C-7.881 135.706 -7.834 126.724 -7.786 117.742 C-7.724 106.377 -7.667 95.011 -7.613 83.646 C-7.575 75.573 -7.533 67.5 -7.488 59.427 C-7.462 54.634 -7.437 49.841 -7.416 45.048 C-7.396 40.563 -7.372 36.077 -7.345 31.592 C-7.335 29.955 -7.328 28.317 -7.322 26.68 C-7.239 4.477 -7.239 4.477 -5.125 0.25 C-2.125 -0.75 -2.125 -0.75 0 0 Z " fill="#191817" transform="translate(2255.125,1449.75)"/>
<path d="M0 0 C7.669 6.271 12.439 13.197 13.688 23.188 C14.292 34.878 12.026 45.028 4.25 54 C-2.77 59.993 -8.808 62.593 -18 62 C-23.555 61.332 -26.581 59.969 -30.5 55.938 C-35.072 49.001 -35.102 41.277 -34.312 33.188 C-33.394 29.759 -32.295 26.443 -31.137 23.09 C-30.062 19.306 -30.268 16.931 -31.312 13.188 C-35.049 11.992 -38.412 11.784 -42.312 12.188 C-54.133 19.043 -56.652 38.286 -60.375 50.438 C-61.032 52.563 -61.69 54.689 -62.348 56.814 C-64.019 62.216 -65.681 67.62 -67.341 73.026 C-68.877 78.024 -70.419 83.02 -71.961 88.016 C-74.755 97.07 -77.533 106.129 -80.312 115.188 C-63.812 115.188 -47.312 115.188 -30.312 115.188 C-32.565 126.45 -32.565 126.45 -34.004 131.16 C-34.309 132.161 -34.614 133.162 -34.928 134.193 C-35.084 134.698 -35.084 134.698 -35.875 137.25 C-36.191 138.293 -36.508 139.337 -36.834 140.412 C-39.179 148.054 -39.179 148.054 -40.312 149.188 C-41.909 149.281 -43.509 149.305 -45.108 149.301 C-46.129 149.301 -47.15 149.301 -48.202 149.301 C-49.312 149.296 -50.422 149.29 -51.566 149.285 C-52.697 149.284 -53.828 149.282 -54.992 149.281 C-58.62 149.275 -62.247 149.263 -65.875 149.25 C-68.327 149.245 -70.78 149.24 -73.232 149.236 C-79.259 149.225 -85.286 149.209 -91.312 149.188 C-91.563 150.407 -91.814 151.626 -92.073 152.882 C-93.446 159.043 -95.298 165.045 -97.145 171.078 C-97.528 172.341 -97.912 173.604 -98.307 174.905 C-99.355 178.359 -100.408 181.812 -101.462 185.264 C-102.588 188.957 -103.71 192.65 -104.833 196.343 C-106.955 203.323 -109.081 210.302 -111.208 217.281 C-113.418 224.534 -115.626 231.787 -117.832 239.041 C-120.598 248.134 -123.365 257.227 -126.134 266.319 C-131.039 282.426 -135.939 298.534 -140.832 314.645 C-141.106 315.545 -141.379 316.446 -141.661 317.375 C-144.352 326.232 -147.042 335.089 -149.731 343.947 C-150.723 347.215 -151.716 350.484 -152.709 353.752 C-153.385 355.979 -154.061 358.205 -154.736 360.431 C-155.546 363.1 -156.358 365.769 -157.171 368.437 C-157.942 370.97 -158.709 373.504 -159.47 376.04 C-159.649 376.633 -159.649 376.633 -160.556 379.633 C-160.872 380.682 -161.187 381.732 -161.512 382.813 C-162.312 385.188 -162.312 385.188 -163.312 386.188 C-164.939 386.281 -166.57 386.305 -168.199 386.301 C-169.24 386.301 -170.281 386.301 -171.354 386.301 C-172.486 386.296 -173.619 386.29 -174.785 386.285 C-175.362 386.284 -175.362 386.284 -178.278 386.281 C-181.977 386.275 -185.676 386.263 -189.375 386.25 C-191.876 386.245 -194.376 386.24 -196.877 386.236 C-203.022 386.225 -209.167 386.209 -215.312 386.188 C-214.05 379.153 -212.291 372.416 -210.137 365.605 C-209.82 364.588 -209.503 363.571 -209.176 362.523 C-208.486 360.308 -207.794 358.094 -207.099 355.88 C-205.372 350.372 -203.659 344.859 -201.946 339.346 C-201.54 338.037 -201.133 336.728 -200.725 335.419 C-195.993 320.206 -191.35 304.966 -186.718 289.721 C-186.061 287.557 -185.403 285.392 -184.745 283.227 C-182.964 277.367 -181.182 271.507 -179.402 265.647 C-176.159 254.969 -172.911 244.293 -169.66 233.617 C-169.19 232.072 -168.719 230.527 -168.249 228.981 C-166.658 223.757 -165.067 218.533 -163.477 213.309 C-157.072 192.273 -150.685 171.233 -144.312 150.188 C-152.233 149.857 -160.153 149.528 -168.312 149.188 C-166.459 139.921 -165.023 133.251 -158.688 126.312 C-154.924 123.943 -151.258 122.576 -147.066 121.145 C-144.61 120.291 -142.242 119.387 -139.875 118.312 C-139.577 118.18 -139.577 118.18 -138.066 117.508 C-133.221 113.86 -131.347 108.083 -129.613 102.5 C-129.126 100.992 -128.639 99.485 -128.152 97.977 C-128.028 97.586 -128.028 97.586 -127.398 95.607 C-118.58 68.002 -108.931 38.181 -89.312 16.188 C-88.451 15.217 -87.59 14.246 -86.703 13.246 C-66.099 -8.638 -26.251 -18.679 0 0 Z " fill="#191817" transform="translate(2835.3125,799.8125)"/>
<path d="M0 0 C24.09 0 48.18 0 73 0 C69.625 13.499 69.625 13.499 68.113 18.443 C67.769 19.571 67.425 20.7 67.071 21.863 C66.887 22.461 66.887 22.461 65.957 25.488 C65.557 26.8 65.156 28.112 64.756 29.423 C63.897 32.24 63.035 35.056 62.173 37.872 C60.781 42.415 59.393 46.959 58.006 51.504 C56.53 56.338 55.055 61.172 53.578 66.005 C48.536 82.508 43.521 99.019 38.509 115.53 C35.98 123.862 33.449 132.193 30.918 140.523 C30.669 141.343 30.42 142.163 30.163 143.008 C25.1 159.674 20.031 176.337 14.959 193.001 C14.314 195.119 13.67 197.237 13.025 199.355 C8.634 213.782 4.241 228.209 -0.155 242.636 C-5.777 261.088 -11.395 279.542 -17 298 C-17.346 299.141 -17.693 300.282 -18.05 301.458 C-19.846 307.375 -21.638 313.294 -23.423 319.216 C-23.922 320.871 -24.423 322.526 -24.924 324.181 C-31.294 345.209 -31.294 345.209 -31.25 352.938 C-31.255 353.854 -31.26 354.771 -31.266 355.715 C-31 358 -31 358 -29 360 C-22.433 360.938 -18.142 358.817 -13 355 C-6.176 349.058 -0.15 342.439 5 335 C7.361 336.97 9.688 338.974 12 341 C12.606 341.526 13.212 342.052 13.836 342.594 C15.5 344.125 15.5 344.125 18 347 C17.002 358.897 1.667 373.603 -7 381 C-19.815 390.292 -31.673 394.365 -47.438 394.312 C-47.924 394.321 -47.924 394.321 -50.385 394.361 C-60.979 394.368 -69.785 391.835 -78 385 C-85.15 376.909 -85.807 365.522 -85.189 355.198 C-83.717 338.09 -77.76 321.466 -72.713 305.168 C-71.595 301.55 -70.489 297.928 -69.382 294.307 C-67.522 288.229 -65.657 282.152 -63.788 276.076 C-61.127 267.425 -58.488 258.769 -55.855 250.109 C-55.646 249.42 -55.436 248.73 -55.22 248.02 C-54.371 245.226 -53.522 242.432 -52.673 239.638 C-51.164 234.673 -49.653 229.707 -48.141 224.742 C-47.923 224.027 -47.705 223.313 -47.481 222.576 C-47.038 221.122 -46.595 219.668 -46.153 218.214 C-40.092 198.312 -34.046 178.406 -28 158.5 C-21.977 138.669 -15.953 118.839 -9.918 99.012 C-9.673 98.208 -9.429 97.404 -9.177 96.576 C-6.839 88.897 -4.501 81.218 -2.163 73.539 C-1.32 70.77 -0.477 68.002 0.366 65.233 C0.934 63.368 1.503 61.502 2.071 59.636 C2.743 57.429 3.414 55.221 4.083 53.013 C4.682 51.043 5.288 49.076 5.901 47.111 C6.173 46.23 6.445 45.35 6.725 44.443 C6.962 43.685 7.199 42.928 7.443 42.147 C8.379 38.537 8.449 35.721 8 32 C6.304 29.527 4.6 28.329 1.988 26.898 C1.27 26.499 0.552 26.099 -0.188 25.688 C-0.882 25.341 -1.577 24.994 -2.293 24.637 C-4 23 -4 23 -5 16 C-3.35 10.72 -1.7 5.44 0 0 Z " fill="#191817" transform="translate(2894,799)"/>
<path d="M0 0 C7.44 7.693 9.575 16.75 9.438 27.219 C8.916 39.136 4.526 51.339 -4.285 59.652 C-12.322 65.829 -21.039 67.569 -31.035 66.277 C-35.938 64.68 -39.348 61.633 -42.035 57.277 C-46.035 47.727 -46.035 47.727 -46.035 44.277 C-69.648 53.965 -83.722 88.474 -93.035 110.277 C-94.554 114.138 -95.971 118.03 -97.363 121.938 C-97.751 123.022 -98.139 124.107 -98.539 125.225 C-102.56 136.585 -106.147 148.065 -109.66 159.59 C-110.365 161.888 -111.071 164.185 -111.777 166.483 C-121.972 199.714 -131.993 233 -142.035 266.277 C-159.525 266.277 -177.015 266.277 -195.035 266.277 C-191.66 252.778 -191.66 252.778 -189.945 247.194 C-189.752 246.563 -189.752 246.563 -188.775 243.37 C-188.359 242.022 -187.943 240.673 -187.527 239.324 C-187.084 237.88 -186.642 236.435 -186.199 234.991 C-185.26 231.926 -184.319 228.861 -183.376 225.797 C-181.893 220.973 -180.414 216.146 -178.937 211.319 C-174.912 198.169 -170.881 185.021 -166.836 171.876 C-165.105 166.251 -163.381 160.623 -161.66 154.994 C-160.967 152.733 -160.272 150.473 -159.573 148.214 C-155.807 136.029 -152.303 123.81 -149.184 111.441 C-149.039 110.872 -149.039 110.872 -148.309 107.991 C-143.835 89.878 -138.131 65.333 -146.785 47.715 C-150.024 44.206 -152.934 43.654 -157.539 42.828 C-158.425 42.667 -159.31 42.506 -160.223 42.34 C-161.062 42.207 -161.901 42.074 -162.766 41.938 C-165.346 41.187 -166.361 40.345 -168.035 38.277 C-169.568 35.212 -169.138 32.01 -169.098 28.652 C-169.093 27.946 -169.089 27.24 -169.084 26.512 C-169.072 24.767 -169.054 23.022 -169.035 21.277 C-168.479 21.137 -167.922 20.998 -167.349 20.854 C-145.88 15.392 -126.447 8.079 -107.084 -2.726 C-105.072 -3.705 -103.219 -4.268 -101.035 -4.723 C-89.414 12.134 -91.483 31.307 -93.323 50.763 C-93.87 56.635 -94.133 62.38 -94.035 68.277 C-93.882 67.961 -93.882 67.961 -93.108 66.36 C-84.291 48.207 -75.439 30.508 -62.035 15.277 C-61.477 14.576 -60.919 13.875 -60.344 13.152 C-51.852 2.676 -40.576 -4.338 -27.535 -7.598 C-17.055 -7.972 -8.242 -6.977 0 0 Z " fill="#191817" transform="translate(2618.03515625,919.72265625)"/>
<path d="M0 0 C1.252 0.005 2.503 0.01 3.793 0.016 C4.125 0.017 4.125 0.017 5.806 0.02 C7.936 0.026 10.065 0.038 12.195 0.051 C13.636 0.056 15.077 0.061 16.517 0.065 C20.056 0.076 23.594 0.093 27.133 0.114 C30.701 8.472 33.429 17.067 36.125 25.735 C36.598 27.244 37.071 28.754 37.544 30.263 C38.785 34.222 40.021 38.182 41.256 42.142 C42.495 46.112 43.738 50.08 44.98 54.049 C46.644 59.364 48.307 64.68 49.968 69.996 C53.003 79.708 56.057 89.414 59.133 99.114 C62.107 91.998 64.602 84.812 66.89 77.449 C67.235 76.35 67.58 75.251 67.936 74.118 C68.669 71.78 69.401 69.441 70.13 67.102 C71.266 63.461 72.407 59.822 73.549 56.183 C76.854 45.644 80.142 35.1 83.402 24.547 C83.867 23.045 84.333 21.542 84.798 20.04 C85.626 17.367 86.447 14.692 87.264 12.015 C87.621 10.858 87.979 9.701 88.347 8.508 C88.648 7.527 88.948 6.546 89.257 5.535 C90.133 3.114 90.133 3.114 92.133 0.114 C94.838 -0.227 94.838 -0.227 98.234 -0.179 C99.446 -0.17 100.658 -0.16 101.906 -0.15 C103.177 -0.125 104.448 -0.1 105.758 -0.074 C107.036 -0.06 108.315 -0.047 109.633 -0.033 C112.8 0.002 115.966 0.052 119.133 0.114 C119.463 0.774 119.463 0.774 121.133 4.114 C117.682 7.288 114.682 7.513 110.133 8.114 C108.658 11.062 108.949 14.054 108.929 17.289 C108.923 18.054 108.916 18.819 108.909 19.606 C108.891 22.213 108.885 24.819 108.883 27.426 C108.881 28.33 108.879 29.233 108.876 30.164 C108.866 50.126 109.694 70.051 110.57 89.989 C110.604 90.767 110.638 91.545 110.672 92.347 C110.869 96.875 111.071 101.403 111.281 105.93 C111.345 107.326 111.409 108.721 111.471 110.116 C111.558 112.042 111.651 113.968 111.744 115.894 C111.795 116.979 111.846 118.064 111.898 119.182 C112.133 122.114 112.133 122.114 113.133 127.114 C114.948 127.609 114.948 127.609 124.133 130.114 C124.133 131.764 124.133 133.414 124.133 135.114 C110.273 135.114 96.413 135.114 82.133 135.114 C81.968 134.289 81.968 134.289 81.133 130.114 C85.463 128.814 89.647 127.77 94.133 127.114 C97.47 109.827 94.853 90.509 94.333 72.935 C94.217 69.009 94.106 65.082 93.997 61.156 C93.911 58.088 93.822 55.02 93.732 51.952 C93.69 50.505 93.649 49.058 93.609 47.611 C93.371 39.084 92.951 30.606 92.133 22.114 C84.165 44.816 76.599 67.621 69.508 90.614 C69.167 91.712 68.826 92.81 68.475 93.942 C61.499 116.468 61.499 116.468 59.53 127.141 C58.578 131.809 58.578 131.809 56.021 133.557 C55.398 133.741 54.775 133.924 54.133 134.114 C51.293 131.274 50.763 127.89 49.726 124.114 C49.233 122.368 48.74 120.623 48.247 118.878 C47.985 117.941 47.723 117.005 47.453 116.04 C41.978 96.512 36.132 77.104 30.11 57.739 C29.509 55.807 28.91 53.874 28.311 51.942 C27.179 48.294 26.043 44.647 24.906 41 C24.569 39.916 24.232 38.831 23.885 37.713 C22.128 32.108 20.258 26.59 18.133 21.114 C16.522 43.106 15.533 65.067 15.133 87.114 C15.109 88.361 15.086 89.609 15.062 90.895 C15.007 94.281 14.97 97.665 14.945 101.051 C14.932 102.008 14.919 102.965 14.906 103.951 C14.885 120.742 14.885 120.742 19.133 127.114 C21.953 128.063 21.953 128.063 25.258 128.801 C26.353 129.052 27.449 129.304 28.578 129.563 C29.421 129.745 30.264 129.926 31.133 130.114 C30.803 131.764 30.473 133.414 30.133 135.114 C17.923 135.114 5.713 135.114 -6.867 135.114 C-6.867 133.464 -6.867 131.814 -6.867 130.114 C-5.41 129.61 -3.952 129.111 -2.492 128.614 C-1.68 128.335 -0.868 128.057 -0.031 127.77 C2.133 127.114 2.133 127.114 4.133 127.114 C5.684 122.22 6.457 117.85 6.73 112.688 C6.769 111.993 6.808 111.297 6.848 110.581 C6.972 108.322 7.084 106.061 7.195 103.801 C7.278 102.203 7.361 100.604 7.445 99.006 C7.609 95.819 7.768 92.631 7.921 89.443 C8.092 85.901 8.283 82.361 8.48 78.821 C9.682 55.286 9.22 31.671 9.133 8.114 C7.153 7.784 7.153 7.784 -2.867 6.114 C-3.197 4.464 -3.527 2.814 -3.867 1.114 C-2.867 0.114 -2.867 0.114 0 0 Z " fill="#191817" transform="translate(2782.867431640625,3569.886474609375)"/>
<path d="M0 0 C1.252 0.005 2.503 0.01 3.793 0.016 C4.125 0.017 4.125 0.017 5.806 0.02 C7.936 0.026 10.065 0.038 12.195 0.051 C13.636 0.056 15.077 0.061 16.517 0.065 C20.056 0.076 23.594 0.093 27.133 0.114 C30.792 7.802 33.361 15.724 35.871 23.84 C36.319 25.274 36.767 26.709 37.216 28.143 C38.393 31.91 39.564 35.68 40.734 39.45 C41.901 43.206 43.075 46.96 44.248 50.715 C49.277 66.827 54.249 82.956 59.133 99.114 C60.997 96.316 61.842 94.277 62.837 91.112 C63 90.599 63 90.599 63.823 88.003 C64.171 86.886 64.52 85.768 64.879 84.617 C65.246 83.452 65.613 82.288 65.992 81.087 C66.78 78.584 67.566 76.081 68.35 73.576 C69.366 70.326 70.387 67.078 71.41 63.831 C75.227 51.717 79.014 39.595 82.664 27.43 C82.92 26.579 83.176 25.729 83.439 24.852 C84.597 21.001 85.744 17.148 86.871 13.288 C87.269 11.951 87.667 10.614 88.066 9.278 C88.397 8.148 88.727 7.018 89.068 5.854 C90.685 1.691 90.685 1.691 93.133 0.114 C95.952 -0.227 95.952 -0.227 99.332 -0.179 C99.936 -0.175 99.936 -0.175 102.994 -0.15 C103.625 -0.138 103.625 -0.138 106.82 -0.074 C107.457 -0.067 107.457 -0.067 110.681 -0.033 C113.832 0.002 116.982 0.052 120.133 0.114 C120.298 0.939 120.298 0.939 121.133 5.114 C117.598 7.234 114.189 7.646 110.133 8.114 C109.001 11.507 108.997 14.1 108.987 17.678 C108.984 18.343 108.982 19.008 108.979 19.693 C108.974 21.909 108.978 24.124 108.984 26.34 C108.985 27.11 108.986 27.879 108.987 28.672 C109.016 45.97 109.588 63.241 110.304 80.523 C110.479 84.741 110.639 88.961 110.795 93.18 C110.919 96.483 111.051 99.786 111.186 103.088 C111.249 104.647 111.309 106.206 111.366 107.765 C111.445 109.916 111.536 112.066 111.63 114.217 C111.679 115.432 111.728 116.648 111.778 117.9 C112.124 121.037 112.681 123.32 114.133 126.114 C116.48 127.336 116.48 127.336 119.195 128.176 C121.918 129.024 121.918 129.024 124.133 130.114 C125.004 132.172 125.004 132.172 125.133 134.114 C124.133 135.114 124.133 135.114 120.164 135.227 C118.392 135.227 116.619 135.221 114.847 135.211 C113.917 135.21 112.986 135.208 112.027 135.207 C109.041 135.201 106.056 135.189 103.07 135.176 C101.051 135.171 99.032 135.166 97.013 135.162 C92.053 135.151 87.093 135.134 82.133 135.114 C81.968 134.289 81.968 134.289 81.133 130.114 C81.648 129.969 81.648 129.969 84.258 129.239 C84.892 129.054 85.526 128.87 86.179 128.68 C87.952 128.166 89.729 127.67 91.508 127.176 C92.374 126.825 93.24 126.475 94.133 126.114 C95.203 122.902 95.261 120.596 95.263 117.219 C95.265 116.003 95.267 114.787 95.268 113.535 C95.264 112.198 95.259 110.861 95.254 109.524 C95.252 108.841 95.251 108.159 95.25 107.455 C95.215 91.851 94.78 76.262 94.264 60.667 C94.17 57.789 94.084 54.912 93.997 52.034 C93.912 49.228 93.822 46.421 93.732 43.615 C93.669 41.662 93.61 39.709 93.551 37.756 C93.511 36.575 93.471 35.394 93.43 34.178 C93.396 33.148 93.363 32.117 93.329 31.056 C93.127 28.023 92.681 25.102 92.133 22.114 C85.475 41.713 79.026 61.376 72.802 81.117 C72.116 83.289 71.429 85.461 70.74 87.632 C66.276 101.709 62.235 115.832 58.676 130.167 C58.133 132.114 58.133 132.114 57.133 134.114 C55.236 133.878 55.236 133.878 53.133 133.114 C52.159 131.297 52.159 131.297 51.483 128.89 C51.22 127.989 50.957 127.087 50.687 126.159 C50.416 125.169 50.146 124.18 49.867 123.16 C49.256 121.041 48.645 118.922 48.033 116.803 C47.72 115.698 47.408 114.593 47.086 113.455 C45.564 108.119 43.945 102.814 42.336 97.504 C41.685 95.342 41.034 93.179 40.385 91.017 C33.46 67.998 26.431 45.017 19.133 22.114 C16.22 25.026 17.313 32.798 17.07 36.864 C17.048 37.229 17.048 37.229 16.937 39.077 C15.999 55.449 15.876 71.836 15.828 88.23 C15.82 90.297 15.807 92.364 15.792 94.431 C15.765 98.36 15.765 102.29 15.769 106.219 C15.76 107.401 15.751 108.583 15.742 109.801 C15.777 116.255 16.199 121.308 19.133 127.114 C22.051 128.551 22.051 128.551 25.32 129.114 C26.407 129.32 27.493 129.526 28.613 129.739 C29.029 129.8 29.029 129.8 31.133 130.114 C30.803 131.764 30.473 133.414 30.133 135.114 C18.253 135.114 6.373 135.114 -5.867 135.114 C-6.197 133.464 -6.527 131.814 -6.867 130.114 C-6.18 129.967 -5.493 129.82 -4.785 129.668 C-4.335 129.556 -4.335 129.556 -2.055 128.989 C-1.608 128.884 -1.608 128.884 0.652 128.356 C4.292 126.533 4.817 124.974 6.133 121.114 C6.767 117.065 6.982 113.016 7.195 108.926 C7.27 107.636 7.346 106.346 7.423 105.017 C8.263 89.957 8.736 74.875 9.258 59.801 C9.302 58.521 9.347 57.241 9.393 55.923 C10.203 32.276 10.203 32.276 10.25 20.571 C10.252 20.213 10.252 20.213 10.265 18.404 C10.258 15.051 9.955 12.404 9.133 9.114 C7.153 8.619 7.153 8.619 -2.867 6.114 C-3.197 4.464 -3.527 2.814 -3.867 1.114 C-2.867 0.114 -2.867 0.114 0 0 Z " fill="#191817" transform="translate(1598.867431640625,3569.886474609375)"/>
<path d="M0 0 C9.9 0 19.8 0 30 0 C32.51 5.647 34.671 10.67 36.486 16.469 C36.703 17.157 36.92 17.844 37.143 18.553 C37.849 20.795 38.548 23.04 39.246 25.285 C39.744 26.871 40.242 28.456 40.74 30.042 C42.046 34.201 43.346 38.363 44.645 42.525 C45.953 46.713 47.267 50.898 48.58 55.084 C50.294 60.548 52.006 66.012 53.713 71.477 C54.155 72.892 54.598 74.307 55.041 75.722 C56.174 79.343 57.298 82.966 58.411 86.593 C58.526 86.964 58.526 86.964 59.104 88.841 C59.541 90.26 59.976 91.679 60.408 93.1 C61.888 97.888 61.888 97.888 63 99 C68.838 81.796 74.309 64.496 79.625 47.125 C87.843 20.293 87.843 20.293 91.398 9.43 C91.517 9.061 91.517 9.061 92.117 7.194 C93.764 2.236 93.764 2.236 96 0 C98.706 -0.227 98.706 -0.227 102.102 -0.195 C103.313 -0.189 104.525 -0.182 105.773 -0.176 C107.044 -0.159 108.315 -0.142 109.625 -0.125 C110.904 -0.116 112.182 -0.107 113.5 -0.098 C116.667 -0.074 119.833 -0.041 123 0 C123.165 0.825 123.165 0.825 124 5 C120.466 7.12 117.056 7.532 113 8 C111.312 13.063 111.838 18.359 111.852 23.66 C111.854 24.979 111.856 26.297 111.858 27.656 C111.924 43.848 112.536 60.026 113.172 76.204 C113.345 80.625 113.505 85.047 113.662 89.47 C113.787 92.925 113.919 96.379 114.054 99.834 C114.116 101.466 114.176 103.099 114.233 104.732 C114.313 106.995 114.404 109.258 114.498 111.521 C114.546 112.801 114.595 114.081 114.646 115.399 C115.016 119.16 115.742 122.437 117 126 C119.094 127.305 119.094 127.305 121.5 127.875 C121.897 127.977 121.897 127.977 123.906 128.492 C124.597 128.66 125.288 128.827 126 129 C126.66 129.33 127.32 129.66 128 130 C127.67 131.65 127.34 133.3 127 135 C113.14 135 99.28 135 85 135 C84.835 134.175 84.835 134.175 84 130 C84.422 129.909 84.422 129.909 86.555 129.449 C87.103 129.324 87.103 129.324 89.875 128.688 C90.966 128.444 92.056 128.2 93.18 127.949 C96 127 96 127 98 124 C98.259 121.063 98.259 121.063 98.266 117.355 C98.268 116.662 98.271 115.968 98.274 115.254 C98.278 112.898 98.265 110.543 98.25 108.188 C98.248 107.371 98.246 106.555 98.244 105.714 C98.192 88.387 97.675 71.069 97.129 53.752 C97.062 51.619 96.997 49.486 96.931 47.353 C96.806 43.331 96.672 39.31 96.535 35.289 C96.497 34.062 96.458 32.834 96.418 31.57 C96.378 30.453 96.338 29.336 96.297 28.186 C96.264 27.204 96.231 26.223 96.196 25.212 C96 23 96 23 95 22 C76.118 78.968 76.118 78.968 69.562 101.188 C69.35 101.906 69.138 102.624 68.919 103.364 C66.404 111.898 64.049 120.468 61.812 129.079 C61 132 61 132 60 134 C58.099 133.766 58.099 133.766 56 133 C55.053 131.173 55.053 131.173 54.41 128.738 C54.156 127.818 53.902 126.898 53.64 125.95 C53.376 124.933 53.112 123.916 52.84 122.867 C52.231 120.657 51.62 118.447 51.007 116.237 C50.684 115.058 50.361 113.88 50.028 112.665 C48.456 107.061 46.751 101.5 45.037 95.938 C44.436 93.989 43.837 92.038 43.239 90.088 C42.22 86.767 41.199 83.447 40.178 80.127 C39.156 76.802 38.136 73.477 37.115 70.152 C34.746 62.434 32.374 54.717 30 47 C29.803 46.359 29.606 45.719 29.403 45.058 C26.936 37.039 24.468 29.019 22 21 C20.337 27.269 20.301 33.797 19.938 40.25 C19.893 41.028 19.849 41.806 19.804 42.608 C18.908 59.024 18.778 75.438 18.75 91.875 C18.747 92.497 18.747 92.497 18.735 95.646 C18.723 99.22 18.726 102.793 18.734 106.367 C18.73 107.439 18.726 108.51 18.722 109.614 C18.802 122.45 18.802 122.45 22.562 126.812 C25.655 128.319 28.688 128.843 32.074 129.375 C32.71 129.581 33.345 129.787 34 130 C34.33 130.99 34.66 131.98 35 133 C34.67 133.66 34.34 134.32 34 135 C21.79 135 9.58 135 -3 135 C-3.33 133.35 -3.66 131.7 -4 130 C-3.313 129.853 -2.626 129.706 -1.918 129.555 C-1.467 129.443 -1.467 129.443 0.812 128.875 C1.259 128.771 1.259 128.771 3.52 128.242 C7.122 126.438 7.677 124.798 9 121 C9.624 117.368 9.849 113.739 10.062 110.062 C10.138 108.897 10.213 107.732 10.291 106.532 C11.111 92.824 11.606 79.097 12.125 65.375 C12.17 64.22 12.214 63.064 12.26 61.874 C12.746 49.075 13.083 36.285 13.117 23.477 C13.12 22.922 13.12 22.922 13.133 20.115 C13.131 19.093 13.13 18.071 13.128 17.018 C13.128 16.119 13.128 15.219 13.127 14.293 C13 12 13 12 12 9 C9.221 8.077 6.433 7.536 3.566 6.941 C1 6 1 6 -0.41 4.027 C-1 2 -1 2 0 0 Z " fill="#191817" transform="translate(1953,3570)"/>
<path d="M0 0 C10.401 10.01 15.682 24.034 15.988 38.418 C16.458 66.253 10.672 91.69 -8.949 112.531 C-9.708 113.305 -10.468 114.078 -11.25 114.875 C-11.937 115.587 -12.624 116.298 -13.332 117.031 C-23.239 126.589 -35.553 131.793 -49.312 131.898 C-59.579 131.401 -68.78 128.087 -76.25 120.875 C-88.323 106.519 -91.483 86.755 -89.977 68.574 C-87.739 48.58 -80.815 29.741 -68.25 13.875 C-67.943 13.486 -67.943 13.486 -66.387 11.516 C-57.133 0.463 -44.654 -6.974 -30.293 -8.906 C-18.658 -9.743 -8.99 -7.595 0 0 Z M-49.25 10.875 C-61.244 26.489 -67.555 44.967 -72.25 63.875 C-72.518 64.915 -72.786 65.956 -73.062 67.027 C-74.522 73.931 -74.479 80.971 -74.562 88 C-74.58 89.014 -74.598 90.029 -74.617 91.073 C-74.605 101.593 -72.269 111.634 -64.77 119.41 C-59.054 124.45 -53.794 125.39 -46.383 125.254 C-41.305 124.64 -37.49 122.647 -33.25 119.875 C-32.943 119.675 -32.943 119.675 -31.391 118.664 C-11.388 103.525 -3.068 70.44 0.309 46.996 C2.008 32.664 1.459 18.456 -6.566 6.008 C-9.744 1.983 -13.355 -0.493 -18.25 -2.125 C-32.239 -3.292 -39.81 0.642 -49.25 10.875 Z " fill="#191817" transform="translate(1876.25,3576.125)"/>
<path d="M0 0 C4.202 -0.833 8.476 -0.741 12.75 -0.812 C13.931 -0.883 15.112 -0.953 16.328 -1.025 C24.786 -1.163 24.786 -1.163 27.918 1.838 C29.524 4.484 30.758 7.165 32 10 C33.119 12.035 34.256 14.059 35.41 16.074 C36.629 18.278 37.846 20.482 39.062 22.688 C40.396 25.097 41.731 27.506 43.066 29.914 C43.4 30.515 43.733 31.117 44.076 31.736 C51.838 45.731 59.765 59.632 67.75 73.5 C68.34 74.526 68.929 75.551 69.537 76.608 C72.883 82.403 76.283 88.162 79.731 93.896 C80.144 94.583 80.557 95.27 80.982 95.978 C81.987 97.652 82.994 99.326 84 101 C84.046 89.595 84.082 78.191 84.104 66.786 C84.114 61.49 84.128 56.195 84.151 50.899 C84.173 45.79 84.185 40.681 84.19 35.572 C84.193 33.621 84.201 31.671 84.211 29.72 C84.226 26.991 84.228 24.262 84.227 21.532 C84.231 21.128 84.231 21.128 84.249 19.082 C84.223 11.965 84.223 11.965 82 9 C79.398 7.953 79.398 7.953 76.375 7.25 C75.372 7.008 74.369 6.765 73.336 6.516 C72.565 6.345 71.794 6.175 71 6 C70.618 4.344 70.286 2.675 70 1 C71 0 71 0 74.326 -0.114 C75.802 -0.113 77.278 -0.108 78.754 -0.098 C79.529 -0.096 80.305 -0.095 81.104 -0.093 C83.59 -0.088 86.076 -0.075 88.562 -0.062 C90.244 -0.057 91.926 -0.053 93.607 -0.049 C97.738 -0.038 101.869 -0.021 106 0 C106.165 0.825 106.165 0.825 107 5 C103.683 6.935 100.556 7.509 96.805 8.047 C95 9 95 9 93.907 11.306 C92.614 16.57 92.691 21.661 92.681 27.064 C92.671 28.274 92.661 29.485 92.651 30.732 C92.625 34.037 92.608 37.342 92.595 40.648 C92.58 44.107 92.553 47.566 92.527 51.026 C92.481 57.57 92.444 64.115 92.411 70.66 C92.372 78.113 92.323 85.566 92.273 93.02 C92.169 108.347 92.08 123.673 92 139 C87.202 138.238 87.202 138.238 85.385 136.096 C84.92 135.261 84.456 134.426 83.977 133.566 C83.438 132.621 82.9 131.676 82.346 130.702 C81.778 129.666 81.21 128.63 80.625 127.562 C79.376 125.353 78.128 123.143 76.879 120.934 C76.238 119.786 75.598 118.639 74.938 117.457 C71.868 111.981 68.71 106.556 65.562 101.125 C64.304 98.943 63.046 96.761 61.789 94.578 C61.164 93.493 60.539 92.409 59.896 91.291 C58.632 89.097 57.368 86.903 56.104 84.709 C54.216 81.431 52.327 78.153 50.438 74.875 C49.821 73.805 49.204 72.735 48.568 71.632 C43.746 63.275 38.891 54.937 34.006 46.617 C30.709 40.986 27.48 35.321 24.287 29.631 C23.873 28.895 23.459 28.158 23.033 27.399 C22.021 25.6 21.011 23.8 20 22 C19.954 34.396 19.918 46.792 19.896 59.188 C19.886 64.944 19.872 70.7 19.849 76.456 C19.827 82.013 19.815 87.57 19.81 93.126 C19.807 95.245 19.799 97.363 19.789 99.481 C19.774 102.452 19.772 105.422 19.773 108.393 C19.766 109.265 19.759 110.138 19.751 111.037 C19.768 116.071 20.246 120.261 22 125 C25.923 128.448 30.992 129.073 36 130 C36 131.65 36 133.3 36 135 C23.13 135 10.26 135 -3 135 C-2.67 133.35 -2.34 131.7 -2 130 C-1.313 129.841 -0.626 129.683 0.082 129.52 C0.983 129.286 1.884 129.053 2.812 128.812 C3.706 128.592 4.599 128.372 5.52 128.145 C8.894 126.587 9.484 125.415 11 122 C11.441 118.502 11.41 115.028 11.388 111.506 C11.391 110.978 11.391 110.978 11.404 108.306 C11.417 104.819 11.409 101.331 11.398 97.844 C11.4 95.419 11.403 92.994 11.407 90.57 C11.412 85.489 11.405 80.408 11.391 75.328 C11.374 68.814 11.384 62.301 11.402 55.787 C11.413 50.781 11.409 45.774 11.401 40.768 C11.399 38.366 11.402 35.964 11.409 33.562 C11.417 30.206 11.405 26.85 11.388 23.494 C11.394 22.501 11.4 21.507 11.407 20.484 C11.327 11.905 11.327 11.905 8 8 C5.773 7.18 5.773 7.18 3.375 6.875 C0.961 6.555 0.961 6.555 -1 6 C-1.33 5.01 -1.66 4.02 -2 3 C-1.34 2.01 -0.68 1.02 0 0 Z " fill="#191817" transform="translate(2293,3570)"/>
<path d="M0 0 C0.389 -0.002 0.389 -0.002 2.355 -0.015 C4.937 -0.03 7.52 -0.036 10.102 -0.042 C11.889 -0.048 13.677 -0.053 15.464 -0.059 C19.216 -0.07 22.968 -0.076 26.72 -0.079 C31.537 -0.085 36.353 -0.109 41.17 -0.137 C44.863 -0.156 48.556 -0.161 52.249 -0.162 C54.025 -0.165 55.802 -0.174 57.578 -0.187 C60.059 -0.204 62.539 -0.202 65.02 -0.195 C65.759 -0.205 66.498 -0.214 67.26 -0.223 C69.304 -0.206 69.304 -0.206 72.574 0.161 C74.899 3.648 74.832 5.066 74.84 9.185 C74.841 9.778 74.841 9.778 74.848 12.778 C74.84 14.018 74.832 15.258 74.824 16.536 C74.828 17.152 74.828 17.152 74.848 20.271 C74.845 21.459 74.843 22.648 74.84 23.872 C74.838 24.958 74.836 26.044 74.833 27.163 C74.571 30.204 73.859 32.409 72.574 35.161 C70.248 34.212 68.855 33.6 67.481 31.453 C67.205 30.783 66.929 30.113 66.645 29.423 C66.324 28.685 66.003 27.947 65.672 27.187 C65.029 25.641 64.388 24.094 63.75 22.546 C61.14 16.56 58.371 13.177 52.485 10.052 C42.037 6.429 32.176 6.132 21.574 9.161 C21.244 25.661 20.914 42.161 20.574 59.161 C41.678 59.161 41.678 59.161 47.574 56.161 C49.636 53.825 50.373 51.826 51.266 48.872 C51.512 48.06 51.758 47.248 52.012 46.411 C52.217 45.633 52.422 44.854 52.633 44.052 C53.574 42.161 53.574 42.161 55.61 41.333 C55.934 41.305 55.934 41.305 57.574 41.161 C59.103 42.69 58.702 44.06 58.704 46.19 C58.707 47.045 58.71 47.899 58.713 48.779 C58.712 49.244 58.712 49.244 58.707 51.595 C58.708 52.543 58.709 53.491 58.71 54.468 C58.711 56.478 58.709 58.488 58.705 60.498 C58.699 63.582 58.705 66.665 58.711 69.749 C58.711 71.698 58.709 73.646 58.707 75.595 C58.709 76.522 58.711 77.449 58.713 78.404 C58.712 78.833 58.712 78.833 58.704 81.003 C58.703 81.759 58.702 82.516 58.701 83.295 C58.574 85.161 58.574 85.161 57.574 87.161 C55.699 87.021 55.699 87.021 53.574 86.161 C52.449 83.614 52.449 83.614 51.574 80.411 C49.023 72.117 49.023 72.117 45.574 69.161 C40 67.131 35.03 66.913 29.137 67.036 C28.31 67.045 27.483 67.054 26.631 67.063 C24.612 67.087 22.593 67.123 20.574 67.161 C20.667 74.636 20.774 82.111 20.892 89.585 C20.93 92.129 20.965 94.672 20.996 97.215 C21.042 100.869 21.1 104.523 21.16 108.177 C21.172 109.315 21.184 110.454 21.195 111.627 C21.215 112.688 21.235 113.749 21.256 114.842 C21.269 115.774 21.282 116.707 21.296 117.668 C21.593 120.323 22.116 121.932 23.574 124.161 C31.915 129.057 41.069 129.263 50.504 127.665 C56.675 126.005 61.398 123.633 64.906 118.036 C68.265 111.704 70.473 104.995 72.574 98.161 C74.224 97.831 75.874 97.501 77.574 97.161 C77.624 102.091 77.66 107.02 77.684 111.95 C77.694 113.627 77.708 115.304 77.725 116.981 C77.75 119.391 77.761 121.802 77.77 124.212 C77.78 124.962 77.79 125.712 77.801 126.485 C77.802 130.264 77.725 131.935 75.574 135.161 C72.853 135.447 70.359 135.539 67.636 135.502 C66.817 135.502 65.997 135.503 65.153 135.503 C62.436 135.501 59.721 135.478 57.004 135.454 C55.124 135.449 53.243 135.444 51.363 135.441 C46.408 135.43 41.453 135.4 36.498 135.367 C31.444 135.336 26.39 135.323 21.336 135.308 C11.415 135.275 1.495 135.224 -8.426 135.161 C-8.756 133.511 -9.086 131.861 -9.426 130.161 C-8.822 129.991 -8.219 129.821 -7.597 129.646 C-6.798 129.403 -5.999 129.161 -5.176 128.911 C-4.387 128.679 -3.598 128.447 -2.785 128.208 C0.32 126.83 1.562 125.967 3.574 123.161 C4.173 119.496 4.079 115.856 4.029 112.15 C4.029 111.589 4.029 111.589 4.03 108.75 C4.028 105.038 3.996 101.326 3.965 97.614 C3.958 95.042 3.952 92.469 3.948 89.896 C3.934 83.815 3.903 77.735 3.863 71.654 C3.818 64.73 3.796 57.807 3.776 50.883 C3.734 36.642 3.663 22.402 3.574 8.161 C-0.056 7.501 -3.686 6.841 -7.426 6.161 C-7.756 4.511 -8.086 2.861 -8.426 1.161 C-6.467 -0.798 -2.676 0.004 0 0 Z " fill="#191817" transform="translate(2150.425537109375,3569.8388671875)"/>
<path d="M0 0 C5.802 -0.025 11.605 -0.043 17.407 -0.055 C19.382 -0.06 21.357 -0.067 23.332 -0.075 C26.167 -0.088 29.001 -0.093 31.836 -0.098 C32.722 -0.103 33.609 -0.108 34.522 -0.113 C40.772 -0.114 40.772 -0.114 43 1 C43 2.32 43 3.64 43 5 C41.042 5.503 39.084 6.002 37.125 6.5 C36.58 6.639 36.58 6.639 33.82 7.344 C31 8 31 8 29 8 C28.211 10.793 27.872 13.28 27.86 16.179 C27.854 17.004 27.848 17.83 27.842 18.68 C27.841 19.578 27.84 20.475 27.839 21.399 C27.834 22.351 27.829 23.303 27.824 24.283 C27.809 27.432 27.802 30.581 27.797 33.73 C27.791 35.923 27.785 38.115 27.78 40.307 C27.769 44.907 27.763 49.506 27.76 54.105 C27.754 59.985 27.73 65.864 27.702 71.744 C27.683 76.275 27.678 80.805 27.676 85.336 C27.673 87.503 27.665 89.67 27.652 91.836 C27.635 94.876 27.637 97.914 27.644 100.954 C27.634 101.841 27.625 102.728 27.616 103.642 C27.663 110.81 28.707 117.295 33.438 122.875 C33.86 123.226 33.86 123.226 36 125 C36.639 125.557 37.279 126.114 37.938 126.688 C44.925 131.134 53.037 130.668 61 130 C70.066 127.833 74.902 122.97 79.887 115.355 C82.87 109.044 83.293 102.762 83.259 95.909 C83.262 95.038 83.266 94.168 83.269 93.27 C83.278 90.416 83.272 87.561 83.266 84.707 C83.267 82.713 83.269 80.718 83.271 78.724 C83.274 74.555 83.27 70.387 83.261 66.219 C83.249 60.879 83.256 55.54 83.268 50.2 C83.275 46.086 83.273 41.973 83.268 37.859 C83.266 35.89 83.268 33.921 83.273 31.952 C83.278 29.202 83.27 26.452 83.259 23.702 C83.263 22.891 83.267 22.08 83.271 21.245 C83.231 15.857 82.893 11.893 79 8 C76.617 7.367 76.617 7.367 73.875 6.875 C72.965 6.707 72.055 6.54 71.117 6.367 C70.419 6.246 69.72 6.125 69 6 C68.957 4.334 68.959 2.666 69 1 C70 0 70 0 73.235 -0.114 C74.668 -0.113 76.102 -0.108 77.535 -0.098 C77.912 -0.097 77.912 -0.097 79.818 -0.093 C82.233 -0.088 84.648 -0.075 87.062 -0.062 C88.696 -0.057 90.329 -0.053 91.963 -0.049 C95.975 -0.038 99.988 -0.021 104 0 C104.165 0.825 104.165 0.825 105 5 C104.385 5.193 103.77 5.387 103.137 5.586 C102.328 5.846 101.52 6.107 100.688 6.375 C99.887 6.63 99.086 6.885 98.262 7.148 C96 8 96 8 93 10 C91.571 14.393 91.855 19.047 91.858 23.623 C91.856 24.052 91.856 24.052 91.848 26.222 C91.84 28.081 91.835 29.94 91.831 31.799 C91.824 34.752 91.808 37.705 91.79 40.657 C91.738 49.052 91.69 57.447 91.674 65.842 C91.664 70.983 91.634 76.124 91.593 81.265 C91.581 83.213 91.575 85.162 91.578 87.111 C91.59 101.585 91.052 115.506 81 127 C71.668 135.97 60.631 138.116 48 138 C37.852 137.264 27.285 135.092 19.602 127.973 C12.48 119.201 10.863 110.122 10.795 99.253 C10.785 98.277 10.775 97.301 10.765 96.295 C10.733 93.075 10.708 89.856 10.684 86.637 C10.663 84.402 10.642 82.167 10.621 79.932 C10.565 74.055 10.516 68.178 10.468 62.3 C10.418 56.301 10.362 50.302 10.307 44.303 C10.199 32.535 10.098 20.768 10 9 C6.37 7.528 2.725 6.213 -1 5 C-0.67 3.35 -0.34 1.7 0 0 Z " fill="#191817" transform="translate(2613,3570)"/>
<path d="M0 0 C1.75 0.188 1.75 0.188 4 1 C4.564 1.829 5.128 2.659 5.709 3.513 C8 6 8 6 11.15 6.615 C12.39 6.61 13.63 6.605 14.908 6.599 C15.252 6.601 15.252 6.601 16.989 6.611 C19.254 6.618 21.517 6.589 23.781 6.559 C25.358 6.554 26.934 6.552 28.511 6.552 C31.813 6.545 35.115 6.523 38.417 6.487 C42.647 6.442 46.876 6.427 51.107 6.423 C54.362 6.419 57.617 6.404 60.871 6.384 C62.431 6.376 63.991 6.369 65.55 6.364 C67.731 6.355 69.911 6.333 72.092 6.306 C73.332 6.296 74.573 6.285 75.85 6.274 C78.854 6.013 80.517 5.649 83 4 C84.75 1.875 84.75 1.875 86 0 C87.938 0.375 87.938 0.375 90 1 C93.431 7.863 90.729 19.59 90.125 27 C90.047 28.015 89.968 29.031 89.887 30.077 C89.845 30.559 89.845 30.559 89.633 33 C89.559 33.866 89.486 34.733 89.411 35.625 C88.986 38.08 88.227 39.845 87 42 C85.084 41.725 85.084 41.725 83 41 C81.968 38.231 81.188 35.667 80.5 32.812 C78.718 25.604 76.712 19.114 70 15 C66.26 13.753 62.768 13.854 58.875 13.875 C58.134 13.871 57.393 13.867 56.629 13.863 C51.127 13.873 51.127 13.873 50 15 C49.9 16.428 49.869 17.862 49.866 19.294 C49.862 20.221 49.858 21.147 49.853 22.102 C49.854 23.127 49.854 24.152 49.855 25.208 C49.851 26.281 49.848 27.354 49.845 28.46 C49.835 32.029 49.833 35.599 49.832 39.168 C49.829 41.641 49.825 44.114 49.822 46.587 C49.816 51.781 49.814 56.976 49.815 62.17 C49.815 68.827 49.801 75.484 49.784 82.141 C49.773 87.253 49.771 92.365 49.771 97.477 C49.77 99.931 49.766 102.385 49.758 104.839 C49.748 108.275 49.751 111.71 49.757 115.145 C49.751 116.16 49.746 117.175 49.74 118.22 C49.762 123.177 49.898 127.404 52 132 C54.675 133.909 57.558 134.468 60.75 135.125 C61.549 135.293 62.348 135.46 63.172 135.633 C63.775 135.754 64.378 135.875 65 136 C65.562 137.938 65.562 137.938 66 140 C65 141 65 141 63.133 141.12 C62.318 141.118 61.503 141.116 60.664 141.114 C59.743 141.113 58.822 141.113 57.873 141.113 C56.872 141.108 55.871 141.103 54.84 141.098 C53.82 141.096 52.801 141.095 51.75 141.093 C48.479 141.088 45.208 141.075 41.938 141.062 C39.726 141.057 37.514 141.053 35.303 141.049 C29.868 141.038 24.434 141.021 19 141 C18.618 139.344 18.286 137.675 18 136 C20.222 133.778 25.194 134.222 28.215 133.891 C29.134 133.597 30.053 133.303 31 133 C32.726 129.648 33.25 126.856 33.247 123.116 C33.251 122.159 33.256 121.203 33.26 120.218 C33.254 119.181 33.249 118.144 33.243 117.075 C33.245 115.974 33.247 114.873 33.249 113.738 C33.252 110.101 33.242 106.465 33.23 102.828 C33.229 100.304 33.229 97.78 33.229 95.256 C33.228 89.97 33.219 84.685 33.206 79.399 C33.19 73.282 33.185 67.164 33.186 61.047 C33.186 55.164 33.181 49.28 33.173 43.397 C33.17 40.891 33.168 38.386 33.167 35.88 C33.165 32.389 33.156 28.898 33.145 25.407 C33.146 24.362 33.146 23.317 33.147 22.24 C33.142 21.295 33.138 20.35 33.134 19.377 C33.132 18.551 33.13 17.725 33.129 16.874 C33 15 33 15 32 14 C25.414 13.41 18.597 12.984 12.77 16.492 C6.283 22.02 2.99 29.727 0.043 37.531 C-1 40 -1 40 -3 42 C-5.125 41.625 -5.125 41.625 -7 41 C-6.738 31.746 -5.792 22.846 -4.062 13.75 C-3.893 12.845 -3.723 11.941 -3.548 11.009 C-2.754 7.002 -1.961 3.614 0 0 Z " fill="#191817" transform="translate(2463,3564)"/>
</svg>
