<?xml version="1.0" encoding="UTF-8"?>
<!-- Generator: visioncortex VTracer 0.6.12 -->
<svg viewBox="0 0 4500 4500" version="1.1" xmlns="http://www.w3.org/2000/svg" width="4500" height="4500">
<path d="M0 0 C0.075 0.62 0.15 1.24 0.227 1.879 C1.227 8.616 3.156 14.397 6.055 20.52 C8.302 25.586 7.985 28.711 7 34 C6.896 34.812 6.791 35.624 6.684 36.461 C6.602 37.093 6.521 37.724 6.438 38.375 C6 42 6 42 6 44 C6.454 44.031 6.454 44.031 8.75 44.188 C12 45 12 45 14.25 47.062 C19.568 55.989 18.272 65.696 16.5 75.5 C16.357 76.322 16.214 77.145 16.066 77.992 C15.717 79.996 15.359 81.998 15 84 C9.848 84.109 5.067 84 0 82.938 C-6.717 81.75 -12.068 81.534 -18.25 84.625 C-21.55 87.475 -23.618 90.356 -26 94 C-31.251 92.61 -33.873 89.196 -37 85 C-39.075 80.85 -38.726 76.489 -38 72 C-36.147 67.049 -33.512 62.444 -30.975 57.819 C-29.095 54.31 -27.567 50.656 -26 47 C-26.722 46.773 -27.444 46.546 -28.188 46.312 C-33.778 43.703 -36.631 39.566 -39 34 C-40.268 29.661 -40.297 25.429 -40.375 20.938 C-40.412 20.122 -40.45 19.307 -40.488 18.467 C-40.5 17.682 -40.511 16.898 -40.523 16.09 C-40.543 15.377 -40.563 14.664 -40.583 13.929 C-40 12 -40 12 -37.96 10.386 C-34.433 8.734 -30.87 7.692 -27.109 6.738 C-26.737 6.641 -26.737 6.641 -24.851 6.146 C-22.486 5.527 -20.118 4.92 -17.75 4.312 C-16.143 3.893 -14.536 3.473 -12.93 3.053 C-1.218 0 -1.218 0 0 0 Z " fill="#000000" transform="translate(2293,3311)"/>
<path d="M0 0 C7.738 8.08 11.042 17.595 10.828 28.75 C10.456 34.142 9.811 38.453 6.43 42.773 C-0.205 47.9 -5.661 49.046 -13.883 49.086 C-14.555 49.098 -15.227 49.11 -15.92 49.123 C-19.619 49.134 -21.16 49.005 -24.32 46.898 C-25.342 44.389 -26.21 41.976 -27.008 39.398 C-27.233 38.709 -27.458 38.019 -27.689 37.309 C-29.32 32.223 -29.32 32.223 -29.32 29.898 C-30.434 29.96 -31.548 30.022 -32.695 30.086 C-40.351 30.045 -47.24 27.961 -52.852 22.641 C-58.148 16.358 -59.46 9.507 -59.508 1.461 C-59.522 0.369 -59.536 -0.723 -59.551 -1.848 C-59.306 -5.302 -58.747 -7.945 -57.32 -11.102 C-54.446 -12.179 -52.305 -12.71 -49.32 -13.102 C-48.564 -13.223 -47.807 -13.344 -47.027 -13.469 C-29.923 -15.757 -12.919 -11.701 0 0 Z " fill="#000000" transform="translate(2238.3203125,653.1015625)"/>
<path d="M0 0 C8.29 4.831 13.152 16.853 15.75 25.688 C16.201 29.014 16.506 32.34 16.75 35.688 C6.84 41.777 -3.115 47.767 -13.375 53.25 C-14.119 53.655 -14.862 54.059 -15.628 54.476 C-22.167 57.915 -30.738 62.085 -38.25 60.688 C-41.754 57.972 -43.861 54.766 -46.188 51.062 C-48.677 47.176 -50.797 45.278 -55.25 43.688 C-54.736 32.122 -46.599 22.983 -39.25 14.688 C-38.962 14.358 -38.962 14.358 -37.504 12.688 C-28.141 2.629 -13.849 -5.523 0 0 Z " fill="#000000" transform="translate(2304.25,4012.3125)"/>
<path d="M0 0 C9.259 6.856 13.396 16.186 15.754 27.25 C16.322 36.905 16.322 45.598 9.941 53.438 C5.593 57.268 3.098 58.52 -2.695 58.961 C-5.31 58.382 -6.202 57.593 -8.238 55.918 C-12.562 52.656 -16.269 52.989 -21.496 53.375 C-28.298 53.847 -33.344 53.486 -39.059 49.438 C-44.571 42.653 -44.788 35.926 -44.059 27.438 C-41.589 16.912 -36.189 8.206 -27.41 1.879 C-19.143 -3.188 -8.709 -5.067 0 0 Z " fill="#000000" transform="translate(2244.05859375,1600.5625)"/>
<path d="M0 0 C0.482 -0.006 0.482 -0.006 2.922 -0.037 C10.509 -0.052 18.659 0.118 25.5 3.688 C31.371 10.595 33.932 18.435 33.855 27.438 C33.343 33.548 32.386 40.665 29.625 46.188 C24.556 47.877 19.173 47.413 13.868 47.428 C11.792 47.437 9.717 47.468 7.641 47.5 C-4.759 47.6 -16.623 46.549 -26.375 38.188 C-30.981 33.236 -31.842 29.117 -31.789 22.516 C-31.285 18.467 -30.161 14.977 -28.688 11.188 C-28.566 10.864 -28.566 10.864 -27.949 9.228 C-26.754 6.364 -25.574 4.361 -23.23 2.312 C-15.954 -0.554 -7.708 0.005 0 0 Z " fill="#000000" transform="translate(2219.375,878.8125)"/>
<path d="M0 0 C2.396 -0.054 4.791 -0.094 7.188 -0.125 C7.524 -0.133 7.524 -0.133 9.229 -0.176 C13.276 -0.215 16.421 0.054 20 2 C22.214 4.847 23.773 7.334 24.938 10.75 C26 13 26 13 28.133 14.059 C31.379 15.124 34.574 15.717 37.938 16.312 C43.722 17.507 47.104 18.547 51 23 C52.471 27.414 52.828 31.401 52 36 C50.104 39.15 47.663 41.489 45 44 C44.483 44.572 43.966 45.145 43.434 45.734 C35.675 54.213 24.966 62.098 13.32 63.27 C7.704 63.48 0.659 63.512 -4 60 C-6.71 53.822 -6.133 47.562 -5.812 40.938 C-5.763 39.801 -5.713 38.664 -5.662 37.493 C-4.213 8.845 -4.213 8.845 0 0 Z " fill="#000000" transform="translate(2263,3540)"/>
<path d="M0 0 C4.456 3.504 5.852 7.273 7 12.75 C7.623 19.719 5.312 25.16 1.895 31.113 C-2.008 35.141 -8.648 36.538 -13.883 38.102 C-14.527 38.295 -15.171 38.488 -15.835 38.687 C-17.184 39.09 -18.533 39.492 -19.883 39.892 C-21.941 40.501 -23.996 41.117 -26.051 41.734 C-45.484 47.535 -45.484 47.535 -54.625 44.688 C-60.735 41.213 -62.851 36.34 -64.812 29.875 C-66.285 23.985 -65.9 17.906 -65.812 11.875 C-65.536 11.8 -65.536 11.8 -64.139 11.419 C-53.34 8.46 -42.761 5.321 -32.355 1.172 C-22.79 -2.329 -9.37 -5.407 0 0 Z " fill="#000000" transform="translate(2260.8125,2175.125)"/>
<path d="M0 0 C0.57 0.429 1.14 0.859 1.727 1.301 C2.717 2.023 3.707 2.745 4.727 3.488 C7.259 7.05 7.447 9.327 7.199 13.629 C4.406 29.421 -11.316 42.048 -22.879 51.93 C-25.273 53.301 -25.273 53.301 -27.828 53.148 C-38.128 49.578 -43.678 42.116 -48.293 32.633 C-51.564 24.852 -51.855 14.111 -48.711 6.238 C-45.291 -0.067 -40.848 -3.471 -34.023 -5.574 C-22.184 -8.292 -10.131 -7.067 0 0 Z " fill="#000000" transform="translate(2247.2734375,433.69921875)"/>
<path d="M0 0 C6.461 4.011 12.033 8.79 14.133 16.324 C14.855 21.607 14.778 25.845 12.633 30.762 C9.908 33.554 7.516 34.759 4.016 36.348 C0.494 38.174 -1.155 41.229 -3.262 44.469 C-10.456 55.451 -10.456 55.451 -16.492 57.637 C-22.829 58.885 -29.217 59.223 -35.367 57.137 C-38.693 54.726 -40.116 52.305 -41.555 48.512 C-43.794 32.84 -36.929 17.162 -27.969 4.68 C-20.68 -4.153 -10.118 -5.168 0 0 Z " fill="#000000" transform="translate(2241.8671875,1087.67578125)"/>
<path d="M0 0 C5.457 2.471 9.441 5.502 12 11 C12.364 13.058 12.573 15.102 12.772 17.182 C13.748 26.84 13.748 26.84 17.602 30.41 C20.364 31.863 23.048 33 26 34 C27 35 27 35 27.164 38.02 C26.983 42.405 26.328 46.416 25.375 50.688 C25.234 51.433 25.094 52.179 24.949 52.947 C24.031 57.065 23.427 58.638 20.102 61.457 C11.524 65.724 -1.344 65.477 -10.438 62.812 C-17.666 59.135 -19.202 50.499 -21.636 43.229 C-25.121 32.225 -25.666 21.833 -21 11 C-15.992 1.848 -10.44 -2.051 0 0 Z " fill="#000000" transform="translate(2255,3121)"/>
<path d="M0 0 C0.799 -0.021 1.597 -0.041 2.42 -0.062 C7.114 -0.094 10.315 0.11 14.062 3.25 C19.712 10.991 23.494 23.765 22.062 33.25 C19.475 40.594 15.497 45.848 9.062 50.25 C3.175 52.213 -2.859 52.002 -8.625 49.688 C-17.007 45.445 -21.468 38.809 -24.938 30.25 C-26.973 23.964 -27.04 15.558 -25.062 9.25 C-19.287 1.097 -9.234 0.059 0 0 Z " fill="#000000" transform="translate(2297.9375,3786.75)"/>
<path d="M0 0 C6.81 4.488 11.091 10.625 14.062 18.125 C15.886 27.908 15.139 35.778 9.562 44.062 C4.548 48.965 -1.146 51.683 -8.25 51.812 C-14.145 49.881 -18.754 47.278 -22.016 41.902 C-22.505 40.862 -22.995 39.822 -23.5 38.75 C-24 37.707 -24.5 36.664 -25.016 35.59 C-28.247 28.318 -28.558 18.896 -26.566 11.156 C-24.047 5.72 -20.112 2.437 -14.938 -0.5 C-9.744 -1.829 -5.049 -1.845 0 0 Z " fill="#000000" transform="translate(2249.25,2915.1875)"/>
<path d="M0 0 C3.018 2.905 4.45 6.15 6 10 C6.336 10.706 6.673 11.413 7.02 12.141 C10.402 20.234 10.641 30.903 7.438 39.062 C4.242 45.069 -0.608 48.844 -7 51 C-9.727 51.484 -9.727 51.484 -12.625 51.75 C-13.566 51.848 -14.507 51.946 -15.477 52.047 C-20.436 51.981 -25.151 50.992 -30 50 C-29.918 45.583 -29.805 41.167 -29.688 36.75 C-29.665 35.515 -29.642 34.28 -29.619 33.008 C-29.001 11.639 -29.001 11.639 -21.715 4.336 C-15.749 -0.312 -7.306 -1.932 0 0 Z " fill="#000000" transform="translate(2249,2620)"/>
<path d="M0 0 C4.865 4.491 6.258 7.426 6.676 14.008 C6.961 25.206 6.063 34.394 -2.008 42.906 C-5.855 46.231 -9.568 46.408 -14.438 46.125 C-22.347 45.08 -27.41 42.079 -32.434 35.934 C-35.719 31.035 -35.246 24.867 -34.562 19.25 C-32.006 11.663 -28.293 5.66 -21.562 1.25 C-20.676 0.631 -19.789 0.012 -18.875 -0.625 C-12.541 -2.776 -6.041 -2.967 0 0 Z " fill="#000000" transform="translate(2257.5625,2414.75)"/>
<path d="M0 0 C6.873 5.073 9.996 10.562 11.625 18.938 C12.358 25.905 10.613 32.722 6.312 38.312 C1.448 43.064 -2.151 44.129 -8.875 44.312 C-16.154 44.098 -19.989 42.575 -25.062 37.375 C-29.928 31.473 -31.776 25.303 -31.25 17.688 C-30.206 10.726 -27.573 6.722 -22.289 2.234 C-15.681 -2.243 -7.466 -2.35 0 0 Z " fill="#000000" transform="translate(2243.375,1398.0625)"/>
<path d="M0 0 C5.9 2.513 8.927 7.565 12 13 C13.886 18.658 13.911 24.737 11.5 30.25 C8.148 36.143 2.357 39.937 -4 42 C-9.831 42.628 -15.178 42.831 -20.562 40.375 C-25.565 35.501 -28.114 30.902 -28.375 23.938 C-28.291 16.905 -26.051 11.289 -21.25 6.113 C-14.544 0.144 -8.947 -0.926 0 0 Z " fill="#000000" transform="translate(2228,1963)"/>
</svg>
