<?xml version="1.0" encoding="UTF-8"?>
<!-- Generator: visioncortex VTracer 0.6.12 -->
<svg viewBox="0 0 4500 4500" version="1.1" xmlns="http://www.w3.org/2000/svg" width="4500" height="4500">
<path d="M0 0 C1.286 -0.014 2.573 -0.028 3.898 -0.043 C7.639 0.188 10.252 0.563 13.625 2.188 C15.742 4.719 15.742 4.719 17.5 7.688 C17.798 8.177 17.798 8.177 19.305 10.656 C20.625 13.188 20.625 13.188 20.625 15.188 C21.193 14.705 21.762 14.223 22.348 13.727 C28.737 8.5 33.515 5.884 41.938 6.25 C51.985 7.459 59.881 12.829 66.625 20.188 C74.107 29.932 79.22 40.704 77.625 53.188 C76.2 58.996 72.832 63.047 67.887 66.348 C61.843 69.958 57.546 70.334 50.625 69.875 C49.875 69.827 49.125 69.779 48.352 69.73 C35.465 68.83 35.465 68.83 29.625 67.188 C27.756 63.45 27.913 58.805 27.551 54.66 C27.065 49.944 26.271 46.249 23.625 42.188 C21.438 40.812 21.438 40.812 19.625 40.188 C19.599 40.889 19.573 41.59 19.547 42.312 C18.982 51.759 16.777 57.813 9.625 64.188 C8.786 64.82 7.947 65.453 7.082 66.105 C-0.11 71.837 -0.11 71.837 -0.914 75.934 C-0.812 78.75 -0.812 78.75 -0.434 81.316 C-0.317 87.044 -2.501 91.541 -6.344 95.715 C-7.507 96.866 -8.684 98.002 -9.875 99.125 C-10.499 99.73 -11.122 100.335 -11.765 100.958 C-17.05 106.023 -22.617 110.671 -28.375 115.188 C-31.132 117.433 -33.878 119.69 -36.613 121.961 C-38.444 123.437 -40.317 124.86 -42.23 126.227 C-49.476 131.563 -52.962 137.058 -56.719 145.027 C-58.375 148.188 -58.375 148.188 -61.375 150.188 C-67.295 150.827 -74.051 151.397 -79.5 148.625 C-84.567 144.329 -86.43 140.444 -87.312 134 C-87.689 126.969 -86.919 119.684 -82.684 113.863 C-81.469 112.532 -80.229 111.225 -78.961 109.945 C-76.848 107.603 -76.061 105.235 -75.375 102.188 C-76.344 103.074 -77.314 103.961 -78.312 104.875 C-87.404 112.689 -95.534 114.896 -107.375 114.188 C-113.084 113.436 -118.732 112.323 -124.375 111.188 C-125.444 80.661 -125.444 80.661 -115.938 70.457 C-111.463 66.821 -107.291 66.638 -101.664 66.754 C-92.303 67.988 -85.24 73.663 -78.629 80.039 C-76.315 82.244 -73.895 84.223 -71.375 86.188 C-71.313 85.445 -71.251 84.702 -71.188 83.938 C-70.09 80.223 -68.588 79.313 -65.375 77.188 C-61.781 76.211 -61.781 76.211 -57.875 75.562 C-53.448 74.81 -49.48 74.035 -45.375 72.188 C-45.349 71.016 -45.323 69.844 -45.297 68.637 C-44.784 52.541 -41.089 41.361 -30 29.375 C-23.316 22.116 -17.776 14.145 -14.164 4.93 C-13.375 3.188 -13.375 3.188 -11.375 1.188 C-7.692 -0.17 -3.884 0.019 0 0 Z " fill="#000000" transform="translate(2930.375,2661.8125)"/>
<path d="M0 0 C7.598 2.318 12.593 6.953 17.188 13.25 C21.598 19.151 27.29 23.438 33 28 C40.404 34.032 47.334 40.173 49 50 C49.139 53.674 49.12 57.326 49 61 C49.99 60.67 50.98 60.34 52 60 C54.312 55.376 52.24 48.569 50.938 43.75 C49.392 37.57 49.392 37.57 50 34 C53.279 28.562 56.998 26.106 63 24 C73.458 22.762 83.503 24.332 93.692 26.664 C100.493 28.165 105.906 28.844 112.16 25.117 C114.099 23.619 116.037 22.119 117.973 20.617 C121.857 18.542 123.804 18.858 128 20 C130.012 21.172 130.012 21.172 131.688 22.75 C132.355 23.369 133.023 23.988 133.711 24.625 C135.481 26.461 137.14 28.31 138.789 30.25 C144.944 37.442 149.181 42.014 159 43 C159.835 43.093 160.669 43.186 161.529 43.281 C167.678 43.96 173.832 44.522 180 45 C180.818 47.06 181.629 49.123 182.438 51.188 C182.664 51.762 182.664 51.762 183.809 54.668 C186.949 63.45 187.401 73.266 183.965 82.039 C180.689 88.696 175.567 92.051 169 95 C164.28 96.412 159.574 96.184 154.688 96.188 C153.763 96.2 152.838 96.212 151.885 96.225 C145.202 96.239 139.59 96.072 134.188 91.75 C130.439 86.843 130.544 79.932 130 74 C129.273 73.879 128.546 73.758 127.797 73.633 C126.791 73.465 125.786 73.298 124.75 73.125 C123.658 72.946 122.566 72.767 121.441 72.582 C119.216 72.206 116.994 71.809 114.777 71.387 C104.474 69.472 99.178 70.46 90.453 76.406 C83.952 80.63 74.518 79.802 67 79 C63.186 77.878 60.214 76.318 57 74 C56.705 73.791 56.705 73.791 55.211 72.73 C51.969 70.215 49.438 67.281 47 64 C42.722 65.444 39.753 67.616 36.25 70.438 C29.103 75.963 22.721 78.692 13.598 78.34 C2.908 76.941 -6.919 70.931 -14 62.875 C-21.08 52.698 -21.41 42.19 -19.357 30.266 C-18.544 26.056 -17.628 21.87 -16.688 17.688 C-16.533 16.987 -16.378 16.286 -16.219 15.564 C-15.769 13.543 -15.3 11.527 -14.824 9.512 C-14.547 8.331 -14.269 7.149 -13.983 5.932 C-11.559 -1.299 -6.749 -0.742 0 0 Z " fill="#000000" transform="translate(3098,2727)"/>
<path d="M0 0 C1.313 0.027 2.626 0.054 3.979 0.082 C7.217 0.153 10.451 0.251 13.688 0.375 C13.939 1.018 14.191 1.661 14.45 2.323 C16.883 8.479 19.548 14.43 22.418 20.395 C24.328 24.879 24.813 29.031 24.953 33.877 C24.986 34.956 25.02 36.035 25.054 37.146 C25.087 38.304 25.119 39.463 25.152 40.656 C25.231 43.133 25.31 45.609 25.389 48.086 C25.508 51.972 25.624 55.857 25.737 59.743 C25.848 63.506 25.968 67.269 26.09 71.031 C26.12 72.173 26.15 73.316 26.182 74.492 C26.407 81.273 27.097 87.799 28.277 94.482 C29.297 101.673 28.418 107.539 24.188 113.5 C17.048 122.425 8.658 127.226 -2.727 129.094 C-14.842 130.411 -27.49 129.534 -37.5 121.953 C-41.2 118.731 -43.028 116.418 -43.719 111.457 C-44.154 102.168 -41.765 96.128 -36.395 88.734 C-31.746 85.176 -26.893 84.881 -21.188 84.125 C-19.018 83.809 -16.849 83.491 -14.68 83.172 C-13.722 83.041 -12.764 82.911 -11.777 82.776 C-9.312 82.375 -9.312 82.375 -6.312 81.375 C-6.748 80.804 -7.184 80.233 -7.633 79.645 C-18.976 64.202 -23.593 47.924 -23.812 29 C-23.831 28.014 -23.85 27.028 -23.869 26.012 C-23.807 18.823 -22.379 12.88 -19.312 6.375 C-19.024 5.712 -18.736 5.05 -18.439 4.367 C-14.665 -1.999 -6.331 -0.246 0 0 Z " fill="#000000" transform="translate(2024.3125,2129.625)"/>
<path d="M0 0 C11.209 8.362 19.853 19.951 22 34 C22.067 36.27 22.085 38.542 22.062 40.812 C22.053 41.974 22.044 43.135 22.035 44.332 C22.024 45.212 22.012 46.093 22 47 C16.526 50.284 12.001 50.75 5.875 49.602 C-4.275 46.81 -12.403 38.966 -20 32 C-21.32 32.66 -22.64 33.32 -24 34 C-24.627 39.769 -22.743 42.666 -19.562 47.188 C-12.023 58.214 -13.41 69.436 -15.062 82.25 C-15.147 83.072 -15.231 83.894 -15.317 84.74 C-15.654 87.036 -16.012 88.9 -17 91 C-25.23 96.018 -34.018 94.507 -43 92.375 C-52.076 90.045 -60.962 86.447 -67 79 C-68.014 75.958 -68.084 74.011 -68.035 70.836 C-68.043 59.142 -68.543 49.992 -74.179 39.636 C-77.935 32.645 -78.16 26.973 -76.359 19.254 C-74.264 12.844 -70.869 9.235 -65 6 C-57.37 2.256 -47.137 2.937 -39.188 5.5 C-33.335 7.925 -28.689 11.809 -24 16 C-23.743 15.348 -23.487 14.695 -23.223 14.023 C-20.172 7.06 -16.774 3.433 -10 0 C-9.185 -0.423 -8.371 -0.846 -7.531 -1.281 C-4.207 -2.225 -2.997 -1.654 0 0 Z " fill="#000000" transform="translate(1775,1995)"/>
<path d="M0 0 C14 27.36 14 27.36 14 32 C20.972 27.736 25.825 23.07 30.855 16.656 C37.098 8.924 43.182 5.034 53.098 3.723 C59.852 3.387 65.684 5.485 71.25 9.125 C77.947 16.126 80.954 24.299 81.312 33.875 C81.11 42.671 78.417 50.526 72.176 56.848 C66.615 62.006 61.952 64.496 54.145 64.332 C50.842 63.821 48.084 62.405 45.094 60.961 C39.638 58.457 36.027 59.139 30 60 C28.35 52.74 26.7 45.48 25 38 C24.216 39.856 23.432 41.713 22.625 43.625 C22.184 44.669 21.743 45.713 21.289 46.789 C20 50 20 50 19.289 53.219 C18 56 18 56 14.734 57.68 C13.414 58.103 12.085 58.501 10.75 58.875 C10.094 59.086 9.438 59.298 8.762 59.516 C4.761 60.74 1.171 61.447 -3 61 C-4.844 59.996 -4.844 59.996 -6.5 58.438 C-7.172 57.81 -7.843 57.182 -8.535 56.535 C-11.121 53.875 -13.61 51.142 -16.101 48.393 C-23.538 40.221 -29.494 33.81 -41.055 33.043 C-42.703 33.007 -44.352 33 -46 33 C-46 23.76 -46 14.52 -46 5 C-40.253 4.285 -34.506 3.572 -28.758 2.864 C-26.803 2.622 -24.849 2.38 -22.894 2.136 C-20.082 1.786 -17.27 1.439 -14.457 1.094 C-13.586 0.984 -12.715 0.875 -11.818 0.762 C-7.854 0.279 -4.002 -0.143 0 0 Z " fill="#000000" transform="translate(2600,2701)"/>
<path d="M0 0 C2.717 2.503 3.387 3.646 4.375 7.188 C4.469 10.434 4.244 13.638 4 16.875 C3.888 18.587 3.776 20.299 3.664 22.012 C3.609 22.765 3.555 23.519 3.499 24.296 C3.414 25.591 3.375 26.89 3.375 28.188 C4.035 28.394 4.695 28.6 5.375 28.812 C11.032 31.405 17.087 35.18 19.375 41.188 C20.18 47.974 18.333 53.094 15.375 59.188 C15.045 59.517 14.715 59.848 14.375 60.188 C15.244 60.358 16.113 60.528 17.008 60.703 C26.586 62.717 32.493 65.018 38.375 73.188 C42.327 81.487 41.538 91.322 40.375 100.188 C37.191 101.035 34.002 101.863 30.812 102.688 C29.917 102.926 29.022 103.164 28.1 103.41 C20.135 105.452 13.984 106.104 6.441 102.441 C2.515 100.059 0.245 96.852 -1.836 92.871 C-5.331 86.578 -5.331 86.578 -9.535 85.309 C-12.75 84.875 -12.75 84.875 -15.82 84.699 C-19.478 84.032 -20.447 83.202 -22.625 80.188 C-25.782 73.083 -26.815 65.35 -28.086 57.74 C-28.977 52.711 -30.12 48.706 -32.625 44.188 C-32.625 43.527 -32.625 42.868 -32.625 42.188 C-33.264 41.961 -33.904 41.734 -34.562 41.5 C-39.524 39.374 -44.781 37.031 -48.625 33.188 C-49.732 25.579 -46.939 20.367 -42.625 14.188 C-32.222 1.764 -16.174 -9.736 0 0 Z " fill="#000000" transform="translate(1893.625,1397.8125)"/>
<path d="M0 0 C0.988 0.17 1.976 0.34 2.994 0.514 C14.516 2.6 14.516 2.6 17.438 6.062 C22.846 18.425 21.542 32.436 17.75 45.062 C14.574 53.167 11.401 58.554 3.988 63.156 C-2.195 65.66 -10.842 65.073 -16.938 62.5 C-23.458 59.081 -29.612 54.923 -35.625 50.688 C-38.291 49.037 -40.202 48.582 -43.25 48.062 C-43.614 48.775 -43.977 49.488 -44.352 50.223 C-49.561 60.148 -54.195 67.377 -65.25 71.062 C-71.222 72.091 -76.233 71.348 -81.496 68.328 C-86.163 64.96 -89.11 60.762 -90.25 55.062 C-90.24 50.144 -89.532 45.858 -86.25 42.062 C-77.1 35.145 -65.381 34.275 -54.25 35.062 C-52.908 35.359 -51.57 35.68 -50.25 36.062 C-50.41 35.506 -50.57 34.949 -50.734 34.375 C-52.847 24.9 -51.278 13.308 -46.062 5.062 C-35.529 -7.946 -14.131 -2.436 0 0 Z " fill="#000000" transform="translate(2521.25,2345.9375)"/>
<path d="M0 0 C7.85 5.562 15.543 15.61 18.5 24.812 C19.646 32.116 19.06 36.861 15 43 C9.906 49.768 2.56 53.521 -5 57 C-5.66 57 -6.32 57 -7 57 C-6.67 57.66 -6.34 58.32 -6 59 C-5.343 63.357 -4.915 67.745 -4.438 72.125 C-4.299 73.337 -4.16 74.548 -4.018 75.797 C-3.343 81.902 -2.824 87.857 -3 94 C-5.185 95.276 -7.373 96.546 -9.562 97.812 C-10.172 98.169 -10.781 98.525 -11.408 98.893 C-18.831 103.174 -25.22 106.238 -34 105 C-41.346 101.892 -44.858 94.057 -47.812 87 C-50.538 78.889 -50.627 71.814 -47 64 C-46.34 63.01 -45.68 62.02 -45 61 C-45 55.642 -47.615 52.24 -50.625 48.051 C-53.721 43.433 -53.789 38.358 -53 33 C-47.468 19.683 -34.212 9.916 -21.277 4.285 C-6.098 -1.619 -6.098 -1.619 0 0 Z " fill="#000000" transform="translate(2035,2689)"/>
<path d="M0 0 C0.534 0.005 0.534 0.005 3.238 0.027 C4.047 0.039 4.855 0.051 5.688 0.062 C6.221 1.22 6.755 2.378 7.305 3.57 C11.706 12.724 14.984 18.972 24.688 23.062 C35.324 28.139 40.96 33.375 45.5 44.375 C49.105 54.573 50.031 64.299 49.688 75.062 C39.442 78.59 31.871 79.219 21.688 75.062 C19.022 73.626 16.464 72.097 13.914 70.465 C11.688 69.062 11.688 69.062 7.688 67.062 C5.543 70.197 5.543 70.197 -5.312 86.062 C-13.515 84.695 -21.075 81.905 -26.25 75.055 C-30.152 67.738 -27.809 60.21 -26.039 52.586 C-24.444 44.851 -23.915 38.649 -28.25 31.812 C-28.794 31.007 -29.338 30.201 -29.898 29.371 C-32.119 25.746 -32.382 23.318 -32.312 19.062 C-30.6 12.556 -26.829 8.805 -21.312 5.062 C-14.315 1.543 -7.832 -0.086 0 0 Z " fill="#000000" transform="translate(2433.3125,1895.9375)"/>
<path d="M0 0 C14.09 -0.511 28.382 2.539 41.914 6.16 C42.856 6.409 43.798 6.658 44.769 6.915 C45.207 7.038 45.207 7.038 47.422 7.66 C48.194 7.877 48.966 8.093 49.762 8.316 C52.002 9.249 53.206 10.346 54.789 12.16 C54.573 12.708 54.356 13.256 54.133 13.82 C49.508 26.987 51.116 40.135 56.945 52.641 C57.886 54.484 58.836 56.323 59.789 58.16 C59.789 59.15 59.789 60.14 59.789 61.16 C53.478 63.474 47.16 65.769 40.838 68.051 C38.688 68.829 36.539 69.612 34.392 70.4 C31.306 71.531 28.214 72.646 25.121 73.758 C24.163 74.113 23.204 74.468 22.217 74.834 C21.316 75.154 20.415 75.475 19.488 75.805 C18.699 76.091 17.911 76.378 17.099 76.673 C14.315 77.26 12.499 76.99 9.789 76.16 C5.6 72.091 4.001 67.437 3.631 61.719 C3.593 59.05 3.614 56.392 3.664 53.723 C3.705 50.567 3.747 47.411 3.789 44.16 C-4.791 44.16 -13.371 44.16 -22.211 44.16 C-27.288 34.006 -30.703 24.075 -27.148 12.785 C-21.683 5.381 -15.329 2.083 -6.398 0.473 C-4.267 0.281 -2.134 0.155 0 0 Z " fill="#000000" transform="translate(2214.2109375,1761.83984375)"/>
<path d="M0 0 C4.574 0.723 7.307 3.064 10.285 6.453 C13.983 12.487 13.299 20.742 11.789 27.41 C9.635 33.8 6.504 40.972 0.5 44.574 C-2.744 45.881 -5.073 45.875 -8.527 45.391 C-12.619 41.578 -14.653 37.619 -16.527 32.391 C-16.527 31.401 -16.527 30.411 -16.527 29.391 C-19.827 29.721 -23.127 30.051 -26.527 30.391 C-28.177 35.011 -29.827 39.631 -31.527 44.391 C-30.207 44.762 -28.887 45.133 -27.527 45.516 C-20.021 48.033 -14.288 52.32 -10.527 59.391 C-8.911 64.509 -8.557 70.31 -10.84 75.203 C-11.397 75.925 -11.954 76.647 -12.527 77.391 C-12.94 77.948 -13.352 78.504 -13.777 79.078 C-20.044 83.778 -29.116 83.109 -36.527 82.391 C-47.056 80.859 -56.926 77.984 -66.527 73.391 C-67.107 65.788 -66.032 59.326 -63.687 52.139 C-62.137 46.899 -62.978 44.126 -65.527 39.391 C-66.265 38.092 -67.013 36.799 -67.777 35.516 C-70.074 30.904 -69.913 27.292 -68.527 22.391 C-65.412 13.916 -61.051 9.16 -53.465 4.516 C-46.51 1.894 -37.467 2.237 -30.59 4.891 C-26.443 7.026 -23.761 10.123 -20.938 13.781 C-20.472 14.312 -20.007 14.843 -19.527 15.391 C-18.867 15.391 -18.207 15.391 -17.527 15.391 C-17.141 14.643 -16.754 13.895 -16.355 13.125 C-15.835 12.14 -15.314 11.155 -14.777 10.141 C-14.522 9.653 -14.522 9.653 -13.23 7.188 C-9.514 1.084 -6.993 -0.288 0 0 Z " fill="#000000" transform="translate(3047.52734375,2457.609375)"/>
<path d="M0 0 C6.138 8.485 6.01 18.388 6.706 28.453 C7.291 36.654 8.204 43.612 12.125 50.938 C12.455 51.927 12.785 52.918 13.125 53.938 C10.529 58.914 7.811 61.095 2.84 63.559 C2.23 63.865 1.621 64.17 0.993 64.486 C-0.976 65.467 -2.955 66.422 -4.938 67.375 C-6.297 68.042 -7.656 68.708 -9.015 69.375 C-44.082 86.426 -44.082 86.426 -62.492 82.359 C-66.541 80.679 -68.366 78.625 -70.25 74.688 C-70.829 73.117 -71.372 71.534 -71.875 69.938 C-71.987 69.606 -71.987 69.606 -72.555 67.926 C-74.425 61.61 -75.403 54.257 -72.375 48.188 C-66.523 39.904 -57.816 37.175 -48.5 34.25 C-46.156 33.506 -43.815 32.752 -41.477 31.988 C-40.963 31.827 -40.963 31.827 -38.362 31.009 C-35.875 29.938 -35.875 29.938 -33.875 26.938 C-33.289 23.2 -32.921 19.462 -32.535 15.699 C-31.408 9.276 -28.789 5.166 -23.875 0.938 C-16.603 -3.395 -7.235 -5.19 0 0 Z " fill="#000000" transform="translate(1590.875,2639.0625)"/>
<path d="M0 0 C3.848 0.615 5.772 3.099 8.23 5.906 C8.475 6.182 8.475 6.182 9.71 7.576 C14.94 13.715 15.79 17.934 15.418 25.906 C14.457 33.633 12.238 38.331 6.105 43.219 C-2.484 49.406 -2.484 49.406 -5.457 49.406 C-4.764 58.466 -4.764 58.466 -3.395 62.656 C-1.85 68.834 -0.799 76.522 -3.367 82.539 C-6.592 86.666 -10.67 88.844 -15.723 89.863 C-27.13 90.871 -37.845 83.801 -46.395 76.906 C-48.093 75.419 -49.781 73.919 -51.457 72.406 C-52.246 71.748 -53.035 71.089 -53.848 70.41 C-59.735 65.434 -66.871 59.378 -69.273 51.848 C-69.673 46.538 -66.063 41.941 -62.895 37.906 C-57.354 31.79 -49.813 25.47 -41.457 24.406 C-38.091 24.56 -34.789 24.91 -31.457 25.406 C-31.203 24.37 -30.949 23.333 -30.688 22.266 C-30.34 20.896 -29.993 19.526 -29.645 18.156 C-29.479 17.474 -29.313 16.792 -29.143 16.09 C-27.305 8.948 -27.305 8.948 -24.457 6.406 C-21.733 5.237 -18.945 4.471 -16.082 3.719 C-15.327 3.507 -14.571 3.295 -13.793 3.076 C-9.219 1.809 -4.682 0.774 0 0 Z " fill="#000000" transform="translate(1815.45703125,2651.59375)"/>
<path d="M0 0 C4.637 3.798 6.857 7.119 7.492 13.172 C7.595 14.055 7.697 14.939 7.803 15.849 C7.911 16.778 8.018 17.707 8.129 18.664 C9.163 26.51 10.367 32.865 14.816 39.539 C15.558 40.689 16.297 41.84 17.035 42.992 C18.21 44.825 19.39 46.651 20.606 48.457 C25.834 56.304 28.283 63.141 26.816 72.539 C24.264 78.968 20.114 82.557 14.062 85.664 C4.528 89.378 -6.884 88.469 -16.184 84.539 C-23.846 80.413 -28.56 74.406 -31.32 66.227 C-32.729 60.21 -33.325 54.096 -34.044 47.964 C-35.148 38.933 -37.275 31.682 -41.934 23.852 C-44.513 19.349 -45.004 16.71 -44.184 11.539 C-41.412 4.332 -35.719 0.254 -29.184 -3.461 C-19.268 -7.462 -8.866 -5.932 0 0 Z " fill="#000000" transform="translate(2609.18359375,2086.4609375)"/>
<path d="M0 0 C4.643 3.919 7.615 8.567 8.301 14.684 C8.335 22.832 6.925 27.16 1.188 33.062 C-1.248 35.417 -3.729 37.637 -6.375 39.75 C-9.433 42.371 -10.718 44.261 -11.363 48.239 C-11.417 49.041 -11.471 49.842 -11.527 50.668 C-11.598 51.562 -11.668 52.456 -11.74 53.377 C-11.87 55.231 -11.998 57.085 -12.123 58.939 C-12.88 68.469 -14.728 76.409 -22 83 C-27.725 86.994 -34.933 87.706 -41.723 86.527 C-50.05 84.229 -55.992 80.031 -61 73 C-62.366 68.902 -62.774 65.276 -62 61 C-60.66 58.949 -60.66 58.949 -59 57 C-55.896 53.318 -55.332 50.904 -55.656 46.141 C-56 44 -56 44 -57 40.688 C-59.107 32.92 -58.997 25.294 -55.25 18.086 C-48.503 6.827 -39.653 0.615 -27 -3 C-17.612 -5.182 -8.568 -4.666 0 0 Z " fill="#000000" transform="translate(2288,2959)"/>
<path d="M0 0 C6.705 1.564 12.54 1.522 19.105 -0.666 C26.035 -1.53 32.072 -0.17 38.105 3.334 C42.857 7.468 45.744 12.049 46.441 18.385 C46.537 26.394 45.973 31.946 40.598 38.045 C33.449 44.861 25.683 45.676 16.121 45.537 C13.105 45.334 13.105 45.334 8.105 44.334 C5.795 50.934 3.485 57.534 1.105 64.334 C-5.039 65.017 -10.827 65.567 -16.957 65.646 C-17.708 65.675 -18.459 65.704 -19.232 65.734 C-24.826 65.797 -29.433 64.875 -33.895 61.334 C-38.138 56.046 -38.504 50.318 -38.332 43.771 C-38.32 42.876 -38.307 41.981 -38.294 41.058 C-38.115 33.961 -37.454 26.939 -36.582 19.896 C-36.465 18.932 -36.347 17.968 -36.226 16.974 C-34.662 5.683 -34.662 5.683 -29.957 1.689 C-29.276 1.304 -28.596 0.919 -27.895 0.521 C-27.214 0.123 -26.533 -0.275 -25.832 -0.686 C-17.545 -4.879 -8.512 -2.145 0 0 Z " fill="#000000" transform="translate(2014.89453125,3004.666015625)"/>
<path d="M0 0 C4.135 3.021 4.135 3.021 5.312 5.375 C5.006 7.047 4.668 8.713 4.312 10.375 C2.919 24.673 8.007 36.17 14.42 48.51 C22.661 64.59 22.661 64.59 20.312 72.375 C18.27 75.984 17.098 77.843 13.098 79.035 C-0.164 80.132 -12.593 70.334 -22.246 62.301 C-23.394 61.327 -24.542 60.352 -25.688 59.375 C-26.887 58.368 -28.086 57.362 -29.285 56.355 C-35.753 50.893 -42.069 45.278 -48.285 39.531 C-50.688 37.375 -50.688 37.375 -53.461 35.434 C-55.688 33.375 -55.688 33.375 -56.316 30.816 C-56.066 19.949 -53.958 9.765 -46.754 1.316 C-33.178 -11.438 -14.831 -10.091 0 0 Z " fill="#000000" transform="translate(2741.6875,2507.625)"/>
<path d="M0 0 C6.157 0.316 11.685 2.471 17.438 4.562 C17.899 4.727 17.899 4.727 20.232 5.561 C22.49 6.368 24.746 7.181 27 8 C26.438 12.213 25.709 16.3 24.75 20.438 C23.995 24.784 23.722 28.089 25.543 32.164 C28.147 35.445 31.749 37.228 35.406 39.164 C38.709 41.502 39.642 43.19 41 47 C41.492 50.124 41.646 53.217 41.75 56.375 C41.771 56.781 41.771 56.781 41.879 58.836 C41.982 61.228 42.01 63.606 42 66 C42.012 66.752 42.024 67.504 42.037 68.278 C41.953 70.414 41.953 70.414 41 74 C38.479 75.578 36.804 76.211 34 77 C32.019 77.679 30.038 78.36 28.059 79.043 C25.853 79.762 23.646 80.476 21.438 81.188 C20.327 81.556 19.216 81.924 18.072 82.303 C16.995 82.65 15.918 82.998 14.809 83.355 C13.837 83.672 12.866 83.988 11.865 84.313 C8.767 85.056 6.175 85.243 3 85 C0.098 83.199 0.098 83.199 -2.938 80.688 C-4.067 79.764 -5.199 78.844 -6.332 77.926 C-6.923 77.444 -7.514 76.963 -8.124 76.467 C-10.06 74.953 -12.045 73.554 -14.074 72.168 C-14.749 71.701 -15.424 71.234 -16.119 70.753 C-17.424 69.857 -18.738 68.974 -20.062 68.108 C-24.749 64.833 -26.725 61.577 -28 56 C-28.464 51.288 -27.513 47.844 -25.062 43.812 C-22 40.561 -18.12 38.569 -14.207 36.492 C-11.25 34.493 -10.297 32.431 -9.577 28.96 C-9.535 28.605 -9.535 28.605 -9.324 26.805 C-9.221 26.011 -9.118 25.216 -9.011 24.398 C-8.958 23.982 -8.958 23.982 -8.688 21.875 C-7.534 13.733 -6.027 6.027 0 0 Z " fill="#000000" transform="translate(2508,2928)"/>
<path d="M0 0 C10.107 7.313 15.408 22.371 17.566 34.195 C19.501 51.175 18.451 68.37 7.562 82.375 C2.431 87.632 -2.938 90.629 -10.297 91.301 C-17.502 91.325 -24.377 91.145 -31 88 C-34.928 80.144 -31.285 68.33 -29.423 60.245 C-27.531 51.795 -26.785 45.239 -31 37.375 C-33.972 31.802 -34.882 27.633 -33.371 21.41 C-30.63 14.516 -27.308 8.361 -20.605 4.688 C-18.095 3.639 -15.607 2.776 -13 2 C-12.26 1.776 -11.52 1.551 -10.758 1.32 C-7.112 0.316 -3.766 -0.404 0 0 Z " fill="#000000" transform="translate(1750,3014)"/>
<path d="M0 0 C6.357 4.888 11.423 10.926 13.383 18.832 C14.456 28.049 14.17 36.272 8.383 43.832 C0.951 51.912 -11.358 54.388 -21.929 54.956 C-50.08 55.841 -50.08 55.841 -61.617 46.832 C-63.705 44.744 -62.857 40.388 -62.867 37.52 C-62.861 25.514 -61.149 15.078 -52.902 5.93 C-40.473 -6.093 -14.755 -8.975 0 0 Z " fill="#000000" transform="translate(2293.6171875,2276.16796875)"/>
<path d="M0 0 C3.965 3.339 6.632 6.789 7.531 11.988 C8.094 20.358 4.898 27.292 0.188 34 C-2.23 35.846 -4.602 37.114 -7.324 38.457 C-12.107 41.423 -14.784 46.369 -17.812 51 C-21.55 56.546 -24.508 60.411 -30.812 63 C-34.46 62.857 -36.201 62.62 -38.797 59.988 C-39.38 59.105 -39.962 58.222 -40.562 57.312 C-41.239 56.324 -41.916 55.335 -42.613 54.316 C-43.339 53.222 -44.065 52.128 -44.812 51 C-50.369 42.691 -55.342 35.602 -63.812 30 C-70.495 25.549 -74.239 21.835 -76.363 13.957 C-76.665 11.63 -76.601 10.217 -75.812 8 C-60.663 -9.854 -19.081 -13.669 0 0 Z " fill="#000000" transform="translate(3243.8125,2612)"/>
<path d="M0 0 C7.263 6.708 12.522 17.347 13.625 27.152 C13.727 31.509 13.576 34.579 11.312 38.375 C4.082 42.925 -3.326 43.644 -11.668 44.709 C-21.423 46.116 -28.845 49.982 -36.996 55.359 C-41.332 57.963 -45.802 57.915 -50.688 57.375 C-55.419 56.102 -59.415 54.484 -63.125 51.25 C-67.463 43.268 -68.872 35.402 -66.562 26.562 C-62.376 13.83 -54.323 5.119 -42.519 -1.048 C-28.37 -8.154 -13.179 -10.063 0 0 Z " fill="#000000" transform="translate(1507.6875,3032.625)"/>
<path d="M0 0 C8.427 0 16.093 0.44 22.773 6.148 C28.062 11.782 30.09 17.143 29.871 24.836 C28.816 35.455 24.191 47.657 16.625 55.312 C13.992 56.578 11.424 57.426 8.625 58.312 C8.914 59.366 9.202 60.419 9.5 61.504 C15.651 84.951 15.651 84.951 10.688 95.188 C8.625 98.312 8.625 98.312 7.625 99.312 C-4.449 99.244 -16.618 98.059 -25.965 89.93 C-28.148 87.426 -28.311 85.264 -28.562 82.016 C-27.943 73.084 -22.562 64.318 -18.699 56.337 C-14.781 48.195 -14.766 40.657 -15.875 31.75 C-17.232 20.534 -16.461 10.524 -9.375 1.312 C-7.272 -0.791 -2.89 0.023 0 0 Z " fill="#000000" transform="translate(2079.375,1585.6875)"/>
<path d="M0 0 C2.27 17.232 2.27 17.232 -1 22 C-3.558 23.592 -6.253 24.774 -9 26 C-13.7 28.7 -13.7 28.7 -15 30 C-14.697 34.319 -14.167 37.846 -12.438 41.812 C-10.447 46.808 -10.293 51.699 -11 57 C-13.449 62.51 -17.655 65.487 -23 68 C-28.188 69.785 -32.824 70.387 -38.25 70.375 C-38.992 70.373 -39.734 70.372 -40.499 70.37 C-48.157 70.201 -54.23 68.131 -60.875 64.375 C-66.977 57.555 -68.558 51.012 -68.371 41.98 C-67.982 38.855 -67.6 36.721 -66 34 C-63.285 32.516 -63.285 32.516 -60.062 31.25 C-54.407 28.591 -54.407 28.591 -52.648 26.039 C-51.878 23.693 -51.401 21.437 -51 19 C-48.142 4.93 -48.142 4.93 -42 0 C-28.732 -8.481 -14.165 -3.609 0 0 Z " fill="#000000" transform="translate(2340,2728)"/>
<path d="M0 0 C0.412 0.361 0.412 0.361 2.5 2.188 C7.875 6.887 14.81 9.616 21.305 12.434 C30.327 16.504 30.327 16.504 32.688 20.688 C35.888 29.261 35.693 37.667 32 46 C27.054 55.48 19.576 62.781 9.41 66.316 C0.634 68.805 -6.151 67.768 -14.062 63.375 C-22.745 57.84 -27.667 51.077 -30 41 C-31.393 30.976 -28.773 21.261 -22.688 13.188 C-21.48 11.772 -20.252 10.376 -19 9 C-18.715 8.669 -18.715 8.669 -17.273 6.996 C-12.789 2.092 -6.957 -2.536 0 0 Z " fill="#000000" transform="translate(1246,3038)"/>
<path d="M0 0 C7.096 6.291 11.994 14.697 13.41 24.137 C13.527 26.676 13.585 29.219 13.598 31.762 C13.612 33.074 13.626 34.386 13.641 35.738 C13.41 39.137 13.41 39.137 11.41 42.137 C5.11 45.271 -2.095 44.114 -8.916 43.707 C-15.617 43.513 -19.363 44.545 -24.623 48.772 C-28.1 51.185 -30.467 50.813 -34.59 50.137 C-40.304 47.17 -43.917 43.292 -46.277 37.324 C-50.651 22.856 -48.586 7.218 -43.883 -6.852 C-42.59 -8.863 -42.59 -8.863 -40.457 -9.637 C-24.973 -10.86 -12.71 -9.894 0 0 Z " fill="#000000" transform="translate(1503.58984375,1896.86328125)"/>
<path d="M0 0 C5.001 3.591 9.173 7.81 11.543 13.574 C12.638 23.201 11.463 29.584 5.555 37.105 C0.389 43.172 -4.817 48.027 -12.457 50.574 C-25.222 51.48 -36.516 50.316 -48.457 45.574 C-52.777 41.254 -51.672 33.556 -51.707 27.762 C-51.728 26.91 -51.748 26.059 -51.77 25.182 C-51.828 15.508 -49.39 8.58 -42.715 1.523 C-30.976 -8.611 -12.817 -7.437 0 0 Z " fill="#000000" transform="translate(2845.45703125,2287.42578125)"/>
<path d="M0 0 C1.75 1.129 1.75 1.129 3.375 2.438 C3.973 2.9 4.571 3.363 5.188 3.84 C15.702 13.108 18.695 27.208 19.586 40.609 C19.676 46.836 19.676 46.836 18.375 49.438 C17.787 49.489 17.787 49.489 14.812 49.75 C7.005 50.57 1.243 56.191 -4.645 60.984 C-8.841 64.064 -13.631 64.151 -18.68 64.078 C-21.625 63.438 -21.625 63.438 -23.57 61.734 C-28.018 54.701 -30.346 46.389 -32.625 38.438 C-32.786 37.875 -32.786 37.875 -33.602 35.031 C-35.311 28.195 -36.047 21.399 -36.312 14.375 C-36.368 13.565 -36.424 12.755 -36.482 11.921 C-36.513 9.515 -36.42 7.712 -35.625 5.438 C-27.464 -2.615 -10.393 -4.767 0 0 Z " fill="#000000" transform="translate(2743.625,2904.5625)"/>
<path d="M0 0 C5.713 4.698 9.132 9.819 10.242 17.148 C10.577 22.469 10.468 26.346 7 30.562 C3.183 34.318 -1.224 37.246 -5.602 40.305 C-10.318 43.967 -13.13 48.614 -16.25 53.625 C-18.393 56.597 -19.815 57.901 -23.188 59.312 C-27.928 59.927 -31.293 59.372 -35.359 56.762 C-42.802 50.862 -48.13 43.518 -49.527 33.996 C-49.93 24.725 -46.465 17.652 -40.562 10.676 C-36.577 6.71 -32.13 3.944 -27.188 1.312 C-26.543 0.952 -25.898 0.591 -25.234 0.219 C-18.14 -3.113 -6.982 -3.718 0 0 Z " fill="#000000" transform="translate(3028.1875,2845.6875)"/>
<path d="M0 0 C5.244 4.012 7.334 8.284 8.316 14.742 C8.879 24.342 4.853 34.553 0.004 42.688 C-8.619 45.562 -20.844 44.588 -28.996 40.688 C-36.356 36.341 -40.702 31.004 -42.996 22.688 C-43.209 19.89 -43.329 17.23 -43.309 14.438 C-43.307 13.69 -43.305 12.943 -43.302 12.174 C-43.183 5.543 -41.976 -0.352 -38.996 -6.312 C-27.04 -10.411 -10.261 -6.747 0 0 Z " fill="#000000" transform="translate(2284.99609375,1713.3125)"/>
<path d="M0 0 C4.72 1.316 9.146 3.129 13.641 5.07 C14.578 5.475 15.515 5.879 16.48 6.296 C26.555 10.753 34.919 15.627 40.766 25.195 C42.016 30.699 41.471 36.025 38.703 40.945 C35.132 44.033 31.949 44.755 27.328 45.32 C11.213 43.786 -2.302 35.416 -12.812 23.434 C-15.063 20.318 -15.805 18.15 -16.109 14.359 C-15.052 9.253 -10.493 6.101 -6.609 2.945 C-5.974 2.345 -5.338 1.744 -4.684 1.125 C-2.609 -0.055 -2.609 -0.055 0 0 Z " fill="#000000" transform="translate(2321.609375,2679.0546875)"/>
<path d="M0 0 C0.949 0.578 1.898 1.155 2.875 1.75 C6.429 5.513 7.004 9.543 6.996 14.531 C6.635 19.638 5.764 23.599 3 28 C2.484 28.825 1.969 29.65 1.438 30.5 C-5.81 37.933 -15.498 41.522 -25.762 42.176 C-27.842 42.186 -29.922 42.104 -32 42 C-33.489 39.022 -33.596 35.849 -33.973 32.578 C-34.016 32.209 -34.016 32.209 -34.237 30.343 C-34.422 28.78 -34.604 27.216 -34.784 25.652 C-35.06 23.273 -35.343 20.894 -35.627 18.516 C-35.805 16.995 -35.983 15.474 -36.16 13.953 C-36.245 13.247 -36.329 12.54 -36.416 11.812 C-36.867 7.853 -37.084 3.984 -37 0 C-35.606 -0.483 -34.209 -0.961 -32.812 -1.438 C-32.035 -1.704 -31.258 -1.971 -30.457 -2.246 C-20.644 -5.257 -8.659 -6.173 0 0 Z " fill="#000000" transform="translate(1460,1850)"/>
<path d="M0 0 C5.453 4.224 10.983 10.012 13.188 16.625 C9.5 25.364 2.285 34.989 -6.312 39.25 C-12.407 41.476 -18.013 41.692 -24 39.062 C-30.428 35.4 -34.375 30.11 -36.406 23.023 C-37.367 17.349 -36.714 12.463 -34.188 7.312 C-26 -1.953 -11.294 -6.929 0 0 Z " fill="#000000" transform="translate(2210.8125,2292.375)"/>
<path d="M0 0 C5.91 4.865 7.854 10.869 9.113 18.266 C8.254 23.527 5.028 27.516 0.797 30.691 C-6.819 35.215 -15.693 35.618 -24.25 33.68 C-30.118 31.596 -34.329 28.826 -37.387 23.328 C-41.853 12.612 -41.853 12.612 -40.836 7.629 C-37.427 2.217 -29.725 0.281 -24.012 -2.047 C-16.081 -3.414 -7.139 -4.341 0 0 Z " fill="#000000" transform="translate(2149.38671875,1623.671875)"/>
<path d="M0 0 C7.635 3.964 10.513 9.442 13.184 17.309 C15.888 26.225 16.292 36.244 13 45 C2.424 48.348 2.424 48.348 -3 48 C-10.93 43.541 -16.014 32.407 -18.637 23.945 C-19.841 17.495 -19.647 11.454 -16.324 5.695 C-12.038 0.207 -6.642 -0.843 0 0 Z " fill="#000000" transform="translate(2633,2783)"/>
</svg>
