<?xml version="1.0" encoding="UTF-8"?>
<!-- Generator: visioncortex VTracer 0.6.12 -->
<svg version="1.1" xmlns="http://www.w3.org/2000/svg" width="4500" height="4500">
<path d="M0 0 C4.124 1.591 5.837 3.927 8.008 7.668 C9.787 11.85 9.853 15.564 9 20 C7.84 22.737 6.511 25.352 5.168 28.004 C3.403 32.53 3.425 36.945 3.23 41.758 C2.766 48.298 0.426 53.117 -4 58 C-3.154 58.474 -2.309 58.949 -1.438 59.438 C1 62 1 62 1.25 64.094 C0.847 69.133 -0.222 72.438 -4 76 C-8.697 78.883 -13.659 78.635 -19 78 C-23.037 75.981 -25.633 73.821 -28 70 C-28.293 67.422 -28.293 67.422 -28.188 64.75 C-28.16 63.858 -28.133 62.966 -28.105 62.047 C-28.071 61.371 -28.036 60.696 -28 60 C-26.845 59.835 -26.845 59.835 -21 59 C-21.338 58.515 -21.675 58.031 -22.023 57.531 C-28.262 48.156 -28.811 40.03 -27 29 C-23.836 17.736 -18.598 7.926 -9 1 C-5.976 -0.512 -3.338 -0.173 0 0 Z " fill="#000000" transform="translate(3214,1080)"/>
<path d="M0 0 C3.091 2.588 4.436 4.428 4.988 8.434 C5.019 14.297 4.063 17.478 0.188 22 C-2.461 24.207 -5.026 24.372 -8.324 24.348 C-8.703 24.346 -8.703 24.346 -10.619 24.338 C-11.405 24.33 -12.191 24.321 -13 24.312 C-13.797 24.308 -14.595 24.303 -15.416 24.299 C-17.382 24.287 -19.347 24.269 -21.312 24.25 C-21.471 25.047 -21.63 25.843 -21.793 26.664 C-23.221 33.148 -24.326 37.738 -29.312 42.25 C-34.732 44.955 -39.495 44.301 -45.312 43.25 C-48.962 41.816 -51.858 40.351 -54.312 37.25 C-56.146 31.75 -55.726 27.582 -53.312 22.375 C-47.086 10.898 -38.336 4.17 -26.125 -0.125 C-18.033 -2.404 -7.772 -4.072 0 0 Z " fill="#000000" transform="translate(1349.3125,3645.75)"/>
<path d="M0 0 C7.119 0.059 13.936 0.81 20.95 2.007 C21.969 2.164 22.989 2.321 24.04 2.483 C31.44 3.718 38.814 5.246 44.262 10.694 C47.569 16.118 48.214 20.586 48.262 26.819 C48.295 27.574 48.328 28.329 48.362 29.106 C48.399 32.991 48.219 34.828 45.547 37.729 C37.93 42.003 28.989 40.143 20.825 38.257 C10.959 35.288 1.339 30.981 -5.863 23.444 C-8.303 17.517 -7.926 11.752 -5.8 5.757 C-3.309 0.391 -3.309 0.391 0 0 Z " fill="#000000" transform="translate(688.17529296875,3711.7431640625)"/>
<path d="M0 0 C2.81 1.794 4.509 3.019 6 6 C6.926 16.523 0.72 27.052 -5.391 35.18 C-11.378 42.02 -15.068 44.107 -24 45 C-23.954 46.169 -23.907 47.338 -23.859 48.543 C-23.822 50.091 -23.785 51.639 -23.75 53.188 C-23.716 53.956 -23.683 54.725 -23.648 55.518 C-23.579 59.535 -23.686 61.5 -25.879 64.988 C-28.468 67.444 -29.425 68 -33 68 C-38.24 66.826 -43.477 65.205 -47 61 C-47.758 56.865 -47.835 54.596 -45.891 50.879 C-42.587 46.181 -38.812 43.08 -34 40 C-34.061 39.406 -34.121 38.811 -34.184 38.199 C-34.83 31.803 -35.428 25.403 -36 19 C-32.113 16.385 -28.527 14.052 -24 12.75 C-19.317 11.174 -16.864 7.839 -13.859 4.059 C-10.024 -0.188 -5.579 -0.93 0 0 Z " fill="#000000" transform="translate(4084,351)"/>
<path d="M0 0 C1.022 -0.019 2.044 -0.039 3.098 -0.059 C6.604 0.554 7.735 1.706 9.938 4.438 C12.763 10.089 10.732 16.452 9 22.125 C6.748 29.572 6.413 36.832 6.354 44.585 C6.217 52.721 4.732 61.33 -1.062 67.438 C-8.635 68.655 -18.392 66.666 -24.812 62.375 C-27.628 58.699 -27.811 56.46 -27.516 51.922 C-26.689 47.39 -24.549 44.112 -21.558 40.742 C-16.804 35.206 -16.143 30.653 -15.938 23.5 C-15.665 16.162 -15.134 9.754 -11.062 3.438 C-7.53 0.405 -4.588 0.006 0 0 Z " fill="#000000" transform="translate(3894.0625,445.5625)"/>
<path d="M0 0 C3.822 3.35 6.835 6.887 7.238 12.047 C7.464 23.285 7.464 23.285 5.438 26.688 C1.894 30.049 -1.879 31.545 -6.625 32.562 C-9 34 -9 34 -10.004 37.703 C-10.213 39.216 -10.398 40.732 -10.562 42.25 C-11.246 48.152 -12.043 52.277 -16 57 C-20.245 59.938 -25.041 59.586 -30 59 C-33.097 58.144 -35.525 57.064 -38 55 C-39.911 51.588 -40.352 49.506 -39.457 45.676 C-37.815 41.108 -35.707 37.528 -32.688 33.75 C-28.213 27.768 -26.488 20.853 -24.485 13.755 C-21.387 3.014 -21.387 3.014 -15.957 -0.215 C-10.288 -2.125 -5.523 -2.674 0 0 Z " fill="#000000" transform="translate(2914,2049)"/>
<path d="M0 0 C6.052 2.852 11.072 6.118 14.617 11.906 C16.888 18.718 16.034 23.701 12.992 30.031 C8.744 37.843 3.96 44.25 -4.383 47.906 C-8.507 48.961 -12.081 49.161 -16.258 48.344 C-19.271 46.305 -20.003 44.266 -21.383 40.906 C-21.85 38.117 -21.981 35.355 -22.07 32.531 C-22.104 31.795 -22.139 31.059 -22.174 30.301 C-22.256 28.503 -22.321 26.705 -22.383 24.906 C-23.187 24.597 -23.992 24.287 -24.82 23.969 C-27.383 22.906 -27.383 22.906 -28.383 21.906 C-28.97 15.335 -27.75 10.591 -24.383 4.906 C-17.791 -2.627 -9.444 -3.053 0 0 Z " fill="#000000" transform="translate(1102.3828125,3681.09375)"/>
<path d="M0 0 C6.467 7.185 7.655 14.96 7.508 24.363 C7.153 28.675 6.482 30.569 3.25 33.5 C1.495 34.13 -0.278 34.708 -2.062 35.25 C-7.961 37.111 -10.08 39.926 -13.254 45.086 C-15.446 48.622 -17.976 51.613 -21.75 53.5 C-23.705 53.623 -25.666 53.676 -27.625 53.688 C-28.674 53.702 -29.724 53.716 -30.805 53.73 C-33.744 53.5 -35.327 53.135 -37.75 51.5 C-40.757 46.99 -40.311 42.788 -39.75 37.5 C-38.09 31.22 -35.46 25.985 -30.75 21.5 C-29.761 21.282 -28.773 21.064 -27.754 20.84 C-24.75 19.5 -24.75 19.5 -23.176 15.91 C-22.78 14.468 -22.409 13.018 -22.062 11.562 C-19.78 2.629 -19.78 2.629 -16.75 0.5 C-11.233 -1.938 -5.476 -2.987 0 0 Z " fill="#000000" transform="translate(1504.75,3584.5)"/>
<path d="M0 0 C3.96 3.378 5.793 6.929 6.312 12.125 C5.917 17.035 4.281 20.683 2 25 C1.642 25.906 1.283 26.812 0.914 27.746 C-1 30 -1 30 -4.957 30.559 C-6.576 30.547 -8.195 30.505 -9.812 30.438 C-10.238 30.427 -10.238 30.427 -12.391 30.376 C-38.31 29.548 -38.31 29.548 -47.242 22.141 C-50.073 18.693 -50.282 15.364 -50 11 C-47.411 4.711 -41.901 1.83 -36 -1 C-24.551 -5.583 -10.969 -6.132 0 0 Z " fill="#000000" transform="translate(596,3910)"/>
<path d="M0 0 C7.023 3.09 10.24 9.721 13.043 16.535 C15.873 25.345 16.723 36.738 13.875 45.688 C11.192 50.428 8.285 53.238 3 55 C-1.747 55.456 -5.211 55.067 -9.297 52.453 C-15.228 47.392 -18.256 40.636 -19 33 C-19.773 23.039 -19.516 12.277 -13.457 3.855 C-9.215 -0.289 -5.778 -0.917 0 0 Z " fill="#000000" transform="translate(2931,1459)"/>
<path d="M0 0 C2 1.625 2 1.625 3 4.625 C3.425 9.72 3.384 13.474 0.543 17.957 C-2.655 21.414 -6.899 23.414 -11 25.625 C-11.99 26.285 -12.98 26.945 -14 27.625 C-14.089 30.228 -14.034 32.662 -13.875 35.25 C-13.705 41.026 -13.716 45.474 -17.457 50.199 C-20.212 52.745 -22.343 53.772 -26 54.625 C-32.394 54.335 -36.631 52.202 -41 47.625 C-44.948 42.229 -44.786 36.05 -44 29.625 C-41.696 24.663 -38.71 22.303 -34 19.625 C-32.862 19.258 -31.724 18.89 -30.551 18.512 C-26.642 16.862 -25.542 14.599 -23.883 10.82 C-23.591 10.096 -23.3 9.371 -23 8.625 C-19.756 0.558 -19.756 0.558 -15.539 -1.383 C-9.849 -2.978 -5.356 -2.455 0 0 Z " fill="#000000" transform="translate(1772,3511.375)"/>
<path d="M0 0 C0.273 0.187 0.273 0.187 1.656 1.133 C2.605 1.752 3.554 2.37 4.531 3.008 C7.084 5.561 8.411 7.743 9.656 11.133 C9.23 14.913 7.996 17.678 6.094 20.945 C5.639 21.736 5.184 22.526 4.715 23.34 C4.54 23.636 4.54 23.636 3.656 25.133 C2.678 25.11 1.699 25.086 0.691 25.062 C-11.329 24.897 -11.329 24.897 -15.906 26.133 C-23.013 27.997 -31.16 28.585 -37.906 25.508 C-38.711 24.724 -39.515 23.94 -40.344 23.133 C-41.293 22.225 -42.241 21.318 -43.219 20.383 C-45.335 17.146 -46.166 15.047 -45.883 11.152 C-44.826 7.192 -42.493 4.66 -39.344 2.133 C-28.476 -4.061 -11.233 -6.374 0 0 Z " fill="#000000" transform="translate(3295.34375,957.8671875)"/>
<path d="M0 0 C1.031 0.003 2.062 0.006 3.125 0.01 C3.665 0.014 3.665 0.014 6.398 0.035 C6.942 0.037 6.942 0.037 9.695 0.049 C12.388 0.061 15.081 0.077 17.773 0.098 C21.139 13.622 21.139 13.622 17.086 20.473 C12.515 27.951 6.926 34.618 1.28 41.304 C0.299 42.472 -0.673 43.65 -1.632 44.837 C-3.717 47.411 -5.442 49.242 -8.227 51.098 C-11.059 51.174 -12.634 50.59 -14.812 48.781 C-18.911 44.473 -21.067 40.096 -21.227 34.098 C-19.619 28.17 -16.523 25.208 -12.227 21.098 C-11.244 18.149 -11.031 15.868 -10.852 12.785 C-10.475 8.277 -9.76 4.949 -7.227 1.098 C-4.669 -0.181 -2.859 -0.016 0 0 Z " fill="#000000" transform="translate(2659.2265625,2404.90234375)"/>
<path d="M0 0 C1.378 1.207 2.704 2.475 3.992 3.777 C9.092 8.453 14.204 10.34 20.75 12.312 C22.767 12.949 24.783 13.591 26.797 14.238 C27.677 14.507 28.557 14.775 29.464 15.052 C32.21 16.079 34.534 17.424 37 19 C35.904 26.294 34.673 31.939 28.75 36.875 C24.07 38.79 19.93 38.79 15.25 36.875 C12.458 34.548 10.778 32.161 9 29 C9 28.01 9 27.02 9 26 C8.599 26.013 8.599 26.013 6.569 26.079 C2.942 26.183 -0.685 26.248 -4.312 26.312 C-5.575 26.354 -6.838 26.396 -8.139 26.439 C-9.347 26.456 -10.556 26.472 -11.801 26.488 C-12.916 26.514 -14.032 26.541 -15.181 26.568 C-18 26 -18 26 -19.854 23.605 C-21.628 19.573 -21.999 16.311 -21 12 C-16.632 4.682 -8.877 -1.837 0 0 Z " fill="#000000" transform="translate(2317,2671)"/>
<path d="M0 0 C4.757 0.378 8.052 1.559 11.938 4.312 C16.812 10.312 17.573 15.803 16.938 23.312 C15.366 31.809 11.598 38.985 5.188 44.812 C0.062 48.23 -5.038 47.859 -11.062 47.312 C-14.25 45.875 -14.25 45.875 -16.062 43.312 C-20.633 30.539 -10.149 14.337 -4.939 3.056 C-3.502 0.197 -3.439 0.351 0 0 Z " fill="#000000" transform="translate(548.0625,3973.6875)"/>
<path d="M0 0 C12.848 0.452 25.366 2.759 38 5 C39.58 9.739 37.872 13.773 36.625 18.5 C36.41 19.463 36.194 20.426 35.973 21.418 C34.168 28.192 34.168 28.192 31.105 30.311 C25.692 32.309 20.028 32.457 14.312 32.375 C13.905 32.381 13.905 32.381 11.842 32.41 C6.822 32.386 3.344 31.768 -1 29 C-4.716 24.983 -6.352 21.717 -6.293 16.172 C-5.521 10.446 -3.186 4.779 0 0 Z " fill="#000000" transform="translate(2202,2828)"/>
<path d="M0 0 C5.657 1.681 9.862 5.829 13.609 10.238 C14.919 13.981 14.743 15.963 13.484 19.738 C9.758 23.706 5.233 25.875 0.297 27.988 C-4.825 30.384 -6.446 33.373 -8.48 38.531 C-9.516 40.738 -9.516 40.738 -12.516 42.738 C-15.909 42.893 -17.807 42.371 -20.355 40.094 C-24.813 35.165 -28.575 30.461 -28.891 23.613 C-28.516 19.738 -28.516 19.738 -27.578 17.426 C-25.325 15.582 -24.05 15.34 -21.266 14.676 C-16.652 13.353 -15.117 11.222 -12.641 7.176 C-12.107 6.205 -11.573 5.234 -11.023 4.234 C-8.078 -0.642 -5.139 -0.697 0 0 Z " fill="#000000" transform="translate(1830.515625,3203.26171875)"/>
<path d="M0 0 C4.862 2.431 7.807 5.713 11 10 C12.022 13.067 12.166 15.287 12.188 18.5 C12.202 19.459 12.216 20.418 12.23 21.406 C12 24 12 24 10 27 C7.715 27.633 7.715 27.633 4.938 28.125 C0.049 29.301 -2.355 30.932 -5.75 34.625 C-8.456 37.557 -9.82 38.924 -13.562 40.5 C-18.714 39.751 -21.562 36.762 -25 33 C-27.317 29.524 -27.236 27.655 -26.656 23.594 C-24.287 14.228 -18.182 7.176 -11 1 C-7.524 -0.738 -3.801 -0.456 0 0 Z " fill="#000000" transform="translate(3440,800)"/>
<path d="M0 0 C0.61 0.008 0.61 0.008 3.695 0.047 C6.875 0.25 6.875 0.25 9.875 1.25 C9.852 1.582 9.852 1.582 9.734 3.262 C9.442 10.404 9.442 10.404 11.25 13.938 C14.513 16.812 18.038 19.114 21.73 21.406 C23.875 23.25 23.875 23.25 24.84 25.516 C24.888 29.226 23.711 32.162 22.25 35.5 C22.001 36.137 21.752 36.774 21.496 37.43 C20.256 40.329 19.412 41.985 16.539 43.402 C8.398 42.937 -0.343 33.388 -6.188 28.062 C-6.723 27.576 -7.259 27.09 -7.811 26.589 C-12.057 22.598 -15.775 18.701 -16.625 12.75 C-15.906 7.716 -13.989 4.654 -9.926 1.594 C-6.424 -0.087 -3.869 -0.082 0 0 Z " fill="#000000" transform="translate(1910.125,3015.75)"/>
<path d="M0 0 C5.273 2.706 8.616 6.838 10.816 12.301 C12.29 17.267 12.248 21.321 11.031 26.352 C8.817 30.086 6.118 32.808 2.031 34.352 C-5.627 35.19 -12.959 35.541 -19.453 30.934 C-23.338 26.879 -24.4 23.488 -24.406 17.914 C-24.243 11.611 -23.089 8.325 -18.473 3.926 C-13.105 -0.826 -6.904 -2.274 0 0 Z " fill="#000000" transform="translate(956.96875,3684.6484375)"/>
<path d="M0 0 C3.328 2.396 4.738 3.416 6.125 7.25 C7.304 14.687 6.03 19.92 1.848 26.148 C-1.216 29.886 -4.266 31.714 -8.875 33.25 C-13.404 33.649 -17.512 33.813 -21.75 32.062 C-26.209 28.259 -28.51 24.984 -29.078 19.172 C-29.233 11.983 -28.189 6.67 -23.125 1.375 C-15.761 -3.44 -7.848 -4.073 0 0 Z " fill="#000000" transform="translate(2173.875,2966.75)"/>
<path d="M0 0 C5.064 1.972 9.57 4.725 12.625 9.312 C14.289 13.776 14.825 17.302 14 22 C11.888 26.577 8.864 29.583 4.539 32.078 C-1.502 34.272 -8.548 34.283 -14.574 32.043 C-18.463 29.779 -21.433 27.309 -23 23 C-23.978 16.55 -22.797 11.313 -19 6 C-13.215 0.052 -8.114 -1.089 0 0 Z " fill="#000000" transform="translate(2728,2315)"/>
<path d="M0 0 C0.565 -0.013 0.565 -0.013 3.426 -0.078 C7.05 0.286 8.826 1.031 11.688 3.25 C15.96 8.906 16.129 15.394 16.121 22.234 C15.462 26.822 13.612 29.397 10.25 32.5 C5.739 35.581 1.091 35.955 -4.312 35.25 C-9.576 33.495 -13.327 31.027 -16.312 26.25 C-18.101 20.4 -18.22 14.536 -15.625 8.938 C-11.904 2.29 -7.358 0.1 0 0 Z " fill="#000000" transform="translate(3697.3125,555.75)"/>
<path d="M0 0 C3.317 2.777 5.248 5.134 6.594 9.262 C6.691 14.132 5.317 17.516 2.141 21.094 C-3.46 26.279 -9.51 27.924 -17.07 27.691 C-21.814 27.056 -25.694 25.446 -28.73 21.656 C-31.529 16.737 -32.181 11.957 -31.344 6.387 C-29.578 1.188 -27.142 -1.022 -22.344 -3.613 C-14.453 -5.661 -6.667 -4.768 0 0 Z " fill="#000000" transform="translate(2421.34375,2594.61328125)"/>
<path d="M0 0 C6.169 3.477 9.59 8.442 11.809 15.098 C11.953 17.094 12.029 19.096 12.059 21.098 C12.084 22.15 12.11 23.201 12.137 24.285 C11.809 27.098 11.809 27.098 10.539 28.898 C4.358 33.182 -5.032 32.725 -12.191 32.098 C-16.125 31.272 -18.541 29.895 -21.129 26.723 C-23.155 19.809 -23.555 12.119 -20.441 5.473 C-15.737 -2.423 -8.121 -3.344 0 0 Z " fill="#000000" transform="translate(2938.19140625,1865.90234375)"/>
<path d="M0 0 C4.845 2.423 7.321 5.337 10 10 C11.753 15.258 11.579 20.17 9.18 25.23 C5.985 30.022 0.693 34.75 -5 36 C-9.79 36.563 -13.033 36.502 -17.375 34.25 C-20.346 31.703 -22.644 29.691 -23.469 25.773 C-23.577 17.465 -20.862 11.363 -15.5 5.062 C-10.498 0.936 -6.662 -1.165 0 0 Z " fill="#000000" transform="translate(3326,932)"/>
<path d="M0 0 C4.481 2.256 7.685 5.111 10.25 9.438 C11.768 14.35 11.288 17.938 9.344 22.574 C7.198 26.229 4.026 28.549 0.25 30.438 C-8.526 31.068 -14.664 30.966 -21.5 25.062 C-24.657 21.379 -25.617 18.879 -26.062 14.062 C-25.594 8.628 -24.238 4.851 -20.25 1.062 C-14.129 -2.916 -6.652 -2.638 0 0 Z " fill="#000000" transform="translate(3000.75,1755.5625)"/>
<path d="M0 0 C5.546 2.987 8.875 8.144 10.82 13.98 C11.229 18.178 11.272 21.85 9.695 25.793 C6.545 29.469 3.979 31.621 -0.922 32.438 C-7.502 32.797 -12.095 31.888 -17.332 27.801 C-22.189 23.016 -23.402 18.547 -23.617 11.793 C-23.611 7.285 -22.849 4.641 -20.18 0.98 C-13.648 -3.425 -6.98 -2.915 0 0 Z " fill="#000000" transform="translate(746.1796875,3789.01953125)"/>
<path d="M0 0 C5.416 3.683 9.048 7.95 10.57 14.426 C11.376 20.073 11.069 24.013 8 29 C3.738 33.443 0.499 35.836 -5.812 36.25 C-11.939 36.116 -15.663 33.615 -19.938 29.375 C-22.409 26.377 -23.504 24.478 -23.25 20.562 C-21.731 13.233 -17.742 6.762 -12 2 C-7.627 -0.791 -4.989 -1.663 0 0 Z " fill="#000000" transform="translate(1387,3628)"/>
<path d="M0 0 C4.719 3.951 8.235 8.041 8.91 14.32 C9.165 20.854 7.781 25.19 4.062 30.625 C0.442 33.102 -2.976 33.428 -7.312 33.25 C-13.983 31.904 -17.997 28.509 -21.922 22.984 C-24.664 17.592 -24.3 10.708 -22.656 4.953 C-21.048 1.708 -19.167 0.159 -16.125 -1.75 C-10.083 -3.335 -5.535 -2.924 0 0 Z " fill="#000000" transform="translate(2921.3125,1559.75)"/>
<path d="M0 0 C5.333 4.616 8.563 10.501 9.438 17.5 C8.901 21.793 7.809 24.699 5 28 C-0.801 32.455 -6.795 33.754 -14 33 C-18.631 31.456 -21.903 29.812 -25 26 C-26.54 21.379 -26.539 17.552 -24.938 12.938 C-20.429 6.102 -13.699 1.915 -6.012 -0.668 C-3.617 -1.063 -2.259 -0.882 0 0 Z " fill="#000000" transform="translate(3746,518)"/>
<path d="M0 0 C4.913 2.636 8.017 6.778 9.82 11.977 C9.062 17.788 5.204 22.298 0.82 25.977 C-5.507 29.262 -12.31 29.782 -19.18 27.977 C-22.79 25.795 -24.62 23.849 -26.18 19.977 C-26.835 14.506 -26.863 9.571 -24.68 4.477 C-17.471 -2.732 -9.277 -3.893 0 0 Z " fill="#000000" transform="translate(1852.1796875,3338.0234375)"/>
<path d="M0 0 C2.997 1.345 5.052 2.302 7.375 4.625 C8.002 10.802 5.745 15.711 2.191 20.609 C-2.58 25.904 -8.041 28.364 -15.062 28.875 C-19.551 28.56 -21.81 27.153 -25.184 24.312 C-27.976 21.044 -28.272 16.798 -28.625 12.625 C-28.197 7.365 -26.37 3.37 -22.625 -0.375 C-15.676 -4.669 -7.144 -2.918 0 0 Z " fill="#000000" transform="translate(2816.625,2074.375)"/>
<path d="M0 0 C4.137 3.375 6.698 7.906 8.375 12.938 C8.521 15.059 8.596 17.186 8.625 19.312 C8.651 20.434 8.677 21.555 8.703 22.711 C8.337 26.309 7.615 28.117 5.375 30.938 C1.63 33.068 -2.235 33.185 -6.414 32.441 C-13.334 30.297 -17.676 26.997 -21.625 20.938 C-23.981 16.226 -24.142 11.937 -22.625 6.938 C-19.731 2.29 -16.794 -0.031 -11.676 -1.66 C-7.405 -2.498 -3.957 -1.602 0 0 Z " fill="#000000" transform="translate(487.625,3916.0625)"/>
<path d="M0 0 C0.704 -0.029 1.408 -0.058 2.133 -0.088 C8.174 -0.161 11.614 1.858 16.062 6 C18.618 10.976 18.693 15.748 17.188 21.062 C14.441 25.669 11.456 28.577 6.25 30.312 C-2.848 31.331 -10.596 29.013 -17.75 23.312 C-17.036 18.423 -15.189 14.096 -13.312 9.562 C-13 8.783 -12.687 8.003 -12.365 7.199 C-12.06 6.458 -11.756 5.717 -11.441 4.953 C-11.165 4.278 -10.889 3.603 -10.604 2.907 C-8.544 -0.94 -3.821 0.051 0 0 Z " fill="#000000" transform="translate(1936.75,3061.6875)"/>
<path d="M0 0 C5.858 4.573 9.19 9.65 10.938 16.875 C11.376 21.639 9.824 25.21 7 29 C1.878 33.077 -2.301 34.365 -8.715 34.281 C-13.253 33.723 -15.942 31.241 -18.812 27.875 C-21.081 22.382 -21.33 17.016 -20.375 11.188 C-17.824 5.274 -13.813 2.474 -8 0 C-4.899 -1.095 -3.108 -1.055 0 0 Z " fill="#000000" transform="translate(3984,593)"/>
<path d="M0 0 C3.378 2.238 4.73 5.19 6 9 C6.707 17.268 6.391 24.768 2 32 C-0.916 34.68 -2.509 34.946 -6.438 35.375 C-11.559 34.836 -14.657 33.38 -18.25 29.688 C-21.87 24.128 -22.915 18.529 -22 12 C-20.477 7.68 -18.499 4.014 -15 1 C-10.079 -0.64 -5.122 -0.747 0 0 Z " fill="#000000" transform="translate(949,3551)"/>
<path d="M0 0 C6.006 3.003 10.218 7.691 12.812 13.875 C14.226 18.139 14.597 21.525 14 26 C10.892 29.474 7.531 31.06 3 32 C-3.314 32.093 -8.196 31.367 -13 27 C-16.438 22.672 -19.474 18.632 -20 13 C-18.489 7.731 -15.57 4.007 -11 1 C-7.524 -0.738 -3.801 -0.456 0 0 Z " fill="#000000" transform="translate(1988,3037)"/>
<path d="M0 0 C2.949 1.846 5.416 3.832 7 7 C7.124 9.268 7.176 11.541 7.188 13.812 C7.202 15.036 7.216 16.259 7.23 17.52 C7.008 20.872 6.59 23.06 5 26 C-1.088 29.517 -10.236 32.511 -17.258 31.758 C-20.28 30.443 -21.398 27.761 -23 25 C-24.633 20.1 -24.432 16.253 -22.75 11.375 C-19.599 5.299 -16.715 2.22 -10.371 -0.332 C-6.373 -1.458 -4.037 -1.125 0 0 Z " fill="#000000" transform="translate(2680,2346)"/>
<path d="M0 0 C2.866 1.701 3.619 2.723 5.5 5.688 C7.19 12.449 5.896 17.763 2.586 23.738 C0.789 26.397 -0.511 27.376 -3.562 28.438 C-9.97 29.411 -14.572 28.643 -19.871 24.875 C-23.267 21.989 -26.31 18.776 -26.801 14.23 C-27 7.229 -27 7.229 -24.938 3.5 C-17.893 -2.618 -8.654 -3.711 0 0 Z " fill="#000000" transform="translate(2171.5625,2828.5625)"/>
<path d="M0 0 C7.92 0 15.84 0 24 0 C25.522 10.651 26.204 19.993 20.5 29.5 C18.211 31.789 16.027 31.997 12.875 32.375 C7.734 31.877 4.266 29.799 0 27 C-0.75 26.55 -1.5 26.1 -2.273 25.637 C-4 24 -4 24 -4.277 21.758 C-4.165 20.889 -4.053 20.02 -3.938 19.125 C-3.814 18.162 -3.69 17.199 -3.562 16.207 C-2.604 10.742 -1.332 5.386 0 0 Z " fill="#000000" transform="translate(3007,1729)"/>
<path d="M0 0 C5.544 2.029 9.373 5.746 12 11 C12.594 16.713 12.231 21.098 9 26 C3.725 31.79 3.725 31.79 0.047 32.238 C-5.502 32.418 -8.67 31.814 -13 28 C-16.69 23.674 -17.131 18.52 -17 13 C-16.199 8.411 -14.854 5.03 -11.875 1.438 C-7.811 -0.594 -4.456 -0.757 0 0 Z " fill="#000000" transform="translate(2193,2989)"/>
<path d="M0 0 C3.845 1.922 5.318 4.185 6.875 8.062 C8.826 14.817 8.342 21.268 5.25 27.562 C1.859 31.236 -0.52 31.865 -5.438 32.312 C-10.89 31.834 -14.293 30.062 -17.812 25.938 C-21.051 21.588 -21.678 18.367 -21 13 C-19.243 7.709 -16.758 4.05 -12 1 C-7.927 -0.358 -4.258 -0.51 0 0 Z " fill="#000000" transform="translate(3148,1276)"/>
<path d="M0 0 C2.756 2.182 4.436 3.872 6 7 C6.601 13.954 6.623 20.201 3.461 26.512 C0.531 29.496 -3.229 29.929 -7.254 30.301 C-8.346 30.305 -9.438 30.309 -10.562 30.312 C-11.657 30.329 -12.751 30.346 -13.879 30.363 C-18.311 29.847 -20.888 28.112 -24 25 C-24.971 19.56 -24.087 14.713 -21.41 9.926 C-15.938 2.453 -9.341 -1.508 0 0 Z " fill="#000000" transform="translate(1788,3373)"/>
<path d="M0 0 C3.451 2.817 4.693 4.208 5.438 8.555 C5.717 14.87 4.59 19.772 1 25 C-1 27 -1 27 -3.32 27.117 C-11.038 26.451 -17.039 25.189 -22.438 19.375 C-25.001 15.478 -25.135 13.243 -25.125 8.562 C-25.128 7.409 -25.13 6.255 -25.133 5.066 C-25 2 -25 2 -24 -1 C-15.652 -3.735 -8.007 -3.921 0 0 Z " fill="#000000" transform="translate(2213,2916)"/>
<path d="M0 0 C2.659 2.393 4.208 3.907 5.5 7.25 C5.406 13.171 4.326 16.574 0.5 21.25 C-3.825 25.06 -6.402 26.623 -12.273 26.527 C-17.528 25.873 -21.312 23.438 -25 19.75 C-27.218 14.575 -27.386 9.792 -26.5 4.25 C-24.116 0.637 -22.293 -0.401 -18.375 -2.125 C-11.85 -3.177 -5.966 -2.983 0 0 Z " fill="#000000" transform="translate(2488.5,2542.75)"/>
<path d="M0 0 C2.724 2.247 3.749 3.818 4.48 7.266 C4.89 12.304 4.198 15.471 1 19.438 C-3.152 23.564 -7.196 25.778 -13.074 26.121 C-18.338 25.81 -21.359 23.895 -25 20 C-27.647 15.235 -28.691 11.431 -28 6 C-26.132 1.953 -24.306 -0.166 -20.25 -1.875 C-13.129 -4.091 -6.589 -3.586 0 0 Z " fill="#000000" transform="translate(1234,3659)"/>
<path d="M0 0 C4.901 1.619 8.16 4.739 11 9 C12.499 13.498 13.249 18.448 11.094 22.852 C8.266 26.531 5.478 28.104 1 29 C-4.475 29.498 -8.187 28.674 -13 26 C-16.868 22.553 -18.267 20.194 -19 15.062 C-19.257 10.183 -18.485 7.199 -16 3 C-11.39 -1.384 -5.994 -0.707 0 0 Z " fill="#000000" transform="translate(3230,953)"/>
<path d="M0 0 C8.469 -0.661 16.346 0.364 23.215 5.73 C27.077 9.688 29.062 13.313 29.273 18.887 C28.82 22.39 27.327 24.422 25 27 C18.657 30.714 12.466 30.325 5.5 28.625 C0.19 27.19 0.19 27.19 -1 26 C-1.386 17.3 -1.007 8.646 0 0 Z " fill="#000000" transform="translate(3599,674)"/>
<path d="M0 0 C3.118 2.944 3.193 5.372 3.352 9.562 C3.081 16.394 0.815 20.332 -3.75 25.125 C-6.66 26.58 -9.259 26.334 -12.5 26.375 C-13.712 26.401 -14.923 26.427 -16.172 26.453 C-20.843 26.025 -24.23 24.645 -27.562 21.312 C-29.122 18.44 -29.621 16.406 -29.75 13.125 C-28.109 7.927 -25.933 4.611 -21.75 1.125 C-15.01 -2.204 -7.17 -1.673 0 0 Z " fill="#000000" transform="translate(1766.75,3344.875)"/>
<path d="M0 0 C1.203 -0.005 2.405 -0.01 3.645 -0.016 C7.206 0.251 9.921 0.819 13.188 2.25 C16.062 6.562 15.883 10.19 15.188 15.25 C13.196 21.011 9.515 28.904 4.188 32.25 C-0.234 31.972 -4.05 30.55 -8.125 28.875 C-9.173 28.455 -10.221 28.035 -11.301 27.602 C-13.812 26.25 -13.812 26.25 -14.812 23.25 C-14.336 19.675 -13.408 16.191 -12.562 12.688 C-12.345 11.716 -12.127 10.745 -11.902 9.744 C-11.682 8.817 -11.461 7.889 -11.234 6.934 C-11.034 6.083 -10.834 5.233 -10.628 4.357 C-8.716 -0.584 -4.567 -0.019 0 0 Z " fill="#000000" transform="translate(897.8125,3650.75)"/>
<path d="M0 0 C3.551 0.964 6.624 2.138 9.82 3.965 C12.222 8.331 12.187 12.641 11.195 17.465 C8.748 21.82 5.733 24.663 1.32 26.965 C-4.483 27.893 -8.92 28.459 -14.242 25.652 C-17.401 22.955 -18.72 21.475 -19.07 17.285 C-19.065 16.066 -19.06 14.846 -19.055 13.59 C-19.06 12.376 -19.065 11.161 -19.07 9.91 C-18.814 6.587 -18.375 4.386 -16.805 1.465 C-11.737 -1.913 -5.843 -1.115 0 0 Z " fill="#000000" transform="translate(2792.8046875,2395.53515625)"/>
<path d="M0 0 C4.342 3.403 7.358 6.379 8.312 11.875 C8.312 16.127 7.995 17.594 5.312 20.812 C-0.195 25.769 -4.527 26.163 -11.734 26.094 C-16.796 25.612 -19.31 23.373 -22.562 19.688 C-24.259 15.352 -24.452 11.398 -23.688 6.812 C-20.954 2.115 -17.878 -0.168 -12.805 -1.785 C-8.214 -2.658 -4.286 -1.894 0 0 Z " fill="#000000" transform="translate(1708.6875,3402.1875)"/>
<path d="M0 0 C2.828 2.527 4.672 4.394 5.445 8.18 C5.65 12.224 5.15 14.688 3.375 18.375 C0.03 22.072 -2.579 23.704 -7.586 24.316 C-13.965 24.587 -17.93 23.932 -23 20 C-25.855 16.779 -27.248 14.259 -27.5 10 C-27.238 5.726 -25.953 3.175 -23 0 C-15.548 -4.369 -7.503 -4.247 0 0 Z " fill="#000000" transform="translate(3044,1663)"/>
<path d="M0 0 C4.513 3.937 6.394 8.059 7 14 C7.082 20.047 6.032 24.296 2 29 C-1.462 31.885 -4.485 32.535 -9.004 32.355 C-12.355 31.759 -14.456 30.18 -17 28 C-20.296 22.943 -19.552 16.778 -19 11 C-17.734 6.419 -15.735 3.701 -12.312 0.438 C-7.89 -1.482 -4.565 -1.575 0 0 Z " fill="#000000" transform="translate(564,4079)"/>
<path d="M0 0 C4.722 1.12 7.949 2.593 10.949 6.531 C14.175 12.055 14.514 17.604 13.688 23.875 C12.25 27.161 10.445 29.577 7.688 31.875 C2.825 33.496 -1.433 33.608 -6.062 31.312 C-8.978 29.419 -10.719 27.437 -11.867 24.059 C-13.015 18.429 -13.709 12.663 -11.07 7.395 C-8.04 3.256 -5.482 -0.207 0 0 Z " fill="#000000" transform="translate(3065.3125,1559.125)"/>
<path d="M0 0 C0.738 -0.008 1.476 -0.015 2.236 -0.023 C6.728 -0.007 10.333 0.561 14.562 2.25 C15.308 10.041 14.049 15.763 9.562 22.25 C6.129 25.454 4.28 26.159 -0.375 26.75 C-5.742 26.423 -9.484 24.199 -13.207 20.484 C-16.001 17.161 -17.824 14.407 -18.062 10 C-17.438 6.25 -17.438 6.25 -15.75 3.875 C-10.593 0.251 -6.108 -0.064 0 0 Z " fill="#000000" transform="translate(2766.4375,2307.75)"/>
<path d="M0 0 C3.625 2.794 4.729 4.289 5.441 8.785 C5.697 15.317 4.968 20.688 1 26 C-3.672 30.444 -7.574 31.35 -13.84 31.289 C-16 31 -16 31 -18.5 29.188 C-21.361 25.015 -21.456 20.892 -21 16 C-18.843 5.229 -18.843 5.229 -15 1 C-9.952 -1.079 -5.198 -1.794 0 0 Z " fill="#000000" transform="translate(2604,2359)"/>
<path d="M0 0 C4.33 2.082 7.091 4.617 9.305 8.941 C11.152 14.411 10.794 19.353 8.312 24.5 C5.744 27.276 4.698 28.276 1 29 C-5.943 29.192 -11.774 27.752 -17 23 C-19.348 19.335 -19.252 16.589 -18.676 12.387 C-17.325 7.615 -14.285 3.4 -10.043 0.801 C-6.712 -0.505 -3.484 -0.531 0 0 Z " fill="#000000" transform="translate(2117,3037)"/>
<path d="M0 0 C5.071 2.784 8.166 5.497 10 11 C10.526 17.923 10.631 23.948 7 30 C1.37 31.877 -4.09 31.937 -9.438 29.312 C-12.799 26.279 -14.72 23.69 -15.469 19.168 C-15.54 12.332 -14.933 7.063 -10 2 C-6.524 -0.072 -4.057 -0.487 0 0 Z " fill="#000000" transform="translate(3035,1910)"/>
<path d="M0 0 C5.901 1.831 9.285 5.006 12.562 10.188 C14.471 15.473 14.359 21.622 13.625 27.125 C11.827 30.264 11.114 30.962 7.625 32.125 C1.5 32.627 -1.5 32.224 -6.375 28.125 C-10.242 23.936 -12.12 20.422 -12.75 14.75 C-12.165 9.094 -9.87 5.741 -6.062 1.625 C-3.375 0.125 -3.375 0.125 0 0 Z " fill="#000000" transform="translate(3039.375,1576.875)"/>
<path d="M0 0 C3.014 2.655 4.354 4.5 5.625 8.312 C5.726 13.862 3.983 16.91 0.285 20.801 C-4.384 25.052 -8.889 25.909 -15.031 25.742 C-18.655 25.078 -20.245 23.199 -22.375 20.312 C-24.469 16.124 -23.792 10.874 -23.375 6.312 C-21.532 2.111 -20.086 0.745 -16.188 -1.625 C-10.135 -3.312 -5.612 -2.806 0 0 Z " fill="#000000" transform="translate(3663.375,589.6875)"/>
<path d="M0 0 C3.535 1.764 5.571 4.198 7.438 7.688 C8.314 12.851 8.506 18.163 5.988 22.906 C3.454 26.168 1.001 28.091 -3 29 C-7.331 29.435 -10.869 29.457 -14.938 27.812 C-17.979 25.14 -18.758 22.944 -19.254 18.957 C-19.563 13.159 -18.424 8.725 -15 4 C-10.469 -0.215 -5.979 -1.23 0 0 Z " fill="#000000" transform="translate(1788,3152)"/>
<path d="M0 0 C3.992 1.336 6.607 3.567 9.438 6.688 C11.461 10.978 11.81 14.338 11 19 C9.094 23.116 7.636 24.64 3.688 26.875 C-1.583 28.483 -5.71 28.882 -10.75 26.5 C-14.174 24.322 -15.421 21.916 -16.566 18.082 C-17.793 12.191 -17.237 8.087 -14 3 C-9.677 -0.931 -5.589 -0.766 0 0 Z " fill="#000000" transform="translate(3596,641)"/>
<path d="M0 0 C2.989 1.321 5.482 2.926 8 5 C7.688 12.894 6.291 17.31 0.938 23.312 C-2.982 26.727 -7.394 26.271 -12.332 26.219 C-15.641 25.947 -17.53 25.231 -20 23 C-22.316 20.023 -22.423 16.805 -22.312 13.09 C-21.574 8.152 -18.998 4.973 -15.5 1.562 C-10.315 -0.752 -5.586 -0.882 0 0 Z " fill="#000000" transform="translate(1723,3354)"/>
<path d="M0 0 C5.303 3.105 8.318 7.064 10 13 C10.614 17.895 10.767 21.637 8.312 26 C4.763 29.07 2.227 29.888 -2.438 30.312 C-7.782 29.844 -10.731 28.369 -14.375 24.438 C-17.049 18.78 -16.873 13.57 -14.875 7.688 C-10.885 1.969 -7.184 -1.386 0 0 Z " fill="#000000" transform="translate(2099,2965)"/>
<path d="M0 0 C4.672 2.855 6.974 5.829 8.594 10.949 C9.515 15.599 8.719 18.884 6.188 22.812 C2.902 26.098 0.205 27.288 -4.438 27.312 C-8.436 27.208 -10.846 26.613 -14 24 C-18.202 19.215 -19.299 16.501 -19.219 10.254 C-18.82 6.151 -17.022 3.894 -14 1.25 C-9.361 -1.649 -5.137 -1.256 0 0 Z " fill="#000000" transform="translate(3172,1207)"/>
<path d="M0 0 C3.777 3.355 5.035 5.994 5.438 11.062 C5.31 14.878 4.678 17.161 2.125 20.125 C-2.44 23.503 -6.018 24.857 -11.727 24.574 C-15.613 23.762 -17.232 22.09 -19.875 19.125 C-22.423 14.144 -22.489 8.614 -21.875 3.125 C-20.49 0.102 -19.206 -1.544 -16.875 -3.875 C-10.639 -6.076 -4.878 -4.014 0 0 Z " fill="#000000" transform="translate(3455.875,754.875)"/>
<path d="M0 0 C1.938 1.25 1.938 1.25 2.539 2.867 C3.085 6.133 3.187 9.314 3.25 12.625 C3.287 13.911 3.325 15.198 3.363 16.523 C2.722 22.133 0.291 25.103 -3.938 28.688 C-7.062 30.25 -7.062 30.25 -10 30.5 C-14.986 28.465 -18.661 24.054 -21.062 19.25 C-21.211 17.316 -21.284 15.377 -21.312 13.438 C-21.338 12.4 -21.364 11.362 -21.391 10.293 C-20.92 5.925 -19.27 3.311 -16 0.438 C-10.777 -1.674 -5.414 -1.326 0 0 Z " fill="#000000" transform="translate(2611.0625,2454.75)"/>
<path d="M0 0 C4.421 2.916 8.031 6.33 9.797 11.41 C9.938 13.938 9.938 13.938 8.715 16.035 C3.148 21.98 -1.512 26.576 -10 27.25 C-13.139 27.215 -13.874 27.078 -16.5 25.125 C-19.811 20.489 -19.646 15.418 -19.062 9.938 C-17.772 5.757 -16.063 2.803 -12.75 -0.062 C-8.177 -1.764 -4.585 -1.591 0 0 Z " fill="#000000" transform="translate(1154.0625,3651.0625)"/>
<path d="M0 0 C3.577 2.407 5.567 5.122 6.539 9.336 C6.948 16.153 4.427 21.247 1 27 C-6.371 27.641 -12.91 25.575 -18.625 20.812 C-20.6 16.773 -20.868 13.407 -20 9 C-18.194 5.003 -15.773 2.562 -12.25 0 C-7.849 -1.354 -4.383 -1.508 0 0 Z " fill="#000000" transform="translate(972,3591)"/>
<path d="M0 0 C0.75 0.243 1.499 0.486 2.271 0.736 C4.121 1.337 5.967 1.949 7.812 2.562 C6.585 11.203 4.82 18.579 -0.5 25.625 C-3.188 27.562 -3.188 27.562 -6.688 28.188 C-11.128 27.395 -12.432 26.084 -15.188 22.562 C-18.638 17.446 -18.929 12.554 -18.188 6.562 C-16.586 2.8 -14.642 0.722 -11.188 -1.438 C-7.016 -2.828 -4.005 -1.34 0 0 Z " fill="#000000" transform="translate(3066.1875,1220.4375)"/>
<path d="M0 0 C3.5 2.864 5.322 4.966 6.75 9.25 C7.311 14.917 7.078 19.43 3.75 24.25 C0.606 27.035 -0.946 27.25 -5.188 27.25 C-9.763 26.454 -12.063 24.589 -15.25 21.25 C-18.065 16.772 -17.783 11.372 -17.25 6.25 C-16.072 2.953 -15.246 1.033 -12.5 -1.125 C-7.732 -2.45 -4.383 -2.36 0 0 Z " fill="#000000" transform="translate(3032.25,1545.75)"/>
<path d="M0 0 C3.432 2.728 3.94 4.606 4.438 8.938 C3.238 15.166 -0.395 21.426 -5.375 25.375 C-8.809 26.258 -12.053 26.536 -15.562 25.938 C-18.531 23.73 -19.391 22.452 -20.562 18.938 C-20.684 16.445 -20.748 13.992 -20.75 11.5 C-20.764 10.181 -20.778 8.863 -20.793 7.504 C-20.462 2.376 -20.462 2.376 -18.562 -0.062 C-12.994 -2.348 -5.614 -1.674 0 0 Z " fill="#000000" transform="translate(3683.5625,615.0625)"/>
<path d="M0 0 C2.931 2.255 3.828 3.484 5 7 C5.59 13.019 4.279 17.06 1 22 C-1.827 25.057 -3.249 25.889 -7.375 26.5 C-12.764 25.757 -16.257 23.906 -20 19.812 C-21.477 15.659 -21.205 12.216 -20 8 C-15.073 0.176 -8.702 -2.14 0 0 Z " fill="#000000" transform="translate(2386,2753)"/>
<path d="M0 0 C2.934 1.796 4.472 2.944 6 6 C6.83 12.555 5.686 17.529 2 23 C0.086 25.269 -1.111 25.848 -4.008 26.344 C-9.227 26.698 -12.583 25.763 -16.621 22.418 C-18.635 20.347 -19.457 18.849 -20 16 C-19.802 10.556 -18.443 7.209 -15 3 C-10.662 -0.828 -5.514 -0.842 0 0 Z " fill="#000000" transform="translate(2999,1898)"/>
<path d="M0 0 C2.232 0.065 4.461 0.203 6.688 0.375 C7.908 0.465 9.129 0.555 10.387 0.648 C13.645 0.965 16.805 1.282 20 2 C21.348 4.697 21.169 6.866 21.188 9.875 C21.202 10.924 21.216 11.974 21.23 13.055 C21.002 15.979 20.601 17.574 19 20 C12.886 24.344 6.805 24.733 -0.484 23.621 C-5.007 22.706 -5.007 22.706 -7 22 C-8 20 -8 20 -7.487 18.045 C-7.195 17.266 -6.903 16.486 -6.602 15.684 C-6.287 14.837 -5.972 13.991 -5.648 13.119 C-5.311 12.234 -4.973 11.349 -4.625 10.438 C-4.295 9.549 -3.965 8.66 -3.625 7.744 C-1.15 1.15 -1.15 1.15 0 0 Z " fill="#000000" transform="translate(2799,2041)"/>
<path d="M0 0 C3.513 2.447 5.368 4.621 6.625 8.812 C6.625 12.438 6.625 12.438 5.625 15.812 C1.408 19.921 -1.407 20.977 -7.188 21.062 C-8.225 21.088 -9.263 21.114 -10.332 21.141 C-13.805 20.766 -15.605 19.912 -18.375 17.812 C-21.029 13.054 -21.978 9.236 -21.375 3.812 C-20.07 0.722 -19.063 -0.743 -16.25 -2.562 C-10.365 -3.842 -5.23 -2.986 0 0 Z " fill="#000000" transform="translate(2555.375,2489.1875)"/>
<path d="M0 0 C3.147 0.64 6.292 1.288 9.438 1.938 C10.335 2.12 11.233 2.302 12.158 2.49 C13.012 2.667 13.866 2.845 14.746 3.027 C15.537 3.19 16.328 3.352 17.142 3.519 C19 4 19 4 20 5 C21.312 11.797 21.435 17.315 17.516 23.246 C14.886 26.51 12.82 28.649 8.938 30.312 C5.627 29.96 3.74 29.013 1.328 26.703 C-3.2 20.897 -3.293 14.633 -2.52 7.578 C-1.975 4.874 -1.103 2.523 0 0 Z " fill="#000000" transform="translate(3476,619)"/>
<path d="M0 0 C3.156 1.285 5.44 2.88 7 6 C7.379 11.025 7.151 14.009 4 18 C-0.369 22.226 -3.82 24.142 -9.938 24.188 C-10.792 24.202 -11.647 24.216 -12.527 24.23 C-15.176 23.984 -16.766 23.424 -19 22 C-20.603 18.795 -20.353 15.486 -20 12 C-18.448 7.344 -16.773 4.165 -13 1 C-9.058 -0.971 -4.296 -0.454 0 0 Z " fill="#000000" transform="translate(1828,3168)"/>
<path d="M0 0 C2.793 1.862 3.738 2.556 4.625 5.75 C4.955 9.385 4.901 12.008 3.625 15.438 C0.184 19.416 -3.728 21.388 -8.945 22.102 C-13.853 22.263 -17.467 22.028 -21.375 18.75 C-23.115 15.271 -22.823 11.554 -22.375 7.75 C-20.486 3.671 -19.017 2.121 -15.125 -0.125 C-9.613 -1.779 -5.533 -2.049 0 0 Z " fill="#000000" transform="translate(1641.375,3480.25)"/>
<path d="M0 0 C1.883 1.168 1.883 1.168 3.883 4.168 C4.56 7.909 4.712 11.602 2.902 15.02 C0.647 17.836 -1.634 20.173 -5.117 21.168 C-9.958 21.636 -12.151 21.669 -16.492 19.418 C-19.749 16.627 -20.934 14.783 -21.418 10.512 C-21.422 9.573 -21.426 8.635 -21.43 7.668 C-21.446 6.73 -21.463 5.791 -21.48 4.824 C-21.057 1.728 -20.279 0.396 -18.117 -1.832 C-11.332 -4.094 -6.297 -2.863 0 0 Z " fill="#000000" transform="translate(3043.1171875,1830.83203125)"/>
<path d="M0 0 C7.762 -0.506 14.999 0.97 21.062 6.062 C23.986 8.766 24.901 10.253 25.438 14.312 C25 18 25 18 22.5 20.875 C18.874 23.445 15.419 24.29 11 24 C5.966 22.874 2.254 21.115 -1 17 C-1.426 14.16 -1.426 14.16 -1.312 11.062 C-1.288 10.043 -1.264 9.023 -1.238 7.973 C-1.019 5.239 -0.605 2.672 0 0 Z " fill="#000000" transform="translate(3556,670)"/>
<path d="M0 0 C4.107 2.52 4.107 2.52 5.75 4.688 C6.666 10.471 6.8 15.892 3.812 21 C-0.373 23.306 -3.577 23.552 -8.25 22.688 C-11.92 21.361 -14.583 19.441 -17.188 16.5 C-18.7 12.498 -19.083 8.904 -18.25 4.688 C-13.394 -1.612 -7.412 -2.993 0 0 Z " fill="#000000" transform="translate(3016.25,1871.3125)"/>
<path d="M0 0 C-0.322 7.718 -1.329 14.936 -6.68 20.859 C-9.689 23.572 -11.972 25.223 -16 26 C-20.914 19.535 -23.765 14.413 -23 6 C-21.6 2.579 -20.381 1.257 -17.312 -0.812 C-11.148 -3.022 -6.071 -2.428 0 0 Z " fill="#000000" transform="translate(2976,1456)"/>
<path d="M0 0 C0.677 2.518 1.342 5.039 2 7.562 C2.191 8.267 2.382 8.971 2.578 9.697 C3.758 14.271 4.199 18.278 4 23 C-1.341 26.636 -5.513 28.154 -12 27 C-15 25.562 -15 25.562 -17 23 C-18.397 18.477 -18.234 14.863 -17 10.312 C-12.915 3.546 -8.046 -0.217 0 0 Z " fill="#000000" transform="translate(2420,2702)"/>
<path d="M0 0 C7.994 0 11.644 0.435 17.613 5.32 C20.212 7.999 21.364 10.416 21.625 14.062 C20.759 19.52 18.414 21.169 14.188 24.375 C10.506 25.427 7.706 24.83 4 24 C1.69 22.35 -0.62 20.7 -3 19 C-2.01 12.73 -1.02 6.46 0 0 Z " fill="#000000" transform="translate(2905,1408)"/>
<path d="M0 0 C14.767 -0.205 14.767 -0.205 22 1 C23.725 4.451 23.369 8.22 23 12 C21.658 15.355 20.542 17.458 18 20 C15.461 20.23 15.461 20.23 12.375 20.188 C11.372 20.181 10.369 20.175 9.336 20.168 C5.513 19.975 1.793 19.514 -2 19 C-1.86 16.208 -1.713 13.417 -1.562 10.625 C-1.523 9.831 -1.484 9.037 -1.443 8.219 C-1.113 2.227 -1.113 2.227 0 0 Z " fill="#000000" transform="translate(412,4129)"/>
<path d="M0 0 C5.94 0 11.88 0 18 0 C21.114 12.455 21.114 12.455 18.879 17.562 C16.428 20.742 14.46 21.246 10.625 22.312 C10.064 22.476 10.064 22.476 7.227 23.301 C4 24 4 24 -1 24 C-0.67 16.08 -0.34 8.16 0 0 Z " fill="#000000" transform="translate(3184,1334)"/>
<path d="M0 0 C5.513 5.353 7.475 9.251 8 17 C7.526 20.576 6.659 23.829 4.875 27 C1.75 28.667 -1.593 28.636 -5 28 C-9.214 26.019 -11.062 23.842 -13.312 19.812 C-13.824 18.911 -14.336 18.01 -14.863 17.082 C-15.238 16.395 -15.614 15.708 -16 15 C-12.494 11.443 -8.894 8.037 -5.188 4.688 C-4.212 3.804 -3.236 2.921 -2.23 2.012 C-1.494 1.348 -0.758 0.684 0 0 Z " fill="#000000" transform="translate(3486,825)"/>
<path d="M0 0 C1.125 8.017 1.096 15.921 1 24 C-5.828 25.183 -11.75 25.394 -18 22 C-20.472 18.291 -20.775 15.3 -20 11 C-15.707 4.024 -8.2 0 0 0 Z " fill="#000000" transform="translate(3257,1136)"/>
<path d="M0 0 C1.479 -0.028 2.958 -0.047 4.438 -0.062 C5.261 -0.074 6.085 -0.086 6.934 -0.098 C10.97 0.031 14.986 0.554 19 1 C19 7.27 19 13.54 19 20 C12.4 19.67 5.8 19.34 -1 19 C-1 8.875 -1 8.875 -0.5 4.438 C-0.407 3.591 -0.314 2.744 -0.219 1.871 C-0.147 1.254 -0.074 0.636 0 0 Z " fill="#000000" transform="translate(2383,2515)"/>
<path d="M0 0 C1.98 0.33 1.98 0.33 12 2 C11.512 8.25 10.65 14.343 9.5 20.5 C9.369 21.206 9.239 21.913 9.104 22.641 C8.128 27.743 8.128 27.743 7 30 C2.162 29.585 0.144 27.58 -3 24 C-5.568 18.864 -4.868 10.624 -3.105 5.297 C-2 3.125 -2 3.125 0 0 Z " fill="#000000" transform="translate(4060,453)"/>
</svg>
