<?xml version="1.0" encoding="UTF-8"?>
<!-- Generator: visioncortex VTracer 0.6.12 -->
<svg version="1.1" xmlns="http://www.w3.org/2000/svg" width="4500" height="4500">
<path d="M0 0 C11.809 8.379 17.016 20.585 20.062 34.312 C20.232 34.994 20.402 35.676 20.577 36.379 C20.973 38.363 20.973 38.363 21 42 C19.051 44.574 19.051 44.574 16 47 C14.752 48.052 13.505 49.104 12.258 50.156 C10.883 51.274 9.505 52.388 8.125 53.5 C7.784 53.778 7.784 53.778 6.059 55.184 C1.811 58.622 -2.523 61.867 -7 65 C-6.711 65.981 -6.423 66.962 -6.125 67.973 C0.06 90.01 0.06 90.01 -4.656 99.242 C-9.578 105.033 -15.542 105.639 -22.688 106.562 C-24.38 106.786 -26.071 107.016 -27.762 107.254 C-28.504 107.35 -29.246 107.446 -30.01 107.545 C-32 108 -32 108 -35 110 C-35.633 112.449 -36.113 114.763 -36.5 117.25 C-37.299 122.271 -38.34 126.593 -41 131 C-45.988 134.325 -51.712 133.568 -57.488 132.57 C-69.7 129.333 -79.593 122.136 -89 114 C-91.031 112.321 -93.079 110.661 -95.125 109 C-99.877 105.123 -99.877 105.123 -101 104 C-101.575 98.128 -101.629 92.877 -98 88 C-93.782 84.395 -89.196 82.664 -83.938 81.062 C-74.39 78.016 -70.786 72.952 -65.691 64.562 C-62.572 59.837 -58.577 56.427 -53 55 C-49.991 54.853 -47.009 54.882 -44 55 C-44.322 53.902 -44.645 52.803 -44.977 51.672 C-48.23 38.578 -47.61 22.346 -40.609 10.684 C-31.179 -2.792 -14.772 -9.178 0 0 Z " fill="#000000" transform="translate(2397,2778)"/>
<path d="M0 0 C8.301 15.876 15.473 29.818 10.188 48.062 C8.951 51.896 7.743 55.009 5 58 C1.639 59.12 -1.214 59.252 -4.75 59.438 C-14.797 60.132 -14.797 60.132 -19 62 C-23.142 67.267 -24.041 74.345 -25.574 80.721 C-28.784 93.295 -35.851 102.42 -46.971 109.275 C-62.168 118.137 -80.12 121.747 -97.438 117.812 C-99.306 117.255 -101.162 116.653 -103 116 C-103.869 115.694 -104.738 115.389 -105.633 115.074 C-109.316 113.446 -111.442 112.19 -113.184 108.477 C-113.992 105.654 -114.552 102.9 -115 100 C-115.227 98.783 -115.454 97.566 -115.688 96.312 C-116.359 89.195 -116.656 82.403 -113 76 C-108.41 71.304 -104.25 69.86 -97.938 68.438 C-96.226 68.013 -94.515 67.587 -92.805 67.16 C-90.061 66.494 -87.316 65.837 -84.57 65.184 C-74.824 62.563 -66.379 57.646 -57.722 52.587 C-55.87 51.507 -54.011 50.439 -52.146 49.382 C-49.289 47.76 -46.455 46.104 -43.625 44.438 C-42.752 43.945 -41.878 43.452 -40.979 42.944 C-31.947 37.493 -28.316 29.367 -24.5 19.875 C-21.31 12.305 -17.978 4.478 -10 1 C-6.598 0.065 -3.51 -0.029 0 0 Z " fill="#000000" transform="translate(1877,3037)"/>
<path d="M0 0 C6.122 5.834 10.311 12.263 10.891 20.809 C10.992 28.236 10.201 34.707 8.371 41.895 C7.454 45.809 7.179 48.816 7.688 52.812 C10.393 56.073 13.216 57.743 17 59.562 C22.869 62.69 28.187 66.375 30.402 72.926 C31.11 77.148 30.585 80.063 28.688 83.812 C17.803 96.856 3.801 106.48 -13.441 108.305 C-19.967 108.848 -25.777 108.746 -32.312 107.812 C-32.312 95.933 -32.312 84.053 -32.312 71.812 C-23.312 68.812 -23.312 68.812 -20.312 68.812 C-19.57 64.613 -19.345 60.988 -20.312 56.812 C-23.703 53.238 -27.767 51.224 -32.125 49 C-34.341 47.786 -36.555 46.572 -38.77 45.355 C-39.857 44.772 -40.945 44.189 -42.065 43.587 C-45.281 41.83 -48.442 40.017 -51.574 38.113 C-52.465 37.575 -53.355 37.036 -54.272 36.482 C-56.648 34.538 -56.874 33.778 -57.312 30.812 C-56.628 27.936 -55.865 25.205 -54.961 22.398 C-54.705 21.588 -54.449 20.777 -54.185 19.941 C-53.641 18.23 -53.091 16.52 -52.536 14.812 C-51.69 12.197 -50.878 9.572 -50.066 6.945 C-49.533 5.283 -48.998 3.622 -48.461 1.961 C-48.221 1.174 -47.981 0.388 -47.734 -0.422 C-45.928 -5.83 -45.928 -5.83 -42.766 -7.669 C-27.725 -10.849 -12.066 -10.182 0 0 Z " fill="#000000" transform="translate(2526.3125,723.1875)"/>
<path d="M0 0 C0.641 0.003 0.641 0.003 3.887 0.02 C9.417 0.291 9.417 0.291 11.312 1.188 C17.579 12.286 19.046 27.611 16.188 39.875 C13.801 47.719 9.453 53.221 2.312 57.188 C-2.121 58.665 -6.594 58.577 -11.242 58.809 C-14.504 59.167 -16.806 59.646 -19.688 61.188 C-22.311 65.504 -23.998 69.994 -25.799 74.707 C-29.273 83.718 -32.746 91.538 -41.688 96.188 C-46.952 98.158 -51.133 98.563 -56.688 97.188 C-58.877 95.353 -60.512 93.775 -62.312 91.625 C-62.549 91.355 -62.549 91.355 -63.746 89.987 C-70.58 82.027 -74.15 75.421 -74.02 64.746 C-73.395 58.057 -71.37 52.069 -66.738 47.094 C-62.852 43.912 -58.742 41.705 -54.25 39.5 C-47.383 35.903 -43.267 30.24 -38.688 24.188 C-28.051 10.603 -18.591 -0.207 0 0 Z " fill="#000000" transform="translate(2464.6875,612.8125)"/>
<path d="M0 0 C17.429 4.779 32.516 11.901 42.098 27.824 C45.051 34.157 44.94 42.207 44 49 C38.974 57.984 30.993 62.904 22.192 67.716 C18.19 69.977 15.833 71.756 14 76 C13.338 78.485 12.738 80.988 12.188 83.5 C10.216 91.636 10.216 91.636 7.062 94.312 C6.052 94.869 5.041 95.426 4 96 C3.237 96.433 2.474 96.866 1.688 97.312 C-7.64 99.699 -15.565 96.862 -23.863 92.492 C-33.106 86.995 -41.04 79.643 -44 69 C-44.863 64.045 -44.59 61.028 -42.062 56.625 C-36.893 51.484 -30.634 50.872 -23.656 50.802 C-20.434 50.817 -17.22 50.893 -14 51 C-14.217 50.383 -14.433 49.765 -14.656 49.129 C-17.535 40.372 -18.278 33.538 -14.543 24.949 C-11.789 19.685 -8.566 14.718 -5.34 9.734 C-3.324 6.592 -1.6 3.377 0 0 Z " fill="#000000" transform="translate(2062,2942)"/>
<path d="M0 0 C6.774 3.79 8.534 8.164 10.625 15.438 C12.116 20.522 13.259 23.682 17.688 26.875 C18.863 27.473 20.039 28.071 21.25 28.688 C27.045 31.855 28.494 37.891 30.375 43.875 C34.189 59.004 33.623 75.708 26.688 89.875 C24.244 92.96 21.874 93.591 18.102 94.48 C17.006 94.742 15.91 95.003 14.781 95.271 C14.209 95.402 14.209 95.402 11.312 96.062 C10.176 96.335 9.039 96.608 7.867 96.889 C-1.363 99.05 -1.363 99.05 -6.312 98.875 C-36.254 31.537 -36.254 31.537 -31.559 14.07 C-30.617 11.876 -29.576 9.898 -28.312 7.875 C-27.776 6.968 -27.24 6.06 -26.688 5.125 C-18.795 -2.352 -9.88 -4.455 0 0 Z " fill="#000000" transform="translate(1724.3125,3524.125)"/>
<path d="M0 0 C11.389 10.151 11.389 10.151 12.113 16.727 C12.544 31.004 2.922 40.97 -5.68 51.492 C-8.641 55.734 -9.344 59.128 -9.125 64.25 C-8.993 76.229 -11.898 84.749 -20.117 93.742 C-24.741 98.078 -28.819 100.448 -35.328 100.621 C-42.949 100.24 -51.858 97.885 -57.941 93.148 C-61.934 87.799 -60.704 78.794 -59.857 72.602 C-56.056 50.532 -45.204 28.079 -30.125 11.562 C-29.371 10.727 -28.617 9.892 -27.84 9.031 C-20.181 0.939 -11.276 -5.187 0 0 Z " fill="#000000" transform="translate(2635.125,2651.4375)"/>
<path d="M0 0 C3.284 2.355 5.209 4.982 7.215 8.445 C7.626 9.143 8.037 9.84 8.461 10.559 C8.64 10.884 8.64 10.884 9.547 12.531 C13.552 17.644 18.9 19.289 25.023 20.559 C25.757 20.721 26.49 20.884 27.246 21.052 C33.576 22.441 39.937 23.685 46.305 24.883 C49.086 25.496 49.086 25.496 50.086 26.496 C51.512 38.108 44.983 53.227 38.086 62.496 C31.465 68.061 20.694 66.657 12.523 66.621 C11.642 66.625 10.761 66.629 9.854 66.633 C-5.8 66.61 -5.8 66.61 -8.914 63.496 C-9.442 61.095 -9.887 58.73 -10.289 56.309 C-12.304 45.57 -15.935 40.717 -24.914 34.496 C-26.494 33.449 -28.077 32.407 -29.664 31.371 C-35.387 27.602 -39.252 23.906 -41.914 17.496 C-42.174 14.753 -42.291 12.286 -42.227 9.559 C-42.23 8.881 -42.233 8.204 -42.236 7.506 C-42.188 2.877 -41.563 -1.175 -39.914 -5.504 C-26.871 -13.133 -11.717 -7.411 0 0 Z " fill="#000000" transform="translate(2928.9140625,1732.50390625)"/>
<path d="M0 0 C11.165 1.507 22.012 2.581 33.188 0.5 C40.408 8.236 41.793 16.678 41.655 26.879 C41.325 35.155 39.677 41.447 33.625 47.375 C22.046 56.586 7.179 56.221 -6.812 55.5 C-18.394 54.114 -30.892 49.416 -38.812 40.5 C-43.279 34.211 -44.656 28.093 -43.812 20.5 C-41.678 12.608 -37.762 4.948 -30.688 0.562 C-20.718 -3.122 -10.301 -1.493 0 0 Z " fill="#000000" transform="translate(2105.8125,462.5)"/>
<path d="M0 0 C2.555 0.917 5.054 1.915 7.555 2.968 C8.44 3.334 9.326 3.7 10.238 4.077 C20.281 8.33 29.68 13.532 34.79 23.667 C37.332 31.881 36.315 41.623 32.618 49.343 C30.77 51.191 27.596 50.564 25.118 50.655 C12.267 51.342 -0.013 55.127 -12.319 58.68 C-24.601 62.198 -39.396 63.764 -51.382 58.343 C-55.084 55.875 -55.764 53.389 -57.07 49.343 C-57.289 48.669 -57.508 47.996 -57.734 47.302 C-59.717 40.852 -60.778 34.91 -58.257 28.468 C-52.599 22.055 -46.554 21.381 -38.382 20.28 C-24.927 18.42 -24.927 18.42 -20.382 15.343 C-19.062 13.546 -19.062 13.546 -18.257 11.593 C-17.948 10.895 -17.639 10.198 -17.32 9.479 C-17.01 8.774 -16.701 8.069 -16.382 7.343 C-12.396 -0.322 -8.637 -2.383 0 0 Z " fill="#000000" transform="translate(1641.38232421875,3757.6572265625)"/>
<path d="M0 0 C7.523 1.439 14.664 3.734 21.849 6.356 C23.162 6.829 24.48 7.287 25.802 7.731 C36.748 11.415 36.748 11.415 39.74 15.203 C40.784 17.472 41.467 19.564 42 22 C42.121 22.407 42.121 22.407 42.73 24.465 C44.174 38.039 44.275 51.797 36.188 63.375 C30.423 70.325 24.458 75.341 15.246 76.281 C2.978 76.665 -10.478 73.453 -19.98 65.301 C-26.67 57.95 -27.572 50.6 -27.277 40.949 C-26.703 32.777 -24.851 26.885 -19.164 20.871 C-15.882 18.033 -12.234 15.896 -8.531 13.652 C-4.054 10.73 -1.471 7.957 -0.188 2.625 C-0.157 2.192 -0.157 2.192 0 0 Z " fill="#000000" transform="translate(2596,684)"/>
<path d="M0 0 C6.852 0.599 13.608 1.454 20.375 2.688 C21.25 2.823 22.126 2.959 23.027 3.1 C27.551 3.939 29.452 4.362 32.539 7.957 C34.394 11.82 35.116 14.48 34.992 18.711 C34.975 19.626 34.959 20.541 34.941 21.484 C34.897 23.404 34.845 25.323 34.785 27.242 C34.646 36.23 34.646 36.23 38 40 C40.707 42.062 40.707 42.062 43.812 44 C44.881 44.691 45.95 45.382 47.051 46.094 C48.024 46.723 48.997 47.352 50 48 C55.003 51.395 58.461 55.082 60 61 C60.59 68.294 61.222 76.248 58 83 C47.53 86.816 30.055 85.146 20 81 C16.471 79.241 13.23 77.257 10 75 C8.927 74.257 7.855 73.515 6.75 72.75 C-3.214 62.786 -6.91 48.889 -7.25 35.125 C-6.916 22.801 -3.938 11.572 0 0 Z " fill="#000000" transform="translate(2787,1505)"/>
<path d="M0 0 C45.16 2.615 45.16 2.615 60.75 18.184 C64.538 22.925 65.478 27.648 65.309 33.578 C64.119 42.917 58.754 51.245 51.453 57.012 C41.036 64.03 30.999 66.464 18.52 64.637 C11.74 62.921 8.001 58.522 4 53 C2.863 51.091 1.738 49.174 0.625 47.25 C-2.821 41.549 -6.834 39.245 -13 37 C-13.59 31.85 -13.904 27.127 -13 22 C-10.603 19.564 -8.524 18.478 -5.383 17.176 C-2.474 15.741 -2.146 14.983 -1 12 C-0.715 9.926 -0.511 7.839 -0.375 5.75 C-0.3 4.672 -0.225 3.595 -0.148 2.484 C-0.099 1.665 -0.05 0.845 0 0 Z " fill="#000000" transform="translate(2259,512)"/>
<path d="M0 0 C1.005 0.007 2.01 0.014 3.046 0.021 C11.038 0.194 18.639 0.655 24.602 6.496 C27.136 10.422 28.102 14.302 29.188 18.812 C29.294 19.225 29.294 19.225 29.83 21.312 C31.01 26.002 31.898 30.634 32.5 35.438 C32.568 35.798 32.568 35.798 32.914 37.625 C33.168 39.805 33.123 41.322 32.5 43.438 C25.131 52.236 10.623 57.768 -0.5 59.438 C-10.316 60.292 -19.755 60.523 -28.5 55.438 C-29.141 55.098 -29.781 54.759 -30.441 54.41 C-36.767 50.571 -39.824 44.108 -42.812 37.562 C-45.847 23.769 -45.847 23.769 -42.5 18.062 C-32.367 4.653 -16.246 -0.17 0 0 Z " fill="#000000" transform="translate(1832.5,3801.5625)"/>
<path d="M0 0 C6.537 4.001 13.427 10.041 16.074 17.461 C18.565 29.765 16.128 38.397 9.523 48.68 C4.901 55.25 -0.791 60.118 -8.477 62.68 C-17.288 63.545 -24.158 62.852 -31.477 57.68 C-41.542 49.397 -49.088 37.609 -50.751 24.517 C-51.365 16.645 -51.824 8.05 -46.477 1.68 C-35.351 -10.383 -13.019 -6.94 0 0 Z " fill="#000000" transform="translate(2808.4765625,2237.3203125)"/>
<path d="M0 0 C10.675 6.814 15.48 20.05 18.25 31.875 C20.051 41.992 20.211 53.132 15.188 62.312 C7.546 71.701 -3.399 71.14 -14.718 72.303 C-15.088 72.341 -15.088 72.341 -16.961 72.535 C-17.29 72.568 -17.29 72.568 -18.955 72.735 C-21.33 73.043 -23.656 73.509 -26 74 C-28.749 70.299 -31.452 66.568 -34.118 62.806 C-35.027 61.535 -35.949 60.273 -36.882 59.019 C-42.804 51.049 -46.115 45.33 -45.487 35.01 C-44.751 30.458 -43.442 26.894 -41 23 C-40.56 22.264 -40.121 21.528 -39.668 20.77 C-32.817 10.693 -12.671 -3.493 0 0 Z " fill="#000000" transform="translate(2451,419)"/>
<path d="M0 0 C0.502 0.005 0.502 0.005 3.043 0.027 C5.487 0.051 7.931 0.083 10.375 0.125 C10.56 0.793 10.746 1.461 10.937 2.15 C13.75 11.959 18.143 18.369 25.641 25.301 C28.53 28.34 29.692 31.137 29.875 35.312 C29.659 43.066 24.506 48.281 19.125 53.375 C9.43 61.607 -0.273 63.874 -12.669 63.3 C-21.694 62.493 -29.369 56.685 -35.379 50.246 C-41.47 42.69 -44.399 34.749 -44 25.016 C-43.019 17.454 -39.814 12.364 -33.891 7.625 C-23.717 0.889 -11.887 -0.206 0 0 Z " fill="#000000" transform="translate(2916.625,2070.875)"/>
<path d="M0 0 C2.03 2.072 3.713 4.011 5.438 6.312 C5.918 6.94 6.398 7.568 6.892 8.215 C15.124 19.261 20.541 30.992 19 45 C17.043 53.039 12.985 58.944 5.91 63.281 C-2.615 67.726 -12.33 68.552 -21.688 66.062 C-28.641 63.343 -34.965 57.558 -38.5 51 C-39.045 49.684 -39.547 48.35 -40 47 C-40.222 46.361 -40.443 45.721 -40.672 45.062 C-44.309 32.088 -42.074 17.57 -38.385 4.887 C-37 3 -37 3 -33.915 2.163 C-32.616 2.01 -31.318 1.857 -29.98 1.699 C-29.285 1.614 -28.589 1.528 -27.873 1.44 C-26.4 1.263 -24.926 1.094 -23.452 0.934 C-21.204 0.689 -18.961 0.416 -16.717 0.139 C-4.161 -1.342 -4.161 -1.342 0 0 Z " fill="#000000" transform="translate(2863,1641)"/>
<path d="M0 0 C2.453 -0.275 4.158 -0.284 6.523 0.426 C13.975 6.543 17.707 20.8 18.846 30.041 C19.646 41.001 19.087 50.503 12.922 59.855 C9.688 63.321 6.018 65.329 1.898 67.613 C0.363 68.479 -1.171 69.348 -2.703 70.219 C-3.379 70.595 -4.056 70.972 -4.752 71.36 C-6.477 72.426 -6.477 72.426 -8.477 74.426 C-13.932 73.92 -17.155 69.361 -20.477 65.426 C-29.079 53.972 -35.737 41.13 -34.477 26.426 C-33.203 19.455 -30.769 13.281 -25.477 8.426 C-17.277 3.032 -9.414 1.619 0 0 Z " fill="#000000" transform="translate(2647.4765625,2498.57421875)"/>
<path d="M0 0 C5.832 5.573 7.641 13.824 7.891 21.59 C8.092 35.35 7.617 48.681 0.688 61 C0.156 62.02 -0.375 63.041 -0.923 64.092 C-3.312 67 -3.312 67 -6.704 67.681 C-8.037 67.68 -9.371 67.647 -10.703 67.586 C-11.055 67.582 -11.055 67.582 -12.838 67.56 C-15.081 67.527 -17.321 67.451 -19.562 67.375 C-21.086 67.345 -22.609 67.318 -24.133 67.293 C-27.861 67.227 -31.586 67.123 -35.312 67 C-35.965 64.907 -36.616 62.813 -37.266 60.719 C-37.628 59.553 -37.991 58.387 -38.364 57.186 C-42.506 43.271 -41.118 26.67 -35.062 13.5 C-30.197 4.783 -23.764 0.275 -14.316 -2.609 C-9.07 -3.632 -4.533 -2.737 0 0 Z " fill="#000000" transform="translate(2313.3125,2748)"/>
<path d="M0 0 C8.8 6.955 14.034 21.637 15.77 32.398 C16.44 40.562 16.44 40.562 15.77 44.398 C12.652 47.83 7.871 49 3.582 50.461 C3.198 50.593 3.198 50.593 1.257 51.258 C-10.932 55.376 -23.913 58.381 -36.172 52.664 C-40.288 50.134 -42.378 47.103 -44.543 42.773 C-46.85 31.447 -44.9 21.579 -39.105 11.711 C-34.267 4.524 -28.07 -0.856 -19.617 -3.23 C-12.911 -4.273 -5.927 -3.404 0 0 Z " fill="#000000" transform="translate(2683.23046875,1134.6015625)"/>
<path d="M0 0 C0.222 0.629 0.443 1.258 0.672 1.906 C3.678 9.138 7.594 12.329 14.258 16.309 C18.833 19.131 18.833 19.131 20 21 C19.89 27.815 17.025 34.279 14.75 40.625 C14.367 41.744 13.984 42.863 13.59 44.016 C10.941 51.44 8.919 55.714 2 59.75 C-7.43 63.679 -20.391 63.379 -29.957 59.902 C-36.289 57.106 -40.451 53.474 -43 47 C-44.462 38.492 -42.221 30.951 -37.574 23.809 C-36.11 21.815 -34.575 19.907 -33 18 C-32.278 17.01 -31.556 16.02 -30.812 15 C-23.071 5.86 -12.048 -1.004 0 0 Z " fill="#000000" transform="translate(2735,1568)"/>
<path d="M0 0 C6.078 1.917 10.853 6.087 15.892 9.848 C19.53 12.545 23.101 15.142 27.07 17.332 C30.461 19.24 33.35 21.091 36 24 C38.534 33.772 35.698 45.504 31.312 54.438 C25.649 60.714 18.398 63.863 9.949 64.336 C0.926 64.528 -7.479 64.535 -14.793 58.527 C-20.801 52.252 -23.724 43.562 -24 35 C-22.94 26.391 -18.272 21.16 -12.234 15.293 C-2.811 5.623 -2.811 5.623 0 0 Z " fill="#000000" transform="translate(1676,3215)"/>
<path d="M0 0 C6.744 7.072 8.495 15.407 8.316 24.934 C7.547 32.386 4.414 38.822 -1 44 C-9.316 50.132 -19.497 54.375 -30 53 C-43.575 50.569 -43.575 50.569 -48 47 C-48.615 43.757 -48.615 43.757 -48.594 39.77 C-48.594 39.06 -48.594 38.351 -48.594 37.62 C-48.589 36.118 -48.571 34.616 -48.542 33.114 C-48.5 30.837 -48.501 28.564 -48.508 26.287 C-48.441 10.398 -48.441 10.398 -43.273 3.793 C-32.139 -5.623 -12.77 -8.321 0 0 Z " fill="#000000" transform="translate(1569,3443)"/>
<path d="M0 0 C7.41 7.578 10.61 16.26 10.75 26.812 C9.951 35.318 7.301 41.549 1.25 47.562 C-5.139 52.826 -12.875 54.173 -21 53.812 C-29.101 52.707 -34.62 48.326 -39.707 42.098 C-45.133 34.061 -46.385 25.329 -45.25 15.812 C-43.524 8.076 -39.789 3.208 -33.25 -1.188 C-22.55 -7.154 -10.136 -6.822 0 0 Z " fill="#000000" transform="translate(2033.25,3901.1875)"/>
<path d="M0 0 C0.703 -0.003 1.407 -0.005 2.131 -0.008 C17.288 -0.014 33.786 1.115 45.312 12.312 C48.522 17.071 49.226 21.717 48.312 27.312 C46.339 33.316 43.471 36.585 38.75 40.688 C38.16 41.22 37.571 41.752 36.963 42.301 C30.022 48.507 23.453 47.852 14.528 47.487 C5.801 46.799 -1.566 42.386 -7.688 36.312 C-14.672 27.678 -17.854 19.101 -17.75 8 C-17.741 6.746 -17.732 5.491 -17.723 4.199 C-17.717 3.723 -17.717 3.723 -17.688 1.312 C-12.052 -0.566 -5.901 0.021 0 0 Z " fill="#000000" transform="translate(2695.6875,1216.6875)"/>
<path d="M0 0 C7.416 4.252 12.898 10.377 16.629 18.016 C18.435 26.716 18.144 34.718 13.316 42.328 C9.743 47.21 5.089 53.058 -0.684 55.328 C-6.836 55.823 -11.46 54.747 -17.184 52.578 C-17.537 52.452 -17.537 52.452 -19.328 51.812 C-21.467 51.03 -23.572 50.183 -25.684 49.328 C-26.424 49.071 -27.163 48.814 -27.926 48.549 C-31.001 47.325 -33.132 46.465 -34.618 43.403 C-37.02 33.637 -38.183 16.481 -33.684 7.328 C-24.645 -3.276 -12.767 -5.82 0 0 Z " fill="#000000" transform="translate(1726.68359375,3641.671875)"/>
<path d="M0 0 C0.634 1.329 1.256 2.664 1.875 4 C2.223 4.742 2.571 5.485 2.93 6.25 C7.41 17.762 8.281 32.265 3.262 43.73 C-0.237 50.024 -3.926 53.9 -11 56 C-13.808 56.374 -16.547 56.382 -19.375 56.312 C-20.123 56.301 -20.871 56.29 -21.642 56.278 C-29.759 56.077 -36.544 55.38 -43 50 C-47.662 43.584 -46.635 36.337 -45.531 28.801 C-43.443 19.094 -39.257 11.848 -30.988 6.211 C-21.565 0.472 -10.826 -0.431 0 0 Z " fill="#000000" transform="translate(2679,2332)"/>
<path d="M0 0 C7.882 4.694 13.886 10.83 17.203 19.398 C18.068 26.534 17.642 31.505 13.453 37.461 C7.408 44.103 -0.236 47.879 -9.133 48.699 C-20.851 49.011 -31.595 45.304 -42.547 41.461 C-41.395 27.681 -40.107 14.306 -30.547 3.461 C-21.516 -3.702 -10.547 -4.797 0 0 Z " fill="#000000" transform="translate(1995.546875,3009.5390625)"/>
<path d="M0 0 C8.003 5.513 11.059 12.458 12.812 21.938 C13.88 32.5 13.89 43.674 7.359 52.492 C3.427 56.927 -1.209 58.044 -6.812 59.438 C-7.283 59.569 -7.283 59.569 -9.664 60.234 C-17.713 62.384 -17.713 62.384 -21.188 60.938 C-22.747 58.477 -24.015 56.179 -25.25 53.562 C-25.601 52.836 -25.951 52.109 -26.313 51.361 C-32.015 39.239 -35.295 26.068 -31.188 12.938 C-28.899 6.791 -24.926 3.709 -19.188 0.938 C-12.8 -1.501 -6.519 -2.173 0 0 Z " fill="#000000" transform="translate(2584.1875,838.0625)"/>
<path d="M0 0 C7.451 9.045 6.83 19.846 6 31 C4.394 42.132 0.661 53.674 -8.254 60.941 C-12.796 63.695 -17.875 63.18 -23 63 C-23.819 62.972 -24.637 62.943 -25.48 62.914 C-31.367 62.511 -31.367 62.511 -33.938 60.438 C-39.508 47.658 -38.106 31.7 -33.186 18.877 C-29.294 9.695 -25.498 2.574 -16.5 -2.375 C-10.351 -3.912 -5.448 -3.229 0 0 Z " fill="#000000" transform="translate(1891,3969)"/>
<path d="M0 0 C5.178 4.318 7.738 9.277 9.125 15.812 C9.79 25.457 7.064 33.023 1.723 41 C-0.731 43.783 -2.772 44.668 -6.434 45.148 C-17.745 45.302 -30.197 42.534 -38.875 34.812 C-40.978 31.655 -41.913 28.463 -42.875 24.812 C-43.053 24.179 -43.23 23.545 -43.413 22.892 C-47.587 7.964 -47.587 7.964 -46.875 2.812 C-35.226 -9.017 -12.934 -9.272 0 0 Z " fill="#000000" transform="translate(1980.875,528.1875)"/>
<path d="M0 0 C0.841 0.003 1.681 0.007 2.547 0.01 C10.509 0.149 19.488 0.976 25.812 6.312 C28.98 10.641 29.374 14.435 28.621 19.602 C25.415 30.351 16.162 37.066 6.812 42.312 C-2.213 46.644 -12.333 48.317 -22.086 45.465 C-28.66 42.553 -33.372 38.006 -35.988 31.242 C-36.054 30.605 -36.12 29.969 -36.188 29.312 C-34.868 27.75 -33.531 26.2 -32.133 24.707 C-29.135 21.017 -26.899 16.89 -24.612 12.731 C-21.502 7.278 -18.218 3.711 -12.387 1.02 C-8.215 0.098 -4.261 -0.028 0 0 Z " fill="#000000" transform="translate(2766.1875,2425.6875)"/>
<path d="M0 0 C0.69 0.034 1.38 0.069 2.09 0.104 C9.56 0.601 9.56 0.601 12.812 2.688 C16.109 11.058 17.762 21.894 14.312 30.375 C7.903 39.966 -3.077 46.402 -14.188 48.688 C-21.04 49.589 -26.056 47.581 -31.875 44.062 C-36.702 39.105 -38.433 33.602 -38.75 26.75 C-38.454 18.997 -35.65 12.668 -30 7.312 C-20.964 0.378 -10.982 -0.577 0 0 Z " fill="#000000" transform="translate(2724.1875,1496.3125)"/>
<path d="M0 0 C8.117 5.846 13.225 14.656 14.938 24.41 C15.741 31.032 15.609 36.588 12.438 42.562 C8.609 47.348 4.007 50.97 -2.105 51.984 C-10.175 52.394 -16.576 50.144 -22.602 44.73 C-30.387 36.333 -32.962 28.12 -32.836 16.824 C-32.311 10.566 -29.867 6.533 -25.375 2.25 C-17.374 -4.007 -8.761 -5.218 0 0 Z " fill="#000000" transform="translate(2744.5625,841.4375)"/>
<path d="M0 0 C0.875 0.111 1.75 0.222 2.652 0.336 C5.413 0.688 8.173 1.047 10.934 1.406 C12.82 1.648 14.706 1.889 16.592 2.129 C21.186 2.715 25.779 3.309 30.371 3.906 C31.701 8.24 30.68 11.648 29.535 15.918 C29.436 16.302 29.436 16.302 28.933 18.248 C28.512 19.869 28.086 21.488 27.656 23.107 C26.996 25.593 26.351 28.082 25.707 30.572 C25.296 32.146 24.885 33.72 24.473 35.293 C24.278 36.041 24.083 36.789 23.882 37.559 C22.488 42.789 22.488 42.789 21.371 43.906 C7.212 45.138 -4.437 41.661 -15.629 32.906 C-21.894 26.953 -26.892 20.772 -27.688 11.926 C-27.583 8.341 -26.445 5.952 -24.629 2.906 C-17.763 -3.469 -8.589 -1.134 0 0 Z " fill="#000000" transform="translate(2399.62890625,2505.09375)"/>
<path d="M0 0 C4.181 3.828 6.748 7.227 7.273 13.004 C7.546 22.564 6.393 29.03 -0.02 36.285 C-7.975 43.962 -15.354 45.46 -26.181 45.354 C-33.106 45.122 -37.573 44.066 -42.938 39.5 C-45.906 35.902 -46.354 32.863 -46.277 28.242 C-45.048 18.307 -37.531 9.742 -30.152 3.539 C-21.289 -2.799 -9.889 -5.745 0 0 Z " fill="#000000" transform="translate(1966,3998)"/>
<path d="M0 0 C13.062 0.886 25.382 4.966 35.023 14.055 C41.318 21.797 41.673 29.295 41.023 39.055 C40.042 43.898 38.77 47.935 36.023 52.055 C33.44 52.393 31.17 52.53 28.586 52.492 C27.866 52.484 27.146 52.476 26.404 52.467 C17.114 52.176 9.539 49.538 2.742 43.047 C-3.428 35.895 -6.362 27.641 -6.289 18.242 C-6.287 17.54 -6.285 16.838 -6.283 16.115 C-5.975 0.165 -5.975 0.165 0 0 Z " fill="#000000" transform="translate(1808.9765625,4029.9453125)"/>
<path d="M0 0 C11.604 6.662 19.191 16.785 22.965 29.598 C23.652 33.058 23.794 35.32 22.184 38.52 C18.769 43.272 14.943 47.433 9.293 49.316 C0.457 50.451 -5.842 47.967 -12.867 42.695 C-20.02 36.287 -25.999 25.801 -26.91 16.168 C-27.017 11.104 -26.648 7.63 -23.707 3.316 C-16.556 -3.893 -8.819 -4.357 0 0 Z " fill="#000000" transform="translate(2444.70703125,2706.68359375)"/>
<path d="M0 0 C5.322 3.832 8.649 7.551 10 14 C11.395 26.42 6.537 38.278 -0.594 48.223 C-4.312 52.879 -7.923 56.225 -14 57 C-19.628 56.67 -24.066 55.158 -28 51 C-33.588 42.874 -33.963 34.586 -33 25 C-30.047 15.272 -24.013 8.486 -15.305 3.438 C-5.265 -1.714 -5.265 -1.714 0 0 Z " fill="#000000" transform="translate(2705,1271)"/>
<path d="M0 0 C0.494 0.001 0.494 0.001 2.997 0.009 C6.135 0.02 9.272 0.045 12.41 0.07 C14.546 0.08 16.682 0.089 18.818 0.098 C24.037 0.12 29.255 0.153 34.473 0.195 C34.565 18.133 34.565 18.133 33.973 25.758 C33.926 26.377 33.926 26.377 33.691 29.512 C33.619 30.397 33.547 31.283 33.473 32.195 C19.347 38.566 4.847 37.313 -9.527 32.195 C-10.756 31.798 -11.984 31.401 -13.25 30.992 C-20.047 28.655 -20.047 28.655 -22.527 27.195 C-24.229 21.733 -22.574 17.32 -21.027 12.008 C-20.795 11.093 -20.563 10.179 -20.324 9.236 C-20.072 8.363 -19.819 7.49 -19.559 6.59 C-19.338 5.794 -19.116 4.999 -18.889 4.179 C-17.188 1.701 -15.549 1.16 -12.665 0.499 C-8.45 -0.1 -4.25 -0.046 0 0 Z " fill="#000000" transform="translate(2893.52734375,1987.8046875)"/>
<path d="M0 0 C5.263 3.698 8.478 7.674 10.535 13.781 C11.674 21.583 10.282 28.398 5.535 34.781 C-1.74 39.877 -13.111 37.911 -21.465 36.781 C-30.269 35.016 -36.412 31.424 -42.465 24.781 C-44.471 20.769 -44.082 16.132 -43.465 11.781 C-41.93 8.615 -39.937 6.265 -37.465 3.781 C-36.974 3.288 -36.483 2.794 -35.977 2.285 C-25.725 -7.027 -11.663 -6.656 0 0 Z " fill="#000000" transform="translate(1846.46484375,3244.21875)"/>
<path d="M0 0 C8.089 2.286 15.528 5.221 20.248 12.544 C23.509 18.729 24.132 24.352 24.091 31.306 C24.093 31.648 24.093 31.648 24.103 33.38 C24.093 38.429 24.093 38.429 22.966 39.556 C8.394 41.89 -7.991 40.315 -20.409 31.806 C-25.763 27.408 -29.015 22.61 -29.971 15.681 C-30.299 9.439 -29.706 3.365 -26.471 -2.069 C-18.871 -6.357 -7.902 -2.132 0 0 Z " fill="#000000" transform="translate(2478.03369140625,1198.4443359375)"/>
<path d="M0 0 C8.855 6.088 13.768 14.401 16.25 24.688 C17.748 33.143 17.971 42.676 16 51.062 C9.882 54.121 0.457 52.578 -5.812 50.5 C-11.289 48.208 -15.632 45.046 -20 41.062 C-20.709 40.466 -21.418 39.869 -22.148 39.254 C-25.1 36.448 -26.828 34.421 -27.348 30.309 C-26.756 19.243 -23.498 9.798 -15.902 1.707 C-11.414 -2.173 -5.349 -1.672 0 0 Z " fill="#000000" transform="translate(2696,2420.9375)"/>
<path d="M0 0 C10.254 -0.571 16.758 0.472 25.25 6.188 C32.595 13.7 34.381 21.383 34.277 31.609 C33.581 40.127 29.785 45.952 24 52 C14.868 49.264 4.076 43.174 -1.312 35.012 C-7.143 23.613 -3.055 11.632 0 0 Z " fill="#000000" transform="translate(1781,3502)"/>
</svg>
