<?xml version="1.0" encoding="UTF-8"?>
<!-- Generator: visioncortex VTracer 0.6.12 -->
<svg viewBox="1514.19 1252.22 1471.05 1995.84" version="1.1" xmlns="http://www.w3.org/2000/svg" width="4500" height="4500">
<path d="M0 0 C1.152 0.216 2.304 0.432 3.491 0.654 C19.089 3.342 34.54 3.296 50.308 3.089 C55.124 3.027 59.94 2.974 64.756 2.94 C67.3 2.921 69.843 2.892 72.386 2.85 C100.381 2.616 122.403 12.348 142.25 31.812 C152.262 41.925 161.801 53.63 162.5 68.438 C161.908 80.476 155.861 90.355 150.047 100.582 C146.223 107.311 142.622 114.16 139 121 C139.555 120.887 140.11 120.774 140.681 120.658 C146.455 119.486 152.231 118.319 158.006 117.155 C160.162 116.72 162.317 116.283 164.472 115.845 C167.569 115.216 170.667 114.592 173.766 113.969 C174.729 113.772 175.693 113.575 176.686 113.372 C177.586 113.192 178.487 113.012 179.415 112.826 C180.206 112.666 180.996 112.506 181.811 112.342 C184 112 184 112 188 112 C188 138.4 188 164.8 188 192 C194.369 191.35 200.739 190.701 207.301 190.031 C211.352 189.62 215.404 189.21 219.455 188.801 C225.876 188.152 232.298 187.502 238.718 186.845 C243.898 186.315 249.079 185.791 254.26 185.27 C256.23 185.071 258.2 184.87 260.169 184.667 C279.984 182.628 279.984 182.628 289 183 C291.228 195.867 287.978 208.039 281 219 C274.92 226.98 267.091 235.653 257 238 C251.95 238.203 246.903 237.997 241.854 237.834 C234.839 237.707 229.902 238.055 224.152 242.395 C222.938 243.812 222.938 243.812 221 247 C221.75 249.855 221.75 249.855 223 253 C229.08 268.969 229.654 284.212 222.602 299.988 C213.584 316.945 198.887 328.58 180.691 334.273 C166.384 338.136 150.64 337.035 137.375 330.375 C124.969 323.143 116.205 313.364 112.312 299.562 C109.347 275.246 124.076 251.974 135.066 231.335 C145.505 211.708 145.505 211.708 144.254 207.477 C143.069 205.136 141.869 203.256 140.188 201.25 C139.707 200.657 139.226 200.064 138.73 199.453 C136.369 197.471 135.102 197.091 132 197 C129.253 198.034 126.789 199.116 124.188 200.438 C123.441 200.803 122.695 201.168 121.926 201.545 C119.61 202.683 117.305 203.84 115 205 C113.631 205.679 112.261 206.358 110.891 207.035 C105.495 209.713 100.117 212.425 94.758 215.176 C81.05 222.178 66.638 228.457 51 223.812 C44.726 221.358 41.438 216.593 38 211 C36.77 207.703 36.77 207.703 35.812 204.25 C35.651 203.685 35.651 203.685 34.832 200.828 C32.858 191.748 32.748 182.469 32.482 173.211 C31.838 155.955 31.838 155.955 27 150 C25.172 148.789 25.172 148.789 23 148 C20.852 148.461 20.852 148.461 18.625 149.375 C11.924 151.803 11.924 151.803 8 151 C4.013 146.875 2.061 143.312 0.238 137.805 C0.006 137.111 -0.226 136.418 -0.466 135.704 C-1.221 133.432 -1.955 131.154 -2.688 128.875 C-3.209 127.281 -3.731 125.688 -4.253 124.094 C-9.731 107.229 -14.536 90.16 -19 73 C-19.236 72.134 -19.471 71.268 -19.714 70.376 C-22.126 60.857 -21.39 52.355 -18.062 43.188 C-17.753 42.3 -17.444 41.413 -17.125 40.499 C-12.218 26.663 -6.724 13.055 0 0 Z " fill="#000000" transform="translate(2323,2055)"/>
<path d="M0 0 C12.921 11.782 16.468 28.53 18.68 45.164 C31.652 40.887 41.152 32.599 49.93 22.414 C59.985 10.822 69.828 0.17 86 -1.004 C88.624 -1.124 91.241 -1.183 93.867 -1.211 C94.711 -1.225 95.554 -1.239 96.423 -1.253 C103.323 -1.201 109.054 -0.104 114.43 4.539 C114.801 4.972 114.801 4.972 116.68 7.164 C117.36 7.865 118.041 8.567 118.742 9.289 C126.489 20.784 126.9 36.08 128.391 49.477 C128.451 50.007 128.451 50.007 128.76 52.691 C128.992 54.744 129.211 56.798 129.414 58.854 C130.403 67.652 132.764 74.746 138.93 81.289 C139.715 82.123 140.5 82.957 141.309 83.816 C144.041 86.521 146.894 89.026 149.824 91.512 C155.279 96.37 159.199 100.999 160.055 108.414 C159.457 114.394 157.523 119.272 153.305 123.602 C138.124 132.638 117.098 126.461 101.091 122.567 C84.797 118.658 84.797 118.658 78.035 122.773 C77.32 123.48 76.604 124.186 75.867 124.914 C75.04 125.717 74.212 126.52 73.359 127.348 C71.422 129.384 69.513 131.431 67.625 133.512 C67.104 134.085 66.583 134.658 66.046 135.249 C65.037 136.371 64.039 137.503 63.053 138.646 C58.89 143.349 53.799 147.542 47.305 148.227 C44.992 148.133 44.992 148.133 42.68 147.164 C40.604 144.703 38.887 142.155 37.178 139.431 C25.5 121.004 2.562 114.753 -17.062 108.501 C-40.546 101.013 -61.136 92.264 -73.32 69.164 C-79.879 55.09 -81.973 41.109 -76.641 26.156 C-70.384 11.977 -59.607 1.109 -45.387 -5.121 C-29.66 -11.075 -13.487 -10.672 0 0 Z " fill="#000000" transform="translate(2200.3203125,3079.8359375)"/>
<path d="M0 0 C0.686 -0.021 1.373 -0.041 2.08 -0.062 C7.073 -0.1 10.799 0.646 15.188 3.25 C17.227 5.606 18.728 8.164 20.25 10.875 C21.102 12.318 21.955 13.761 22.809 15.203 C23.213 15.899 23.618 16.594 24.035 17.311 C25.947 20.527 28.084 23.583 30.227 26.648 C31.188 28.25 31.188 28.25 31.188 30.25 C32.46 30.045 33.732 29.84 35.043 29.629 C86.082 21.69 86.082 21.69 105.039 35.297 C114.355 43.266 120.99 54.189 122.461 66.547 C122.688 72.034 122.154 75.933 118.914 80.449 C115.555 83.953 111.462 86.035 107.188 88.25 C104.873 89.454 102.56 90.662 100.25 91.875 C99.168 92.424 98.087 92.973 96.973 93.539 C93.67 95.568 91.792 97.515 90.505 101.208 C88.737 110.443 88.268 119.842 87.661 129.211 C86.458 147.449 83.67 169.625 70.188 183.25 C62.54 185.758 55.09 182.415 48.188 179.125 C41.865 175.895 36.487 171.952 31.188 167.25 C30.379 166.55 29.571 165.85 28.738 165.129 C24.219 161.149 19.948 157.004 15.75 152.688 C1.886 138.843 1.886 138.843 -6.25 138.562 C-11.332 138.955 -16.187 140.175 -21.094 141.516 C-31.959 144.45 -43.204 144.083 -53.371 138.961 C-63.286 132.707 -68.03 124.583 -71.359 113.417 C-76.874 87.066 -67.306 57.609 -53.098 35.582 C-49.682 30.504 -45.904 25.798 -41.812 21.25 C-41.093 20.448 -40.374 19.646 -39.633 18.82 C-29.028 7.612 -15.564 0.115 0 0 Z " fill="#000000" transform="translate(2046.8125,2316.75)"/>
<path d="M0 0 C11.821 9.282 22.442 21.184 24.812 36.5 C25.296 42.356 24.045 46.909 21.438 52.125 C11.853 63.43 -3.046 65.41 -17 67 C-16.469 67.499 -15.938 67.998 -15.391 68.512 C-6.789 77.254 -4.65 86.594 -4.5 98.562 C-4.767 124.13 -14.003 153.976 -31.139 173.428 C-34.309 176.278 -37.349 177.662 -41.301 179.051 C-42.006 179.311 -42.712 179.571 -43.439 179.839 C-45.725 180.678 -48.018 181.496 -50.312 182.312 C-51.892 182.886 -53.471 183.459 -55.049 184.034 C-106.675 202.743 -106.675 202.743 -129.312 192.375 C-141.268 185.857 -147.112 176.068 -151.875 163.734 C-155.207 151.98 -154.299 136.299 -148.711 125.512 C-142.153 114.798 -132.857 111.967 -121.102 109.004 C-120.441 108.836 -119.78 108.668 -119.1 108.494 C-117.218 108.023 -115.332 107.574 -113.445 107.125 C-105.95 104.677 -103.104 101.106 -99.561 94.333 C-99.046 93.316 -98.531 92.298 -98 91.25 C-96.864 89.079 -95.725 86.91 -94.582 84.742 C-94.289 84.185 -94.289 84.185 -92.807 81.366 C-89.903 75.956 -86.804 70.665 -83.688 65.375 C-83.095 64.368 -82.502 63.361 -81.892 62.324 C-80.763 60.406 -79.634 58.488 -78.504 56.57 C-76.528 53.193 -74.605 49.786 -72.688 46.375 C-70.405 42.34 -68.006 38.434 -65.451 34.569 C-60.182 26.588 -56.722 19.391 -54.664 10.008 C-52.619 0.853 -49.935 -4.71 -42 -10 C-27.116 -15.129 -12.1 -8.331 0 0 Z " fill="#000000" transform="translate(2774,1284)"/>
<path d="M0 0 C10.758 8.178 15.129 20.769 17.25 33.688 C18.914 47.393 21.028 72.025 13 84 C10.406 85.465 7.7 86.388 4.875 87.312 C4.121 87.576 3.367 87.84 2.59 88.111 C0.732 88.758 -1.133 89.381 -3 90 C-3.33 94.62 -3.66 99.24 -4 104 C-3.258 104.124 -3.258 104.124 0.5 104.75 C9.077 106.507 15.104 109.583 20 117 C27.491 128.539 24.955 145.553 22.25 158.312 C21.253 162.566 20.129 166.78 19 171 C18.581 172.619 18.164 174.239 17.747 175.858 C16.569 180.399 15.337 184.922 14.073 189.439 C13.569 191.262 13.077 193.088 12.599 194.917 C8.731 209.591 8.731 209.591 4.517 213.022 C1.949 214.075 -0.258 214.638 -3 215 C-3.353 215.089 -3.353 215.089 -5.137 215.541 C-13.466 217.595 -21.598 216.04 -29 212 C-31.875 210.207 -34.442 208.219 -37 206 C-37.623 205.471 -38.245 204.943 -38.887 204.398 C-49.438 194.682 -56.597 181.274 -63.808 169.019 C-85.176 132.83 -85.176 132.83 -96.117 126.076 C-98.243 124.299 -98.923 123.367 -99.495 120.626 C-99.616 117.564 -99.542 114.561 -99.402 111.5 C-99.374 110.363 -99.346 109.226 -99.318 108.055 C-99.22 104.368 -99.079 100.685 -98.938 97 C-98.863 94.489 -98.79 91.978 -98.721 89.467 C-98.546 83.386 -98.338 77.307 -98.116 71.228 C-97.957 66.789 -97.821 62.35 -97.688 57.91 C-97.493 51.605 -97.264 45.302 -97 39 C-91.341 37.573 -85.681 36.149 -80.02 34.728 C-78.093 34.243 -76.167 33.758 -74.241 33.272 C-71.476 32.575 -68.711 31.881 -65.945 31.188 C-65.081 30.969 -64.216 30.75 -63.325 30.525 C-62.525 30.324 -61.724 30.124 -60.899 29.918 C-60.546 29.829 -60.546 29.829 -58.759 29.38 C-57 29 -57 29 -55 29 C-54.67 21.08 -54.34 13.16 -54 5 C-37.157 -4.038 -17.707 -10.722 0 0 Z " fill="#000000" transform="translate(2202,1780)"/>
<path d="M0 0 C2.875 2.375 2.875 2.375 5 5 C5.454 5.527 5.907 6.054 6.375 6.598 C10.287 11.396 12.927 16.643 15.289 22.34 C16.673 25.404 17.537 26.806 20.68 28.125 C25.193 27.955 28.544 26.391 32.625 24.562 C46.321 18.924 46.321 18.924 54 21 C61.341 24.787 66.836 30.734 72.523 36.602 C79.38 43.242 87.436 48.551 97 50 C97.794 66.67 94.111 86.054 83 99 C71.23 110.121 56.447 111.655 40.969 111.312 C32.699 110.936 25.432 108.304 17.762 105.398 C17.042 105.126 16.322 104.853 15.581 104.573 C14.188 104.038 12.799 103.491 11.415 102.931 C7.807 101.504 4.889 100.672 1 101 C0.492 102.146 -0.016 103.292 -0.539 104.473 C-1.234 106.003 -1.929 107.533 -2.625 109.062 C-2.956 109.815 -3.288 110.567 -3.629 111.342 C-6.795 118.24 -10.694 124.324 -17.625 127.875 C-18.36 128.264 -19.095 128.654 -19.852 129.055 C-34.347 135.433 -52.841 129.716 -66.812 124.625 C-81.311 118.697 -95.591 110.038 -102 95 C-104.496 88.213 -105.522 82.03 -105.438 74.812 C-105.431 73.903 -105.424 72.993 -105.417 72.055 C-104.837 47.392 -91.266 31.497 -74.402 15.098 C-52.905 -5.265 -27.629 -17.246 0 0 Z " fill="#000000" transform="translate(2857,2794)"/>
<path d="M0 0 C1.144 0.305 2.288 0.611 3.467 0.925 C8.206 2.179 12.653 2.256 17.531 2.195 C18.408 2.192 19.284 2.19 20.187 2.187 C22.958 2.176 25.729 2.151 28.5 2.125 C30.391 2.115 32.281 2.106 34.172 2.098 C38.781 2.076 43.391 2.041 48 2 C50.019 6.657 51.748 11.213 53.156 16.082 C54 18 54 18 57 20 C64.424 22.184 72.135 21.05 79.5 19.25 C80.266 19.072 81.032 18.893 81.822 18.71 C84.217 18.15 86.609 17.577 89 17 C91.328 16.444 93.656 15.889 95.984 15.337 C97.409 14.998 98.832 14.655 100.254 14.308 C124.456 8.484 140.703 17.035 160.943 29.383 C171.73 36.056 182.102 43.067 192 51 C192.3 51.237 192.3 51.237 193.815 52.437 C210.452 65.679 210.452 65.679 213 74.438 C210.71 82.597 203.206 88.497 196.195 92.82 C188.095 97.173 180.275 98.158 171.234 98.027 C169.522 98.015 167.81 98.002 166.098 97.99 C163.428 97.966 160.757 97.938 158.087 97.904 C135.315 97.636 120.223 102.96 102.113 117.004 C87.966 127.939 74.543 136.215 56 135 C55.163 134.966 54.327 134.933 53.465 134.898 C46.495 134.144 43.436 130.969 39.09 125.66 C38.4 124.782 37.711 123.904 37 123 C35.801 121.596 34.594 120.199 33.375 118.812 C32.816 118.169 32.256 117.526 31.68 116.863 C29.463 114.404 27.111 112.1 24.75 109.781 C22.288 107.276 20.026 104.613 17.738 101.949 C16.124 100.14 14.446 98.48 12.688 96.812 C-0.348 83.894 -10.174 67.668 -10.519 48.921 C-10.512 47.998 -10.506 47.076 -10.5 46.125 C-10.496 45.14 -10.493 44.155 -10.489 43.139 C-10.259 32.693 -7.988 22.968 -5 13 C-4.798 12.322 -4.595 11.644 -4.387 10.945 C-1.516 1.516 -1.516 1.516 0 0 Z " fill="#000000" transform="translate(1804,1440)"/>
<path d="M0 0 C1.56 1.114 3.083 2.281 4.562 3.5 C5.257 4.057 5.952 4.614 6.668 5.188 C18.123 15.469 23.526 30.206 24.902 45.203 C25.24 57.476 22.749 69.215 14.672 78.727 C7.804 85.936 1.527 88.377 -8.305 88.895 C-43.417 90.952 -43.417 90.952 -54.438 101.5 C-57.486 105.254 -59.905 108.903 -61.438 113.5 C-60.733 113.741 -60.028 113.982 -59.301 114.231 C-56.051 115.351 -52.807 116.488 -49.562 117.625 C-49.008 117.814 -49.008 117.814 -46.203 118.773 C-31.126 124.095 -20.433 131.038 -13.395 145.668 C-11.169 151.57 -11.133 157.579 -11.062 163.812 C-11.048 164.685 -11.034 165.558 -11.02 166.457 C-11.056 171.222 -11.195 174.718 -14.438 178.5 C-19.143 179.749 -23.878 179.567 -28.715 179.438 C-31.438 179.5 -31.438 179.5 -34.992 179.98 C-50.836 182.072 -68.925 182.836 -82.438 173.25 C-91.126 165.755 -94.21 156.209 -95.044 145.027 C-95.4 139.384 -95.597 134.087 -94.438 128.5 C-95.025 128.32 -95.025 128.32 -98 127.41 C-104.327 125.299 -110.377 122.563 -116.452 119.829 C-118.458 118.928 -120.469 118.039 -122.48 117.15 C-123.758 116.579 -125.035 116.007 -126.312 115.434 C-126.889 115.176 -126.889 115.176 -129.805 113.873 C-132.438 112.5 -132.438 112.5 -133.438 110.5 C-132.917 108.505 -132.917 108.505 -132.003 106.025 C-131.666 105.097 -131.33 104.168 -130.983 103.212 C-130.612 102.203 -130.241 101.195 -129.859 100.156 C-129.102 98.021 -128.347 95.886 -127.594 93.75 C-126.398 90.377 -125.191 87.01 -123.951 83.652 C-122.761 80.415 -121.619 77.164 -120.484 73.906 C-120.105 72.914 -119.727 71.922 -119.336 70.9 C-117.523 65.56 -116.963 62.384 -119.493 57.216 C-120.443 55.625 -121.423 54.051 -122.438 52.5 C-123.129 51.304 -123.818 50.106 -124.502 48.906 C-125.163 47.829 -125.823 46.753 -126.504 45.645 C-126.865 45.054 -127.225 44.463 -127.597 43.854 C-128.728 42.005 -129.864 40.158 -131 38.312 C-132.139 36.455 -133.277 34.597 -134.414 32.738 C-135.441 31.06 -136.472 29.383 -137.502 27.706 C-138.141 26.648 -138.779 25.59 -139.438 24.5 C-139.817 23.88 -140.197 23.261 -140.588 22.622 C-143.489 17.764 -143.489 17.764 -142.988 15.199 C-141.031 13.055 -139.346 12.312 -136.625 11.312 C-135.773 10.989 -134.921 10.665 -134.043 10.332 C-116.894 4.856 -99.266 11.332 -83.364 17.857 C-76.212 20.659 -69.309 22.229 -61.854 19.583 C-59.283 18.348 -56.869 16.99 -54.438 15.5 C-53.65 15.019 -52.863 14.538 -52.051 14.043 C-49.682 12.556 -47.34 11.033 -45 9.5 C-32.185 1.253 -15.177 -8.71 0 0 Z " fill="#000000" transform="translate(1684.4375,1858.5)"/>
<path d="M0 0 C12.225 10.431 13.449 24.452 14.941 39.584 C16.665 55.659 23.073 66.763 32.5 79.562 C42.952 93.768 55.226 110.772 52.75 129.312 C50.917 136.206 45.542 141.458 39.801 145.414 C26.021 152.839 8.313 156.224 -7.152 153.164 C-16.31 150.159 -21.906 145.131 -26.562 136.75 C-30.824 128.137 -32.39 118.681 -34.343 109.344 C-35.059 105.935 -35.813 102.561 -36.688 99.188 C-36.804 98.707 -36.804 98.707 -37.395 96.273 C-40.05 91.86 -44.472 90.513 -49.267 89.115 C-51.877 88.477 -54.493 87.916 -57.125 87.375 C-59.081 86.946 -61.037 86.517 -62.992 86.086 C-65.856 85.465 -68.721 84.845 -71.587 84.231 C-86.574 80.971 -103.901 76.449 -113.875 63.812 C-123.116 49.079 -123.962 32.865 -120.375 16.062 C-119.895 13.974 -119.404 11.889 -118.875 9.812 C-118.341 9.836 -118.341 9.836 -115.641 9.953 C-96.047 10.546 -78.403 5.326 -59.912 -0.57 C-40.462 -6.728 -18.075 -12.932 0 0 Z " fill="#000000" transform="translate(1810.875,2803.1875)"/>
<path d="M0 0 C0.892 0.009 1.784 0.018 2.703 0.027 C3.379 0.039 4.054 0.051 4.75 0.062 C5.162 1.055 5.575 2.048 6 3.07 C8.975 10.107 12.073 16.877 16 23.438 C24.009 37.097 23.559 48.043 19.75 63.062 C16.768 72.665 12.174 81.239 3.102 86.207 C-1.489 88.388 -6.055 89.113 -11.062 89.75 C-12.736 89.981 -14.409 90.214 -16.082 90.449 C-16.811 90.544 -17.541 90.639 -18.292 90.737 C-20.25 91.062 -20.25 91.062 -23.25 92.062 C-25.651 97.834 -25.543 104.484 -25.559 110.637 C-25.584 112.458 -25.609 114.279 -25.635 116.1 C-25.663 118.919 -25.687 121.737 -25.706 124.556 C-25.851 142.697 -26.57 162.435 -40.25 176.062 C-48.773 182.555 -57.194 184.414 -67.688 184.312 C-68.482 184.32 -69.277 184.328 -70.096 184.336 C-75.708 184.318 -80.827 183.487 -86.25 182.062 C-86.22 181.697 -86.22 181.697 -86.066 179.85 C-85.79 176.484 -85.52 173.117 -85.25 169.75 C-85.155 168.602 -85.059 167.454 -84.961 166.271 C-83.259 144.818 -84.761 125.747 -98.25 108.062 C-103.666 101.79 -109.433 95.782 -115.379 90.012 C-122.849 82.499 -122.849 82.499 -123.062 77.25 C-122.781 74.801 -122.781 74.801 -122.25 72.062 C-122.075 70.922 -121.899 69.781 -121.719 68.605 C-120.193 60.08 -118.019 53.831 -111.875 47.688 C-102.213 41.706 -90.331 44.072 -79.662 45.615 C-72.307 46.502 -66.534 45.439 -60.465 41.047 C-59.713 40.31 -58.962 39.572 -58.188 38.812 C-57.35 38.011 -56.512 37.209 -55.648 36.383 C-54.857 35.617 -54.065 34.851 -53.25 34.062 C-51.945 32.929 -50.633 31.803 -49.312 30.688 C-46.008 27.827 -42.982 24.76 -39.938 21.625 C-29.821 11.369 -15.117 -0.199 0 0 Z " fill="#000000" transform="translate(1657.25,2318.9375)"/>
<path d="M0 0 C0.834 0.443 1.668 0.887 2.527 1.344 C18.524 8.898 35.532 12.885 52.648 17.094 C53.627 17.335 54.605 17.577 55.614 17.825 C60.554 19.043 65.497 20.25 70.446 21.436 C72.297 21.888 74.149 22.34 76 22.793 C76.842 22.991 77.684 23.188 78.551 23.392 C85.696 25.156 92.844 27.121 96.906 33.688 C97.432 34.516 97.958 35.344 98.5 36.198 C99.024 37.071 99.549 37.944 100.09 38.844 C100.646 39.741 101.201 40.638 101.774 41.562 C102.872 43.342 103.963 45.126 105.044 46.917 C106.306 48.981 107.607 51.002 108.953 53.012 C114.041 60.894 114.041 60.894 113.777 66.031 C111.7 75.314 106.17 81.945 98.527 87.344 C63.383 109.541 13.85 114.472 -26.314 106.078 C-38.782 103.198 -50.96 99.223 -60.473 90.344 C-60.788 90.101 -60.788 90.101 -62.383 88.871 C-65.422 86.164 -66.408 84.307 -66.684 80.199 C-66.497 76.954 -66.188 73.76 -65.758 70.538 C-65.454 68.198 -65.208 65.856 -64.973 63.508 C-63.684 50.898 -63.684 50.898 -62.473 46.344 C-61.566 46.257 -60.66 46.171 -59.727 46.082 C-48.207 44.753 -41.089 42.072 -33.57 33.133 C-31.058 29.792 -28.76 26.341 -26.473 22.844 C-9.814 -2.605 -9.814 -2.605 0 0 Z " fill="#000000" transform="translate(2486.47265625,1655.65625)"/>
<path d="M0 0 C28.498 6.081 60.798 19.347 78.449 43.762 C79.953 46.168 81.283 48.584 82.543 51.125 C82.881 51.755 83.218 52.386 83.566 53.035 C86.815 60.054 86.658 68.653 84.816 76.039 C81.685 84.465 76.932 89.401 69.23 93.688 C68.5 94.105 67.77 94.522 67.018 94.951 C64.536 96.36 62.041 97.745 59.543 99.125 C59.084 99.38 59.084 99.38 56.759 100.671 C45.805 106.733 34.757 112.621 23.605 118.312 C22.725 118.77 21.844 119.228 20.937 119.699 C6.796 126.816 -11.584 127.802 -26.832 123.562 C-38.897 118.974 -47.015 111.014 -52.27 99.312 C-62.138 73.571 -54.84 44.077 -44.419 19.696 C-35.067 -0.723 -21.302 -3.891 0 0 Z " fill="#000000" transform="translate(2329.45703125,2563.875)"/>
<path d="M0 0 C1.572 0.831 3.176 1.601 4.783 2.362 C7.281 3.691 8.98 4.746 10.771 6.936 C11.881 11.045 11.336 14.758 10.771 18.936 C10.687 19.656 10.604 20.376 10.518 21.117 C8.075 41.901 1.387 61.957 -14.795 76.194 C-29.16 87.192 -44.943 91.534 -62.854 91.374 C-63.465 91.369 -63.465 91.369 -66.559 91.346 C-84.486 91.007 -105.046 87.058 -120.229 76.936 C-121.945 53.036 -112.694 24.544 -97.409 6.346 C-70.124 -23.823 -32.349 -17.411 0 0 Z " fill="#000000" transform="translate(2206.22900390625,1323.06396484375)"/>
<path d="M0 0 C10.818 9.214 22.604 19.537 23.965 34.559 C24.365 45.088 20.445 51.357 13.75 59.188 C13.078 59.982 12.407 60.776 11.715 61.594 C-4.791 80.526 -29.178 100.752 -55.137 103.492 C-59.886 103.62 -63.821 103.052 -68.25 101.188 C-68.085 100.239 -67.92 99.29 -67.75 98.312 C-65.31 80.296 -71.73 64.551 -78.14 48.071 C-79.72 43.966 -81.22 39.835 -82.688 35.688 C-82.922 35.037 -83.156 34.386 -83.398 33.715 C-87.048 23.378 -90.061 11.447 -85.277 0.953 C-79.226 -9.447 -68.552 -14.669 -57.25 -17.812 C-37.244 -21.692 -15.627 -12.085 0 0 Z " fill="#000000" transform="translate(2941.25,2167.8125)"/>
<path d="M0 0 C13.192 8.934 22.736 21.256 26.375 36.875 C28.462 48.766 26.812 59.364 20.168 69.551 C14.277 77.187 7.756 81.917 -1.921 83.173 C-4.248 83.311 -6.544 83.343 -8.875 83.312 C-9.701 83.304 -10.528 83.296 -11.379 83.287 C-27.183 82.856 -39.563 75.935 -50.336 64.598 C-59.8 53.341 -64.502 39.905 -64.008 25.199 C-62.92 15.757 -58.942 7.35 -51.625 1.191 C-35.493 -10.36 -16.811 -9.946 0 0 Z " fill="#000000" transform="translate(2877.625,1618.125)"/>
</svg>
