<?xml version="1.0" encoding="UTF-8"?>
<!-- Generator: visioncortex VTracer 0.6.12 -->
<svg viewBox="1261.29 834.64 1981.32 2829.61" version="1.1" xmlns="http://www.w3.org/2000/svg" width="4500" height="4500">
<path d="M0 0 C1.004 -0.021 2.008 -0.041 3.043 -0.062 C16.884 -0.134 27.401 4.594 37.375 14.125 C41.671 18.566 45.357 23.267 49 28.25 C58.16 40.715 67.527 48.685 81.023 56.149 C92.24 62.394 102.957 69.416 107 82.25 C108.355 90.65 106.785 97.261 102 104.25 C94.013 114.498 81.463 120.481 69 123.25 C66.196 123.371 63.428 123.435 60.625 123.438 C60.254 123.444 60.254 123.444 58.375 123.475 C53.853 123.487 50.259 122.961 46 121.25 C46.095 122.459 46.191 123.668 46.289 124.914 C47.438 141.055 47.377 157.357 36.812 170.688 C30.521 177.196 23.107 179.992 14.145 180.383 C5.27 180.008 -4.843 177.766 -12 172.25 C-14.094 169.419 -15.087 166.632 -16 163.25 C-16.233 162.413 -16.467 161.577 -16.707 160.715 C-19.446 148.717 -17.977 136.996 -12 126.25 C-7.096 118.608 -1.117 112.164 5.111 105.615 C12.729 97.497 19.499 88.48 24 78.25 C19.916 73.941 15.457 70.358 10.75 66.75 C9.963 66.143 9.176 65.535 8.365 64.91 C5.913 63.019 3.457 61.135 1 59.25 C-0.525 58.076 -2.05 56.901 -3.574 55.727 C-11.301 49.785 -19.07 43.919 -27 38.25 C-26.307 33.853 -24.797 29.898 -23.129 25.797 C-22.988 25.446 -22.988 25.446 -22.273 23.673 C-21.678 22.2 -21.08 20.727 -20.48 19.256 C-19.561 16.997 -18.654 14.733 -17.748 12.469 C-17.167 11.036 -16.586 9.604 -16.004 8.172 C-15.733 7.493 -15.462 6.814 -15.183 6.114 C-12.068 -1.458 -7.439 0.037 0 0 Z " fill="#000000" transform="translate(2637,2753.75)"/>
<path d="M0 0 C4.773 3.143 7.96 6.353 11.109 11.141 C11.784 12.149 12.458 13.157 13.152 14.195 C17.239 21.287 18.074 27.986 16.34 35.934 C12.825 47.054 4.667 55.799 -3.078 64.266 C-2.336 65.008 -1.593 65.751 -0.828 66.516 C0.079 67.423 0.987 68.331 1.922 69.266 C2.664 69.987 3.407 70.709 4.172 71.453 C7.165 74.553 7.378 77.272 7.336 81.551 C6.366 87.911 3.169 94.221 -1.582 98.543 C-7.108 102.356 -13.545 103.179 -20.078 102.266 C-30.368 99.616 -39.237 94.684 -48.264 89.24 C-52.824 86.792 -56.213 86.041 -61.41 86.211 C-62.621 86.235 -63.832 86.26 -65.08 86.285 C-67.609 86.355 -70.138 86.433 -72.666 86.52 C-83.817 86.721 -89.659 84.027 -97.828 76.766 C-98.422 76.246 -99.015 75.726 -99.626 75.191 C-120.318 56.87 -120.318 56.87 -121.426 48.703 C-119.788 34.703 -115.17 21.757 -104.766 11.891 C-96.68 5.58 -88.139 4.231 -78.078 5.266 C-71.184 6.583 -66.385 10.918 -61.078 15.266 C-57.057 18.46 -54.337 19.794 -49.078 19.266 C-46.727 17.832 -46.727 17.832 -44.453 15.828 C-43.597 15.102 -42.741 14.377 -41.859 13.629 C-40.942 12.849 -40.024 12.069 -39.078 11.266 C-14.758 -7.946 -14.758 -7.946 0 0 Z " fill="#000000" transform="translate(1649.078125,1024.734375)"/>
<path d="M0 0 C3.761 4.168 5.385 6.864 5.312 12.561 C4.675 17.543 2.469 22.077 0.562 26.688 C-2.806 35.261 -5.319 42.685 -5 52 C-4.942 54.75 -4.904 57.5 -4.875 60.25 C-4.867 60.933 -4.859 61.616 -4.851 62.32 C-4.854 71.093 -7.399 78.289 -13.625 84.664 C-14.079 85.105 -14.532 85.546 -15 86 C-14.444 86.237 -14.444 86.237 -11.633 87.434 C0.324 92.683 11.184 98.658 17 111 C18.813 115.836 20.201 120.873 19 126 C17.036 129.644 14.597 132.786 12 136 C11.483 136.692 10.966 137.384 10.434 138.098 C2.955 147.526 -8.185 154.68 -20 157 C-28.98 157.951 -34.645 156.818 -42.188 151.938 C-47.049 147.519 -48.724 141.831 -49.348 135.438 C-49.621 123.849 -46.789 113.826 -43 103 C-43.634 102.91 -44.268 102.82 -44.922 102.727 C-58.859 99.437 -73.955 92.287 -82 80 C-86.158 71.783 -86.277 62.784 -84.309 53.867 C-83.375 51.124 -82.292 48.593 -81 46 C-80.8 45.598 -80.8 45.598 -79.785 43.562 C-67.616 21.552 -46.625 6.776 -23.688 -2.312 C-15.471 -3.844 -7.327 -4.434 0 0 Z " fill="#000000" transform="translate(2237,1988)"/>
<path d="M0 0 C8.571 6.641 8.571 6.641 9.336 12.629 C9.531 27.272 3.168 38.895 -6.875 49.312 C-15.771 57.778 -24.395 62.933 -36.875 63.438 C-44.931 63.192 -51.822 60.487 -59.066 57.141 C-59.77 56.819 -60.473 56.498 -61.198 56.166 C-62.576 55.529 -63.946 54.873 -65.306 54.199 C-70.026 51.986 -72.978 51.673 -78 53 C-81.048 54.176 -83.99 55.532 -86.938 56.938 C-96.901 61.661 -107.384 65.539 -118.375 61.875 C-123.493 58.22 -126.635 54.145 -128 48 C-129.52 37.914 -129.56 28.468 -123.5 19.859 C-115.472 9.908 -103.459 5.614 -91.965 0.703 C-81.951 -3.791 -74.422 -12.139 -67.453 -20.41 C-50.01 -39.494 -14.338 -10.608 0 0 Z " fill="#000000" transform="translate(1887,1345)"/>
<path d="M0 0 C14.421 7.371 35.693 20.32 41.968 36.006 C42.821 42.674 41.288 47.811 38.53 53.818 C37.884 55.282 37.239 56.747 36.597 58.213 C36.309 58.847 36.021 59.481 35.724 60.134 C32.159 68.959 33.915 79.052 34.968 88.256 C35.842 96.197 36.218 104.079 36.28 112.068 C36.298 113.09 36.315 114.112 36.333 115.165 C36.327 124.421 35.043 133.68 28.968 141.006 C23.344 146.081 18.875 146.357 11.511 146.283 C-0.21 145.366 -14.228 139.006 -22.032 130.006 C-27.489 122.508 -28.083 115.055 -27.032 106.006 C-24.803 94.744 -18.263 84.159 -11.813 74.779 C-9.264 70.81 -9.264 70.81 -9.032 68.006 C-11.423 58.813 -18.111 51.555 -25.095 45.506 C-30.839 40.514 -36.516 34.412 -37.271 26.51 C-37.568 14.712 -33.85 3.696 -27.032 -5.994 C-17.679 -9.112 -8.319 -4.087 0 0 Z " fill="#000000" transform="translate(2750.0322265625,3072.994140625)"/>
<path d="M0 0 C8.199 5.746 12.526 16.398 17.066 25.043 C17.713 26.264 18.36 27.484 19.007 28.705 C20.681 31.866 22.345 35.032 24.006 38.201 C24.995 40.088 25.986 41.974 26.977 43.86 C28.867 47.46 30.75 51.063 32.629 54.668 C33.196 55.754 33.763 56.84 34.348 57.959 C35.922 60.997 37.473 64.045 39.004 67.105 C39.513 68.121 40.022 69.137 40.546 70.183 C41.014 71.157 41.482 72.13 41.965 73.133 C42.383 73.995 42.801 74.857 43.232 75.746 C44.101 78.402 44.057 79.546 43.004 82.105 C41.105 84.078 41.105 84.078 38.629 86.168 C33.619 90.508 28.981 95.085 24.352 99.82 C21.558 102.54 19.843 103.986 15.941 104.543 C6.931 103.542 0.928 98.427 -5.484 92.387 C-16.9 82.019 -27.061 79.525 -42.037 77.82 C-50.438 76.729 -56.143 74.852 -62.246 68.918 C-67.358 60.703 -69.591 52.966 -67.371 43.418 C-61.466 24.859 -45.389 11.979 -28.746 3.293 C-19.731 -0.989 -9.806 -2.928 0 0 Z " fill="#000000" transform="translate(2434.99609375,2422.89453125)"/>
<path d="M0 0 C11.091 6.356 16.103 16.946 19.5 28.812 C25.571 51.824 22.348 78.183 11.188 99.062 C7.093 105.987 2.579 111.282 -5.348 113.703 C-18.018 115.819 -30.924 108.919 -41.005 101.828 C-47.782 96.754 -54.496 91.325 -57.25 83.062 C-58.173 74.752 -55.809 69.005 -51.25 62.062 C-49.038 59.371 -46.641 56.868 -44.229 54.357 C-36.294 46.037 -34.001 38.118 -32.797 26.93 C-32.716 26.19 -32.635 25.451 -32.552 24.689 C-32.396 23.228 -32.253 21.766 -32.122 20.303 C-31.479 13.957 -30.072 8.278 -25.938 3.25 C-18.177 -3.067 -9.238 -4.12 0 0 Z " fill="#000000" transform="translate(2027.25,1645.9375)"/>
<path d="M0 0 C6.958 7.456 10.064 19.601 10.5 29.562 C9.938 42.272 4.823 51.533 -4.125 60.125 C-13.714 68.34 -24.862 72.413 -37.375 72.312 C-38.117 72.307 -38.86 72.301 -39.625 72.295 C-50.466 72.057 -57.887 68.9 -65.688 61.371 C-74.278 52.115 -76.518 39.752 -76.184 27.43 C-75.433 17.492 -72.727 8.15 -65.312 1.125 C-48.41 -12.448 -18.339 -9.383 0 0 Z " fill="#000000" transform="translate(3065,3467)"/>
<path d="M0 0 C-0.165 1.217 -0.33 2.434 -0.5 3.688 C-1.566 13.713 -0.931 23.436 0 33.438 C2.653 62.198 2.653 62.198 -2.812 72.375 C-7.716 78.259 -12.772 81.026 -20.375 81.75 C-32.763 82.572 -46.275 80.924 -56.379 73.176 C-61.695 68.192 -66.509 61.507 -67.177 54.014 C-67.676 35.617 -64.48 21.649 -51.734 7.691 C-45.909 2.01 -40.481 0.849 -32.5 0.684 C-31.668 0.663 -30.836 0.642 -29.979 0.621 C-27.319 0.555 -24.66 0.496 -22 0.438 C-20.208 0.394 -18.417 0.351 -16.625 0.307 C-3.947 0 -3.947 0 0 0 Z " fill="#000000" transform="translate(2588,2372)"/>
<path d="M0 0 C2.774 2.689 5.244 5.46 7.625 8.5 C11.652 13.596 15.807 18.569 19.996 23.531 C23.167 27.438 23.41 29.978 23.332 34.91 C21.207 54.685 7.672 74.171 -7.25 86.625 C-15.484 92.723 -22.775 94.414 -33 93 C-40.405 89.974 -46.617 83.598 -49.875 76.312 C-53.354 65.522 -50.43 55.753 -45.492 46.031 C-35.297 27.633 -18.352 10.463 0 0 Z " fill="#000000" transform="translate(2082,1940)"/>
<path d="M0 0 C7.342 2.461 13.188 9.213 17.062 15.691 C20.422 22.515 20.351 31.806 18 39.004 C11.832 52.396 -0.527 60.667 -13.938 65.691 C-26.454 69.459 -42.171 69.84 -53.938 63.691 C-59.636 60.17 -65.372 56.477 -68.938 50.691 C-69.505 47.779 -69.509 44.963 -69.438 42.004 C-69.424 41.202 -69.41 40.4 -69.396 39.573 C-69.107 31.25 -67.496 24.863 -61.5 18.816 C-52.404 11.878 -40.473 10.988 -29.438 10.066 C-26.989 9.852 -24.541 9.631 -22.094 9.402 C-21.03 9.313 -19.966 9.223 -18.869 9.13 C-15.899 8.686 -13.611 8.053 -10.938 6.691 C-9.54 4.735 -8.2 2.737 -6.938 0.691 C-4.481 -0.537 -2.68 -0.441 0 0 Z " fill="#000000" transform="translate(2768.9375,3230.30859375)"/>
<path d="M0 0 C4.549 6.823 2.736 18.855 1.348 26.672 C-1.462 35.98 -6.174 42.71 -14.688 47.5 C-24.705 52.601 -37.799 52.698 -48.5 49.438 C-58.568 45.477 -66.181 39.11 -71.875 30 C-74.675 22.573 -74.092 12.906 -71.375 5.562 C-66.959 -3.701 -61.686 -9.138 -51.996 -12.746 C-34.715 -17.808 -14.013 -10.216 0 0 Z " fill="#000000" transform="translate(1355,869)"/>
<path d="M0 0 C1.014 0.001 2.029 0.001 3.074 0.002 C7.623 0.029 11.797 0.185 16.25 1.188 C15.769 20.607 12.642 40.204 -0.75 55.188 C-1.295 55.814 -1.841 56.44 -2.402 57.086 C-12.993 68.499 -26.984 72.382 -42.145 73.109 C-43.004 73.135 -43.864 73.161 -44.75 73.188 C-45.717 71.192 -46.673 69.191 -47.625 67.188 C-48.159 66.074 -48.692 64.96 -49.242 63.812 C-53.706 53.08 -54.862 40.273 -51.125 29.125 C-45.771 16.775 -36.233 8.873 -24.156 3.414 C-16.049 0.495 -8.587 -0.105 0 0 Z " fill="#000000" transform="translate(2531.75,2833.8125)"/>
<path d="M0 0 C0.683 0.509 1.366 1.018 2.07 1.543 C2.324 1.728 2.324 1.728 3.606 2.666 C7.507 5.53 11.327 8.475 15.07 11.543 C15.683 12.025 16.295 12.507 16.926 13.004 C19.682 16.71 18.62 22.214 18.07 26.543 C14.672 37.541 6.378 44.405 -3.388 49.807 C-17.143 56.99 -32.146 58.664 -47.402 55.918 C-53.703 53.933 -60.181 50.087 -63.93 44.543 C-63.887 39.427 -61.54 35.327 -59.055 30.98 C-58.856 30.632 -58.856 30.632 -57.849 28.869 C-50.127 15.771 -39.517 3.442 -24.801 -1.832 C-17.117 -3.505 -6.926 -4.301 0 0 Z " fill="#000000" transform="translate(3202.9296875,3504.45703125)"/>
<path d="M0 0 C10.686 6.209 19.504 16.633 23.473 28.406 C25.156 37.563 25.199 47.561 20.32 55.664 C18.289 58.528 16.318 61.128 13.891 63.68 C13.313 64.319 12.736 64.958 12.141 65.617 C6.451 68.304 -0.266 65.436 -5.859 63.555 C-20.91 57.889 -33.977 50.658 -41.109 35.68 C-43.539 28.138 -42.672 20.213 -39.426 13.098 C-30.778 -2.787 -16.638 -7.709 0 0 Z " fill="#000000" transform="translate(3198.109375,3420.3203125)"/>
<path d="M0 0 C2.753 2.009 5.273 4.059 7.684 6.469 C7.894 9.009 7.894 9.009 7.836 12.207 C7.818 13.378 7.8 14.55 7.781 15.756 C7.749 16.981 7.717 18.207 7.684 19.469 C7.655 20.633 7.627 21.798 7.598 22.998 C7.499 26.551 7.376 30.104 7.246 33.656 C7.207 34.849 7.167 36.042 7.127 37.271 C6.885 44.039 6.47 50.742 5.684 57.469 C5.113 57.28 4.541 57.092 3.953 56.898 C-4.138 54.339 -12.333 52.89 -20.684 51.451 C-31.673 49.454 -42.666 46.587 -49.691 37.344 C-53.354 30.863 -53.474 23.064 -51.668 15.895 C-47.732 6.257 -40.562 -0.055 -31.316 -4.531 C-20.972 -8.103 -8.901 -5.884 0 0 Z " fill="#000000" transform="translate(2961.31640625,3271.53125)"/>
<path d="M0 0 C6.41 4.739 9.793 12 11.691 19.539 C12.726 26.61 12.395 33.777 12.184 40.902 C-30.289 41.563 -30.289 41.563 -43.879 32.965 C-48.859 27.664 -49.332 23.412 -49.18 16.336 C-48.63 11.137 -46.98 6.633 -44.816 1.902 C-44.534 1.177 -44.252 0.451 -43.961 -0.297 C-41.93 -3.493 -38.943 -3.713 -35.414 -4.555 C-23.244 -6.391 -10.797 -6.525 0 0 Z " fill="#000000" transform="translate(3193.81640625,3603.09765625)"/>
</svg>
