<?xml version="1.0" encoding="UTF-8"?>
<!-- Generator: visioncortex VTracer 0.6.12 -->
<svg version="1.1" xmlns="http://www.w3.org/2000/svg" width="4500" height="4500">
<path d="M0 0 C19.189 9.617 19.189 9.617 23.15 15.78 C26.477 26.063 23.87 40.355 19.15 49.78 C17.416 51.334 17.416 51.334 15.4 52.655 C5.396 59.798 0.043 70.742 -5.971 81.198 C-6.528 82.158 -7.085 83.118 -7.658 84.108 C-8.759 86.008 -9.85 87.914 -10.93 89.825 C-19.546 104.698 -19.546 104.698 -26.975 108.292 C-27.924 108.453 -28.873 108.614 -29.85 108.78 C-30.335 108.866 -30.335 108.866 -32.788 109.299 C-47.013 110.66 -58.272 107.533 -69.44 98.741 C-75.317 93.739 -79.742 88.296 -83.85 81.78 C-84.225 82.781 -84.6 83.783 -84.987 84.815 C-91.958 103.091 -91.958 103.091 -100.788 107.581 C-104.945 109.209 -109.167 110.43 -113.475 111.592 C-113.881 111.702 -113.881 111.702 -115.935 112.257 C-120.626 113.443 -124.994 114.422 -129.85 113.78 C-142.184 104.539 -152.505 85.743 -154.85 70.78 C-155.375 63.456 -155.207 57.378 -151.85 50.78 C-149.413 47.967 -149.413 47.967 -146.85 45.78 C-146.231 45.223 -145.613 44.666 -144.975 44.092 C-139.708 40.839 -133.722 40.364 -127.663 40.342 C-126.9 40.338 -126.138 40.335 -125.353 40.331 C-115.859 40.515 -106.909 43.132 -97.85 45.78 C-97.467 45.209 -97.083 44.639 -96.688 44.052 C-94.955 41.479 -93.215 38.91 -91.475 36.342 C-90.872 35.444 -90.269 34.547 -89.647 33.622 C-89.067 32.768 -88.487 31.914 -87.889 31.034 C-87.355 30.243 -86.821 29.452 -86.271 28.637 C-84.85 26.78 -84.85 26.78 -82.85 25.78 C-81.044 26.637 -81.044 26.637 -78.834 28.034 C-78.005 28.552 -77.176 29.071 -76.322 29.605 C-75.424 30.178 -74.526 30.752 -73.6 31.342 C-72.678 31.922 -71.756 32.502 -70.806 33.099 C-67.815 34.984 -64.832 36.88 -61.85 38.78 C-59.778 40.096 -57.707 41.413 -55.635 42.729 C-52.683 44.606 -49.732 46.486 -46.785 48.372 C-45.905 48.934 -45.026 49.497 -44.12 50.077 C-43.342 50.575 -42.565 51.074 -41.763 51.587 C-39.85 52.78 -39.85 52.78 -37.85 53.78 C-37.861 53.435 -37.861 53.435 -37.914 51.691 C-38.59 26.05 -38.59 26.05 -33.85 15.78 C-33.476 14.935 -33.102 14.091 -32.717 13.221 C-26.505 0.694 -13.428 -5.749 0 0 Z " fill="#000000" transform="translate(3115.85009765625,2628.22021484375)"/>
<path d="M0 0 C7.897 7.217 12.044 17.286 12.984 27.762 C13.299 35.763 11.411 43.262 7.77 50.367 C0.344 49.676 -6.864 48.354 -14.168 46.867 C-15.303 46.642 -16.438 46.416 -17.607 46.184 C-25.968 44.499 -25.968 44.499 -28.23 43.367 C-26.693 52.713 -22.969 60.743 -18.811 69.184 C-13.814 79.608 -11.196 91.002 -14.861 102.312 C-18.036 110.938 -22.012 118.53 -28.23 125.367 C-29.014 126.357 -29.798 127.347 -30.605 128.367 C-34.385 131.247 -37.532 131.726 -42.23 131.367 C-52.301 129.058 -61.031 122.026 -66.855 113.637 C-72.573 104.2 -76.617 95.316 -76.418 84.18 C-76.417 83.482 -76.417 82.784 -76.416 82.064 C-76.387 78.667 -76.133 75.635 -75.23 72.367 C-75.777 72.217 -76.323 72.066 -76.886 71.911 C-84.881 69.617 -92.6 66.662 -100.355 63.68 C-101.707 63.163 -103.058 62.647 -104.41 62.131 C-107.685 60.88 -110.958 59.625 -114.23 58.367 C-113.684 51.604 -113.132 44.841 -112.576 38.079 C-112.388 35.778 -112.201 33.478 -112.015 31.177 C-111.747 27.87 -111.476 24.564 -111.203 21.258 C-111.121 20.229 -111.038 19.199 -110.954 18.139 C-110.874 17.178 -110.794 16.217 -110.711 15.228 C-110.677 14.806 -110.677 14.806 -110.503 12.67 C-110.246 10.496 -109.815 8.475 -109.23 6.367 C-106.216 6.569 -103.201 6.773 -100.186 6.979 C-97.573 7.156 -94.959 7.326 -92.345 7.489 C-85.855 7.904 -79.433 8.425 -72.984 9.297 C-71.865 9.434 -70.745 9.57 -69.592 9.711 C-67.477 9.977 -65.367 10.283 -63.266 10.636 C-60.286 10.986 -58.132 11.148 -55.23 10.367 C-52.89 8.054 -51.342 5.752 -49.712 2.899 C-45.673 -4.003 -39.063 -7.284 -31.543 -9.383 C-19.426 -10.297 -9.742 -7.132 0 0 Z " fill="#000000" transform="translate(2188.23046875,2444.6328125)"/>
<path d="M0 0 C13.266 7.291 21.177 16.657 26.715 30.633 C28.226 38.74 28.955 48.053 24.402 55.32 C21.581 57.907 18.466 59.877 15.215 61.883 C-0.254 71.725 -0.254 71.725 -4.074 77.586 C-5.106 82.974 -4.959 88.483 -4.988 93.953 C-5.185 101.912 -6.756 107.938 -11.938 114.105 C-23.985 124.668 -36.135 133.155 -52.641 132.668 C-60.51 131.743 -67.367 128.282 -72.598 122.32 C-81.331 110.6 -83.018 97.554 -81.598 83.32 C-79.202 71.164 -72.592 61.54 -62.598 54.32 C-53.574 48.982 -44.002 47.151 -33.598 47.32 C-33.921 46.051 -34.245 44.781 -34.578 43.473 C-35.735 38.242 -35.93 33.224 -35.91 27.883 C-35.926 27.006 -35.942 26.128 -35.959 25.225 C-35.965 17.247 -34.884 8.866 -29.223 2.82 C-28.658 2.191 -28.093 1.562 -27.512 0.914 C-20.021 -5.323 -8.307 -3.85 0 0 Z " fill="#000000" transform="translate(1855.59765625,2453.6796875)"/>
<path d="M0 0 C5.452 3.18 10.615 6.792 15.71 10.514 C23.234 15.928 23.234 15.928 28.383 15.973 C30.727 15.449 30.727 15.449 32.883 14.598 C46.117 9.467 62.029 10.919 74.871 16.484 C83.332 20.748 89.144 24.932 92.383 33.973 C93.799 41.881 91.857 47.001 87.405 53.509 C86.696 54.487 85.988 55.465 85.258 56.473 C84.536 57.509 83.814 58.546 83.07 59.614 C80.869 62.755 78.632 65.866 76.383 68.973 C75.727 69.889 75.072 70.805 74.396 71.749 C54.753 99.161 54.753 99.161 49.383 100.973 C40.6 101.981 32.799 102.075 25.367 96.738 C17.825 90.027 15.051 80.944 14.223 71.062 C13.932 64.11 15.645 57.664 17.383 50.973 C16.514 51.25 15.645 51.527 14.75 51.812 C14.174 51.994 14.174 51.994 11.258 52.91 C10.689 53.09 10.689 53.09 7.812 54 C-2.934 57.048 -15.28 57.727 -25.617 52.973 C-33.042 48.821 -38.596 42.272 -40.992 34.035 C-42.741 24.929 -42.032 15.816 -37.293 7.707 C-28.479 -4.785 -13.453 -6.286 0 0 Z " fill="#000000" transform="translate(2957.6171875,2139.02734375)"/>
<path d="M0 0 C4.975 5.014 7.781 12.394 10.812 18.688 C11.011 19.097 11.011 19.097 12.017 21.172 C12.389 21.964 12.761 22.757 13.145 23.574 C13.478 24.282 13.812 24.989 14.156 25.718 C15.99 30.677 16.179 34.554 14.848 39.648 C14.57 40.725 14.291 41.802 14.005 42.912 C13.694 44.055 13.383 45.198 13.062 46.375 C12.905 46.966 12.905 46.966 12.108 49.955 C9.867 58.205 7.411 66.376 4.75 74.5 C4.586 75.007 4.586 75.007 3.754 77.572 C3.438 78.507 3.122 79.443 2.797 80.406 C2.522 81.224 2.247 82.042 1.964 82.885 C0.91 85.197 0.031 86.474 -2 88 C-3.901 88.341 -3.901 88.341 -6.012 88.293 C-6.769 88.283 -7.526 88.274 -8.307 88.264 C-9.092 88.239 -9.878 88.213 -10.688 88.188 C-11.086 88.181 -11.086 88.181 -13.104 88.146 C-15.069 88.111 -17.035 88.057 -19 88 C-19.277 89.253 -19.554 90.506 -19.84 91.797 C-20.206 93.448 -20.572 95.099 -20.938 96.75 C-21.12 97.575 -21.302 98.4 -21.49 99.25 C-21.667 100.049 -21.845 100.848 -22.027 101.672 C-22.109 102.038 -22.109 102.038 -22.519 103.894 C-22.986 105.937 -23.484 107.969 -24 110 C-35.163 109.562 -46.303 108.98 -57.438 108.062 C-58.401 107.988 -59.365 107.913 -60.358 107.836 C-73.111 106.734 -73.111 106.734 -77.562 101.5 C-83.797 93.827 -87.46 86.03 -87 76 C-85.863 68.115 -82.12 62.907 -77 57 C-76.598 56.484 -76.598 56.484 -74.562 53.875 C-72.017 51.019 -69.358 48.609 -66.457 46.129 C-63.318 43.409 -60.249 40.619 -57.188 37.812 C-56.906 37.557 -56.906 37.557 -55.48 36.263 C-48.157 29.532 -48.157 29.532 -47.664 24.723 C-47.651 23.515 -47.638 22.307 -47.625 21.062 C-47.259 14.384 -47.259 14.384 -44.938 10.938 C-44.453 10.618 -44.453 10.618 -42 9 C-41.42 8.588 -40.84 8.175 -40.242 7.75 C-29.606 0.516 -12.416 -6.178 0 0 Z " fill="#000000" transform="translate(2421,2210)"/>
<path d="M0 0 C29.109 1.988 61.938 8.806 83.297 30.117 C84.332 31.334 85.354 32.563 86.359 33.805 C89.234 37.321 92.252 39.095 96.297 41.117 C91.469 52.135 85.457 62.264 74.031 67.285 C66.003 69.728 56.508 69.94 48.297 68.117 C44.632 65.674 44.403 64.241 43.109 60.117 C42.765 59.045 42.421 57.972 42.066 56.867 C41.297 54.117 41.297 54.117 41.297 52.117 C37.667 52.117 34.037 52.117 30.297 52.117 C30.297 66.967 30.297 81.817 30.297 97.117 C17.503 97.117 17.503 97.117 10.609 94.617 C9.848 94.352 9.087 94.086 8.303 93.812 C-3.703 89.476 -19.528 83.337 -27.703 73.117 C-29.091 69.476 -28.432 66.561 -27.699 62.797 C-27.456 61.547 -27.213 60.298 -26.963 59.011 C-26.69 57.671 -26.416 56.331 -26.141 54.992 C-26.004 54.318 -25.868 53.643 -25.727 52.948 C-15.076 0.654 -15.076 0.654 0 0 Z " fill="#000000" transform="translate(3115.703125,2288.8828125)"/>
<path d="M0 0 C1.271 -0.03 2.541 -0.059 3.85 -0.09 C13.02 -0.147 20.518 1.248 28.438 6 C34.24 12.135 38.433 18.659 38.625 27.312 C37.624 33.28 34.615 38.48 31.613 43.66 C28.756 51.329 31.624 58.151 34.125 65.5 C40.178 84.355 40.178 84.355 36.125 93.812 C28.307 101.63 16.964 106.279 5.938 106.625 C-1.353 106.517 -7.675 104.211 -13.125 99.312 C-28.931 81.833 -29.284 54.089 -31.062 31.875 C-31.096 31.462 -31.096 31.462 -31.265 29.375 C-32.013 20.007 -32.595 10.719 -32.375 1.312 C-21.597 0.427 -10.812 0.127 0 0 Z " fill="#000000" transform="translate(2885.375,2960.6875)"/>
<path d="M0 0 C1.828 1.648 1.828 1.648 3.25 3.375 C3.73 3.94 4.209 4.504 4.703 5.086 C9.31 11.885 9.005 20.124 8 28 C6.945 32.769 5.541 37.43 4.15 42.109 C1.884 49.887 1.038 56.748 2.508 64.773 C4.551 78.166 3.811 91.591 -4.188 102.938 C-8.8 108.427 -15.384 112.583 -22.637 113.238 C-30.643 113.433 -36.017 112.707 -41.973 107.164 C-47.575 101.159 -49.285 96.083 -49.188 87.812 C-49.184 87.207 -49.184 87.207 -49.168 84.145 C-48.961 80.277 -48.678 78.615 -45.777 75.984 C-44.84 75.247 -43.903 74.51 -42.938 73.75 C-38.176 69.952 -33.547 66.052 -29 62 C-30.299 61.938 -31.599 61.876 -32.938 61.812 C-40.735 60.919 -47.052 56.81 -52.367 51.148 C-60.075 41.006 -63.254 29.575 -62 17 C-60.347 9.479 -57.412 3.465 -51 -1 C-35.954 -8.797 -14.748 -8.454 0 0 Z " fill="#000000" transform="translate(1446,1974)"/>
<path d="M0 0 C9.363 8.23 12.355 19.025 13.223 31.098 C13.638 45.962 9.979 61.946 -0.438 73.125 C-7.43 79.375 -16.006 82.056 -25.309 81.723 C-35.221 80.696 -44.43 74.72 -53 70 C-53.899 69.509 -54.799 69.018 -55.726 68.512 C-58.233 67.123 -60.715 65.7 -63.188 64.25 C-63.923 63.827 -64.659 63.405 -65.417 62.969 C-70.947 59.576 -73.638 56.066 -75.73 49.82 C-76.866 42.152 -75.879 35.781 -72 29 C-69.251 25.392 -66.224 22.186 -63 19 C-62.703 18.692 -62.703 18.692 -61.199 17.133 C-47.56 4.008 -17.859 -12.192 0 0 Z " fill="#000000" transform="translate(2728,2231)"/>
<path d="M0 0 C1.016 0.008 2.031 0.016 3.078 0.024 C24.993 0.434 24.993 0.434 33.125 6.375 C41.89 16.646 45.904 30.357 46.5 43.688 C45.455 53.966 41.992 60.508 34.125 67.375 C24.197 74.201 12.551 74.615 0.875 74.875 C-8.504 75.158 -17.618 75.825 -26.875 77.375 C-32.652 60.982 -37.548 38.865 -29.875 22.375 C-29.535 21.636 -29.194 20.898 -28.844 20.137 C-22.065 6.877 -15.178 -0.213 0 0 Z " fill="#000000" transform="translate(1527.875,2176.625)"/>
<path d="M0 0 C14.002 8.463 24.275 19.606 29.137 35.457 C30.89 44.083 30.315 50.943 25.914 58.578 C21.644 64.87 15.681 69.571 8.387 71.895 C-3.059 74.075 -13.877 70.751 -23.59 64.781 C-26.083 63.083 -28.48 61.307 -30.863 59.457 C-31.17 59.233 -31.17 59.233 -32.723 58.098 C-43.533 49.667 -52.02 36.102 -53.863 22.457 C-54.448 15.908 -53.264 9.967 -49.527 4.504 C-36.917 -9.644 -15.394 -8.295 0 0 Z " fill="#000000" transform="translate(1341.86328125,1581.54296875)"/>
<path d="M0 0 C52.185 -0.625 52.185 -0.625 63.594 7.949 C67 12.268 67.924 16.712 69.188 22 C69.679 23.959 70.172 25.917 70.668 27.875 C70.877 28.739 71.086 29.602 71.302 30.492 C72 33 72 33 74 38 C59.81 40.64 45.62 43.28 31 46 C32.32 50.62 33.64 55.24 35 60 C36.536 70.754 37.671 81.747 31.523 91.293 C27.728 96.05 23.993 98.785 18 100 C12.297 100.622 7.061 99.705 2 97 C-2.638 92.855 -6.6 88.271 -7.371 81.969 C-7.664 66.67 -1.335 57.308 8 46 C9.335 44.335 10.669 42.669 12 41 C11.145 40.506 10.291 40.013 9.41 39.504 C8.858 39.184 8.858 39.184 6.062 37.562 C5.511 37.243 5.511 37.243 2.723 35.629 C0 34 0 34 -1 33 C-1.099 31.664 -1.131 30.324 -1.133 28.984 C-1.134 28.144 -1.135 27.303 -1.137 26.438 C-1.133 25.551 -1.129 24.664 -1.125 23.75 C-1.129 22.91 -1.133 22.069 -1.137 21.203 C-1.126 14.103 -0.615 7.071 0 0 Z " fill="#000000" transform="translate(1618,2216)"/>
<path d="M0 0 C1.06 -0.021 2.119 -0.041 3.211 -0.062 C12.521 -0.109 19.141 1.516 26.102 7.953 C29.689 11.788 32.826 15.951 35.953 20.164 C36.711 21.182 37.469 22.201 38.25 23.25 C38.889 24.169 39.529 25.088 40.188 26.035 C42.689 28.721 44.452 29.26 48 30.062 C48.985 30.296 49.97 30.529 50.984 30.77 C51.732 30.928 52.48 31.087 53.25 31.25 C55.113 36.166 52.842 40.039 50.961 44.66 C44.775 57.64 36.06 67.338 22.25 72.25 C13.56 75.029 2.948 74.013 -5.324 70.508 C-15.113 65.432 -22.178 57.995 -26.023 47.645 C-30.286 33.598 -26.808 20.55 -20.25 7.844 C-16.603 1.538 -16.603 1.538 -13.987 0.655 C-9.377 -0.18 -4.672 0.022 0 0 Z " fill="#000000" transform="translate(1447.75,1447.75)"/>
<path d="M0 0 C2.862 1.805 5.441 3.79 8 6 C8.292 6.245 8.292 6.245 9.77 7.484 C16.913 13.999 25.079 25.359 27 35 C23.211 49.191 9.208 65.46 -3 73 C-11.506 77.491 -21.578 78.642 -31 77 C-34.322 74.22 -35.496 70.993 -37 67 C-37.432 66.158 -37.864 65.316 -38.309 64.449 C-45.759 49.879 -49.036 32.261 -43.969 16.426 C-40.489 7.713 -34.787 1.91 -26.812 -2.938 C-17.449 -5.547 -8.495 -4.715 0 0 Z " fill="#000000" transform="translate(1452,1570)"/>
<path d="M0 0 C5.236 3.481 9.63 7.777 13.969 12.309 C14.292 12.64 14.292 12.64 15.93 14.317 C21.405 20.273 23.782 26.467 23.492 34.594 C22.535 39.558 19.953 42.343 15.969 45.309 C3.743 52.205 -10.446 53.821 -24.094 51.129 C-37.228 47.462 -46.151 39.815 -53.031 28.309 C-57.415 20.018 -59.617 10.545 -56.844 1.372 C-54.875 -3.533 -52.666 -6.737 -48.031 -9.441 C-31.919 -16.154 -13.971 -8.517 0 0 Z " fill="#000000" transform="translate(1391.03125,1888.69091796875)"/>
<path d="M0 0 C0.4 -0.013 0.4 -0.013 2.422 -0.078 C6.409 0.384 9.814 1.094 13.25 3.25 C15.253 6.073 16.283 9.117 17.391 12.379 C17.725 13.283 18.059 14.187 18.404 15.119 C19.465 18.007 20.483 20.909 21.5 23.812 C22.198 25.739 22.898 27.664 23.602 29.588 C24.903 33.155 26.186 36.728 27.454 40.307 C28.984 44.614 30.703 48.824 32.502 53.025 C33.25 55.25 33.25 55.25 33.25 59.25 C31.34 60.914 29.542 62.247 27.438 63.625 C26.164 64.493 24.892 65.363 23.621 66.234 C22.926 66.708 22.231 67.182 21.515 67.67 C16.403 71.236 11.451 75.029 6.473 78.779 C5.693 79.36 4.913 79.941 4.109 80.539 C3.413 81.062 2.717 81.585 1.999 82.124 C0.25 83.25 0.25 83.25 -1.75 83.25 C-1.763 82.954 -1.763 82.954 -1.828 81.457 C-2.095 77.735 -2.474 74.814 -4.125 71.438 C-9.639 66.843 -16.833 65.457 -23.688 63.812 C-27.067 62.907 -28.606 62.373 -31.312 60.062 C-36.774 49.377 -35.199 38.348 -31.75 27.25 C-26.952 15.27 -20.473 6.925 -8.75 1.25 C-5.816 0.306 -3.076 0.059 0 0 Z " fill="#000000" transform="translate(1341.75,1432.75)"/>
<path d="M0 0 C0.884 0.183 1.768 0.366 2.679 0.554 C3.345 0.695 4.01 0.835 4.695 0.98 C4.77 6.439 4.824 11.897 4.86 17.356 C4.875 19.207 4.895 21.059 4.922 22.91 C5.143 38.956 4.88 54.273 -6.555 66.793 C-13.987 73.787 -22.759 75.157 -32.617 75.043 C-33.358 75.038 -34.098 75.034 -34.861 75.029 C-36.676 75.018 -38.49 75 -40.305 74.98 C-45.958 56.666 -47.715 32.137 -39.367 14.418 C-35.762 8.037 -31.726 3.475 -24.602 1.066 C-16.095 -1.267 -8.634 -1.803 0 0 Z " fill="#000000" transform="translate(1497.3046875,2062.01953125)"/>
</svg>
