<?xml version="1.0" encoding="UTF-8"?>
<!-- Generator: visioncortex VTracer 0.6.12 -->
<svg viewBox="1459.17 1100.12 1581.66 2299.77" version="1.1" xmlns="http://www.w3.org/2000/svg" width="4500" height="4500">
<path d="M0 0 C0.46 0.233 0.46 0.233 2.787 1.41 C16.802 8.867 24.082 19.246 29 34 C31.64 26.41 34.28 18.82 37 11 C62.299 10.548 92.948 10.157 113.637 27.168 C121.662 35.55 123.668 44.271 123.532 55.565 C122.855 72.157 115.611 88.986 107 103 C99.087 108.276 84.621 106.839 75.441 105.469 C62.059 102.332 53.285 94.886 43.312 85.688 C35.748 79.027 30.377 77.361 20.148 77.586 C15.691 77.916 11.497 78.988 7.188 80.125 C-4.761 83.21 -12.285 79.654 -23.078 74.75 C-29.527 71.835 -36.02 69.265 -43 68 C-42.674 68.519 -42.674 68.519 -41.023 71.148 C-38.761 74.756 -36.507 78.368 -34.257 81.982 C-33.198 83.683 -32.134 85.381 -31.07 87.078 C-25.989 95.319 -24.69 101.33 -25 111 C-24.398 110.86 -23.796 110.72 -23.175 110.576 C-9.259 107.539 5.778 107.225 19 113 C19.815 113.351 20.629 113.701 21.469 114.062 C32.149 119.329 38.692 128.106 43 139 C46.728 150.129 45.538 161.77 40.934 172.48 C33.623 186.498 22.215 193.352 7.578 198.055 C4.037 198.99 0.635 199.566 -3 200 C-3.59 200.086 -3.59 200.086 -6.578 200.52 C-12.216 200.969 -16.32 201.21 -21.031 197.816 C-23.49 195.331 -25.601 192.607 -27.667 189.792 C-29.025 187.966 -30.451 186.219 -31.91 184.473 C-41.545 172.833 -49.707 160.482 -49.305 144.828 C-48.791 140.056 -47.48 135.554 -46 131 C-46.99 131.33 -47.98 131.66 -49 132 C-62.371 132.986 -77.185 130.729 -87.938 122.188 C-94.608 115.827 -97.47 108.719 -98.312 99.625 C-97.493 90.115 -94.19 82.912 -87.254 76.348 C-77.692 68.535 -66.685 66.015 -54.688 65.438 C-53.852 65.394 -53.016 65.351 -52.154 65.307 C-50.103 65.201 -48.052 65.1 -46 65 C-46.07 60.662 -46.158 56.325 -46.262 51.987 C-46.295 50.517 -46.323 49.047 -46.346 47.577 C-46.541 35.438 -47.505 24.526 -54 14 C-54 13.01 -54 12.02 -54 11 C-48.418 8.74 -42.818 6.533 -37.197 4.372 C-35.292 3.631 -33.392 2.876 -31.498 2.107 C-11.327 -6.063 -11.327 -6.063 0 0 Z " fill="#000000" transform="translate(2612,2864)"/>
<path d="M0 0 C3.767 2.085 7.49 4.232 11.188 6.438 C11.958 6.897 12.729 7.356 13.523 7.83 C18.986 11.18 24.01 14.983 29 19 C29 16.499 28.758 14.389 28.375 11.938 C27.405 3.134 29.735 -4.901 35 -12 C45.001 -23.449 60.294 -30.044 75.335 -31.176 C86.187 -31.761 96.963 -32.157 106.105 -25.457 C111.241 -20.829 113.606 -16.015 114.277 -9.176 C114.712 4.415 109.534 15.953 100.812 26.25 C90.91 36.734 77.172 43.603 62.699 44.117 C59.796 44.124 56.902 44.09 54 44 C54.338 44.713 54.675 45.426 55.023 46.16 C55.469 47.118 55.915 48.076 56.375 49.062 C56.816 50.002 57.257 50.942 57.711 51.91 C61.907 61.968 62.874 73.482 59.438 83.938 C54.655 95.075 46.824 101.683 35.812 106.312 C25.885 110.214 11.939 111.156 2 107 C-2.786 102.467 -6.342 96.729 -9.922 91.242 C-10.467 90.417 -11.012 89.592 -11.573 88.742 C-13.878 85.253 -16.172 81.756 -18.467 78.259 C-42.437 41.781 -42.437 41.781 -50 38 C-56.012 37.937 -61.533 39.402 -67.25 41.125 C-79.527 44.637 -90.701 42.721 -102 37 C-113.485 30.217 -121.455 20.923 -125.578 8.219 C-127.82 -3.574 -126.047 -14.236 -119.375 -24.188 C-92.962 -57.321 -27.735 -14.788 0 0 Z " fill="#000000" transform="translate(1832,1904)"/>
<path d="M0 0 C10.985 4.937 25.477 1.59 37.004 -0.17 C49.596 -2.067 62.026 -3.525 74.779 -3.532 C75.322 -3.535 75.322 -3.535 78.073 -3.55 C90.256 -3.359 102.258 -0.821 111.189 7.972 C122.216 21.059 122.607 39.201 122.068 55.577 C121.739 58.012 121.263 59.767 120.154 61.968 C118.214 63.128 118.214 63.128 115.775 64.003 C115.324 64.167 115.324 64.167 113.042 64.999 C109.241 66.274 105.43 67.509 101.604 68.706 C81.997 74.885 61.331 83.282 50.908 102.234 C48.044 108.57 47.28 115.094 46.548 121.941 C46.154 124.968 46.154 124.968 45.154 125.968 C18.566 129.271 -9.945 124.353 -31.971 108.531 C-54.266 89.487 -60.839 41.678 -63.084 14.034 C-63.323 5.976 -61.264 -0.06 -57.096 -6.907 C-40.788 -22.309 -16.583 -7.821 0 0 Z " fill="#000000" transform="translate(2319.84619140625,3142.031982421875)"/>
<path d="M0 0 C0.55 0.024 0.55 0.024 3.335 0.148 C3.957 0.171 3.957 0.171 7.102 0.285 C8.448 0.363 9.794 0.442 11.14 0.523 C12.52 0.593 13.9 0.662 15.28 0.73 C19.528 0.954 23.771 1.236 28.015 1.523 C29.493 1.62 30.971 1.717 32.449 1.812 C36.013 2.045 39.577 2.282 43.14 2.523 C50.025 17.289 56.884 32.062 63.531 46.938 C64.372 48.812 65.221 50.685 66.14 52.523 C69.224 50.421 72.307 48.316 75.39 46.211 C76.263 45.616 77.136 45.021 78.035 44.408 C78.879 43.831 79.723 43.254 80.593 42.66 C81.368 42.131 82.143 41.602 82.942 41.057 C84.413 40.031 85.85 38.952 87.248 37.828 C89.14 36.523 89.14 36.523 91.957 36.516 C96.073 37.819 98.784 39.917 102.078 42.648 C102.694 43.15 103.311 43.651 103.947 44.168 C113.404 51.935 123.172 61.219 124.511 74.09 C124.797 91.276 116.797 102.846 107.656 116.787 C100.842 127.192 94.899 137.59 89.785 148.938 C88.14 152.523 88.14 152.523 87.14 153.523 C85.759 153.616 84.372 153.641 82.988 153.637 C82.107 153.637 81.226 153.637 80.318 153.637 C79.361 153.632 78.404 153.626 77.417 153.621 C76.442 153.62 75.467 153.618 74.462 153.617 C71.334 153.611 68.206 153.599 65.078 153.586 C62.962 153.581 60.847 153.576 58.732 153.572 C53.535 153.561 48.337 153.544 43.14 153.523 C35.317 129.352 35.317 129.352 33.14 119.523 C25.88 124.769 19.166 130.141 12.71 136.359 C6.603 141.502 1.533 142.043 -6.231 141.887 C-12.176 141.292 -18.533 139.851 -22.86 135.523 C-25.524 125.224 -22.363 115.652 -17.161 106.727 C-13.421 100.643 -9.098 95.036 -4.719 89.404 C-1.277 84.86 1.269 81.215 2.14 75.523 C1.742 73.102 1.742 73.102 0.765 70.773 C0.387 69.838 0.01 68.902 -0.379 67.938 C-1.183 66.084 -1.988 64.23 -2.795 62.378 C-9.685 46.54 -16.435 30.875 -10.86 13.523 C-5.774 1.057 -5.774 1.057 0 0 Z " fill="#000000" transform="translate(1968.85986328125,2229.4765625)"/>
<path d="M0 0 C7.801 2.486 15.373 5.461 22.969 8.508 C24.299 9.039 25.629 9.571 26.959 10.102 C29.726 11.208 32.493 12.316 35.259 13.425 C38.809 14.849 42.362 16.268 45.915 17.686 C48.652 18.778 51.389 19.874 54.125 20.97 C55.435 21.494 56.746 22.018 58.058 22.541 C59.88 23.269 61.701 24 63.521 24.731 C64.04 24.939 64.04 24.939 66.662 25.989 C69 27 69 27 70 28 C70.213 30.082 70.36 32.171 70.481 34.26 C70.52 34.914 70.559 35.568 70.599 36.242 C70.728 38.415 70.851 40.588 70.973 42.762 C71.061 44.271 71.149 45.779 71.237 47.288 C71.423 50.458 71.605 53.628 71.784 56.799 C72.014 60.853 72.25 64.907 72.487 68.961 C72.67 72.081 72.85 75.201 73.03 78.321 C73.116 79.815 73.203 81.309 73.29 82.803 C73.411 84.899 73.53 86.996 73.649 89.093 C73.717 90.284 73.785 91.476 73.855 92.704 C73.992 95.808 74.027 98.893 74 102 C61.788 99.082 49.732 95.702 37.677 92.199 C34.582 91.3 31.487 90.407 28.391 89.514 C26.419 88.943 24.448 88.372 22.477 87.801 C21.553 87.534 20.629 87.267 19.677 86.993 C18.828 86.745 17.979 86.498 17.104 86.243 C16.357 86.027 15.611 85.81 14.841 85.587 C13 85 13 85 11 84 C11.058 85.039 11.116 86.078 11.176 87.148 C11.567 97.059 10.962 104.201 4.262 112.031 C-1.068 117.247 -7.452 120.805 -13.972 124.324 C-19.257 127.251 -23.693 130.222 -25.769 136.222 C-26.428 138.762 -26.984 141.302 -27.5 143.875 C-29.017 151.371 -30.712 158.953 -37.281 163.621 C-37.647 163.756 -37.647 163.756 -39.5 164.438 C-40.232 164.725 -40.964 165.012 -41.719 165.309 C-52.008 168.427 -66.158 169.107 -75.934 164.262 C-87.989 156.901 -95.483 147.382 -98.875 133.391 C-99.026 129.287 -98.33 128.308 -95.688 125.25 C-87.821 115.133 -82.553 103.528 -77.309 91.891 C-76.985 91.173 -76.661 90.455 -76.328 89.716 C-74.711 86.122 -73.11 82.523 -71.529 78.914 C-59.297 51.229 -59.297 51.229 -48.27 46.938 C-44.868 45.856 -41.451 44.912 -38 44 C-12.512 37.213 -12.512 37.213 -4.887 25.254 C-0.764 17.563 -0.7 8.534 0 0 Z " fill="#000000" transform="translate(1692,1490)"/>
<path d="M0 0 C4.236 3.556 8.274 7.407 10.043 12.715 C10.275 15.939 10.424 19.162 10.566 22.391 C11.558 29.305 14.924 32.942 20.23 37.152 C21.403 38.116 22.574 39.079 23.746 40.043 C24.845 40.934 25.944 41.825 27.043 42.715 C36.505 50.468 43.021 57.954 44.48 70.465 C43.935 81.41 39.434 89.924 32.043 97.715 C31.529 98.258 31.015 98.801 30.485 99.36 C23.118 107.079 15.442 114.123 7.043 120.715 C5.901 121.655 4.762 122.598 3.625 123.543 C-31.475 152.531 -31.475 152.531 -49.641 152.762 C-52.957 151.715 -52.957 151.715 -55.18 148.73 C-55.818 147.488 -56.431 146.232 -57.02 144.965 C-60.171 138.432 -63.284 134.143 -70.332 131.402 C-70.765 131.289 -70.765 131.289 -72.957 130.715 C-71.186 123.654 -69.033 116.733 -66.785 109.812 C-66.497 108.922 -66.209 108.032 -65.912 107.114 C-64.705 103.384 -63.495 99.654 -62.271 95.929 C-61.371 93.185 -60.483 90.437 -59.598 87.688 C-59.318 86.846 -59.037 86.004 -58.749 85.137 C-58.498 84.352 -58.248 83.567 -57.989 82.758 C-57.765 82.072 -57.541 81.385 -57.31 80.678 C-56.893 78.356 -57.158 76.923 -57.957 74.715 C-59.612 73.147 -59.612 73.147 -61.746 71.656 C-62.135 71.381 -62.135 71.381 -64.102 69.986 C-64.92 69.422 -65.739 68.858 -66.582 68.277 C-67.377 67.717 -68.173 67.157 -68.992 66.58 C-69.777 66.028 -70.562 65.475 -71.371 64.906 C-72.143 64.359 -72.915 63.811 -73.711 63.247 C-75.957 61.715 -75.957 61.715 -78.08 60.507 C-80.643 58.985 -82.656 57.689 -83.562 54.756 C-83.797 52.366 -83.773 50.113 -83.645 47.715 C-83.618 46.87 -83.592 46.025 -83.565 45.154 C-82.832 29.898 -76.593 16.216 -65.402 5.746 C-46.929 -9.599 -20.435 -14.628 0 0 Z " fill="#000000" transform="translate(2712.95703125,2204.28515625)"/>
<path d="M0 0 C7.507 8.47 7.984 18.896 7.569 29.727 C6.399 47.684 -1.05 65.151 -9.562 80.75 C-10.152 81.843 -10.741 82.936 -11.348 84.062 C-17.962 95.874 -27.757 111.031 -41.41 115.332 C-51.114 117.216 -60.306 115.687 -68.625 110.438 C-74.965 105.386 -78.338 97.142 -81.93 90.051 C-82.324 89.292 -82.719 88.532 -83.125 87.75 C-83.436 87.111 -83.746 86.471 -84.066 85.812 C-89.132 78.829 -95.628 76.225 -103.625 73.625 C-113.261 70.428 -120.639 67.361 -126.562 58.75 C-131.269 48.373 -131.613 34.842 -127.625 24.188 C-120.275 9.404 -106.586 1.187 -91.609 -4.34 C-65.391 -13.068 -23.783 -17.157 0 0 Z " fill="#000000" transform="translate(2725.5625,3272.25)"/>
<path d="M0 0 C4.831 3.553 8.277 7.561 11.812 12.375 C12.327 13.069 12.842 13.763 13.373 14.478 C20.797 24.644 28.448 35.227 30.062 47.938 C30.218 49.122 30.374 50.307 30.535 51.527 C31.745 62.444 32.187 73.355 32.185 84.331 C32.187 86.433 32.206 88.533 32.225 90.635 C32.355 122.251 32.355 122.251 21.758 133.402 C18.539 136.328 16.058 136.876 11.812 137.375 C1.904 136.4 -6.094 130.618 -14.119 125.158 C-18.712 122.133 -22.315 119.869 -28 120 C-30.707 121.025 -32.942 122.044 -35.438 123.438 C-36.845 124.18 -38.252 124.922 -39.66 125.664 C-40.376 126.05 -41.091 126.436 -41.829 126.833 C-58.282 135.676 -74.108 143.162 -93.062 137.5 C-94.378 137.008 -95.691 136.509 -97 136 C-98.636 128.953 -99.939 121.886 -101.125 114.75 C-101.307 113.688 -101.489 112.626 -101.676 111.531 C-101.847 110.505 -102.019 109.479 -102.195 108.422 C-102.35 107.5 -102.505 106.578 -102.665 105.628 C-102.993 103.053 -103.06 100.593 -103 98 C-98.87 96.718 -98.87 96.718 -78.22 90.31 C-77.525 90.094 -76.83 89.878 -76.113 89.656 C-66.476 86.665 -56.839 83.674 -47.202 80.683 C-46.475 80.458 -45.749 80.232 -45 80 C-45.2 79.679 -45.2 79.679 -46.214 78.052 C-49.184 73.209 -51.84 68.538 -53.812 63.188 C-54.211 62.129 -54.609 61.071 -55.02 59.98 C-59.834 45.345 -58.251 27.968 -51.68 14.242 C-47.195 6.033 -40.94 -0.167 -32.027 -3.34 C-21.49 -5.638 -9.651 -5.035 0 0 Z " fill="#000000" transform="translate(2975,2941)"/>
<path d="M0 0 C4.215 2.876 6.338 6.22 8.559 10.746 C8.972 11.527 9.386 12.308 9.812 13.113 C20.66 36.033 27.995 73.682 21.562 98.605 C16.677 109.512 7.54 115.811 -3.07 120.555 C-20.12 126.58 -39.117 125.095 -55.73 118.426 C-60.86 115.949 -64.578 113.657 -66.684 108.238 C-66.809 107.827 -66.809 107.827 -67.441 105.746 C-67.774 104.697 -68.107 103.648 -68.449 102.566 C-69.587 98.649 -70.557 94.727 -71.441 90.746 C-71.518 90.404 -71.518 90.404 -71.908 88.673 C-77.177 64.141 -78.187 32.483 -64.914 10.18 C-59.453 1.87 -53.327 -4.508 -43.684 -7.594 C-28.509 -10.684 -13.549 -7.215 0 0 Z " fill="#000000" transform="translate(2204.44140625,2725.25390625)"/>
<path d="M0 0 C1.515 1.861 1.515 1.861 3.109 4.461 C3.7 5.408 4.29 6.356 4.898 7.332 C5.204 7.834 5.204 7.834 6.75 10.375 C7.951 12.322 9.154 14.267 10.359 16.211 C10.953 17.171 11.547 18.131 12.158 19.12 C14.547 22.855 17.11 26.447 19.724 30.026 C21 32 21 32 21 34 C21.655 33.492 22.31 32.984 22.984 32.461 C37.417 21.575 50.05 16.852 68 18 C79.47 19.95 89.667 26.334 96.625 35.562 C104.455 47.386 106.016 60.621 103.34 74.398 C100.427 84.008 95.208 95.982 86 101 C71.106 107.045 54.499 104.883 40 99 C34.398 96.535 28.85 93.959 23.348 91.278 C11.12 85.378 -0.142 83.421 -13.592 82.271 C-20.932 81.543 -27.427 80.682 -32.805 75.141 C-35.423 70.516 -37.133 66.252 -38 61 C-38.111 60.359 -38.222 59.719 -38.336 59.059 C-40.267 45.304 -40.765 29.207 -32.859 17.273 C-26.371 9.34 -10.556 0 0 0 Z " fill="#000000" transform="translate(2368,2420)"/>
<path d="M0 0 C7.004 5.428 10.559 14.447 12 23 C12.291 26.692 12.325 30.36 12.312 34.062 C12.329 35.017 12.345 35.972 12.361 36.955 C12.365 42.757 11.792 46.884 9 52 C5.74 55.26 1.299 55.272 -3.129 56.121 C-4.076 56.411 -5.024 56.701 -6 57 C-7.098 60.293 -6.909 61.748 -6.379 65.126 C-6.299 65.649 -6.299 65.649 -5.894 68.292 C-5.803 68.856 -5.803 68.856 -5.348 71.711 C-5.169 72.871 -4.99 74.032 -4.805 75.227 C-4.231 78.944 -3.647 82.66 -3.062 86.375 C-2.482 90.083 -1.904 93.792 -1.33 97.502 C-0.973 99.812 -0.611 102.121 -0.245 104.43 C-0.082 105.481 0.081 106.532 0.25 107.615 C0.322 108.075 0.322 108.075 0.69 110.407 C0.996 112.966 1.056 115.426 1 118 C-1.395 118.816 -3.791 119.628 -6.188 120.438 C-6.861 120.668 -7.535 120.898 -8.229 121.135 C-20.269 125.187 -36.211 126.612 -48 121 C-61.784 113.808 -70.803 103.73 -76 89 C-82.546 68.168 -82.582 43.211 -73.381 23.075 C-70.899 19.346 -67.458 18.53 -63.301 17.34 C-62.441 17.063 -61.581 16.786 -60.695 16.501 C-57.91 15.613 -55.113 14.775 -52.312 13.938 C-50.399 13.339 -48.486 12.737 -46.573 12.133 C-42.794 10.942 -39.01 9.77 -35.22 8.612 C-30.735 7.237 -26.28 5.79 -21.836 4.289 C-20.688 3.905 -19.541 3.521 -18.358 3.125 C-16.303 2.437 -14.25 1.743 -12.198 1.045 C-11.75 0.899 -11.75 0.899 -9.48 0.16 C-8.727 -0.091 -7.973 -0.342 -7.196 -0.601 C-4.496 -1.091 -2.624 -0.766 0 0 Z " fill="#000000" transform="translate(2867,2576)"/>
<path d="M0 0 C1.332 1.123 2.645 2.269 3.938 3.438 C4.643 4.051 5.348 4.665 6.074 5.297 C12.633 11.359 17.109 17.936 17.5 27.062 C16.826 39.079 7.948 46.973 -0.574 54.602 C-14.484 66.657 -29.539 75.405 -48.484 74.82 C-60.279 73.558 -69.816 67.548 -77.408 58.659 C-80.006 55.171 -81.507 51.499 -83 47.438 C-83.325 46.59 -83.65 45.742 -83.985 44.868 C-98.868 5.436 -98.868 5.436 -96.062 -6.562 C-92.583 -13.393 -87.286 -17.441 -80.188 -19.984 C-53.914 -27.132 -21.064 -15.798 0 0 Z " fill="#000000" transform="translate(2299.0625,1994.5625)"/>
<path d="M0 0 C0.428 2.889 0.428 2.889 0.499 6.634 C0.516 7.315 0.532 7.997 0.549 8.699 C0.598 10.959 0.624 13.219 0.645 15.48 C0.649 15.867 0.649 15.867 0.674 17.822 C0.725 21.915 0.758 26.008 0.776 30.101 C0.798 34.321 0.88 38.538 0.977 42.757 C1.04 46.008 1.059 49.258 1.066 52.509 C1.076 54.063 1.104 55.618 1.149 57.172 C1.476 69.31 1.476 69.31 -2.161 73.473 C-4.707 75.285 -7.174 76.676 -10 78 C-11.321 78.757 -12.638 79.52 -13.949 80.293 C-28.733 87.981 -44.506 92.897 -61.238 89.305 C-71.894 85.797 -78.921 79.208 -84.375 69.57 C-91.962 54.351 -93.946 34.155 -89.375 17.688 C-87.41 12.344 -84.82 8.191 -81 4 C-80.51 3.397 -80.02 2.793 -79.516 2.172 C-61.143 -18.747 -20.943 -13.962 0 0 Z " fill="#000000" transform="translate(2995,2676)"/>
<path d="M0 0 C9.533 5.091 17.345 12.555 20.695 23.012 C23.691 37.743 20.596 51.676 13.121 64.625 C5.3 76.287 -5.317 85.939 -19.082 89.633 C-28.538 91.347 -36.62 89.394 -44.645 84.258 C-53.934 77.796 -59.954 68.185 -62.645 57.258 C-63.049 54.159 -63.123 51.13 -63.082 48.008 C-63.074 47.182 -63.065 46.355 -63.057 45.504 C-62.643 30.353 -56.2 17.783 -45.32 7.336 C-32.459 -2.653 -15.314 -6.626 0 0 Z " fill="#000000" transform="translate(3010.64453125,3277.7421875)"/>
<path d="M0 0 C10.683 8.824 16.298 20.78 18.625 34.285 C18.714 36.185 18.756 38.087 18.758 39.988 C18.759 41.05 18.76 42.113 18.762 43.207 C18.758 44.305 18.754 45.404 18.75 46.535 C18.754 47.649 18.758 48.763 18.762 49.91 C18.76 50.967 18.759 52.024 18.758 53.113 C18.757 54.082 18.756 55.05 18.754 56.048 C18.625 58.285 18.625 58.285 17.625 59.285 C15.576 59.552 13.519 59.755 11.461 59.934 C10.813 59.991 10.165 60.048 9.497 60.107 C7.332 60.296 5.166 60.478 3 60.66 C1.493 60.79 -0.014 60.92 -1.521 61.05 C-19.462 62.587 -37.419 63.94 -55.375 65.285 C-57.452 59.543 -58.795 53.653 -60.195 47.719 C-60.459 46.607 -60.722 45.495 -60.994 44.35 C-61.548 42.006 -62.101 39.662 -62.653 37.318 C-63.498 33.73 -64.352 30.145 -65.207 26.561 C-65.745 24.28 -66.283 21.999 -66.82 19.719 C-67.077 18.648 -67.333 17.577 -67.597 16.473 C-67.831 15.472 -68.064 14.471 -68.305 13.439 C-68.409 13.001 -68.409 13.001 -68.933 10.782 C-69.39 8.199 -69.576 5.902 -69.375 3.285 C-51.435 -13.562 -19.224 -13.881 0 0 Z " fill="#000000" transform="translate(1537.375,1121.71484375)"/>
<path d="M0 0 C4.617 3.444 8.847 7.167 12.953 11.203 C13.314 11.558 13.314 11.558 15.141 13.352 C23.822 22.46 28.856 33.34 28.98 45.984 C28.248 59.363 22.144 67.661 12.441 76.488 C8.913 78.92 7.046 78.486 2.953 77.871 C-15.78 73.7 -32.255 64.682 -42.984 48.328 C-50.479 36.37 -53.925 22.592 -51.359 8.578 C-49.477 1.128 -45.355 -4.507 -39.047 -8.797 C-25.47 -14.893 -11.131 -7.706 0 0 Z " fill="#000000" transform="translate(2427.046875,2349.796875)"/>
</svg>
