<?xml version="1.0" encoding="UTF-8"?>
<!-- Generator: visioncortex VTracer 0.6.12 -->
<svg version="1.1" xmlns="http://www.w3.org/2000/svg" width="4500" height="4500">
<path d="M0 0 C10.203 7.652 18.177 18.015 20.5 30.738 C21.944 42.332 19.153 52.738 12 62 C-0.132 75.872 -17.753 81.452 -35 86 C-34.847 87.217 -34.693 88.434 -34.535 89.688 C-34.147 92.79 -33.777 95.892 -33.438 99 C-33.354 99.763 -33.27 100.526 -33.184 101.312 C-33.153 101.591 -33.153 101.591 -33 103 C-31.964 102.651 -30.927 102.301 -29.859 101.941 C-28.49 101.482 -27.12 101.022 -25.75 100.562 C-25.068 100.332 -24.386 100.102 -23.684 99.865 C-21.793 99.232 -19.897 98.615 -18 98 C-17.349 97.789 -16.698 97.577 -16.027 97.359 C-7.796 95.9 2.741 95.56 10.207 99.676 C16.993 104.688 19.809 110.912 21.688 118.938 C23.597 137.653 17.483 156.122 5.755 170.687 C-1.67 179.521 -12.167 188.157 -24 190 C-37.987 190.895 -49.928 189.447 -61 180 C-73.894 166.733 -77.168 150.401 -77.594 132.496 C-76.839 128.054 -75.428 126.847 -72 124 C-71.054 123.172 -70.108 122.345 -69.133 121.492 C-68.14 120.629 -67.148 119.765 -66.125 118.875 C-58.129 111.708 -51.723 103.23 -50.625 92.25 C-50.996 81.988 -56.863 74.834 -64 68 C-70.489 62.212 -77.584 57.512 -85 53 C-83.825 33.801 -73.213 13.702 -59 1 C-55.488 -1.712 -51.941 -3.967 -48 -6 C-47.321 -6.358 -46.641 -6.717 -45.941 -7.086 C-31 -13.435 -12.874 -8.405 0 0 Z " fill="#000000" transform="translate(3326,2938)"/>
<path d="M0 0 C10.222 9.433 16.148 23.095 16.93 36.871 C17.335 49.984 15.95 64.446 7.586 75.18 C2.565 76.79 -3.047 76.294 -8.289 76.242 C-9.168 76.238 -10.047 76.233 -10.953 76.229 C-13.107 76.217 -15.26 76.199 -17.414 76.18 C-16.959 76.69 -16.504 77.201 -16.035 77.728 C-14.142 79.862 -12.278 82.02 -10.414 84.18 C-9.754 84.927 -9.094 85.675 -8.414 86.445 C1.846 98.549 7.897 112.109 6.586 128.18 C4.61 139.402 -1.691 148.991 -10.414 156.18 C-25.522 166.723 -41.86 170.768 -60.082 167.527 C-74.981 163.38 -84.191 154.857 -91.663 141.635 C-97.829 130.298 -102.035 118.873 -98.828 105.789 C-94.428 95.535 -82.733 89.355 -73.414 84.18 C-72.919 84.015 -72.919 84.015 -70.414 83.18 C-67.482 75.292 -70.02 67.038 -72.352 59.367 C-76.317 45.523 -78.619 33.002 -71.852 19.617 C-63.736 5.903 -50.983 -4.79 -35.414 -8.82 C-22.1 -11.508 -10.672 -8.047 0 0 Z " fill="#000000" transform="translate(2513.4140625,2544.8203125)"/>
<path d="M0 0 C10.026 -0.132 19.987 0.279 29.992 0.84 C31.594 0.927 33.195 1.015 34.796 1.102 C38.126 1.284 41.456 1.468 44.785 1.654 C49.038 1.892 53.291 2.123 57.545 2.353 C60.841 2.532 64.137 2.714 67.433 2.896 C69.001 2.983 70.569 3.069 72.138 3.153 C74.329 3.272 76.52 3.395 78.71 3.519 C79.331 3.554 79.331 3.554 82.474 3.728 C92.518 4.503 92.518 4.503 95.477 7.555 C96.186 8.65 96.895 9.746 97.625 10.875 C98.006 11.464 98.387 12.052 98.78 12.659 C106.372 24.652 111.44 38.715 112 53 C112.04 53.994 112.08 54.988 112.121 56.012 C112.437 71.719 112.437 71.719 110 78 C107.559 80.204 105.151 81.162 102 82 C101.389 82.174 100.778 82.347 100.149 82.526 C97.883 83.026 95.869 83.129 93.551 83.133 C92.702 83.134 91.853 83.135 90.979 83.137 C90.099 83.133 89.219 83.129 88.312 83.125 C87.452 83.129 86.592 83.133 85.705 83.137 C80.763 83.129 75.96 82.842 71.056 82.24 C56.157 80.5 56.157 80.5 50.531 84.512 C44.106 90.757 40.219 99.046 36.372 107.022 C31.746 116.258 23.811 120.708 14.191 123.945 C-3.229 128.923 -21.203 128.43 -37.375 119.656 C-45.088 114.79 -49.969 107.935 -52.544 99.142 C-55.069 87.281 -54.154 73.093 -47.609 62.816 C-46.155 60.792 -44.614 58.898 -43 57 C-42.56 56.429 -42.121 55.858 -41.668 55.27 C-38.007 50.659 -33.644 47.184 -29.07 43.508 C-14.196 31.359 -3.81 19.448 0 0 Z " fill="#000000" transform="translate(1118,1298)"/>
<path d="M0 0 C-0.035 0.897 -0.07 1.794 -0.105 2.719 C-0.446 18.427 3.12 32.414 8.125 47.188 C8.811 49.239 9.494 51.291 10.174 53.344 C10.782 55.178 11.399 57.01 12.016 58.841 C15.459 69.898 15.438 81.621 10 92 C3.386 102.432 -5.144 109.734 -17.308 112.531 C-39.911 116.472 -68.437 112.174 -87.883 99.582 C-98.65 91.537 -100.447 78.888 -103.162 66.437 C-105.84 54.469 -105.84 54.469 -109.816 51.765 C-112.052 50.545 -114.313 49.443 -116.625 48.375 C-118.186 47.646 -119.741 46.904 -121.289 46.148 C-121.977 45.831 -122.665 45.513 -123.374 45.185 C-125 44 -125 44 -125.719 42.157 C-126.254 38.048 -126.227 33.951 -126.25 29.812 C-126.271 28.904 -126.291 27.996 -126.312 27.061 C-126.372 16.745 -123.845 9.756 -116.629 2.297 C-88.184 -22.555 -33.052 -6.007 0 0 Z " fill="#000000" transform="translate(2196,2267)"/>
<path d="M0 0 C5.175 4.777 7.088 11.412 7.504 18.273 C7.548 20.307 7.566 22.341 7.562 24.375 C7.564 25.475 7.566 26.574 7.568 27.707 C7.308 42.009 4.377 55.973 1.551 69.951 C1 73 1 73 1 76 C1.707 76.172 2.415 76.345 3.144 76.522 C9.817 78.154 16.482 79.813 23.14 81.505 C26.563 82.373 29.989 83.231 33.421 84.063 C37.368 85.022 41.303 86.027 45.238 87.035 C45.854 87.181 45.854 87.181 48.97 87.92 C57.244 90.094 57.244 90.094 59.429 92.712 C60.255 94.58 60.255 94.58 61 98 C61.227 98.887 61.454 99.774 61.688 100.688 C63.29 117.679 59.343 132.071 48.875 145.688 C39.694 156.363 26.225 165.748 11.839 167.221 C-2.093 167.917 -13.211 166.506 -24 157 C-24.617 156.475 -25.235 155.951 -25.871 155.41 C-37.765 144.54 -38.348 129.915 -39.123 114.822 C-39.978 100.962 -39.978 100.962 -44.456 96.573 C-46.227 95.131 -48.046 93.841 -49.938 92.562 C-50.603 92.093 -51.269 91.623 -51.955 91.14 C-56.062 88.262 -60.246 85.503 -64.438 82.75 C-65.388 82.108 -66.338 81.466 -67.316 80.805 C-69.046 79.642 -70.803 78.518 -72.59 77.445 C-75.028 75.77 -76.503 74.556 -78 72 C-79.651 54.905 -66.973 35.849 -56.871 23.25 C-43.043 6.621 -22.639 -12.464 0 0 Z " fill="#000000" transform="translate(3672,3138)"/>
<path d="M0 0 C14.846 11.569 22.839 27.308 25.562 45.824 C27.786 64.982 25.15 84.88 13.711 100.906 C7.202 108.871 -0.804 115.044 -11.282 116.266 C-25.686 117.286 -39.617 115.645 -51 106 C-59.917 97.615 -63.865 87.094 -64.371 74.973 C-64.841 48.919 -58.88 25.683 -51 1 C-50.843 0.46 -50.843 0.46 -50.046 -2.273 C-49 -5 -49 -5 -46.488 -6.242 C-30.501 -9.428 -13.823 -9.759 0 0 Z " fill="#000000" transform="translate(1843,1908)"/>
<path d="M0 0 C12.429 7.556 18.702 18.756 22.645 32.434 C25.88 45.828 26.357 62.469 21.371 75.441 C21.112 76.198 20.853 76.955 20.586 77.734 C12.019 97.332 -22.413 112.786 -40.965 120.4 C-48.398 123.193 -55.643 125.373 -63.629 124.441 C-64.983 123.819 -66.323 123.161 -67.629 122.441 C-67.534 121.7 -67.438 120.959 -67.34 120.195 C-66.122 108.627 -67.685 97.813 -69.656 86.441 C-69.836 85.397 -70.017 84.353 -70.202 83.277 C-70.56 81.238 -70.927 79.201 -71.307 77.167 C-73.401 65.416 -73.998 55.526 -67.605 45.16 C-25.747 -12.134 -25.747 -12.134 0 0 Z " fill="#000000" transform="translate(1544.62890625,1579.55859375)"/>
<path d="M0 0 C0.514 0.369 1.029 0.737 1.559 1.117 C1.981 1.385 1.981 1.385 4.121 2.742 C14.189 12.552 18.582 24.946 18.852 38.768 C19.015 63.72 12.163 87.082 -1.441 108.117 C-3.349 110.025 -6.592 109.336 -9.129 109.367 C-23.891 109.327 -38.781 105.614 -49.941 95.43 C-58.837 85.541 -61.989 73.161 -61.691 60.125 C-59.859 38.076 -50.693 18.73 -34.199 4.133 C-24.604 -3.409 -11.119 -6.934 0 0 Z " fill="#000000" transform="translate(2763.44140625,2779.8828125)"/>
<path d="M0 0 C1.147 -0.026 2.295 -0.052 3.477 -0.078 C12.8 0.707 20.231 4.485 28.188 9.188 C29.102 9.713 30.017 10.238 30.959 10.779 C43.276 17.936 43.276 17.936 45.625 23.75 C45.782 24.126 45.782 24.126 46.578 26.031 C49.99 35.532 49.305 45.999 45.77 55.367 C38.651 70.083 26.088 80.86 10.84 86.473 C-3.203 90.902 -17.245 90.3 -30.5 83.5 C-41.468 76.935 -41.468 76.935 -43.492 70.488 C-44.07 67.398 -44.407 64.385 -44.625 61.25 C-44.695 60.447 -44.764 59.644 -44.836 58.816 C-45.614 41.078 -38.893 24.064 -27 11.062 C-19.521 3.843 -10.258 0.136 0 0 Z " fill="#000000" transform="translate(2890.625,2718.75)"/>
<path d="M0 0 C0.886 0.277 1.771 0.554 2.684 0.84 C3.683 1.148 4.682 1.456 5.711 1.773 C18.874 6.385 30.353 13.52 40.684 22.84 C41.56 23.622 42.437 24.405 43.34 25.211 C50.731 32.168 57.855 40.734 58.922 51.172 C59.093 56.883 58.689 61.462 54.684 65.84 C43.557 75.397 30.17 80.42 15.539 80.09 C1.494 78.86 -9.696 73.008 -19.316 62.84 C-27.815 52.463 -29.457 41.92 -28.316 28.84 C-26.654 20.832 -22.801 14.796 -17.316 8.84 C-16.933 8.412 -16.933 8.412 -14.992 6.246 C-10.205 1.376 -6.945 -1.484 0 0 Z " fill="#000000" transform="translate(2935.31640625,2834.16015625)"/>
<path d="M0 0 C7.9 11.934 9.558 29.379 7.531 43.195 C5.228 53.919 0.15 62.756 -9 69 C-17.426 73.553 -24.588 74.23 -34.062 74.312 C-34.604 74.327 -34.604 74.327 -37.342 74.4 C-47.022 74.476 -56.316 72.624 -63.566 65.773 C-71.659 55.762 -70.853 41.962 -69.701 29.861 C-68.917 22.892 -67.989 15.943 -67 9 C-59.94 7.342 -52.87 6.116 -45.703 5.02 C-44.551 4.842 -43.4 4.665 -42.213 4.483 C-39.793 4.112 -37.372 3.743 -34.952 3.376 C-31.246 2.812 -27.543 2.235 -23.84 1.658 C-21.482 1.299 -19.124 0.94 -16.766 0.582 C-15.66 0.408 -14.555 0.234 -13.416 0.055 C-12.9 -0.022 -12.9 -0.022 -10.29 -0.411 C-9.838 -0.48 -9.838 -0.48 -7.553 -0.83 C-4.793 -1.014 -2.649 -0.792 0 0 Z " fill="#000000" transform="translate(836,1109)"/>
<path d="M0 0 C13.595 5.635 23.039 12.575 29.07 26.465 C34.057 40.627 32.852 55.949 26.691 69.566 C22.721 77.738 17.412 85.028 9 89 C2.148 90.994 -4.65 90.75 -11.062 87.477 C-18.905 81.5 -19.558 65.201 -21 56 C-23.048 40.21 -25.281 18.042 -15.305 4.523 C-10.575 -1 -7.036 -2.074 0 0 Z " fill="#000000" transform="translate(3607,3302)"/>
</svg>
