<?xml version="1.0" encoding="UTF-8"?>
<!-- Generator: visioncortex VTracer 0.6.12 -->
<svg viewBox="1818.74 1047.64 862.55 2404.61" version="1.1" xmlns="http://www.w3.org/2000/svg" width="4500" height="4500">
<path d="M0 0 C7.883 6.511 14.314 14.87 15.312 25.25 C14.785 31.586 12.294 36.076 7.75 40.5 C-2.188 48.56 -15.282 53.117 -26.993 57.943 C-27.419 58.121 -27.419 58.121 -29.578 59.02 C-29.957 59.175 -29.957 59.175 -31.872 59.96 C-34.187 61.091 -36.058 62.306 -38 64 C-38.812 66.75 -38.812 66.75 -38 70 C-31.626 76.409 -23.629 79.704 -15.377 82.996 C-10.693 85.043 -7.667 86.611 -5.395 91.324 C-2.293 100.163 -2.492 111.214 -6.547 119.695 C-12.126 128.544 -19.675 135.423 -29.375 139.375 C-38.209 140.898 -46.312 140.846 -53.906 135.711 C-59.114 131.584 -62.733 126.643 -64 120 C-64.983 107.639 -63.088 96.144 -55.715 85.938 C-52.87 82.723 -49.583 80.33 -46 78 C-45.01 77.34 -44.02 76.68 -43 76 C-53.852 66.863 -64.195 65.972 -78 67 C-82.727 67.547 -87.433 68.221 -92.124 69.02 C-100.506 70.367 -109.549 70.748 -117.156 66.414 C-123.539 61.518 -128.236 53.834 -130 46 C-129.27 38.389 -123.417 31.702 -118.059 26.57 C-110.508 20.81 -102.2 18.933 -92.906 18.754 C-91.533 18.721 -90.159 18.688 -88.785 18.654 C-86.639 18.607 -84.493 18.562 -82.347 18.523 C-80.262 18.483 -78.178 18.432 -76.094 18.379 C-74.853 18.354 -73.612 18.329 -72.334 18.303 C-67.93 17.903 -65.081 17.161 -62.043 13.898 C-61.431 13.066 -60.818 12.233 -60.188 11.375 C-44.208 -9.276 -22.192 -15.81 0 0 Z " fill="#000000" transform="translate(2536,3292)"/>
<path d="M0 0 C3.963 2.933 4.381 5.67 5.125 10.312 C5.42 13.457 5.538 16.594 5.625 19.75 C6.036 34.646 10.411 44.359 19.625 56.188 C30.448 70.36 37.216 88.241 37.438 106.125 C37.467 106.894 37.496 107.663 37.525 108.455 C37.599 115.165 35.783 120.232 31.379 125.336 C23.047 131.994 14.613 133.014 4.125 132.312 C1.256 131.954 -1.589 131.495 -4.438 131 C-5.121 130.882 -5.805 130.765 -6.509 130.644 C-8.643 130.247 -10.755 129.781 -12.875 129.312 C-13.749 129.164 -14.623 129.016 -15.523 128.863 C-22.142 127.443 -22.142 127.443 -24.069 124.473 C-24.885 122.015 -25.404 119.61 -25.875 117.062 C-27.767 109.009 -30.169 101.611 -33.562 94.062 C-33.985 93.116 -34.407 92.17 -34.843 91.196 C-36.177 88.23 -37.525 85.271 -38.875 82.312 C-61.496 32.32 -61.496 32.32 -56.695 14.453 C-54.108 7.701 -50.427 2.571 -43.875 -0.688 C-29.559 -6.395 -14.325 -5.882 0 0 Z " fill="#000000" transform="translate(2588.875,2652.6875)"/>
<path d="M0 0 C7.192 5.924 11.653 12.397 13.043 21.734 C13.685 31.207 12.406 45.134 8.105 53.734 C8.766 53.412 9.426 53.089 10.106 52.756 C13.124 51.285 16.146 49.822 19.168 48.359 C20.206 47.851 21.245 47.344 22.314 46.82 C30.73 42.759 37.685 39.409 47.105 41.734 C53.784 44.945 56.661 50.092 59.305 56.758 C62.45 66.049 63.872 75.159 60.27 84.535 C56.868 90.961 51.742 96.553 44.852 99.145 C35.174 101.223 24.74 100.87 16.105 95.734 C12.906 93.594 9.982 91.289 7.105 88.734 C6.26 88.012 5.414 87.291 4.543 86.547 C0.051 77.759 4.061 65.851 6.105 56.734 C2.064 57.809 -1.974 58.894 -6.01 59.988 C-7.382 60.358 -8.754 60.725 -10.127 61.09 C-12.108 61.617 -14.085 62.153 -16.062 62.691 C-17.251 63.011 -18.44 63.33 -19.665 63.659 C-24.928 65.411 -28.079 67.542 -31.27 72.047 C-35.248 77.358 -40.111 83.315 -46.895 84.734 C-53.913 84.929 -59.599 83.482 -64.895 78.734 C-72.782 66.522 -69.252 47.443 -66.395 33.955 C-59.676 4.146 -59.676 4.146 -48.895 -3.266 C-33.941 -10.476 -13.601 -9.725 0 0 Z " fill="#000000" transform="translate(2598.89453125,3007.265625)"/>
<path d="M0 0 C0.677 0.109 1.354 0.218 2.052 0.331 C11.727 2.137 20.612 6.151 29.25 10.75 C30.142 11.223 31.034 11.696 31.953 12.183 C38.313 15.602 44.547 19.202 50.688 23 C51.462 23.471 52.236 23.941 53.033 24.426 C60.661 29.259 65.945 34.877 68.25 43.75 C70.373 54.364 71.015 67.055 65.113 76.586 C61.984 80.633 58.953 83.27 53.875 84.172 C44.825 84.84 38.977 80.736 32.247 75.061 C24.837 69.207 17.302 67.818 8.25 66.375 C6.838 66.129 5.427 65.88 4.016 65.629 C-17.074 61.941 -17.074 61.941 -22.75 63.938 C-23.575 64.216 -24.4 64.494 -25.25 64.781 C-26.931 65.433 -28.598 66.121 -30.25 66.844 C-36.108 69.407 -41.334 71.122 -47.75 69.75 C-54.642 66.438 -57.312 59.585 -59.75 52.75 C-63.756 40.955 -66.607 27.594 -61.711 15.602 C-57.695 7.863 -51.016 3.762 -43.02 0.707 C-29.38 -3.131 -13.857 -2.242 0 0 Z " fill="#000000" transform="translate(2196.75,2113.25)"/>
<path d="M0 0 C1.299 -0.022 2.598 -0.045 3.936 -0.068 C14.599 -0.043 24.978 1.083 33.188 8.438 C36.504 13.473 35.918 19.747 34.786 25.464 C34.278 27.67 33.74 29.867 33.188 32.062 C30.635 42.379 29.842 48.219 35.461 57.727 C37.538 60.988 39.658 64.21 41.891 67.367 C45.736 73.506 45.9 79.359 45.188 86.438 C43.044 94.566 35.946 100.679 30.188 106.438 C20.73 106.118 9.63 101.783 1.188 99.438 C0.693 92.838 0.693 92.838 -1.812 59.438 C-8.082 59.438 -14.352 59.438 -20.812 59.438 C-38.375 57.037 -63.382 52.527 -75.734 38.289 C-77.782 34.773 -78.306 31.456 -77.812 27.438 C-72.933 17.069 -61.981 12.318 -51.812 8.438 C-45.907 6.39 -39.897 4.849 -33.812 3.438 C-33.135 3.272 -32.457 3.107 -31.759 2.937 C-21.27 0.462 -10.738 0.108 0 0 Z " fill="#000000" transform="translate(1978.8125,1900.5625)"/>
<path d="M0 0 C0.574 0.28 1.147 0.559 1.738 0.848 C8.709 4.138 15.81 6.831 23.097 9.324 C36.225 13.967 36.225 13.967 39.438 19.457 C39.958 21.638 40.479 23.819 41 26 C47.721 25.347 54.255 24.26 60.875 22.938 C62.726 22.569 64.578 22.203 66.43 21.84 C67.236 21.679 68.043 21.517 68.875 21.351 C71 21 71 21 74 21 C74.483 22.394 74.961 23.791 75.438 25.188 C75.704 25.965 75.971 26.742 76.246 27.543 C79.836 39.242 79.373 52.97 74 64 C65.027 79.572 46.58 88.762 30 94 C20.593 96.375 8.823 96.275 0 92 C-11.029 85.21 -17.471 74.992 -20.941 62.652 C-21.704 59.445 -22.38 56.237 -23 53 C-23.227 51.866 -23.454 50.731 -23.688 49.562 C-24.674 38.319 -25.273 28.88 -17.812 19.938 C-15.341 17.257 -12.739 14.892 -9.938 12.562 C-5.668 8.967 -2.85 4.761 0 0 Z " fill="#000000" transform="translate(1863,1605)"/>
<path d="M0 0 C12.67 9.176 18.449 21.938 21.617 36.918 C23.266 50.193 23.081 64.27 15.062 75.562 C9.652 82.001 3.372 85.7 -5 87 C-17.827 87.676 -28.757 87.604 -39.027 78.945 C-46.478 71.598 -49.327 61.696 -49.469 51.416 C-49.458 50.557 -49.448 49.698 -49.438 48.812 C-49.429 47.9 -49.421 46.988 -49.412 46.049 C-49.041 30.994 -44.148 15.748 -33.738 4.496 C-23.341 -4.453 -12.192 -6.833 0 0 Z " fill="#000000" transform="translate(2053,1325)"/>
<path d="M0 0 C0.613 24.382 -0.663 52.039 -18 71 C-28.93 80.153 -41.223 81.564 -54.918 80.617 C-60.075 80 -65.029 78.459 -70 77 C-71.215 28.891 -71.215 28.891 -57.656 12.738 C-41.526 -4.191 -21.609 -3.003 0 0 Z " fill="#000000" transform="translate(2469,2378)"/>
<path d="M0 0 C6.627 5.128 9.752 12.524 10.973 20.68 C12.273 33.936 8.258 46.785 0.004 57.152 C-6.421 64.124 -15.333 69.992 -25.007 70.857 C-27.264 70.924 -29.52 70.965 -31.777 70.992 C-32.164 71.007 -32.164 71.007 -34.121 71.08 C-40.486 71.149 -45.749 69.631 -50.557 65.302 C-57.683 57.368 -56.846 46.787 -56.331 36.797 C-55.211 25.284 -52.495 11.98 -47.027 1.68 C-44.351 -0.434 -41.261 -1.287 -38.027 -2.32 C-37.115 -2.619 -36.202 -2.918 -35.262 -3.227 C-23.012 -6.764 -10.929 -7.117 0 0 Z " fill="#000000" transform="translate(2254.02734375,1073.3203125)"/>
</svg>
