<?xml version="1.0" encoding="UTF-8"?>
<!-- Generator: visioncortex VTracer 0.6.12 -->
<svg viewBox="1579.61 1136.49 1340.78 2224.78" version="1.1" xmlns="http://www.w3.org/2000/svg" width="4500" height="4500">
<path d="M0 0 C0.891 0.527 1.781 1.054 2.699 1.598 C9.743 6.333 12.391 12.196 15.313 19.917 C15.61 20.686 15.906 21.454 16.211 22.246 C16.461 22.944 16.712 23.642 16.97 24.361 C18 26 18 26 19.985 26.829 C22 27 22 27 24.027 25.492 C26.345 22.564 27.976 19.483 29.562 16.125 C29.708 15.825 29.708 15.825 30.443 14.309 C31.3 12.541 32.15 10.771 33 9 C33.996 6.998 34.995 4.998 36 3 C47.471 2.343 57.124 3.807 66.223 11.25 C74.924 19.817 78.37 30.484 78.5 42.438 C78.351 55.028 74.809 64.119 67 74 C66.375 74.834 65.75 75.668 65.105 76.527 C54.218 89.314 39.359 91.297 23.545 92.573 C18.888 92.929 14.231 93.278 9.572 93.602 C-2.952 94.483 -14.743 95.736 -26 101.75 C-26.674 102.096 -27.349 102.443 -28.044 102.8 C-32.236 104.979 -36.279 107.349 -40.312 109.812 C-50.008 115.523 -58.889 117.134 -70 115 C-79.467 112.271 -87.235 106.864 -95 101 C-95.753 100.446 -96.506 99.891 -97.281 99.32 C-104.748 93.364 -113.43 82.686 -115 73 C-116.453 57.874 -116.453 57.874 -111.602 51.641 C-103.613 43.457 -95.352 40.947 -84.053 40.701 C-75.876 40.657 -68.008 41.21 -60 43 C-60.046 41.753 -60.093 40.507 -60.141 39.223 C-60.526 24.351 -60.065 7.99 -50 -4 C-35.013 -18.831 -15.227 -9.805 0 0 Z " fill="#000000" transform="translate(2745,1868)"/>
<path d="M0 0 C0.986 -0.029 1.972 -0.058 2.988 -0.088 C11.656 -0.162 18.996 1.635 25.625 7.438 C34.5 17.149 34.463 30.763 33.977 43.141 C33.012 56.644 30.131 70.154 27.223 83.359 C23.474 100.537 21.458 117.437 20.131 134.961 C17.495 169.094 17.495 169.094 7.594 179.777 C-2.232 187.958 -14.078 188.378 -26.25 187.312 C-43.086 184.715 -61.913 180.138 -72.992 166.273 C-77.989 158.483 -77.77 150.169 -76.25 141.312 C-73.328 128.846 -66.708 117.509 -60.348 106.52 C-59.998 105.915 -59.649 105.31 -59.289 104.687 C-57.532 101.649 -55.764 98.618 -53.974 95.6 C-41.666 74.655 -41.666 74.655 -43.512 66.355 C-45.206 61.665 -47.423 57.249 -49.688 52.812 C-58.142 36.121 -58.142 36.121 -57.25 26.312 C-55.125 19.937 -51.911 15.083 -46.332 11.371 C-31.6 4.067 -16.453 0.159 0 0 Z " fill="#000000" transform="translate(2483.25,2249.6875)"/>
<path d="M0 0 C-0.031 0.536 -0.031 0.536 -0.188 3.25 C-0.015 23.001 13.008 40.52 23.303 56.367 C42.517 86.185 42.517 86.185 40 105 C38.006 110.736 34.421 114.289 29 117 C-1.269 127.599 -39.066 118.171 -67.27 105.535 C-74.73 101.768 -83.819 96.074 -87 88 C-87.879 78.415 -86.533 68.986 -84.875 59.562 C-84.653 58.27 -84.43 56.978 -84.201 55.646 C-82.75 47.397 -81.021 39.238 -78.938 31.125 C-78.705 30.212 -78.472 29.299 -78.232 28.358 C-76.075 20.399 -73.432 13.431 -67 8 C-66.71 7.753 -66.71 7.753 -65.242 6.504 C-51.625 -3.877 -15.679 -7.839 0 0 Z " fill="#000000" transform="translate(2354,2777)"/>
<path d="M0 0 C17.477 12.568 31.64 35.588 35.688 56.562 C37.714 78.855 28.219 98.418 18.177 117.688 C17.101 119.801 16.097 121.931 15.117 124.09 C14.563 125.256 14.009 126.423 13.438 127.625 C12.982 128.628 12.527 129.631 12.059 130.664 C8.412 134.802 3.62 134.795 -1.66 135.208 C-18.864 136.003 -32.798 134.542 -47 124 C-47.328 123.763 -47.328 123.763 -48.988 122.566 C-60.732 113.375 -67.063 98.192 -69.531 83.883 C-72.621 58.287 -64.765 33.872 -49 13.625 C-47.687 12.066 -46.354 10.524 -45 9 C-44.352 8.269 -43.703 7.538 -43.035 6.785 C-30.906 -6.112 -15.339 -9.85 0 0 Z " fill="#000000" transform="translate(2876,1497)"/>
<path d="M0 0 C14.052 14.133 13 32.046 13 51 C-7.13 51 -27.26 51 -48 51 C-48 53.97 -48 56.94 -48 60 C-48.309 64.603 -48.79 69.178 -49.324 73.759 C-49.484 75.179 -49.63 76.601 -49.763 78.023 C-49.958 80.101 -50.195 82.17 -50.441 84.242 C-50.572 85.468 -50.703 86.694 -50.838 87.957 C-52 91 -52 91 -55.276 92.82 C-56.505 93.209 -57.734 93.599 -59 94 C-59.877 94.299 -60.755 94.599 -61.659 94.907 C-64.332 95.699 -67.008 96.481 -69.688 97.25 C-70.624 97.531 -71.561 97.812 -72.525 98.102 C-72.977 98.232 -72.977 98.232 -75.262 98.891 C-76.076 99.128 -76.89 99.366 -77.729 99.61 C-80.237 100.041 -81.63 99.889 -84 99 C-86.105 97.383 -88.081 95.755 -90.062 94 C-91.233 92.982 -92.405 91.965 -93.578 90.949 C-94.159 90.444 -94.74 89.94 -95.338 89.419 C-97.608 87.48 -99.962 85.654 -102.312 83.812 C-114.522 73.802 -125.393 62.915 -133 49 C-133.509 48.091 -134.018 47.182 -134.543 46.246 C-140.868 33.8 -142.562 18.803 -139.98 5.176 C-139.889 4.689 -139.889 4.689 -139.427 2.224 C-139.286 1.49 -139.145 0.756 -139 0 C-138.218 0.021 -137.436 0.042 -136.63 0.063 C-116.653 0.523 -97.778 -0.855 -78 -4 C-75.564 -4.375 -73.128 -4.749 -70.691 -5.121 C-67.325 -5.636 -63.959 -6.154 -60.596 -6.692 C-41.2 -9.781 -16.355 -13.4 0 0 Z " fill="#000000" transform="translate(1729,1159)"/>
<path d="M0 0 C14.586 -0.023 29.171 -0.041 43.757 -0.052 C50.529 -0.057 57.301 -0.064 64.073 -0.075 C70.602 -0.086 77.131 -0.092 83.661 -0.095 C86.158 -0.097 88.655 -0.1 91.152 -0.106 C94.637 -0.113 98.121 -0.114 101.605 -0.114 C102.649 -0.117 103.693 -0.121 104.768 -0.124 C105.712 -0.123 106.655 -0.122 107.628 -0.12 C108.453 -0.121 109.278 -0.122 110.128 -0.123 C112 0 112 0 113 1 C116.222 21.802 103.911 48.595 95.75 67.188 C95.592 67.55 95.592 67.55 94.79 69.382 C90.583 78.589 90.583 78.589 86.098 81.039 C85.762 81.136 85.762 81.136 84.062 81.625 C83.28 81.858 82.498 82.092 81.691 82.332 C79.752 82.813 77.799 83.242 75.84 83.637 C64.383 85.955 57.856 91.196 49.151 98.678 C32.737 112.692 15.45 123.68 -7 122 C-10 121 -10 121 -11.168 118.727 C-18.423 96.655 -11.354 76.5 -4.262 55.373 C-0.503 44.026 2.559 32.838 2.312 20.812 C2.316 20.014 2.319 19.215 2.322 18.393 C2.282 13.883 1.819 9.624 0.981 5.19 C0.798 4.214 0.615 3.238 0.427 2.232 C0.286 1.495 0.145 0.759 0 0 Z " fill="#000000" transform="translate(2062,3228)"/>
<path d="M0 0 C0.78 0.378 1.56 0.755 2.363 1.145 C25.252 13.544 43.13 36.39 51.25 60.75 C55.081 77.349 52.554 93.754 45 109 C44.66 109.895 44.319 110.789 43.969 111.711 C40.814 115.379 36.656 115.382 32 116 C28.011 116.268 24.04 116.304 20.043 116.301 C19.49 116.303 19.49 116.303 16.691 116.314 C14.371 116.319 12.051 116.32 9.731 116.316 C6.18 116.312 2.63 116.336 -0.92 116.361 C-3.182 116.364 -5.445 116.364 -7.707 116.363 C-8.765 116.372 -9.824 116.382 -10.914 116.391 C-18.048 116.346 -21.517 115.409 -26.727 110.355 C-27.701 109.307 -28.666 108.25 -29.625 107.188 C-30.148 106.614 -30.671 106.041 -31.209 105.45 C-35.248 100.965 -39.024 96.31 -42.7 91.525 C-45.276 88.175 -47.907 84.889 -50.625 81.652 C-51.247 80.91 -51.869 80.168 -52.51 79.403 C-53.715 77.972 -54.925 76.545 -56.142 75.124 C-65.451 64.031 -68.238 54.319 -67 40 C-64.262 25.761 -56.855 12.785 -45.293 3.926 C-31.526 -5.258 -15.141 -7.631 0 0 Z " fill="#000000" transform="translate(1829,1537)"/>
<path d="M0 0 C2.911 2.472 5.731 5.038 8.547 7.616 C9.207 8.211 9.868 8.806 10.548 9.419 C24.563 22.057 38.28 34.501 39.686 54.607 C40.119 64.506 40.323 73.659 35.547 82.616 C35.123 83.413 34.698 84.21 34.261 85.031 C28.209 95.113 18.014 101.311 6.953 104.726 C-7.937 108.23 -24.432 106.389 -38.453 100.616 C-38.769 100.493 -38.769 100.493 -40.365 99.87 C-45.463 97.814 -50.054 95.817 -53.071 91.073 C-54.169 88.231 -54.868 85.609 -55.453 82.616 C-55.621 81.896 -55.789 81.175 -55.962 80.433 C-60.764 58.941 -58.122 32.032 -46.824 12.851 C-40.855 3.93 -34.432 -2.99 -23.953 -6.134 C-14.449 -7.084 -7.589 -6.162 0 0 Z " fill="#000000" transform="translate(1884.453369140625,1998.383544921875)"/>
<path d="M0 0 C0.917 0.651 1.833 1.302 2.777 1.973 C3.745 2.655 4.714 3.336 5.711 4.039 C19.517 14.075 34.683 25.964 38.414 43.555 C39.922 53.588 37.126 61.694 31.375 69.867 C30.848 70.562 30.321 71.257 29.777 71.973 C29.177 72.793 28.576 73.612 27.957 74.457 C16.984 87.122 -2.193 94.14 -18.223 96.973 C-21.804 97.209 -25.384 97.204 -28.973 97.223 C-29.924 97.243 -30.875 97.264 -31.855 97.285 C-38.891 97.324 -46.013 96.826 -51.473 91.973 C-63.319 71.664 -66.509 47.227 -61.199 24.375 C-57.47 11.381 -51.278 0.019 -39.391 -7.129 C-26.07 -13.13 -11.293 -7.632 0 0 Z " fill="#000000" transform="translate(2042.22265625,2419.02734375)"/>
<path d="M0 0 C13.654 11.361 21.193 26.844 22.938 44.438 C23.497 57.673 20.386 69.33 11.438 79.188 C1.066 88.992 -13.985 93.223 -28 93 C-40.025 91.758 -49.431 87.532 -57.375 78.312 C-66.399 66.126 -69.578 51.496 -67.535 36.613 C-64.656 21.128 -57.232 8.525 -44.234 -0.625 C-27.817 -10.728 -15.786 -12.24 0 0 Z " fill="#000000" transform="translate(2062,2857)"/>
</svg>
